<?xml version="1.0" encoding="utf-8"?>
<!-- Generator: Adobe Illustrator 25.0.0, SVG Export Plug-In . SVG Version: 6.00 Build 0)  -->
<svg version="1.1" xmlns="http://www.w3.org/2000/svg" xmlns:xlink="http://www.w3.org/1999/xlink" x="0px" y="0px"
	 viewBox="0 0 997.07 329.55" style="enable-background:new 0 0 997.07 329.55;" xml:space="preserve">
<style type="text/css">
	.st0{fill:url(#SVGID_1_);}
	.st1{fill:#ECF0D9;}
	.st2{fill:#DEE3B4;}
	.st3{fill:#E3E7BF;}
	.st4{fill:#CCD58F;}
	.st5{fill:#B3C150;}
	.st6{fill:#A3AF4E;}
	.st7{fill:#979E41;}
	.st8{fill:url(#SVGID_2_);}
	.st9{fill:url(#SVGID_3_);}
	.st10{fill:url(#SVGID_4_);}
	.st11{fill:url(#SVGID_5_);}
	.st12{fill:url(#SVGID_6_);}
	.st13{fill:url(#SVGID_7_);}
	.st14{fill:url(#SVGID_8_);}
	.st15{fill:url(#SVGID_9_);}
	.st16{fill:url(#SVGID_10_);}
	.st17{fill:url(#SVGID_11_);}
	.st18{fill:#FFF2DB;}
	.st19{fill:#A79B9C;}
	.st20{fill:#FFD13D;}
	.st21{fill:#2C3A64;}
	.st22{fill:#F67047;}
	.st23{fill:#DAE578;}
	.st24{fill:#FFF3DB;}
	.st25{fill:#FCE8C5;}
	.st26{fill:url(#SVGID_12_);}
	.st27{fill:url(#SVGID_13_);}
	.st28{fill:url(#SVGID_14_);}
	.st29{fill:url(#SVGID_15_);}
	.st30{fill:url(#SVGID_16_);}
	.st31{fill:url(#SVGID_17_);}
	.st32{fill:url(#SVGID_18_);}
	.st33{fill:url(#SVGID_19_);}
	.st34{fill:url(#SVGID_20_);}
	.st35{fill:#574246;}
	.st36{fill:#645053;}
	.st37{fill:#4A373A;}
	.st38{fill:#FEE6B9;stroke:#574246;stroke-width:0.5;stroke-miterlimit:10;}
	.st39{fill:#C4BBBC;stroke:#574246;stroke-width:0.5;stroke-miterlimit:10;}
	.st40{fill:#8C7E7F;stroke:#574246;stroke-width:0.5;stroke-miterlimit:10;}
	.st41{fill:#A79B9C;stroke:#574246;stroke-width:0.5;stroke-miterlimit:10;}
	.st42{fill:#FECE74;stroke:#574246;stroke-width:0.5;stroke-miterlimit:10;}
	.st43{fill:#9E8E86;stroke:#574246;stroke-width:0.5;stroke-miterlimit:10;}
	.st44{fill:#E6CCBD;stroke:#574246;stroke-width:0.5;stroke-miterlimit:10;}
	.st45{fill:#FEC251;stroke:#574246;stroke-width:0.5;stroke-miterlimit:10;}
	.st46{fill:#FEF2DB;stroke:#574246;stroke-width:0.5;stroke-miterlimit:10;}
	.st47{fill:#286489;stroke:#574246;stroke-width:0.5;stroke-miterlimit:10;}
	.st48{fill:#F3ECD6;stroke:#574246;stroke-width:0.5;stroke-miterlimit:10;}
	.st49{fill:#FEF2DC;stroke:#574246;stroke-width:0.5;stroke-miterlimit:10;}
	.st50{fill:#574246;stroke:#574246;stroke-width:0.5;stroke-miterlimit:10;}
	.st51{fill:#725F62;stroke:#574246;stroke-width:0.5;stroke-miterlimit:10;}
	.st52{fill:#645053;stroke:#574246;stroke-width:0.5;stroke-miterlimit:10;}
	.st53{fill:#FFFFFF;}
	.st54{fill:#010001;}
	.st55{fill:#272727;}
	.st56{fill:#C5C5C5;}
	.st57{fill:#DCDCDC;stroke:#574246;stroke-width:0.5;stroke-miterlimit:10;}
	.st58{fill:#C5C5C5;stroke:#574246;stroke-width:0.5;stroke-miterlimit:10;}
	.st59{fill:#FBFBFB;stroke:#574246;stroke-width:0.5;stroke-miterlimit:10;}
	.st60{fill:#3B2E2F;}
	.st61{fill:#FDB723;stroke:#574246;stroke-width:0.5;stroke-miterlimit:10;}
	.st62{fill:#F59F24;stroke:#574246;stroke-width:0.5;stroke-miterlimit:10;}
	.st63{fill:#286489;}
	.st64{opacity:0.22;fill:#A3A1AD;}
	.st65{fill:#C92103;stroke:#574246;stroke-width:0.5;stroke-miterlimit:10;}
	.st66{fill:#584446;}
	.st67{fill:#FFB81C;}
	.st68{fill:#FDB723;}
	.st69{fill:#725F62;}
	.st70{fill:#A3AF4E;stroke:#574246;stroke-width:0.15;stroke-miterlimit:10;}
	.st71{fill:#E23333;}
	.st72{fill:#F56F47;}
	.st73{fill:url(#SVGID_21_);stroke:#574246;stroke-width:0.5;stroke-miterlimit:10;}
	.st74{fill:url(#SVGID_22_);stroke:#574246;stroke-width:0.5;stroke-miterlimit:10;}
	.st75{fill:url(#SVGID_23_);stroke:#574246;stroke-width:0.5;stroke-miterlimit:10;}
	.st76{fill:#AC345A;}
	.st77{fill:#CE4762;}
	.st78{fill:url(#SVGID_24_);stroke:#574246;stroke-width:0.5;stroke-miterlimit:10;}
	.st79{fill:url(#SVGID_25_);stroke:#574246;stroke-width:0.5;stroke-miterlimit:10;}
	.st80{fill:url(#SVGID_26_);stroke:#574246;stroke-width:0.5;stroke-miterlimit:10;}
	.st81{fill:url(#SVGID_27_);stroke:#574246;stroke-width:0.5;stroke-miterlimit:10;}
	.st82{fill:url(#SVGID_28_);stroke:#574246;stroke-width:0.5;stroke-miterlimit:10;}
	.st83{fill:url(#SVGID_29_);stroke:#574246;stroke-width:0.5;stroke-miterlimit:10;}
	.st84{fill:url(#SVGID_30_);stroke:#574246;stroke-width:0.5;stroke-miterlimit:10;}
	.st85{fill:url(#SVGID_31_);stroke:#574246;stroke-width:0.5;stroke-miterlimit:10;}
	.st86{fill:url(#SVGID_32_);stroke:#574246;stroke-width:0.5;stroke-miterlimit:10;}
	.st87{fill:url(#SVGID_33_);stroke:#574246;stroke-width:0.5;stroke-miterlimit:10;}
	.st88{fill:url(#SVGID_34_);stroke:#574246;stroke-width:0.5;stroke-miterlimit:10;}
	.st89{fill:url(#SVGID_35_);stroke:#574246;stroke-width:0.5;stroke-miterlimit:10;}
	.st90{fill:url(#SVGID_36_);stroke:#574246;stroke-width:0.5;stroke-miterlimit:10;}
	.st91{fill:url(#SVGID_37_);stroke:#574246;stroke-width:0.5;stroke-miterlimit:10;}
	.st92{fill:url(#SVGID_38_);stroke:#574246;stroke-width:0.5;stroke-miterlimit:10;}
	.st93{fill:url(#SVGID_39_);stroke:#574246;stroke-width:0.5;stroke-miterlimit:10;}
	.st94{fill:url(#SVGID_40_);stroke:#574246;stroke-width:0.5;stroke-miterlimit:10;}
	.st95{fill:url(#SVGID_41_);stroke:#574246;stroke-width:0.5;stroke-miterlimit:10;}
	.st96{fill:url(#SVGID_42_);stroke:#574246;stroke-width:0.5;stroke-miterlimit:10;}
	.st97{fill:url(#SVGID_43_);stroke:#574246;stroke-width:0.5;stroke-miterlimit:10;}
	.st98{fill:url(#SVGID_44_);stroke:#574246;stroke-width:0.5;stroke-miterlimit:10;}
	.st99{fill:url(#SVGID_45_);stroke:#574246;stroke-width:0.5;stroke-miterlimit:10;}
	.st100{fill:url(#SVGID_46_);stroke:#574246;stroke-width:0.5;stroke-miterlimit:10;}
	.st101{fill:url(#SVGID_47_);stroke:#574246;stroke-width:0.5;stroke-miterlimit:10;}
	.st102{fill:url(#SVGID_48_);stroke:#574246;stroke-width:0.5;stroke-miterlimit:10;}
	.st103{fill:url(#SVGID_49_);stroke:#574246;stroke-width:0.5;stroke-miterlimit:10;}
	.st104{fill:url(#SVGID_50_);stroke:#574246;stroke-width:0.5;stroke-miterlimit:10;}
	.st105{fill:url(#SVGID_51_);stroke:#574246;stroke-width:0.5;stroke-miterlimit:10;}
	.st106{fill:url(#SVGID_52_);stroke:#574246;stroke-width:0.5;stroke-miterlimit:10;}
	.st107{fill:url(#SVGID_53_);stroke:#574246;stroke-width:0.5;stroke-miterlimit:10;}
	.st108{fill:url(#SVGID_54_);stroke:#574246;stroke-width:0.5;stroke-miterlimit:10;}
	.st109{fill:url(#SVGID_55_);stroke:#574246;stroke-width:0.5;stroke-miterlimit:10;}
	.st110{fill:url(#SVGID_56_);stroke:#574246;stroke-width:0.5;stroke-miterlimit:10;}
	.st111{fill:url(#SVGID_57_);stroke:#574246;stroke-width:0.5;stroke-miterlimit:10;}
	.st112{fill:url(#SVGID_58_);stroke:#574246;stroke-width:0.5;stroke-miterlimit:10;}
	.st113{fill:url(#SVGID_59_);stroke:#574246;stroke-width:0.5;stroke-miterlimit:10;}
	.st114{fill:url(#SVGID_60_);stroke:#574246;stroke-width:0.5;stroke-miterlimit:10;}
	.st115{fill:url(#SVGID_61_);stroke:#574246;stroke-width:0.5;stroke-miterlimit:10;}
	.st116{fill:url(#SVGID_62_);stroke:#574246;stroke-width:0.5;stroke-miterlimit:10;}
	.st117{fill:#EE7E21;stroke:#574246;stroke-width:0.5;stroke-miterlimit:10;}
	.st118{fill:#B3C150;stroke:#574246;stroke-width:0.5;stroke-miterlimit:10;}
	.st119{fill:#E2E891;stroke:#574246;stroke-width:0.5;stroke-miterlimit:10;}
	.st120{fill:#B2C052;stroke:#574246;stroke-width:0.5;stroke-miterlimit:10;}
	.st121{fill:#979E41;stroke:#574246;stroke-width:0.5;stroke-miterlimit:10;}
	.st122{fill:#FFF2DB;stroke:#574246;stroke-width:0.5;stroke-miterlimit:10;}
	.st123{fill:url(#SVGID_63_);stroke:#574246;stroke-width:0.5;stroke-miterlimit:10;}
	.st124{fill:url(#SVGID_64_);stroke:#574246;stroke-width:0.5;stroke-miterlimit:10;}
	.st125{fill:url(#SVGID_65_);stroke:#574246;stroke-width:0.5;stroke-miterlimit:10;}
	.st126{fill:url(#SVGID_66_);stroke:#574246;stroke-width:0.5;stroke-miterlimit:10;}
	.st127{fill:url(#SVGID_67_);stroke:#574246;stroke-width:0.5;stroke-miterlimit:10;}
	.st128{fill:url(#SVGID_68_);stroke:#574246;stroke-width:0.5;stroke-miterlimit:10;}
	.st129{fill:#C18E4C;stroke:#574246;stroke-width:0.5;stroke-miterlimit:10;}
	.st130{fill:url(#SVGID_69_);stroke:#574246;stroke-width:0.5;stroke-miterlimit:10;}
	.st131{fill:url(#SVGID_70_);stroke:#574246;stroke-width:0.5;stroke-miterlimit:10;}
	.st132{fill:url(#SVGID_71_);stroke:#574246;stroke-width:0.5;stroke-miterlimit:10;}
	.st133{fill:#AC345A;stroke:#574246;stroke-width:0.5;stroke-miterlimit:10;}
	.st134{fill:#FECE74;}
	.st135{fill:#A3AF4E;stroke:#574246;stroke-width:0.5;stroke-miterlimit:10;}
	.st136{fill:url(#SVGID_72_);stroke:#574246;stroke-width:0.5;stroke-miterlimit:10;}
	.st137{fill:url(#SVGID_73_);stroke:#574246;stroke-width:0.5;stroke-miterlimit:10;}
	.st138{fill:url(#SVGID_74_);stroke:#574246;stroke-width:0.5;stroke-miterlimit:10;}
	.st139{fill:url(#SVGID_75_);stroke:#574246;stroke-width:0.5;stroke-miterlimit:10;}
	.st140{fill:url(#SVGID_76_);stroke:#574246;stroke-width:0.5;stroke-miterlimit:10;}
	.st141{fill:url(#SVGID_77_);stroke:#574246;stroke-width:0.5;stroke-miterlimit:10;}
	.st142{fill:url(#SVGID_78_);stroke:#574246;stroke-width:0.5;stroke-miterlimit:10;}
	.st143{fill:url(#SVGID_79_);stroke:#574246;stroke-width:0.5;stroke-miterlimit:10;}
	.st144{fill:url(#SVGID_80_);stroke:#574246;stroke-width:0.5;stroke-miterlimit:10;}
	.st145{fill:url(#SVGID_81_);stroke:#574246;stroke-width:0.5;stroke-miterlimit:10;}
	.st146{fill:url(#SVGID_82_);stroke:#574246;stroke-width:0.5;stroke-miterlimit:10;}
	.st147{fill:#FC1D1D;}
	.st148{fill:#FFD13D;stroke:#574246;stroke-width:0.5;stroke-miterlimit:10;}
	.st149{fill:url(#SVGID_83_);stroke:#574246;stroke-width:0.5;stroke-miterlimit:10;}
	.st150{fill:url(#SVGID_84_);stroke:#574246;stroke-width:0.5;stroke-miterlimit:10;}
	.st151{fill:#554145;}
	.st152{opacity:0.19;}
	.st153{fill:#644F52;}
	.st154{fill:#644F52;stroke:#574246;stroke-width:0;stroke-miterlimit:10;}
	.st155{fill:#F67047;stroke:#574246;stroke-width:0.5;stroke-miterlimit:10;}
	.st156{fill:#FF8C6B;stroke:#574246;stroke-width:0.5;stroke-miterlimit:10;}
	.st157{fill:#FCB384;stroke:#574246;stroke-width:0.5;stroke-miterlimit:10;}
	.st158{fill:#935B31;stroke:#574246;stroke-width:0.5;stroke-miterlimit:10;}
	.st159{fill:#7C4721;}
	.st160{fill:#5F3714;}
	.st161{fill:#482C10;}
	.st162{fill:#FF8C6B;}
	.st163{fill:#8F1805;}
	.st164{fill:#F99D0B;stroke:#574246;stroke-width:0.5;stroke-miterlimit:10;}
	.st165{fill:#8F1701;}
	.st166{fill:#1E597B;}
	.st167{fill:#F99D0B;}
	.st168{fill:#4A373A;stroke:#574246;stroke-width:0.5;stroke-miterlimit:10;}
	.st169{fill:none;stroke:#574246;stroke-width:0.5;stroke-miterlimit:10;}
	.st170{fill:#8D9799;stroke:#574246;stroke-width:0.5;stroke-miterlimit:10;}
	.st171{fill:#838B8D;}
	.st172{fill:#848C8D;stroke:#574246;stroke-width:0.5;stroke-miterlimit:10;}
	.st173{fill:#8C9798;}
	.st174{fill:#EE7E21;}
	.st175{fill:url(#SVGID_85_);}
	.st176{fill:url(#SVGID_86_);}
	.st177{fill:url(#SVGID_87_);}
	.st178{fill:#FDB186;stroke:#574246;stroke-width:0.5;stroke-miterlimit:10;}
	.st179{fill:#896139;stroke:#574246;stroke-width:0.5;stroke-miterlimit:10;}
	.st180{fill:#AF744B;}
	.st181{fill:#838B8D;stroke:#574246;stroke-width:0.5;stroke-miterlimit:10;}
	.st182{fill:url(#SVGID_88_);}
	.st183{fill:url(#SVGID_89_);}
	.st184{fill:url(#SVGID_90_);}
	.st185{fill:url(#SVGID_91_);}
	.st186{fill:url(#SVGID_92_);}
	.st187{fill:url(#SVGID_93_);}
	.st188{fill:url(#SVGID_94_);}
	.st189{fill:url(#SVGID_95_);}
	.st190{fill:url(#SVGID_96_);}
	.st191{fill:url(#SVGID_97_);}
	.st192{fill:url(#SVGID_98_);}
	.st193{fill:url(#SVGID_99_);}
	.st194{fill:url(#SVGID_100_);}
	.st195{fill:url(#SVGID_101_);}
	.st196{fill:url(#SVGID_102_);}
	.st197{fill:url(#SVGID_103_);}
	.st198{fill:url(#SVGID_104_);}
	.st199{fill:url(#SVGID_105_);}
	.st200{fill:url(#SVGID_106_);}
	.st201{fill:url(#SVGID_107_);}
	.st202{fill:url(#SVGID_108_);stroke:#574246;stroke-width:0.5;stroke-miterlimit:10;}
	.st203{fill:url(#SVGID_109_);stroke:#574246;stroke-width:0.5;stroke-miterlimit:10;}
	.st204{fill:url(#SVGID_110_);stroke:#574246;stroke-width:0.5;stroke-miterlimit:10;}
	.st205{fill:url(#SVGID_111_);stroke:#574246;stroke-width:0.5;stroke-miterlimit:10;}
	.st206{fill:url(#SVGID_112_);stroke:#574246;stroke-width:0.5;stroke-miterlimit:10;}
	.st207{fill:url(#SVGID_113_);stroke:#574246;stroke-width:0.5;stroke-miterlimit:10;}
	.st208{fill:url(#SVGID_114_);stroke:#574246;stroke-width:0.5;stroke-miterlimit:10;}
	.st209{fill:url(#SVGID_115_);stroke:#574246;stroke-width:0.5;stroke-miterlimit:10;}
	.st210{fill:url(#SVGID_116_);stroke:#574246;stroke-width:0.5;stroke-miterlimit:10;}
	.st211{fill:url(#SVGID_117_);stroke:#574246;stroke-width:0.5;stroke-miterlimit:10;}
	.st212{fill:url(#SVGID_118_);stroke:#574246;stroke-width:0.5;stroke-miterlimit:10;}
	.st213{fill:url(#SVGID_119_);stroke:#574246;stroke-width:0.5;stroke-miterlimit:10;}
	.st214{fill:url(#SVGID_120_);stroke:#574246;stroke-width:0.5;stroke-miterlimit:10;}
	.st215{fill:url(#SVGID_121_);stroke:#574246;stroke-width:0.5;stroke-miterlimit:10;}
	.st216{fill:url(#SVGID_122_);stroke:#574246;stroke-width:0.5;stroke-miterlimit:10;}
	.st217{fill:url(#SVGID_123_);stroke:#574246;stroke-width:0.5;stroke-miterlimit:10;}
	.st218{fill:url(#SVGID_124_);stroke:#574246;stroke-width:0.5;stroke-miterlimit:10;}
	.st219{fill:url(#SVGID_125_);stroke:#574246;stroke-width:0.5;stroke-miterlimit:10;}
	.st220{fill:url(#SVGID_126_);stroke:#574246;stroke-width:0.5;stroke-miterlimit:10;}
	.st221{fill:url(#SVGID_127_);stroke:#574246;stroke-width:0.5;stroke-miterlimit:10;}
	.st222{fill:url(#SVGID_128_);stroke:#574246;stroke-width:0.5;stroke-miterlimit:10;}
	.st223{fill:url(#SVGID_129_);stroke:#574246;stroke-width:0.5;stroke-miterlimit:10;}
	.st224{fill:url(#SVGID_130_);stroke:#574246;stroke-width:0.5;stroke-miterlimit:10;}
	.st225{fill:url(#SVGID_131_);stroke:#574246;stroke-width:0.5;stroke-miterlimit:10;}
	.st226{fill:url(#SVGID_132_);stroke:#574246;stroke-width:0.5;stroke-miterlimit:10;}
	.st227{fill:url(#SVGID_133_);stroke:#574246;stroke-width:0.5;stroke-miterlimit:10;}
	.st228{fill:url(#SVGID_134_);stroke:#574246;stroke-width:0.5;stroke-miterlimit:10;}
	.st229{fill:url(#SVGID_135_);stroke:#574246;stroke-width:0.5;stroke-miterlimit:10;}
	.st230{fill:url(#SVGID_136_);stroke:#574246;stroke-width:0.5;stroke-miterlimit:10;}
	.st231{fill:url(#SVGID_137_);stroke:#574246;stroke-width:0.5;stroke-miterlimit:10;}
	.st232{fill:url(#SVGID_138_);stroke:#574246;stroke-width:0.5;stroke-miterlimit:10;}
	.st233{fill:url(#SVGID_139_);stroke:#574246;stroke-width:0.5;stroke-miterlimit:10;}
	.st234{fill:url(#SVGID_140_);stroke:#574246;stroke-width:0.5;stroke-miterlimit:10;}
	.st235{fill:url(#SVGID_141_);stroke:#574246;stroke-width:0.5;stroke-miterlimit:10;}
	.st236{fill:url(#SVGID_142_);stroke:#574246;stroke-width:0.5;stroke-miterlimit:10;}
	.st237{fill:url(#SVGID_143_);stroke:#574246;stroke-width:0.5;stroke-miterlimit:10;}
	.st238{fill:url(#SVGID_144_);stroke:#574246;stroke-width:0.5;stroke-miterlimit:10;}
	.st239{fill:url(#SVGID_145_);stroke:#574246;stroke-width:0.5;stroke-miterlimit:10;}
	.st240{fill:url(#SVGID_146_);stroke:#574246;stroke-width:0.5;stroke-miterlimit:10;}
	.st241{fill:url(#SVGID_147_);stroke:#574246;stroke-width:0.5;stroke-miterlimit:10;}
	.st242{fill:url(#SVGID_148_);stroke:#574246;stroke-width:0.5;stroke-miterlimit:10;}
	.st243{fill:url(#SVGID_149_);stroke:#574246;stroke-width:0.5;stroke-miterlimit:10;}
	.st244{fill:url(#SVGID_150_);stroke:#574246;stroke-width:0.5;stroke-miterlimit:10;}
	.st245{fill:url(#SVGID_151_);stroke:#574246;stroke-width:0.5;stroke-miterlimit:10;}
	.st246{fill:url(#SVGID_152_);stroke:#574246;stroke-width:0.5;stroke-miterlimit:10;}
	.st247{fill:url(#SVGID_153_);stroke:#574246;stroke-width:0.5;stroke-miterlimit:10;}
	.st248{fill:url(#SVGID_154_);stroke:#574246;stroke-width:0.5;stroke-miterlimit:10;}
	.st249{fill:url(#SVGID_155_);stroke:#574246;stroke-width:0.5;stroke-miterlimit:10;}
	.st250{fill:url(#SVGID_156_);stroke:#574246;stroke-width:0.5;stroke-miterlimit:10;}
	.st251{fill:url(#SVGID_157_);stroke:#574246;stroke-width:0.5;stroke-miterlimit:10;}
	.st252{fill:url(#SVGID_158_);stroke:#574246;stroke-width:0.5;stroke-miterlimit:10;}
	.st253{fill:url(#SVGID_159_);stroke:#574246;stroke-width:0.5;stroke-miterlimit:10;}
	.st254{fill:url(#SVGID_160_);stroke:#574246;stroke-width:0.5;stroke-miterlimit:10;}
	.st255{fill:url(#SVGID_161_);stroke:#574246;stroke-width:0.5;stroke-miterlimit:10;}
	.st256{fill:url(#SVGID_162_);stroke:#574246;stroke-width:0.5;stroke-miterlimit:10;}
	.st257{fill:url(#SVGID_163_);stroke:#574246;stroke-width:0.5;stroke-miterlimit:10;}
	.st258{fill:url(#SVGID_164_);stroke:#574246;stroke-width:0.5;stroke-miterlimit:10;}
	.st259{fill:url(#SVGID_165_);stroke:#574246;stroke-width:0.5;stroke-miterlimit:10;}
	.st260{fill:url(#SVGID_166_);stroke:#574246;stroke-width:0.5;stroke-miterlimit:10;}
	.st261{fill:url(#SVGID_167_);stroke:#574246;stroke-width:0.5;stroke-miterlimit:10;}
	.st262{fill:url(#SVGID_168_);stroke:#574246;stroke-width:0.5;stroke-miterlimit:10;}
	.st263{fill:url(#SVGID_169_);stroke:#574246;stroke-width:0.5;stroke-miterlimit:10;}
	.st264{fill:url(#SVGID_170_);stroke:#574246;stroke-width:0.5;stroke-miterlimit:10;}
	.st265{fill:url(#SVGID_171_);stroke:#574246;stroke-width:0.5;stroke-miterlimit:10;}
	.st266{fill:url(#SVGID_172_);}
	.st267{fill:url(#SVGID_173_);}
	.st268{fill:url(#SVGID_174_);}
</style>
<g id="Слой_1">
</g>
<g id="Слой_2">
</g>
<g id="Слой_3">
</g>
<g id="фон">
</g>
<g id="_x31__1_">
</g>
<g id="все">
	<g>
		<g>
			<g>
				<g>
					<circle class="st119" cx="22.31" cy="309.77" r="11.78"/>
					<path class="st120" d="M19.46,310.04c0,0-6.52-12.05-7.7-12.32s-4.57,6.38-5.21,11.82s7.8,10.48,7.8,10.48l7.73,5.5
						c0,0,11.6-12.66,12.64-17.15c1.04-4.49,2.71-9.06,1.67-9.92c-1.04-0.86-6.84,2.76-10.32,4.44
						C22.59,304.56,20.59,307.82,19.46,310.04z"/>
					<path class="st121" d="M37.89,308.09c0.95-1.85-1.15-1.81-4.66-0.58c0,0,0,0,0,0l0,0c-0.69,0.24-1.43,0.52-2.22,0.85
						c-4.8,1.99-7.83,4.39-9.37,8.38c-0.53,1.37-0.77,2.14-0.87,2.57c-0.94-1.88-5.34-10.34-9.28-12.35
						c-0.59-0.3-1.22-0.59-1.85-0.86l0,0c0,0,0,0,0,0c-4.08-1.73-8.59-2.63-9.34-1.72c0,0,6.01,9.75,7.26,13.3c0,0,0,0,0,0
						c1.28,4.82,5.11,8.78,10.31,9.98c6.73,1.55,13.45-2.07,15.98-8.27l0,0l0,0c0.25-0.61,0.46-1.26,0.62-1.92
						C35.4,314.68,37.09,309.67,37.89,308.09z"/>
				</g>
				<g>
					<circle class="st119" cx="63.06" cy="272.67" r="8.1"/>
					<path class="st120" d="M71.91,277.83c0,0,3-5.44,2.43-7.8s-3.76-2.54-6.39-1.41c-2.63,1.13-6.83,4.91-6.83,4.91
						s-3.23-5.65-7.09-5.55c-3.86,0.1-3.56,1.31-3.56,1.31s-0.36,5.31,5.04,9.09S64.49,284.14,71.91,277.83z"/>
					<path class="st121" d="M61.54,278.92c0,0,10.64-5.09,12.99-4.65c2.35,0.43-0.32,8.2-6.03,10.6c-5.71,2.4-10.86,1.36-15.22-2.9
						c-4.36-4.26-7.33-7.39-4.8-8.25C52.05,272.49,61.54,278.92,61.54,278.92z"/>
				</g>
				<g>
					<circle class="st119" cx="133.09" cy="204.26" r="10.23"/>
					<path class="st120" d="M135.57,204.49c0,0,5.66-10.46,6.68-10.69s3.97,5.54,4.52,10.26c0.55,4.72-6.77,9.1-6.77,9.1l-6.71,4.78
						c0,0-10.07-10.99-10.97-14.89s-2.35-7.87-1.45-8.62c0.9-0.75,5.94,2.4,8.96,3.85S134.59,202.56,135.57,204.49z"/>
					<path class="st121" d="M119.57,202.8c-0.82-1.61,1-1.57,4.05-0.5c0,0,0,0,0,0l0,0c0.6,0.21,1.24,0.45,1.93,0.74
						c4.17,1.73,6.8,3.81,8.14,7.27c0.46,1.19,0.67,1.86,0.75,2.23c0.82-1.63,4.64-8.98,8.05-10.72c0.52-0.26,1.06-0.51,1.6-0.74
						l0,0c0,0,0,0,0,0c3.54-1.5,7.46-2.28,8.11-1.5c0,0-5.22,8.46-6.3,11.54c0,0,0,0,0,0c-1.11,4.18-4.44,7.62-8.95,8.66
						c-5.85,1.35-11.68-1.8-13.88-7.18l0,0l0,0c-0.22-0.53-0.4-1.09-0.54-1.67C121.73,208.52,120.27,204.17,119.57,202.8z"/>
				</g>
				<g>
					<circle class="st119" cx="95.55" cy="239.96" r="7.03"/>
					<path class="st120" d="M87.87,244.43c0,0-2.6-4.72-2.11-6.77c0.49-2.05,3.27-2.21,5.55-1.22s5.93,4.26,5.93,4.26
						s2.8-4.9,6.15-4.82c3.35,0.09,3.09,1.14,3.09,1.14s0.31,4.61-4.38,7.9S94.31,249.91,87.87,244.43z"/>
					<path class="st121" d="M96.87,245.38c0,0-9.24-4.42-11.28-4.04c-2.04,0.38,0.28,7.12,5.24,9.2c4.96,2.08,9.43,1.18,13.21-2.52
						c3.79-3.7,6.36-6.41,4.17-7.16C105.11,239.8,96.87,245.38,96.87,245.38z"/>
				</g>
				<g>
					<circle class="st119" cx="182.95" cy="163.21" r="8.58"/>
					<path class="st120" d="M180.88,163.41c0,0-4.75-8.78-5.61-8.97c-0.86-0.2-3.33,4.65-3.79,8.61c-0.46,3.96,5.68,7.64,5.68,7.64
						l5.63,4.01c0,0,8.45-9.23,9.21-12.5c0.76-3.27,1.98-6.6,1.22-7.23c-0.76-0.63-4.98,2.01-7.52,3.23
						C183.15,159.41,181.7,161.79,180.88,163.41z"/>
					<path class="st121" d="M194.3,161.99c0.69-1.35-0.84-1.32-3.4-0.42c0,0,0,0,0,0l0,0c-0.5,0.18-1.04,0.38-1.62,0.62
						c-3.5,1.45-5.71,3.2-6.83,6.1c-0.39,1-0.56,1.56-0.63,1.87c-0.69-1.37-3.89-7.53-6.76-9c-0.43-0.22-0.89-0.43-1.35-0.62l0,0
						c0,0,0,0,0,0c-2.97-1.26-6.26-1.91-6.8-1.26c0,0,4.38,7.1,5.29,9.69c0,0,0,0,0,0c0.93,3.51,3.73,6.4,7.51,7.27
						c4.91,1.13,9.8-1.51,11.64-6.03l0,0l0,0c0.18-0.45,0.33-0.91,0.45-1.4C192.49,166.78,193.72,163.13,194.3,161.99z"/>
				</g>
				<g>
					<circle class="st119" cx="218.51" cy="129.37" r="6.66"/>
					<path class="st120" d="M211.24,133.61c0,0-2.46-4.47-2-6.41s3.09-2.09,5.25-1.16c2.16,0.93,5.61,4.03,5.61,4.03
						s2.65-4.64,5.82-4.56c3.17,0.08,2.92,1.07,2.92,1.07s0.29,4.36-4.14,7.47C220.27,137.18,217.34,138.79,211.24,133.61z"/>
					<path class="st121" d="M219.76,134.5c0,0-8.74-4.18-10.67-3.82c-1.93,0.36,0.26,8.11,4.95,10.08s8.92-0.25,12.5-3.75
						c3.58-3.5,6.02-6.07,3.95-6.78C227.56,129.22,219.76,134.5,219.76,134.5z"/>
				</g>
				<g>
					<circle class="st119" cx="262.01" cy="95.17" r="10.23"/>
					<path class="st120" d="M259.53,95.41c0,0-5.66-10.46-6.68-10.69s-3.97,5.54-4.52,10.26c-0.55,4.72,6.77,9.1,6.77,9.1l6.71,4.78
						c0,0,10.07-10.99,10.97-14.89c0.9-3.9,2.35-7.87,1.45-8.62s-5.94,2.4-8.96,3.85C262.25,90.65,260.52,93.48,259.53,95.41z"/>
					<path class="st121" d="M275.53,93.72c0.82-1.61-1-1.57-4.05-0.5c0,0,0,0,0,0l0,0c-0.6,0.21-1.24,0.45-1.93,0.74
						c-4.17,1.73-6.8,3.81-8.14,7.27c-0.46,1.19-0.67,1.86-0.75,2.23c-0.82-1.63-4.64-8.98-8.05-10.72
						c-0.52-0.26-1.06-0.51-1.6-0.74l0,0c0,0,0,0,0,0c-3.54-1.5-7.46-2.28-8.11-1.5c0,0,5.22,8.46,6.3,11.54c0,0,0,0,0,0
						c1.11,4.18,4.44,7.62,8.95,8.66c5.85,1.35,11.68-1.8,13.88-7.18l0,0l0,0c0.22-0.53,0.4-1.09,0.54-1.67
						C273.37,99.44,274.84,95.08,275.53,93.72z"/>
				</g>
				<g>
					<circle class="st119" cx="291.79" cy="63.87" r="7.03"/>
					<path class="st120" d="M284.11,68.35c0,0-2.6-4.72-2.11-6.77c0.49-2.05,3.27-2.21,5.55-1.22c2.28,0.98,5.93,4.26,5.93,4.26
						s2.8-4.9,6.15-4.82c3.35,0.09,3.09,1.14,3.09,1.14s0.31,4.61-4.38,7.9C293.65,72.12,290.55,73.83,284.11,68.35z"/>
					<path class="st121" d="M293.11,69.29c0,0-9.24-4.42-11.28-4.04c-2.04,0.38,0.28,7.12,5.24,9.2c4.96,2.08,9.43,1.18,13.21-2.52
						c3.79-3.7,6.36-6.41,4.17-7.16C301.35,63.72,293.11,69.29,293.11,69.29z"/>
				</g>
				<g>
					<circle class="st119" cx="356.67" cy="9.13" r="8.58"/>
					<path class="st120" d="M354.59,9.32c0,0-4.75-8.78-5.61-8.97s-3.33,4.65-3.79,8.61s5.68,7.64,5.68,7.64l5.63,4.01
						c0,0,8.45-9.23,9.21-12.5c0.76-3.27,1.98-6.6,1.22-7.23c-0.76-0.63-4.98,2.01-7.52,3.23C356.87,5.33,355.42,7.71,354.59,9.32z"
						/>
					<path class="st121" d="M368.02,7.91c0.69-1.35-0.84-1.32-3.4-0.42c0,0,0,0,0,0l0,0c-0.5,0.18-1.04,0.38-1.62,0.62
						c-3.5,1.45-5.71,3.2-6.83,6.1c-0.39,1-0.56,1.56-0.63,1.87c-0.69-1.37-3.89-7.53-6.76-9c-0.43-0.22-0.89-0.43-1.35-0.62l0,0
						c0,0,0,0,0,0c-2.97-1.26-6.26-1.91-6.8-1.26c0,0,4.38,7.1,5.29,9.69c0,0,0,0,0,0c0.93,3.51,3.73,6.4,7.51,7.27
						c4.91,1.13,9.8-1.51,11.64-6.03l0,0l0,0c0.18-0.45,0.33-0.91,0.45-1.4C366.2,12.7,367.43,9.05,368.02,7.91z"/>
				</g>
				<g>
					<circle class="st119" cx="324.6" cy="34.29" r="6.66"/>
					<path class="st120" d="M331.86,38.53c0,0,2.46-4.47,2-6.41s-3.09-2.09-5.25-1.16C326.45,31.89,323,35,323,35
						s-2.65-4.64-5.82-4.56c-3.17,0.08-2.92,1.07-2.92,1.07s-0.29,4.36,4.14,7.47C322.83,42.1,325.77,43.71,331.86,38.53z"/>
					<path class="st121" d="M323.34,39.42c0,0,8.74-4.18,10.67-3.82c1.93,0.36-0.26,8.11-4.95,10.08c-4.69,1.97-8.92-0.25-12.5-3.75
						s-6.02-6.07-3.95-6.78C315.55,34.14,323.34,39.42,323.34,39.42z"/>
				</g>
			</g>
			<g>
				<path class="st60" d="M266.91,113.59c1.19,1.65,4.37,1.65,5.35,0c0.98-1.65-1-3.86-2.58-4.41S265.73,111.94,266.91,113.59z"/>
				<path class="st36" d="M259.8,105.87c-0.79,1.65-2.37,3.86-0.79,5.51c2.24,2.34,7.66,0.84,6.8-2.06S262.17,100.91,259.8,105.87z"
					/>
				<path class="st60" d="M259.36,106.73c0,0-2.11-1.9-2.81,0c-0.7,1.9,1.81,3.38,1.81,3.38L259.36,106.73z"/>
				<path class="st60" d="M255.05,106.43c0,0-0.32-2.72-1.94-2.74c-1.62-0.02-3.16-0.55-3.18,1.37c-0.02,1.92,3.15,4.13,3.94,4.13
					S255.05,106.43,255.05,106.43z"/>
				<path class="st60" d="M240.52,107.14c0,0-3.47-2.22-4.49,0.34s3.07,4.2,3.07,4.2L240.52,107.14z"/>
				<path class="st69" d="M245.17,98.71c-1.57-0.22-3.56,2.2-5.54,6.06c-1.98,3.86-2.77,7.17,1.19,8.27
					c3.95,1.1,11.47,1.1,12.26-2.2C253.87,107.53,249.12,99.26,245.17,98.71z"/>
				<path class="st60" d="M251.09,109.21c0,0-3.8,0.56-3.74,3.49s4.18,1.43,4.18,1.43L251.09,109.21z"/>
				<path class="st36" d="M252.68,106.43c-2.37,2.76-3.84,2.51-2.77,5.51c0.79,2.2,3.16,3.31,4.74,3.31c1.58,0,4.57-1.65,3.27-4.41
					C256.63,108.08,255.05,103.67,252.68,106.43z"/>
			</g>
			<g>
				<path class="st60" d="M75.51,256c-1.4,1.4-5.16,1.4-6.32,0c-1.16-1.4,1.18-3.27,3.05-3.74C74.11,251.79,76.91,254.59,75.51,256z
					"/>
				<path class="st36" d="M83.92,249.46c0.93,1.4,2.8,3.27,0.93,4.67c-2.64,1.98-9.05,0.71-8.03-1.75S81.12,245.25,83.92,249.46z"/>
				<path class="st60" d="M84.44,250.18c0,0,2.49-1.61,3.32,0s-2.14,2.87-2.14,2.87L84.44,250.18z"/>
				<path class="st60" d="M89.52,249.92c0,0,0.38-2.31,2.29-2.32s3.74-0.47,3.76,1.16c0.02,1.63-3.72,3.5-4.65,3.5
					S89.52,249.92,89.52,249.92z"/>
				<path class="st60" d="M106.69,250.53c0,0,4.1-1.88,5.31,0.29c1.21,2.17-3.63,3.56-3.63,3.56L106.69,250.53z"/>
				<path class="st69" d="M101.2,243.38c1.86-0.19,4.2,1.87,6.54,5.14c2.34,3.27,3.27,6.07-1.4,7.01s-13.55,0.93-14.48-1.87
					S96.53,243.85,101.2,243.38z"/>
				<path class="st60" d="M94.2,252.28c0,0,4.48,0.47,4.42,2.96s-4.94,1.21-4.94,1.21L94.2,252.28z"/>
				<path class="st36" d="M92.33,249.92c2.8,2.34,4.54,2.13,3.27,4.67c-0.93,1.87-3.74,2.8-5.61,2.8s-5.4-1.4-3.87-3.74
					C87.65,251.32,89.52,247.59,92.33,249.92z"/>
			</g>
			<g>
				<path class="st60" d="M48.08,290.43c-1.1,1.02-4.05,1.02-4.96,0s0.92-2.38,2.39-2.72C46.98,287.37,49.18,289.41,48.08,290.43z"
					/>
				<path class="st36" d="M54.68,285.68c0.73,1.02,2.2,2.38,0.73,3.4c-2.07,1.44-7.1,0.52-6.3-1.27
					C49.92,286.02,52.48,282.62,54.68,285.68z"/>
				<path class="st60" d="M55.09,286.2c0,0,1.96-1.17,2.61,0s-1.68,2.08-1.68,2.08L55.09,286.2z"/>
				<path class="st60" d="M59.08,286.02c0,0,0.3-1.68,1.8-1.69c1.5-0.01,2.93-0.34,2.95,0.84c0.02,1.18-2.92,2.54-3.65,2.54
					C59.45,287.71,59.08,286.02,59.08,286.02z"/>
				<path class="st60" d="M72.55,286.46c0,0,3.22-1.37,4.17,0.21c0.95,1.58-2.85,2.59-2.85,2.59L72.55,286.46z"/>
				<path class="st69" d="M68.24,281.26c1.46-0.14,3.3,1.36,5.13,3.74c1.83,2.38,2.57,4.41-1.1,5.09
					c-3.67,0.68-10.63,0.68-11.36-1.36C60.18,286.69,64.58,281.6,68.24,281.26z"/>
				<path class="st60" d="M62.75,287.73c0,0,3.52,0.34,3.47,2.15s-3.87,0.88-3.87,0.88L62.75,287.73z"/>
				<path class="st36" d="M61.28,286.02c2.2,1.7,3.56,1.55,2.57,3.4c-0.73,1.36-2.93,2.04-4.4,2.04s-4.24-1.02-3.04-2.72
					C57.61,287.03,59.08,284.32,61.28,286.02z"/>
			</g>
			<g>
				<path class="st60" d="M8.27,328.33c-1.21,1.23-4.44,1.23-5.44,0s1.01-2.87,2.62-3.28S9.48,327.1,8.27,328.33z"/>
				<path class="st36" d="M15.51,322.59c0.8,1.23,2.41,2.87,0.8,4.1c-2.28,1.74-7.8,0.62-6.92-1.53
					C10.28,323,13.1,318.9,15.51,322.59z"/>
				<path class="st60" d="M15.96,323.23c0,0,2.15-1.41,2.86,0c0.72,1.41-1.85,2.51-1.85,2.51L15.96,323.23z"/>
				<path class="st60" d="M20.34,323c0,0,0.33-2.02,1.98-2.04c1.65-0.01,3.22-0.41,3.24,1.02c0.02,1.43-3.2,3.07-4.01,3.07
					C20.74,325.05,20.34,323,20.34,323z"/>
				<path class="st60" d="M35.13,323.53c0,0,3.53-1.65,4.57,0.26c1.04,1.91-3.13,3.12-3.13,3.12L35.13,323.53z"/>
				<path class="st69" d="M30.4,317.26c1.6-0.16,3.62,1.64,5.63,4.51c2.01,2.87,2.82,5.33-1.21,6.15
					c-4.02,0.82-11.67,0.82-12.47-1.64C21.55,323.82,26.38,317.67,30.4,317.26z"/>
				<path class="st60" d="M24.37,325.07c0,0,3.86,0.41,3.81,2.59c-0.06,2.18-4.25,1.06-4.25,1.06L24.37,325.07z"/>
				<path class="st36" d="M22.76,323c2.41,2.05,3.91,1.87,2.82,4.1c-0.8,1.64-3.22,2.46-4.83,2.46s-4.65-1.23-3.33-3.28
					C18.73,324.23,20.34,320.95,22.76,323z"/>
			</g>
			<g>
				<path class="st60" d="M144.73,221.84c1.4,1.4,5.16,1.4,6.32,0c1.16-1.4-1.18-3.27-3.05-3.74
					C146.13,217.64,143.33,220.44,144.73,221.84z"/>
				<path class="st36" d="M136.32,215.3c-0.93,1.4-2.8,3.27-0.93,4.67c2.64,1.98,9.05,0.71,8.03-1.75
					C142.39,215.77,139.12,211.1,136.32,215.3z"/>
				<path class="st60" d="M135.8,216.03c0,0-2.49-1.61-3.32,0c-0.83,1.61,2.14,2.87,2.14,2.87L135.8,216.03z"/>
				<path class="st60" d="M130.72,215.77c0,0-0.38-2.31-2.29-2.32s-3.74-0.47-3.76,1.16c-0.02,1.63,3.72,3.5,4.65,3.5
					S130.72,215.77,130.72,215.77z"/>
				<path class="st60" d="M113.55,216.38c0,0-4.1-1.88-5.31,0.29s3.63,3.56,3.63,3.56L113.55,216.38z"/>
				<path class="st69" d="M119.04,209.23c-1.86-0.19-4.2,1.87-6.54,5.14c-2.34,3.27-3.27,6.07,1.4,7.01
					c4.67,0.93,13.55,0.93,14.48-1.87S123.71,209.7,119.04,209.23z"/>
				<path class="st60" d="M126.04,218.13c0,0-4.48,0.47-4.42,2.96c0.07,2.49,4.94,1.21,4.94,1.21L126.04,218.13z"/>
				<path class="st36" d="M127.91,215.77c-2.8,2.34-4.54,2.13-3.27,4.67c0.93,1.87,3.74,2.8,5.61,2.8s5.4-1.4,3.87-3.74
					C132.58,217.17,130.72,213.43,127.91,215.77z"/>
			</g>
			<g>
				<path class="st60" d="M185.94,177.13c0.83,0.99,3.06,0.99,3.74,0c0.69-0.99-0.7-2.31-1.8-2.64
					C186.77,174.16,185.11,176.14,185.94,177.13z"/>
				<path class="st36" d="M180.96,172.51c-0.55,0.99-1.66,2.31-0.55,3.3c1.57,1.4,5.36,0.5,4.76-1.23
					C184.56,172.84,182.62,169.55,180.96,172.51z"/>
				<path class="st60" d="M180.66,173.03c0,0-1.48-1.14-1.97,0c-0.49,1.14,1.27,2.02,1.27,2.02L180.66,173.03z"/>
				<path class="st60" d="M177.64,172.84c0,0-0.23-1.63-1.36-1.64s-2.21-0.33-2.23,0.82c-0.01,1.15,2.2,2.47,2.75,2.47
					C177.37,174.49,177.64,172.84,177.64,172.84z"/>
				<path class="st60" d="M167.48,173.27c0,0-2.43-1.33-3.14,0.21s2.15,2.51,2.15,2.51L167.48,173.27z"/>
				<path class="st69" d="M170.73,168.23c-1.1-0.13-2.49,1.32-3.87,3.63s-1.94,4.29,0.83,4.95c2.77,0.66,8.02,0.66,8.58-1.32
					C176.81,173.5,173.49,168.56,170.73,168.23z"/>
				<path class="st60" d="M174.87,174.51c0,0-2.66,0.33-2.62,2.09c0.04,1.76,2.92,0.85,2.92,0.85L174.87,174.51z"/>
				<path class="st36" d="M175.98,172.84c-1.66,1.65-2.69,1.5-1.94,3.3c0.55,1.32,2.21,1.98,3.32,1.98s3.2-0.99,2.29-2.64
					C178.75,173.83,177.64,171.19,175.98,172.84z"/>
			</g>
			<g>
				<path class="st60" d="M205.02,145.16c-1.09,1.09-4.01,1.09-4.91,0c-0.9-1.09,0.92-2.54,2.37-2.91S206.11,144.07,205.02,145.16z"
					/>
				<path class="st36" d="M211.56,140.07c0.73,1.09,2.18,2.54,0.73,3.63c-2.05,1.54-7.04,0.55-6.24-1.36S209.38,136.8,211.56,140.07
					z"/>
				<path class="st60" d="M211.96,140.64c0,0,1.94-1.25,2.58,0s-1.67,2.23-1.67,2.23L211.96,140.64z"/>
				<path class="st60" d="M215.92,140.43c0,0,0.3-1.79,1.78-1.8s2.91-0.36,2.92,0.9c0.02,1.27-2.89,2.72-3.62,2.72
					C216.28,142.25,215.92,140.43,215.92,140.43z"/>
				<path class="st60" d="M229.26,140.91c0,0,3.19-1.46,4.13,0.23c0.94,1.69-2.82,2.77-2.82,2.77L229.26,140.91z"/>
				<path class="st69" d="M225,135.35c1.45-0.14,3.27,1.45,5.08,4c1.82,2.54,2.54,4.72-1.09,5.45c-3.63,0.73-10.53,0.73-11.26-1.45
					C217.01,141.16,221.36,135.71,225,135.35z"/>
				<path class="st60" d="M219.55,142.27c0,0,3.49,0.37,3.43,2.3c-0.05,1.93-3.84,0.94-3.84,0.94L219.55,142.27z"/>
				<path class="st36" d="M218.09,140.43c2.18,1.82,3.53,1.66,2.54,3.63c-0.73,1.45-2.91,2.18-4.36,2.18s-4.2-1.09-3.01-2.91
					C214.46,141.52,215.92,138.62,218.09,140.43z"/>
			</g>
			<g>
				<path class="st60" d="M285.04,77.61c-1.09,1.09-4.01,1.09-4.91,0s0.92-2.54,2.37-2.91C283.95,74.34,286.12,76.52,285.04,77.61z"
					/>
				<path class="st36" d="M291.57,72.53c0.73,1.09,2.18,2.54,0.73,3.63c-2.05,1.54-7.04,0.55-6.24-1.36S289.39,69.26,291.57,72.53z"
					/>
				<path class="st60" d="M291.98,73.09c0,0,1.94-1.25,2.58,0c0.65,1.25-1.67,2.23-1.67,2.23L291.98,73.09z"/>
				<path class="st60" d="M295.93,72.89c0,0,0.3-1.79,1.78-1.8c1.49-0.01,2.91-0.36,2.92,0.9c0.02,1.27-2.89,2.72-3.62,2.72
					S295.93,72.89,295.93,72.89z"/>
				<path class="st60" d="M309.28,73.36c0,0,3.19-1.46,4.13,0.23s-2.82,2.77-2.82,2.77L309.28,73.36z"/>
				<path class="st69" d="M305.01,67.81c1.45-0.14,3.27,1.45,5.08,4s2.54,4.72-1.09,5.45c-3.63,0.73-10.53,0.73-11.26-1.45
					C297.02,73.62,301.38,68.17,305.01,67.81z"/>
				<path class="st60" d="M299.57,74.73c0,0,3.49,0.37,3.43,2.3c-0.05,1.93-3.84,0.94-3.84,0.94L299.57,74.73z"/>
				<path class="st36" d="M298.11,72.89c2.18,1.82,3.53,1.66,2.54,3.63c-0.73,1.45-2.91,2.18-4.36,2.18c-1.45,0-4.2-1.09-3.01-2.91
					C294.48,73.98,295.93,71.07,298.11,72.89z"/>
			</g>
			<g>
				<path class="st60" d="M307.25,45.35c-1.35,1.35-4.97,1.35-6.08,0c-1.11-1.35,1.13-3.15,2.93-3.6
					C305.9,41.31,308.59,44,307.25,45.35z"/>
				<path class="st36" d="M315.34,39.06c0.9,1.35,2.7,3.15,0.9,4.5c-2.54,1.91-8.71,0.68-7.73-1.68
					C309.49,39.51,312.64,35.01,315.34,39.06z"/>
				<path class="st60" d="M315.84,39.76c0,0,2.4-1.55,3.2,0s-2.06,2.76-2.06,2.76L315.84,39.76z"/>
				<path class="st60" d="M320.74,39.51c0,0,0.37-2.22,2.21-2.23c1.84-0.01,3.6-0.45,3.62,1.12c0.02,1.57-3.58,3.37-4.48,3.37
					S320.74,39.51,320.74,39.51z"/>
				<path class="st60" d="M337.26,40.09c0,0,3.94-1.81,5.11,0.28s-3.49,3.42-3.49,3.42L337.26,40.09z"/>
				<path class="st69" d="M331.98,33.21c1.79-0.18,4.05,1.8,6.3,4.95c2.25,3.15,3.15,5.85-1.35,6.75c-4.5,0.9-13.04,0.9-13.94-1.8
					C322.08,40.41,327.48,33.66,331.98,33.21z"/>
				<path class="st60" d="M325.24,41.78c0,0,4.32,0.45,4.25,2.85c-0.06,2.39-4.75,1.16-4.75,1.16L325.24,41.78z"/>
				<path class="st36" d="M323.43,39.51c2.7,2.25,4.37,2.05,3.15,4.5c-0.9,1.8-3.6,2.7-5.4,2.7c-1.8,0-5.2-1.35-3.72-3.6
					C318.94,40.86,320.74,37.26,323.43,39.51z"/>
			</g>
			<g>
				<path class="st60" d="M364.4,22.61c1.09,1.09,4.01,1.09,4.91,0s-0.92-2.54-2.37-2.91C365.49,19.34,363.31,21.52,364.4,22.61z"/>
				<path class="st36" d="M357.87,17.53c-0.73,1.09-2.18,2.54-0.73,3.63c2.05,1.54,7.04,0.55,6.24-1.36S360.05,14.26,357.87,17.53z"
					/>
				<path class="st60" d="M357.46,18.09c0,0-1.94-1.25-2.58,0s1.67,2.23,1.67,2.23L357.46,18.09z"/>
				<path class="st60" d="M353.51,17.89c0,0-0.3-1.79-1.78-1.8c-1.49-0.01-2.91-0.36-2.92,0.9c-0.02,1.27,2.89,2.72,3.62,2.72
					S353.51,17.89,353.51,17.89z"/>
				<path class="st60" d="M340.16,18.36c0,0-3.19-1.46-4.13,0.23c-0.94,1.69,2.82,2.77,2.82,2.77L340.16,18.36z"/>
				<path class="st69" d="M344.43,12.81c-1.45-0.14-3.27,1.45-5.08,4c-1.82,2.54-2.54,4.72,1.09,5.45
					c3.63,0.73,10.53,0.73,11.26-1.45S348.06,13.17,344.43,12.81z"/>
				<path class="st60" d="M349.87,19.73c0,0-3.49,0.37-3.43,2.3s3.84,0.94,3.84,0.94L349.87,19.73z"/>
				<path class="st36" d="M351.33,17.89c-2.18,1.82-3.53,1.66-2.54,3.63c0.73,1.45,2.91,2.18,4.36,2.18c1.45,0,4.2-1.09,3.01-2.91
					C354.96,18.98,353.51,16.07,351.33,17.89z"/>
			</g>
		</g>
		<g>
			<g>
				<g>
					<path class="st122" d="M962.61,304.52c1.46,6.34,8.45,16.68,14.79,15.22c6.34-1.46,12.67-9.88,11.21-16.22
						c-1.46-6.34-9.66-6.46-16-5C966.27,299.99,961.15,298.19,962.61,304.52z"/>
					<path class="st38" d="M978.61,303.52c0,0,4.82-0.73,6-1c1.18-0.27,5.27,0.08,5.9,5.51c0.63,5.43-7.8,10.48-7.8,10.48l-7.73,5.5
						c0,0-11.6-12.66-12.64-17.15c-1.04-4.49,0.23-3.48,1.27-4.34c1.04-0.86,4.51,1.32,8,3C975.1,307.2,977.48,301.31,978.61,303.52
						z"/>
					<path class="st121" d="M959.18,306.59c-0.95-1.85,1.15-1.81,4.66-0.58c0,0,0,0,0,0l0,0c0.69,0.24,1.43,0.52,2.22,0.85
						c4.8,1.99,7.83,4.39,9.37,8.38c0.53,1.37,0.77,2.14,0.87,2.57c0.94-1.88,5.34-10.34,9.28-12.35c0.59-0.3,1.22-0.59,1.85-0.86
						l0,0c0,0,0,0,0,0c4.08-1.73,8.59-2.63,9.34-1.72c0,0-6.01,9.75-7.26,13.3c0,0,0,0,0,0c-1.28,4.82-5.11,8.78-10.31,9.98
						c-6.73,1.55-13.45-2.07-15.98-8.27l0,0l0,0c-0.25-0.61-0.46-1.26-0.62-1.92C961.67,313.17,959.98,308.16,959.18,306.59z"/>
				</g>
				<g>
					<path class="st122" d="M946.61,268.52c1.66,4.16-5.45,8.52-9.61,10.17c-4.16,1.66-11.74-5.02-13.39-9.17s3.84-3.34,8-5
						C935.77,262.87,944.96,264.37,946.61,268.52z"/>
					<path class="st38" d="M925.16,276.33c0,0-3-5.44-2.43-7.8s4.25-0.14,6.88,1c2.63,1.13,6,0,6,0s3.58-3.14,7.43-3.04
						c3.86,0.1,3.56,1.31,3.56,1.31s0.36,5.31-5.04,9.09C936.16,280.67,932.58,282.64,925.16,276.33z"/>
					<path class="st121" d="M935.53,277.41c0,0-10.64-5.09-12.99-4.65s0.32,8.2,6.03,10.6c5.71,2.4,10.86,1.36,15.22-2.9
						c4.36-4.26,7.33-7.39,4.8-8.25C945.03,270.99,935.53,277.41,935.53,277.41z"/>
				</g>
				<g>
					<path class="st122" d="M874.61,199.52c-1.27,5.5-7.43,14.46-12.94,13.19c-5.5-1.27-10.33-9.69-9.06-15.19
						c1.27-5.5,5.5-3.27,11-2S875.88,194.02,874.61,199.52z"/>
					<path class="st38" d="M860.61,197.52c0,0-6.98,0.24-8,0c-1.02-0.24-1.77,0.31-2.32,5.03c-0.55,4.72,6.77,9.1,6.77,9.1
						l6.71,4.78c0,0,10.07-10.99,10.97-14.89c0.9-3.9,0.76-3.27-0.14-4.01c-0.9-0.75-3.97,0.55-7,2
						C864.58,200.98,861.59,195.6,860.61,197.52z"/>
					<path class="st121" d="M877.5,201.3c0.82-1.61-1-1.57-4.05-0.5c0,0,0,0,0,0l0,0c-0.6,0.21-1.24,0.45-1.93,0.74
						c-4.17,1.73-6.8,3.81-8.14,7.27c-0.46,1.19-0.67,1.86-0.75,2.23c-0.82-1.63-4.64-8.98-8.05-10.72
						c-0.52-0.26-1.06-0.51-1.6-0.74l0,0c0,0,0,0,0,0c-3.54-1.5-7.46-2.28-8.11-1.5c0,0,5.22,8.46,6.3,11.54c0,0,0,0,0,0
						c1.11,4.18,4.44,7.62,8.95,8.66c5.85,1.35,11.68-1.8,13.88-7.18l0,0l0,0c0.22-0.53,0.4-1.09,0.54-1.67
						C875.34,207.01,876.8,202.66,877.5,201.3z"/>
				</g>
				<g>
					<path class="st122" d="M891.61,234.52c-1.44,3.61,3.7,9.02,7.31,10.46c3.61,1.44,10.25-4.85,11.69-8.46
						c1.44-3.61-2.88-3.17-6.49-4.61C900.52,230.48,893.05,230.92,891.61,234.52z"/>
					<path class="st38" d="M909.2,242.93c0,0,2.6-4.72,2.11-6.77c-0.49-2.05-3.27-2.21-5.55-1.22c-0.46,0.2-0.94,0.42-1.41,0.65
						c-2.18,1.05-4.72,0.92-6.88-0.18c-1.15-0.59-2.49-1.06-3.8-1.02c-3.35,0.09-3.09,1.14-3.09,1.14s-0.31,4.61,4.38,7.9
						S902.76,248.41,909.2,242.93z"/>
					<path class="st121" d="M900.2,243.87c0,0,9.24-4.42,11.28-4.04c2.04,0.38-0.28,7.12-5.24,9.2s-9.43,1.18-13.21-2.52
						c-3.79-3.7-6.36-6.41-4.17-7.16C891.96,238.29,900.2,243.87,900.2,243.87z"/>
				</g>
				<g>
					<path class="st122" d="M805.61,157.52c1.07,4.62,5.82,13.61,10.44,12.54c4.62-1.07,10.63-6.92,9.56-11.54
						c-1.07-4.62-4.38-5.07-9-4C811.99,155.59,804.55,152.91,805.61,157.52z"/>
					<path class="st38" d="M816.61,158.52c0,0,6.14,0.2,7,0s1.52-0.95,1.99,3.01c0.46,3.96-5.68,7.64-5.68,7.64l-5.63,4.01
						c0,0-8.45-9.23-9.21-12.5c-0.76-3.27-1.22-1.53-0.46-2.16c0.76-0.63,4.23-3.06,6.77-1.84
						C813.92,157.91,815.79,156.91,816.61,158.52z"/>
					<path class="st121" d="M802.77,160.48c-0.69-1.35,0.84-1.32,3.4-0.42c0,0,0,0,0,0l0,0c0.5,0.18,1.04,0.38,1.62,0.62
						c3.5,1.45,5.71,3.2,6.83,6.1c0.39,1,0.56,1.56,0.63,1.87c0.69-1.37,3.89-7.53,6.76-9c0.43-0.22,0.89-0.43,1.35-0.62l0,0
						c0,0,0,0,0,0c2.97-1.26,6.26-1.91,6.8-1.26c0,0-4.38,7.1-5.29,9.69c0,0,0,0,0,0c-0.93,3.51-3.73,6.4-7.51,7.27
						c-4.91,1.13-9.8-1.51-11.64-6.03l0,0v0c-0.18-0.45-0.33-0.91-0.45-1.4C804.58,165.28,803.35,161.63,802.77,160.48z"/>
				</g>
				<g>
					<path class="st122" d="M769.38,124.41c-1.36,3.41,0.31,7.29,3.72,8.65c3.41,1.36,13.15-4.11,14.51-7.53
						c1.36-3.41-4.59-2.64-8-4C776.2,120.16,770.74,120.99,769.38,124.41z"/>
					<path class="st38" d="M785.83,132.11c0,0,2.46-4.47,2-6.41c-0.46-1.94-3.09-2.09-5.25-1.16c-0.58,0.25-1.25,0.65-1.92,1.11
						c-1.99,1.36-4.6,1.13-6.47-0.39c-0.89-0.73-1.94-1.28-3.05-1.25c-3.17,0.08-1.53,3.51-1.53,3.51s-1.69,1.93,2.75,5.04
						S779.73,137.29,785.83,132.11z"/>
					<path class="st121" d="M777.31,133c0,0,8.74-4.18,10.67-3.82c1.93,0.36-0.26,8.11-4.95,10.08s-8.92-0.25-12.5-3.75
						c-3.58-3.5-6.02-6.07-3.95-6.78C769.51,127.72,777.31,133,777.31,133z"/>
				</g>
				<g>
					<path class="st122" d="M725.09,95.97c1.27,5.5,6.76,8.94,12.27,7.67s10.52-8.61,9.25-14.11c-1.27-5.5-14.5-5.27-20-4
						S723.82,90.47,725.09,95.97z"/>
					<path class="st38" d="M737.61,92.52c0,0,4.98-3.76,6-4c1.02-0.24,4.58,0.23,5.13,4.95c0.55,4.72-6.77,9.1-6.77,9.1l-6.71,4.78
						c0,0-10.07-10.99-10.97-14.89c-0.9-3.9-0.58-1.19,0.33-1.93s2.97-1.45,6,0C733.64,91.98,736.63,90.6,737.61,92.52z"/>
					<path class="st121" d="M721.54,92.22c-0.82-1.61,1-1.57,4.05-0.5c0,0,0,0,0,0l0,0c0.6,0.21,1.24,0.45,1.93,0.74
						c4.17,1.73,6.8,3.81,8.14,7.27c0.46,1.19,0.67,1.86,0.75,2.23c0.82-1.63,4.64-8.98,8.05-10.72c0.52-0.26,1.06-0.51,1.6-0.74
						l0,0c0,0,0,0,0,0c3.54-1.5,7.46-2.28,8.11-1.5c0,0-5.22,8.46-6.3,11.54c0,0,0,0,0,0c-1.11,4.18-4.44,7.62-8.95,8.66
						c-5.85,1.35-11.68-1.8-13.88-7.18l0,0l0,0c-0.22-0.53-0.4-1.09-0.54-1.67C723.7,97.93,722.23,93.58,721.54,92.22z"/>
				</g>
				<g>
					<path class="st122" d="M695.75,58.77c-1.44,3.61,0.32,7.7,3.93,9.14c3.61,1.44,12.49-2.77,13.93-6.38c1.44-3.61-5.39-3.56-9-5
						C701,55.09,697.19,55.16,695.75,58.77z"/>
					<path class="st38" d="M712.96,66.85c0,0,2.6-4.72,2.11-6.77c-0.49-2.05-3.27-2.21-5.55-1.22c-2.28,0.98-5.91,1.67-5.91,1.67
						s-2.82-2.31-6.17-2.23c-3.35,0.09-3.09,1.14-3.09,1.14s-0.31,4.61,4.38,7.9C703.42,70.62,706.52,72.33,712.96,66.85z"/>
					<path class="st121" d="M703.96,67.79c0,0,9.24-4.42,11.28-4.04c2.04,0.38-0.28,7.12-5.24,9.2s-9.43,1.18-13.21-2.52
						c-3.79-3.7-6.36-6.41-4.17-7.16C695.72,62.21,703.96,67.79,703.96,67.79z"/>
				</g>
				<g>
					<path class="st122" d="M632.61,3.52c1.07,4.62,6.1,11.53,10.72,10.46s7.5-5.67,6.43-10.29s-5.15-3.17-9.15-3.17
						C635.87,0.52,631.55-1.09,632.61,3.52z"/>
					<path class="st38" d="M643.11,5.02c0,0,3.14-1.8,4-2s4.31,0.47,4.77,4.43c0.46,3.96-5.68,7.64-5.68,7.64l-5.63,4.01
						c0,0-8.45-9.23-9.21-12.5s0-3.95,0.75-4.58c0.76-0.63,3.01-0.64,5.55,0.58C640.2,3.83,642.29,3.41,643.11,5.02z"/>
					<path class="st121" d="M629.05,6.4c-0.69-1.35,0.84-1.32,3.4-0.42c0,0,0,0,0,0l0,0c0.5,0.18,1.04,0.38,1.62,0.62
						c3.5,1.45,5.71,3.2,6.83,6.1c0.39,1,0.56,1.56,0.63,1.87c0.69-1.37,3.89-7.53,6.76-9c0.43-0.22,0.89-0.43,1.35-0.62l0,0
						c0,0,0,0,0,0c2.97-1.26,6.26-1.91,6.8-1.26c0,0-4.38,7.1-5.29,9.69c0,0,0,0,0,0c-0.93,3.51-3.73,6.4-7.51,7.27
						c-4.91,1.13-9.8-1.51-11.64-6.03l0,0l0,0c-0.18-0.45-0.33-0.91-0.45-1.4C630.87,11.2,629.64,7.55,629.05,6.4z"/>
				</g>
				<g>
					<path class="st122" d="M682.61,30.52c1.36,3.41-7.26,6.08-10.67,7.45c-3.41,1.36-7.29-0.31-8.65-3.72
						c-1.36-3.41,1.9-7.36,5.32-8.72S681.25,27.11,682.61,30.52z"/>
					<path class="st38" d="M665.21,37.02c0,0-2.46-4.47-2-6.41s4.24-3.02,6.4-2.09c2.16,0.93,4,3,4,3s3.12-2.67,6.28-2.59
						c3.17,0.08,2.92,1.07,2.92,1.07s0.29,4.36-4.14,7.47C674.24,40.59,671.3,42.21,665.21,37.02z"/>
					<path class="st121" d="M673.73,37.92c0,0-8.74-4.18-10.67-3.82c-1.93,0.36,0.26,8.11,4.95,10.08c4.69,1.97,8.92-0.25,12.5-3.75
						c3.58-3.5,6.02-6.07,3.95-6.78C681.53,32.64,673.73,37.92,673.73,37.92z"/>
				</g>
			</g>
			<g>
				<path class="st60" d="M730.16,112.09c-1.19,1.65-4.37,1.65-5.35,0c-0.98-1.65,1-3.86,2.58-4.41
					C728.97,107.13,731.34,110.43,730.16,112.09z"/>
				<path class="st36" d="M737.27,104.37c0.79,1.65,2.37,3.86,0.79,5.51c-2.24,2.34-7.66,0.84-6.8-2.06
					C732.13,104.92,734.9,99.41,737.27,104.37z"/>
				<path class="st60" d="M737.71,105.23c0,0,2.11-1.9,2.81,0c0.7,1.9-1.81,3.38-1.81,3.38L737.71,105.23z"/>
				<path class="st60" d="M742.02,104.92c0,0,0.32-2.72,1.94-2.74c1.62-0.02,3.16-0.55,3.18,1.37c0.02,1.92-3.15,4.13-3.94,4.13
					C742.41,107.68,742.02,104.92,742.02,104.92z"/>
				<path class="st60" d="M756.55,105.64c0,0,3.47-2.22,4.49,0.34c1.02,2.57-3.07,4.2-3.07,4.2L756.55,105.64z"/>
				<path class="st69" d="M751.9,97.2c1.57-0.22,3.56,2.2,5.54,6.06c1.98,3.86,2.77,7.17-1.19,8.27c-3.95,1.1-11.47,1.1-12.26-2.2
					C743.2,106.02,747.95,97.76,751.9,97.2z"/>
				<path class="st60" d="M745.98,107.71c0,0,3.8,0.56,3.74,3.49c-0.06,2.93-4.18,1.43-4.18,1.43L745.98,107.71z"/>
				<path class="st36" d="M744.39,104.92c2.37,2.76,3.84,2.51,2.77,5.51c-0.79,2.2-3.16,3.31-4.74,3.31c-1.58,0-4.57-1.65-3.27-4.41
					C740.44,106.57,742.02,102.17,744.39,104.92z"/>
			</g>
			<g>
				<path class="st60" d="M921.56,254.49c1.4,1.4,5.16,1.4,6.32,0c1.16-1.4-1.18-3.27-3.05-3.74
					C922.96,250.29,920.16,253.09,921.56,254.49z"/>
				<path class="st36" d="M913.15,247.95c-0.93,1.4-2.8,3.27-0.93,4.67c2.64,1.98,9.05,0.71,8.03-1.75
					C919.22,248.42,915.96,243.75,913.15,247.95z"/>
				<path class="st60" d="M912.63,248.68c0,0-2.49-1.61-3.32,0s2.14,2.87,2.14,2.87L912.63,248.68z"/>
				<path class="st60" d="M907.55,248.42c0,0-0.38-2.31-2.29-2.32c-1.91-0.01-3.74-0.47-3.76,1.16c-0.02,1.63,3.72,3.5,4.65,3.5
					S907.55,248.42,907.55,248.42z"/>
				<path class="st60" d="M890.38,249.02c0,0-4.1-1.88-5.31,0.29c-1.21,2.17,3.63,3.56,3.63,3.56L890.38,249.02z"/>
				<path class="st69" d="M895.87,241.88c-1.86-0.19-4.2,1.87-6.54,5.14c-2.34,3.27-3.27,6.07,1.4,7.01s13.55,0.93,14.48-1.87
					C906.15,249.35,900.54,242.35,895.87,241.88z"/>
				<path class="st60" d="M902.87,250.78c0,0-4.48,0.47-4.42,2.96c0.07,2.49,4.94,1.21,4.94,1.21L902.87,250.78z"/>
				<path class="st36" d="M904.74,248.42c-2.8,2.34-4.54,2.13-3.27,4.67c0.93,1.87,3.74,2.8,5.61,2.8c1.87,0,5.4-1.4,3.87-3.74
					C909.42,249.82,907.55,246.08,904.74,248.42z"/>
			</g>
			<g>
				<path class="st60" d="M948.99,288.93c1.1,1.02,4.05,1.02,4.96,0c0.91-1.02-0.92-2.38-2.39-2.72
					C950.09,285.87,947.89,287.91,948.99,288.93z"/>
				<path class="st36" d="M942.39,284.17c-0.73,1.02-2.2,2.38-0.73,3.4c2.07,1.44,7.1,0.52,6.3-1.27S944.59,281.12,942.39,284.17z"
					/>
				<path class="st60" d="M941.98,284.7c0,0-1.96-1.17-2.61,0s1.68,2.08,1.68,2.08L941.98,284.7z"/>
				<path class="st60" d="M937.99,284.51c0,0-0.3-1.68-1.8-1.69c-1.5-0.01-2.93-0.34-2.95,0.84c-0.02,1.18,2.92,2.54,3.65,2.54
					S937.99,284.51,937.99,284.51z"/>
				<path class="st60" d="M924.52,284.95c0,0-3.22-1.37-4.17,0.21s2.85,2.59,2.85,2.59L924.52,284.95z"/>
				<path class="st69" d="M928.83,279.76c-1.46-0.14-3.3,1.36-5.13,3.74c-1.83,2.38-2.57,4.41,1.1,5.09s10.63,0.68,11.36-1.36
					C936.89,285.19,932.49,280.1,928.83,279.76z"/>
				<path class="st60" d="M934.32,286.23c0,0-3.52,0.34-3.47,2.15c0.05,1.81,3.87,0.88,3.87,0.88L934.32,286.23z"/>
				<path class="st36" d="M935.79,284.51c-2.2,1.7-3.56,1.55-2.57,3.4c0.73,1.36,2.93,2.04,4.4,2.04s4.24-1.02,3.04-2.72
					S937.99,282.81,935.79,284.51z"/>
			</g>
			<g>
				<path class="st60" d="M988.8,326.82c1.21,1.23,4.44,1.23,5.44,0c1-1.23-1.01-2.87-2.62-3.28
					C990.01,323.13,987.59,325.59,988.8,326.82z"/>
				<path class="st36" d="M981.56,321.09c-0.8,1.23-2.41,2.87-0.8,4.1c2.28,1.74,7.8,0.62,6.92-1.53
					C986.79,321.5,983.97,317.4,981.56,321.09z"/>
				<path class="st60" d="M981.11,321.72c0,0-2.15-1.41-2.86,0c-0.72,1.41,1.85,2.51,1.85,2.51L981.11,321.72z"/>
				<path class="st60" d="M976.73,321.5c0,0-0.33-2.02-1.98-2.04c-1.65-0.01-3.22-0.41-3.24,1.02c-0.02,1.43,3.2,3.07,4.01,3.07
					S976.73,321.5,976.73,321.5z"/>
				<path class="st60" d="M961.94,322.03c0,0-3.53-1.65-4.57,0.26c-1.04,1.91,3.13,3.12,3.13,3.12L961.94,322.03z"/>
				<path class="st69" d="M966.67,315.76c-1.6-0.16-3.62,1.64-5.63,4.51c-2.01,2.87-2.82,5.33,1.21,6.15
					c4.02,0.82,11.67,0.82,12.47-1.64S970.69,316.17,966.67,315.76z"/>
				<path class="st60" d="M972.7,323.57c0,0-3.86,0.41-3.81,2.59s4.25,1.06,4.25,1.06L972.7,323.57z"/>
				<path class="st36" d="M974.31,321.5c-2.41,2.05-3.91,1.87-2.82,4.1c0.8,1.64,3.22,2.46,4.83,2.46s4.65-1.23,3.33-3.28
					C978.34,322.72,976.73,319.45,974.31,321.5z"/>
			</g>
			<g>
				<path class="st60" d="M852.34,220.34c-1.4,1.4-5.16,1.4-6.32,0c-1.16-1.4,1.18-3.27,3.05-3.74
					C850.94,216.13,853.74,218.94,852.34,220.34z"/>
				<path class="st36" d="M860.75,213.8c0.93,1.4,2.8,3.27,0.93,4.67c-2.64,1.98-9.05,0.71-8.03-1.75
					C854.68,214.27,857.95,209.6,860.75,213.8z"/>
				<path class="st60" d="M861.27,214.53c0,0,2.49-1.61,3.32,0c0.83,1.61-2.14,2.87-2.14,2.87L861.27,214.53z"/>
				<path class="st60" d="M866.36,214.27c0,0,0.38-2.31,2.29-2.32c1.91-0.01,3.74-0.47,3.76,1.16s-3.72,3.5-4.65,3.5
					S866.36,214.27,866.36,214.27z"/>
				<path class="st60" d="M883.52,214.87c0,0,4.1-1.88,5.31,0.29c1.21,2.17-3.63,3.56-3.63,3.56L883.52,214.87z"/>
				<path class="st69" d="M878.03,207.73c1.86-0.19,4.2,1.87,6.54,5.14c2.34,3.27,3.27,6.07-1.4,7.01s-13.55,0.93-14.48-1.87
					C867.76,215.2,873.36,208.19,878.03,207.73z"/>
				<path class="st60" d="M871.03,216.63c0,0,4.48,0.47,4.42,2.96c-0.07,2.49-4.94,1.21-4.94,1.21L871.03,216.63z"/>
				<path class="st36" d="M869.16,214.27c2.8,2.34,4.54,2.13,3.27,4.67c-0.93,1.87-3.74,2.8-5.61,2.8c-1.87,0-5.4-1.4-3.87-3.74
					C864.49,215.67,866.36,211.93,869.16,214.27z"/>
			</g>
			<g>
				<path class="st60" d="M811.13,175.63c-0.83,0.99-3.06,0.99-3.74,0c-0.69-0.99,0.7-2.31,1.8-2.64S811.96,174.64,811.13,175.63z"
					/>
				<path class="st36" d="M816.11,171.01c0.55,0.99,1.66,2.31,0.55,3.3c-1.57,1.4-5.36,0.5-4.76-1.23
					C812.51,171.34,814.45,168.04,816.11,171.01z"/>
				<path class="st60" d="M816.41,171.52c0,0,1.48-1.14,1.97,0c0.49,1.14-1.27,2.02-1.27,2.02L816.41,171.52z"/>
				<path class="st60" d="M819.43,171.34c0,0,0.23-1.63,1.36-1.64s2.21-0.33,2.23,0.82c0.01,1.15-2.2,2.47-2.75,2.47
					C819.7,172.99,819.43,171.34,819.43,171.34z"/>
				<path class="st60" d="M829.59,171.77c0,0,2.43-1.33,3.14,0.21s-2.15,2.51-2.15,2.51L829.59,171.77z"/>
				<path class="st69" d="M826.34,166.72c1.1-0.13,2.49,1.32,3.87,3.63c1.38,2.31,1.94,4.29-0.83,4.95s-8.02,0.66-8.58-1.32
					C820.26,172,823.58,167.05,826.34,166.72z"/>
				<path class="st60" d="M822.2,173.01c0,0,2.66,0.33,2.62,2.09c-0.04,1.76-2.92,0.85-2.92,0.85L822.2,173.01z"/>
				<path class="st36" d="M821.09,171.34c1.66,1.65,2.69,1.5,1.94,3.3c-0.55,1.32-2.21,1.98-3.32,1.98s-3.2-0.99-2.29-2.64
					C818.32,172.33,819.43,169.69,821.09,171.34z"/>
			</g>
			<g>
				<path class="st60" d="M792.05,143.65c1.09,1.09,4.01,1.09,4.91,0c0.9-1.09-0.92-2.54-2.37-2.91S790.96,142.56,792.05,143.65z"/>
				<path class="st36" d="M785.51,138.57c-0.73,1.09-2.18,2.54-0.73,3.63c2.05,1.54,7.04,0.55,6.24-1.36S787.69,135.3,785.51,138.57
					z"/>
				<path class="st60" d="M785.11,139.13c0,0-1.94-1.25-2.58,0s1.67,2.23,1.67,2.23L785.11,139.13z"/>
				<path class="st60" d="M781.15,138.93c0,0-0.3-1.79-1.78-1.8c-1.49-0.01-2.91-0.36-2.92,0.9c-0.02,1.27,2.89,2.72,3.62,2.72
					S781.15,138.93,781.15,138.93z"/>
				<path class="st60" d="M767.81,139.4c0,0-3.19-1.46-4.13,0.23s2.82,2.77,2.82,2.77L767.81,139.4z"/>
				<path class="st69" d="M772.07,133.85c-1.45-0.14-3.27,1.45-5.08,4c-1.82,2.54-2.54,4.72,1.09,5.45
					c3.63,0.73,10.53,0.73,11.26-1.45C780.07,139.66,775.71,134.21,772.07,133.85z"/>
				<path class="st60" d="M777.52,140.77c0,0-3.49,0.37-3.43,2.3c0.05,1.93,3.84,0.94,3.84,0.94L777.52,140.77z"/>
				<path class="st36" d="M778.98,138.93c-2.18,1.82-3.53,1.66-2.54,3.63c0.73,1.45,2.91,2.18,4.36,2.18c1.45,0,4.2-1.09,3.01-2.91
					S781.15,137.11,778.98,138.93z"/>
			</g>
			<g>
				<path class="st60" d="M712.04,76.11c1.09,1.09,4.01,1.09,4.91,0c0.9-1.09-0.92-2.54-2.37-2.91
					C713.12,72.84,710.95,75.02,712.04,76.11z"/>
				<path class="st36" d="M705.5,71.02c-0.73,1.09-2.18,2.54-0.73,3.63c2.05,1.54,7.04,0.55,6.24-1.36
					C710.22,71.39,707.68,67.75,705.5,71.02z"/>
				<path class="st60" d="M705.1,71.59c0,0-1.94-1.25-2.58,0s1.67,2.23,1.67,2.23L705.1,71.59z"/>
				<path class="st60" d="M701.14,71.39c0,0-0.3-1.79-1.78-1.8s-2.91-0.36-2.92,0.9c-0.02,1.27,2.89,2.72,3.62,2.72
					C700.78,73.2,701.14,71.39,701.14,71.39z"/>
				<path class="st60" d="M687.79,71.86c0,0-3.19-1.46-4.13,0.23c-0.94,1.69,2.82,2.77,2.82,2.77L687.79,71.86z"/>
				<path class="st69" d="M692.06,66.3c-1.45-0.14-3.27,1.45-5.08,4s-2.54,4.72,1.09,5.45s10.53,0.73,11.26-1.45
					C700.05,72.11,695.69,66.66,692.06,66.3z"/>
				<path class="st60" d="M697.5,73.22c0,0-3.49,0.37-3.43,2.3c0.05,1.93,3.84,0.94,3.84,0.94L697.5,73.22z"/>
				<path class="st36" d="M698.96,71.39c-2.18,1.82-3.53,1.66-2.54,3.63c0.73,1.45,2.91,2.18,4.36,2.18c1.45,0,4.2-1.09,3.01-2.91
					C702.59,72.48,701.14,69.57,698.96,71.39z"/>
			</g>
			<g>
				<path class="st60" d="M689.82,43.85c1.35,1.35,4.97,1.35,6.08,0c1.11-1.35-1.13-3.15-2.93-3.6S688.48,42.5,689.82,43.85z"/>
				<path class="st36" d="M681.73,37.55c-0.9,1.35-2.7,3.15-0.9,4.5c2.54,1.91,8.71,0.68,7.73-1.68
					C687.58,38,684.43,33.51,681.73,37.55z"/>
				<path class="st60" d="M681.23,38.25c0,0-2.4-1.55-3.2,0c-0.8,1.55,2.06,2.76,2.06,2.76L681.23,38.25z"/>
				<path class="st60" d="M676.33,38c0,0-0.37-2.22-2.21-2.23s-3.6-0.45-3.62,1.12c-0.02,1.57,3.58,3.37,4.48,3.37
					S676.33,38,676.33,38z"/>
				<path class="st60" d="M659.81,38.59c0,0-3.94-1.81-5.11,0.28s3.49,3.42,3.49,3.42L659.81,38.59z"/>
				<path class="st69" d="M665.09,31.71c-1.79-0.18-4.05,1.8-6.3,4.95s-3.15,5.85,1.35,6.75c4.5,0.9,13.04,0.9,13.94-1.8
					C674.99,38.9,669.59,32.16,665.09,31.71z"/>
				<path class="st60" d="M671.83,40.28c0,0-4.32,0.45-4.25,2.85c0.07,2.39,4.75,1.16,4.75,1.16L671.83,40.28z"/>
				<path class="st36" d="M673.64,38c-2.7,2.25-4.37,2.05-3.15,4.5c0.9,1.8,3.6,2.7,5.4,2.7s5.2-1.35,3.72-3.6
					C678.13,39.35,676.33,35.75,673.64,38z"/>
			</g>
			<g>
				<path class="st60" d="M632.67,21.11c-1.09,1.09-4.01,1.09-4.91,0c-0.9-1.09,0.92-2.54,2.37-2.91S633.76,20.02,632.67,21.11z"/>
				<path class="st36" d="M639.2,16.02c0.73,1.09,2.18,2.54,0.73,3.63c-2.05,1.54-7.04,0.55-6.24-1.36
					C634.48,16.39,637.02,12.75,639.2,16.02z"/>
				<path class="st60" d="M639.61,16.59c0,0,1.94-1.25,2.58,0s-1.67,2.23-1.67,2.23L639.61,16.59z"/>
				<path class="st60" d="M643.56,16.39c0,0,0.3-1.79,1.78-1.8c1.49-0.01,2.91-0.36,2.92,0.9s-2.89,2.72-3.62,2.72
					C643.93,18.2,643.56,16.39,643.56,16.39z"/>
				<path class="st60" d="M656.91,16.86c0,0,3.19-1.46,4.13,0.23s-2.82,2.77-2.82,2.77L656.91,16.86z"/>
				<path class="st69" d="M652.64,11.3c1.45-0.14,3.27,1.45,5.08,4s2.54,4.72-1.09,5.45c-3.63,0.73-10.53,0.73-11.26-1.45
					C644.65,17.11,649.01,11.66,652.64,11.3z"/>
				<path class="st60" d="M647.2,18.22c0,0,3.49,0.37,3.43,2.3c-0.05,1.93-3.84,0.94-3.84,0.94L647.2,18.22z"/>
				<path class="st36" d="M645.74,16.39c2.18,1.82,3.53,1.66,2.54,3.63c-0.73,1.45-2.91,2.18-4.36,2.18c-1.45,0-4.2-1.09-3.01-2.91
					C642.11,17.48,643.56,14.57,645.74,16.39z"/>
			</g>
		</g>
	</g>
</g>
</svg>
