<?xml version="1.0" encoding="utf-8"?>
<!-- Generator: Adobe Illustrator 25.0.0, SVG Export Plug-In . SVG Version: 6.00 Build 0)  -->
<svg version="1.1" id="Слой_1" xmlns="http://www.w3.org/2000/svg" xmlns:xlink="http://www.w3.org/1999/xlink" x="0px" y="0px"
	 viewBox="0 0 1144.6 78.3" style="enable-background:new 0 0 1144.6 78.3;" xml:space="preserve">
<style type="text/css">
	.st0{fill:#FEC251;stroke:#574246;stroke-width:0.5;stroke-miterlimit:10;}
	.st1{fill:#FDB723;stroke:#574246;stroke-width:0.5;stroke-miterlimit:10;}
	.st2{fill:#C18E4C;stroke:#574246;stroke-width:0.5;stroke-miterlimit:10;}
	.st3{fill:#B3C150;stroke:#574246;stroke-width:0.5;stroke-miterlimit:10;}
	.st4{fill:url(#SVGID_1_);stroke:#574246;stroke-width:0.5;stroke-miterlimit:10;}
	.st5{fill:url(#SVGID_2_);stroke:#574246;stroke-width:0.5;stroke-miterlimit:10;}
	.st6{fill:url(#SVGID_3_);stroke:#574246;stroke-width:0.5;stroke-miterlimit:10;}
	.st7{fill:#AC345A;stroke:#574246;stroke-width:0.5;stroke-miterlimit:10;}
	.st8{fill:#E2E891;stroke:#574246;stroke-width:0.5;stroke-miterlimit:10;}
	.st9{fill:#B2C052;stroke:#574246;stroke-width:0.5;stroke-miterlimit:10;}
	.st10{fill:#979E41;stroke:#574246;stroke-width:0.5;stroke-miterlimit:10;}
	.st11{fill:#FDB723;}
	.st12{fill:#574246;}
	.st13{fill:#FECE74;}
	.st14{fill:#A3AF4E;}
	.st15{fill:#A3AF4E;stroke:#574246;stroke-width:0.5;stroke-miterlimit:10;}
	.st16{fill:url(#SVGID_4_);stroke:#574246;stroke-width:0.5;stroke-miterlimit:10;}
	.st17{fill:url(#SVGID_5_);stroke:#574246;stroke-width:0.5;stroke-miterlimit:10;}
	.st18{fill:url(#SVGID_6_);stroke:#574246;stroke-width:0.5;stroke-miterlimit:10;}
	.st19{fill:url(#SVGID_7_);stroke:#574246;stroke-width:0.5;stroke-miterlimit:10;}
	.st20{fill:url(#SVGID_8_);stroke:#574246;stroke-width:0.5;stroke-miterlimit:10;}
	.st21{fill:url(#SVGID_9_);stroke:#574246;stroke-width:0.5;stroke-miterlimit:10;}
	.st22{fill:url(#SVGID_10_);stroke:#574246;stroke-width:0.5;stroke-miterlimit:10;}
	.st23{fill:url(#SVGID_11_);stroke:#574246;stroke-width:0.5;stroke-miterlimit:10;}
	.st24{fill:url(#SVGID_12_);stroke:#574246;stroke-width:0.5;stroke-miterlimit:10;}
	.st25{fill:url(#SVGID_13_);stroke:#574246;stroke-width:0.5;stroke-miterlimit:10;}
	.st26{fill:url(#SVGID_14_);stroke:#574246;stroke-width:0.5;stroke-miterlimit:10;}
	.st27{fill:#FECE74;stroke:#574246;stroke-width:0.5;stroke-miterlimit:10;}
	.st28{fill:#EE7E21;stroke:#574246;stroke-width:0.5;stroke-miterlimit:10;}
	.st29{fill:#FC1D1D;}
	.st30{fill:#B3C150;}
	.st31{fill:#FFD13D;stroke:#574246;stroke-width:0.5;stroke-miterlimit:10;}
	.st32{fill:#574246;stroke:#574246;stroke-width:0.5;stroke-miterlimit:10;}
	.st33{fill:#FFF2DB;stroke:#574246;stroke-width:0.5;stroke-miterlimit:10;}
	.st34{fill:#FEE6B9;stroke:#574246;stroke-width:0.5;stroke-miterlimit:10;}
	.st35{fill:url(#SVGID_15_);stroke:#574246;stroke-width:0.5;stroke-miterlimit:10;}
	.st36{fill:url(#SVGID_16_);stroke:#574246;stroke-width:0.5;stroke-miterlimit:10;}
	.st37{opacity:0.19;}
</style>
<g>
	<g>
		<g>
			<path class="st0" d="M34,59.5l0.2-34.2c0-0.4,0.3-0.7,0.7-0.7l2.4,0c0.4,0,0.7,0.3,0.7,0.7l-0.2,34.2c0,0.4-0.3,0.7-0.7,0.7
				l-2.4,0C34.3,60.2,34,59.9,34,59.5z"/>
			<path class="st0" d="M136.9,59.9l0.1-34.2c0-0.4,0.3-0.7,0.7-0.7l2.4,0c0.4,0,0.7,0.3,0.7,0.7l-0.1,34.2c0,0.4-0.3,0.7-0.7,0.7
				l-2.4,0C137.2,60.7,136.9,60.3,136.9,59.9z"/>
			<path class="st0" d="M142.3,39.7L25.1,39.2c-1.5,0-2.6-1.2-2.6-2.6l0-9.5c0-1.5,1.2-2.6,2.6-2.6L142.3,25c1.4,0,2.6,1.2,2.6,2.6
				l0,9.5C144.9,38.5,143.7,39.7,142.3,39.7z"/>
			<path class="st0" d="M142.2,60.7L25,60.2c-1.5,0-2.6-1.2-2.6-2.6l0-9.5c0-1.5,1.2-2.6,2.6-2.6L142.2,46c1.4,0,2.6,1.2,2.6,2.6
				l0,9.5C144.8,59.5,143.6,60.7,142.2,60.7z"/>
			<g>
				<path class="st1" d="M26.5,28.5c0-0.8,0.6-1.4,1.4-1.4s1.4,0.6,1.4,1.4s-0.6,1.4-1.4,1.4C27.1,29.9,26.5,29.3,26.5,28.5z"/>
				<path class="st2" d="M26.4,35.3c0-0.8,0.6-1.4,1.4-1.4s1.4,0.6,1.4,1.4c0,0.8-0.6,1.4-1.4,1.4C27,36.7,26.4,36,26.4,35.3z"/>
			</g>
			<g>
				<path class="st2" d="M26.4,49.4c0-0.8,0.6-1.4,1.4-1.4s1.4,0.6,1.4,1.4s-0.6,1.4-1.4,1.4C27,50.8,26.4,50.2,26.4,49.4z"/>
				<path class="st2" d="M26.4,56.2c0-0.8,0.6-1.4,1.4-1.4s1.4,0.6,1.4,1.4s-0.6,1.4-1.4,1.4C27,57.6,26.3,56.9,26.4,56.2z"/>
			</g>
			<g>
				<path class="st1" d="M137.6,29c0-0.8,0.6-1.4,1.4-1.4s1.4,0.6,1.4,1.4s-0.6,1.4-1.4,1.4C138.2,30.4,137.6,29.8,137.6,29z"/>
				<path class="st1" d="M137.5,35.8c0-0.8,0.6-1.4,1.4-1.4s1.4,0.6,1.4,1.4s-0.6,1.4-1.4,1.3C138.1,37.1,137.5,36.5,137.5,35.8z"/>
			</g>
			<g>
				<path class="st1" d="M137.5,49.9c0-0.8,0.6-1.4,1.4-1.3c0.8,0,1.4,0.6,1.4,1.4s-0.6,1.4-1.4,1.4
					C138.1,51.3,137.5,50.7,137.5,49.9z"/>
				<path class="st1" d="M137.4,56.7c0-0.8,0.6-1.4,1.4-1.4s1.4,0.6,1.4,1.4s-0.6,1.4-1.4,1.4C138.1,58,137.4,57.4,137.4,56.7z"/>
			</g>
		</g>
		<polygon class="st1" points="4.3,75.4 4.3,66.3 27.7,48.6 27.7,56.4 		"/>
		<polygon class="st1" points="4.3,54.2 4.3,45.1 27.8,27.4 27.8,35.2 		"/>
		<path class="st3" d="M60,63.2c1.5-0.5,19.3-15.1,48.2-14.6c28.9,0.5,24.8,11.8,17.1,14.2S60,63.2,60,63.2z"/>
		<g>
			<g>
				
					<linearGradient id="SVGID_1_" gradientUnits="userSpaceOnUse" x1="725.5768" y1="134.9702" x2="725.5768" y2="111.7285" gradientTransform="matrix(0.9191 0.394 0.394 -0.9191 -632.1464 -159.3528)">
					<stop  offset="1.118836e-07" style="stop-color:#B2C052"/>
					<stop  offset="1" style="stop-color:#979E41"/>
				</linearGradient>
				<path class="st4" d="M83.6,25.9c0,0-3.2-2.1-3.9-7.3s0.3-4.9,1.6-6.7c1.4-2.1,0.3-1.6-0.6-3.3c-1.1-2-0.4-3-0.1-4.4
					c0.2-0.9,0.9-2.5,1.4-3.6c0.2-0.5,0.9-0.5,1.2,0C84,2,86.1,4.1,86.8,5.4c1,2,0.8,3.8,0.9,6.7c0.1,2.9-2.1,4.4-2.7,5.9
					c-0.6,1.5-0.2,2.5,0.1,4.3s0.8,0.5,0.3,1.8S83.6,25.9,83.6,25.9z"/>
				
					<linearGradient id="SVGID_2_" gradientUnits="userSpaceOnUse" x1="738.9135" y1="136.9699" x2="738.9135" y2="109.3037" gradientTransform="matrix(0.9191 0.394 0.394 -0.9191 -632.1464 -159.3528)">
					<stop  offset="1.118836e-07" style="stop-color:#B2C052"/>
					<stop  offset="1" style="stop-color:#979E41"/>
				</linearGradient>
				<path class="st5" d="M87.4,27.8c0,0,5.6,0.1,6.8-0.5c1.2-0.7,1.6-2.6,2.7-3.5c3.1-2.3,2.2-1.5,5.4-2.8c0,0,1.6-1.4,2.9-3.3
					c2.2-3,1.7-4.1,1.2-7.3c-0.6-3.2-1.7-2.8-1.7-2.8s-0.9,1.5-4.1,3.6c-3.1,2-6.3,1.4-7.7,4.8s-2.4,4.4-3.6,6.7s-0.1,1.5-1.3,2.4
					s-3.7-2.6-3.7-2.6S78,30.9,87.4,27.8z"/>
				
					<linearGradient id="SVGID_3_" gradientUnits="userSpaceOnUse" x1="733.1644" y1="136.6041" x2="733.1644" y2="112.028" gradientTransform="matrix(0.9191 0.394 0.394 -0.9191 -632.1464 -159.3528)">
					<stop  offset="1.118836e-07" style="stop-color:#B2C052"/>
					<stop  offset="1" style="stop-color:#979E41"/>
				</linearGradient>
				<path class="st6" d="M92.6,6.8c0,0-3.9,0.7-4.2,4.4s-2.7,5.8-3.1,7.3c-0.4,1.5,0.4,1.4-0.3,4.2c-0.7,2.8-0.2,3.4-0.2,3.4
					s5.2-0.6,4.6-2.9c-0.6-2.3,3.6-7.4,5.9-9.8c2.1-2.2,2.6-5,2.4-8c-0.1-0.6-0.8-0.9-1.3-0.5C94.2,7.1,92.6,6.8,92.6,6.8z"/>
				<path class="st7" d="M82.7,0.3c-0.4,1.1-0.8,1.4-1,2.5c-0.1,0.5-0.1,1.1-0.1,1.7c0,0.6,0,1.1,0.2,1.7c0.1,0.3,0.1,0.5,0.3,0.8
					c0.1,0.3,0.3,0.5,0.4,0.7c0.3,0.5,0.6,0.9,0.8,1.5c0.1,0.3,0.3,0.5,0.3,0.8c0.1,0.3,0.1,0.6,0,0.9c-0.1,0.6-0.3,1.1-0.5,1.6
					c-0.4,1.1-0.9,2.1-1.2,3.1c-0.2,0.5-0.3,1.1-0.3,1.6s0,1.1,0.2,1.6c0.1,0.5,0.3,1,0.6,1.5c0.1,0.3,0.3,0.5,0.4,0.7
					s0.3,0.5,0.4,0.8c0.3,0.5,0.5,1,0.7,1.5c0.1,0.3,0.2,0.5,0.3,0.8c0,0.1,0.1,0.3,0.1,0.4c0,0.1,0,0.1,0,0.2c0,0,0,0.1,0,0.1
					c0,0,0,0.1,0,0.2l-1.3,4.3c0,0-0.5-0.2-0.6-0.2c0,0,1.3-4.2,1.3-4.3c0-0.1,0-0.1,0-0.2c0-0.1-0.1-0.3-0.1-0.4
					c-0.1-0.3-0.2-0.5-0.3-0.8c-0.2-0.5-0.4-1-0.7-1.5c-0.1-0.3-0.2-0.5-0.4-0.8c-0.1-0.3-0.3-0.5-0.4-0.8c-0.2-0.5-0.4-1.1-0.6-1.6
					c-0.1-0.6-0.2-1.1-0.1-1.7s0.2-1.1,0.4-1.7c0.3-1.1,0.8-2.1,1.3-3.1c0.2-0.5,0.4-1,0.5-1.6c0.1-0.5,0-1.1-0.3-1.6
					c-0.3-0.5-0.5-1-0.8-1.5c-0.1-0.2-0.3-0.5-0.4-0.8c-0.1-0.3-0.2-0.5-0.2-0.8c-0.1-0.6-0.1-1.1-0.1-1.7c0-0.6,0.1-1.1,0.2-1.7
					C81.9,1.6,82.3,1.3,82.7,0.3z"/>
				<path class="st7" d="M106.5,10.4c-0.6,1.1-1.3,2.2-2.1,3.1c-0.8,0.9-1.8,1.8-2.9,2.3c-0.3,0.1-0.6,0.2-0.9,0.3
					c-0.3,0.1-0.6,0.1-0.9,0.1c-0.6,0.1-1.2,0.2-1.8,0.3s-1.2,0.4-1.6,0.8c-0.4,0.5-0.6,1-0.9,1.6c-0.5,1.1-0.9,2.3-1.6,3.4
					c-0.3,0.5-0.7,1-1.2,1.5s-1.1,0.7-1.7,1c-1.2,0.5-2.4,0.6-3.7,0.9c-0.6,0.1-1.2,0.3-1.8,0.5c-0.3,0.1-0.6,0.2-0.9,0.3
					c-0.1,0.1-0.3,0.1-0.4,0.2c-0.1,0-0.1,0.1-0.2,0.1c0,0-0.1,0-0.1,0c0,0,0,0,0,0s0,0,0,0s-0.4,0.4-0.4,0.3l0-0.7c0,0,0,0,0.1,0
					s0,0,0,0c0,0,0,0,0.1,0c0,0,0.1,0,0.1-0.1c0.1,0,0.2-0.1,0.2-0.1c0.2-0.1,0.3-0.1,0.4-0.2c0.3-0.1,0.6-0.2,0.9-0.3
					c0.6-0.2,1.2-0.3,1.8-0.4c1.2-0.3,2.5-0.4,3.6-0.8c0.6-0.2,1.1-0.5,1.6-0.9s0.9-0.8,1.2-1.4c0.7-1,1.1-2.2,1.6-3.3
					c0.3-0.6,0.5-1.1,1-1.6c0.1-0.1,0.2-0.2,0.3-0.3c0.1-0.1,0.3-0.2,0.4-0.3c0.2-0.1,0.3-0.1,0.4-0.2c0.2,0,0.3-0.1,0.5-0.1
					c0.6-0.1,1.2-0.2,1.9-0.3c0.3,0,0.6-0.1,0.9-0.1c0.3-0.1,0.6-0.1,0.9-0.3c1.1-0.5,2.1-1.3,2.9-2.2
					C105.2,12.6,105.9,11.5,106.5,10.4z"/>
				<path class="st7" d="M97.1,5.3c-0.3,1-0.4,1.2-0.8,2.1c-0.4,0.9-0.9,1.9-1.5,2.7c-0.3,0.4-0.7,0.8-1.1,1.1
					c-0.4,0.3-0.8,0.6-1.2,0.9c-0.4,0.3-0.8,0.7-1,1.1s-0.5,0.9-0.7,1.4c-0.4,0.9-0.6,2-0.9,2.9c-0.3,1-0.6,2-1.1,2.9
					c-0.4,1-1,1.8-1.6,2.7c-0.3,0.4-0.6,0.9-0.9,1.3c-0.2,0.2-0.3,0.4-0.5,0.6c-0.1,0.1-0.2,0.2-0.3,0.3c-0.1,0-0.1,0.1-0.2,0.1
					c0,0-0.1,0.2-0.2,0.3c0,0,0.1,0,0,0c0,0.3-0.2,0.1-0.2,0.1c0,0-0.2,0.1-0.2,0.1c0,0-0.9,0.6-0.9,0.5c0,0-0.2-0.7-0.3-0.7
					c-0.9,1.3-1.3,2.9-1.3,2.8l0.6,0c0,0,0.9-2.4,0.8-2.4s-2.4,5.4-2.4,5.4c0,0,2-4.1,2-4.1s0.5-0.9,0.5-0.9c0,0-0.4,0.2-0.4,0.2
					c0,0,0.3-0.2,0.3-0.2S83.4,27,83.4,27c0,0,1.6-1.9,1.7-2c0.1-0.1,0.2-0.2,0.3-0.3c0.2-0.2,0.3-0.4,0.5-0.6
					c0.3-0.4,0.6-0.8,0.9-1.3c0.6-0.9,1.2-1.7,1.6-2.6c0.5-0.9,0.8-1.9,1.1-2.9c0.3-1,0.6-2,1-2.9c0.2-0.5,0.4-0.9,0.8-1.4
					c0.3-0.4,0.7-0.8,1.1-1.1c0.4-0.3,0.8-0.6,1.3-0.9c0.4-0.3,0.8-0.6,1.1-1.1c0.6-0.8,1.1-1.7,1.6-2.7C96.7,6.4,96.8,6.2,97.1,5.3
					z"/>
				<polygon class="st7" points="82.6,21.6 84.1,18.3 82.8,21.7 				"/>
				<path class="st7" d="M83.4,23.4C83.4,23.4,83.4,23.4,83.4,23.4l-0.1-0.2c-0.1-0.1-0.1-0.1-0.2-0.2c-0.1-0.1-0.3-0.2-0.4-0.4
					c-0.3-0.2-0.6-0.5-0.8-0.7c-0.6-0.4-1.2-0.9-1.8-1.3c0.6,0.4,1.2,0.8,1.8,1.2c0.3,0.2,0.6,0.4,0.9,0.6c0.1,0.1,0.3,0.2,0.4,0.4
					c0.1,0.1,0.1,0.1,0.2,0.2l0.1,0.1l0.1,0.1L83.4,23.4z"/>
				<polygon class="st7" points="81.3,17.7 84.5,12.9 81.4,17.8 				"/>
				<path class="st7" d="M81.6,15.3C81.6,15.3,81.7,15.3,81.6,15.3l0-0.2l0-0.2c0-0.1,0-0.3-0.1-0.4c-0.1-0.3-0.1-0.5-0.2-0.7
					c-0.1-0.5-0.2-1-0.3-1.5c0.2,0.5,0.3,1,0.4,1.4c0.1,0.2,0.1,0.5,0.2,0.7c0,0.1,0.1,0.3,0.1,0.4l0,0.2l0,0.1c0,0,0,0.1,0,0.1
					L81.6,15.3z"/>
				<polygon class="st7" points="83.2,11.8 85.1,9 83.3,11.9 				"/>
				<polygon class="st7" points="82.3,7.9 80.7,5.8 82.5,7.7 				"/>
				<polygon class="st7" points="89.2,18.7 92.2,16.8 89.3,18.9 				"/>
				<path class="st7" d="M87.8,21.5c0,0,0-0.1,0-0.1l0-0.1c0-0.1,0-0.2-0.1-0.3c0-0.2-0.1-0.4-0.1-0.5c-0.1-0.4-0.2-0.7-0.3-1
					c-0.2-0.7-0.5-1.4-0.7-2c0.3,0.7,0.6,1.3,0.8,2c0.1,0.3,0.3,0.7,0.4,1c0.1,0.2,0.1,0.4,0.2,0.5c0,0.1,0.1,0.2,0.1,0.3l0,0.1v0.2
					L87.8,21.5z"/>
				<polygon class="st7" points="90.4,14.8 95.7,12.6 90.4,14.9 				"/>
				<path class="st7" d="M91,13.4C91,13.4,91,13.4,91,13.4l0.1-0.1l0.1-0.2c0.1-0.1,0.1-0.2,0.2-0.3c0.1-0.2,0.2-0.5,0.3-0.7
					c0.2-0.5,0.3-0.9,0.5-1.4c-0.1,0.5-0.3,1-0.4,1.4c-0.1,0.2-0.2,0.5-0.2,0.7c0,0.1-0.1,0.2-0.1,0.4l-0.1,0.2l-0.1,0.1
					c0,0-0.1,0.1-0.1,0.1L91,13.4z"/>
				<polygon class="st7" points="94,10.8 97.2,9.6 94.1,11 				"/>
				<polygon class="st7" points="95,9.6 94.8,7 95.2,9.6 				"/>
				<polygon class="st7" points="91.9,23.9 95.4,23 92,24.1 				"/>
				<path class="st7" d="M87.9,25.2C87.9,25.1,87.9,25.1,87.9,25.2l0.2-0.1c0.1,0,0.1-0.1,0.2-0.2c0.1-0.1,0.3-0.3,0.4-0.4
					c0.3-0.3,0.5-0.5,0.7-0.8c0.5-0.5,0.9-1.1,1.4-1.7c-0.4,0.6-0.9,1.2-1.3,1.7c-0.2,0.3-0.4,0.6-0.7,0.9c-0.1,0.1-0.2,0.3-0.4,0.4
					c-0.1,0.1-0.1,0.1-0.2,0.2l-0.1,0.1l-0.1,0.1L87.9,25.2z"/>
				<polygon class="st7" points="88,25.2 93.7,26.2 88,25.4 				"/>
				<path class="st7" d="M93.8,21.6c0-0.1,0.1-0.2,0.1-0.3c0-0.1,0-0.2,0-0.3c0-0.2,0-0.4,0-0.6c0-0.4,0-0.9,0-1.3
					c0-0.9,0-1.8,0-2.6c0,0.9,0.1,1.8,0.1,2.6c0,0.4,0,0.9,0,1.3c0,0.2,0,0.4,0,0.7c0,0.1,0,0.2,0,0.3c0,0.1,0,0.1,0,0.2
					c0,0.1,0,0.1-0.1,0.2L93.8,21.6z"/>
				<polygon class="st7" points="95.3,19.4 100.6,19.3 95.3,19.5 				"/>
				<polygon class="st7" points="91.9,24.2 93,21.8 92.1,24.2 				"/>
				<path class="st7" d="M95.7,17.8C95.7,17.8,95.7,17.8,95.7,17.8l0.1-0.2c0-0.1,0.1-0.2,0.1-0.2c0.1-0.2,0.1-0.3,0.2-0.5
					c0.1-0.3,0.2-0.7,0.3-1c0.2-0.7,0.4-1.4,0.6-2.1c-0.2,0.7-0.3,1.4-0.5,2.1c-0.1,0.4-0.2,0.7-0.3,1c-0.1,0.2-0.1,0.4-0.2,0.5
					c0,0.1-0.1,0.2-0.1,0.3l-0.1,0.1L95.8,18L95.7,17.8z"/>
				<polygon class="st7" points="99,16.2 103.1,16.8 99,16.4 				"/>
				<path class="st7" d="M98.9,16.2C98.9,16.2,99,16.2,98.9,16.2C99,16.1,99,16,99.1,16c0.1-0.1,0.1-0.2,0.2-0.3
					c0.1-0.2,0.2-0.4,0.3-0.5c0.2-0.4,0.4-0.7,0.6-1.1c0.4-0.7,0.8-1.5,1.2-2.2c-0.4,0.8-0.8,1.5-1.1,2.3c-0.2,0.4-0.4,0.8-0.6,1.1
					c-0.1,0.2-0.2,0.4-0.3,0.6c-0.1,0.1-0.1,0.2-0.2,0.3c0,0-0.1,0.1-0.1,0.1c0,0,0,0-0.1,0.1c0,0-0.1,0-0.1,0.1L98.9,16.2z"/>
				<polygon class="st7" points="103.4,14.4 104.2,11 103.6,14.4 				"/>
				<polygon class="st7" points="104.3,13.6 106,12.5 104.4,13.7 				"/>
			</g>
			<g>
				<path class="st7" d="M88.6,39.3c-5.6,8.6-6.3,1.4-13.5,6.8c1.7-5.1-6.1-6.3-3.5-13.7c3.1-8.6,6.8-5.8,14.1-2.5
					C89.9,31.8,91.1,35.4,88.6,39.3z"/>
			</g>
		</g>
		<g>
			<circle class="st8" cx="30.8" cy="33.6" r="13.9"/>
			<path class="st9" d="M27.8,35.2c0,0-12.4-10.4-13.8-10.2s-2.2,9-0.6,15.2s13.1,8.1,13.1,8.1L37.4,51c0,0,7.2-19,6.4-24.3
				c-0.8-5.4-1-11.1-2.5-11.6s-6.3,6-9.4,9.4S28,32.3,27.8,35.2z"/>
			<path class="st10" d="M47.1,25c0.2-2.5-2-1.5-5.4,1.4l0,0l0,0c-0.7,0.6-1.3,1.2-2.1,1.9c-4.4,4.3-6.7,8.2-6.6,13.3
				c0,1.7,0.1,2.7,0.2,3.2c-1.9-1.7-10.4-9-15.6-9.5c-0.8-0.1-1.6-0.1-2.4-0.1l0,0l0,0C10.1,35,4.7,36,4.3,37.3
				c0,0,10.9,8.1,13.8,11.4l0,0c3.5,4.7,9.4,7.4,15.7,6.5c8.1-1.2,13.9-8.1,13.9-16l0,0l0,0c0-0.8,0-1.6-0.2-2.4
				C47.3,33.3,47,27.1,47.1,25z"/>
		</g>
		<g>
			<g>
				<path class="st11" d="M120.9,58.8c-0.5,0-1.1-0.1-1.6-0.2l-3.3-1.5l-4.1-0.3c-3.5-0.9-5.6-4.2-4.9-7.7l2.6-13.1
					c0.6-3.1,3.3-5.3,6.5-5.3c0.5,0,1,0.1,1.5,0.2l8.5,1.9c1.8,0.4,3.3,1.5,4.2,3.1s1.2,3.4,0.7,5.2l-3.7,13
					C126.5,56.8,123.9,58.8,120.9,58.8z"/>
				<g>
					<path class="st12" d="M116.1,30.9c0.5,0,0.9,0,1.4,0.2l8.5,1.9c3.6,0.8,5.7,4.4,4.7,7.9l-3.7,13c-0.8,2.8-3.3,4.6-6.1,4.6
						c-0.5,0-1-0.1-1.6-0.2l-3.2-1.5l-4.2-0.3c-3.3-0.8-5.3-4.1-4.7-7.4l2.6-13.1C110.5,32.9,113.2,30.9,116.1,30.9 M116.1,30.4
						L116.1,30.4c-3.3,0-6.1,2.3-6.7,5.5L106.8,49c-0.7,3.6,1.5,7.1,5.1,8l0,0h0l4.1,0.3l3.2,1.5l0,0l0.1,0c0.6,0.1,1.1,0.2,1.7,0.2
						c3.1,0,5.8-2,6.6-5l3.7-13c0.5-1.8,0.3-3.7-0.7-5.4c-1-1.6-2.5-2.8-4.4-3.2l-8.5-1.9C117.1,30.4,116.6,30.4,116.1,30.4
						L116.1,30.4z"/>
				</g>
			</g>
			<g>
				<path class="st13" d="M113.2,56.3c-0.4,0-0.9,0-1.3-0.2l-0.7-0.2c-2.8-0.7-4.6-3.5-4.1-6.4l2.6-13.7c0.5-2.6,2.8-4.5,5.4-4.5
					c0.5,0,1.1,0.1,1.6,0.2l2.1,0.6c2.9,0.9,4.5,3.9,3.7,6.8l-4,13.2C117.7,54.6,115.6,56.3,113.2,56.3L113.2,56.3z"/>
				<g>
					<path class="st12" d="M115.1,31.7c0.5,0,1,0.1,1.5,0.2l2.1,0.6c2.8,0.8,4.3,3.8,3.5,6.5l-4,13.2c-0.7,2.3-2.8,3.7-5,3.7
						c-0.4,0-0.8,0-1.3-0.2l-0.7-0.2c-2.7-0.7-4.4-3.3-3.9-6.1l2.6-13.7C110.4,33.4,112.7,31.7,115.1,31.7 M115.1,31.2
						c-2.7,0-5.1,2-5.6,4.6l-2.6,13.7c-0.6,3,1.3,5.9,4.3,6.7l0.7,0.2c0.4,0.1,0.9,0.2,1.4,0.2c2.5,0,4.8-1.7,5.5-4.1l4-13.2
						c0.9-3-0.8-6.2-3.8-7.2l-2.1-0.6C116.2,31.3,115.7,31.2,115.1,31.2L115.1,31.2z"/>
				</g>
			</g>
			<g>
				<path class="st14" d="M123,34.6c-0.5,0-1.1-0.1-1.6-0.2c-1.5-0.4-2.9-1.2-2.7-2c0.1-0.5,0.8-0.8,1.7-0.8c0.5,0,1.1,0.1,1.6,0.2
					c0.8,0.2,1.5,0.5,2,0.8c0.7,0.5,0.8,0.9,0.8,1.2C124.7,34.3,124,34.6,123,34.6L123,34.6z"/>
				<g>
					<path class="st12" d="M120.4,31.9c0.5,0,1,0.1,1.6,0.2c1.5,0.4,2.7,1.1,2.6,1.7c-0.1,0.4-0.7,0.6-1.5,0.6c-0.5,0-1-0.1-1.6-0.2
						c-1.5-0.4-2.7-1.1-2.6-1.7C119,32.1,119.6,31.9,120.4,31.9 M120.4,31.4c-1.1,0-1.8,0.3-2,0.9c-0.1,0.3,0,0.9,0.9,1.5
						c0.5,0.3,1.3,0.7,2.1,0.8c0.6,0.1,1.2,0.2,1.7,0.2c1.1,0,1.8-0.3,2-1c0.1-0.3,0-0.9-0.9-1.5c-0.5-0.3-1.3-0.6-2.1-0.8
						C121.5,31.5,120.9,31.4,120.4,31.4L120.4,31.4z"/>
				</g>
			</g>
			<path class="st15" d="M121.5,32.2l0.9-3.5l1.4,0.4l-1.4,3.4C122.2,33.1,121.3,32.8,121.5,32.2z"/>
		</g>
		<g>
			<circle class="st8" cx="37.6" cy="54.4" r="13.9"/>
			<path class="st9" d="M34.2,54.2c0,0-5.3-15.3-6.6-15.8s-6.5,6.6-8.3,12.8s7.1,13.7,7.1,13.7l8,7.9c0,0,15.9-12.6,18-17.6
				s4.9-10,3.8-11.3s-8.5,1.9-12.9,3.2S36,51.8,34.2,54.2z"/>
			<path class="st10" d="M56.1,55.4c1.5-2-1-2.3-5.3-1.6l0,0l0,0C49.9,54,49,54.2,48,54.4c-6,1.4-10,3.6-12.5,8
				c-0.9,1.5-1.3,2.3-1.5,2.8c-0.7-2.4-4.3-13.1-8.5-16.2c-0.6-0.5-1.3-0.9-2-1.3l0,0l0,0C19.1,45,14,43,13,44
				c0,0,5.2,12.5,5.9,16.9l0,0c0.6,5.8,4.3,11.2,10.1,13.6c7.5,3.1,16.1,0.1,20.2-6.6l0,0l0,0c0.4-0.7,0.8-1.4,1.1-2.1
				C51.9,62.6,54.9,57.1,56.1,55.4z"/>
		</g>
		<g>
			<g>
				
					<linearGradient id="SVGID_4_" gradientUnits="userSpaceOnUse" x1="1260.7296" y1="391.1848" x2="1260.7296" y2="375.7432" gradientTransform="matrix(0.7221 0.6918 0.6918 -0.7221 -1070.272 -572.2013)">
					<stop  offset="1.118836e-07" style="stop-color:#B2C052"/>
					<stop  offset="1" style="stop-color:#979E41"/>
				</linearGradient>
				<path class="st16" d="M102.6,31c0,0-1.5-2-0.7-5.4s1.3-3,2.6-3.8c1.4-1,0.6-1,0.4-2.2c-0.2-1.5,0.5-2,1-2.8
					c0.3-0.5,1.2-1.3,1.7-1.9c0.3-0.2,0.7-0.1,0.7,0.3c0.2,1.1,1,2.8,1.1,3.8c0.2,1.4-0.4,2.6-1,4.4c-0.6,1.8-2.3,2.3-3.1,3
					s-0.7,1.5-0.9,2.7c-0.3,1.2,0.4,0.5-0.3,1.2C103.5,31,102.6,31,102.6,31z"/>
				
					<linearGradient id="SVGID_5_" gradientUnits="userSpaceOnUse" x1="1269.5774" y1="392.5078" x2="1269.5774" y2="374.1304" gradientTransform="matrix(0.7221 0.6918 0.6918 -0.7221 -1070.272 -572.2013)">
					<stop  offset="1.118836e-07" style="stop-color:#B2C052"/>
					<stop  offset="1" style="stop-color:#979E41"/>
				</linearGradient>
				<path class="st17" d="M104.5,33.1c0,0,3.4,1.4,4.4,1.3s1.6-1.3,2.5-1.5c2.5-0.7,1.7-0.4,4.1-0.5c0,0,1.3-0.5,2.6-1.3
					c2.1-1.3,2-2.2,2.4-4.3c0.4-2.1-0.4-2.1-0.4-2.1s-0.9,0.7-3.3,1.3s-4.3-0.6-5.9,1.2c-1.6,1.8-2.5,2.2-3.8,3.3s-0.4,0.9-1.3,1.2
					s-1.7-2.5-1.7-2.5S97.9,32.9,104.5,33.1z"/>
				
					<linearGradient id="SVGID_6_" gradientUnits="userSpaceOnUse" x1="1265.7565" y1="392.2657" x2="1265.7565" y2="375.9366" gradientTransform="matrix(0.7221 0.6918 0.6918 -0.7221 -1070.272 -572.2013)">
					<stop  offset="1.118836e-07" style="stop-color:#B2C052"/>
					<stop  offset="1" style="stop-color:#979E41"/>
				</linearGradient>
				<path class="st18" d="M112.6,21.2c0,0-2.6-0.5-3.7,1.8s-3,3-3.6,3.8c-0.6,0.8-0.1,1-1.2,2.5c-1.1,1.6-0.9,2.1-0.9,2.1
					s3.3,0.8,3.5-0.8c0.2-1.6,4-3.8,6-4.7c1.8-0.9,2.8-2.5,3.3-4.4c0.1-0.4-0.3-0.8-0.7-0.6C113.5,21.8,112.6,21.2,112.6,21.2z"/>
				<path class="st7" d="M108,14.9c-0.5,0.6-0.8,0.7-1.2,1.3c-0.2,0.3-0.3,0.7-0.5,1c-0.1,0.3-0.2,0.7-0.3,1.1c0,0.2,0,0.4,0,0.5
					c0,0.2,0,0.4,0.1,0.5c0.1,0.4,0.1,0.7,0.2,1.1c0,0.2,0,0.4,0,0.6s-0.1,0.4-0.2,0.5c-0.2,0.3-0.4,0.6-0.7,0.9
					c-0.5,0.6-1,1.1-1.5,1.7c-0.2,0.3-0.4,0.6-0.6,0.9c-0.2,0.3-0.2,0.7-0.3,1s0,0.7,0,1.1c0,0.2,0,0.4,0.1,0.5
					c0,0.2,0.1,0.4,0.1,0.6c0,0.4,0.1,0.8,0.1,1.1c0,0.2,0,0.4,0,0.6c0,0.1,0,0.2,0,0.3c0,0,0,0.1,0,0.1c0,0,0,0,0,0.1
					c0,0,0,0,0,0.1l-1.8,2.4c0,0-0.3-0.3-0.3-0.3c0,0,1.8-2.3,1.8-2.3c0,0,0-0.1,0-0.1c0-0.1,0-0.2,0-0.3c0-0.2,0-0.4,0-0.5
					c0-0.4,0-0.7-0.1-1.1c0-0.2,0-0.4-0.1-0.5c0-0.2,0-0.4-0.1-0.6c0-0.4,0-0.8,0-1.1c0.1-0.4,0.2-0.8,0.3-1.1
					c0.2-0.4,0.4-0.7,0.6-1c0.5-0.6,1-1.1,1.5-1.6c0.3-0.3,0.5-0.5,0.7-0.9c0.2-0.3,0.2-0.7,0.2-1c0-0.4-0.1-0.7-0.2-1.1
					c0-0.2-0.1-0.4-0.1-0.6c0-0.2,0-0.4,0-0.6c0.1-0.4,0.2-0.7,0.3-1.1s0.3-0.7,0.5-1C107.2,15.6,107.5,15.4,108,14.9z"/>
				<path class="st7" d="M120.4,26.8c-0.6,0.6-1.3,1-2,1.5c-0.7,0.4-1.5,0.7-2.4,0.8c-0.2,0-0.4,0-0.6,0c-0.2,0-0.4-0.1-0.6-0.1
					c-0.4-0.1-0.8-0.2-1.2-0.3s-0.8-0.1-1.2,0.1c-0.3,0.2-0.6,0.5-0.9,0.8c-0.6,0.6-1.1,1.2-1.8,1.8c-0.3,0.3-0.7,0.5-1.1,0.6
					s-0.8,0.2-1.3,0.2c-0.8,0-1.7-0.2-2.5-0.3c-0.4-0.1-0.8-0.1-1.2-0.1c-0.2,0-0.4,0-0.6,0c-0.1,0-0.2,0-0.3,0c-0.1,0-0.1,0-0.1,0
					c0,0,0,0-0.1,0c0,0,0,0,0,0s0,0,0,0s-0.3,0.1-0.3,0.1l0.2-0.5c0,0,0,0,0,0c0,0,0,0,0,0c0,0,0,0,0.1,0c0,0,0.1,0,0.1,0
					c0.1,0,0.1,0,0.2,0c0.1,0,0.2,0,0.3,0c0.2,0,0.4,0,0.6,0c0.4,0,0.8,0.1,1.2,0.2c0.8,0.1,1.6,0.3,2.4,0.3c0.4,0,0.8,0,1.2-0.2
					c0.4-0.1,0.7-0.3,1.1-0.6c0.7-0.5,1.2-1.1,1.8-1.7c0.3-0.3,0.6-0.6,1-0.8c0.1-0.1,0.2-0.1,0.3-0.1c0.1,0,0.2-0.1,0.3-0.1
					c0.1,0,0.2,0,0.3,0c0.1,0,0.2,0,0.3,0c0.4,0.1,0.8,0.2,1.2,0.3c0.2,0,0.4,0.1,0.6,0.1c0.2,0,0.4,0,0.6,0c0.8,0,1.6-0.3,2.3-0.7
					C119.1,27.8,119.8,27.3,120.4,26.8z"/>
				<path class="st7" d="M115.8,21.4c-0.4,0.5-0.5,0.6-1,1.1c-0.5,0.5-1,1-1.6,1.3c-0.3,0.2-0.6,0.4-0.9,0.4c-0.3,0.1-0.7,0.2-1,0.3
					s-0.6,0.3-0.9,0.5c-0.3,0.2-0.5,0.4-0.8,0.7c-0.5,0.5-0.8,1.1-1.3,1.6c-0.4,0.5-0.8,1.1-1.3,1.6c-0.5,0.5-1.1,0.9-1.6,1.3
					c-0.3,0.2-0.6,0.4-0.8,0.6c-0.1,0.1-0.3,0.2-0.4,0.3c-0.1,0-0.2,0.1-0.2,0.1c0,0-0.1,0-0.1,0.1c0,0-0.1,0.1-0.2,0.1
					c0,0,0.1,0,0,0c0,0.2-0.1,0-0.2,0c0,0-0.2,0-0.2,0s-0.7,0.1-0.7,0.1c0,0,0-0.5,0-0.5c-0.9,0.6-1.5,1.5-1.5,1.4l0.4,0.1
					c0,0,1.1-1.3,1.1-1.3c0,0-2.7,2.8-2.8,2.8s2.2-2.1,2.2-2.1c0,0,0.5-0.4,0.5-0.4c0,0-0.3,0-0.3,0c0,0,0.2,0,0.2,0
					s-0.3,0.2-0.3,0.2c0,0,1.5-0.8,1.5-0.8c0.1,0,0.1-0.1,0.2-0.1c0.2-0.1,0.3-0.2,0.4-0.3c0.3-0.2,0.6-0.4,0.8-0.6
					c0.6-0.4,1.1-0.8,1.6-1.3c0.5-0.5,0.9-1,1.4-1.5c0.4-0.5,0.8-1.1,1.3-1.6c0.2-0.3,0.5-0.5,0.8-0.7c0.3-0.2,0.6-0.3,0.9-0.5
					c0.3-0.1,0.7-0.2,1-0.3c0.3-0.1,0.6-0.2,0.9-0.4c0.6-0.4,1.1-0.8,1.6-1.3C115.3,22,115.4,21.9,115.8,21.4z"/>
				<polygon class="st7" points="103,28.1 104.7,26.5 103.1,28.2 				"/>
				<path class="st7" d="M103.1,29.5C103,29.4,103,29.4,103.1,29.5l0-0.1c0,0-0.1-0.1-0.1-0.2c-0.1-0.1-0.1-0.2-0.2-0.3
					c-0.1-0.2-0.2-0.4-0.4-0.6c-0.3-0.4-0.5-0.8-0.8-1.2c0.3,0.4,0.6,0.8,0.8,1.2c0.1,0.2,0.3,0.4,0.4,0.6c0.1,0.1,0.1,0.2,0.2,0.3
					c0,0.1,0.1,0.1,0.1,0.2L103.1,29.5l0.1,0L103.1,29.5z"/>
				<polygon class="st7" points="103.1,25.4 106.2,23.2 103.1,25.5 				"/>
				<path class="st7" d="M103.8,24C103.8,24,103.8,24,103.8,24l0-0.1l0-0.1c0-0.1,0-0.2,0.1-0.2c0-0.2,0.1-0.3,0.1-0.5
					c0.1-0.3,0.1-0.7,0.1-1c0,0.3,0,0.7-0.1,1c0,0.2,0,0.3,0,0.5c0,0.1,0,0.2,0,0.3l0,0.1l0,0.1c0,0,0,0,0,0.1L103.8,24z"/>
				<polygon class="st7" points="105.6,22.1 107.5,20.9 105.7,22.3 				"/>
				<polygon class="st7" points="106,19.5 105.4,17.9 106.1,19.5 				"/>
				<polygon class="st7" points="107.7,27.9 110.1,27.4 107.7,28 				"/>
				<path class="st7" d="M106.2,29.3C106.2,29.3,106.3,29.2,106.2,29.3l0-0.1c0,0,0-0.1,0-0.2c0-0.1,0-0.2,0-0.4c0-0.2,0-0.5,0-0.7
					c0-0.5,0-1,0-1.4c0,0.5,0,1,0,1.4c0,0.2,0,0.5,0,0.7c0,0.1,0,0.2,0,0.4c0,0.1,0,0.1,0,0.2l0,0.1l0,0.1L106.2,29.3z"/>
				<polygon class="st7" points="109.4,25.7 113.2,25.6 109.4,25.8 				"/>
				<path class="st7" d="M110.1,25C110.1,25,110.1,25,110.1,25L110.1,25l0.2-0.1c0.1-0.1,0.1-0.1,0.2-0.2c0.1-0.1,0.2-0.2,0.3-0.4
					c0.2-0.3,0.4-0.5,0.7-0.8c-0.2,0.3-0.4,0.5-0.6,0.8c-0.1,0.1-0.2,0.3-0.3,0.4c-0.1,0.1-0.1,0.1-0.2,0.2l-0.1,0.1l-0.1,0
					c0,0-0.1,0-0.1,0L110.1,25z"/>
				<polygon class="st7" points="112.6,24.1 114.8,24.1 112.6,24.2 				"/>
				<polygon class="st7" points="113.5,23.6 113.9,21.9 113.6,23.6 				"/>
				<polygon class="st7" points="108.2,31.8 110.6,32 108.2,31.9 				"/>
				<path class="st7" d="M105.4,31.6C105.4,31.6,105.5,31.6,105.4,31.6l0.2,0c0.1,0,0.1,0,0.2-0.1c0.1,0,0.2-0.1,0.3-0.1
					c0.2-0.1,0.4-0.2,0.6-0.3c0.4-0.2,0.8-0.5,1.3-0.7c-0.4,0.3-0.8,0.5-1.2,0.8c-0.2,0.1-0.4,0.3-0.6,0.4c-0.1,0.1-0.2,0.1-0.3,0.2
					c-0.1,0-0.1,0-0.2,0.1l-0.1,0l-0.1,0L105.4,31.6z"/>
				<polygon class="st7" points="105.5,31.6 108.8,33.6 105.4,31.7 				"/>
				<path class="st7" d="M109.9,30.8c0,0,0.1-0.1,0.1-0.2c0-0.1,0.1-0.1,0.1-0.2c0.1-0.1,0.1-0.3,0.2-0.4c0.1-0.3,0.2-0.5,0.3-0.8
					c0.2-0.5,0.4-1.1,0.6-1.6c-0.2,0.5-0.4,1.1-0.6,1.7c-0.1,0.3-0.2,0.5-0.3,0.8c-0.1,0.1-0.1,0.3-0.2,0.4c0,0.1-0.1,0.1-0.1,0.2
					c0,0,0,0.1-0.1,0.1C110.1,30.8,110.1,30.8,109.9,30.8L109.9,30.8z"/>
				<polygon class="st7" points="111.4,29.7 114.7,30.9 111.3,29.8 				"/>
				<polygon class="st7" points="108.1,31.9 109.4,30.7 108.2,32 				"/>
				<path class="st7" d="M112,28.8C112,28.8,112,28.8,112,28.8l0.1-0.1c0,0,0.1-0.1,0.1-0.1c0.1-0.1,0.2-0.2,0.2-0.3
					c0.2-0.2,0.3-0.4,0.4-0.6c0.3-0.4,0.6-0.8,0.9-1.2c-0.3,0.4-0.5,0.8-0.8,1.2c-0.1,0.2-0.3,0.4-0.4,0.6c-0.1,0.1-0.2,0.2-0.2,0.3
					c0,0-0.1,0.1-0.1,0.1l-0.1,0.1L112,28.8L112,28.8z"/>
				<polygon class="st7" points="114.4,28.6 116.8,29.9 114.4,28.7 				"/>
				<path class="st7" d="M114.4,28.6C114.4,28.6,114.4,28.6,114.4,28.6c0.1,0,0.1-0.1,0.2-0.1c0.1,0,0.1-0.1,0.2-0.1
					c0.1-0.1,0.2-0.2,0.3-0.3c0.2-0.2,0.4-0.4,0.7-0.5c0.4-0.4,0.9-0.7,1.3-1.1c-0.4,0.4-0.8,0.8-1.2,1.1c-0.2,0.2-0.4,0.4-0.6,0.5
					c-0.1,0.1-0.2,0.2-0.3,0.3c-0.1,0-0.1,0.1-0.2,0.1c0,0-0.1,0-0.1,0.1c0,0,0,0-0.1,0c0,0,0,0-0.1,0V28.6z"/>
				<polygon class="st7" points="117.6,28.5 118.8,26.6 117.7,28.5 				"/>
				<polygon class="st7" points="118.3,28.2 119.6,27.9 118.3,28.3 				"/>
			</g>
			<g>
				<path class="st7" d="M102.6,40.5c-5.5,4.1-4.3-0.6-10,1.1c2.3-2.7-2.3-5.4,1-9.4c3.9-4.7,5.6-2,9.3,1.8
					C105.1,36.2,105,38.7,102.6,40.5z"/>
			</g>
		</g>
		<g>
			<g>
				
					<linearGradient id="SVGID_7_" gradientUnits="userSpaceOnUse" x1="1052.1184" y1="271.1192" x2="1052.1184" y2="254.1573" gradientTransform="matrix(-0.9191 0.394 -0.394 -0.9191 1129.3386 -159.3528)">
					<stop  offset="1.118836e-07" style="stop-color:#B2C052"/>
					<stop  offset="1" style="stop-color:#979E41"/>
				</linearGradient>
				<path class="st19" d="M58.7,23.1c0,0,2.3-1.5,2.8-5.3s-0.2-3.5-1.2-4.9c-1-1.5-0.2-1.2,0.4-2.4c0.8-1.5,0.3-2.2,0.1-3.2
					c-0.1-0.6-0.7-1.8-1-2.6c-0.2-0.3-0.7-0.4-0.8,0c-0.6,1.1-2.2,2.5-2.6,3.5c-0.7,1.4-0.6,2.8-0.7,4.9s1.5,3.2,2,4.3
					s0.1,1.8-0.1,3.1s-0.6,0.4-0.2,1.3C57.8,22.8,58.7,23.1,58.7,23.1z"/>
				
					<linearGradient id="SVGID_8_" gradientUnits="userSpaceOnUse" x1="1061.8376" y1="272.5772" x2="1061.8376" y2="252.3883" gradientTransform="matrix(-0.9191 0.394 -0.394 -0.9191 1129.3386 -159.3528)">
					<stop  offset="1.118836e-07" style="stop-color:#B2C052"/>
					<stop  offset="1" style="stop-color:#979E41"/>
				</linearGradient>
				<path class="st20" d="M55.9,24.5c0,0-4.1,0.1-5-0.4c-0.9-0.5-1.1-1.9-1.9-2.5c-2.3-1.6-1.6-1.1-4-2.1c0,0-1.2-1-2.2-2.4
					c-1.6-2.2-1.3-3-0.9-5.3c0.4-2.3,1.2-2,1.2-2s0.7,1.1,3,2.6c2.3,1.5,4.6,1.1,5.6,3.5c1,2.5,1.7,3.2,2.7,4.9
					c0.9,1.7,0.1,1.1,0.9,1.7c0.8,0.6,2.7-1.9,2.7-1.9S62.7,26.8,55.9,24.5z"/>
				
					<linearGradient id="SVGID_9_" gradientUnits="userSpaceOnUse" x1="1057.6506" y1="272.3166" x2="1057.6506" y2="254.3806" gradientTransform="matrix(-0.9191 0.394 -0.394 -0.9191 1129.3386 -159.3528)">
					<stop  offset="1.118836e-07" style="stop-color:#B2C052"/>
					<stop  offset="1" style="stop-color:#979E41"/>
				</linearGradient>
				<path class="st21" d="M52.1,9.1c0,0,2.8,0.5,3.1,3.2s2,4.2,2.3,5.3s-0.3,1,0.2,3.1s0.2,2.5,0.2,2.5s-3.8-0.5-3.3-2.1
					s-2.6-5.4-4.3-7.2c-1.6-1.6-1.9-3.7-1.7-5.9c0-0.5,0.6-0.7,0.9-0.3C51,9.4,52.1,9.1,52.1,9.1z"/>
				<path class="st7" d="M59.3,4.4c0.3,0.8,0.6,1,0.7,1.8c0.1,0.4,0.1,0.8,0.1,1.2c0,0.4,0,0.8-0.1,1.2c0,0.2-0.1,0.4-0.2,0.6
					c-0.1,0.2-0.2,0.4-0.3,0.5c-0.2,0.4-0.4,0.7-0.6,1.1c-0.1,0.2-0.2,0.4-0.2,0.6s0,0.4,0,0.6c0.1,0.4,0.2,0.8,0.4,1.2
					c0.3,0.8,0.6,1.5,0.9,2.3c0.1,0.4,0.2,0.8,0.2,1.2c0,0.4,0,0.8-0.1,1.2c-0.1,0.4-0.3,0.8-0.4,1.1c-0.1,0.2-0.2,0.4-0.3,0.5
					c-0.1,0.2-0.2,0.4-0.3,0.5c-0.2,0.4-0.4,0.7-0.5,1.1c-0.1,0.2-0.2,0.4-0.2,0.6c0,0.1-0.1,0.2-0.1,0.3c0,0,0,0.1,0,0.2
					c0,0,0,0.1,0,0.1c0,0,0,0,0,0.1l1,3.1c0,0,0.4-0.2,0.4-0.2c0,0-1-3.1-1-3.1c0,0,0-0.1,0-0.1c0-0.1,0-0.2,0.1-0.3
					c0.1-0.2,0.1-0.4,0.2-0.6c0.1-0.4,0.3-0.7,0.5-1.1c0.1-0.2,0.2-0.4,0.3-0.5c0.1-0.2,0.2-0.4,0.3-0.6c0.2-0.4,0.3-0.8,0.4-1.2
					c0.1-0.4,0.1-0.8,0.1-1.3c0-0.4-0.1-0.8-0.3-1.2c-0.3-0.8-0.6-1.5-0.9-2.3c-0.2-0.4-0.3-0.8-0.4-1.1c-0.1-0.4,0-0.8,0.2-1.1
					c0.2-0.4,0.4-0.7,0.6-1.1c0.1-0.2,0.2-0.4,0.3-0.6c0.1-0.2,0.1-0.4,0.2-0.6c0.1-0.4,0.1-0.8,0.1-1.2s-0.1-0.8-0.1-1.2
					C59.9,5.4,59.6,5.2,59.3,4.4z"/>
				<path class="st7" d="M42,11.8c0.4,0.8,0.9,1.6,1.5,2.3c0.6,0.7,1.3,1.3,2.1,1.7c0.2,0.1,0.4,0.2,0.7,0.2
					c0.2,0.1,0.5,0.1,0.7,0.1c0.5,0.1,0.9,0.1,1.3,0.2c0.4,0.1,0.9,0.3,1.1,0.6c0.3,0.3,0.5,0.8,0.7,1.2c0.4,0.8,0.7,1.7,1.2,2.5
					c0.2,0.4,0.5,0.8,0.9,1.1s0.8,0.5,1.2,0.7c0.9,0.4,1.8,0.5,2.7,0.7c0.4,0.1,0.9,0.2,1.3,0.3c0.2,0.1,0.4,0.1,0.6,0.2
					c0.1,0,0.2,0.1,0.3,0.1c0,0,0.1,0,0.1,0.1c0,0,0,0,0.1,0c0,0,0,0,0,0l0,0c0,0,0.3,0.3,0.3,0.3l0-0.5c0,0,0,0,0,0c0,0,0,0,0,0
					c0,0,0,0,0,0c0,0-0.1,0-0.1,0c-0.1,0-0.1-0.1-0.2-0.1c-0.1,0-0.2-0.1-0.3-0.1c-0.2-0.1-0.4-0.1-0.7-0.2
					c-0.4-0.1-0.9-0.2-1.3-0.3c-0.9-0.2-1.8-0.3-2.6-0.6c-0.4-0.1-0.8-0.4-1.2-0.6c-0.3-0.3-0.6-0.6-0.9-1c-0.5-0.8-0.8-1.6-1.2-2.4
					c-0.2-0.4-0.4-0.8-0.7-1.2c-0.1-0.1-0.2-0.2-0.3-0.3c-0.1-0.1-0.2-0.1-0.3-0.2c-0.1-0.1-0.2-0.1-0.3-0.1c-0.1,0-0.2-0.1-0.3-0.1
					C47.9,16.1,47.4,16,47,16c-0.2,0-0.5-0.1-0.7-0.1c-0.2-0.1-0.4-0.1-0.6-0.2c-0.8-0.4-1.5-1-2.1-1.6C42.9,13.4,42.4,12.6,42,11.8
					z"/>
				<path class="st7" d="M48.8,8c0.2,0.7,0.3,0.9,0.6,1.6c0.3,0.7,0.7,1.4,1.1,2c0.2,0.3,0.5,0.6,0.8,0.8c0.3,0.2,0.6,0.4,0.9,0.7
					c0.3,0.2,0.5,0.5,0.8,0.8c0.2,0.3,0.4,0.6,0.5,1c0.3,0.7,0.5,1.4,0.7,2.2c0.2,0.7,0.5,1.5,0.8,2.1c0.3,0.7,0.7,1.3,1.2,2
					c0.2,0.3,0.4,0.6,0.6,0.9c0.1,0.1,0.2,0.3,0.3,0.5c0.1,0.1,0.1,0.1,0.2,0.2c0,0,0.1,0.1,0.1,0.1c0,0,0.1,0.2,0.1,0.2
					c0,0-0.1,0,0,0c0,0.2,0.1,0.1,0.1,0.1s0.1,0.1,0.2,0.1c0,0,0.7,0.4,0.7,0.4c0,0,0.2-0.5,0.2-0.5c0.7,0.9,0.9,2.1,0.9,2l-0.4,0
					c0,0-0.6-1.7-0.6-1.7c0,0,1.7,3.9,1.8,3.9c0,0-1.5-3-1.5-3s-0.4-0.6-0.4-0.6s0.3,0.1,0.3,0.1c0,0-0.2-0.1-0.2-0.1
					c0,0,0.3,0.3,0.2,0.3c0,0-1.2-1.4-1.2-1.4c-0.1-0.1-0.1-0.1-0.2-0.2c-0.1-0.1-0.2-0.3-0.3-0.4c-0.2-0.3-0.4-0.6-0.7-0.9
					c-0.4-0.6-0.8-1.2-1.2-1.9c-0.3-0.7-0.6-1.4-0.8-2.1c-0.2-0.7-0.4-1.4-0.7-2.1c-0.2-0.4-0.3-0.7-0.5-1c-0.2-0.3-0.5-0.6-0.8-0.8
					s-0.6-0.4-0.9-0.7c-0.3-0.2-0.6-0.5-0.8-0.8c-0.5-0.6-0.8-1.3-1.1-1.9C49.1,8.9,49,8.7,48.8,8z"/>
				<polygon class="st7" points="59.4,19.9 58.3,17.6 59.2,20 				"/>
				<path class="st7" d="M58.8,21.3C58.8,21.3,58.8,21.2,58.8,21.3l0.1-0.1c0,0,0.1-0.1,0.1-0.1c0.1-0.1,0.2-0.2,0.3-0.3
					c0.2-0.2,0.4-0.3,0.6-0.5c0.4-0.3,0.8-0.6,1.3-0.9c-0.4,0.3-0.9,0.6-1.3,0.9c-0.2,0.1-0.4,0.3-0.6,0.5c-0.1,0.1-0.2,0.2-0.3,0.3
					c0,0-0.1,0.1-0.2,0.1l-0.1,0.1l-0.1,0.1L58.8,21.3z"/>
				<polygon class="st7" points="60.4,17.1 58,13.6 60.3,17.2 				"/>
				<path class="st7" d="M60.1,15.4C60.1,15.3,60.1,15.3,60.1,15.4v-0.1l0-0.1c0-0.1,0-0.2,0-0.3c0-0.2,0.1-0.4,0.1-0.5
					c0.1-0.4,0.2-0.7,0.3-1.1c-0.1,0.4-0.2,0.7-0.3,1.1c0,0.2-0.1,0.4-0.2,0.5c0,0.1,0,0.2-0.1,0.3l0,0.1l0,0.1c0,0,0,0.1,0,0.1
					L60.1,15.4z"/>
				<polygon class="st7" points="59,12.8 57.5,10.7 58.9,12.9 				"/>
				<polygon class="st7" points="59.6,9.9 60.8,8.4 59.5,9.8 				"/>
				<polygon class="st7" points="54.6,17.9 52.4,16.5 54.5,18 				"/>
				<path class="st7" d="M55.6,19.9C55.6,19.8,55.6,19.8,55.6,19.9l0-0.2c0-0.1,0-0.1,0-0.2c0-0.1,0.1-0.3,0.1-0.4
					c0.1-0.3,0.2-0.5,0.2-0.8c0.2-0.5,0.3-1,0.5-1.5c-0.2,0.5-0.4,1-0.6,1.5c-0.1,0.3-0.2,0.5-0.3,0.8c0,0.1-0.1,0.3-0.1,0.4
					c0,0.1,0,0.1,0,0.2l0,0.1v0.1L55.6,19.9z"/>
				<polygon class="st7" points="53.7,15 49.9,13.4 53.7,15.1 				"/>
				<path class="st7" d="M53.3,14C53.3,14,53.3,14,53.3,14L53.3,14l-0.1-0.2c0-0.1-0.1-0.2-0.1-0.3c-0.1-0.2-0.1-0.3-0.2-0.5
					c-0.1-0.3-0.3-0.7-0.4-1c0.1,0.4,0.2,0.7,0.3,1.1c0,0.2,0.1,0.4,0.2,0.5c0,0.1,0.1,0.2,0.1,0.3l0,0.1l0,0c0,0,0,0.1,0.1,0.1
					L53.3,14z"/>
				<polygon class="st7" points="51.1,12.1 48.7,11.2 51,12.2 				"/>
				<polygon class="st7" points="50.3,11.2 50.5,9.3 50.2,11.2 				"/>
				<polygon class="st7" points="52.6,21.7 50.1,20.9 52.5,21.8 				"/>
				<path class="st7" d="M55.6,22.5C55.5,22.5,55.5,22.5,55.6,22.5l-0.1-0.1c0,0-0.1-0.1-0.1-0.1c-0.1-0.1-0.2-0.2-0.3-0.3
					c-0.2-0.2-0.3-0.4-0.5-0.6c-0.3-0.4-0.7-0.8-1-1.2c0.3,0.4,0.6,0.9,1,1.3c0.2,0.2,0.3,0.4,0.5,0.6c0.1,0.1,0.2,0.2,0.3,0.3
					c0,0,0.1,0.1,0.2,0.1l0.1,0.1l0.1,0.1L55.6,22.5z"/>
				<polygon class="st7" points="55.5,22.5 51.3,23.3 55.5,22.7 				"/>
				<path class="st7" d="M51.2,20c0,0,0-0.1,0-0.2c0-0.1,0-0.2,0-0.2c0-0.2,0-0.3,0-0.5c0-0.3,0-0.6,0-1c0-0.6,0-1.3,0-1.9
					c0,0.6,0,1.3-0.1,1.9c0,0.3,0,0.6,0,1c0,0.2,0,0.3,0,0.5c0,0.1,0,0.2,0,0.2c0,0,0,0.1,0,0.1c0,0,0,0.1,0,0.1L51.2,20z"/>
				<polygon class="st7" points="50.2,18.3 46.2,18.3 50.1,18.5 				"/>
				<polygon class="st7" points="52.6,21.8 51.8,20.1 52.5,21.9 				"/>
				<path class="st7" d="M49.8,17.2C49.8,17.2,49.8,17.2,49.8,17.2l-0.1-0.1c0,0,0-0.1-0.1-0.2c0-0.1-0.1-0.2-0.1-0.4
					c-0.1-0.3-0.2-0.5-0.3-0.8c-0.2-0.5-0.3-1-0.4-1.5c0.1,0.5,0.2,1,0.4,1.5c0.1,0.3,0.1,0.5,0.2,0.8c0,0.1,0.1,0.3,0.1,0.4
					c0,0.1,0,0.1,0.1,0.2l0,0.1l0.1,0.1L49.8,17.2z"/>
				<polygon class="st7" points="47.4,16 44.5,16.4 47.4,16.2 				"/>
				<path class="st7" d="M47.5,16C47.5,16,47.5,16,47.5,16c-0.1-0.1-0.1-0.1-0.1-0.2c0-0.1-0.1-0.1-0.1-0.2
					c-0.1-0.1-0.2-0.3-0.3-0.4c-0.2-0.3-0.3-0.5-0.5-0.8c-0.3-0.5-0.6-1.1-0.9-1.6c0.3,0.6,0.5,1.1,0.8,1.6c0.1,0.3,0.3,0.5,0.4,0.8
					c0.1,0.1,0.2,0.3,0.2,0.4c0,0.1,0.1,0.1,0.1,0.2c0,0,0,0.1,0.1,0.1c0,0,0,0,0,0c0,0,0,0,0.1,0L47.5,16z"/>
				<polygon class="st7" points="44.2,14.7 43.7,12.2 44,14.7 				"/>
				<polygon class="st7" points="43.6,14.1 42.3,13.3 43.5,14.2 				"/>
			</g>
			<g>
				<path class="st7" d="M55,32.9c4.1,6.3,4.6,1,9.9,5c-1.3-3.7,4.5-4.6,2.6-10c-2.2-6.3-5-4.2-10.3-1.8C54.1,27.4,53.2,30,55,32.9z
					"/>
			</g>
		</g>
		<g>
			<g>
				<path class="st11" d="M68.6,59.8c-1.3,0-2.6-0.4-3.7-1.1l-2.6-2.6l-3.7-1.7c-3-2-3.8-5.9-2-8.9l6.9-11.4c1.2-2,3.3-3.2,5.7-3.2
					c1.3,0,2.5,0.4,3.6,1l7.3,4.7c1.5,1,2.6,2.5,2.9,4.3s-0.1,3.6-1.1,5.1L74,57C72.7,58.8,70.7,59.8,68.6,59.8z"/>
				<g>
					<path class="st12" d="M69.1,31.1c1.2,0,2.4,0.3,3.4,1l7.3,4.7c3.1,2,3.9,6.1,1.7,9.1l-7.9,11c-1.2,1.7-3.2,2.7-5.2,2.7
						c-1.2,0-2.5-0.3-3.6-1.1l-2.5-2.5l-3.8-1.7c-2.8-1.9-3.6-5.7-1.9-8.6l6.9-11.4C64.9,32.2,67,31.1,69.1,31.1 M69.1,30.6
						L69.1,30.6c-2.4,0-4.6,1.2-5.9,3.3l-6.9,11.4c-1.9,3.1-1,7.2,2,9.2l0,0l0,0l3.7,1.7l2.5,2.5l0,0l0,0c1.1,0.8,2.5,1.2,3.8,1.2
						c2.2,0,4.3-1.1,5.6-2.9l7.9-11c1.1-1.5,1.5-3.4,1.2-5.3c-0.4-1.9-1.4-3.5-3-4.5l-7.3-4.7C71.7,31,70.4,30.6,69.1,30.6
						L69.1,30.6z"/>
				</g>
			</g>
			<g>
				<path class="st13" d="M61.8,54.7c-1.1,0-2.1-0.3-3-0.9l-0.6-0.4c-2.4-1.6-3.2-4.9-1.7-7.4l7.1-12c1-1.7,2.8-2.7,4.7-2.7
					c1.2,0,2.3,0.4,3.3,1.1l1.8,1.3c2.4,1.8,2.9,5.3,1.1,7.7l-8.3,11.1C65.1,53.9,63.5,54.7,61.8,54.7L61.8,54.7z"/>
				<g>
					<path class="st12" d="M68.3,31.6c1.1,0,2.2,0.3,3.1,1l1.8,1.3c2.3,1.7,2.8,5,1.1,7.3l-8.3,11.1c-1,1.4-2.6,2.1-4.2,2.1
						c-1,0-2-0.3-2.9-0.9l-0.6-0.4c-2.3-1.5-3-4.6-1.6-7l7.1-12C64.8,32.5,66.5,31.6,68.3,31.6 M68.3,31.1c-2,0-3.9,1.1-4.9,2.8
						l-7.1,12c-1.6,2.6-0.8,6,1.7,7.7l0.6,0.4c1,0.6,2,1,3.2,1c1.8,0,3.5-0.9,4.6-2.3l8.3-11.1c1.9-2.5,1.4-6.1-1.2-8l-1.8-1.3
						C70.7,31.5,69.5,31.1,68.3,31.1L68.3,31.1z"/>
				</g>
			</g>
			<g>
				<path class="st14" d="M77.6,37.6c-0.7,0-1.6-0.4-2.5-1c-0.7-0.4-1.2-0.9-1.6-1.4c-0.5-0.7-0.5-1.1-0.3-1.4
					c0.1-0.2,0.3-0.3,0.8-0.3c0.7,0,1.6,0.4,2.5,1c0.7,0.4,1.2,0.9,1.6,1.4c0.5,0.7,0.5,1.1,0.3,1.4C78.3,37.4,78.1,37.6,77.6,37.6
					L77.6,37.6z"/>
				<g>
					<path class="st12" d="M74,33.7c0.6,0,1.5,0.3,2.4,0.9c1.3,0.9,2.1,2,1.8,2.5c-0.1,0.2-0.3,0.2-0.6,0.2c-0.6,0-1.5-0.3-2.4-0.9
						c-1.3-0.9-2.1-2-1.8-2.5C73.5,33.8,73.7,33.7,74,33.7 M74,33.2c-0.6,0-0.9,0.3-1,0.5c-0.2,0.3-0.3,0.8,0.3,1.7
						c0.4,0.5,1,1,1.7,1.5c1,0.6,2,1,2.7,1c0.6,0,0.9-0.3,1-0.5c0.2-0.3,0.3-0.8-0.3-1.7c-0.4-0.5-1-1-1.7-1.5
						C75.7,33.6,74.7,33.2,74,33.2L74,33.2z"/>
				</g>
			</g>
			<path class="st15" d="M75.9,34.6l2.1-2.9l1.2,0.9l-2.4,2.7C76.2,35.7,75.6,35.1,75.9,34.6z"/>
		</g>
		<g>
			<g>
				<path class="st11" d="M92.9,67.2c-2.9,0-5.1-1.6-5.8-4.2l-3.9-14.4C82.8,46.8,83,45,84,43.4c0.9-1.6,2.5-2.6,4.3-3l10-2.2
					c0.5-0.1,0.9-0.2,1.4-0.2c3.4,0,6.2,2.5,6.6,5.9l1.7,15.2c0.4,3.2-2,5.9-5.7,6.6l-4.1,1.4l-3.8,0C93.9,67.2,93.4,67.2,92.9,67.2
					z"/>
				<g>
					<path class="st12" d="M99.6,38.3c3.2,0,5.9,2.4,6.3,5.6l1.7,15.1c0.4,3.3-2.2,5.7-5.5,6.3L98,66.9l-3.7-0.1
						c-0.5,0.1-1,0.1-1.4,0.1c-2.6,0-4.8-1.4-5.5-4.1l-3.9-14.4c-0.9-3.5,1.2-7.1,4.8-7.9l10-2.2C98.7,38.4,99.2,38.3,99.6,38.3
						 M99.6,37.8L99.6,37.8c-0.5,0-1,0-1.5,0.2l-10,2.2c-1.9,0.4-3.4,1.5-4.4,3.1s-1.3,3.5-0.8,5.4L86.9,63c0.8,2.8,3,4.4,6,4.4
						c0.5,0,1,0,1.5-0.1l3.6,0.1h0.1l0.1,0l4.1-1.4c3.8-0.7,6.2-3.5,5.8-6.9l-1.7-15.2C106,40.5,103.1,37.8,99.6,37.8L99.6,37.8z"/>
				</g>
			</g>
			<g>
				<path class="st13" d="M95.8,67c-2.6,0-4.8-1.9-5.4-4.6L87,47.9c-0.4-1.7-0.1-3.5,0.9-4.9c0.9-1.3,2.2-2.1,3.7-2.3l2.2-0.3
					c0.2,0,0.5,0,0.7,0c2.8,0,5.1,2.2,5.5,5.2l2,14.7c0.4,3.1-1.5,6-4.4,6.5l-0.7,0.1C96.4,67,96.1,67,95.8,67L95.8,67z"/>
				<g>
					<path class="st12" d="M94.4,40.6c2.6,0,4.9,2.1,5.3,4.9l2,14.7c0.4,3-1.4,5.7-4.2,6.2l-0.7,0.1c-0.3,0.1-0.6,0.1-0.9,0.1
						c-2.4,0-4.6-1.8-5.2-4.4l-3.4-14.6c-0.8-3.3,1.3-6.4,4.3-6.8l2.2-0.3C93.9,40.7,94.2,40.6,94.4,40.6 M94.4,40.1
						c-0.2,0-0.5,0-0.7,0l-2.2,0.3c-1.6,0.2-2.9,1-3.8,2.4c-1,1.5-1.3,3.3-0.9,5.1l3.4,14.6c0.7,2.8,3,4.8,5.7,4.8
						c0.3,0,0.7,0,1-0.1l0.7-0.1c3-0.6,5-3.5,4.6-6.8l-2-14.7C99.7,42.4,97.3,40.1,94.4,40.1L94.4,40.1z"/>
				</g>
			</g>
			<g>
				<path class="st14" d="M91.4,42.1c-1.2,0-2-0.3-2.1-0.8c0-0.3,0.1-0.7,0.9-1.1c0.5-0.3,1.3-0.5,2-0.6c0.4-0.1,0.8-0.1,1.2-0.1
					c1.2,0,2,0.3,2.1,0.8c0.1,0.8-1.4,1.5-2.9,1.7C92.2,42.1,91.8,42.1,91.4,42.1L91.4,42.1z"/>
				<g>
					<path class="st12" d="M93.5,39.7c1,0,1.8,0.2,1.8,0.6c0.1,0.5-1.1,1.2-2.7,1.4c-0.4,0.1-0.8,0.1-1.2,0.1c-1,0-1.8-0.2-1.8-0.6
						c-0.1-0.5,1.1-1.2,2.7-1.4C92.7,39.8,93.1,39.7,93.5,39.7 M93.5,39.2c-0.4,0-0.8,0-1.3,0.1c-1.7,0.3-3.3,1-3.1,2
						c0.1,0.7,0.9,1,2.3,1c0.4,0,0.8,0,1.3-0.1c0.8-0.1,1.6-0.3,2.1-0.6c0.9-0.5,1-1,1-1.3C95.7,39.6,94.9,39.2,93.5,39.2L93.5,39.2
						z"/>
				</g>
			</g>
			<path class="st15" d="M92.3,40.5c0,0-0.8-0.7,0.8-2c1.6-1.3,0.5-0.2,0.5-0.2S93.2,40.1,92.3,40.5z"/>
		</g>
		<g>
			<g>
				
					<linearGradient id="SVGID_10_" gradientUnits="userSpaceOnUse" x1="1066.0844" y1="242.2459" x2="1066.0844" y2="225.284" gradientTransform="matrix(-0.9191 0.394 -0.394 -0.9191 1129.3386 -159.3528)">
					<stop  offset="1.118836e-07" style="stop-color:#B2C052"/>
					<stop  offset="1" style="stop-color:#979E41"/>
				</linearGradient>
				<path class="st22" d="M57.2,55.1c0,0,2.3-1.5,2.8-5.3c0.5-3.8-0.2-3.5-1.2-4.9c-1-1.5-0.2-1.2,0.4-2.4c0.8-1.5,0.3-2.2,0.1-3.2
					c-0.1-0.6-0.7-1.8-1-2.6c-0.2-0.3-0.7-0.4-0.8,0c-0.6,1-2.2,2.5-2.6,3.5c-0.7,1.4-0.6,2.8-0.7,4.9s1.5,3.2,2,4.3
					c0.5,1.1,0.1,1.8-0.1,3.1s-0.6,0.4-0.2,1.3C56.3,54.8,57.2,55.1,57.2,55.1z"/>
				
					<linearGradient id="SVGID_11_" gradientUnits="userSpaceOnUse" x1="1075.8075" y1="243.6948" x2="1075.8075" y2="223.5058" gradientTransform="matrix(-0.9191 0.394 -0.394 -0.9191 1129.3386 -159.3528)">
					<stop  offset="1.118836e-07" style="stop-color:#B2C052"/>
					<stop  offset="1" style="stop-color:#979E41"/>
				</linearGradient>
				<path class="st23" d="M54.4,56.5c0,0-4.1,0.1-5-0.4c-0.9-0.5-1.1-1.9-1.9-2.5c-2.3-1.7-1.6-1.1-4-2.1c0,0-1.2-1-2.2-2.4
					c-1.6-2.2-1.3-3-0.9-5.3c0.4-2.3,1.2-2,1.2-2s0.7,1.1,3,2.6c2.3,1.5,4.6,1,5.6,3.5c1,2.5,1.7,3.2,2.7,4.9
					c0.9,1.7,0.1,1.1,0.9,1.7c0.8,0.6,2.7-1.9,2.7-1.9S61.3,58.8,54.4,56.5z"/>
				
					<linearGradient id="SVGID_12_" gradientUnits="userSpaceOnUse" x1="1071.6205" y1="243.4341" x2="1071.6205" y2="225.4981" gradientTransform="matrix(-0.9191 0.394 -0.394 -0.9191 1129.3386 -159.3528)">
					<stop  offset="1.118836e-07" style="stop-color:#B2C052"/>
					<stop  offset="1" style="stop-color:#979E41"/>
				</linearGradient>
				<path class="st24" d="M50.7,41.2c0,0,2.8,0.5,3.1,3.2s2,4.2,2.3,5.3s-0.3,1,0.2,3.1s0.2,2.5,0.2,2.5s-3.8-0.5-3.3-2.1
					s-2.6-5.4-4.3-7.2c-1.6-1.6-1.9-3.7-1.7-5.8c0-0.5,0.6-0.7,0.9-0.3C49.5,41.4,50.7,41.2,50.7,41.2z"/>
				<path class="st7" d="M57.8,36.4c0.3,0.8,0.6,1,0.7,1.8c0.1,0.4,0.1,0.8,0.1,1.2c0,0.4,0,0.8-0.1,1.2c0,0.2-0.1,0.4-0.2,0.6
					c-0.1,0.2-0.2,0.4-0.3,0.5c-0.2,0.3-0.4,0.7-0.6,1.1c-0.1,0.2-0.2,0.4-0.2,0.6s0,0.4,0,0.6c0.1,0.4,0.2,0.8,0.4,1.2
					c0.3,0.8,0.6,1.5,0.9,2.3c0.1,0.4,0.2,0.8,0.2,1.2c0,0.4,0,0.8-0.1,1.2c-0.1,0.4-0.3,0.8-0.4,1.1c-0.1,0.2-0.2,0.4-0.3,0.5
					c-0.1,0.2-0.2,0.4-0.3,0.5c-0.2,0.4-0.4,0.7-0.5,1.1c-0.1,0.2-0.2,0.4-0.2,0.6c0,0.1-0.1,0.2-0.1,0.3c0,0,0,0.1,0,0.2
					c0,0,0,0.1,0,0.1c0,0,0,0,0,0.1l1,3.1c0,0,0.4-0.2,0.4-0.2c0,0-1-3.1-1-3.1c0,0,0-0.1,0-0.1c0-0.1,0-0.2,0.1-0.3
					c0.1-0.2,0.1-0.4,0.2-0.6c0.1-0.4,0.3-0.7,0.5-1.1c0.1-0.2,0.2-0.4,0.3-0.5c0.1-0.2,0.2-0.4,0.3-0.6c0.2-0.4,0.3-0.8,0.4-1.2
					c0.1-0.4,0.1-0.8,0.1-1.3c0-0.4-0.1-0.8-0.3-1.2c-0.3-0.8-0.6-1.5-0.9-2.3c-0.2-0.4-0.3-0.8-0.4-1.1c-0.1-0.4,0-0.8,0.2-1.1
					s0.4-0.7,0.6-1.1c0.1-0.2,0.2-0.4,0.3-0.5c0.1-0.2,0.1-0.4,0.2-0.6c0.1-0.4,0.1-0.8,0.1-1.2s-0.1-0.8-0.1-1.2
					C58.5,37.4,58.1,37.2,57.8,36.4z"/>
				<path class="st7" d="M40.5,43.8c0.4,0.8,0.9,1.6,1.5,2.3c0.6,0.7,1.3,1.3,2.1,1.7c0.2,0.1,0.4,0.2,0.7,0.2
					c0.2,0,0.5,0.1,0.7,0.1c0.5,0.1,0.9,0.1,1.3,0.2c0.4,0.1,0.9,0.3,1.1,0.6c0.3,0.3,0.5,0.8,0.7,1.2c0.4,0.8,0.7,1.7,1.2,2.5
					c0.2,0.4,0.5,0.8,0.9,1.1s0.8,0.5,1.2,0.7c0.9,0.3,1.8,0.5,2.7,0.7c0.4,0.1,0.9,0.2,1.3,0.3c0.2,0.1,0.4,0.1,0.6,0.2
					c0.1,0,0.2,0.1,0.3,0.1c0,0,0.1,0,0.1,0.1c0,0,0,0,0.1,0c0,0,0,0,0,0l0,0c0,0,0.3,0.3,0.3,0.3l0-0.5c0,0,0,0,0,0c0,0,0,0,0,0
					c0,0,0,0,0,0c0,0-0.1,0-0.1,0c-0.1,0-0.1-0.1-0.2-0.1c-0.1,0-0.2-0.1-0.3-0.1c-0.2-0.1-0.4-0.2-0.7-0.2
					c-0.4-0.1-0.9-0.2-1.3-0.3c-0.9-0.2-1.8-0.3-2.6-0.6c-0.4-0.2-0.8-0.3-1.2-0.6c-0.3-0.3-0.6-0.6-0.9-1c-0.5-0.8-0.8-1.6-1.2-2.4
					c-0.2-0.4-0.4-0.8-0.7-1.2c-0.1-0.1-0.2-0.2-0.3-0.3c-0.1-0.1-0.2-0.1-0.3-0.2c-0.1-0.1-0.2-0.1-0.3-0.1c-0.1,0-0.2-0.1-0.3-0.1
					c-0.5-0.1-0.9-0.1-1.3-0.2c-0.2,0-0.5-0.1-0.7-0.1c-0.2,0-0.4-0.1-0.6-0.2c-0.8-0.3-1.5-1-2.1-1.6
					C41.4,45.4,40.9,44.7,40.5,43.8z"/>
				<path class="st7" d="M47.3,40.1c0.2,0.7,0.3,0.9,0.6,1.5c0.3,0.7,0.7,1.4,1.1,2c0.2,0.3,0.5,0.6,0.8,0.8
					c0.3,0.2,0.6,0.4,0.9,0.7c0.3,0.2,0.5,0.5,0.8,0.8c0.2,0.3,0.4,0.6,0.5,1c0.3,0.7,0.5,1.4,0.7,2.2c0.2,0.7,0.5,1.5,0.8,2.1
					c0.3,0.7,0.7,1.3,1.2,2c0.2,0.3,0.4,0.6,0.6,0.9c0.1,0.2,0.2,0.3,0.3,0.5c0.1,0.1,0.1,0.2,0.2,0.2c0,0,0.1,0.1,0.1,0.1
					c0,0,0.1,0.2,0.1,0.2c0,0-0.1,0,0,0c0,0.2,0.1,0.1,0.1,0.1s0.1,0.1,0.2,0.1c0,0,0.7,0.4,0.7,0.4c0,0,0.2-0.5,0.2-0.5
					c0.7,0.9,0.9,2.1,0.9,2l-0.4,0c0,0-0.6-1.7-0.6-1.7c0,0,1.7,3.9,1.8,3.9c0,0-1.5-3-1.5-3S57,55.7,57,55.7s0.3,0.1,0.3,0.1
					c0,0-0.2-0.1-0.2-0.1c0,0,0.3,0.3,0.2,0.3c0,0-1.2-1.4-1.2-1.4c-0.1-0.1-0.1-0.1-0.2-0.2c-0.1-0.1-0.2-0.3-0.3-0.4
					c-0.2-0.3-0.4-0.6-0.7-0.9c-0.4-0.6-0.8-1.2-1.2-1.9c-0.3-0.7-0.6-1.4-0.8-2.1c-0.2-0.7-0.4-1.5-0.7-2.2c-0.2-0.3-0.3-0.7-0.5-1
					c-0.2-0.3-0.5-0.6-0.8-0.8s-0.6-0.5-0.9-0.7c-0.3-0.2-0.6-0.5-0.8-0.8c-0.5-0.6-0.8-1.3-1.1-2C47.7,40.9,47.6,40.8,47.3,40.1z"
					/>
				<polygon class="st7" points="57.9,52 56.8,49.6 57.8,52 				"/>
				<path class="st7" d="M57.3,53.3C57.3,53.3,57.4,53.3,57.3,53.3l0.1-0.1c0,0,0.1-0.1,0.1-0.1c0.1-0.1,0.2-0.2,0.3-0.3
					c0.2-0.2,0.4-0.3,0.6-0.5c0.4-0.3,0.8-0.6,1.3-0.9c-0.4,0.3-0.9,0.6-1.3,0.9c-0.2,0.2-0.4,0.3-0.6,0.5c-0.1,0.1-0.2,0.2-0.3,0.3
					c0,0-0.1,0.1-0.2,0.1l-0.1,0.1l-0.1,0.1L57.3,53.3z"/>
				<polygon class="st7" points="58.9,49.1 56.6,45.7 58.8,49.2 				"/>
				<path class="st7" d="M58.6,47.4C58.6,47.4,58.6,47.4,58.6,47.4v-0.1l0-0.1c0-0.1,0-0.2,0-0.3c0-0.2,0.1-0.4,0.1-0.5
					c0.1-0.4,0.2-0.7,0.3-1.1c-0.1,0.3-0.2,0.7-0.3,1c0,0.2-0.1,0.3-0.2,0.5c0,0.1,0,0.2-0.1,0.3l0,0.1l0,0.1c0,0,0,0.1,0,0.1
					L58.6,47.4z"/>
				<polygon class="st7" points="57.5,44.8 56.1,42.8 57.4,44.9 				"/>
				<polygon class="st7" points="58.1,42 59.3,40.5 58,41.9 				"/>
				<polygon class="st7" points="53.2,49.9 50.9,48.5 53.1,50 				"/>
				<path class="st7" d="M54.1,51.9C54.1,51.9,54.1,51.9,54.1,51.9l0-0.2c0-0.1,0-0.1,0-0.2c0-0.1,0.1-0.3,0.1-0.4
					c0.1-0.3,0.2-0.5,0.2-0.8c0.2-0.5,0.3-1,0.5-1.5c-0.2,0.5-0.4,1-0.6,1.5c-0.1,0.3-0.2,0.5-0.3,0.8c0,0.1-0.1,0.3-0.1,0.4
					c0,0.1,0,0.1,0,0.2l0,0.1V52L54.1,51.9z"/>
				<polygon class="st7" points="52.3,47 48.4,45.4 52.2,47.1 				"/>
				<path class="st7" d="M51.8,46C51.8,46,51.8,46,51.8,46L51.8,46l-0.1-0.2c0-0.1-0.1-0.2-0.1-0.3c-0.1-0.2-0.1-0.3-0.2-0.5
					c-0.1-0.3-0.3-0.7-0.4-1c0.1,0.3,0.2,0.7,0.3,1.1c0,0.2,0.1,0.3,0.2,0.5c0,0.1,0.1,0.2,0.1,0.3l0,0.1l0,0.1c0,0,0,0,0.1,0.1
					L51.8,46z"/>
				<polygon class="st7" points="49.6,44.1 47.3,43.2 49.6,44.3 				"/>
				<polygon class="st7" points="48.9,43.3 49,41.3 48.7,43.2 				"/>
				<polygon class="st7" points="51.1,53.7 48.6,53 51.1,53.8 				"/>
				<path class="st7" d="M54.1,54.6C54.1,54.6,54,54.6,54.1,54.6L54,54.5c0,0-0.1-0.1-0.1-0.1c-0.1-0.1-0.2-0.2-0.3-0.3
					c-0.2-0.2-0.3-0.4-0.5-0.6c-0.3-0.4-0.7-0.8-1-1.2c0.3,0.4,0.6,0.8,1,1.3c0.2,0.2,0.3,0.4,0.5,0.6c0.1,0.1,0.2,0.2,0.3,0.3
					c0,0,0.1,0.1,0.2,0.1l0.1,0.1l0.1,0.1L54.1,54.6z"/>
				<polygon class="st7" points="54,54.6 49.9,55.3 54,54.7 				"/>
				<path class="st7" d="M49.7,52c0,0,0-0.1,0-0.2c0-0.1,0-0.2,0-0.2c0-0.2,0-0.3,0-0.5c0-0.3,0-0.6,0-1c0-0.6,0-1.3,0-1.9
					c0,0.6,0,1.3-0.1,1.9c0,0.3,0,0.6,0,1c0,0.2,0,0.3,0,0.5c0,0.1,0,0.2,0,0.2c0,0,0,0.1,0,0.1c0,0,0,0.1,0,0.1L49.7,52z"/>
				<polygon class="st7" points="48.7,50.4 44.8,50.3 48.7,50.5 				"/>
				<polygon class="st7" points="51.2,53.9 50.4,52.1 51,53.9 				"/>
				<path class="st7" d="M48.4,49.3C48.4,49.2,48.4,49.2,48.4,49.3l-0.1-0.1c0,0,0-0.1-0.1-0.2c0-0.1-0.1-0.2-0.1-0.4
					c-0.1-0.3-0.2-0.5-0.3-0.8c-0.2-0.5-0.3-1-0.4-1.5c0.1,0.5,0.2,1,0.4,1.5c0.1,0.3,0.1,0.5,0.2,0.8c0,0.1,0.1,0.3,0.1,0.4
					c0,0.1,0,0.1,0.1,0.2l0,0.1l0.1,0.1L48.4,49.3z"/>
				<polygon class="st7" points="46,48.1 43,48.5 46,48.2 				"/>
				<path class="st7" d="M46,48.1C46,48.1,46,48,46,48.1c-0.1-0.1-0.1-0.1-0.1-0.2c0-0.1-0.1-0.1-0.1-0.2c-0.1-0.1-0.2-0.3-0.3-0.4
					c-0.2-0.3-0.3-0.5-0.5-0.8c-0.3-0.5-0.6-1.1-0.9-1.6c0.3,0.5,0.5,1.1,0.8,1.7c0.1,0.3,0.3,0.5,0.4,0.8c0.1,0.1,0.2,0.3,0.2,0.4
					c0,0.1,0.1,0.1,0.1,0.2c0,0,0,0.1,0.1,0.1c0,0,0,0,0,0c0,0,0,0,0.1,0L46,48.1z"/>
				<polygon class="st7" points="42.7,46.7 42.2,44.3 42.6,46.7 				"/>
				<polygon class="st7" points="42.1,46.2 40.9,45.4 42.1,46.3 				"/>
			</g>
			<g>
				<path class="st7" d="M53.6,64.9c4.1,6.3,4.6,1,9.9,5c-1.3-3.7,4.5-4.6,2.6-10c-2.2-6.3-5-4.2-10.3-1.8
					C52.6,59.5,51.7,62.1,53.6,64.9z"/>
			</g>
		</g>
		
			<linearGradient id="SVGID_13_" gradientUnits="userSpaceOnUse" x1="-58.5393" y1="17.675" x2="-35.1093" y2="17.675" gradientTransform="matrix(1 0 0 -1 174.8793 80)">
			<stop  offset="3.724194e-03" style="stop-color:#FEC251"/>
			<stop  offset="0.9926" style="stop-color:#FECE74"/>
		</linearGradient>
		<polygon class="st25" points="116.3,75.7 116.3,66.6 139.8,48.9 139.8,56.7 		"/>
		
			<linearGradient id="SVGID_14_" gradientUnits="userSpaceOnUse" x1="-58.4793" y1="38.915" x2="-35.0593" y2="38.915" gradientTransform="matrix(1 0 0 -1 174.8793 80)">
			<stop  offset="3.724194e-03" style="stop-color:#FEC251"/>
			<stop  offset="0.9926" style="stop-color:#FECE74"/>
		</linearGradient>
		<polygon class="st26" points="116.4,54.5 116.4,45.4 139.8,27.7 139.8,35.5 		"/>
		<g>
			<path class="st27" d="M11.9,76.9L12,42.7c0-0.4,0.3-0.7,0.7-0.7l2.4,0c0.4,0,0.7,0.3,0.7,0.7l-0.1,34.2c0,0.4-0.3,0.7-0.7,0.7
				l-2.4,0C12.2,77.6,11.9,77.3,11.9,76.9z"/>
			<path class="st27" d="M114.7,77.3l0.2-34.2c0-0.4,0.3-0.7,0.7-0.7l2.4,0c0.4,0,0.7,0.3,0.7,0.7l-0.2,34.2c0,0.4-0.3,0.7-0.7,0.7
				l-2.4,0C115,78.1,114.7,77.7,114.7,77.3z"/>
			<path class="st27" d="M120.1,57.1L3,56.6c-1.5,0-2.6-1.2-2.6-2.6l0-9.5c0-1.5,1.2-2.6,2.6-2.6l117.1,0.5c1.4,0,2.6,1.2,2.6,2.6
				l0,9.5C122.7,55.9,121.5,57.1,120.1,57.1z"/>
			<path class="st27" d="M120,78.1L2.9,77.6c-1.5,0-2.6-1.2-2.6-2.6l0-9.5c0-1.4,1.2-2.6,2.6-2.6l117.1,0.5c1.4,0,2.6,1.2,2.6,2.6
				l0,9.5C122.6,76.9,121.4,78.1,120,78.1z"/>
			<g>
				<path class="st1" d="M4.3,46c0-0.8,0.6-1.4,1.4-1.4S7,45.2,7,46s-0.6,1.4-1.4,1.4C4.9,47.3,4.3,46.7,4.3,46z"/>
				<path class="st1" d="M4.3,52.7c0-0.8,0.6-1.4,1.4-1.4S7,52,7,52.7c0,0.8-0.6,1.4-1.4,1.4C4.9,54.1,4.3,53.5,4.3,52.7z"/>
			</g>
			<g>
				<path class="st1" d="M4.2,66.8c0-0.8,0.6-1.4,1.4-1.4s1.4,0.6,1.4,1.4s-0.6,1.4-1.4,1.4S4.2,67.6,4.2,66.8z"/>
				<path class="st1" d="M4.2,73.6c0-0.8,0.6-1.4,1.4-1.4s1.4,0.6,1.4,1.4S6.3,75,5.5,75C4.8,75,4.2,74.4,4.2,73.6z"/>
			</g>
			<g>
				<path class="st1" d="M115.4,46.4c0-0.8,0.6-1.4,1.4-1.4s1.4,0.6,1.4,1.4s-0.6,1.4-1.4,1.3C116,47.8,115.4,47.2,115.4,46.4z"/>
				<path class="st1" d="M115.4,53.2c0-0.8,0.6-1.4,1.4-1.4s1.4,0.6,1.4,1.4s-0.6,1.4-1.4,1.3C116,54.5,115.4,53.9,115.4,53.2z"/>
			</g>
			<g>
				<path class="st1" d="M115.3,67.3c0-0.8,0.6-1.4,1.4-1.3c0.8,0,1.4,0.6,1.4,1.4s-0.6,1.4-1.4,1.4
					C115.9,68.7,115.3,68.1,115.3,67.3z"/>
				<path class="st1" d="M115.3,74.1c0-0.8,0.6-1.4,1.4-1.4s1.4,0.6,1.4,1.4s-0.6,1.4-1.4,1.4C115.9,75.4,115.3,74.8,115.3,74.1z"/>
			</g>
		</g>
	</g>
	<g>
		<g>
			<path class="st0" d="M1110.6,58.4l-0.2-34.2c0-0.4-0.3-0.7-0.7-0.7l-2.4,0c-0.4,0-0.7,0.3-0.7,0.7l0.2,34.2
				c0,0.4,0.3,0.7,0.7,0.7l2.4,0C1110.2,59.1,1110.6,58.8,1110.6,58.4z"/>
			<path class="st0" d="M1007.7,58.8l-0.2-34.2c0-0.4-0.3-0.7-0.7-0.7l-2.4,0c-0.4,0-0.7,0.3-0.7,0.7l0.2,34.2
				c0,0.4,0.3,0.7,0.7,0.7l2.4,0C1007.4,59.6,1007.7,59.2,1007.7,58.8z"/>
			<path class="st0" d="M1002.3,38.6l117.1-0.5c1.4,0,2.6-1.2,2.6-2.6l0-9.5c0-1.5-1.2-2.6-2.6-2.6l-117.1,0.5
				c-1.5,0-2.6,1.2-2.6,2.6l0,9.5C999.7,37.4,1000.9,38.6,1002.3,38.6z"/>
			<path class="st0" d="M1002.4,59.6l117.1-0.5c1.4,0,2.6-1.2,2.6-2.6l0-9.5c0-1.5-1.2-2.6-2.6-2.6l-117.1,0.5
				c-1.5,0-2.6,1.2-2.6,2.6l0,9.5C999.8,58.4,1001,59.6,1002.4,59.6z"/>
			<g>
				<path class="st1" d="M1118.1,27.5c0-0.8-0.6-1.4-1.4-1.4s-1.4,0.6-1.4,1.4s0.6,1.4,1.4,1.4C1117.5,28.8,1118.1,28.2,1118.1,27.5
					z"/>
				<path class="st2" d="M1118.1,34.2c0-0.8-0.6-1.4-1.4-1.4s-1.4,0.6-1.3,1.4c0,0.8,0.6,1.4,1.4,1.4S1118.1,35,1118.1,34.2z"/>
			</g>
			<g>
				<path class="st2" d="M1118.2,48.3c0-0.8-0.6-1.4-1.4-1.4s-1.4,0.6-1.4,1.4s0.6,1.4,1.4,1.4C1117.6,49.7,1118.2,49.1,1118.2,48.3
					z"/>
				<path class="st2" d="M1118.2,55.1c0-0.8-0.6-1.4-1.4-1.4s-1.4,0.6-1.3,1.4c0,0.8,0.6,1.4,1.4,1.4
					C1117.6,56.5,1118.2,55.9,1118.2,55.1z"/>
			</g>
			<g>
				<path class="st1" d="M1007,27.9c0-0.8-0.6-1.4-1.4-1.4s-1.4,0.6-1.4,1.4s0.6,1.4,1.4,1.4C1006.4,29.3,1007,28.7,1007,27.9z"/>
				<path class="st1" d="M1007,34.7c0-0.8-0.6-1.4-1.4-1.4s-1.4,0.6-1.4,1.4s0.6,1.4,1.4,1.3C1006.4,36,1007,35.4,1007,34.7z"/>
			</g>
			<g>
				<path class="st1" d="M1007.1,48.8c0-0.8-0.6-1.4-1.4-1.3c-0.8,0-1.4,0.6-1.4,1.4s0.6,1.4,1.4,1.4
					C1006.5,50.2,1007.1,49.6,1007.1,48.8z"/>
				<path class="st1" d="M1007.1,55.6c0-0.8-0.6-1.4-1.4-1.4s-1.4,0.6-1.4,1.4s0.6,1.4,1.4,1.4C1006.5,57,1007.1,56.3,1007.1,55.6z"
					/>
			</g>
		</g>
		<polygon class="st1" points="1140.3,74.3 1140.3,65.2 1116.9,47.6 1116.9,55.3 		"/>
		<polygon class="st1" points="1140.3,53.1 1140.3,44 1116.8,26.3 1116.8,34.1 		"/>
		<g>
			<path class="st28" d="M1085.6,46.8c0,0,9.8-4.5,13-10.9c1.9-3.8,1.4-6-0.2-7c-1-0.6-2.3-0.9-3.9-0.9c-0.3,0-0.6,0-0.9,0
				C1089,28.3,1086.1,45.8,1085.6,46.8z"/>
			<path class="st3" d="M1093.2,21.5c1.6-1,3,4.1,2.8,6.5c0,0,0.1,0,0.1,0c0.8-2.3,6.4-17.6,11.9-18.5c5.8-0.9-5.6,11.8-11.8,18.5
				c0,0,0,0,0,0c1.4-1.4,8.2-7.6,13.8-3.7c0,0,0.8,1.9-2.6,1.8c-3.3,0-7.1-0.2-10.9,1.9c0.8,0.1,1.5,0.4,2,0.7c0,0-2.9,0.5-3.9-0.9
				c0.4,0,0.8,0,1.2,0C1094.8,26.7,1091.7,22.4,1093.2,21.5z"/>
		</g>
		<g>
			<path class="st28" d="M1060.3,44.1c0,0-7.8-1.5-11.2-5.6c-2-2.4-2-4-1-5.1c0.6-0.6,1.5-1.1,2.7-1.3c0.2,0,0.4-0.1,0.7-0.1
				C1054.8,31.4,1059.8,43.5,1060.3,44.1z"/>
			<path class="st3" d="M1050.7,27.2c-1.3-0.4-1.4,3.5-0.9,5.1c0,0,0,0-0.1,0c-1-1.5-7.6-11.5-11.7-11.2c-4.3,0.3,6,7.5,11.6,11.3h0
				c-1.3-0.8-7.2-4.1-10.5-0.3c0,0-0.3,1.5,2.2,0.8c2.4-0.6,5.1-1.4,8.2-0.5c-0.5,0.2-1,0.5-1.3,0.9c0,0,2.2-0.1,2.7-1.3
				c-0.3,0.1-0.6,0.1-0.8,0.2C1050.4,31.2,1051.8,27.6,1050.7,27.2z"/>
		</g>
		<g>
			<path class="st28" d="M1074.9,42.4c0,0-12.7-3.9-17.7-11.3c-2.9-4.3-2.6-7-0.8-8.6c1.1-1,2.7-1.5,4.6-1.7c0.4,0,0.8-0.1,1.2-0.1
				C1067.9,20.4,1074.1,41.3,1074.9,42.4z"/>
			<path class="st3" d="M1061.7,12.7c-2.1-1-3,5.5-2.4,8.4c0,0-0.1,0-0.1,0c-1.4-2.7-10.6-20.5-17.4-20.7
				c-7.3-0.2,8.7,13.5,17.3,20.8c0,0,0,0,0,0c-1.9-1.5-11.2-8.1-17.4-2.3c0,0-0.7,2.4,3.5,1.8c4-0.6,8.7-1.4,13.7,0.6
				c-0.9,0.3-1.7,0.7-2.3,1.2c0,0,3.7,0.2,4.6-1.7c-0.5,0.1-0.9,0.1-1.4,0.2C1060.6,19.3,1063.6,13.5,1061.7,12.7z"/>
		</g>
		<g>
			<path class="st28" d="M1073.3,72.2c0,0,13-4,18-11.5c2.9-4.4,2.7-7.2,0.8-8.8c-1.1-1-2.8-1.5-4.7-1.7c-0.4,0-0.8-0.1-1.2-0.1
				C1080.5,49.8,1074.1,71.1,1073.3,72.2z"/>
			<path class="st3" d="M1086.8,41.9c2.1-1,3.1,5.6,2.5,8.5c0,0,0.1,0,0.1,0c1.4-2.7,10.8-20.9,17.8-21.1
				c7.4-0.2-8.9,13.8-17.6,21.2c0,0,0,0,0,0c2-1.5,11.4-8.2,17.7-2.3c0,0,0.8,2.4-3.5,1.8c-4.1-0.6-8.8-1.4-13.9,0.6
				c0.9,0.3,1.8,0.7,2.4,1.3c0,0-3.8,0.2-4.7-1.7c0.5,0.1,1,0.1,1.4,0.2C1087.9,48.6,1084.9,42.8,1086.8,41.9z"/>
		</g>
		<g>
			<g>
				<path class="st29" d="M1079.3,46.3c-4.7,0-8.5-3.8-8.5-8.5s3.8-8.5,8.5-8.5c4.7,0,8.5,3.8,8.5,8.5S1084,46.3,1079.3,46.3z"/>
				<path class="st12" d="M1079.3,29.5c4.6,0,8.3,3.7,8.3,8.3s-3.7,8.3-8.3,8.3s-8.3-3.7-8.3-8.3C1071,33.2,1074.7,29.5,1079.3,29.5
					 M1079.3,29c-4.8,0-8.8,3.9-8.8,8.8s3.9,8.8,8.8,8.8s8.8-3.9,8.8-8.8S1084.1,29,1079.3,29L1079.3,29z"/>
			</g>
			<g>
				<path class="st30" d="M1081.5,31.2c-0.2,0-0.4-0.1-0.5-0.3c-0.1,0-0.1,0-0.2,0c-0.1,0-0.3,0-0.3-0.1c-0.6-0.4-1.2-0.8-1.9-1.3
					c-0.5-0.4-1.2-1-1.7-1.5l-0.7-0.8l0.9,0.4c0.8,0.3,1.5,0.7,2.1,1c0.2,0.1,0.3,0.2,0.5,0.3c-0.1-0.5-0.2-1-0.2-1.5l-0.1-0.9
					l0.5,0.8c0.2,0.3,0.3,0.5,0.5,0.9c0-0.4,0.1-0.8,0.2-1.3l0.2-0.9l0.3,0.9c0.2,0.6,0.3,1.2,0.4,1.7c0,0,0,0.1,0,0.2
					c0.2-0.2,0.3-0.3,0.5-0.5c0.5-0.5,1.1-1.1,1.7-1.6l0.8-0.6l-0.4,0.9c-0.3,0.7-0.8,1.4-1.2,2c-0.1,0.1-0.1,0.2-0.2,0.3
					c0.8-0.4,1.8-0.9,2.8-1.3l1.4-0.5l-1.1,1c-0.5,0.4-1.1,0.9-1.8,1.3c0.1,0,0.1,0,0.2,0c0.9-0.1,1.7-0.1,2.4-0.1
					c0.2,0,0.3,0,0.5,0l1.5,0l-1.4,0.5c-0.8,0.3-1.7,0.5-2.8,0.7c-1,0.2-1.9,0.4-2.9,0.5L1081.5,31.2z"/>
				<path class="st12" d="M1084,26.9c-0.3,0.7-0.7,1.3-1.2,1.9c-0.3,0.4-0.6,0.8-0.9,1.2c1.2-0.7,2.5-1.3,3.8-1.8
					c-0.8,0.7-1.7,1.3-2.6,1.9c0.4,0,0.8-0.1,1.2-0.1c0.8-0.1,1.6-0.1,2.4-0.1c0.2,0,0.3,0,0.5,0c-0.9,0.3-1.9,0.5-2.8,0.7
					c-0.9,0.2-1.9,0.4-2.9,0.5h0c0,0,0,0-0.1,0c-0.2,0-0.3-0.1-0.4-0.3c0,0,0,0,0,0c0,0-0.1,0-0.1,0c0,0,0,0,0,0c-0.1,0-0.1,0-0.1,0
					c-0.1,0-0.2,0-0.2-0.1l0,0c-0.6-0.4-1.3-0.9-1.8-1.3c-0.6-0.5-1.2-1-1.7-1.5c0.8,0.3,1.4,0.6,2.1,1c0.3,0.2,0.7,0.4,1,0.6
					c-0.2-0.7-0.3-1.3-0.3-2c0.4,0.5,0.6,1.1,0.9,1.6c0-0.1,0-0.3,0-0.4c0.1-0.6,0.1-1.1,0.3-1.7c0.2,0.6,0.3,1.1,0.3,1.7
					c0,0.2,0.1,0.5,0.1,0.7c0.3-0.3,0.5-0.6,0.8-0.9C1082.8,27.9,1083.3,27.4,1084,26.9 M1081,25.1l-0.4,1.8
					c-0.1,0.2-0.1,0.4-0.1,0.6c-0.1-0.1-0.1-0.2-0.2-0.2l-1-1.5l0.1,1.9c0,0.3,0.1,0.6,0.1,1l0,0c-0.6-0.4-1.4-0.8-2.2-1l-1.9-0.7
					l1.3,1.5c0.5,0.6,1.2,1.1,1.7,1.6c0.7,0.5,1.3,1,1.9,1.3c0.2,0.1,0.3,0.1,0.5,0.1c0,0,0,0,0.1,0c0.2,0.1,0.4,0.2,0.6,0.2
					c0,0,0.1,0,0.1,0c0.9-0.1,1.9-0.3,2.9-0.5c1.2-0.2,2.1-0.5,2.9-0.7l2.8-0.9l-3-0.1c-0.2,0-0.3,0-0.5,0c-0.5,0-1.1,0-1.7,0.1
					c0.4-0.3,0.7-0.5,1-0.8l2.3-1.9l-2.8,1c-0.6,0.2-1.3,0.5-2,0.9c0.3-0.5,0.6-0.9,0.8-1.5l0.9-1.9l-1.6,1.3
					c-0.7,0.5-1.2,1.1-1.8,1.6c0,0-0.1,0.1-0.1,0.1c-0.1-0.4-0.2-0.9-0.3-1.4L1081,25.1L1081,25.1z"/>
			</g>
		</g>
		<g>
			<g>
				<path class="st11" d="M1067.9,50.9c-4,0-8.4-3.1-10-7.1c-0.9-2.4-1.1-5.1-0.5-7.6c0.7-2.7,2.3-4.6,4.5-5.5
					c0.9-0.3,1.8-0.5,2.8-0.5c4.2,0,8.7,3,10.2,6.8c1.8,4.6,0.3,11.5-4.5,13.4C1069.7,50.7,1068.8,50.9,1067.9,50.9L1067.9,50.9z"/>
				<path class="st12" d="M1064.8,30.4c4.1,0,8.5,2.9,10,6.6c1.8,4.6,0.2,11.2-4.4,13.1c-0.8,0.3-1.7,0.5-2.6,0.5
					c-4,0-8.2-3.2-9.7-7c-1.8-4.6-0.7-10.9,3.9-12.7C1062.9,30.6,1063.9,30.4,1064.8,30.4 M1064.8,29.9c-1,0-2,0.2-2.9,0.5
					c-4.9,1.9-6.1,8.5-4.2,13.4c1.6,4.1,6.1,7.3,10.2,7.3c1,0,1.9-0.2,2.7-0.5c4.9-1.9,6.5-9,4.7-13.7
					C1073.7,33,1069.2,29.9,1064.8,29.9L1064.8,29.9z"/>
			</g>
			<g>
				<path class="st30" d="M1062.7,32.4c-0.1,0-0.1,0-0.2,0c-0.9-0.2-1.8-0.4-2.8-0.8c-0.9-0.3-1.8-0.6-2.7-1.1l-0.9-0.5l1,0
					c1.1,0,2.1,0.2,2.9,0.3c0.3,0,0.6,0.1,0.8,0.2c-0.4-0.6-0.7-1.2-1-1.8l-0.4-0.9l0.8,0.5c0.4,0.3,0.8,0.6,1.1,0.9
					c-0.1-0.5-0.3-1.1-0.3-1.8l-0.1-0.9l0.6,0.7c0.5,0.6,0.8,1.3,1.2,1.9c0.1,0.1,0.1,0.2,0.2,0.3c0.1-0.3,0.3-0.6,0.4-0.9
					c0.4-0.9,0.8-1.7,1.4-2.6l0.6-0.9l-0.1,1c-0.1,1-0.3,1.9-0.5,2.8c-0.1,0.2-0.1,0.5-0.2,0.7c1.1-1.2,2-2.1,3-3l1.1-1l-0.7,1.3
					c-0.5,0.8-1,1.6-1.7,2.5c0.1-0.1,0.3-0.1,0.4-0.2c1.3-0.6,2.4-1,3.4-1.4l1.4-0.5l-1.2,0.9c-0.8,0.7-1.8,1.3-3.1,2.1
					c-1.1,0.6-2.1,1.3-3.2,1.8c-0.1,0.1-0.3,0.1-0.4,0.1c-0.2,0-0.3,0-0.4-0.1C1062.9,32.3,1062.8,32.4,1062.7,32.4z"/>
				<path class="st12" d="M1064.9,26.2c-0.1,0.9-0.3,1.9-0.5,2.8c-0.2,0.6-0.4,1.2-0.6,1.8c1.2-1.3,2.4-2.6,3.8-3.8
					c-0.7,1.2-1.4,2.3-2.3,3.3c0.4-0.2,0.9-0.5,1.3-0.7c1.1-0.5,2.2-1,3.4-1.4c-1,0.8-2,1.4-3,2s-2.1,1.2-3.2,1.8l0,0
					c-0.1,0-0.2,0.1-0.3,0.1c-0.2,0-0.3-0.1-0.4-0.2c0,0-0.1,0-0.1,0c0,0,0,0,0,0c-0.1,0.1-0.2,0.1-0.3,0.1c0,0-0.1,0-0.1,0l0,0
					c-0.9-0.2-1.8-0.5-2.7-0.8c-0.9-0.3-1.8-0.6-2.6-1.1c1,0,2,0.1,2.9,0.3c0.5,0.1,1,0.2,1.4,0.3c-0.5-0.7-0.9-1.4-1.3-2.2
					c0.7,0.5,1.2,1,1.8,1.5c-0.1-0.2-0.1-0.3-0.2-0.5c-0.2-0.7-0.4-1.4-0.4-2.1c0.4,0.6,0.8,1.2,1.1,1.8c0.1,0.3,0.3,0.5,0.4,0.8
					c0.2-0.5,0.4-1,0.6-1.4C1063.9,27.9,1064.3,27,1064.9,26.2 M1065.6,24.1l-1.1,1.7c-0.6,0.9-1,1.8-1.4,2.6
					c-0.1,0.1-0.1,0.3-0.2,0.4c-0.3-0.5-0.7-1.1-1.1-1.7l-1.1-1.5l0.2,1.8c0,0.4,0.1,0.7,0.2,1.1c-0.2-0.1-0.4-0.3-0.6-0.4l-1.5-1.1
					l0.8,1.7c0.2,0.4,0.4,0.9,0.7,1.3c-0.1,0-0.2,0-0.3,0c-0.9-0.1-1.9-0.3-3-0.3l-2,0l1.8,1c0.9,0.5,1.9,0.8,2.7,1.1
					c1.1,0.3,1.9,0.6,2.8,0.8c0.1,0,0.2,0,0.2,0c0.2,0,0.3,0,0.5-0.1c0.1,0.1,0.3,0.1,0.4,0.1c0.2,0,0.3,0,0.5-0.1
					c1.1-0.6,2.2-1.2,3.2-1.8c1.3-0.8,2.2-1.4,3.1-2.1l2.3-1.8l-2.8,0.9c-0.9,0.3-1.9,0.7-3,1.2c0.4-0.6,0.8-1.2,1.1-1.8l1.5-2.5
					l-2.2,1.9c-0.8,0.6-1.5,1.4-2.3,2.2c0.2-0.8,0.4-1.6,0.5-2.5L1065.6,24.1L1065.6,24.1z"/>
			</g>
		</g>
		<g>
			<path class="st31" d="M1041.6,45.1l0.7-2.7c0.7-2.5,3.1-4.2,5.7-3.8l0,0c2.6,0.3,4.6,2.5,4.6,5.1l0.1,2.6c0,1.6,0.5,3.1,1.4,4.4
				c1.5,2.4,2.1,5.4,1.1,8.5c-1.2,3.7-4.6,6.3-8.5,6.6c-6.3,0.4-11.2-4.9-10.4-10.9c0.3-2.5,1.5-4.6,3.3-6.2
				C1040.5,47.7,1041.2,46.4,1041.6,45.1z"/>
			<path class="st32" d="M1050.1,34.1c0,0-2.2,2.9-1.8,4.7c0,0,0.4-2.4,1.8-3.8C1049.9,35,1050.3,34.4,1050.1,34.1z"/>
		</g>
		<g>
			<g>
				<path class="st29" d="M1059.8,66.4c-4.7,0-8.5-3.8-8.5-8.5s3.8-8.5,8.5-8.5c4.7,0,8.5,3.8,8.5,8.5S1064.5,66.4,1059.8,66.4z"/>
				<path class="st12" d="M1059.8,49.6c4.6,0,8.3,3.7,8.3,8.3s-3.7,8.3-8.3,8.3s-8.3-3.7-8.3-8.3S1055.3,49.6,1059.8,49.6
					 M1059.8,49.1c-4.8,0-8.8,3.9-8.8,8.8s3.9,8.8,8.8,8.8s8.8-3.9,8.8-8.8S1064.7,49.1,1059.8,49.1L1059.8,49.1z"/>
			</g>
			<g>
				<path class="st30" d="M1062.1,51.3c-0.2,0-0.4-0.1-0.5-0.3c-0.1,0-0.1,0-0.2,0c-0.1,0-0.3,0-0.3-0.1c-0.6-0.4-1.2-0.8-1.9-1.3
					c-0.5-0.4-1.2-1-1.7-1.5l-0.7-0.8l0.9,0.3c0.8,0.3,1.5,0.7,2.1,1c0.2,0.1,0.3,0.2,0.5,0.3c-0.1-0.5-0.2-1-0.2-1.5l-0.1-0.9
					l0.5,0.8c0.2,0.3,0.3,0.5,0.5,0.8c0-0.4,0.1-0.8,0.2-1.3l0.2-0.9l0.3,0.9c0.2,0.6,0.3,1.2,0.4,1.7c0,0,0,0.1,0,0.2
					c0.2-0.2,0.3-0.3,0.5-0.5c0.5-0.5,1.1-1.1,1.7-1.6l0.8-0.6l-0.4,0.9c-0.3,0.7-0.8,1.4-1.2,2c-0.1,0.1-0.1,0.2-0.2,0.3
					c0.8-0.4,1.8-0.9,2.8-1.3l1.4-0.5l-1.1,1c-0.5,0.4-1.1,0.9-1.8,1.3c0.1,0,0.1,0,0.2,0c0.9-0.1,1.7-0.1,2.4-0.1
					c0.2,0,0.3,0,0.5,0l1.5,0l-1.4,0.5c-0.8,0.3-1.7,0.5-2.8,0.7c-1,0.2-1.9,0.3-2.9,0.5L1062.1,51.3z"/>
				<path class="st12" d="M1064.5,47c-0.3,0.7-0.7,1.3-1.2,1.9c-0.3,0.4-0.6,0.8-0.9,1.2c1.2-0.7,2.5-1.3,3.8-1.8
					c-0.8,0.7-1.7,1.3-2.6,1.9c0.4,0,0.8-0.1,1.2-0.1c0.8-0.1,1.6-0.1,2.4-0.1c0.2,0,0.3,0,0.5,0c-0.9,0.3-1.9,0.5-2.8,0.7
					c-0.9,0.2-1.9,0.3-2.9,0.5h0c0,0,0,0-0.1,0c-0.2,0-0.3-0.1-0.4-0.3c0,0,0,0,0,0c0,0-0.1,0-0.1,0c0,0,0,0,0,0c-0.1,0-0.1,0-0.1,0
					c-0.1,0-0.2,0-0.2-0.1l0,0c-0.6-0.4-1.3-0.8-1.8-1.3c-0.6-0.5-1.2-1-1.7-1.5c0.8,0.3,1.4,0.6,2.1,1c0.3,0.2,0.7,0.4,1,0.6
					c-0.2-0.7-0.3-1.3-0.3-2c0.4,0.5,0.6,1.1,0.9,1.6c0-0.1,0-0.3,0-0.4c0.1-0.6,0.1-1.1,0.3-1.7c0.2,0.6,0.3,1.1,0.3,1.7
					c0,0.2,0.1,0.5,0.1,0.7c0.3-0.3,0.5-0.6,0.8-0.9C1063.4,48,1063.9,47.5,1064.5,47 M1061.5,45.2l-0.4,1.8
					c-0.1,0.2-0.1,0.4-0.1,0.6c-0.1-0.1-0.1-0.2-0.2-0.2l-1-1.5l0.1,1.9c0,0.3,0.1,0.6,0.1,1l0,0c-0.6-0.4-1.4-0.8-2.2-1l-1.9-0.7
					l1.3,1.5c0.5,0.6,1.2,1.1,1.7,1.6c0.7,0.5,1.3,1,1.9,1.3c0.2,0.1,0.3,0.2,0.5,0.2c0,0,0,0,0.1,0c0.2,0.1,0.4,0.2,0.6,0.2
					c0,0,0.1,0,0.1,0c0.9-0.1,1.9-0.3,2.9-0.5c1.2-0.2,2.1-0.5,2.9-0.7l2.8-0.9l-3-0.1c-0.2,0-0.3,0-0.5,0c-0.5,0-1.1,0-1.7,0.1
					c0.4-0.3,0.7-0.5,1-0.8l2.3-1.9l-2.8,1c-0.6,0.2-1.3,0.5-2,0.9c0.3-0.5,0.6-0.9,0.8-1.5l0.9-1.9l-1.6,1.3
					c-0.7,0.5-1.2,1.1-1.8,1.6c0,0-0.1,0.1-0.1,0.1c-0.1-0.4-0.2-0.9-0.3-1.4L1061.5,45.2L1061.5,45.2z"/>
			</g>
		</g>
		<path class="st3" d="M1063.1,55.7c0,0,3.6-0.5,6.6,3.2c-0.2-1.5-0.2-3.1,0.4-5c0,0,2.8,1.2,3.7,5c1.6-1.4,3.9-2.6,7.1-2.7
			c0,0-0.5,4.8-6.8,6.5c-0.1,0.9-0.2,1.8-0.5,2.9c0,0.1-0.9-0.6-1.8-1.8C1070.4,63.6,1064.7,62.1,1063.1,55.7z"/>
		<path class="st3" d="M1042.6,62.3c-0.6-0.5-7.9-15.1-19.7-14.7c-11.8,0.4-10.1,11.8-7,14.1C1019.1,64,1042.6,62.3,1042.6,62.3z"/>
		<g>
			<path class="st33" d="M1012.4,29.2c-2.8,7,7.2,17.6,14.2,20.4c7,2.8,20-9.5,22.8-16.5c1.3-3.4-4.3-3.5-1.8-4.1
				c0.3-0.1,0-3.8-3.1-4.5c-4.9-1-3.7,1.8-5.4,1.3c-0.9-0.3-0.9-2.7-3.6-2.7c-4.9,0-1.8,1.3-7.2,1.3c-1.7,0-1.3-2.2-4.7-1.6
				c-5.5,1-2.2,3.5-3.4,3.9c-1.3,0.4-0.5-2.7-3.9-1.7C1014.4,25.6,1013.1,27.5,1012.4,29.2z"/>
			<path class="st34" d="M1046.7,45.6c0,0,5.7-12.4,2.7-15.3c-2-1.9-7.4,0.7-5.4,2.7c2.1,2,0.2,10.3-1.8,11.2
				c-6.4,2.9-6.7-8.2-3.7-9.1c2.4-0.7-0.2-4.9-4.4-5.3c-2.9-0.2-2.9,1.8-1.8,3.1c1.5,1.8,0.6,3.4-0.4,4.9c-2.7,4-8.8-0.6-5.8-3.6
				c0.4-0.5-0.5-3.3-2.3-3.4c-2.4-0.3-3.9,1.6-3,2.5c0.9,0.9,1.4,10.6,0,10.3c-2.2-0.5-8.7-9.3-4.5-10.7c1.3-0.5-1-4.7-2.7-4
				c-4.8,1.9-3.8,11.1,5.3,17.5S1034.2,56.3,1046.7,45.6z"/>
			<path class="st10" d="M1029.2,47.4c0,0,18-8.6,22-7.9s-0.5,13.9-10.2,17.9c-9.7,4.1-18.4,2.3-25.8-4.9s-12.4-12.5-8.1-14
				C1013.1,36.6,1029.2,47.4,1029.2,47.4z"/>
		</g>
		<g>
			<path class="st33" d="M1089.6,46.2c0.7,7.5,14.4,12.4,21.9,11.8c7.5-0.7,13.6-17.5,12.9-25c-0.3-3.6-5.4-1.1-3.5-2.9
				c0.3-0.2-1.8-3.4-4.8-2.6c-4.8,1.3-2.4,3.3-4.2,3.6c-0.9,0.2-2-2-4.4-0.8c-4.4,2.2-1,2-5.8,4.4c-1.5,0.8-2.2-1.4-4.9,0.7
				c-4.4,3.3-0.3,4.2-1.3,5c-1,0.9-1.6-2.2-4.3,0.3C1089.7,42.2,1089.4,44.3,1089.6,46.2z"/>
			<path class="st34" d="M1127.6,45.4c0,0-0.5-13.7-4.4-14.9c-2.7-0.8-6.3,4-3.6,4.8c2.8,0.8,4.8,9.2,3.4,10.8
				c-4.4,5.5-9.7-4.3-7.4-6.4c1.9-1.7-2.4-4.3-6.3-2.7c-2.7,1.1-1.8,2.9-0.2,3.6c2.1,0.9,2,2.8,1.8,4.6c-0.6,4.8-8.1,3.5-6.8-0.6
				c0.2-0.6-1.9-2.7-3.6-2c-2.3,0.9-2.8,3.3-1.6,3.6c1.2,0.4,6.1,8.8,4.7,9.2c-2.2,0.6-12-4.4-8.8-7.6c1-1-3-3.8-4.2-2.4
				c-3.5,3.8,1.6,11.7,12.7,13.3C1114.3,60.3,1121.2,60.6,1127.6,45.4z"/>
			<path class="st10" d="M1112.7,54.9c0,0,12.2-15.8,16.1-17c3.9-1.2,5.8,12.6-1,20.6s-15.4,10.3-25.2,7.3
				c-9.8-3.1-16.7-5.5-13.6-8.8C1093.5,52.5,1112.7,54.9,1112.7,54.9z"/>
		</g>
		
			<linearGradient id="SVGID_15_" gradientUnits="userSpaceOnUse" x1="1593.3374" y1="18.755" x2="1616.7673" y2="18.755" gradientTransform="matrix(-1 0 0 -1 2621.5774 80)">
			<stop  offset="3.724194e-03" style="stop-color:#FEC251"/>
			<stop  offset="0.9926" style="stop-color:#FECE74"/>
		</linearGradient>
		<polygon class="st35" points="1028.2,74.6 1028.2,65.5 1004.8,47.8 1004.8,55.6 		"/>
		
			<linearGradient id="SVGID_16_" gradientUnits="userSpaceOnUse" x1="1593.3973" y1="39.995" x2="1616.8274" y2="39.995" gradientTransform="matrix(-1 0 0 -1 2621.5774 80)">
			<stop  offset="3.724194e-03" style="stop-color:#FEC251"/>
			<stop  offset="0.9926" style="stop-color:#FECE74"/>
		</linearGradient>
		<polygon class="st36" points="1028.2,53.4 1028.2,44.3 1004.8,26.6 1004.8,34.4 		"/>
		<g>
			<path class="st27" d="M1132.7,75.8l-0.2-34.2c0-0.4-0.3-0.7-0.7-0.7l-2.4,0c-0.4,0-0.7,0.3-0.7,0.7l0.2,34.2
				c0,0.4,0.3,0.7,0.7,0.7l2.4,0C1132.4,76.5,1132.7,76.2,1132.7,75.8z"/>
			<path class="st27" d="M1029.9,76.3l-0.2-34.2c0-0.4-0.3-0.7-0.7-0.7l-2.4,0c-0.4,0-0.7,0.3-0.7,0.7l0.2,34.2
				c0,0.4,0.3,0.7,0.7,0.7l2.4,0C1029.6,77,1029.9,76.7,1029.9,76.3z"/>
			<path class="st27" d="M1024.5,56l117.1-0.5c1.4,0,2.6-1.2,2.6-2.6l0-9.5c0-1.5-1.2-2.6-2.6-2.6l-117.1,0.5
				c-1.5,0-2.6,1.2-2.6,2.6l0,9.5C1021.9,54.9,1023,56,1024.5,56z"/>
			<path class="st27" d="M1024.6,77l117.1-0.5c1.4,0,2.6-1.2,2.6-2.6l0-9.5c0-1.5-1.2-2.6-2.6-2.6l-117.1,0.5
				c-1.5,0-2.6,1.2-2.6,2.6l0,9.5C1022,75.8,1023.1,77,1024.6,77z"/>
			<g>
				<path class="st1" d="M1140.3,44.9c0-0.8-0.6-1.4-1.4-1.4s-1.4,0.6-1.4,1.4s0.6,1.4,1.4,1.4C1139.7,46.2,1140.3,45.6,1140.3,44.9
					z"/>
				<path class="st1" d="M1140.3,51.6c0-0.8-0.6-1.4-1.4-1.4s-1.4,0.6-1.3,1.4c0,0.8,0.6,1.4,1.4,1.4
					C1139.7,53,1140.3,52.4,1140.3,51.6z"/>
			</g>
			<g>
				<path class="st1" d="M1140.4,65.8c0-0.8-0.6-1.4-1.4-1.4s-1.4,0.6-1.4,1.4s0.6,1.4,1.4,1.4C1139.8,67.1,1140.4,66.5,1140.4,65.8
					z"/>
				<path class="st1" d="M1140.4,72.5c0-0.8-0.6-1.4-1.4-1.4s-1.4,0.6-1.3,1.4c0,0.8,0.6,1.4,1.4,1.4
					C1139.8,73.9,1140.4,73.3,1140.4,72.5z"/>
			</g>
			<g>
				<path class="st1" d="M1029.2,45.3c0-0.8-0.6-1.4-1.4-1.4s-1.4,0.6-1.4,1.4s0.6,1.4,1.4,1.3C1028.6,46.7,1029.2,46.1,1029.2,45.3
					z"/>
				<path class="st1" d="M1029.2,52.1c0-0.8-0.6-1.4-1.4-1.4s-1.4,0.6-1.4,1.4s0.6,1.4,1.4,1.3C1028.6,53.5,1029.2,52.8,1029.2,52.1
					z"/>
			</g>
			<g>
				<path class="st1" d="M1029.3,66.3c0-0.8-0.6-1.4-1.4-1.3c-0.8,0-1.4,0.6-1.4,1.4s0.6,1.4,1.4,1.4
					C1028.7,67.6,1029.3,67,1029.3,66.3z"/>
				<path class="st1" d="M1029.3,73c0-0.8-0.6-1.4-1.4-1.4s-1.4,0.6-1.4,1.4s0.6,1.4,1.4,1.4C1028.7,74.4,1029.3,73.8,1029.3,73z"/>
			</g>
		</g>
	</g>
</g>
<image style="overflow:visible;enable-background:new    ;" width="116" height="116" xlink:href="AA8EB038.jpg"  transform="matrix(0.2328 0 0 0.2328 42 46.6809)">
</image>
<g>
	<path class="st1" d="M54.9,48.6c0-0.4,0.4-0.8,0.8-0.8s0.8,0.4,0.8,0.8s-0.4,0.8-0.8,0.8S54.9,49.1,54.9,48.6z"/>
	<g class="st37">
		<rect x="41.8" y="46.5" class="st13" width="28" height="28"/>
	</g>
</g>
<image style="overflow:visible;enable-background:new    ;" width="116" height="116" xlink:href="AA8EB039.jpg"  transform="matrix(0.2328 0 0 0.2328 1073 44.6809)">
</image>
<g>
	<path class="st1" d="M1085.8,46.8c0-0.4,0.4-0.8,0.8-0.8c0.4,0,0.8,0.4,0.8,0.8s-0.4,0.8-0.8,0.8
		C1086.2,47.6,1085.8,47.2,1085.8,46.8z"/>
	<g class="st37">
		<rect x="1072.7" y="44.7" class="st13" width="28" height="28"/>
	</g>
</g>
</svg>
