<svg width="68" height="20" viewBox="0 0 68 20" fill="none" xmlns="http://www.w3.org/2000/svg">
<path d="M2.56997 5.84967C2.06061 6.05776 1.6207 6.35834 1.2271 6.7514C0.833505 7.14446 0.532517 7.58377 0.324141 8.09243C0.115765 8.6011 0 9.15601 0 9.73405C0 10.3121 0.115765 10.867 0.324141 11.3757C0.532517 11.8843 0.856658 12.3236 1.2271 12.7167C1.6207 13.0866 2.06061 13.3872 2.56997 13.5953C3.07934 13.8034 3.63501 13.919 4.19068 13.919H7.03848C7.29316 13.919 7.52469 13.9652 7.73307 14.0577C7.9646 14.1502 8.14982 14.2889 8.31189 14.4508C8.47396 14.6358 8.61288 14.8207 8.70549 15.0519C8.7981 15.2832 8.84441 15.5144 8.84441 15.7456C8.84441 15.9999 8.7981 16.2311 8.70549 16.4392C8.61288 16.6704 8.47396 16.8554 8.31189 17.0173C8.14982 17.1791 7.9646 17.3178 7.73307 17.4103C7.50154 17.5028 7.27001 17.549 7.03848 17.549H1.1808C0.532517 17.549 0 18.0808 0 18.7282C0 19.3756 0.532517 19.9074 1.1808 19.9074H7.03848C7.59415 19.9074 8.14982 19.7918 8.65919 19.5837C9.16855 19.3756 9.60846 19.075 10.0021 18.682C10.3957 18.2889 10.6966 17.8496 10.905 17.341C11.1134 16.8323 11.2292 16.2774 11.2292 15.7225C11.2292 15.1444 11.1134 14.5895 10.905 14.0808C10.6966 13.5722 10.3957 13.1329 10.0021 12.7398C9.60846 12.3468 9.16855 12.0462 8.65919 11.8381C8.14982 11.63 7.59415 11.5144 7.03848 11.5144H4.19068C3.93599 11.5144 3.70446 11.4681 3.49609 11.3757C3.26456 11.2832 3.07934 11.1444 2.91727 10.9826C2.7552 10.8207 2.61628 10.6358 2.52367 10.4046C2.43105 10.1734 2.38475 9.94214 2.38475 9.71092C2.38475 9.45659 2.43105 9.22538 2.52367 9.01729C2.61628 8.78607 2.7552 8.6011 2.91727 8.41613C3.07934 8.25428 3.26456 8.11556 3.49609 8.02307C3.72762 7.93059 3.95915 7.88434 4.19068 7.88434H10.0484C10.6966 7.88434 11.2292 7.35255 11.2292 6.70516C11.2292 6.05776 10.6966 5.52597 10.0484 5.52597H4.19068C3.63501 5.52597 3.07934 5.64158 2.56997 5.84967Z" fill="#584446"/>
<path d="M65.6152 19.9538H66.3793C67.2591 19.9538 67.9768 19.237 67.9768 18.3584V13.3873V13.3642C68 13.1792 68 12.9711 68 12.7862C68 11.7919 67.8148 10.844 67.4212 9.96536C67.0507 9.08675 66.5182 8.32375 65.8699 7.67635C65.2216 7.02896 64.4344 6.49717 63.5778 6.12723C62.698 5.75729 61.7487 5.54919 60.7531 5.54919C59.7575 5.54919 58.8083 5.73416 57.9516 6.12723C57.095 6.49717 56.3309 7.02896 55.6595 7.67635C55.0112 8.32375 54.4787 9.10987 54.1082 9.96536C53.7378 10.844 53.5294 11.7919 53.5294 12.7862C53.5294 13.7804 53.7146 14.7283 54.1082 15.5838C54.4787 16.4393 55.0112 17.2023 55.6595 17.8728C56.3078 18.5202 57.0718 19.052 57.9516 19.422C58.8314 19.7919 59.7575 20 60.7531 20H65.6152V19.9538ZM60.7763 17.5491C60.128 17.5491 59.5029 17.4335 58.924 17.1792C58.3452 16.9249 57.8127 16.5781 57.396 16.1387C56.956 15.6994 56.6088 15.1908 56.3541 14.6127C56.0994 14.0347 55.9836 13.4104 55.9836 12.763C55.9836 12.1156 56.1225 11.4682 56.3541 10.8902C56.6088 10.2891 56.956 9.78039 57.396 9.34109C57.8359 8.90178 58.3452 8.55496 58.924 8.30063C59.5029 8.04629 60.128 7.93069 60.7763 7.93069C61.4246 7.93069 62.0728 8.06942 62.6517 8.30063C63.2536 8.55496 63.763 8.90178 64.2029 9.34109C64.6428 9.78039 64.9901 10.2891 65.2448 10.8902C65.4995 11.4682 65.6152 12.1156 65.6152 12.763C65.6152 13.4104 65.4995 14.0347 65.2448 14.6127C64.9901 15.1908 64.6428 15.7226 64.2029 16.1387C63.763 16.5781 63.2536 16.9249 62.6517 17.1792C62.0728 17.4335 61.4477 17.5491 60.7763 17.5491Z" fill="#584446"/>
<path d="M19.9113 5.50281C15.9753 5.50281 12.757 8.73979 12.595 12.786V18.7744C12.595 19.4218 13.1275 19.9536 13.7758 19.9536H13.9378C14.5861 19.9536 15.1186 19.4218 15.1186 18.7744V13.0866C15.1186 10.312 17.2719 8.04615 19.8881 8.04615C20.7216 8.04615 21.7635 8.39297 22.6202 8.90164C23.1758 9.22534 23.8936 9.04037 24.2177 8.50858L24.2872 8.41609C24.6345 7.8843 24.4724 7.16754 23.9399 6.7976C22.7822 5.94211 21.3699 5.50281 19.9113 5.50281Z" fill="#584446"/>
<path d="M34.4514 11.0289C34.2893 11.1907 34.1041 11.3295 33.8726 11.422C33.641 11.5144 33.4095 11.5607 33.178 11.5607H29.1725C28.5242 11.5607 27.9917 12.0925 27.9917 12.7399C27.9917 13.3873 28.5242 13.9191 29.1725 13.9191H33.178C33.7336 13.9191 34.2893 13.8035 34.7987 13.5954C35.308 13.3873 35.7479 13.0867 36.1415 12.6936C36.5351 12.3006 36.8361 11.8613 37.0445 11.3526C37.2529 10.8439 37.3686 10.289 37.3686 9.7341C37.3686 9.15607 37.2529 8.60116 37.0445 8.09249C36.8361 7.58382 36.5351 7.14452 36.1415 6.75146C35.7479 6.3584 35.308 6.08094 34.7987 5.84973C33.5716 5.29482 30.7238 5.01736 28.3622 6.08094C27.5055 6.45088 26.7646 6.98267 26.1163 7.63007C25.4681 8.27746 24.9818 9.06359 24.6114 9.91908C24.2409 10.7977 24.0557 11.7457 24.0557 12.7399C24.0557 13.7341 24.2409 14.6821 24.6114 15.5607C24.9818 16.4393 25.4912 17.2023 26.1163 17.8497C26.7646 18.4971 27.5055 19.0289 28.3622 19.3988C29.2188 19.7687 30.1449 19.9768 31.1174 19.9768H35.4238C36.0721 19.9768 36.6046 19.445 36.6046 18.7977V18.7745C36.6046 18.1271 36.0721 17.5953 35.4238 17.5953H31.0711C30.4228 17.5953 29.8208 17.4797 29.2651 17.2254C28.6863 16.9711 28.2001 16.6242 27.7833 16.1849C27.3666 15.7456 27.0193 15.237 26.7878 14.6358C26.5331 14.0578 26.4173 13.4104 26.4173 12.763C26.4173 12.1156 26.5331 11.4682 26.7878 10.8902C27.0424 10.289 27.3666 9.78035 27.7833 9.34104C28.2001 8.90174 28.7095 8.55492 29.2651 8.30058C30.8858 7.60695 33.1085 7.69943 33.8494 8.04625C34.0578 8.16186 34.2662 8.27746 34.4282 8.43931C34.5903 8.62428 34.7292 8.80925 34.8218 9.04047C34.9144 9.27168 34.9607 9.50289 34.9607 9.7341C34.9607 9.98844 34.9144 10.2197 34.8218 10.4277C34.7292 10.6821 34.6135 10.867 34.4514 11.0289Z" fill="#584446"/>
<path d="M51.307 0C50.6587 0 50.1262 0.53179 50.1262 1.17919V5.4335C50.1262 5.4335 46.5375 5.41038 45.2872 5.41038C44.2916 5.41038 43.3424 5.59535 42.4625 5.98841C41.5827 6.35835 40.8187 6.89014 40.1704 7.53754C39.5221 8.18494 38.9896 8.97106 38.6192 9.82655C38.2487 10.7052 38.0403 11.6531 38.0403 12.6473C38.0403 13.6416 38.2256 14.5895 38.6192 15.4681C38.9896 16.3468 39.5221 17.1098 40.1704 17.7572C40.8187 18.4045 41.6059 18.9363 42.4625 19.3063C43.3424 19.6762 44.2916 19.8843 45.2872 19.8843C46.2365 19.8843 47.1394 19.7225 47.9729 19.3756C48.8064 19.0288 49.5473 18.5664 50.1956 17.9652C50.8207 17.3641 51.3533 16.6704 51.77 15.8612C52.1868 15.052 52.4183 14.1733 52.4877 13.2485V1.17919C52.5109 0.53179 51.9552 0 51.307 0ZM49.6631 14.6358C49.4547 15.1213 49.1537 15.5837 48.7601 15.9999C47.7877 17.0173 46.468 17.5259 45.1714 17.5028C45.1483 17.5028 45.102 17.5028 45.0788 17.5028C42.532 17.5028 40.4714 15.445 40.4714 12.9017C40.4714 12.8786 40.4714 12.8554 40.4714 12.8323C40.4482 11.6069 40.865 10.3583 41.7911 9.38724C42.1847 8.97106 42.6246 8.64736 43.1108 8.41615C44.5695 7.67627 46.3059 8.34679 47.0468 9.80343C47.1626 10.0115 47.3015 10.2196 47.4867 10.4046C47.6719 10.5896 47.8803 10.7283 48.1119 10.8208C49.5705 11.445 50.3114 13.156 49.6631 14.6358ZM49.9641 9.52597C49.1306 10.2196 47.7183 9.87279 47.7183 9.87279C47.7183 9.87279 47.6719 8.43927 48.5055 7.74563C49.339 7.05199 50.7513 7.39881 50.7513 7.39881C50.7513 7.39881 50.7976 8.83233 49.9641 9.52597Z" fill="#584446"/>
<path d="M49.663 14.6358C49.4546 15.1213 49.1536 15.5838 48.76 16C47.7876 17.0173 46.4679 17.526 45.1713 17.5028C45.1482 17.5028 45.1019 17.5028 45.0787 17.5028C42.5319 17.5028 40.4713 15.445 40.4713 12.9017C40.4713 12.8786 40.4713 12.8555 40.4713 12.8323C40.4482 11.6069 40.8649 10.3584 41.791 9.38727C42.1846 8.97109 42.6245 8.64739 43.1107 8.41618C44.5694 7.67629 46.3058 8.34681 47.0467 9.80345C47.1625 10.0115 47.3014 10.2196 47.4866 10.4046C47.6719 10.5896 47.8802 10.7283 48.1118 10.8208C49.5704 11.4451 50.3113 13.156 49.663 14.6358ZM49.964 9.526C49.1305 10.2196 47.7182 9.87282 47.7182 9.87282C47.7182 9.87282 47.6719 8.4393 48.5054 7.74566C49.3389 7.05202 50.7512 7.39884 50.7512 7.39884C50.7512 7.39884 50.7975 8.83236 49.964 9.526Z" fill="#FFB81C"/>
</svg>
