<?xml version="1.0" encoding="utf-8"?>
<!-- Generator: Adobe Illustrator 25.0.0, SVG Export Plug-In . SVG Version: 6.00 Build 0)  -->
<svg version="1.1" xmlns="http://www.w3.org/2000/svg" xmlns:xlink="http://www.w3.org/1999/xlink" x="0px" y="0px"
	 viewBox="0 0 1299.17 379.2" style="enable-background:new 0 0 1299.17 379.2;" xml:space="preserve">
<style type="text/css">
	.st0{fill:url(#SVGID_1_);}
	.st1{fill:#ECF0D9;}
	.st2{fill:#DEE3B4;}
	.st3{fill:#E3E7BF;}
	.st4{fill:#CCD58F;}
	.st5{fill:#B3C150;}
	.st6{fill:#A3AF4E;}
	.st7{fill:#979E41;}
	.st8{fill:url(#SVGID_2_);}
	.st9{fill:url(#SVGID_3_);}
	.st10{fill:url(#SVGID_4_);}
	.st11{fill:url(#SVGID_5_);}
	.st12{fill:url(#SVGID_6_);}
	.st13{fill:url(#SVGID_7_);}
	.st14{fill:url(#SVGID_8_);}
	.st15{fill:url(#SVGID_9_);}
	.st16{fill:url(#SVGID_10_);}
	.st17{fill:url(#SVGID_11_);}
	.st18{fill:#FFF2DB;}
	.st19{fill:#A79B9C;}
	.st20{fill:#FFD13D;}
	.st21{fill:#2C3A64;}
	.st22{fill:#F67047;}
	.st23{fill:#DAE578;}
	.st24{fill:#FFF3DB;}
	.st25{fill:#FCE8C5;}
	.st26{fill:url(#SVGID_12_);}
	.st27{fill:url(#SVGID_13_);}
	.st28{fill:url(#SVGID_14_);}
	.st29{fill:url(#SVGID_15_);}
	.st30{fill:url(#SVGID_16_);}
	.st31{fill:url(#SVGID_17_);}
	.st32{fill:url(#SVGID_18_);}
	.st33{fill:url(#SVGID_19_);}
	.st34{fill:url(#SVGID_20_);}
	.st35{fill:#574246;}
	.st36{fill:#645053;}
	.st37{fill:#4A373A;}
	.st38{fill:#FEE6B9;stroke:#574246;stroke-width:0.5;stroke-miterlimit:10;}
	.st39{fill:#C4BBBC;stroke:#574246;stroke-width:0.5;stroke-miterlimit:10;}
	.st40{fill:#8C7E7F;stroke:#574246;stroke-width:0.5;stroke-miterlimit:10;}
	.st41{fill:#A79B9C;stroke:#574246;stroke-width:0.5;stroke-miterlimit:10;}
	.st42{fill:#FECE74;stroke:#574246;stroke-width:0.5;stroke-miterlimit:10;}
	.st43{fill:#9E8E86;stroke:#574246;stroke-width:0.5;stroke-miterlimit:10;}
	.st44{fill:#E6CCBD;stroke:#574246;stroke-width:0.5;stroke-miterlimit:10;}
	.st45{fill:#FEC251;stroke:#574246;stroke-width:0.5;stroke-miterlimit:10;}
	.st46{fill:#FEF2DB;stroke:#574246;stroke-width:0.5;stroke-miterlimit:10;}
	.st47{fill:#286489;stroke:#574246;stroke-width:0.5;stroke-miterlimit:10;}
	.st48{fill:#F3ECD6;stroke:#574246;stroke-width:0.5;stroke-miterlimit:10;}
	.st49{fill:#FEF2DC;stroke:#574246;stroke-width:0.5;stroke-miterlimit:10;}
	.st50{fill:#574246;stroke:#574246;stroke-width:0.5;stroke-miterlimit:10;}
	.st51{fill:#725F62;stroke:#574246;stroke-width:0.5;stroke-miterlimit:10;}
	.st52{fill:#645053;stroke:#574246;stroke-width:0.5;stroke-miterlimit:10;}
	.st53{fill:#FFFFFF;}
	.st54{fill:#010001;}
	.st55{fill:#272727;}
	.st56{fill:#C5C5C5;}
	.st57{fill:#DCDCDC;stroke:#574246;stroke-width:0.5;stroke-miterlimit:10;}
	.st58{fill:#C5C5C5;stroke:#574246;stroke-width:0.5;stroke-miterlimit:10;}
	.st59{fill:#FBFBFB;stroke:#574246;stroke-width:0.5;stroke-miterlimit:10;}
	.st60{fill:#3B2E2F;}
	.st61{fill:#FDB723;stroke:#574246;stroke-width:0.5;stroke-miterlimit:10;}
	.st62{fill:#F59F24;stroke:#574246;stroke-width:0.5;stroke-miterlimit:10;}
	.st63{fill:#286489;}
	.st64{opacity:0.22;fill:#A3A1AD;}
	.st65{fill:#C92103;stroke:#574246;stroke-width:0.5;stroke-miterlimit:10;}
	.st66{fill:#584446;}
	.st67{fill:#FFB81C;}
	.st68{fill:#FDB723;}
	.st69{fill:#725F62;}
	.st70{fill:#A3AF4E;stroke:#574246;stroke-width:0.15;stroke-miterlimit:10;}
	.st71{fill:#E23333;}
	.st72{fill:#F56F47;}
	.st73{fill:url(#SVGID_21_);stroke:#574246;stroke-width:0.5;stroke-miterlimit:10;}
	.st74{fill:url(#SVGID_22_);stroke:#574246;stroke-width:0.5;stroke-miterlimit:10;}
	.st75{fill:url(#SVGID_23_);stroke:#574246;stroke-width:0.5;stroke-miterlimit:10;}
	.st76{fill:#AC345A;}
	.st77{fill:#CE4762;}
	.st78{fill:url(#SVGID_24_);stroke:#574246;stroke-width:0.5;stroke-miterlimit:10;}
	.st79{fill:url(#SVGID_25_);stroke:#574246;stroke-width:0.5;stroke-miterlimit:10;}
	.st80{fill:url(#SVGID_26_);stroke:#574246;stroke-width:0.5;stroke-miterlimit:10;}
	.st81{fill:url(#SVGID_27_);stroke:#574246;stroke-width:0.5;stroke-miterlimit:10;}
	.st82{fill:url(#SVGID_28_);stroke:#574246;stroke-width:0.5;stroke-miterlimit:10;}
	.st83{fill:url(#SVGID_29_);stroke:#574246;stroke-width:0.5;stroke-miterlimit:10;}
	.st84{fill:url(#SVGID_30_);stroke:#574246;stroke-width:0.5;stroke-miterlimit:10;}
	.st85{fill:url(#SVGID_31_);stroke:#574246;stroke-width:0.5;stroke-miterlimit:10;}
	.st86{fill:url(#SVGID_32_);stroke:#574246;stroke-width:0.5;stroke-miterlimit:10;}
	.st87{fill:url(#SVGID_33_);stroke:#574246;stroke-width:0.5;stroke-miterlimit:10;}
	.st88{fill:url(#SVGID_34_);stroke:#574246;stroke-width:0.5;stroke-miterlimit:10;}
	.st89{fill:url(#SVGID_35_);stroke:#574246;stroke-width:0.5;stroke-miterlimit:10;}
	.st90{fill:url(#SVGID_36_);stroke:#574246;stroke-width:0.5;stroke-miterlimit:10;}
	.st91{fill:url(#SVGID_37_);stroke:#574246;stroke-width:0.5;stroke-miterlimit:10;}
	.st92{fill:url(#SVGID_38_);stroke:#574246;stroke-width:0.5;stroke-miterlimit:10;}
	.st93{fill:url(#SVGID_39_);stroke:#574246;stroke-width:0.5;stroke-miterlimit:10;}
	.st94{fill:url(#SVGID_40_);stroke:#574246;stroke-width:0.5;stroke-miterlimit:10;}
	.st95{fill:url(#SVGID_41_);stroke:#574246;stroke-width:0.5;stroke-miterlimit:10;}
	.st96{fill:url(#SVGID_42_);stroke:#574246;stroke-width:0.5;stroke-miterlimit:10;}
	.st97{fill:url(#SVGID_43_);stroke:#574246;stroke-width:0.5;stroke-miterlimit:10;}
	.st98{fill:url(#SVGID_44_);stroke:#574246;stroke-width:0.5;stroke-miterlimit:10;}
	.st99{fill:url(#SVGID_45_);stroke:#574246;stroke-width:0.5;stroke-miterlimit:10;}
	.st100{fill:url(#SVGID_46_);stroke:#574246;stroke-width:0.5;stroke-miterlimit:10;}
	.st101{fill:url(#SVGID_47_);stroke:#574246;stroke-width:0.5;stroke-miterlimit:10;}
	.st102{fill:url(#SVGID_48_);stroke:#574246;stroke-width:0.5;stroke-miterlimit:10;}
	.st103{fill:url(#SVGID_49_);stroke:#574246;stroke-width:0.5;stroke-miterlimit:10;}
	.st104{fill:url(#SVGID_50_);stroke:#574246;stroke-width:0.5;stroke-miterlimit:10;}
	.st105{fill:url(#SVGID_51_);stroke:#574246;stroke-width:0.5;stroke-miterlimit:10;}
	.st106{fill:url(#SVGID_52_);stroke:#574246;stroke-width:0.5;stroke-miterlimit:10;}
	.st107{fill:url(#SVGID_53_);stroke:#574246;stroke-width:0.5;stroke-miterlimit:10;}
	.st108{fill:url(#SVGID_54_);stroke:#574246;stroke-width:0.5;stroke-miterlimit:10;}
	.st109{fill:url(#SVGID_55_);stroke:#574246;stroke-width:0.5;stroke-miterlimit:10;}
	.st110{fill:url(#SVGID_56_);stroke:#574246;stroke-width:0.5;stroke-miterlimit:10;}
	.st111{fill:url(#SVGID_57_);stroke:#574246;stroke-width:0.5;stroke-miterlimit:10;}
	.st112{fill:url(#SVGID_58_);stroke:#574246;stroke-width:0.5;stroke-miterlimit:10;}
	.st113{fill:url(#SVGID_59_);stroke:#574246;stroke-width:0.5;stroke-miterlimit:10;}
	.st114{fill:url(#SVGID_60_);stroke:#574246;stroke-width:0.5;stroke-miterlimit:10;}
	.st115{fill:url(#SVGID_61_);stroke:#574246;stroke-width:0.5;stroke-miterlimit:10;}
	.st116{fill:url(#SVGID_62_);stroke:#574246;stroke-width:0.5;stroke-miterlimit:10;}
	.st117{fill:#EE7E21;stroke:#574246;stroke-width:0.5;stroke-miterlimit:10;}
	.st118{fill:#B3C150;stroke:#574246;stroke-width:0.5;stroke-miterlimit:10;}
	.st119{fill:#E2E891;stroke:#574246;stroke-width:0.5;stroke-miterlimit:10;}
	.st120{fill:#B2C052;stroke:#574246;stroke-width:0.5;stroke-miterlimit:10;}
	.st121{fill:#979E41;stroke:#574246;stroke-width:0.5;stroke-miterlimit:10;}
	.st122{fill:#FFF2DB;stroke:#574246;stroke-width:0.5;stroke-miterlimit:10;}
	.st123{fill:url(#SVGID_63_);stroke:#574246;stroke-width:0.5;stroke-miterlimit:10;}
	.st124{fill:url(#SVGID_64_);stroke:#574246;stroke-width:0.5;stroke-miterlimit:10;}
	.st125{fill:url(#SVGID_65_);stroke:#574246;stroke-width:0.5;stroke-miterlimit:10;}
	.st126{fill:url(#SVGID_66_);stroke:#574246;stroke-width:0.5;stroke-miterlimit:10;}
	.st127{fill:url(#SVGID_67_);stroke:#574246;stroke-width:0.5;stroke-miterlimit:10;}
	.st128{fill:url(#SVGID_68_);stroke:#574246;stroke-width:0.5;stroke-miterlimit:10;}
	.st129{fill:#C18E4C;stroke:#574246;stroke-width:0.5;stroke-miterlimit:10;}
	.st130{fill:url(#SVGID_69_);stroke:#574246;stroke-width:0.5;stroke-miterlimit:10;}
	.st131{fill:url(#SVGID_70_);stroke:#574246;stroke-width:0.5;stroke-miterlimit:10;}
	.st132{fill:url(#SVGID_71_);stroke:#574246;stroke-width:0.5;stroke-miterlimit:10;}
	.st133{fill:#AC345A;stroke:#574246;stroke-width:0.5;stroke-miterlimit:10;}
	.st134{fill:#FECE74;}
	.st135{fill:#A3AF4E;stroke:#574246;stroke-width:0.5;stroke-miterlimit:10;}
	.st136{fill:url(#SVGID_72_);stroke:#574246;stroke-width:0.5;stroke-miterlimit:10;}
	.st137{fill:url(#SVGID_73_);stroke:#574246;stroke-width:0.5;stroke-miterlimit:10;}
	.st138{fill:url(#SVGID_74_);stroke:#574246;stroke-width:0.5;stroke-miterlimit:10;}
	.st139{fill:url(#SVGID_75_);stroke:#574246;stroke-width:0.5;stroke-miterlimit:10;}
	.st140{fill:url(#SVGID_76_);stroke:#574246;stroke-width:0.5;stroke-miterlimit:10;}
	.st141{fill:url(#SVGID_77_);stroke:#574246;stroke-width:0.5;stroke-miterlimit:10;}
	.st142{fill:url(#SVGID_78_);stroke:#574246;stroke-width:0.5;stroke-miterlimit:10;}
	.st143{fill:url(#SVGID_79_);stroke:#574246;stroke-width:0.5;stroke-miterlimit:10;}
	.st144{fill:url(#SVGID_80_);stroke:#574246;stroke-width:0.5;stroke-miterlimit:10;}
	.st145{fill:url(#SVGID_81_);stroke:#574246;stroke-width:0.5;stroke-miterlimit:10;}
	.st146{fill:url(#SVGID_82_);stroke:#574246;stroke-width:0.5;stroke-miterlimit:10;}
	.st147{fill:#FC1D1D;}
	.st148{fill:#FFD13D;stroke:#574246;stroke-width:0.5;stroke-miterlimit:10;}
	.st149{fill:url(#SVGID_83_);stroke:#574246;stroke-width:0.5;stroke-miterlimit:10;}
	.st150{fill:url(#SVGID_84_);stroke:#574246;stroke-width:0.5;stroke-miterlimit:10;}
	.st151{fill:#554145;}
	.st152{opacity:0.19;}
	.st153{fill:#644F52;}
	.st154{fill:#644F52;stroke:#574246;stroke-width:0;stroke-miterlimit:10;}
	.st155{fill:#F67047;stroke:#574246;stroke-width:0.5;stroke-miterlimit:10;}
	.st156{fill:#FF8C6B;stroke:#574246;stroke-width:0.5;stroke-miterlimit:10;}
	.st157{fill:#FCB384;stroke:#574246;stroke-width:0.5;stroke-miterlimit:10;}
	.st158{fill:#935B31;stroke:#574246;stroke-width:0.5;stroke-miterlimit:10;}
	.st159{fill:#7C4721;}
	.st160{fill:#5F3714;}
	.st161{fill:#482C10;}
	.st162{fill:#FF8C6B;}
	.st163{fill:#8F1805;}
	.st164{fill:#F99D0B;stroke:#574246;stroke-width:0.5;stroke-miterlimit:10;}
	.st165{fill:#8F1701;}
	.st166{fill:#1E597B;}
	.st167{fill:#F99D0B;}
	.st168{fill:#4A373A;stroke:#574246;stroke-width:0.5;stroke-miterlimit:10;}
	.st169{fill:none;stroke:#574246;stroke-width:0.5;stroke-miterlimit:10;}
	.st170{fill:#8D9799;stroke:#574246;stroke-width:0.5;stroke-miterlimit:10;}
	.st171{fill:#838B8D;}
	.st172{fill:#848C8D;stroke:#574246;stroke-width:0.5;stroke-miterlimit:10;}
	.st173{fill:#8C9798;}
	.st174{fill:#EE7E21;}
	.st175{fill:url(#SVGID_85_);}
	.st176{fill:url(#SVGID_86_);}
	.st177{fill:url(#SVGID_87_);}
	.st178{fill:#FDB186;stroke:#574246;stroke-width:0.5;stroke-miterlimit:10;}
	.st179{fill:#896139;stroke:#574246;stroke-width:0.5;stroke-miterlimit:10;}
	.st180{fill:#AF744B;}
	.st181{fill:#838B8D;stroke:#574246;stroke-width:0.5;stroke-miterlimit:10;}
	.st182{fill:url(#SVGID_88_);}
	.st183{fill:url(#SVGID_89_);}
	.st184{fill:url(#SVGID_90_);}
	.st185{fill:url(#SVGID_91_);}
	.st186{fill:url(#SVGID_92_);}
	.st187{fill:url(#SVGID_93_);}
	.st188{fill:url(#SVGID_94_);}
	.st189{fill:url(#SVGID_95_);}
	.st190{fill:url(#SVGID_96_);}
	.st191{fill:url(#SVGID_97_);}
	.st192{fill:url(#SVGID_98_);}
	.st193{fill:url(#SVGID_99_);}
	.st194{fill:url(#SVGID_100_);}
	.st195{fill:url(#SVGID_101_);}
	.st196{fill:url(#SVGID_102_);}
	.st197{fill:url(#SVGID_103_);}
	.st198{fill:url(#SVGID_104_);}
	.st199{fill:url(#SVGID_105_);}
	.st200{fill:url(#SVGID_106_);}
	.st201{fill:url(#SVGID_107_);}
	.st202{fill:url(#SVGID_108_);stroke:#574246;stroke-width:0.5;stroke-miterlimit:10;}
	.st203{fill:url(#SVGID_109_);stroke:#574246;stroke-width:0.5;stroke-miterlimit:10;}
	.st204{fill:url(#SVGID_110_);stroke:#574246;stroke-width:0.5;stroke-miterlimit:10;}
	.st205{fill:url(#SVGID_111_);stroke:#574246;stroke-width:0.5;stroke-miterlimit:10;}
	.st206{fill:url(#SVGID_112_);stroke:#574246;stroke-width:0.5;stroke-miterlimit:10;}
	.st207{fill:url(#SVGID_113_);stroke:#574246;stroke-width:0.5;stroke-miterlimit:10;}
	.st208{fill:url(#SVGID_114_);stroke:#574246;stroke-width:0.5;stroke-miterlimit:10;}
	.st209{fill:url(#SVGID_115_);stroke:#574246;stroke-width:0.5;stroke-miterlimit:10;}
	.st210{fill:url(#SVGID_116_);stroke:#574246;stroke-width:0.5;stroke-miterlimit:10;}
	.st211{fill:url(#SVGID_117_);stroke:#574246;stroke-width:0.5;stroke-miterlimit:10;}
	.st212{fill:url(#SVGID_118_);stroke:#574246;stroke-width:0.5;stroke-miterlimit:10;}
	.st213{fill:url(#SVGID_119_);stroke:#574246;stroke-width:0.5;stroke-miterlimit:10;}
	.st214{fill:url(#SVGID_120_);stroke:#574246;stroke-width:0.5;stroke-miterlimit:10;}
	.st215{fill:url(#SVGID_121_);stroke:#574246;stroke-width:0.5;stroke-miterlimit:10;}
	.st216{fill:url(#SVGID_122_);stroke:#574246;stroke-width:0.5;stroke-miterlimit:10;}
	.st217{fill:url(#SVGID_123_);stroke:#574246;stroke-width:0.5;stroke-miterlimit:10;}
	.st218{fill:url(#SVGID_124_);stroke:#574246;stroke-width:0.5;stroke-miterlimit:10;}
	.st219{fill:url(#SVGID_125_);stroke:#574246;stroke-width:0.5;stroke-miterlimit:10;}
	.st220{fill:url(#SVGID_126_);stroke:#574246;stroke-width:0.5;stroke-miterlimit:10;}
	.st221{fill:url(#SVGID_127_);stroke:#574246;stroke-width:0.5;stroke-miterlimit:10;}
	.st222{fill:url(#SVGID_128_);stroke:#574246;stroke-width:0.5;stroke-miterlimit:10;}
	.st223{fill:url(#SVGID_129_);stroke:#574246;stroke-width:0.5;stroke-miterlimit:10;}
	.st224{fill:url(#SVGID_130_);stroke:#574246;stroke-width:0.5;stroke-miterlimit:10;}
	.st225{fill:url(#SVGID_131_);stroke:#574246;stroke-width:0.5;stroke-miterlimit:10;}
	.st226{fill:url(#SVGID_132_);stroke:#574246;stroke-width:0.5;stroke-miterlimit:10;}
	.st227{fill:url(#SVGID_133_);stroke:#574246;stroke-width:0.5;stroke-miterlimit:10;}
	.st228{fill:url(#SVGID_134_);stroke:#574246;stroke-width:0.5;stroke-miterlimit:10;}
	.st229{fill:url(#SVGID_135_);stroke:#574246;stroke-width:0.5;stroke-miterlimit:10;}
	.st230{fill:url(#SVGID_136_);stroke:#574246;stroke-width:0.5;stroke-miterlimit:10;}
	.st231{fill:url(#SVGID_137_);stroke:#574246;stroke-width:0.5;stroke-miterlimit:10;}
	.st232{fill:url(#SVGID_138_);stroke:#574246;stroke-width:0.5;stroke-miterlimit:10;}
	.st233{fill:url(#SVGID_139_);stroke:#574246;stroke-width:0.5;stroke-miterlimit:10;}
	.st234{fill:url(#SVGID_140_);stroke:#574246;stroke-width:0.5;stroke-miterlimit:10;}
	.st235{fill:url(#SVGID_141_);stroke:#574246;stroke-width:0.5;stroke-miterlimit:10;}
	.st236{fill:url(#SVGID_142_);stroke:#574246;stroke-width:0.5;stroke-miterlimit:10;}
	.st237{fill:url(#SVGID_143_);stroke:#574246;stroke-width:0.5;stroke-miterlimit:10;}
	.st238{fill:url(#SVGID_144_);stroke:#574246;stroke-width:0.5;stroke-miterlimit:10;}
	.st239{fill:url(#SVGID_145_);stroke:#574246;stroke-width:0.5;stroke-miterlimit:10;}
	.st240{fill:url(#SVGID_146_);stroke:#574246;stroke-width:0.5;stroke-miterlimit:10;}
	.st241{fill:url(#SVGID_147_);stroke:#574246;stroke-width:0.5;stroke-miterlimit:10;}
	.st242{fill:url(#SVGID_148_);stroke:#574246;stroke-width:0.5;stroke-miterlimit:10;}
	.st243{fill:url(#SVGID_149_);stroke:#574246;stroke-width:0.5;stroke-miterlimit:10;}
	.st244{fill:url(#SVGID_150_);stroke:#574246;stroke-width:0.5;stroke-miterlimit:10;}
	.st245{fill:url(#SVGID_151_);stroke:#574246;stroke-width:0.5;stroke-miterlimit:10;}
	.st246{fill:url(#SVGID_152_);stroke:#574246;stroke-width:0.5;stroke-miterlimit:10;}
	.st247{fill:url(#SVGID_153_);stroke:#574246;stroke-width:0.5;stroke-miterlimit:10;}
	.st248{fill:url(#SVGID_154_);stroke:#574246;stroke-width:0.5;stroke-miterlimit:10;}
	.st249{fill:url(#SVGID_155_);stroke:#574246;stroke-width:0.5;stroke-miterlimit:10;}
	.st250{fill:url(#SVGID_156_);stroke:#574246;stroke-width:0.5;stroke-miterlimit:10;}
	.st251{fill:url(#SVGID_157_);stroke:#574246;stroke-width:0.5;stroke-miterlimit:10;}
	.st252{fill:url(#SVGID_158_);stroke:#574246;stroke-width:0.5;stroke-miterlimit:10;}
	.st253{fill:url(#SVGID_159_);stroke:#574246;stroke-width:0.5;stroke-miterlimit:10;}
	.st254{fill:url(#SVGID_160_);stroke:#574246;stroke-width:0.5;stroke-miterlimit:10;}
	.st255{fill:url(#SVGID_161_);stroke:#574246;stroke-width:0.5;stroke-miterlimit:10;}
	.st256{fill:url(#SVGID_162_);stroke:#574246;stroke-width:0.5;stroke-miterlimit:10;}
	.st257{fill:url(#SVGID_163_);stroke:#574246;stroke-width:0.5;stroke-miterlimit:10;}
	.st258{fill:url(#SVGID_164_);stroke:#574246;stroke-width:0.5;stroke-miterlimit:10;}
	.st259{fill:url(#SVGID_165_);stroke:#574246;stroke-width:0.5;stroke-miterlimit:10;}
	.st260{fill:url(#SVGID_166_);stroke:#574246;stroke-width:0.5;stroke-miterlimit:10;}
	.st261{fill:url(#SVGID_167_);stroke:#574246;stroke-width:0.5;stroke-miterlimit:10;}
	.st262{fill:url(#SVGID_168_);stroke:#574246;stroke-width:0.5;stroke-miterlimit:10;}
	.st263{fill:url(#SVGID_169_);stroke:#574246;stroke-width:0.5;stroke-miterlimit:10;}
	.st264{fill:url(#SVGID_170_);stroke:#574246;stroke-width:0.5;stroke-miterlimit:10;}
	.st265{fill:url(#SVGID_171_);stroke:#574246;stroke-width:0.5;stroke-miterlimit:10;}
	.st266{fill:url(#SVGID_172_);}
	.st267{fill:url(#SVGID_173_);}
	.st268{fill:url(#SVGID_174_);}
</style>
<g id="Слой_1">
</g>
<g id="Слой_2">
</g>
<g id="Слой_3">
</g>
<g id="фон">
</g>
<g id="_x31__1_">
</g>
<g id="все">
	<g>
		<g>
			<path class="st35" d="M741.42,36.59c0,0,5.17,3.52,11.22,8.68s19.46,21.78,26.57,28.42c7.12,6.63,15.73,15,25.07,23.49
				c9.34,8.49,10.64,1.99,21.04,13.04s12.4,14.02,15.62,21.31c3.22,7.28,10.8,11.04,12.21,11.44s-7.61-1.02,7.3,6.84
				c14.91,7.86,26.27,24.37,29.69,27.81c3.41,3.44,8.3,0.91,15.93,11.59c7.63,10.69,11.29,18.14,25.7,27.41
				c14.41,9.27,29.92,22.62,41.99,39.34c12.06,16.72,34.61,24.34,49.33,40.35c14.72,16.01,26.42,24.46,30.96,29.65
				c4.55,5.2,8.15,13.47,14.79,19.08s20.04,18.93,22.12,20.72c2.08,1.79,5.32-0.81,13.12,6.34c7.8,7.15,9.85,7.1,15.64,7.12
				s18.76-0.01,20.4-0.32s29.01-0.02,31.89-2.44c2.88-2.42-47.35-46.83-59.59-58.09s-53.72-51.3-62.23-55.32
				c-8.5-4.02-5.3-5.51-13.4-11.91c-8.1-6.4-19.54-23.88-32.01-28.46c-12.47-4.58-19.42-21.86-32.84-31.41
				c-13.42-9.56-26.68-24.54-30.12-27.77c-3.44-3.23-24.53-14.29-32.83-25.98s-17.05-16.19-23.72-21.09s-14.3-12.31-19.91-17.7
				c-5.6-5.39-12.56-10.69-18.18-16.16c-5.62-5.47-15.22-13.12-18.86-16.77c-3.65-3.65-8.91-8.03-15.7-13.96s-8.9-8.88-12.72-11.31
				c-3.82-2.42-7.28-4.11-14.97-3.92c-7.69,0.2-8.25,1.1-19.67,0S744.09,33.14,741.42,36.59z"/>
			<path class="st36" d="M745.31,39.42c0.73,1.26,6.91,7.99,15.52,13.4c8.61,5.41,11.73,4.05,16.67,8.63
				c4.94,4.58,5.59,11.08,11.44,14.32c5.85,3.25,11.68,3.73,18.51,11.94c6.83,8.2,5.53,10.26,10.73,11.18
				c5.2,0.92,7.8-8.17,12.35-7.53c4.55,0.65,11.34,7.53,11.34,7.53s-4.1-0.92-8.05,0c-3.95,0.92-8.5,4.82-5.9,7.42
				c2.6,2.6,15.3,2.98,17.07,3.76s-7.95,2.46-1.79,7.8c6.16,5.34,5.72,6.36,8.54,8.77c2.82,2.41,9.32,10.21,11.27,12.16
				s-0.59,4.22,8.8,9.91c9.39,5.69,8.74,7.64,15.89,6.99c7.15-0.65,6.04,0.85,13,1.3c6.96,0.45-3.49,4.48-3.9,5.2
				c-0.41,0.72-7.15,3.25,0,8.45c7.15,5.2,16.6,9.7,23.24,15.9c6.65,6.2,9.98,7.06,18.71,14.75c8.73,7.69,22.87,4.59,27.82,9.71
				c4.95,5.12,10.8,8.37,6.9,12.27c-3.9,3.9-2.6,9.75,3.9,13.65c6.5,3.9,4.98,4.16,10.94,7.28c5.96,3.12,2.06,1.17,6.61,8.31
				c4.55,7.15,5.65,11.34,18.42,16.72c12.77,5.38,24.6,16.33,26.81,18.33c2.21,1.99,9.64,12.81,11.77,15.2s-1.12,0.44,7.98,3.69
				c9.1,3.25,13.51,11.51,13.51,11.51s-9.75,6.34,4.68,12.54c14.43,6.2,12.23,0.35,16.89,7.8c4.67,7.45,0.02,7.41,3.9,8.45
				c9.75,2.6,7.8-1.95,16.27,1.17c3.96,1.46-3.93,8.58,7.77,9.23c11.7,0.65,22.74-1.95,26.64,3.25s7.15,9.1,4.55,9.75
				c-2.6,0.65-1.88,11.05-4.55,6.5c-2.67-4.55-12.28-4.63-16.24-2.6s-11.05,5.2-20.14,0c-9.1-5.2-10.14-8.18-15.79-11.56
				c-5.65-3.38-4.07,0.02-10.71-7.86c-6.64-7.87-52.09-45.81-61.2-55.76c-9.11-9.95-23.41-17.09-30.56-28.14
				c-7.15-11.05,0.65-7.15-10.4-14.3c-11.05-7.15-29.69-33.8-34.34-37.69s-23.17-13.54-33.4-25.94
				c-10.24-12.4-15.26-5.83-22.17-17.23s-3.99-5.04-11.62-13.42c-7.63-8.38-23.83-15.86-25.48-21.22
				c-1.65-5.36-19.84-21.6-27.64-28.75c-7.8-7.15-5.77-8.34-17.51-13.27c-11.73-4.93-37.72-32.87-44.87-40.66
				C760.34,50.43,745.31,39.42,745.31,39.42z"/>
			<path class="st37" d="M803.87,57.58c0,0,19.94,12.38,25.99,17.54c6.05,5.16,8.48,4.41,15.59,11.05
				c7.12,6.63,7.56,14.9,16.89,23.39c9.34,8.49,17.54,12.35,27.94,23.39s18.22,14.16,21.44,21.44c3.22,7.28,24.58,17.8,25.99,18.19
				c1.41,0.4,7.84,21.38,22.74,29.24c14.91,7.86,24.53,16.06,27.94,19.49c3.41,3.44,11.87,10.76,19.49,21.44
				c7.63,10.69,14.18,16.07,28.59,25.34c14.41,9.27,21.08,5.37,33.14,22.09c12.06,16.72,21.67,12.58,36.39,28.59
				c14.72,16.01,22.74,20.79,27.29,25.99c4.55,5.2-0.15,1.54,6.5,7.15c6.65,5.61,10.92,4.71,13,6.5c2.08,1.79-2.6,4.55,5.2,11.7
				c7.8,7.15-18.14,3.87-12.35,3.9c5.8,0.02-7.08,4.78-5.44,4.47s29.01,1.28,31.89-1.14c2.88-2.42-47.35-46.83-59.59-58.09
				c-12.25-11.25-53.72-51.3-62.23-55.32c-8.5-4.02-5.3-5.51-13.4-11.91c-8.1-6.4-19.54-23.88-32.01-28.46s-19.42-21.86-32.84-31.41
				c-13.42-9.56-26.68-24.54-30.12-27.77c-3.44-3.23-24.53-14.29-32.83-25.98c-8.3-11.69-17.05-16.19-23.72-21.09
				s-14.3-12.31-19.91-17.7c-5.6-5.39-12.56-10.69-18.18-16.16s-15.22-13.12-18.86-16.77c-3.65-3.65-8.91-8.03-15.7-13.96
				c-6.79-5.93-8.9-8.88-12.72-11.31c-3.82-2.42-7.28-4.11-14.97-3.92c-7.69,0.2-8.25,1.1-19.67,0
				C753.94,36.4,806.54,54.13,803.87,57.58z"/>
			<path class="st35" d="M922.98,48.98c0.79,0.94-3.08,1.04-4.3,0.86c-4.42-0.64-14.62-2.02-17.15-1.51
				c-12.74,2.55-26.36,0.58-30.4-0.03s-3.36,3.02-11.17,1.85s-6.61-1.76-13.71-1.79s-6.45,1.27-9.05,1.27s-4.55,0.65-7.8-0.65
				c-3.25-1.3-0.65-1.95-3.9-3.9c-3.25-1.95-5.52-1.99-6.98-4.24c-1.46-2.25-4.92-1.87-5.47-4.01c-0.54-2.14-0.84-3.36,1.91-3.4
				c2.75-0.04,3.79,1.18,8.79,0.25c5-0.93,7.65-1.01,10.88,0c3.22,1.01,6.13,0.28,7.6,0c1.47-0.28,9.52-1.01,13.62,0
				c4.1,1.01,6.05,1.01,9.3,1.01s9.09-1.38,12.99-1.01c3.9,0.36,4.06,0.28,6.26,0s4.77,0.28,6.41,0c1.63-0.28,5.53,1.01,6.18,1.01
				s1.14-1.81,4.47-0.9c3.33,0.9,3.33,0.9,3.33,0.9s-1.02-0.95,0.79,0.18c1.81,1.12,2.28,0.53,3.67,2.13
				c1.39,1.6,3.56,1.55,3.45,3.2c-0.11,1.65,3.14,2.3,3.79,3.6C916.85,44.51,921.75,47.51,922.98,48.98z"/>
			<path class="st35" d="M829.2,51.31c0,0-0.8,0.51,2.15,3.47c2.95,2.95,4.27,2.79,6.36,5.64c2.09,2.85,2.67,3.11,4.65,3.95
				c1.99,0.85,5.24,6.7,7.18,6.7s3.63,1.3,15.46,0s13.78,0.65,17.68,0c3.9-0.65,14.3,0.65,20.79-0.65c6.5-1.3,9.75,0,13.65,0
				c3.9,0,6.5-1.95,12.35-0.65c5.85,1.3,8.11,2.45,11.53,1.88c3.42-0.58,9.92-0.58,7.32-2.53c-2.6-1.95-6.51-2.83-9.43-5.96
				s-4.43-5.7-6.6-6.69c-2.17-0.99-2.72-5.34-9.91-6.09c-7.2-0.75-14.99-0.75-19.54-1.4c-4.55-0.65-3.9,0.65-5.85,0.65
				c-1.95,0-11.76,0.46-14.98-0.09c-3.21-0.56-10.54-1.57-12.08-0.74c-1.54,0.83-1.51,1.87-5.42,1.35c-3.91-0.52-9.15-2.26-14-1.39
				c-4.85,0.87-5.63-0.12-7.84-0.28c-2.21-0.15-13.29,0.23-13.6,1.67S829.2,51.31,829.2,51.31z"/>
			<path class="st35" d="M853.9,72.17c0.2,1.5-1.49,1.41,1.63,4.05c3.12,2.64,3.07,1.26,4.4,3.9c1.32,2.64,3.31,4.05,5.24,4.65
				c1.93,0.59-0.22-0.02,2.16,1.91c2.38,1.93,6.93,4.53,11.47,7.13c4.55,2.6,2.76,3.58,6.5,5.85c3.73,2.26,26.33-3.88,33.96-2.26
				c7.63,1.61,26.38-0.56,29.02-0.45c2.65,0.11,16.29,0.11,16.94,0.11s15.59-0.65,16.89,0c1.3,0.65-2.6-1.3-3.25-2.6
				s0.65-1.3-2.6-2.6c-3.25-1.3-2.7-3.06-4.27-4.45c-1.58-1.39-9.3-4.77-9.01-6c0.29-1.24-2.85-3.1-3.56-3.79
				c-0.7-0.69-3.21-2.76-4.56-3.35c-1.34-0.59-2.81-3.03-4.03-2.46c-1.22,0.57-2.47,0.82-3.79,0.37
				C945.72,71.72,853.9,72.17,853.9,72.17z"/>
			<path class="st35" d="M885.32,98.43c1.27,1.88-3.67,0.53-1.2,3.15c2.47,2.62,3.04,2.32,5.35,4.75s2.02,5.02,6.39,5.67
				c4.37,0.65,1.34,1.02,3.51,3.11c2.16,2.09,0.21,0.79,2.16,2.09s5.2,3.25,8.45,5.2c3.25,1.95,1.3,3.9,3.25,3.9
				c1.95,0,1.3,0,3.25,1.3s11.36-1.3,16.08,0s14.46-2.6,20.96-0.65c6.5,1.95,67.58,1.3,67.58,1.3s-3.9-3.25-5.2-4.55
				s-1.36,0.04-3.28-2.91s-1.62-4.28-5.35-5.89c-3.72-1.61-5.52-3.73-5.92-4.62c-0.4-0.89-0.97-0.19-3-2.19
				c-2.02-2-4.18-1.03-5.2-3.9c-1.02-2.87-1.95-3.9-5.23-4.03c-4.66-0.19-4.66-1.67-7.18-1.74
				C978.21,98.36,885.32,98.43,885.32,98.43z"/>
			<path class="st35" d="M918,128.6c-0.86,1.61-0.96,2.2,2.01,4.83c2.97,2.63,4.27,1.98,6.22,4.58c1.95,2.6,1.11,2.21,3.48,4.03
				c2.37,1.82,0.08-0.09,3.18,2.82c3.09,2.9,4.39,1.6,5.69,3.55s-0.45,1.59,2.05,2.09c2.5,0.5,1.4,1.49,4.55,4.57
				c3.15,3.08,5.1,3.73,7.7,3.73s2.03-2.45,10.11-0.9s50.97-0.4,50.97-0.4s37.04-0.65,40.29-0.65s7.15,1.95,7.15,1.95
				s-3.25-3.9-5.85-5.2c-2.6-1.3-1.3-0.65-3.9-2.6c-2.6-1.95-2.32-2.95-5.38-5.7c-3.07-2.75-3.58-3.81-7.54-5.88
				c-3.97-2.07-3.69-1.23-5.45-4.25c-1.76-3.02-1.39-2.19-4.18-3.25s-3.94-3.5-7.99-4.31c-4.05-0.81-3.39-0.55-5.6,0.38
				C1013.3,128.9,918,128.6,918,128.6z"/>
			<path class="st35" d="M952.4,160.6c0.47,2.1-0.39,1.22,2.31,3.61c2.71,2.39,4.66,3.03,6.61,4.98c1.95,1.95,2.78,3.41,4.96,5.28
				c2.18,1.87,6.08,1.87,6.08,3.82s0.6,1.45,1.6,3c1,1.55,1.02,1.06,2.31,1.96s0.61-0.1,2.25,1.37c1.64,1.47-0.96,2.12,2.94,3.42
				c3.9,1.3,5.54,2.57,6.67,3.23c1.13,0.67,0.05,0.31,3.19,1.79s113.02-0.18,112.98,0s1.92-1.12,1.92-1.12s-0.65,0-3.9-2.6
				c-3.25-2.6-4-1.57-4.28-3.06s0.16-0.83-2.66-2.46s-5.36-3.82-5.71-4.67c-0.35-0.86-1.87-1.39-4.36-3.4
				c-2.49-2.01-3.93-4.53-7.11-5.54c-3.18-1.01-1.73-1.59-3.75-2.92c-2.02-1.34-2.27-2.31-4.42-3.45c-2.15-1.14-2.25-2.73-5.12-3.23
				s-2.21-2.45-3.52-1.8c-1.31,0.65-106.09-0.02-107.31,0.64C952.87,160.09,952.4,160.6,952.4,160.6z"/>
			<path class="st35" d="M991.98,193.19c0,0-1.18,1.1,0,2.84c1.18,1.75,1.83,1.1,3.78,3.7c1.95,2.6,0.92,1.93,3.39,3.89
				c2.46,1.96,0.98,2.09,3.02,2.68s2.24,2.05,4.42,3.92c2.18,1.86,1.44,0.9,3.76,3.33c2.32,2.43,3.41,1.34,5.46,4.81
				c2.05,3.47,5.95,0.87,7.25,2.17c1.3,1.3,1.3,3.25,3.9,3.25s6.5-1.3,10.4-1.3s5.85,2.6,9.1,1.95c3.25-0.65,3.88,0.21,6.16,0.1
				c2.28-0.1,3.58,0.17,6.18,1.01s7.15-2.41,9.75-1.76c2.6,0.65,4.26,1.85,8.95,1.9c4.69,0.05,4.71,0.6,7.3,0
				c2.59-0.6,1.94-1.25,4.54-1.25s1.3-0.65,4.55,0c3.25,0.65,7.15,2.41,12.35,1.53c5.2-0.88,4.55-0.88,6.5-0.88s0.65,0,3.9,0
				s13-1.95,15.59-0.65c2.6,1.3,1.95,1.3,5.2,0c3.25-1.3,3.25,1.3,3.25-1.3s-0.33-4.7-0.49-4.62c-0.16,0.07,0.12-0.33-3.92-3.05
				s-3.88-0.79-5.59-4.35s-1.94-1.52-4.1-3.19c-2.16-1.67-5.39-2.7-5.73-4.46c-0.33-1.76-4.97-3.11-6.88-5.36
				c-1.9-2.25-2.66-2.59-5.2-3.07c-2.55-0.48-5.33-0.94-5.33-0.94L991.98,193.19z"/>
			<path class="st36" d="M829.07,50.15c0,0,2.94,0.78,6.19-0.52c3.25-1.3,10.49-0.65,13.37,0c2.88,0.65,6.78,0.13,11.32,0.39
				c4.55,0.26,8.24,1.01,9.75,0.26c1.51-0.75-0.02-1,3.56-0.5c3.58,0.5,4.44,0.05,9.54,0.6c5.09,0.55,4.7,0.75,8.15,0
				c3.45-0.75,9.29-0.26,12.22-0.51c2.93-0.25,2.53,1.26,6.95,0.51c4.42-0.75,6.62-0.54,6.62-0.54s4.14,1.03,5.6,0.44
				c1.46-0.59-1.3-1.3-4.55-1.95s-3.64,0-4.09,0c-0.46,0-1.42-1.59-3.7-1.3c-2.28,0.29-1.41,2.51-6.23,0.93
				c-4.82-1.58-8.07-2.23-9.37-2.23s-7.47,5.09-11.05,1.3c-3.2-3.4,0,0-5.2-0.65c-2.13-0.27-2.47-3.43-4.55-2.6
				c-2.08,0.83-5.2,0.65-7.8,0s-5.2,0-7.8,0s-5.2,0-7.15,0c-1.95,0-3.11,0.15-4.55,0s-2.6-0.65-4.55,0c-1.95,0.65,3.9,1.3,0,0
				c-3.9-1.3-2.6,0-5.85,0c-3.25,0-2.91,1.95-3.9,0c-0.98-1.95-1.98-0.44-2.94-0.22c-0.96,0.22,1.64,0.22-0.31,0.22
				s-3.9-3.9-5.85-3.9s0.6,0.65-2.3,0s-2.9-1.3-4.85-1.95c-1.95-0.65-1.95-1.95-2.6-1.3s-1.52,0.19,0.86,2.37
				c2.39,2.18,3.11,4.05,4.7,3.76s2.23,0.36,3.53,1.66s-0.65-0.65,1.3,1.3c1.95,1.95,1.08,2.35,2.49,2.48
				C827.46,48.33,829.07,50.15,829.07,50.15z"/>
			<path class="st36" d="M834.34,57.27c1.04,0.66-0.01,1.6,3.38,3.15c3.39,1.55,1.32,1.58,3.66,3.51c2.33,1.94,4.28,1.29,4.93,3.24
				c0.65,1.95,0.65,1.3,1.95,1.95c1.3,0.65,0.48,2.41,3.17,2.18c2.68-0.23,0.42,0.56,2.2,1.46s6.15-0.91,8.52,0s6.78,0.92,8.15,0.26
				c1.37-0.65,2.02-0.65,5.26,0.64c3.25,1.3,0.65-0.65,3.25-0.65c2.6,0,3.9-0.65,5.2-0.65s0.65,0.65,3.25,0.65c2.6,0,3.9,0,5.2-0.65
				c1.3-0.65,3.25,0.65,3.9,0.65c0.65,0,0-0.65,2.6,0c2.6,0.65,3.9,0,5.2,0c1.3,0,7.8-0.65,11.7,0c3.9,0.65,9.75-1.3,11.7-0.65
				c1.95,0.65,2.6-0.65,5.2,0c2.6,0.65,7.23,1.11,7.23,1.11s-0.09-2.41,3.16-1.11c3.25,1.3,7.75,0.02,9.1,0
				c1.35-0.02-1.95-1.95-2.6-1.95c-0.65,0-4.1-1.77-4.65-0.89c-0.55,0.89,1.4-3.01-1.85-3.01c-3.25,0-3.25,0-7.8,0
				c-4.55,0-7.72-4.58-12.35-3.25c-4.62,1.33-5.2-0.65-11.05,0c-5.85,0.65-6.5,3.25-9.75,3.25c-3.25,0-7.8,0.65-11.05,0
				s-5.2-2.6-10.4-3.25c-5.2-0.65-12.66-2.27-14.3-0.65c-1.63,1.62-4.55,3.9-8.45,0.65c-3.9-3.25-6.5-0.65-5.85,0
				c0.65,0.65-7.8-0.65-9.75-4.55c-1.95-3.9-5.85-2.6-6.5-4.55c-0.65-1.95-1.95-4.55-3.25-1.95s-2.81-1.09-2.81-1.09
				S826.91,52.56,834.34,57.27z"/>
			<path class="st36" d="M858.43,77.54c2.17,1.33,0.23,1.98,3.47,3.93c3.25,1.95,1.95,0,3.25,1.95c1.3,1.95,3.25,1.95,3.9,2.6
				c0.65,0.65-1.31,1.78,2.92,3.16s6.18,1.38,7.48,2.03c1.3,0.65-0.65-2.6,2.6,1.95s0.73,3.33,2.64,4.59
				c1.91,1.26,3.21,1.26,5.81,1.26s2.29-0.65,5.37,0c3.08,0.65,2.43,0.65,5.03,0.65s1.3-1.3,6.5-0.65c5.2,0.65,7.17,0,10.08,0.65
				c2.91,0.65,1.39,0,6.7,0c5.31,0,5.31-0.65,10.51-0.65c5.2,0,5.92,1.88,9.46,0.94c3.54-0.94,4.27-1,6.18-0.97
				c1.91,0.03,1.91-0.62,3.86-0.62s3.31,2.4,6.2,1.85c2.89-0.55,4.84-0.55,7.44-0.55c2.6,0,3.25,0,7.15-0.65c3.9-0.65,3.9,0,6.5,0
				s3.03,0.67,3.14,0.01c0.11-0.66-0.66-3.67-2.23-3.47c-1.56,0.21-2.21-0.44-4.81-1.09c-2.6-0.65,1.3-3.9-1.3-2.6
				c-2.6,1.3-1.95-1.3-6.5-0.65c-4.55,0.65-3.25,0-6.5,0s-6.89,1.59-11.05,1.95s-5.2,1.95-9.75,0.65c-4.55-1.3-9.75-5.85-12.35-5.85
				c-2.6,0-9.1,3.9-10.32,7.14c-0.97,2.57-9.17-4.54-9.82-3.89c-0.65,0.65-1.3,0-3.25,0c-1.95,0-3.9,0.65-7.8,0
				c-3.9-0.65-5.85-1.3-6.5-1.95c-0.65-0.65-2.23,1.02-3.25-0.65s-3.9-3.9-5.85-5.85c-1.95-1.95-5.85,0.65-8.45,0
				c-2.6-0.65-1.95,1.95-2.6-0.65s-2.66-3.93-5.2-3.9c-2.54,0.03-1.95-1.3-1.95-1.3s-4.55-1.95-2.6-1.3c0,0-3.7-1.85-4.12-0.92
				C858,75.62,858.43,77.54,858.43,77.54z"/>
			<path class="st36" d="M892.44,112.66c1.3,1.3,5.2-3.25,6.5-1.3c1.3,1.95-1.73,1.67,0.44,3.76c2.16,2.09,2.47,2.19,4.27,3.44
				c1.79,1.25,2.95,1.81,4.65,2.83s2.31,1.3,3.3,2.46c0.99,1.16,0.26,1.19,2.57,2.47c2.32,1.29,2.1,0.67,3.83,2.28
				c1.73,1.61,10.18,1.61,12.13,1.61c1.95,0,3.53-1.3,5.66,0c2.14,1.3,4.73,1.3,6.03,1.3s1.3-1.95,4.55-1.3
				c3.25,0.65,5.58,1.95,8.64,1.3c3.06-0.65,7.51,0.35,9.83,0.18c2.32-0.18,4.37-1.73,7.9,0.02s7.3-0.45,9.63,0
				c2.34,0.45,2.34-0.2,4.93-0.2s0-0.65,5.2-0.65c5.2,0,5.2,0,5.2,0s1.3,0.65,5.85-0.65c4.55-1.3,4.55-1.95,8.45-1.3
				c3.9,0.65,7.4-0.9,7.6-0.77c0.2,0.12,1.32-2.11-2.49-1.97c-3.81,0.14-1.63,0.33-7.27,0.89c-5.64,0.55,2.16-2.69-3.04-2.69
				s-4.55-1.3-9.75-1.3s-6.5-3.25-12.35-1.95c-5.85,1.3-5.85,2.6-11.7,3.25c-5.85,0.65-8.45-4.55-14.3-3.25
				c-5.85,1.3-8.35-2.83-13.65-1.95c-5.3,0.88-7.15,2.6-11.05,3.9c-3.9,1.3-4.55-3.25-7.15-3.9c-2.6-0.65,0,0.65-3.9,0
				c-3.9-0.65-5.2-3.25-11.05-1.3c-1.38,0.46-1.95,0-3.25-5.2s-4.55-0.65-7.8-2.6c-3.25-1.95-3.9-2.6-5.2-3.25
				c-1.3-0.65,3.25,0.65-1.3-0.65C889.84,104.86,892.44,112.66,892.44,112.66z"/>
			<path class="st36" d="M927.47,139.78c1.36,1.46,2.68,2.63,3.97,3.67c1.29,1.04,1.5,1.65,4.32,3.3c2.82,1.65,0.55,1.01,3.31,2.63
				c2.76,1.62,5.56,1.73,6.11,3.3c0.55,1.57,1.04,3.6,2.09,4.21c1.06,0.61,2.13,1.64,3.87,1.77c1.74,0.13,0.14,1.14,1.26,1.93
				s3.38,0.5,8.42,0c5.05-0.5,11.27-0.46,14.01,0.49s1.9,1,4.92,0s2.36,0.62,4.97,0.95c2.61,0.33,20.29,0.21,23.79-0.22
				c3.5-0.43,2.85-1.08,6.1-1.08s2.6,0,5.85,0c3.25,0,2.6-1.3,6.5,0c3.9,1.3,6.68,1.6,10.16,1.12c3.48-0.47,6.08-0.47,9.33-1.12
				c3.25-0.65,11.05,0.66,12.35-0.32c1.3-0.98,1.97-0.33,2.61-1.63c0.64-1.3-1.92-1.62-2.91-2.11c-0.99-0.49-10.09-3.09-19.84-1.14
				c-5.25,1.05-14.3-0.65-23.39,0c-9.1,0.65-13.65,2.6-17.54,1.95s-6.7-3.81-13.09-2.88c-6.4,0.93-5.75,1.58-10.3,0.93
				c-4.55-0.65-4.55,1.3-12.35-1.3s-9.1-1.95-10.4-3.9s0.65-0.65-3.9-3.9c-4.55-3.25-1.34-2.73-6.52-2.99
				c-5.18-0.26-3.23-3.51-7.13-4.81c-3.9-1.3-2.03,1.95-5.24,0s-1.26-3.25-3.86-3.25C922.33,135.4,927.47,139.78,927.47,139.78z"/>
			<path class="st36" d="M961.32,169.19c0,1.84,3.79,4.92,6.77,6.36c2.98,1.44,5.58,0.79,5.58,3.39s2.6,2.6,4.55,3.9
				c1.95,1.3,4.55,1.95,8.45,4.55c3.9,2.6,0.65,5.85,5.2,5.85c4.55,0,0,2.6,3.25,3.9c3.25,1.3,13-0.65,18.19-1.3
				c5.2-0.65,11.08,1.47,19.19,0.08c8.1-1.38,4.85-0.73,16.55-0.73c11.7,0,7.7-2.85,14.25-1.43s9.15,4.68,14.34,2.08
				c5.2-2.6,9.64-1.77,13.27-1.86c3.63-0.09,8.83,2.51,10.13,1.86c1.3-0.65,2.41-1.76,2.41-1.76s4.65,0.83,3.72,0.64
				c-0.93-0.18,1.67-6.03-6.78-6.68c-8.45-0.65-9.1-3.9-13.65-3.25c-4.55,0.65-11.05,1.95-18.19,2.6c-7.15,0.65-7.8,1.3-16.89-0.65
				c-9.1-1.95-16.24,0.65-21.44,0.65c-5.2,0-8.99,1.99-11.7,0.65c-2.71-1.35,1.3,0-7.15-1.95s-8.56-2.27-14.03-3.09
				c-5.47-0.81-6.43-1.74-7.9-3.55s-2.61,1.75-5.61-3.28c-3-5.03-1.99-6.33-8.34-6.98C969.12,168.54,961.32,166.59,961.32,169.19z"
				/>
			<path class="st36" d="M1006.58,210.21c5.43,4.46,4.13,7.06,8.02,9.01c3.9,1.95,2.38-2.73,7.36,0.91
				c4.98,3.64,5.63,11.44,10.83,9.49c5.2-1.95,3.25-1.95,6.5-0.65c3.25,1.3,1.3,5.85,6.5,6.5c5.2,0.65,6.5-1.95,15.59-2.6
				c9.1-0.65,7.15-3.25,16.24-0.65c9.1,2.6,9.1,3.25,13.65,3.25s0.65-2.6,6.5-1.95c5.85,0.65-0.65-0.65,5.85-0.65
				c6.5,0,9.1-1.95,13-0.65s5.85,0,9.1,0s1.95-1.95,8.45-1.3c6.5,0.65,3.9,1.76,6.5-0.42c2.6-2.18,2.98-1.24,1.49-4.31
				c-1.49-3.07,2.03-6.24-2.98-3.35s-1.21-0.93-9.93,0c-8.72,0.93-8.37-0.93-12.12,0c-3.75,0.93-7.65,1.58-7.65,1.58
				s-8.23,1.29-13.21,0.32c-4.98-0.97-23.83-2.27-25.78-2.92c-1.95-0.65-9.41-0.28-13,0s-7.15,2.6-11.7-0.65
				c-4.55-3.25-5.85,0-8.45-1.3c-2.6-1.3-5.2,1.3-9.75-3.9c-4.55-5.2-8.45-1.3-12.35-3.9s-5.85-3.9-7.15-3.9
				S1006.58,210.21,1006.58,210.21z"/>
			<path class="st37" d="M814.97,32.77c0,0,6,1.26,8.6,1.26c2.6,0,3.13-1.22,6.44-1.26c3.31-0.04,6.23,1.26,8.34,1.26
				c2.11,0,4.83-1.87,8.34-1.26c3.51,0.61,8.49,1.26,10.88,1.26s10.65,0,12.37,0c1.5,0,9.27,0.99,12.44,0.37
				c0.45-0.09,0.81-0.21,1.05-0.37c1.87-1.3,14.31,1.16,15.56,0.58c1.25-0.58,3.85-2.53,5.8-0.58c1.95,1.95,5.2,3.9,6.5,4.55
				c1.3,0.65,7.19,7.03,8.45,7.15c1.25,0.12-6.5-2.6-6.5-2.6s-1.95,0.65-3.9-1.95s-1.15-1.95-2.6-1.95c-1.3,0-3.9,0-6.5,0
				c-5.02,0-7.59-1.48-11.7-1.95s-9.74-0.18-12.35,0s-5.64,2.42-9.1,0.65c-3.46-1.77-2.6-0.65-6.5,0c-3.9,0.65-3.9-1.3-7.8-2.6
				c-3.9-1.3-7.15-0.65-10.4-0.65c-3.25,0-9.36,0.27-13.13-0.51C825.51,33.38,814.82,36.71,814.97,32.77z"/>
			<path class="st37" d="M834.35,48.37c0,0,6,1.26,8.6,1.26s3.13-1.22,6.44-1.26c3.31-0.04,6.23,1.26,8.34,1.26
				s9.76-1.26,13.27-0.65c3.51,0.61,3.56,0.65,5.95,0.65s10.65,0,12.37,0c1.5,0,9.27,0.99,12.44,0.37c0.45-0.09,6.7-0.21,6.93-0.37
				c1.87-1.3,8.43,1.16,9.68,0.58c1.25-0.58,3.85-2.53,5.8-0.58c1.95,1.95,5.2,3.9,6.5,4.55c1.3,0.65,4.71,7.68,5.96,7.8
				c1.25,0.12-4.01-3.25-4.01-3.25s-1.95,0.65-3.9-1.95c-1.95-2.6-2.33,1.3-3.78,1.3c-1.3,0-2.72-3.25-5.31-3.25
				c-5.02,0-7.59-1.48-11.7-1.95s-9.74-0.18-12.35,0s-2.28,1.77-5.73,0c-3.46-1.77-3.9-1.3-7.8-0.65c-3.9,0.65-5.96,0-9.86-1.3
				c-3.9-1.3-7.15-0.65-10.4-0.65s-9.36,0.27-13.13-0.51C844.89,48.98,834.2,52.3,834.35,48.37z"/>
			<path class="st37" d="M863.59,71.76c0,0,6,1.26,8.6,1.26s3.13-1.22,6.44-1.26c3.31-0.04,6.23,1.26,8.34,1.26s4.83-1.87,8.34-1.26
				s8.49,1.26,10.88,1.26s10.65,0,12.37,0c1.5,0,9.27,0.99,12.44,0.37c0.45-0.09,0.81-0.21,1.05-0.37
				c1.87-1.3,14.31,1.16,15.56,0.58c1.25-0.58,3.85-2.53,5.8-0.58c1.95,1.95,7.83,9.56,9.21,9.1c1.95-0.65,8.49,5.73,9.75,5.85
				c1.25,0.12-6.5,0-6.5,0s-5.2-1.3-7.15-3.9c-1.95-2.6-2.45-3.9-3.9-3.9c-1.3,0-3.36-1.95-5.96-1.95c-5.02,0-7.59-1.48-11.7-1.95
				c-4.11-0.47-9.74-0.18-12.35,0s-5.64,2.42-9.1,0.65c-3.46-1.77-2.6-0.65-6.5,0c-3.9,0.65-3.9-1.3-7.8-2.6
				c-3.9-1.3-7.15-0.65-10.4-0.65c-3.25,0-9.36,0.27-13.13-0.51C874.13,72.37,863.44,75.69,863.59,71.76z"/>
			<path class="st37" d="M897.96,100.82c-0.88-0.21-0.57-1.55,0.32-1.38c1.99,0.37,4.99,0.88,6.63,0.88c2.6,0,3.13-1.22,6.44-1.26
				c3.31-0.04,6.23,1.26,8.34,1.26s4.83-1.87,8.34-1.26c3.51,0.61,8.49,1.26,10.88,1.26c2.38,0,10.65,0,12.37,0
				c1.5,0,9.27,0.99,12.44,0.37c0.45-0.09,0.81-0.21,1.05-0.37c1.87-1.3,14.31,1.16,15.56,0.58s8.92-1.88,10.87,0.07
				s0.12,3.25,1.42,3.9c1.3,0.65,7.28,6.67,8.45,7.15c2.34,0.96,4.44,2.17,6.15,3.33c1.88,1.27,4.95,4.59,2.82,3.82
				c-3.37-1.23-14.3-4.55-16.89-8.45c-1.8-2.7-6.99-2.6-8.45-2.6c-1.3,0-2.6-1.95-5.2-1.95c-5.02,0-5.52-2.13-9.62-2.6
				c-4.11-0.47-9.74-0.18-12.35,0c-2.61,0.18-5.64,2.42-9.1,0.65s-2.6-0.65-6.5,0c-3.9,0.65-3.9-1.3-7.8-2.6
				c-3.9-1.3-7.15-0.65-10.4-0.65s-9.36,0.27-13.13-0.51C907.8,99.86,901.08,101.58,897.96,100.82z"/>
			<path class="st37" d="M922.98,130.2c0,0,9.95-0.12,12.86-0.12s3.51-1.37,7.22-1.42c3.71-0.04,6.99,1.42,9.36,1.42
				s5.42-2.1,9.36-1.42c3.94,0.69,9.52,1.42,12.2,1.42c2.67,0,11.95,0,13.87,0c1.68,0,10.4,1.12,13.95,0.42
				c0.51-0.1,0.91-0.24,1.17-0.42c2.1-1.46,15.43-1.18,16.83-1.83c1.4-0.65,4.94-0.36,7.13,1.83c2.19,2.19,5.71,6.54,7.17,7.27
				c1.46,0.73,11.83,8.94,13,9.75c2.92,2.02-3,4.02-7.8-1.95c0,0-4.31,0.32-6.5-2.6c-2.19-2.91-2.27-4.55-3.9-4.55
				c-1.46,0-4.15-2.09-7.07-2.09c-5.63,0-8.51-1.66-13.12-2.19c-4.6-0.53-8.73,1.48-11.65,1.68s-8.52,1.04-12.39-0.95
				s-2.91-0.73-7.29,0c-4.37,0.73-4.14-2.88-8.74-2.91c-5.37-0.04-7.57,0.61-11.22,0.61s-11.37,0.88-15.59,0
				C937.6,131.27,922.81,134.62,922.98,130.2z"/>
			<path class="st37" d="M956.12,160.29c0,0,7.27,2.01,10.42,2.01s3.8-1.95,7.81-2.01c4.01-0.06,7.56,2.01,10.12,2.01
				s5.86-2.98,10.12-2.01s10.3,2.01,13.19,2.01s12.92,0,15,0c1.82,0,11.24,1.58,15.09,0.59c0.55-0.14,0.99-0.33,1.27-0.59
				c2.27-2.07,16.83-0.63,18.35-1.55s6.73-3.1,9.1,0s5.57,6.11,7.15,7.15c1.58,1.03,7.58,6.96,9.1,7.15
				c0.27,0.03,1.81,0.89,2.01,1.21c1.36,2.11-2.66,3.34-3.96,0.74c-1.72-3.44-8.92-0.89-10.32-3.33c-2.36-4.13-1.39-3.1-3.15-3.1
				c-1.58,0-4.73,0-7.88,0c-6.09,0-9.21-2.35-14.18-3.1c-4.98-0.75-11.81-0.28-14.97,0c-3.16,0.28-6.84,3.85-11.03,1.03
				c-4.19-2.82-3.15-1.03-7.88,0c-4.73,1.03-4.73-2.07-9.46-4.13c-4.73-2.07-8.67-1.03-12.61-1.03c-3.94,0-11.35,0.43-15.92-0.82
				C968.91,161.26,955.94,166.54,956.12,160.29z"/>
			<path class="st37" d="M997.06,197.78c0,0,8.88-1.31,12.02-1.43c3.14-0.12,3.7-2.34,7.69-2.56c3.99-0.22,7.61,1.98,10.16,1.88
				c2.55-0.1,5.7-3.58,9.98-2.64c4.28,0.94,10.34,1.87,13.21,1.76c2.88-0.11,12.86-0.49,14.93-0.57c1.81-0.07,11.26,1.36,15.04,0.1
				c0.54-0.18,0.97-0.41,1.24-0.72c2.17-2.42,17.36,1.42,18.83,0.32c1.47-1.09,4.47-4.71,6.96-1.3c2.49,3.41,12.75,9.05,14.05,12.3
				c0.73,1.82,11.06,8.35,11.7,9.75c3.25,7.15-3.9,0.65-3.9,0.65s-11.77-2.58-14.3-7.15c-2.53-4.57-2.79-3.97-4.55-3.9
				c-1.57,0.06-6.61,0.53-9.75,0.65c-6.06,0.23-8.01-3.24-13-3.9c-4.99-0.66-11.42-1.7-14.55-1.27c-3.14,0.44-6.64,4.6-10.94,1.58
				c-4.29-3.02-3.18-1.05-7.84,0.3s-6.06,0.24-10.86-1.91c-4.79-2.15-6.48-0.8-10.4-0.65c-3.92,0.15-12.29,1.89-16.89,0.65
				C1011.3,198.49,997.14,204.84,997.06,197.78z"/>
			<path class="st35" d="M1174.3,163.01h15.23c1.23,0,1.63-0.97,1.72-1.27c0.09-0.3,0.31-1.33-0.71-2.02L1013.72,38.87
				c-2.62-1.79-5.68-2.74-8.86-2.74h-5.41c-1.22,0-1.62,0.96-1.72,1.25c-0.09,0.29-0.33,1.3,0.66,2.02l166.71,120.64
				C1167.8,161.98,1170.98,163.01,1174.3,163.01z"/>
			<path class="st35" d="M1150.35,163.01c1.22,0,1.62-0.96,1.72-1.25c0.09-0.29,0.33-1.3-0.66-2.02L984.95,39.29
				c-2.62-1.9-5.71-2.93-8.95-2.98l-11.55-0.19c-1.15,0.01-1.57,0.86-1.69,1.22c-0.13,0.37-0.32,1.3,0.61,2.01l157.02,120.41
				c2.72,2.09,6.12,3.24,9.55,3.24H1150.35z"/>
			<path class="st35" d="M1107.59,159.78L950.8,39.55c-2.67-2.05-5.99-3.2-9.35-3.24l-13.95-0.18c-1.15,0.01-1.57,0.85-1.69,1.22
				c-0.13,0.37-0.32,1.3,0.6,2.01l154.39,120.34c2.74,2.14,6.17,3.32,9.65,3.32h16.04c1.17,0,1.58-0.86,1.71-1.22
				C1108.32,161.42,1108.51,160.49,1107.59,159.78z"/>
			<path class="st35" d="M997.64,36.46c-0.58,0.83-4.48,2.13-6.43,1.48s-2.82,0.18-2.82,0.18s-2.57-1.48-3.77-0.83
				c-1.2,0.65-5.82-1-6.76-0.83s-2.61-0.18-5.35,0s-8.16-0.93-9.02-0.05c-0.86,0.88,1.01,1.13-4.15,0.68
				c-5.16-0.45-1.18-1.46-7.07-0.63c-5.89,0.83-3.94,1.48-5.89,0.83s-3.25-2.6-5.2-1.95c-1.95,0.65-5.95,0.95-6.87,1.12
				c-0.92,0.18-2.36,0.22-5.21,0.2c-2.86-0.02-2.62-1.03-3.39-0.2c-0.77,0.83-0.24,2.95,2.74,4.49s1.5,1.54,6.14,4.79
				c4.64,3.25,5.18,4.13,8.48,6.61c3.3,2.48,5.37,1.4,7.91,6.16c2.54,4.76,5.2,4.32,8.75,6.82c3.54,2.5,4.07,3.31,7.06,6.47
				c2.98,3.17,6.53,6.38,10.28,8.03c3.75,1.64,10.85,7.22,14.45,10.28c3.6,3.06,9.02,8.67,13.78,10.74s12.9,10.13,15.33,11.95
				s11.23,8.42,13.65,10.64c2.42,2.22,4.3,5.13,8.88,6.92c4.58,1.79,4.13,3.21,6.96,5.42c2.82,2.22,2.71,4.35,7.97,6.21
				c5.25,1.86,4.5,3.59,6.82,5.32c2.33,1.73,3.75,3.15,5.64,4.39c1.89,1.24,0.98,1.37,5.01,3.9c4.03,2.53,1.26,2.39,5.24,4.09
				c3.98,1.7-2.58,2.07,2.65,2.53c5.23,0.46,9.11-0.2,12.37,0.78c3.26,0.98,1.96,2.28,5.21,0.98c3.25-1.3,1.56-1.31,7.28-0.98
				c5.72,0.33,11.03-0.98,15.52,0c4.49,0.98-4.05,0.32,4.77,0c8.82-0.32,13.26-0.98,16.24,0c2.98,0.98,0.63-0.98,7.33,0
				c6.7,0.98,3.15-0.98,8.17,0c5.02,0.98,4.57,0.32,8.05,0c3.48-0.32-1-1.18,4.16-0.1s0.06-0.23,7.16,0.1c7.1,0.33,8.03,1.62,9.84,0
				c1.81-1.62,4.28-3.18-0.53-4.35c-4.81-1.17-21.97-16.67-25.41-17.37c-3.44-0.7-11.58-8.02-13.04-8.91s-9.86-8.68-15.08-10.31
				c-5.22-1.63-16.3-11.87-19.86-13.57s-10.43-8.77-14.79-10.11c-4.36-1.34-17.34-10.33-19.95-13.63c-2.61-3.3-6.01-3.81-8.53-5.83
				s-8.37-3.32-10.32-5.92s-18.75-13.11-21.72-15.98s-10.04-6.63-11.7-8c-1.67-1.37-6.65-3.11-8.71-4.84
				c-2.06-1.73-2.71-3.68-5.31-5.62c-2.6-1.95-2.85-1.23-5.65-1.91s-3.93-1.69-5.96-0.54C1000.96,37.28,997.64,36.46,997.64,36.46z"
				/>
			<path class="st36" d="M929.15,38.91c1.3,1.3,0.38,0.95,2.46,2.75s2.47,1.57,5.2,4.93c2.73,3.36,7.28,3.36,9.88,6.61
				c2.6,3.25,2.06,2.82,4.28,5.31c2.22,2.49,0.94,2.99,4.83,4.69c3.89,1.7,11.97,13.33,16.05,13.37
				c4.08,0.03,15.58,9.88,16.98,11.45c1.4,1.57,4,0.27,7.9,4.82c3.9,4.55,5.55,5.65,9.27,8.35c3.72,2.7,4.19,3.26,6.88,5.58
				c2.69,2.32,20.23,14.66,22.18,16.61c1.95,1.95,3.22,2.64,6.81,4.57c3.59,1.93,5.54,2.58,8.79,5.83c3.25,3.25,4.39,2.78,6.74,5.94
				s14.11,12.73,14.11,12.73s3.19,0.18,5.14,2.12c1.95,1.95,0,1.3,3.25,3.25c3.25,1.95,1.3,3.9,6.5,3.9s4.06-1.3,6.58,0
				c2.52,1.3,7.03,1.29,10.3,1.3c3.27,0,2.94-1.55,2.94-1.55s-2.27,0.25-6.82-0.4s-13.58,0.39-14.91-2.41
				c-1.33-2.79-2.63-3.44-9.13-8.64c-6.5-5.2-6.9-3.5-9.3-7.92c-2.4-4.42-8.29-7.85-11.52-9.71c-3.23-1.86-14.92-6.41-16.87-9.01
				c-1.95-2.6-9.1-9.75-13.65-12.35c-4.55-2.6-9.14-7.83-12.69-10.74c-3.55-2.91-2.9-2.26-6.15-3.56
				c-3.25-1.3-24.04-15.59-27.29-20.14c-3.25-4.55-5.2-1.95-8.45-5.85c-3.25-3.9-11.7-6.5-16.24-12.35
				c-4.55-5.85-3.07-7.59-6.08-8.02c-3.02-0.43-5.07-2.01-5.07-2.01s0.75-2.31-3.8-3.61C933.7,43.46,929.15,38.91,929.15,38.91z"/>
			<path class="st36" d="M961.32,38.1c0.97,3.41,0.97,1.46,0.97,3.41c0,1.95,1.3,3.25,3.9,5.85c2.6,2.6,2.6,1.95,8.45,5.85
				c5.85,3.9,7.6,7.15,9.97,9.42c2.37,2.27,8.87,4.22,11.47,6.17s3.9,3.25,9.1,6.5c5.2,3.25,7.8,3.25,11.05,7.8s2.6,7.15,7.15,8.45
				c4.55,1.3,7.15,0.65,9.1,3.9s5.85,5.85,7.15,7.15c1.3,1.3,1.7,1.66,3.45,3.43c1.75,1.77,8.9,4.37,9.55,5.02
				c0.65,0.65,4.81,4.43,5.98,5.14c1.17,0.71,1.82,0.71,7.02,5.26s9.1,8.45,10.4,9.75c1.3,1.3,0.01,0.65,5.2,4.22
				c5.19,3.57,4.24,4.39,8.94,7.56s8.6,5.76,10.55,7.06c1.95,1.3,0,1.95,4.55,4.55s9.01,1.95,10.68,4.22
				c1.67,2.27,0.37,2.27,2.97,2.92s6.89-0.65,7.02,0s-4.51,0.64,2.68,1.3c7.2,0.65,7.65-1.57,11.32-0.78c3.67,0.79,4.02,0,4.02,0
				s-1-3.11-6.85-2.46c-5.85,0.65-8.52-1.26-10.43-0.63s0.68,2.58-3.21,0.63s-3.94-1.61-7.49-3.41c-3.55-1.79-3.65-1.52-5.55-4.26
				c-1.9-2.73-0.13-1.75-5.89-4.52c-5.76-2.77-4.52-2.32-10.01-5.79c-5.49-3.47-4.09-5.33-8.36-8.3c-4.28-2.97-7.92-6.02-9.67-7.42
				s-6.3-7.25-9.55-9.85s-3.25-3.9-7.15-5.85c-3.9-1.95-7.72-2.71-8.08-3.3s-3.08-0.54-4.97-3.81c-1.89-3.28-0.59-5.23-6.44-8.48
				c-5.85-3.25-4.55-2.6-7.8-4.55c-3.25-1.95-3.25-3.25-5.85-5.2c-2.6-1.95-1.3-1.3-4.55-3.25s-1.62-0.19-4.38-3.02
				c-2.77-2.83-0.37-1.29-5.47-4.66c-5.1-3.37-3.8-3.37-7.7-4.67c-3.9-1.3-4.03-0.99-6.89-2.44s-9.23-6.38-12.22-8.79
				c-2.99-2.41-4.29-3.71-4.94-3.71s1.95,1.95-2.6-1.95c-4.55-3.9-7.15-3.9-8.45-5.2c-1.3-1.3,2.94,3.01-3.4-3.69
				C959.69,36.96,961.32,38.1,961.32,38.1z"/>
			<path class="st36" d="M995.51,37.57c-1.24,0.49-3.82,2.29,0,4.08s3.82,1.15,5.12,3.1c1.3,1.95,3.9,1.95,5.2,4.55
				s1.45,2.08,4.95,4.29c3.5,2.21,5.02,0.37,9.13,5.51s4.11,5.79,7.36,8.39c3.25,2.6,8.45,3.25,10.4,5.85
				c1.95,2.6,4.55,3.9,7.15,5.2s7.08,6.6,11.66,8.82c4.58,2.22,13.68,8.07,16.28,10.02s6.5,3.9,8.45,5.2
				c1.95,1.3,4.55,1.3,7.15,4.55s10.4,7.8,11.7,8.45c1.3,0.65,3.25,5.2,5.2,7.15s4.79,4.11,8.89,5.63c4.1,1.52,4.54,1.99,7.9,4.03
				c3.35,2.04,11.32,6.15,11.32,6.15s-0.07,2.56,3.13,4.42c3.2,1.87,6.59,3.96,8.79,6.16s2.85,1.55,5.45,4.15s4.55,3.25,5.2,3.9
				s2.6,3.25,2.6,3.25s0.22,1.03,4.33,1.81c4.12,0.79,3.13,0.51,4.27,0s-3.41-1.81,1.14-0.51c4.55,1.3,12.84,0.94,11.7-0.65
				c-1.01-1.4-8.19-1.41-9.1-1.95c-0.56-0.33,0,1.95-4.55-1.3c-4.55-3.25-0.65-3.25-5.85-3.9c-5.2-0.65-5.29-0.98-7.19-2.44
				c-1.9-1.46,0.01,0.03-3.2-4.06c-3.21-4.09-11.64-5.47-13-8.45s-8.45-7.15-11.05-7.15s-4.03-3.21-6.24-3.88
				c-2.21-0.67-4.81-0.67-6.11-2.62c-1.3-1.95-0.99-2.32-3.1-4.74s-2.6-1.79-5.6-4.05s-6.65-3.16-6.65-3.16s0.37,1.4-2.86-3.72
				c-3.23-5.12-3.88-4.47-7.78-7.07c-3.9-2.6-0.65-3.9-9.75-7.15c-9.1-3.25-9.75-2.6-11.05-3.9c-1.3-1.3-1.01-0.55-3.43-3.52
				c-2.42-2.98-3.72-0.38-6.97-3.63c-3.25-3.25-7.54-6.07-8.65-7.26c-1.1-1.19-1.75-3.14-5-4.44c-3.25-1.3-4.55-1.3-5.85-2.6
				s-2.6,0-6.5-5.2c-3.9-5.2-5.85-3.9-8.45-7.15s-4.62-4.28-6.21-5.71c-1.59-1.44,0.85-1.2-3.62-2.62
				c-4.47-1.42-5.12-0.12-6.42-2.72s-2.19-3.64-4.34-5.07s-2.29-2.73-3.85-2.73S995.6,37.54,995.51,37.57z"/>
			<path class="st37" d="M948.28,38.02c2.32,1.53,2.4,1.84,3.99,3.63c1.58,1.8-0.28,0.91,2.6,2c2.88,1.09,2.48-0.19,5.28,3.05
				s2.8,4.54,6.05,6.49c3.25,1.95,7.85,5.4,10.42,6.92c2.57,1.52,5.25,1.89,7.48,4.96c2.24,3.07,5.49,5.66,7.44,7.61
				c1.95,1.95,7.08,3.38,8.09,4.29s4.26,4.16,5.56,6.11s4.59,3.35,7.49,4.93c2.9,1.57,7.72,7.5,13.11,10.38s5.79,2.92,8.51,5.17
				c2.72,2.26,2.96,2.18,5.44,4.17c2.48,1.99,4.43,3.94,7.03,6.53c2.6,2.6,6.9,2.83,8,4.99s11.49,9.96,12.79,11.25
				s2.6,3.25,4.55,4.55s3.25,2.6,5.85,5.85c2.6,3.25,4.58,2.11,7.16,4.3c2.58,2.2,5.18,2.85,7.78,5.44c2.6,2.6,3.9,1.95,5.85,4.55
				s3.9,3.25,3.9,5.2c0,1.95-4.59,2.59,0.63,2.6c5.22,0,7.17-1.95,7.17-1.95s0-1.26,0-1.93c0-0.67,3.54,4.9,3.4,3.09
				c-0.15-1.81-1.83-3.05-5.54-5.68c-3.71-2.63-4.36-0.03-6.95-3.28c-2.6-3.25-4.29-7.02-9.29-9.03c-5-2.01-8.25-5.26-10.85-7.86
				c-2.6-2.6-5.85-3.25-7.15-5.85s-3.9-1.3-6.5-4.55c-2.6-3.25,1.3-2.6-3.25-4.55s-7.15-3.25-8.45-5.2s-0.65-3.9-3.25-5.2
				s-2.35-1.46-4.75-3.65c-2.4-2.2-1.1-2.2-6.3-4.79c-5.2-2.6-1.61,0.08-8.93-4.18c-7.32-4.26-5.64-5.12-8.43-6.64
				c-2.79-1.52-5.99-4.27-7.96-5.82s-1.97-0.25-3.92-3.5c-1.95-3.25,3.32-1.12-2.24-4.46c-5.56-3.34-6.43-2.07-7.95-4.66
				c-1.51-2.58-1.08-1.17-3.9-2.85c-2.82-1.68-2.77-2.68-4.74-3.16s0.58,2.06-3.95-1.81s-4.54-3.16-6.16-4.16s-3.56-1.65-4.86-2.95
				c-1.3-1.3,1.3-1.95-3.9-5.2c-5.2-3.25-6.26-3.34-6.7-4.27s-0.21-1.35-2.28-2.11c-2.07-0.77-1.98,1.28-3-2.02
				c-1.02-3.3,0.28-2-2.32-3.95c-2.6-1.95-1.65-2.41-3.1-2.83c-1.45-0.42,0.58-0.48-2.38-0.45c-2.97,0.03-1.24-0.68-3.72,0
				c-2.49,0.68-3.15-0.09-3.8-0.03c-0.64,0.06-1.8-0.63-1.8-0.63L948.28,38.02z"/>
			<path class="st37" d="M975.13,38.02c-0.41,0.74,4.91,0.23,6.11,0.88c1.2,0.65,2.3,0.85,3.38,1.72s0.28-1.68,5.22,2.2
				c4.95,3.88,8.85,6.47,10.79,9.07c1.95,2.6,3.25,4.55,6.5,7.15c3.25,2.6,11.91,5.72,12.78,6.76c0.87,1.04,8.19,4.58,9.4,6.7
				c1.21,2.13,6.41,5.38,7.71,6.03c1.3,0.65,2.6,2.6,4.55,3.25c1.95,0.65-2.6-0.65,3.9,2.6c6.5,3.25,1.79,3.67,7.07,5.41
				s13.48,8.16,13.48,8.16s1.34,2.81,4.69,3.4c3.35,0.59,4.95,2.89,7.08,4.66c2.12,1.77-3.08,2.42,2.77,4.37
				c5.85,1.95,5.2,3.25,8.45,5.85s7.99,3.92,10.82,6.19c2.83,2.26,1.35,1.3,4.04,4.7c2.69,3.41,2.98,3.23,6.41,5.27
				c3.43,2.04,9.93,6.59,13.83,9.19s6.27,0.54,9.31,5.14c3.04,4.6,8.5,6.36,11.62,8.41c3.12,2.04,4.98,4.41,5.02,4.85
				s-1.36,1.47-1.63,2.25c-0.28,0.79,1.74-1.07,3.66-0.47c1.92,0.6,5.65,0.98,5.73,0.47s2.68-1.16,0.73-1.81
				c-1.95-0.65-2.47,0.65-4.16-1.62s0.26-2.27-3.64-5.52c-3.9-3.25-4.49-1.65-6.79-3.42c-2.3-1.77-8.86-7.73-10.13-9.62
				c-1.27-1.9-2.42-4.5-6.39-4.82s-16.24-8.28-18.23-9.5c-1.99-1.22-6.54-9.02-9.14-10.32c-2.6-1.3-15.06-12.17-16.63-11.93
				c-1.57,0.23-3.98-1.9-7.32-4.08c-3.34-2.18-8.02-6.64-12.18-7.98s-10.16-5.71-11.39-6.78c-1.22-1.07-10.41-8.63-13.94-10.37
				c-3.53-1.74-9.25-3.95-10.61-6.42c-1.36-2.47-5.91-5.84-6.89-7.4s-13.32-6.11-15.27-8.06c-1.95-1.95-0.69-3.75-4.57-7.07
				s-4.54-3.8-5.18-3.56c-0.64,0.24,0.16-1.52-2.51-1.94c-2.68-0.42-1.72,0.23-5.77-1.07C983.74,37.61,975.61,37.14,975.13,38.02z"
				/>
			<path class="st37" d="M1007.31,36.91c1.77,1.99,3.07,2.64,5.02,3.29c1.95,0.65,4.77,2.15,7.58,4c2.82,1.85,9.72,4.98,11.46,6.66
				s3.05,3.63,5.65,6.23s8.05,5.5,10.85,6.33c2.8,0.82,2.8,2.77,5.4,5.37s10.51,4.47,11.75,6.46c1.24,1.99-0.79,1.95,4.13,4.57
				c4.91,2.62,6.87,5.07,8.49,6.12c1.62,1.05,5.65,2.28,9.16,3.94c3.51,1.66,1.56,2.96,6.11,6.2c4.55,3.25,4.72,3.25,7.23,4.87
				c2.51,1.63,3.16,1.63,5.11,3.58c1.95,1.95,3.9,3.9,7.15,5.85c3.25,1.95,8.48,1.25,10.74,3.55c2.26,2.3,1.97,3.83,4.71,5.34
				s4.04,1.51,5.34,3.46s1.95,2.6,3.9,3.9c1.95,1.3,5.23,4.37,8.79,5.76c3.56,1.39,6.16,3.34,8.11,5.29s9.1,6.5,10.4,6.5
				c1.3,0,6.1,1.44,10.52,4.94c4.42,3.5,2.47,2.85,6.37,6.1c3.9,3.25,3.9,4.55,5.85,5.2c1.95,0.65,3.25,0.65,2.6,0.65
				s1.95-0.61,1.62-1.93c-0.32-1.32-4.22-1.32-6.17-5.22c-1.95-3.9-9.75-7.15-13.65-12.35s-4.55-1.95-7.8-4.55
				c-3.25-2.6-0.5-2.19-4.47-4.02s-3.07-0.66-7.1-4.17c-4.02-3.51-1.43-0.91-6.62-5.46c-5.2-4.55-5.85-5.2-8.45-7.15
				s-7.15,0.65-11.05-3.9c-3.9-4.55,0-3.25-7.15-7.15c-7.15-3.9-8.35-2.78-9.37-5.61c-1.02-2.83-5.57-3.48-6.87-4.13
				c-1.3-0.65-5.27-5.92-8.16-6.53c-2.89-0.61-9.39-2.56-11.34-5.16c-1.95-2.6-5.2-3.9-7.8-5.85c-2.6-1.95-0.41-0.41-4.43-3.46
				c-4.02-3.04-4.02-4.99-6.62-5.64s-2.11-0.61-6.9-3.88c-4.79-3.27-7.79-1.56-9.54-5.66c-1.75-4.1-11.5-5.4-13.45-8.65
				s-3.25-4.55-5.85-5.85c-2.6-1.3,0.65,1.3-4.55-3.25c-5.2-4.55-6.99-1.95-8.37-2.6c-1.38-0.65-2.61-1.34-2.61-1.34L1007.31,36.91z
				"/>
		</g>
		<g>
			<path class="st35" d="M546.8,36.59c0,0-4.17,3.52-10.22,8.68c-6.05,5.16-20.46,21.78-27.57,28.42
				c-7.12,6.63-15.73,15-25.07,23.49s-10.64,1.99-21.04,13.04c-10.4,11.05-12.4,14.02-15.62,21.31
				c-3.22,7.28-10.8,11.04-12.21,11.44s7.61-1.02-7.3,6.84c-14.91,7.86-26.27,24.37-29.69,27.81c-3.41,3.44-8.3,0.91-15.93,11.59
				c-7.63,10.69-11.29,18.14-25.7,27.41s-29.92,22.62-41.99,39.34s-34.61,24.34-49.33,40.35c-14.72,16.01-26.42,24.46-30.96,29.65
				c-4.55,5.2-8.15,13.47-14.79,19.08c-6.65,5.61-20.04,18.93-22.12,20.72c-2.08,1.79-5.32-0.81-13.12,6.34
				c-7.8,7.15-9.85,7.1-15.64,7.12c-5.8,0.02-18.76-0.01-20.4-0.32s-29.01-0.02-31.89-2.44s47.35-46.83,59.59-58.09
				s53.72-51.3,62.23-55.32s5.3-5.51,13.4-11.91c8.1-6.4,19.54-23.88,32.01-28.46c12.47-4.58,19.42-21.86,32.84-31.41
				c13.42-9.56,26.68-24.54,30.12-27.77c3.44-3.23,24.53-14.29,32.83-25.98s17.05-16.19,23.72-21.09s14.3-12.31,19.91-17.7
				c5.6-5.39,12.56-10.69,18.18-16.16c5.62-5.47,15.22-13.12,18.86-16.77c3.65-3.65,8.91-8.03,15.7-13.96
				c6.79-5.93,8.9-8.88,12.72-11.31c3.82-2.42,7.28-4.11,14.97-3.92c7.69,0.2,8.25,1.1,19.67,0
				C534.38,35.48,544.13,33.14,546.8,36.59z"/>
			<path class="st36" d="M542.91,39.42c-0.73,1.26-6.91,7.99-15.52,13.4c-8.61,5.41-11.73,4.05-16.67,8.63
				c-4.94,4.58-5.59,11.08-11.44,14.32c-5.85,3.25-11.68,3.73-18.51,11.94s-5.53,10.26-10.73,11.18c-5.2,0.92-7.8-8.17-12.35-7.53
				s-11.34,7.53-11.34,7.53s4.1-0.92,8.05,0c3.95,0.92,8.5,4.82,5.9,7.42c-2.6,2.6-15.3,2.98-17.07,3.76
				c-1.77,0.79,7.95,2.46,1.79,7.8c-6.16,5.34-5.72,6.36-8.54,8.77c-2.82,2.41-9.32,10.21-11.27,12.16
				c-1.95,1.95,0.59,4.22-8.8,9.91c-9.39,5.69-8.74,7.64-15.89,6.99c-7.15-0.65-6.04,0.85-13,1.3s3.49,4.48,3.9,5.2
				c0.41,0.72,7.15,3.25,0,8.45c-7.15,5.2-16.6,9.7-23.24,15.9c-6.65,6.2-9.98,7.06-18.71,14.75c-8.73,7.69-22.87,4.59-27.82,9.71
				c-4.95,5.12-10.8,8.37-6.9,12.27c3.9,3.9,2.6,9.75-3.9,13.65c-6.5,3.9-4.98,4.16-10.94,7.28s-2.06,1.17-6.61,8.31
				c-4.55,7.15-5.65,11.34-18.42,16.72s-24.6,16.33-26.81,18.33c-2.21,1.99-9.64,12.81-11.77,15.2c-2.13,2.39,1.12,0.44-7.98,3.69
				c-9.1,3.25-13.51,11.51-13.51,11.51s9.75,6.34-4.68,12.54c-14.43,6.2-12.23,0.35-16.89,7.8c-4.67,7.45-0.02,7.41-3.9,8.45
				c-9.75,2.6-7.8-1.95-16.27,1.17c-3.96,1.46,3.93,8.58-7.77,9.23c-11.7,0.65-22.74-1.95-26.64,3.25s-7.15,9.1-4.55,9.75
				c2.6,0.65,1.88,11.05,4.55,6.5s12.28-4.63,16.24-2.6s11.05,5.2,20.14,0c9.1-5.2,10.14-8.18,15.79-11.56
				c5.65-3.38,4.07,0.02,10.71-7.86s52.09-45.81,61.2-55.76c9.11-9.95,23.41-17.09,30.56-28.14c7.15-11.05-0.65-7.15,10.4-14.3
				c11.05-7.15,29.69-33.8,34.34-37.69c4.65-3.89,23.17-13.54,33.4-25.94c10.24-12.4,15.26-5.83,22.17-17.23
				c6.91-11.41,3.99-5.04,11.62-13.42s23.83-15.86,25.48-21.22s19.84-21.6,27.64-28.75c7.8-7.15,5.77-8.34,17.51-13.27
				s37.72-32.87,44.87-40.66S542.91,39.42,542.91,39.42z"/>
			<path class="st37" d="M484.34,57.58c0,0-19.94,12.38-25.99,17.54c-6.05,5.16-8.48,4.41-15.59,11.05
				c-7.12,6.63-7.56,14.9-16.89,23.39s-17.54,12.35-27.94,23.39c-10.4,11.05-18.22,14.16-21.44,21.44
				c-3.22,7.28-24.58,17.8-25.99,18.19c-1.41,0.4-7.84,21.38-22.74,29.24c-14.91,7.86-24.53,16.06-27.94,19.49
				c-3.41,3.44-11.87,10.76-19.49,21.44c-7.63,10.69-14.18,16.07-28.59,25.34c-14.41,9.27-21.08,5.37-33.14,22.09
				c-12.06,16.72-21.67,12.58-36.39,28.59c-14.72,16.01-22.74,20.79-27.29,25.99c-4.55,5.2,0.15,1.54-6.5,7.15
				c-6.65,5.61-10.92,4.71-13,6.5c-2.08,1.79,2.6,4.55-5.2,11.7c-7.8,7.15,18.14,3.87,12.35,3.9c-5.8,0.02,7.08,4.78,5.44,4.47
				s-29.01,1.28-31.89-1.14c-2.88-2.42,47.35-46.83,59.59-58.09c12.25-11.25,53.72-51.3,62.23-55.32s5.3-5.51,13.4-11.91
				c8.1-6.4,19.54-23.88,32.01-28.46c12.47-4.58,19.42-21.86,32.84-31.41c13.42-9.56,26.68-24.54,30.12-27.77
				c3.44-3.23,24.53-14.29,32.83-25.98s17.05-16.19,23.72-21.09s14.3-12.31,19.91-17.7c5.6-5.39,12.56-10.69,18.18-16.16
				s15.22-13.12,18.86-16.77c3.65-3.65,8.91-8.03,15.7-13.96c6.79-5.93,8.9-8.88,12.72-11.31c3.82-2.42,7.28-4.11,14.97-3.92
				c7.69,0.2,8.25,1.1,19.67,0C534.28,36.4,481.68,54.13,484.34,57.58z"/>
			<path class="st35" d="M365.24,48.98c-0.79,0.94,3.08,1.04,4.3,0.86c4.42-0.64,14.62-2.02,17.15-1.51
				c12.74,2.55,26.36,0.58,30.4-0.03s3.36,3.02,11.17,1.85c7.81-1.17,6.61-1.76,13.71-1.79s6.45,1.27,9.05,1.27
				c2.6,0,4.55,0.65,7.8-0.65c3.25-1.3,0.65-1.95,3.9-3.9c3.25-1.95,5.52-1.99,6.98-4.24c1.46-2.25,4.92-1.87,5.47-4.01
				c0.54-2.14,0.84-3.36-1.91-3.4c-2.75-0.04-3.79,1.18-8.79,0.25c-5-0.93-7.65-1.01-10.88,0s-6.13,0.28-7.6,0
				c-1.47-0.28-9.52-1.01-13.62,0s-6.05,1.01-9.3,1.01c-3.25,0-9.09-1.38-12.99-1.01c-3.9,0.36-4.06,0.28-6.26,0s-4.77,0.28-6.41,0
				c-1.63-0.28-5.53,1.01-6.18,1.01s-1.14-1.81-4.47-0.9c-3.33,0.9-3.33,0.9-3.33,0.9s1.02-0.95-0.79,0.18s-2.28,0.53-3.67,2.13
				c-1.39,1.6-3.56,1.55-3.45,3.2s-3.14,2.3-3.79,3.6C371.37,44.51,366.47,47.51,365.24,48.98z"/>
			<path class="st35" d="M459.02,51.31c0,0,0.8,0.51-2.15,3.47c-2.95,2.95-4.27,2.79-6.36,5.64c-2.09,2.85-2.67,3.11-4.65,3.95
				c-1.99,0.85-5.24,6.7-7.18,6.7c-1.95,0-3.63,1.3-15.46,0s-13.78,0.65-17.68,0c-3.9-0.65-14.3,0.65-20.79-0.65
				c-6.5-1.3-9.75,0-13.65,0c-3.9,0-6.5-1.95-12.35-0.65c-5.85,1.3-8.11,2.45-11.53,1.88c-3.42-0.58-9.92-0.58-7.32-2.53
				c2.6-1.95,6.51-2.83,9.43-5.96c2.92-3.13,4.43-5.7,6.6-6.69c2.17-0.99,2.72-5.34,9.91-6.09c7.2-0.75,14.99-0.75,19.54-1.4
				s3.9,0.65,5.85,0.65s11.76,0.46,14.98-0.09c3.21-0.56,10.54-1.57,12.08-0.74c1.54,0.83,1.51,1.87,5.42,1.35
				c3.91-0.52,9.15-2.26,14-1.39c4.85,0.87,5.63-0.12,7.84-0.28c2.21-0.15,13.29,0.23,13.6,1.67S459.02,51.31,459.02,51.31z"/>
			<path class="st35" d="M434.32,72.17c-0.2,1.5,1.49,1.41-1.63,4.05c-3.12,2.64-3.07,1.26-4.4,3.9c-1.32,2.64-3.31,4.05-5.24,4.65
				c-1.93,0.59,0.22-0.02-2.16,1.91c-2.38,1.93-6.93,4.53-11.47,7.13c-4.55,2.6-2.76,3.58-6.5,5.85
				c-3.73,2.26-26.33-3.88-33.96-2.26c-7.63,1.61-26.38-0.56-29.02-0.45c-2.65,0.11-16.29,0.11-16.94,0.11
				c-0.65,0-15.59-0.65-16.89,0c-1.3,0.65,2.6-1.3,3.25-2.6c0.65-1.3-0.65-1.3,2.6-2.6s2.7-3.06,4.27-4.45
				c1.58-1.39,9.3-4.77,9.01-6c-0.29-1.24,2.85-3.1,3.56-3.79c0.7-0.69,3.21-2.76,4.56-3.35c1.34-0.59,2.81-3.03,4.03-2.46
				c1.22,0.57,2.47,0.82,3.79,0.37C342.49,71.72,434.32,72.17,434.32,72.17z"/>
			<path class="st35" d="M402.89,98.43c-1.27,1.88,3.67,0.53,1.2,3.15c-2.47,2.62-3.04,2.32-5.35,4.75
				c-2.31,2.42-2.02,5.02-6.39,5.67c-4.37,0.65-1.34,1.02-3.51,3.11c-2.16,2.09-0.21,0.79-2.16,2.09s-5.2,3.25-8.45,5.2
				c-3.25,1.95-1.3,3.9-3.25,3.9c-1.95,0-1.3,0-3.25,1.3c-1.95,1.3-11.37-1.3-16.08,0c-4.71,1.3-14.46-2.6-20.96-0.65
				c-6.5,1.95-67.58,1.3-67.58,1.3s3.9-3.25,5.2-4.55s1.36,0.04,3.28-2.91s1.62-4.28,5.35-5.89s5.52-3.73,5.92-4.62
				s0.97-0.19,3-2.19s4.18-1.03,5.2-3.9s1.95-3.9,5.23-4.03c4.66-0.19,4.66-1.67,7.18-1.74S402.89,98.43,402.89,98.43z"/>
			<path class="st35" d="M370.22,128.6c0.86,1.61,0.96,2.2-2.01,4.83c-2.97,2.63-4.27,1.98-6.22,4.58c-1.95,2.6-1.11,2.21-3.48,4.03
				c-2.37,1.82-0.08-0.09-3.18,2.82c-3.09,2.9-4.39,1.6-5.69,3.55c-1.3,1.95,0.45,1.59-2.05,2.09c-2.5,0.5-1.4,1.49-4.55,4.57
				c-3.15,3.08-5.1,3.73-7.7,3.73c-2.6,0-2.02-2.45-10.11-0.9c-8.08,1.55-50.97-0.4-50.97-0.4s-37.04-0.65-40.29-0.65
				c-3.25,0-7.15,1.95-7.15,1.95s3.25-3.9,5.85-5.2c2.6-1.3,1.3-0.65,3.9-2.6s2.32-2.95,5.38-5.7c3.07-2.75,3.58-3.81,7.54-5.88
				c3.97-2.07,3.69-1.23,5.45-4.25c1.76-3.02,1.39-2.19,4.18-3.25s3.94-3.5,7.99-4.31c4.05-0.81,3.39-0.55,5.6,0.38
				C274.92,128.9,370.22,128.6,370.22,128.6z"/>
			<path class="st35" d="M335.82,160.6c-0.47,2.1,0.39,1.22-2.31,3.61c-2.71,2.39-4.66,3.03-6.61,4.98
				c-1.95,1.95-2.78,3.41-4.96,5.28c-2.18,1.87-6.08,1.87-6.08,3.82s-0.6,1.45-1.6,3c-1,1.55-1.02,1.06-2.31,1.96
				c-1.29,0.89-0.61-0.1-2.25,1.37c-1.64,1.47,0.96,2.12-2.94,3.42s-5.54,2.57-6.67,3.23c-1.13,0.67-0.05,0.31-3.19,1.79
				c-3.14,1.48-113.02-0.18-112.98,0s-1.92-1.12-1.92-1.12s0.65,0,3.9-2.6c3.25-2.6,4-1.57,4.28-3.06c0.27-1.49-0.16-0.83,2.66-2.46
				s5.36-3.82,5.71-4.67c0.35-0.86,1.87-1.39,4.36-3.4c2.49-2.01,3.93-4.53,7.11-5.54c3.18-1.01,1.73-1.59,3.75-2.92
				s2.27-2.31,4.42-3.45c2.15-1.14,2.25-2.73,5.12-3.23c2.87-0.5,2.21-2.45,3.52-1.8c1.31,0.65,106.09-0.02,107.31,0.64
				C335.35,160.09,335.82,160.6,335.82,160.6z"/>
			<path class="st35" d="M296.24,193.19c0,0,1.18,1.1,0,2.84s-1.83,1.1-3.78,3.7c-1.95,2.6-0.92,1.93-3.39,3.89
				c-2.46,1.96-0.98,2.09-3.02,2.68c-2.04,0.58-2.24,2.05-4.42,3.92c-2.18,1.86-1.44,0.9-3.76,3.33c-2.32,2.43-3.41,1.34-5.46,4.81
				s-5.95,0.87-7.25,2.17c-1.3,1.3-1.3,3.25-3.9,3.25c-2.6,0-6.5-1.3-10.4-1.3c-3.9,0-5.85,2.6-9.1,1.95
				c-3.25-0.65-3.88,0.21-6.16,0.1c-2.28-0.1-3.58,0.17-6.18,1.01s-7.15-2.41-9.75-1.76c-2.6,0.65-4.26,1.85-8.95,1.9
				c-4.69,0.05-4.71,0.6-7.3,0c-2.59-0.6-1.94-1.25-4.54-1.25s-1.3-0.65-4.55,0c-3.25,0.65-7.15,2.41-12.35,1.53
				c-5.2-0.88-4.55-0.88-6.5-0.88s-0.65,0-3.9,0c-3.25,0-13-1.95-15.59-0.65c-2.6,1.3-1.95,1.3-5.2,0c-3.25-1.3-3.25,1.3-3.25-1.3
				s0.33-4.7,0.49-4.62c0.16,0.07-0.12-0.33,3.92-3.05s3.88-0.79,5.59-4.35s1.94-1.52,4.1-3.19c2.16-1.67,5.39-2.7,5.73-4.46
				c0.33-1.76,4.97-3.11,6.88-5.36s2.66-2.59,5.2-3.07c2.55-0.48,5.33-0.94,5.33-0.94L296.24,193.19z"/>
			<path class="st36" d="M459.15,50.15c0,0-2.94,0.78-6.19-0.52c-3.25-1.3-10.49-0.65-13.37,0c-2.88,0.65-6.78,0.13-11.32,0.39
				s-8.24,1.01-9.75,0.26c-1.51-0.75,0.02-1-3.56-0.5c-3.58,0.5-4.44,0.05-9.54,0.6c-5.09,0.55-4.7,0.75-8.15,0
				c-3.45-0.75-9.29-0.26-12.22-0.51c-2.93-0.25-2.53,1.26-6.95,0.51c-4.42-0.75-6.62-0.54-6.62-0.54s-4.14,1.03-5.6,0.44
				c-1.46-0.59,1.3-1.3,4.55-1.95c3.25-0.65,3.64,0,4.09,0s1.42-1.59,3.7-1.3c2.28,0.29,1.41,2.51,6.23,0.93
				c4.82-1.58,8.07-2.23,9.37-2.23c1.3,0,7.47,5.09,11.05,1.3c3.2-3.4,0,0,5.2-0.65c2.13-0.27,2.47-3.43,4.55-2.6
				c2.08,0.83,5.2,0.65,7.8,0c2.6-0.65,5.2,0,7.8,0c2.6,0,5.2,0,7.15,0c1.95,0,3.11,0.15,4.55,0c1.44-0.15,2.6-0.65,4.55,0
				c1.95,0.65-3.9,1.3,0,0c3.9-1.3,2.6,0,5.85,0s2.91,1.95,3.9,0c0.99-1.95,1.98-0.44,2.94-0.22c0.96,0.22-1.64,0.22,0.31,0.22
				c1.95,0,3.9-3.9,5.85-3.9c1.95,0-0.6,0.65,2.3,0s2.9-1.3,4.85-1.95c1.95-0.65,1.95-1.95,2.6-1.3s1.52,0.19-0.86,2.37
				c-2.39,2.18-3.11,4.05-4.7,3.76s-2.23,0.36-3.53,1.66s0.65-0.65-1.3,1.3c-1.95,1.95-1.08,2.35-2.49,2.48
				C460.75,48.33,459.15,50.15,459.15,50.15z"/>
			<path class="st36" d="M453.88,57.27c-1.04,0.66,0.01,1.6-3.38,3.15c-3.39,1.55-1.32,1.58-3.66,3.51
				c-2.33,1.94-4.28,1.29-4.93,3.24c-0.65,1.95-0.65,1.3-1.95,1.95c-1.3,0.65-0.48,2.41-3.17,2.18c-2.68-0.23-0.42,0.56-2.2,1.46
				c-1.78,0.91-6.15-0.91-8.52,0c-2.36,0.91-6.78,0.92-8.15,0.26c-1.37-0.65-2.02-0.65-5.26,0.64c-3.25,1.3-0.65-0.65-3.25-0.65
				c-2.6,0-3.9-0.65-5.2-0.65s-0.65,0.65-3.25,0.65c-2.6,0-3.9,0-5.2-0.65c-1.3-0.65-3.25,0.65-3.9,0.65s0-0.65-2.6,0
				c-2.6,0.65-3.9,0-5.2,0c-1.3,0-7.8-0.65-11.7,0c-3.9,0.65-9.75-1.3-11.7-0.65c-1.95,0.65-2.6-0.65-5.2,0
				c-2.6,0.65-7.23,1.11-7.23,1.11s0.09-2.41-3.16-1.11c-3.25,1.3-7.75,0.02-9.1,0c-1.35-0.02,1.95-1.95,2.6-1.95
				s4.1-1.77,4.65-0.89c0.55,0.89-1.4-3.01,1.85-3.01c3.25,0,3.25,0,7.8,0s7.72-4.58,12.35-3.25s5.2-0.65,11.05,0
				c5.85,0.65,6.5,3.25,9.75,3.25s7.8,0.65,11.05,0c3.25-0.65,5.2-2.6,10.4-3.25s12.66-2.27,14.3-0.65c1.63,1.62,4.55,3.9,8.45,0.65
				s6.5-0.65,5.85,0s7.8-0.65,9.75-4.55c1.95-3.9,5.85-2.6,6.5-4.55c0.65-1.95,1.95-4.55,3.25-1.95c1.3,2.6,2.81-1.09,2.81-1.09
				S461.3,52.56,453.88,57.27z"/>
			<path class="st36" d="M429.79,77.54c-2.17,1.33-0.23,1.98-3.47,3.93c-3.25,1.95-1.95,0-3.25,1.95c-1.3,1.95-3.25,1.95-3.9,2.6
				c-0.65,0.65,1.31,1.78-2.92,3.16c-4.23,1.38-6.18,1.38-7.48,2.03c-1.3,0.65,0.65-2.6-2.6,1.95c-3.25,4.55-0.73,3.33-2.64,4.59
				c-1.91,1.26-3.21,1.26-5.81,1.26c-2.6,0-2.29-0.65-5.37,0c-3.08,0.65-2.43,0.65-5.03,0.65c-2.6,0-1.3-1.3-6.5-0.65
				c-5.2,0.65-7.17,0-10.08,0.65s-1.39,0-6.7,0c-5.31,0-5.31-0.65-10.51-0.65c-5.2,0-5.92,1.88-9.46,0.94
				c-3.54-0.94-4.27-1-6.18-0.97s-1.91-0.62-3.86-0.62c-1.95,0-3.31,2.4-6.2,1.85c-2.89-0.55-4.84-0.55-7.44-0.55s-3.25,0-7.15-0.65
				c-3.9-0.65-3.9,0-6.5,0c-2.6,0-3.03,0.67-3.14,0.01s0.66-3.67,2.23-3.47c1.56,0.21,2.21-0.44,4.81-1.09c2.6-0.65-1.3-3.9,1.3-2.6
				s1.95-1.3,6.5-0.65c4.55,0.65,3.25,0,6.5,0s6.89,1.59,11.05,1.95c4.15,0.36,5.2,1.95,9.75,0.65s9.75-5.85,12.35-5.85
				c2.6,0,9.1,3.9,10.32,7.14c0.97,2.57,9.17-4.54,9.82-3.89c0.65,0.65,1.3,0,3.25,0c1.95,0,3.9,0.65,7.8,0
				c3.9-0.65,5.85-1.3,6.5-1.95c0.65-0.65,2.23,1.02,3.25-0.65s3.9-3.9,5.85-5.85c1.95-1.95,5.85,0.65,8.45,0
				c2.6-0.65,1.95,1.95,2.6-0.65c0.65-2.6,2.66-3.93,5.2-3.9c2.54,0.03,1.95-1.3,1.95-1.3s4.55-1.95,2.6-1.3c0,0,3.7-1.85,4.12-0.92
				S429.79,77.54,429.79,77.54z"/>
			<path class="st36" d="M395.78,112.66c-1.3,1.3-5.2-3.25-6.5-1.3c-1.3,1.95,1.73,1.67-0.44,3.76c-2.16,2.09-2.47,2.19-4.27,3.44
				c-1.79,1.25-2.95,1.81-4.65,2.83s-2.31,1.3-3.3,2.46c-0.99,1.16-0.26,1.19-2.57,2.47s-2.1,0.67-3.83,2.28
				c-1.73,1.61-10.18,1.61-12.13,1.61c-1.95,0-3.53-1.3-5.66,0c-2.14,1.3-4.73,1.3-6.03,1.3s-1.3-1.95-4.55-1.3s-5.58,1.95-8.64,1.3
				c-3.06-0.65-7.51,0.35-9.83,0.18s-4.37-1.73-7.9,0.02c-3.52,1.75-7.3-0.45-9.63,0s-2.34-0.2-4.93-0.2c-2.6,0,0-0.65-5.2-0.65
				c-5.2,0-5.2,0-5.2,0s-1.3,0.65-5.85-0.65c-4.55-1.3-4.55-1.95-8.45-1.3c-3.9,0.65-7.4-0.9-7.6-0.77
				c-0.2,0.12-1.32-2.11,2.49-1.97s1.63,0.33,7.27,0.89c5.64,0.55-2.16-2.69,3.04-2.69s4.55-1.3,9.75-1.3c5.2,0,6.5-3.25,12.35-1.95
				c5.85,1.3,5.85,2.6,11.7,3.25c5.85,0.65,8.45-4.55,14.3-3.25c5.85,1.3,8.35-2.83,13.65-1.95c5.3,0.88,7.15,2.6,11.05,3.9
				s4.55-3.25,7.15-3.9c2.6-0.65,0,0.65,3.9,0c3.9-0.65,5.2-3.25,11.05-1.3c1.38,0.46,1.95,0,3.25-5.2c1.3-5.2,4.55-0.65,7.8-2.6
				c3.25-1.95,3.9-2.6,5.2-3.25c1.3-0.65-3.25,0.65,1.3-0.65S395.78,112.66,395.78,112.66z"/>
			<path class="st36" d="M360.75,139.78c-1.36,1.46-2.68,2.63-3.97,3.67c-1.29,1.04-1.5,1.65-4.32,3.3s-0.55,1.01-3.31,2.63
				c-2.76,1.62-5.56,1.73-6.11,3.3c-0.55,1.57-1.04,3.6-2.09,4.21c-1.06,0.61-2.13,1.64-3.87,1.77s-0.14,1.14-1.26,1.93
				c-1.12,0.8-3.38,0.5-8.42,0c-5.05-0.5-11.27-0.46-14.01,0.49s-1.9,1-4.92,0s-2.36,0.62-4.97,0.95
				c-2.61,0.33-20.29,0.21-23.79-0.22c-3.5-0.43-2.85-1.08-6.1-1.08c-3.25,0-2.6,0-5.85,0s-2.6-1.3-6.5,0
				c-3.9,1.3-6.68,1.6-10.16,1.12c-3.48-0.47-6.08-0.47-9.33-1.12c-3.25-0.65-11.05,0.66-12.35-0.32c-1.3-0.98-1.97-0.33-2.61-1.63
				c-0.64-1.3,1.92-1.62,2.91-2.11c0.99-0.49,10.09-3.09,19.84-1.14c5.25,1.05,14.3-0.65,23.39,0c9.1,0.65,13.65,2.6,17.54,1.95
				s6.7-3.81,13.09-2.88c6.4,0.93,5.75,1.58,10.3,0.93c4.55-0.65,4.55,1.3,12.35-1.3c7.8-2.6,9.1-1.95,10.4-3.9
				c1.3-1.95-0.65-0.65,3.9-3.9c4.55-3.25,1.34-2.73,6.52-2.99c5.18-0.26,3.23-3.51,7.13-4.81c3.9-1.3,2.03,1.95,5.24,0
				s1.26-3.25,3.86-3.25C365.89,135.4,360.75,139.78,360.75,139.78z"/>
			<path class="st36" d="M326.9,169.19c0,1.84-3.79,4.92-6.77,6.36c-2.98,1.44-5.58,0.79-5.58,3.39s-2.6,2.6-4.55,3.9
				c-1.95,1.3-4.55,1.95-8.45,4.55s-0.65,5.85-5.2,5.85s0,2.6-3.25,3.9c-3.25,1.3-13-0.65-18.19-1.3
				c-5.2-0.65-11.08,1.47-19.19,0.08c-8.1-1.38-4.85-0.73-16.55-0.73c-11.7,0-7.7-2.85-14.25-1.43s-9.15,4.68-14.34,2.08
				c-5.2-2.6-9.64-1.77-13.27-1.86c-3.63-0.09-8.83,2.51-10.13,1.86c-1.3-0.65-2.41-1.76-2.41-1.76s-4.65,0.83-3.72,0.64
				c0.93-0.18-1.67-6.03,6.78-6.68s9.1-3.9,13.65-3.25c4.55,0.65,11.05,1.95,18.19,2.6c7.15,0.65,7.8,1.3,16.89-0.65
				c9.1-1.95,16.24,0.65,21.44,0.65c5.2,0,8.99,1.99,11.7,0.65c2.71-1.35-1.3,0,7.15-1.95s8.56-2.27,14.03-3.09
				c5.47-0.81,6.43-1.74,7.9-3.55s2.61,1.75,5.61-3.28s1.99-6.33,8.34-6.98C319.1,168.54,326.9,166.59,326.9,169.19z"/>
			<path class="st36" d="M281.64,210.21c-5.43,4.46-4.13,7.06-8.02,9.01c-3.9,1.95-2.38-2.73-7.36,0.91s-5.63,11.44-10.83,9.49
				c-5.2-1.95-3.25-1.95-6.5-0.65c-3.25,1.3-1.3,5.85-6.5,6.5c-5.2,0.65-6.5-1.95-15.59-2.6c-9.1-0.65-7.15-3.25-16.24-0.65
				s-9.1,3.25-13.65,3.25s-0.65-2.6-6.5-1.95c-5.85,0.65,0.65-0.65-5.85-0.65c-6.5,0-9.1-1.95-13-0.65c-3.9,1.3-5.85,0-9.1,0
				c-3.25,0-1.95-1.95-8.45-1.3c-6.5,0.65-3.9,1.76-6.5-0.42c-2.6-2.18-2.98-1.24-1.49-4.31c1.49-3.07-2.03-6.24,2.98-3.35
				c5.01,2.88,1.21-0.93,9.93,0c8.72,0.93,8.37-0.93,12.12,0s7.65,1.58,7.65,1.58s8.23,1.29,13.21,0.32
				c4.98-0.97,23.83-2.27,25.78-2.92c1.95-0.65,9.41-0.28,13,0s7.15,2.6,11.7-0.65c4.55-3.25,5.85,0,8.45-1.3
				c2.6-1.3,5.2,1.3,9.75-3.9c4.55-5.2,8.45-1.3,12.35-3.9s5.85-3.9,7.15-3.9S281.64,210.21,281.64,210.21z"/>
			<path class="st37" d="M473.25,32.77c0,0-6,1.26-8.6,1.26c-2.6,0-3.13-1.22-6.44-1.26c-3.31-0.04-6.23,1.26-8.34,1.26
				c-2.11,0-4.83-1.87-8.34-1.26c-3.51,0.61-8.49,1.26-10.88,1.26c-2.38,0-10.65,0-12.37,0c-1.5,0-9.27,0.99-12.44,0.37
				c-0.45-0.09-0.81-0.21-1.05-0.37c-1.87-1.3-14.31,1.16-15.56,0.58s-3.85-2.53-5.8-0.58c-1.95,1.95-5.2,3.9-6.5,4.55
				c-1.3,0.65-7.19,7.03-8.45,7.15c-1.25,0.12,6.5-2.6,6.5-2.6s1.95,0.65,3.9-1.95c1.95-2.6,1.15-1.95,2.6-1.95c1.3,0,3.9,0,6.5,0
				c5.02,0,7.59-1.48,11.7-1.95s9.74-0.18,12.35,0s5.64,2.42,9.1,0.65c3.46-1.77,2.6-0.65,6.5,0s3.9-1.3,7.8-2.6
				c3.9-1.3,7.15-0.65,10.4-0.65c3.25,0,9.36,0.27,13.13-0.51C462.7,33.38,473.4,36.71,473.25,32.77z"/>
			<path class="st37" d="M453.87,48.37c0,0-6,1.26-8.6,1.26c-2.6,0-3.13-1.22-6.44-1.26c-3.31-0.04-6.23,1.26-8.34,1.26
				c-2.11,0-9.76-1.26-13.27-0.65s-3.56,0.65-5.95,0.65c-2.38,0-10.65,0-12.37,0c-1.5,0-9.27,0.99-12.44,0.37
				c-0.45-0.09-6.7-0.21-6.93-0.37c-1.87-1.3-8.43,1.16-9.68,0.58s-3.85-2.53-5.8-0.58c-1.95,1.95-5.2,3.9-6.5,4.55
				c-1.3,0.65-4.71,7.68-5.96,7.8c-1.25,0.12,4.01-3.25,4.01-3.25s1.95,0.65,3.9-1.95c1.95-2.6,2.33,1.3,3.78,1.3
				c1.3,0,2.72-3.25,5.31-3.25c5.02,0,7.59-1.48,11.7-1.95s9.74-0.18,12.35,0c2.61,0.18,2.28,1.77,5.73,0
				c3.46-1.77,3.9-1.3,7.8-0.65c3.9,0.65,5.96,0,9.86-1.3c3.9-1.3,7.15-0.65,10.4-0.65c3.25,0,9.36,0.27,13.13-0.51
				C443.33,48.98,454.02,52.3,453.87,48.37z"/>
			<path class="st37" d="M424.63,71.76c0,0-6,1.26-8.6,1.26s-3.13-1.22-6.44-1.26c-3.31-0.04-6.23,1.26-8.34,1.26
				c-2.11,0-4.83-1.87-8.34-1.26c-3.51,0.61-8.49,1.26-10.88,1.26c-2.38,0-10.65,0-12.37,0c-1.5,0-9.27,0.99-12.44,0.37
				c-0.45-0.09-0.81-0.21-1.05-0.37c-1.87-1.3-14.31,1.16-15.56,0.58c-1.25-0.58-3.85-2.53-5.8-0.58c-1.95,1.95-7.83,9.56-9.21,9.1
				c-1.95-0.65-8.49,5.73-9.75,5.85c-1.25,0.12,6.5,0,6.5,0s5.2-1.3,7.15-3.9s2.45-3.9,3.9-3.9c1.3,0,3.36-1.95,5.96-1.95
				c5.02,0,7.59-1.48,11.7-1.95c4.11-0.47,9.74-0.18,12.35,0s5.64,2.42,9.1,0.65c3.46-1.77,2.6-0.65,6.5,0c3.9,0.65,3.9-1.3,7.8-2.6
				s7.15-0.65,10.4-0.65c3.25,0,9.36,0.27,13.13-0.51C414.09,72.37,424.78,75.69,424.63,71.76z"/>
			<path class="st37" d="M390.26,100.82c0.88-0.21,0.57-1.55-0.32-1.38c-1.99,0.37-4.99,0.88-6.63,0.88c-2.6,0-3.13-1.22-6.44-1.26
				c-3.31-0.04-6.23,1.26-8.34,1.26c-2.11,0-4.83-1.87-8.34-1.26c-3.51,0.61-8.49,1.26-10.88,1.26c-2.38,0-10.65,0-12.37,0
				c-1.5,0-9.27,0.99-12.44,0.37c-0.45-0.09-0.81-0.21-1.05-0.37c-1.87-1.3-14.31,1.16-15.56,0.58s-8.92-1.88-10.87,0.07
				c-1.95,1.95-0.12,3.25-1.42,3.9c-1.3,0.65-7.28,6.67-8.45,7.15c-2.34,0.96-4.44,2.17-6.15,3.33c-1.88,1.27-4.95,4.59-2.82,3.82
				c3.37-1.23,14.3-4.55,16.89-8.45c1.8-2.7,6.99-2.6,8.45-2.6c1.3,0,2.6-1.95,5.2-1.95c5.02,0,5.52-2.13,9.62-2.6
				c4.11-0.47,9.74-0.18,12.35,0c2.61,0.18,5.64,2.42,9.1,0.65s2.6-0.65,6.5,0c3.9,0.65,3.9-1.3,7.8-2.6s7.15-0.65,10.4-0.65
				c3.25,0,9.36,0.27,13.13-0.51C380.41,99.86,387.14,101.58,390.26,100.82z"/>
			<path class="st37" d="M365.24,130.2c0,0-9.95-0.12-12.86-0.12c-2.91,0-3.51-1.37-7.22-1.42c-3.71-0.04-6.99,1.42-9.36,1.42
				c-2.37,0-5.42-2.1-9.36-1.42c-3.94,0.69-9.52,1.42-12.2,1.42s-11.95,0-13.87,0c-1.68,0-10.4,1.12-13.95,0.42
				c-0.51-0.1-0.91-0.24-1.17-0.42c-2.1-1.46-15.43-1.18-16.83-1.83c-1.4-0.65-4.94-0.36-7.13,1.83c-2.19,2.19-5.71,6.54-7.17,7.27
				s-11.83,8.94-13,9.75c-2.92,2.02,3,4.02,7.8-1.95c0,0,4.31,0.32,6.5-2.6c2.19-2.91,2.27-4.55,3.9-4.55
				c1.46,0,4.15-2.09,7.07-2.09c5.63,0,8.51-1.66,13.12-2.19s8.73,1.48,11.65,1.68c2.92,0.2,8.52,1.04,12.39-0.95
				c3.88-1.99,2.91-0.73,7.29,0c4.37,0.73,4.14-2.88,8.74-2.91c5.37-0.04,7.57,0.61,11.22,0.61s11.37,0.88,15.59,0
				S365.4,134.62,365.24,130.2z"/>
			<path class="st37" d="M332.09,160.29c0,0-7.27,2.01-10.42,2.01c-3.15,0-3.8-1.95-7.81-2.01c-4.01-0.06-7.56,2.01-10.12,2.01
				c-2.56,0-5.86-2.98-10.12-2.01c-4.26,0.97-10.3,2.01-13.19,2.01s-12.92,0-15,0c-1.82,0-11.24,1.58-15.09,0.59
				c-0.55-0.14-0.99-0.33-1.27-0.59c-2.27-2.07-16.83-0.63-18.35-1.55c-1.52-0.92-6.73-3.1-9.1,0s-5.57,6.11-7.15,7.15
				s-7.58,6.96-9.1,7.15c-0.27,0.03-1.81,0.89-2.01,1.21c-1.36,2.11,2.66,3.34,3.96,0.74c1.72-3.44,8.92-0.89,10.32-3.33
				c2.36-4.13,1.39-3.1,3.15-3.1c1.58,0,4.73,0,7.88,0c6.09,0,9.21-2.35,14.18-3.1c4.98-0.75,11.81-0.28,14.97,0
				c3.16,0.28,6.84,3.85,11.03,1.03c4.19-2.82,3.15-1.03,7.88,0c4.73,1.03,4.73-2.07,9.46-4.13c4.73-2.07,8.67-1.03,12.61-1.03
				c3.94,0,11.35,0.43,15.92-0.82C319.31,161.26,332.28,166.54,332.09,160.29z"/>
			<path class="st37" d="M291.16,197.78c0,0-8.88-1.31-12.02-1.43c-3.14-0.12-3.7-2.34-7.69-2.56c-3.99-0.22-7.61,1.98-10.16,1.88
				c-2.55-0.1-5.7-3.58-9.98-2.64c-4.28,0.94-10.34,1.87-13.21,1.76s-12.86-0.49-14.93-0.57c-1.81-0.07-11.26,1.36-15.04,0.1
				c-0.54-0.18-0.97-0.41-1.24-0.72c-2.17-2.42-17.36,1.42-18.83,0.32s-4.47-4.71-6.96-1.3c-2.49,3.41-12.75,9.05-14.05,12.3
				c-0.73,1.82-11.06,8.35-11.7,9.75c-3.25,7.15,3.9,0.65,3.9,0.65s11.77-2.58,14.3-7.15c2.53-4.57,2.79-3.97,4.55-3.9
				c1.57,0.06,6.61,0.53,9.75,0.65c6.06,0.23,8.01-3.24,13-3.9c4.99-0.66,11.42-1.7,14.55-1.27c3.14,0.44,6.64,4.6,10.94,1.58
				c4.29-3.02,3.18-1.05,7.84,0.3s6.06,0.24,10.86-1.91c4.79-2.15,6.48-0.8,10.4-0.65c3.92,0.15,12.29,1.89,16.89,0.65
				C276.92,198.49,291.07,204.84,291.16,197.78z"/>
			<path class="st35" d="M113.92,163.01H98.68c-1.24,0-1.63-0.97-1.72-1.27c-0.09-0.3-0.31-1.33,0.71-2.02L274.5,38.87
				c2.62-1.79,5.68-2.74,8.86-2.74h5.41c1.22,0,1.62,0.96,1.72,1.25c0.09,0.29,0.33,1.3-0.66,2.02L123.12,160.03
				C120.42,161.98,117.24,163.01,113.92,163.01z"/>
			<path class="st35" d="M137.87,163.01c-1.22,0-1.62-0.96-1.72-1.25c-0.09-0.29-0.33-1.3,0.66-2.02L303.27,39.29
				c2.62-1.9,5.71-2.93,8.95-2.98l11.55-0.19c1.15,0.01,1.57,0.86,1.69,1.22c0.13,0.37,0.32,1.3-0.61,2.01L167.82,159.77
				c-2.72,2.09-6.12,3.24-9.55,3.24H137.87z"/>
			<path class="st35" d="M180.63,159.78L337.41,39.55c2.67-2.05,5.99-3.2,9.35-3.24l13.95-0.18c1.15,0.01,1.57,0.85,1.69,1.22
				c0.13,0.37,0.32,1.3-0.6,2.01L207.42,159.7c-2.74,2.14-6.17,3.32-9.65,3.32h-16.04c-1.17,0-1.58-0.86-1.71-1.22
				C179.9,161.42,179.71,160.49,180.63,159.78z"/>
			<path class="st35" d="M290.58,36.46c0.58,0.83,4.48,2.13,6.43,1.48c1.95-0.65,2.82,0.18,2.82,0.18s2.57-1.48,3.77-0.83
				s5.82-1,6.76-0.83c0.94,0.18,2.61-0.18,5.35,0c2.74,0.18,8.16-0.93,9.02-0.05c0.86,0.88-1.01,1.13,4.15,0.68
				c5.16-0.45,1.18-1.46,7.07-0.63c5.89,0.83,3.94,1.48,5.89,0.83c1.95-0.65,3.25-2.6,5.2-1.95c1.95,0.65,5.95,0.95,6.87,1.12
				s2.36,0.22,5.21,0.2c2.86-0.02,2.62-1.03,3.39-0.2c0.77,0.83,0.24,2.95-2.74,4.49c-2.98,1.54-1.5,1.54-6.14,4.79
				c-4.64,3.25-5.18,4.13-8.48,6.61c-3.3,2.48-5.37,1.4-7.91,6.16s-5.2,4.32-8.75,6.82c-3.54,2.5-4.07,3.31-7.06,6.47
				s-6.53,6.38-10.28,8.03c-3.75,1.64-10.85,7.22-14.45,10.28c-3.6,3.06-9.02,8.67-13.78,10.74c-4.76,2.07-12.9,10.13-15.33,11.95
				c-2.43,1.81-11.23,8.42-13.65,10.64c-2.42,2.22-4.3,5.13-8.88,6.92c-4.58,1.79-4.13,3.21-6.96,5.42
				c-2.82,2.22-2.71,4.35-7.97,6.21c-5.25,1.86-4.5,3.59-6.82,5.32c-2.33,1.73-3.75,3.15-5.64,4.39c-1.89,1.24-0.98,1.37-5.01,3.9
				s-1.26,2.39-5.24,4.09c-3.98,1.7,2.58,2.07-2.65,2.53c-5.23,0.46-9.11-0.2-12.37,0.78c-3.26,0.98-1.96,2.28-5.21,0.98
				c-3.25-1.3-1.56-1.31-7.28-0.98c-5.72,0.33-11.03-0.98-15.52,0c-4.49,0.98,4.05,0.32-4.77,0c-8.82-0.32-13.26-0.98-16.24,0
				c-2.98,0.98-0.63-0.98-7.33,0c-6.7,0.98-3.15-0.98-8.17,0c-5.02,0.98-4.57,0.32-8.05,0c-3.48-0.32,1-1.18-4.16-0.1
				c-5.16,1.08-0.06-0.23-7.16,0.1c-7.1,0.33-8.03,1.62-9.84,0c-1.81-1.62-4.28-3.18,0.53-4.35c4.81-1.17,21.97-16.67,25.41-17.37
				c3.44-0.7,11.58-8.02,13.04-8.91c1.45-0.89,9.86-8.68,15.08-10.31c5.22-1.63,16.3-11.87,19.86-13.57
				c3.55-1.7,10.43-8.77,14.79-10.11c4.36-1.34,17.34-10.33,19.95-13.63c2.61-3.3,6.01-3.81,8.53-5.83
				c2.52-2.02,8.37-3.32,10.32-5.92s18.75-13.11,21.72-15.98s10.04-6.63,11.7-8c1.67-1.37,6.65-3.11,8.71-4.84
				c2.06-1.73,2.71-3.68,5.31-5.62c2.6-1.95,2.85-1.23,5.65-1.91s3.93-1.69,5.96-0.54C287.26,37.28,290.58,36.46,290.58,36.46z"/>
			<path class="st36" d="M359.06,38.91c-1.3,1.3-0.38,0.95-2.46,2.75s-2.47,1.57-5.2,4.93s-7.28,3.36-9.88,6.61
				c-2.6,3.25-2.06,2.82-4.28,5.31c-2.22,2.49-0.94,2.99-4.83,4.69c-3.89,1.7-11.97,13.33-16.05,13.37
				c-4.08,0.03-15.58,9.88-16.98,11.45c-1.4,1.57-4,0.27-7.9,4.82c-3.9,4.55-5.55,5.65-9.27,8.35c-3.72,2.7-4.19,3.26-6.88,5.58
				c-2.69,2.32-20.23,14.66-22.18,16.61c-1.95,1.95-3.22,2.64-6.81,4.57c-3.59,1.93-5.54,2.58-8.79,5.83
				c-3.25,3.25-4.39,2.78-6.74,5.94c-2.35,3.16-14.11,12.73-14.11,12.73s-3.19,0.18-5.14,2.12s0,1.3-3.25,3.25
				c-3.25,1.95-1.3,3.9-6.5,3.9c-5.2,0-4.06-1.3-6.58,0c-2.52,1.3-7.03,1.29-10.3,1.3c-3.27,0-2.94-1.55-2.94-1.55
				s2.27,0.25,6.82-0.4s13.58,0.39,14.91-2.41c1.33-2.79,2.63-3.44,9.13-8.64c6.5-5.2,6.9-3.5,9.3-7.92
				c2.4-4.42,8.29-7.85,11.52-9.71c3.23-1.86,14.92-6.41,16.87-9.01c1.95-2.6,9.1-9.75,13.65-12.35c4.55-2.6,9.14-7.83,12.69-10.74
				c3.55-2.91,2.9-2.26,6.15-3.56c3.25-1.3,24.04-15.59,27.29-20.14c3.25-4.55,5.2-1.95,8.45-5.85c3.25-3.9,11.7-6.5,16.24-12.35
				s3.07-7.59,6.08-8.02c3.02-0.43,5.07-2.01,5.07-2.01s-0.75-2.31,3.8-3.61C354.51,43.46,359.06,38.91,359.06,38.91z"/>
			<path class="st36" d="M326.9,38.1c-0.97,3.41-0.97,1.46-0.97,3.41c0,1.95-1.3,3.25-3.9,5.85c-2.6,2.6-2.6,1.95-8.45,5.85
				c-5.85,3.9-7.6,7.15-9.97,9.42c-2.37,2.27-8.87,4.22-11.47,6.17c-2.6,1.95-3.9,3.25-9.1,6.5c-5.2,3.25-7.8,3.25-11.05,7.8
				s-2.6,7.15-7.15,8.45c-4.55,1.3-7.15,0.65-9.1,3.9s-5.85,5.85-7.15,7.15c-1.3,1.3-1.7,1.66-3.45,3.43
				c-1.75,1.77-8.9,4.37-9.55,5.02c-0.65,0.65-4.81,4.43-5.98,5.14c-1.17,0.71-1.82,0.71-7.02,5.26c-5.2,4.55-9.1,8.45-10.4,9.75
				c-1.3,1.3-0.01,0.65-5.2,4.22c-5.19,3.57-4.24,4.39-8.94,7.56c-4.7,3.17-8.6,5.76-10.55,7.06c-1.95,1.3,0,1.95-4.55,4.55
				s-9.01,1.95-10.68,4.22s-0.37,2.27-2.97,2.92c-2.6,0.65-6.89-0.65-7.02,0s4.51,0.64-2.68,1.3c-7.2,0.65-7.65-1.57-11.32-0.78
				c-3.67,0.79-4.02,0-4.02,0s1-3.11,6.85-2.46c5.85,0.65,8.52-1.26,10.43-0.63c1.91,0.63-0.68,2.58,3.21,0.63
				c3.9-1.95,3.94-1.61,7.49-3.41s3.65-1.52,5.55-4.26c1.9-2.73,0.13-1.75,5.89-4.52c5.76-2.77,4.52-2.32,10.01-5.79
				c5.49-3.47,4.09-5.33,8.36-8.3s7.92-6.02,9.67-7.42c1.75-1.4,6.3-7.25,9.55-9.85c3.25-2.6,3.25-3.9,7.15-5.85
				c3.9-1.95,7.72-2.71,8.08-3.3s3.08-0.54,4.97-3.81c1.89-3.28,0.59-5.23,6.44-8.48c5.85-3.25,4.55-2.6,7.8-4.55
				c3.25-1.95,3.25-3.25,5.85-5.2c2.6-1.95,1.3-1.3,4.55-3.25c3.25-1.95,1.62-0.19,4.38-3.02c2.77-2.83,0.37-1.29,5.47-4.66
				c5.1-3.37,3.8-3.37,7.7-4.67c3.9-1.3,4.03-0.99,6.89-2.44c2.86-1.45,9.23-6.38,12.22-8.79c2.99-2.41,4.29-3.71,4.94-3.71
				s-1.95,1.95,2.6-1.95s7.15-3.9,8.45-5.2c1.3-1.3-2.94,3.01,3.4-3.69S326.9,38.1,326.9,38.1z"/>
			<path class="st36" d="M292.7,37.57c1.24,0.49,3.82,2.29,0,4.08c-3.82,1.8-3.82,1.15-5.12,3.1c-1.3,1.95-3.9,1.95-5.2,4.55
				c-1.3,2.6-1.45,2.08-4.95,4.29c-3.5,2.21-5.02,0.37-9.13,5.51s-4.11,5.79-7.36,8.39c-3.25,2.6-8.45,3.25-10.4,5.85
				c-1.95,2.6-4.55,3.9-7.15,5.2s-7.08,6.6-11.66,8.82c-4.58,2.22-13.68,8.07-16.28,10.02c-2.6,1.95-6.5,3.9-8.45,5.2
				c-1.95,1.3-4.55,1.3-7.15,4.55c-2.6,3.25-10.4,7.8-11.7,8.45c-1.3,0.65-3.25,5.2-5.2,7.15s-4.79,4.11-8.89,5.63
				c-4.1,1.52-4.54,1.99-7.9,4.03c-3.35,2.04-11.32,6.15-11.32,6.15s0.07,2.56-3.13,4.42s-6.59,3.96-8.79,6.16s-2.85,1.55-5.45,4.15
				s-4.55,3.25-5.2,3.9c-0.65,0.65-2.6,3.25-2.6,3.25s-0.22,1.03-4.33,1.81c-4.12,0.79-3.13,0.51-4.27,0s3.41-1.81-1.14-0.51
				c-4.55,1.3-12.84,0.94-11.7-0.65c1.01-1.4,8.19-1.41,9.1-1.95c0.56-0.33,0,1.95,4.55-1.3c4.55-3.25,0.65-3.25,5.85-3.9
				c5.2-0.65,5.29-0.98,7.19-2.44c1.9-1.46-0.01,0.03,3.2-4.06s11.64-5.47,13-8.45s8.45-7.15,11.05-7.15c2.6,0,4.03-3.21,6.24-3.88
				c2.21-0.67,4.81-0.67,6.11-2.62c1.3-1.95,0.99-2.32,3.1-4.74s2.6-1.79,5.6-4.05c3-2.26,6.65-3.16,6.65-3.16s-0.37,1.4,2.86-3.72
				c3.23-5.12,3.88-4.47,7.78-7.07c3.9-2.6,0.65-3.9,9.75-7.15s9.75-2.6,11.05-3.9c1.3-1.3,1.01-0.55,3.43-3.52
				c2.42-2.98,3.72-0.38,6.97-3.63c3.25-3.25,7.54-6.07,8.65-7.26c1.1-1.19,1.75-3.14,5-4.44c3.25-1.3,4.55-1.3,5.85-2.6
				c1.3-1.3,2.6,0,6.5-5.2c3.9-5.2,5.85-3.9,8.45-7.15c2.6-3.25,4.62-4.28,6.21-5.71s-0.85-1.2,3.62-2.62
				c4.47-1.42,5.12-0.12,6.42-2.72c1.3-2.6,2.19-3.64,4.34-5.07s2.29-2.73,3.85-2.73C292.13,38.91,292.62,37.54,292.7,37.57z"/>
			<path class="st37" d="M339.94,38.02c-2.32,1.53-2.4,1.84-3.99,3.63s0.28,0.91-2.6,2c-2.88,1.09-2.48-0.19-5.28,3.05
				c-2.8,3.24-2.8,4.54-6.05,6.49c-3.25,1.95-7.85,5.4-10.42,6.92c-2.57,1.52-5.25,1.89-7.48,4.96c-2.24,3.07-5.49,5.66-7.44,7.61
				c-1.95,1.95-7.08,3.38-8.09,4.29c-1.01,0.91-4.26,4.16-5.56,6.11c-1.3,1.95-4.59,3.35-7.49,4.93c-2.9,1.57-7.73,7.5-13.11,10.38
				c-5.39,2.88-5.79,2.92-8.51,5.17c-2.72,2.26-2.96,2.18-5.44,4.17c-2.48,1.99-4.43,3.94-7.03,6.53c-2.6,2.6-6.9,2.83-8,4.99
				s-11.49,9.96-12.79,11.25c-1.3,1.3-2.6,3.25-4.55,4.55s-3.25,2.6-5.85,5.85c-2.6,3.25-4.58,2.11-7.16,4.3
				c-2.58,2.2-5.18,2.85-7.78,5.44c-2.6,2.6-3.9,1.95-5.85,4.55s-3.9,3.25-3.9,5.2c0,1.95,4.59,2.59-0.63,2.6
				c-5.22,0-7.17-1.95-7.17-1.95s0-1.26,0-1.93c0-0.67-3.54,4.9-3.4,3.09c0.15-1.81,1.83-3.05,5.54-5.68
				c3.71-2.63,4.36-0.03,6.95-3.28c2.6-3.25,4.29-7.02,9.29-9.03c5-2.01,8.25-5.26,10.85-7.86c2.6-2.6,5.85-3.25,7.15-5.85
				c1.3-2.6,3.9-1.3,6.5-4.55c2.6-3.25-1.3-2.6,3.25-4.55s7.15-3.25,8.45-5.2c1.3-1.95,0.65-3.9,3.25-5.2
				c2.6-1.3,2.35-1.46,4.75-3.65s1.1-2.2,6.3-4.79c5.2-2.6,1.61,0.08,8.93-4.18c7.32-4.26,5.64-5.12,8.43-6.64
				c2.79-1.52,5.99-4.27,7.96-5.82s1.97-0.25,3.92-3.5c1.95-3.25-3.32-1.12,2.24-4.46c5.56-3.34,6.43-2.07,7.95-4.66
				s1.08-1.17,3.9-2.85c2.82-1.68,2.77-2.68,4.74-3.16s-0.58,2.06,3.95-1.81s4.54-3.16,6.16-4.16c1.62-1,3.56-1.65,4.86-2.95
				c1.3-1.3-1.3-1.95,3.9-5.2c5.2-3.25,6.26-3.34,6.7-4.27c0.45-0.93,0.21-1.35,2.28-2.11c2.07-0.77,1.98,1.28,3-2.02
				c1.02-3.3-0.28-2,2.32-3.95c2.6-1.95,1.65-2.41,3.1-2.83c1.45-0.42-0.58-0.48,2.38-0.45c2.97,0.03,1.24-0.68,3.72,0
				c2.49,0.68,3.15-0.09,3.8-0.03c0.64,0.06,1.8-0.63,1.8-0.63L339.94,38.02z"/>
			<path class="st37" d="M313.09,38.02c0.41,0.74-4.91,0.23-6.11,0.88s-2.3,0.85-3.38,1.72c-1.07,0.88-0.28-1.68-5.22,2.2
				s-8.85,6.47-10.79,9.07c-1.95,2.6-3.25,4.55-6.5,7.15c-3.25,2.6-11.91,5.72-12.78,6.76c-0.87,1.04-8.19,4.58-9.4,6.7
				c-1.21,2.13-6.41,5.38-7.71,6.03c-1.3,0.65-2.6,2.6-4.55,3.25c-1.95,0.65,2.6-0.65-3.9,2.6s-1.79,3.67-7.07,5.41
				c-5.28,1.74-13.48,8.16-13.48,8.16s-1.34,2.81-4.69,3.4c-3.35,0.59-4.95,2.89-7.08,4.66c-2.12,1.77,3.08,2.42-2.77,4.37
				c-5.85,1.95-5.2,3.25-8.45,5.85c-3.25,2.6-7.99,3.92-10.82,6.19c-2.83,2.26-1.35,1.3-4.04,4.7c-2.69,3.41-2.98,3.23-6.41,5.27
				c-3.43,2.04-9.93,6.59-13.83,9.19s-6.27,0.54-9.31,5.14c-3.04,4.6-8.5,6.36-11.62,8.41c-3.12,2.04-4.98,4.41-5.02,4.85
				c-0.04,0.44,1.36,1.47,1.63,2.25c0.28,0.79-1.74-1.07-3.66-0.47c-1.92,0.6-5.65,0.98-5.73,0.47c-0.08-0.51-2.68-1.16-0.73-1.81
				c1.95-0.65,2.47,0.65,4.16-1.62s-0.26-2.27,3.64-5.52c3.9-3.25,4.49-1.65,6.79-3.42c2.3-1.77,8.86-7.73,10.13-9.62
				s2.42-4.5,6.39-4.82s16.24-8.28,18.23-9.5c1.99-1.22,6.54-9.02,9.14-10.32c2.6-1.3,15.06-12.17,16.63-11.93s3.98-1.9,7.32-4.08
				s8.02-6.64,12.18-7.98c4.16-1.35,10.16-5.71,11.38-6.78c1.22-1.07,10.41-8.63,13.94-10.37c3.53-1.74,9.25-3.95,10.61-6.42
				c1.36-2.47,5.91-5.84,6.89-7.4s13.32-6.11,15.27-8.06c1.95-1.95,0.69-3.75,4.57-7.07s4.54-3.8,5.18-3.56s-0.16-1.52,2.51-1.94
				c2.68-0.42,1.72,0.23,5.77-1.07C304.48,37.61,312.61,37.14,313.09,38.02z"/>
			<path class="st37" d="M280.91,36.91c-1.77,1.99-3.07,2.64-5.02,3.29c-1.95,0.65-4.77,2.15-7.58,4
				c-2.82,1.85-9.72,4.98-11.46,6.66s-3.05,3.63-5.65,6.23c-2.6,2.6-8.05,5.5-10.85,6.33c-2.8,0.82-2.8,2.77-5.4,5.37
				s-10.51,4.47-11.75,6.46s0.79,1.95-4.13,4.57c-4.91,2.62-6.87,5.07-8.49,6.12c-1.62,1.05-5.65,2.28-9.16,3.94
				c-3.51,1.66-1.56,2.96-6.11,6.2s-4.72,3.25-7.23,4.87c-2.51,1.63-3.16,1.63-5.11,3.58c-1.95,1.95-3.9,3.9-7.15,5.85
				c-3.25,1.95-8.48,1.25-10.74,3.55c-2.26,2.3-1.97,3.83-4.71,5.34s-4.04,1.51-5.34,3.46c-1.3,1.95-1.95,2.6-3.9,3.9
				c-1.95,1.3-5.23,4.37-8.79,5.76c-3.56,1.39-6.16,3.34-8.11,5.29s-9.1,6.5-10.4,6.5s-6.1,1.44-10.52,4.94
				c-4.42,3.5-2.47,2.85-6.37,6.1c-3.9,3.25-3.9,4.55-5.85,5.2c-1.95,0.65-3.25,0.65-2.6,0.65s-1.95-0.61-1.62-1.93
				s4.22-1.32,6.17-5.22c1.95-3.9,9.75-7.15,13.65-12.35c3.9-5.2,4.55-1.95,7.8-4.55c3.25-2.6,0.5-2.19,4.48-4.02
				c3.97-1.83,3.07-0.66,7.1-4.17c4.02-3.51,1.43-0.91,6.62-5.46c5.2-4.55,5.85-5.2,8.45-7.15c2.6-1.95,7.15,0.65,11.05-3.9
				c3.9-4.55,0-3.25,7.15-7.15c7.15-3.9,8.35-2.78,9.37-5.61c1.02-2.83,5.57-3.48,6.87-4.13c1.3-0.65,5.27-5.92,8.16-6.53
				c2.89-0.61,9.39-2.56,11.34-5.16c1.95-2.6,5.2-3.9,7.8-5.85c2.6-1.95,0.41-0.41,4.43-3.46s4.02-4.99,6.62-5.64
				s2.11-0.61,6.9-3.88c4.79-3.27,7.79-1.56,9.54-5.66c1.75-4.1,11.5-5.4,13.45-8.65s3.25-4.55,5.85-5.85
				c2.6-1.3-0.65,1.3,4.55-3.25s6.99-1.95,8.37-2.6s2.61-1.34,2.61-1.34L280.91,36.91z"/>
		</g>
	</g>
	<g>
		<g>
			<path class="st45" d="M209.42,21.68L209.42,21.68c0-2.16-2.38-3.46-4.2-2.3L3.65,147.83c-1.28,0.82-2.06,2.23-2.06,3.75v0
				c0,3.54,3.93,5.66,6.88,3.71L208.19,23.96C208.96,23.45,209.42,22.59,209.42,21.68z"/>
			<path class="st45" d="M19.02,139.72l75.44-47.39l-60.08,39.51l132.54-85.63l-38.52,26.8l78.48-52.97c0,0,3.62,0.87-2.5,5.11
				c-6.12,4.24-186.56,122.69-186.56,122.69l106.44-72.45l-68.09,44.2L19.02,139.72z"/>
			<path class="st45" d="M208.07,9.49V9.36c0-2.12-2.31-3.43-4.13-2.35L2.42,126.78c-1.35,0.8-2.17,2.25-2.17,3.82v0.2
				c0,3.47,3.81,5.6,6.77,3.79L206.77,11.81C207.58,11.32,208.07,10.44,208.07,9.49z"/>
			<path class="st45" d="M14.64,122.33l76.61-45.47L30.2,114.84l134.66-82.25l-39.19,25.82l79.8-50.97c0,0,3.6,0.96-2.63,5.04
				c-6.23,4.08-189.61,117.93-189.61,117.93l108.24-69.74l-69.18,42.47L14.64,122.33z"/>
			<g>
				<path class="st42" d="M210.92,21.82L210.92,21.82c0-2.16-2.38-3.46-4.2-2.3L5.15,147.97c-1.28,0.82-2.06,2.23-2.06,3.75v0
					c0,3.54,3.93,5.66,6.88,3.71L209.69,24.1C210.46,23.59,210.92,22.73,210.92,21.82z"/>
				<path class="st68" d="M20.52,139.86l75.44-47.39l-60.08,39.51l132.54-85.63l-38.52,26.8l78.48-52.97c0,0,3.62,0.87-2.5,5.11
					c-6.12,4.24-186.56,122.69-186.56,122.69l106.44-72.45l-68.09,44.2L20.52,139.86z"/>
				<path class="st42" d="M209.57,9.63V9.5c0-2.12-2.31-3.43-4.13-2.35L3.92,126.92c-1.35,0.8-2.17,2.25-2.17,3.82v0.2
					c0,3.47,3.81,5.6,6.77,3.79L208.27,11.95C209.08,11.46,209.57,10.58,209.57,9.63z"/>
				<path class="st68" d="M16.14,122.47L92.75,77L31.7,114.98l134.66-82.25l-39.19,25.82l79.8-50.97c0,0,3.6,0.96-2.63,5.04
					C198.1,16.71,14.73,130.56,14.73,130.56l108.24-69.74l-69.18,42.47L16.14,122.47z"/>
				<path class="st45" d="M12.81,112.55v56.51c0,0.79,0.88,1.25,1.53,0.81l3.42-2.34c1.5-1.03,2.4-2.73,2.4-4.55v-55.34l-2.68-2.9
					L12.81,112.55z"/>
				<path class="st45" d="M39.4,97.63v53.02c0,0.79,0.88,1.25,1.53,0.81l2.99-2.04c1.5-1.03,2.4-2.73,2.4-4.55V93.02l-2.46-2.73
					L39.4,97.63z"/>
				<path class="st45" d="M64.42,80.66v53.02c0,0.79,0.88,1.25,1.53,0.81l2.99-2.04c1.5-1.03,2.4-2.73,2.4-4.55V76.05l-2.46-2.73
					L64.42,80.66z"/>
				<path class="st45" d="M87.65,67.37v51.12c0,0.79,0.88,1.25,1.53,0.81l2.75-1.88c1.5-1.03,2.4-2.73,2.4-4.55V62.92l-2.34-2.63
					L87.65,67.37z"/>
				<path class="st45" d="M111.77,53.55v47.97c0,0.79,0.88,1.25,1.53,0.81l2.35-1.6c1.5-1.03,2.4-2.73,2.4-4.55V49.36l-2.14-2.48
					L111.77,53.55z"/>
				<path class="st45" d="M134.11,41.51v44.82c0,0.79,0.88,1.25,1.53,0.81l1.95-1.33c1.5-1.03,2.4-2.73,2.4-4.55V37.59l-1.94-2.32
					L134.11,41.51z"/>
				<path class="st45" d="M154.65,27.22v44.82c0,0.79,0.88,1.25,1.53,0.81l1.95-1.33c1.5-1.03,2.4-2.73,2.4-4.55V23.3l-1.94-2.32
					L154.65,27.22z"/>
				<path class="st45" d="M174.31,15.39v43.24c0,0.79,0.88,1.25,1.53,0.81l1.75-1.2c1.5-1.03,2.4-2.73,2.4-4.55V11.6l-1.84-2.24
					L174.31,15.39z"/>
				<path class="st45" d="M193.96,5.93v39.3c0,0.79,0.88,1.25,1.53,0.81l1.26-0.86c1.5-1.03,2.4-2.73,2.4-4.55V2.47l-1.59-2.04
					L193.96,5.93z"/>
				<path class="st42" d="M14.31,112.69v56.51c0,0.79,0.88,1.25,1.53,0.81l3.42-2.34c1.5-1.03,2.4-2.73,2.4-4.55v-55.34l-3.68-2.9
					L14.31,112.69z"/>
				<path class="st42" d="M40.9,97.77v53.02c0,0.79,0.88,1.25,1.53,0.81l2.99-2.04c1.5-1.03,2.4-2.73,2.4-4.55V93.16l-3.46-2.73
					L40.9,97.77z"/>
				<path class="st42" d="M65.91,80.8v53.02c0,0.79,0.88,1.25,1.53,0.81l2.99-2.04c1.5-1.03,2.4-2.73,2.4-4.55V76.19l-3.46-2.73
					L65.91,80.8z"/>
				<path class="st42" d="M89.14,67.51v51.12c0,0.79,0.88,1.25,1.53,0.81l2.75-1.88c1.5-1.03,2.4-2.73,2.4-4.55V63.06l-3.34-2.63
					L89.14,67.51z"/>
				<path class="st42" d="M113.26,53.69v47.97c0,0.79,0.88,1.25,1.53,0.81l2.35-1.6c1.5-1.03,2.4-2.73,2.4-4.55V49.5l-3.14-2.48
					L113.26,53.69z"/>
				<path class="st42" d="M135.6,41.65v44.82c0,0.79,0.88,1.25,1.53,0.81l1.95-1.33c1.5-1.03,2.4-2.73,2.4-4.55V37.73l-2.94-2.32
					L135.6,41.65z"/>
				<path class="st42" d="M156.15,27.36v44.82c0,0.79,0.88,1.25,1.53,0.81l1.95-1.33c1.5-1.03,2.4-2.73,2.4-4.55V23.44l-2.94-2.32
					L156.15,27.36z"/>
				<path class="st42" d="M175.8,15.53v43.24c0,0.79,0.88,1.25,1.53,0.81l1.75-1.2c1.5-1.03,2.4-2.73,2.4-4.55V11.74l-2.84-2.24
					L175.8,15.53z"/>
				<path class="st42" d="M195.46,6.07v39.3c0,0.79,0.88,1.25,1.53,0.81l1.26-0.86c1.5-1.03,2.4-2.73,2.4-4.55V2.61l-2.59-2.04
					L195.46,6.07z"/>
			</g>
			<g>
				<path class="st68" d="M15.89,167.31v-42.51l2.3,39.3v-12.23l2.34,10.67C20.53,162.54,18.63,167.18,15.89,167.31z"/>
				<path class="st68" d="M42.3,149.08v-42.51l2.3,39.3v-12.23l2.34,10.67C46.94,144.31,45.04,148.95,42.3,149.08z"/>
				<path class="st68" d="M67.18,132.08V89.58l2.3,39.3v-12.23l2.34,10.67C71.82,127.31,69.92,131.95,67.18,132.08z"/>
				<path class="st68" d="M90.07,117.08V74.58l2.3,39.3v-12.23l2.34,10.67C94.71,112.31,92.81,116.95,90.07,117.08z"/>
				<path class="st68" d="M114.67,100.04V57.53l2.7,39.3V84.59l1.89,10.67C119.25,95.27,117.72,99.91,114.67,100.04z"/>
				<path class="st68" d="M136.58,84.82V42.31l2.3,39.3V69.38l1.34,10.67C140.22,80.05,139.32,84.69,136.58,84.82z"/>
				<path class="st68" d="M157.48,69.82V27.31l1.96,39.3V54.38l2,10.67C161.44,65.05,159.82,69.69,157.48,69.82z"/>
				<path class="st68" d="M177.06,57.13V14.62l2.12,39.3V41.68l1.16,10.67C180.34,52.36,179.59,56.99,177.06,57.13z"/>
				<path class="st68" d="M195.97,43.13V6.62l2.12,33.3V27.68l2.16,10.67C200.25,38.36,198.5,42.99,195.97,43.13z"/>
			</g>
			<g>
				<g>
					<ellipse class="st61" cx="18.25" cy="122.32" rx="1.25" ry="1.75"/>
					<ellipse class="st61" cx="18.25" cy="142.82" rx="1.25" ry="1.75"/>
					<ellipse class="st61" cx="44.63" cy="107" rx="1.25" ry="1.75"/>
					<ellipse class="st61" cx="44.63" cy="127.5" rx="1.25" ry="1.75"/>
					<ellipse class="st61" cx="69.52" cy="92.84" rx="1.14" ry="1.59"/>
					<ellipse class="st61" cx="69.52" cy="111.48" rx="1.14" ry="1.59"/>
					<ellipse class="st61" cx="92.52" cy="78.84" rx="1.14" ry="1.59"/>
					<ellipse class="st61" cx="92.52" cy="97.48" rx="1.14" ry="1.59"/>
					<ellipse class="st61" cx="116.63" cy="63.93" rx="1.14" ry="1.59"/>
					<ellipse class="st61" cx="116.63" cy="82.57" rx="1.14" ry="1.59"/>
					<ellipse class="st61" cx="159.49" cy="37.73" rx="0.99" ry="1.39"/>
					<ellipse class="st61" cx="159.49" cy="54.04" rx="0.99" ry="1.39"/>
					<ellipse class="st61" cx="179.1" cy="25.29" rx="1.06" ry="1.48"/>
					<ellipse class="st61" cx="179.1" cy="42.6" rx="1.06" ry="1.48"/>
				</g>
				<ellipse class="st61" cx="138.84" cy="49.98" rx="1.07" ry="1.5"/>
				<ellipse class="st61" cx="138.84" cy="67.53" rx="1.07" ry="1.5"/>
				<ellipse class="st61" cx="198.04" cy="13.19" rx="1" ry="1.4"/>
				<ellipse class="st61" cx="198.04" cy="29.63" rx="1" ry="1.4"/>
			</g>
			<g>
				<g>
					<ellipse class="st42" cx="19.21" cy="122.25" rx="1.25" ry="1.75"/>
					<ellipse class="st42" cx="19.21" cy="142.75" rx="1.25" ry="1.75"/>
					<ellipse class="st42" cx="45.59" cy="106.93" rx="1.25" ry="1.75"/>
					<ellipse class="st42" cx="45.59" cy="127.43" rx="1.25" ry="1.75"/>
					<ellipse class="st42" cx="70.48" cy="92.77" rx="1.14" ry="1.59"/>
					<ellipse class="st42" cx="70.48" cy="111.41" rx="1.14" ry="1.59"/>
					<ellipse class="st42" cx="93.48" cy="78.77" rx="1.14" ry="1.59"/>
					<ellipse class="st42" cx="93.48" cy="97.41" rx="1.14" ry="1.59"/>
					<ellipse class="st42" cx="117.59" cy="63.86" rx="1.14" ry="1.59"/>
					<ellipse class="st42" cx="117.59" cy="82.49" rx="1.14" ry="1.59"/>
					<ellipse class="st42" cx="160.45" cy="37.66" rx="0.99" ry="1.39"/>
					<ellipse class="st42" cx="160.45" cy="53.97" rx="0.99" ry="1.39"/>
					<ellipse class="st42" cx="180.06" cy="25.21" rx="1.06" ry="1.48"/>
					<ellipse class="st42" cx="180.06" cy="42.52" rx="1.06" ry="1.48"/>
				</g>
				<ellipse class="st42" cx="139.8" cy="49.9" rx="1.07" ry="1.5"/>
				<ellipse class="st42" cx="139.8" cy="67.46" rx="1.07" ry="1.5"/>
				<ellipse class="st42" cx="199" cy="13.11" rx="1" ry="1.4"/>
				<ellipse class="st42" cx="199" cy="29.55" rx="1" ry="1.4"/>
			</g>
		</g>
		<g>
			<path class="st45" d="M1089.74,21.68L1089.74,21.68c0-2.16,2.38-3.46,4.2-2.3l201.57,128.46c1.28,0.82,2.06,2.23,2.06,3.75v0
				c0,3.54-3.93,5.66-6.88,3.71L1090.98,23.96C1090.21,23.45,1089.74,22.59,1089.74,21.68z"/>
			<path class="st45" d="M1280.15,139.72l-75.44-47.39l60.08,39.51l-132.54-85.63l38.52,26.8l-78.48-52.97c0,0-3.62,0.87,2.5,5.11
				s186.56,122.69,186.56,122.69l-106.44-72.45l68.09,44.2L1280.15,139.72z"/>
			<path class="st45" d="M1091.09,9.49V9.36c0-2.12,2.31-3.43,4.13-2.35l201.53,119.77c1.35,0.8,2.17,2.25,2.17,3.82v0.2
				c0,3.47-3.81,5.6-6.77,3.79L1092.4,11.81C1091.59,11.32,1091.09,10.44,1091.09,9.49z"/>
			<path class="st45" d="M1284.53,122.33l-76.61-45.47l61.06,37.98l-134.66-82.25l39.19,25.82l-79.8-50.97c0,0-3.6,0.96,2.63,5.04
				c6.23,4.08,189.61,117.93,189.61,117.93L1177.7,60.68l69.18,42.47L1284.53,122.33z"/>
			<g>
				<path class="st42" d="M1088.25,21.82L1088.25,21.82c0-2.16,2.38-3.46,4.2-2.3l201.57,128.46c1.28,0.82,2.06,2.23,2.06,3.75v0
					c0,3.54-3.93,5.66-6.88,3.71L1089.48,24.1C1088.71,23.59,1088.25,22.73,1088.25,21.82z"/>
				<path class="st68" d="M1278.65,139.86l-75.44-47.39l60.08,39.51l-132.54-85.63l38.52,26.8l-78.48-52.97c0,0-3.62,0.87,2.5,5.11
					c6.12,4.24,186.56,122.69,186.56,122.69l-106.44-72.45l68.09,44.2L1278.65,139.86z"/>
				<path class="st42" d="M1089.6,9.63V9.5c0-2.12,2.31-3.43,4.13-2.35l201.53,119.77c1.35,0.8,2.17,2.25,2.17,3.82v0.2
					c0,3.47-3.81,5.6-6.77,3.79L1090.9,11.95C1090.09,11.46,1089.6,10.58,1089.6,9.63z"/>
				<path class="st68" d="M1283.03,122.47L1206.42,77l61.06,37.98l-134.66-82.25L1172,58.55l-79.8-50.97c0,0-3.6,0.96,2.63,5.04
					c6.23,4.08,189.61,117.93,189.61,117.93l-108.24-69.74l69.18,42.47L1283.03,122.47z"/>
				<path class="st45" d="M1286.36,112.55v56.51c0,0.79-0.88,1.25-1.53,0.81l-3.42-2.34c-1.5-1.03-2.4-2.73-2.4-4.55v-55.34
					l2.68-2.9L1286.36,112.55z"/>
				<path class="st45" d="M1259.77,97.63v53.02c0,0.79-0.88,1.25-1.53,0.81l-2.98-2.04c-1.5-1.03-2.4-2.73-2.4-4.55V93.02l2.46-2.73
					L1259.77,97.63z"/>
				<path class="st45" d="M1234.75,80.66v53.02c0,0.79-0.88,1.25-1.53,0.81l-2.99-2.04c-1.5-1.03-2.4-2.73-2.4-4.55V76.05l2.46-2.73
					L1234.75,80.66z"/>
				<path class="st45" d="M1211.52,67.37v51.12c0,0.79-0.88,1.25-1.53,0.81l-2.75-1.88c-1.5-1.03-2.4-2.73-2.4-4.55V62.92l2.34-2.63
					L1211.52,67.37z"/>
				<path class="st45" d="M1187.4,53.55v47.97c0,0.79-0.88,1.25-1.53,0.81l-2.35-1.6c-1.5-1.03-2.4-2.73-2.4-4.55V49.36l2.14-2.48
					L1187.4,53.55z"/>
				<path class="st45" d="M1165.06,41.51v44.82c0,0.79-0.88,1.25-1.53,0.81l-1.95-1.33c-1.5-1.03-2.4-2.73-2.4-4.55V37.59l1.94-2.32
					L1165.06,41.51z"/>
				<path class="st45" d="M1144.52,27.22v44.82c0,0.79-0.88,1.25-1.53,0.81l-1.95-1.33c-1.5-1.03-2.4-2.73-2.4-4.55V23.3l1.94-2.32
					L1144.52,27.22z"/>
				<path class="st45" d="M1124.86,15.39v43.24c0,0.79-0.88,1.25-1.53,0.81l-1.75-1.2c-1.5-1.03-2.4-2.73-2.4-4.55V11.6l1.84-2.24
					L1124.86,15.39z"/>
				<path class="st45" d="M1105.21,5.93v39.3c0,0.79-0.88,1.25-1.53,0.81l-1.26-0.86c-1.5-1.03-2.4-2.73-2.4-4.55V2.47l1.59-2.04
					L1105.21,5.93z"/>
				<path class="st42" d="M1284.86,112.69v56.51c0,0.79-0.88,1.25-1.53,0.81l-3.42-2.34c-1.5-1.03-2.4-2.73-2.4-4.55v-55.34
					l3.68-2.9L1284.86,112.69z"/>
				<path class="st42" d="M1258.27,97.77v53.02c0,0.79-0.88,1.25-1.53,0.81l-2.99-2.04c-1.5-1.03-2.4-2.73-2.4-4.55V93.16l3.46-2.73
					L1258.27,97.77z"/>
				<path class="st42" d="M1233.26,80.8v53.02c0,0.79-0.88,1.25-1.53,0.81l-2.98-2.04c-1.5-1.03-2.4-2.73-2.4-4.55V76.19l3.46-2.73
					L1233.26,80.8z"/>
				<path class="st42" d="M1210.03,67.51v51.12c0,0.79-0.88,1.25-1.53,0.81l-2.75-1.88c-1.5-1.03-2.4-2.73-2.4-4.55V63.06l3.34-2.63
					L1210.03,67.51z"/>
				<path class="st42" d="M1185.9,53.69v47.97c0,0.79-0.88,1.25-1.53,0.81l-2.35-1.6c-1.5-1.03-2.4-2.73-2.4-4.55V49.5l3.14-2.48
					L1185.9,53.69z"/>
				<path class="st42" d="M1163.57,41.65v44.82c0,0.79-0.88,1.25-1.53,0.81l-1.95-1.33c-1.5-1.03-2.4-2.73-2.4-4.55V37.73l2.94-2.32
					L1163.57,41.65z"/>
				<path class="st42" d="M1143.02,27.36v44.82c0,0.79-0.88,1.25-1.53,0.81l-1.95-1.33c-1.5-1.03-2.4-2.73-2.4-4.55V23.44l2.94-2.32
					L1143.02,27.36z"/>
				<path class="st42" d="M1123.37,15.53v43.24c0,0.79-0.88,1.25-1.53,0.81l-1.75-1.2c-1.5-1.03-2.4-2.73-2.4-4.55V11.74l2.84-2.24
					L1123.37,15.53z"/>
				<path class="st42" d="M1103.71,6.07v39.3c0,0.79-0.88,1.25-1.53,0.81l-1.26-0.86c-1.5-1.03-2.4-2.73-2.4-4.55V2.61l2.59-2.04
					L1103.71,6.07z"/>
			</g>
			<g>
				<path class="st68" d="M1283.28,167.31v-42.51l-2.3,39.3v-12.23l-2.34,10.67C1278.64,162.54,1280.54,167.18,1283.28,167.31z"/>
				<path class="st68" d="M1256.87,149.08v-42.51l-2.3,39.3v-12.23l-2.34,10.67C1252.23,144.31,1254.13,148.95,1256.87,149.08z"/>
				<path class="st68" d="M1231.98,132.08V89.58l-2.3,39.3v-12.23l-2.34,10.67C1227.35,127.31,1229.24,131.95,1231.98,132.08z"/>
				<path class="st68" d="M1209.09,117.08V74.58l-2.3,39.3v-12.23l-2.34,10.67C1204.46,112.31,1206.35,116.95,1209.09,117.08z"/>
				<path class="st68" d="M1184.5,100.04V57.53l-2.7,39.3V84.59l-1.89,10.67C1179.92,95.27,1181.45,99.91,1184.5,100.04z"/>
				<path class="st68" d="M1162.59,84.82V42.31l-2.3,39.3V69.38l-1.34,10.67C1158.95,80.05,1159.84,84.69,1162.59,84.82z"/>
				<path class="st68" d="M1141.69,69.82V27.31l-1.96,39.3V54.38l-2,10.67C1137.73,65.05,1139.35,69.69,1141.69,69.82z"/>
				<path class="st68" d="M1122.11,57.13V14.62l-2.12,39.3V41.68l-1.16,10.67C1118.83,52.36,1119.58,56.99,1122.11,57.13z"/>
				<path class="st68" d="M1103.2,43.13V6.62l-2.12,33.3V27.68l-2.16,10.67C1098.92,38.36,1100.67,42.99,1103.2,43.13z"/>
			</g>
			<g>
				<g>
					<ellipse class="st61" cx="1280.91" cy="122.32" rx="1.25" ry="1.75"/>
					<ellipse class="st61" cx="1280.91" cy="142.82" rx="1.25" ry="1.75"/>
					<ellipse class="st61" cx="1254.54" cy="107" rx="1.25" ry="1.75"/>
					<ellipse class="st61" cx="1254.54" cy="127.5" rx="1.25" ry="1.75"/>
					<ellipse class="st61" cx="1229.65" cy="92.84" rx="1.14" ry="1.59"/>
					<ellipse class="st61" cx="1229.65" cy="111.48" rx="1.14" ry="1.59"/>
					<ellipse class="st61" cx="1206.65" cy="78.84" rx="1.14" ry="1.59"/>
					<ellipse class="st61" cx="1206.65" cy="97.48" rx="1.14" ry="1.59"/>
					<ellipse class="st61" cx="1182.54" cy="63.93" rx="1.14" ry="1.59"/>
					<ellipse class="st61" cx="1182.54" cy="82.57" rx="1.14" ry="1.59"/>
					<ellipse class="st61" cx="1139.68" cy="37.73" rx="0.99" ry="1.39"/>
					<ellipse class="st61" cx="1139.68" cy="54.04" rx="0.99" ry="1.39"/>
					<ellipse class="st61" cx="1120.07" cy="25.29" rx="1.06" ry="1.48"/>
					<ellipse class="st61" cx="1120.07" cy="42.6" rx="1.06" ry="1.48"/>
				</g>
				<ellipse class="st61" cx="1160.33" cy="49.98" rx="1.07" ry="1.5"/>
				<ellipse class="st61" cx="1160.33" cy="67.53" rx="1.07" ry="1.5"/>
				<ellipse class="st61" cx="1101.13" cy="13.19" rx="1" ry="1.4"/>
				<ellipse class="st61" cx="1101.13" cy="29.63" rx="1" ry="1.4"/>
			</g>
			<g>
				<g>
					<ellipse class="st42" cx="1279.96" cy="122.25" rx="1.25" ry="1.75"/>
					<ellipse class="st42" cx="1279.96" cy="142.75" rx="1.25" ry="1.75"/>
					<ellipse class="st42" cx="1253.58" cy="106.93" rx="1.25" ry="1.75"/>
					<ellipse class="st42" cx="1253.58" cy="127.43" rx="1.25" ry="1.75"/>
					<ellipse class="st42" cx="1228.69" cy="92.77" rx="1.14" ry="1.59"/>
					<ellipse class="st42" cx="1228.69" cy="111.41" rx="1.14" ry="1.59"/>
					<ellipse class="st42" cx="1205.69" cy="78.77" rx="1.14" ry="1.59"/>
					<ellipse class="st42" cx="1205.69" cy="97.41" rx="1.14" ry="1.59"/>
					<ellipse class="st42" cx="1181.58" cy="63.86" rx="1.14" ry="1.59"/>
					<ellipse class="st42" cx="1181.58" cy="82.49" rx="1.14" ry="1.59"/>
					<ellipse class="st42" cx="1138.72" cy="37.66" rx="0.99" ry="1.39"/>
					<ellipse class="st42" cx="1138.72" cy="53.97" rx="0.99" ry="1.39"/>
					<ellipse class="st42" cx="1119.11" cy="25.21" rx="1.06" ry="1.48"/>
					<ellipse class="st42" cx="1119.11" cy="42.52" rx="1.06" ry="1.48"/>
				</g>
				<ellipse class="st42" cx="1159.37" cy="49.9" rx="1.07" ry="1.5"/>
				<ellipse class="st42" cx="1159.37" cy="67.46" rx="1.07" ry="1.5"/>
				<ellipse class="st42" cx="1100.17" cy="13.11" rx="1" ry="1.4"/>
				<ellipse class="st42" cx="1100.17" cy="29.55" rx="1" ry="1.4"/>
			</g>
		</g>
	</g>
</g>
</svg>
