<?xml version="1.0" encoding="utf-8"?>
<!-- Generator: Adobe Illustrator 25.0.0, SVG Export Plug-In . SVG Version: 6.00 Build 0)  -->
<svg version="1.1" id="Слой_1" xmlns="http://www.w3.org/2000/svg" xmlns:xlink="http://www.w3.org/1999/xlink" x="0px" y="0px"
	 viewBox="0 0 1920 1080" style="enable-background:new 0 0 1920 1080;" xml:space="preserve">
<style type="text/css">
	.st0{fill:url(#SVGID_1_);}
	.st1{fill:#ECF0D9;}
	.st2{fill:#DEE3B4;}
	.st3{fill:#E3E7BF;}
	.st4{fill:#CCD58F;}
	.st5{fill:#B3C150;}
	.st6{fill:#A3AF4E;}
	.st7{fill:#979E41;}
	.st8{fill:url(#SVGID_2_);}
	.st9{fill:url(#SVGID_3_);}
	.st10{fill:url(#SVGID_4_);}
	.st11{fill:url(#SVGID_5_);}
	.st12{fill:url(#SVGID_6_);}
	.st13{fill:url(#SVGID_7_);}
	.st14{fill:url(#SVGID_8_);}
	.st15{fill:url(#SVGID_9_);}
	.st16{fill:url(#SVGID_10_);}
	.st17{fill:url(#SVGID_11_);}
	.st18{fill:#FFF2DB;}
	.st19{fill:#A79B9C;}
	.st20{fill:#FFF3DB;}
	.st21{fill:#FCE8C5;}
	.st22{fill:#DAE578;}
	.st23{fill:url(#SVGID_12_);}
	.st24{fill:url(#SVGID_13_);}
	.st25{fill:url(#SVGID_14_);}
	.st26{fill:url(#SVGID_15_);}
	.st27{fill:url(#SVGID_16_);}
	.st28{fill:url(#SVGID_17_);}
	.st29{fill:url(#SVGID_18_);}
	.st30{fill:url(#SVGID_19_);}
	.st31{fill:url(#SVGID_20_);}
	.st32{fill:#FEE6B9;}
	.st33{fill:#574246;}
	.st34{fill:#C4BBBC;}
	.st35{fill:#8C7E7F;}
	.st36{fill:#FECE74;}
	.st37{fill:#9E8E86;}
	.st38{fill:#E6CCBD;}
	.st39{fill:#FEC251;}
	.st40{fill:#FEF2DB;}
	.st41{fill:#286489;}
	.st42{fill:#F3ECD6;}
	.st43{fill:#FEF2DC;}
	.st44{fill:#725F62;}
	.st45{fill:#645053;}
	.st46{fill:#FFFFFF;}
	.st47{fill:#645053;stroke:#574246;stroke-width:0.5;stroke-miterlimit:10;}
	.st48{fill:#574246;stroke:#574246;stroke-width:0.5;stroke-miterlimit:10;}
	.st49{fill:url(#SVGID_21_);stroke:#574246;stroke-width:0.5;stroke-miterlimit:10;}
	.st50{fill:url(#SVGID_22_);stroke:#574246;stroke-width:0.5;stroke-miterlimit:10;}
	.st51{fill:url(#SVGID_23_);stroke:#574246;stroke-width:0.5;stroke-miterlimit:10;}
	.st52{fill:url(#SVGID_24_);stroke:#574246;stroke-width:0.5;stroke-miterlimit:10;}
	.st53{fill:url(#SVGID_25_);stroke:#574246;stroke-width:0.5;stroke-miterlimit:10;}
	.st54{fill:url(#SVGID_26_);stroke:#574246;stroke-width:0.5;stroke-miterlimit:10;}
</style>
<g id="Слой_1_1_">
</g>
<g id="Слой_2_1_">
</g>
<g id="Слой_3">
</g>
<g id="фон">
</g>
<g id="_x31__1_">
</g>
<g>
	
		<linearGradient id="SVGID_1_" gradientUnits="userSpaceOnUse" x1="960" y1="832.28" x2="960" y2="1080.95" gradientTransform="matrix(1 0 0 -1 0 1082)">
		<stop  offset="0" style="stop-color:#C5F1FF"/>
		<stop  offset="0.4377" style="stop-color:#E8FAFF"/>
		<stop  offset="0.7728" style="stop-color:#FFFFFF"/>
	</linearGradient>
	<path class="st0" d="M1920,237.1c0-38.8,0-52,0-236L0,1c0,0,0,221.2,0,248.7L1920,237.1z"/>
	<g>
		<path class="st1" d="M0,132.1c23.6-7.1,66.4-18.8,98-19c46-0.3,112.5,59.3,146,71c21.3,7.4,177.7-32.4,200-29
			c205.3,31.2,71.1,118.9,344,23c239-84,338.9,0.1,406.5,16.8c23.2,5.7,47.5,6,70.8,0.6l188-43.1c59.5-13.7,122-4,174.6,27.1
			L1827,297c-869.2,249.2-1265.7-79.7-1491-3c0,0-131.2-36.4-150.8-23c-59.9,25-148-44.9-185.2-78.2V132.1z"/>
		<path class="st2" d="M0,146.1c10.5-3.5,72-23.7,114-24c46-0.3,112.5,59.3,146,71c21.3,7.4,177.7-32.4,200-29
			c205.3,31.2,71.1,118.9,344,23c239-84,338.9,0.1,406.5,16.8c23.2,5.7,47.5,6,70.8,0.6l188-43.1c59.5-13.7,122-4,174.6,27.1
			L1843,306c-869.2,249.2-1265.7-79.7-1491-3c0,0-131.2-36.4-150.8-23c-72.6,30.2-186.6-78.6-201.2-93V146.1z"/>
		<path class="st3" d="M1714.5,161.6c-78,39-203,83-203,83c-871.6,249.2-955-127-1137-51c0,0-121,41.1-185.8,73.5
			c-41.8,20.9-149.3-54.2-188.6-83.5C0,184.1,0,345.3,0,345.3l190.8-1.1l1537.5,1l177.4,0.2l2.8-83.9
			C1908.5,261.5,1801.5,118.1,1714.5,161.6z"/>
		<path class="st4" d="M0.1,352.4l202.7-1.2l1537.5,1L1920,352v-83c0,0-106.5-144-193.5-100.5c-78,39-203,83-203,83
			c-871.6,249.2-955-127-1137-51c0,0-121,41.1-185.8,73.5C141,303.8,19,198.6,0,181.7C-0.1,181.6,0.1,352.4,0.1,352.4z"/>
		<g>
			<g>
				<g>
					<path class="st5" d="M42.4,316.1c33.5,8.2,58.7-22.5,104-9.6c57.9,16.5,91.9,31.5,122.9,24c19.9-4.8,17-13.8,63.3-18.5
						c33.5-3.4,54.6,30.5,130.2,24.7c53.3-4.1,46.1-8.2,87.7-12.3c58.5-5.8,121.1,15.1,169,15.1c43.4,0,55.2-28.8,107.6-33.6
						c49-4.5,61.6,53.7-2.7,49.3L0.9,343.6c0,0-0.9-10.6-0.9-14.1C7.6,320.3,21,310.9,42.4,316.1z"/>
				</g>
				<g>
					<path class="st5" d="M1876.4,311.9c-33.3,10.8-58.4-29.6-103.4-12.6c-57.5,21.6-91.4,41.4-122.3,31.6
						c-19.8-6.3-16.9-18.1-62.9-24.4c-33.3-4.5-54.3,40.1-129.5,32.5c-53.1-5.4-45.8-10.8-87.2-16.2
						c-58.2-7.6-120.5,19.9-168.1,19.9c-43.2,0-54.8-37.9-107-44.2c-48.7-5.9-61.3,70.8,2.7,65l821.1-18.3
						C1919.7,345,1914,299.7,1876.4,311.9z"/>
				</g>
			</g>
		</g>
	</g>
</g>
<path class="st6" d="M761.8,298.9c0,0-12.9-21.3-20.8-26.5s-13.9-2.6-7.8-16.5c6.1-13.9,22.6-43.4,22.6-43.4l15.3-9.6l9.9,11.4
	l4.3,26.1l17.4,14.8l2.9,13.1C805.7,268.2,767.8,303.6,761.8,298.9z"/>
<g>
	<path class="st7" d="M722.2,277.4c-9.7-3.9-30.4,0.7-50.7,0c-2.9-0.1-5.5,0-7.7,0.1c4-4.5,5.8-9.1,2.4-12.4
		c-8.4-7.9-9.8-15.5-34.3-14.6s-49.5-4.7-61.3-0.1c-11.5,4.6-21.7,11.7-29.2,20c-3.4-2-7-3.8-10.7-5.3c-8.9-3.6-26.7-0.4-45.3,0.1
		c-4.2-2.4-10.2-3.9-21.2-3.5c-22.8,0.8-46.2-4.4-57.2-0.1c-10.9,4.4-20.7,11.2-27.7,19.2c-7,8-10.3,19.5-10.3,19.5
		s2.7,8.8,20.9,14.8c18.1,6,16.8,14,43.7-7c7.3-5.7,12.5,14.4,20.3,14.4c6.5,0,9.5-12.9,15.8-19c7.1,4.9,9.8,19.5,16.6,19.5
		c7.4,0,12.4-19.1,19.3-13.7c25.6,20,24.3,12.4,41.5,6.7c5.2-1.7,9-3.7,11.8-5.6c12.9,5.6,15.1,9.5,40.2-10.1
		c7.8-6.1,13.4,15.5,21.7,15.5c8.3,0,11.2-19.2,20.8-23.1c-0.3,7,14.6,17,21.6,19.5c8.1,2.9,10.5,19.2,17.5,19.2s11.6-17.8,18-12.8
		c23.9,18.7,22.7,11.6,38.7,6.2c16.1-5.4,18.5-13.1,18.5-13.1s-2.9-10.2-9.2-17.3C740.5,287.3,731.8,281.3,722.2,277.4z"/>
	<path class="st7" d="M292.2,277.4c-9.7-3.9-30.4,0.7-50.7,0c-2.9-0.1-5.5,0-7.7,0.1c4-4.5,5.8-9.1,2.4-12.4
		c-8.4-7.9-9.9-15.5-34.3-14.6s-49.6-4.7-61.3-0.1c-11.4,4.6-21.7,11.7-29.2,20c-3.4-2-7-3.8-10.7-5.3c-8.9-3.6-26.7-0.4-45.3,0.1
		c-4.2-2.4-10.2-3.9-21.2-3.5c-11.9,0.4-24-0.8-34.3-1.5l-0.1,50.8c1.2-0.9,2.5-1.9,3.8-2.9c7.3-5.7,12.5,14.4,20.3,14.4
		c6.6,0,9.5-12.9,15.8-19c7.1,4.9,9.8,19.5,16.6,19.5c7.4,0,12.4-19.1,19.3-13.7c25.6,20,24.3,12.4,41.5,6.7c5.2-1.7,9-3.7,11.9-5.6
		c12.9,5.6,15.1,9.5,40.2-10.1c7.8-6.1,13.4,15.5,21.7,15.5c8.3,0,11.2-19.2,20.8-23.1c-0.3,7,14.6,17,21.6,19.5
		c8.1,2.9,10.6,19.2,17.5,19.2s11.6-17.8,18-12.8c23.9,18.7,22.6,11.6,38.7,6.2c16.1-5.4,18.5-13.1,18.5-13.1s-2.9-10.2-9.2-17.3
		S301.9,281.3,292.2,277.4z"/>
	<path class="st7" d="M1518,257c-10.7-4.3-33.7,0.8-56.1,0.1c-10.6-0.4-16.5,1-20.6,3.3c-3.7-1.8-9-2.8-18-2.5
		c-20.7,0.7-41.9-4-51.8,0c-0.4,0.2-0.8,0.3-1.2,0.5c-5.7-4.4-12.3-8.2-19.3-11c-9.6-3.8-28.5-0.6-48.5,0c-2.8-0.5-6.4-0.7-10.9-0.6
		c-19.3,0.7-39.1-3.7-48.3-0.1c-9.2,3.7-17.5,9.5-23.4,16.2c-5.9,6.8-8.7,16.5-8.7,16.5s2.3,7.4,17.6,12.5s14.2,11.9,36.9-5.9
		c6.1-4.8,10.6,12.2,17.1,12.2c2,0,3.6-1.4,5.1-3.5c4.8,6.9,8,16.7,13.8,16.7c8.2,0,13.7-21.2,21.3-15.2
		c22.5,17.6,26.2,15.9,36.4,11.3c12.9,5.2,13.6,10,36.1-7.6c6.6-5.1,11.3,13.1,18.4,13.1s9.5-16.6,17.8-19.6
		c2.3-0.8,5.5-2.5,8.7-4.6c4.3,3.1,9,5.7,12.2,6.8c9,3.3,11.7,21.3,19.3,21.3s12.8-19.8,19.9-14.2c26.4,20.7,25.1,12.8,42.9,6.9
		c17.8-5.9,20.5-14.6,20.5-14.6s-3.3-11.3-10.2-19.2S1528.8,261.3,1518,257z"/>
	<path class="st7" d="M1920.3,254.3c-12-0.3-28.9,2.3-45.4,1.8c-10.5-0.4-16.4,1-20.5,3.2c-3.7-1.8-9-2.7-17.8-2.4
		c-20.7,0.7-41.9-4-51.8,0c-0.4,0.2-0.8,0.3-1.2,0.5c-5.7-4.4-12.3-8.2-19.3-11c-9.6-3.8-28.5-0.6-48.5,0c-2.8-0.5-6.4-0.7-10.9-0.6
		c-19.3,0.7-39.1-3.7-48.3-0.1c-9.2,3.7-17.5,9.4-23.4,16.2c-5.9,6.8-8.7,16.5-8.7,16.5s2.3,7.4,17.6,12.5s14.2,11.9,36.9-5.9
		c6.1-4.8,10.6,12.2,17.1,12.2c2,0,3.6-1.4,5.1-3.5c4.8,6.9,8,16.7,13.8,16.7c8.2,0,13.7-21.2,21.3-15.2
		c22.5,17.6,26.2,15.9,36.4,11.3c12.9,5.2,13.6,10,36.1-7.6c6.6-5.1,11.3,13.1,18.4,13.1s9.5-16.6,17.8-19.6
		c2.3-0.8,5.4-2.5,8.6-4.5c4.3,3.1,8.9,5.6,12,6.7c9,3.3,11.7,21.3,19.3,21.3s12.8-19.8,19.9-14.2c6.6,5.2,11.5,8.6,15.3,10.6
		L1920.3,254.3z"/>
</g>
<g>
	
		<linearGradient id="SVGID_2_" gradientUnits="userSpaceOnUse" x1="381.86" y1="767.363" x2="474.37" y2="767.363" gradientTransform="matrix(1 0 0 -1 0 1082)">
		<stop  offset="3.724194e-03" style="stop-color:#655154"/>
		<stop  offset="0.9963" style="stop-color:#736063"/>
	</linearGradient>
	<path class="st8" d="M451.1,283.3c-0.4,0.6,3.5-15.4,3.5-15.4l-1.8-0.8c0,0,0,0-1,4.9s-3.1,12.9-3.1,12.9l-10.1,9.6l0.6-5.3l7.6-9
		v-11.9h-2.7v11.9l-6.6,6.2l-9-13.3l-3.5,0.2l11.5,16.4c0,0-5.1,14.8-7,16c-2,1.2-15.2-18.9-15.2-18.9l-0.4-18.5l-2.1,15.2
		l-7.6-15.2l-1,1.4c0,0,5.3,13.3,8.4,18c3.1,4.7,17,23.2,17,23.2s-1,5.9-2.3,6.4s-7.1-9-9-11.7s-19.3-8-19.3-8l-2.3-20.1l-2.5,2.1
		l2.5,16.2c0,0-0.8-2-2.5-3.5s-8.4-11.5-8.4-11.5l-2.7,3.1c0,0,0.8,0.6,4.3,3.9c3.5,3.3,5.9,8.6,5.9,8.6s0,0,1.4,0.6
		s16.2,8,19.7,10.1c3.5,2.1,3.7,5.7,5.5,8.8c1.8,3.1,3.7,5.1,4.5,5.9s-2.8,15.5-2.4,24.6s-4.2,11.3-4.7,12.3
		c-2.9,6.3,22.4,2.3,24.4,1.2s-2.3-15.7-3.5-18.8c-1.2-3.1,1.6-3.9,3.3-9.4s9.8-17,9.8-17l-2.1-1.3c0,0-7.8,12.2-9.4,14.7
		s-2.9,4.7-3.9,3.1c-1-1.6-3.1-9.2-0.6-16.8s2.1-13.7,2.1-13.7s10.7-9.4,12.9-10.7c2.1-1.4,2.1-4.9,2.1-4.9l23.2-11.3l-2.5-0.4
		C471.8,273.6,451.5,282.7,451.1,283.3z"/>
	
		<linearGradient id="SVGID_3_" gradientUnits="userSpaceOnUse" x1="661.54" y1="763.7785" x2="742.8" y2="763.7785" gradientTransform="matrix(1 0 0 -1 0 1082)">
		<stop  offset="3.724194e-03" style="stop-color:#655154"/>
		<stop  offset="0.9963" style="stop-color:#736063"/>
	</linearGradient>
	<path class="st9" d="M732.5,301c-1.6,1.3-2.4,3-2.4,3l3.1-14.2l-2.1-2l-3.2,17.6c0,0-15.7,3.7-17.5,6s-7.5,10.5-8.6,9.9
		c-1.2-0.6-1.7-5.8-1.7-5.8s13.3-15.6,16.3-19.6c3-4,8.4-15.4,8.4-15.4l-0.8-1.3l-7.6,13l-1.1-13.6L714,295c0,0-12.8,17-14.5,15.9
		s-5.3-14.5-5.3-14.5l11.1-13.9l-3.1-0.4l-8.7,11.2l-5.5-5.9l0.7-10.5l-2.4-0.1l-0.7,10.5l6.2,8.4l0.2,4.7l-8.5-9
		c0,0-1.5-7.2-2.1-11.6s-0.6-4.4-0.6-4.4l-1.6,0.6c0,0,2.6,14.4,2.3,13.8s-17.8-9.8-17.8-9.8l-2.3,0.2l18.8,10.7
		c-0.6,2.2-3.5,18.9-3.7,18.6c-6.4-9.6-12.7-18.9-12.7-18.9l-0.7,1.4c0,0,24,36.2,25.3,41.2c1.3,4.9,3.6,5.8,2.4,8.5
		s-3.1,16.4-1.5,17.5c1.7,1.1,20.9,4,18.7-1.7c-0.3-0.9-1.2-5.3-2.5-13.4c-1.3-7.8-2.2-18.2-1.4-18.8c0.7-0.6,2.6-2.3,4.3-4.9
		c1.7-2.7,2.1-5.8,5.3-7.5s16.8-7.5,18-7.9s1.2-0.4,1.2-0.4s2.4-4.5,5.7-7.3c3.3-2.7,4-3.2,4-3.2l-2.3-2.9
		C740.6,291.3,734.2,299.7,732.5,301z M693.7,333.3c-1,1.3-2-0.6-3.3-3c-0.6-1-6-9.2-11.8-17.8c-0.3-0.4,2.8-20.6,2.6-21
		c0,0,0,0,0,0l0.4,0.2c0,0-0.2,3.1,1.6,4.4c1.8,1.3,10.8,10.2,10.8,10.2s-0.7,5.3,1.2,12.2S694.6,331.9,693.7,333.3z"/>
	
		<linearGradient id="SVGID_4_" gradientUnits="userSpaceOnUse" x1="465.8398" y1="774.7535" x2="642.5898" y2="774.7535" gradientTransform="matrix(1 0 0 -1 0 1082)">
		<stop  offset="3.724194e-03" style="stop-color:#655154"/>
		<stop  offset="0.9963" style="stop-color:#736063"/>
	</linearGradient>
	<path class="st10" d="M617.8,273.7c-0.4,0.6,3.8-16.5,3.8-16.5l-1.9-0.8c0,0,0,0-1,5.2s-3.3,13.8-3.3,13.8l-10.9,10.2l0.6-5.6
		l8.2-9.6v-12.8h-2.9v12.8l-7.1,6.7l-9.6-14.2l-3.8,0.2l12.3,17.6c0,0-5.4,15.9-7.5,17.1s-16.3-20.3-16.3-20.3l-0.4-19.9l-2.3,16.3
		l-8.2-16.3l-1,1.5c0,0,5.6,14.2,9,19.2c3.3,5,18.2,24.9,18.2,24.9s-1,6.3-2.5,6.9c-1.4,0.6-7.6-9.6-9.7-12.5
		c-2.1-2.9-20.7-8.6-20.7-8.6l-2.5-21.5l-2.7,2.3l2.7,17.4c0,0-0.8-2.1-2.7-3.8s-9-12.3-9-12.3l-2.9,3.3c0,0,0.8,0.6,4.6,4.2
		c0.7,0.6,1.3,1.4,1.9,2.1c-1.5,2-6.7,8.7-8.2,9.8c-1.8,1.4-2.6,3.2-2.6,3.2l3.4-15.2l-2.3-2.2l-3.4,18.9c0,0-16.8,4-18.8,6.5
		c-2,2.5-8,11.2-9.2,10.6s-1.8-6.2-1.8-6.2s14.2-16.8,17.4-21s9-16.5,9-16.5l-0.8-1.4l-8.1,14l-1.1-14.5l-1.5,17.5
		c0,0-13.8,18.3-15.5,17c-1.8-1.2-5.7-15.6-5.7-15.6l11.9-14.9l-3.3-0.4l-9.3,12l-5.9-6.3l0.7-11.3l-2.6-0.2l-0.7,11.3l6.7,9l0.3,5
		l-9-9.7c0,0-1.6-7.7-2.2-12.4c-0.6-4.7-0.6-4.7-0.6-4.7l-1.7,0.6c0,0,2.8,15.4,2.4,14.8s-19-10.5-19-10.5l-2.4,0.2l21.3,12.1
		c0,0-0.2,3.3,1.8,4.8c2,1.4,11.6,10.9,11.6,10.9s-0.7,5.7,1.2,13.1s-0.5,14.5-1.5,15.9s-2.2-0.7-3.5-3.2c-1.3-2.5-8-14.5-8-14.5
		l-2.1,1.1c0,0,6.9,11.4,8.3,16.7s3.9,6.2,2.6,9.1c-1.3,2.9-3.4,17.6-1.6,18.8s22.4,4.3,20-1.8c-0.4-0.9-1.3-5.7-2.7-14.3
		c-1.3-8.4-2.3-19.5-1.5-20.2c0.8-0.7,2.8-2.4,4.6-5.3c1.8-2.9,2.2-6.2,5.7-8s18-8,19.3-8.5c1.3-0.5,1.3-0.5,1.3-0.5s2.5-4.9,6-7.8
		c1.9-1.6,3-2.5,3.6-2.9c1.4,2.2,2.2,4,2.2,4s0,0,1.5,0.6s17.3,8.6,21.1,10.9s4,6.1,5.8,9.4c1.9,3.3,4,5.4,4.8,6.3
		c0.8,0.8-3,16.6-2.5,26.4c0.4,9.8-4.5,12.1-5,13.2c-3.1,6.7,24,2.5,26.1,1.3c2.1-1.3-2.5-16.8-3.7-20.1c-1.3-3.3,1.7-4.2,3.5-10
		s10.5-18.2,10.5-18.2l-2.3-1.4c0,0-8.4,13.1-10,15.8c-1.7,2.7-3.1,5-4.2,3.3c-1-1.7-3.3-9.8-0.6-18c2.7-8.1,2.3-14.6,2.3-14.6
		s11.5-10,13.8-11.5s2.3-5.2,2.3-5.2l24.9-12.1l-2.7-0.4C640,263.2,618.2,273,617.8,273.7z"/>
	
		<linearGradient id="SVGID_5_" gradientUnits="userSpaceOnUse" x1="-3.725290e-08" y1="767.55" x2="44.39" y2="767.55" gradientTransform="matrix(1 0 0 -1 0 1082)">
		<stop  offset="3.724194e-03" style="stop-color:#655154"/>
		<stop  offset="0.9963" style="stop-color:#736063"/>
	</linearGradient>
	<path class="st11" d="M21.1,283.3c-0.4,0.6,3.5-15.4,3.5-15.4l-1.8-0.8c0,0,0,0-1,4.9s-3.1,12.9-3.1,12.9l-10.1,9.6l0.6-5.3l7.6-9
		v-11.9h-2.7v11.9l-6.6,6.2l-7.5-11v5.1l6.5,9.2c0,0-4.3,12.5-6.5,15.4l0,56.6c5-0.5,9.6-1.4,10.4-1.9c1.9-1.2-2.3-15.7-3.5-18.8
		s1.6-3.9,3.3-9.4s9.8-17,9.8-17l-2.1-1.3c0,0-7.8,12.2-9.4,14.7s-2.9,4.7-3.9,3.1c-1-1.6-3.1-9.2-0.6-16.8s2.1-13.7,2.1-13.7
		s10.7-9.4,12.9-10.7c2.1-1.4,2.1-4.9,2.1-4.9l23.2-11.3l-2.5-0.4C41.8,273.6,21.5,282.7,21.1,283.3z"/>
	
		<linearGradient id="SVGID_6_" gradientUnits="userSpaceOnUse" x1="231.5399" y1="763.7785" x2="312.8" y2="763.7785" gradientTransform="matrix(1 0 0 -1 0 1082)">
		<stop  offset="3.724194e-03" style="stop-color:#655154"/>
		<stop  offset="0.9963" style="stop-color:#736063"/>
	</linearGradient>
	<path class="st12" d="M302.5,301c-1.6,1.3-2.4,3-2.4,3l3.1-14.2l-2.1-2l-3.2,17.6c0,0-15.6,3.7-17.5,6s-7.5,10.5-8.6,9.9
		c-1.1-0.6-1.7-5.8-1.7-5.8s13.3-15.6,16.3-19.6s8.4-15.4,8.4-15.4l-0.8-1.3l-7.6,13l-1.1-13.6L284,295c0,0-12.8,17-14.5,15.9
		s-5.3-14.5-5.3-14.5l11.1-13.9l-3.1-0.4l-8.7,11.2l-5.5-5.9l0.6-10.5l-2.4-0.1l-0.6,10.5l6.2,8.4l0.2,4.7l-8.4-9
		c0,0-1.5-7.2-2.1-11.6s-0.6-4.4-0.6-4.4l-1.6,0.6c0,0,2.6,14.4,2.3,13.8c-0.3-0.5-17.8-9.8-17.8-9.8l-2.3,0.2l18.8,10.7
		c-0.6,2.2-3.5,18.9-3.7,18.6c-6.4-9.6-12.7-18.9-12.7-18.9l-0.7,1.4c0,0,24,36.2,25.3,41.2c1.3,4.9,3.6,5.8,2.4,8.5
		s-3.1,16.4-1.5,17.5c1.7,1.1,20.9,4,18.7-1.7c-0.3-0.9-1.2-5.3-2.5-13.4c-1.3-7.8-2.2-18.2-1.4-18.8c0.7-0.6,2.6-2.3,4.3-4.9
		c1.7-2.7,2.1-5.8,5.3-7.5s16.8-7.5,18-7.9s1.2-0.4,1.2-0.4s2.4-4.5,5.6-7.3s4-3.2,4-3.2l-2.3-2.9
		C310.6,291.3,304.2,299.7,302.5,301z M263.6,333.3c-1,1.3-2-0.6-3.3-3c-0.6-1-6-9.2-11.8-17.8c-0.3-0.4,2.8-20.6,2.6-21
		c0,0,0,0,0,0l0.4,0.2c0,0-0.2,3.1,1.6,4.4c1.8,1.3,10.8,10.2,10.8,10.2s-0.7,5.3,1.1,12.2S264.6,331.9,263.6,333.3z"/>
	
		<linearGradient id="SVGID_7_" gradientUnits="userSpaceOnUse" x1="35.84" y1="774.7535" x2="212.5901" y2="774.7535" gradientTransform="matrix(1 0 0 -1 0 1082)">
		<stop  offset="3.724194e-03" style="stop-color:#655154"/>
		<stop  offset="0.9963" style="stop-color:#736063"/>
	</linearGradient>
	<path class="st13" d="M187.8,273.7c-0.4,0.6,3.8-16.5,3.8-16.5l-1.9-0.8c0,0,0,0-1.1,5.2s-3.3,13.8-3.3,13.8l-10.9,10.2l0.6-5.6
		l8.1-9.6v-12.8h-2.9v12.8l-7.1,6.7l-9.6-14.2l-3.8,0.2l12.3,17.6c0,0-5.4,15.9-7.5,17.1s-16.3-20.3-16.3-20.3l-0.4-19.9l-2.3,16.3
		l-8.1-16.3l-1.1,1.5c0,0,5.6,14.2,9,19.2c3.3,5,18.2,24.9,18.2,24.9s-1.1,6.3-2.5,6.9c-1.4,0.6-7.6-9.6-9.6-12.5
		c-2.1-2.9-20.7-8.6-20.7-8.6l-2.5-21.5l-2.7,2.3l2.7,17.4c0,0-0.8-2.1-2.7-3.8s-9-12.3-9-12.3l-2.9,3.3c0,0,0.8,0.6,4.6,4.2
		c0.7,0.6,1.3,1.4,1.9,2.1c-1.5,2-6.7,8.7-8.2,9.8c-1.8,1.4-2.6,3.2-2.6,3.2l3.4-15.2l-2.3-2.2l-3.4,18.9c0,0-16.8,4-18.8,6.5
		c-2,2.5-8,11.2-9.2,10.6s-1.8-6.2-1.8-6.2s14.2-16.8,17.4-21s9-16.5,9-16.5l-0.8-1.4l-8.1,14l-1.1-14.5L92.1,284
		c0,0-13.8,18.3-15.5,17c-1.8-1.2-5.7-15.6-5.7-15.6l11.9-14.9l-3.3-0.4l-9.3,12l-5.9-6.3l0.7-11.3l-2.6-0.2l-0.7,11.3l6.7,9l0.3,5
		l-9-9.7c0,0-1.6-7.7-2.2-12.4c-0.6-4.7-0.6-4.7-0.6-4.7l-1.7,0.6c0,0,2.8,15.4,2.4,14.8s-19-10.5-19-10.5l-2.4,0.2l21.3,12.1
		c0,0-0.2,3.3,1.8,4.8c2,1.4,11.6,10.9,11.6,10.9s-0.7,5.7,1.2,13.1s-0.5,14.5-1.5,15.9s-2.2-0.7-3.5-3.2c-1.3-2.5-8-14.5-8-14.5
		l-2.1,1.1c0,0,6.9,11.4,8.3,16.7c1.3,5.3,3.9,6.2,2.6,9.1c-1.3,2.9-3.3,17.6-1.6,18.8s22.4,4.3,20-1.8c-0.4-0.9-1.3-5.7-2.7-14.3
		c-1.3-8.4-2.3-19.5-1.6-20.2c0.8-0.7,2.8-2.4,4.6-5.3c1.8-2.9,2.2-6.2,5.7-8c3.4-1.8,18-8,19.3-8.5c1.3-0.5,1.3-0.5,1.3-0.5
		s2.5-4.9,6.1-7.8c1.9-1.6,3-2.5,3.6-2.9c1.4,2.2,2.2,4,2.2,4s0,0,1.5,0.6s17.4,8.6,21.1,10.9s4,6.1,5.9,9.4c1.9,3.3,4,5.4,4.8,6.3
		c0.8,0.8-3,16.6-2.5,26.4c0.4,9.8-4.6,12.1-5,13.2c-3.1,6.7,24,2.5,26.1,1.3c2.1-1.3-2.5-16.8-3.7-20.1c-1.3-3.3,1.7-4.2,3.6-10
		s10.4-18.2,10.4-18.2l-2.3-1.4c0,0-8.4,13.1-10,15.8c-1.7,2.7-3.1,5-4.2,3.3c-1.1-1.7-3.3-9.8-0.6-18c2.7-8.1,2.3-14.6,2.3-14.6
		s11.5-10,13.8-11.5s2.3-5.2,2.3-5.2l24.9-12.1l-2.7-0.4C210,263.2,188.2,273,187.8,273.7z"/>
	
		<linearGradient id="SVGID_8_" gradientUnits="userSpaceOnUse" x1="1450.5999" y1="778.7637" x2="1540.6399" y2="778.7637" gradientTransform="matrix(1 0 0 -1 0 1082)">
		<stop  offset="3.724194e-03" style="stop-color:#655154"/>
		<stop  offset="0.9963" style="stop-color:#736063"/>
	</linearGradient>
	<path class="st14" d="M1529.2,284.1c-1.8,1.4-2.7,3.3-2.7,3.3l3.5-15.7l-2.4-2.3l-3.5,19.5c0,0-17.3,4.1-19.4,6.7
		c-2.1,2.6-8.3,11.6-9.5,10.9s-1.9-6.5-1.9-6.5s14.7-17.3,18.1-21.7c3.3-4.4,9.3-17.1,9.3-17.1l-0.9-1.4l-8.4,14.5l-1.2-15
		l-1.5,18.1c0,0-14.2,18.9-16.1,17.6c-1.8-1.3-5.9-16.1-5.9-16.1l12.3-15.4l-3.4-0.4l-9.6,12.5l-6.1-6.5l0.7-11.7l-2.7-0.2
		l-0.7,11.7l6.9,9.3l0.3,5.2l-9.4-10c0,0-1.6-8-2.3-12.8s-0.7-4.8-0.7-4.8l-1.8,0.7c0,0,2.8,15.9,2.5,15.3
		c-0.3-0.6-19.7-10.8-19.7-10.8l-2.5,0.2l22.1,12.5c0,0-0.2,3.4,1.8,4.9s12,11.3,12,11.3s-0.8,5.9,1.3,13.5c2,7.6-0.5,14.9-1.6,16.4
		c-1.1,1.5-2.3-0.7-3.6-3.3s-8.3-15-8.3-15l-2.2,1.1c0,0,7.1,11.8,8.5,17.2c1.4,5.5,4,6.4,2.7,9.4s-3.5,18.2-1.6,19.4
		c1.8,1.3,23.2,4.4,20.7-1.9c-0.4-1-1.3-5.9-2.8-14.8c-1.4-8.7-2.4-20.1-1.6-20.9s2.8-2.5,4.8-5.5c1.9-3,2.3-6.4,5.9-8.3
		c3.6-1.9,18.6-8.3,19.9-8.8s1.4-0.5,1.4-0.5s2.6-5,6.3-8.1c3.6-3,4.4-3.6,4.4-3.6l-2.5-3.2C1538.2,273.4,1531.1,282.7,1529.2,284.1
		z"/>
	
		<linearGradient id="SVGID_9_" gradientUnits="userSpaceOnUse" x1="1221.9103" y1="785.1258" x2="1432.4103" y2="785.1258" gradientTransform="matrix(1 0 0 -1 0 1082)">
		<stop  offset="3.724194e-03" style="stop-color:#655154"/>
		<stop  offset="0.9963" style="stop-color:#736063"/>
	</linearGradient>
	<path class="st15" d="M1411.4,277.4c-0.3,0.5,3.2-14,3.2-14l-1.6-0.7c0,0,0,0-0.9,4.4s-2.8,11.7-2.8,11.7l-9.2,8.7l0.5-4.8l6.9-8.1
		v-10.8h-2.5v10.8l-6,5.6l-8.1-12l-3.2,0.2l10.4,14.8c0,0-4.6,13.4-6.4,14.5s-13.8-17.1-13.8-17.1l-0.3-16.8l-1.9,13.8l-3.7-7.5
		c2.9-2.4,3.6-2.9,3.6-2.9l-2.7-3.5c0,0-1.1,1.4-2.5,3.2l-1.6-3.2l-0.9,1.2c0,0,0.6,1.4,1.4,3.4c-2.3,2.9-4.9,6.1-6,6.9
		c-0.7,0.5-1.3,1.2-1.7,1.7l-0.3-2.3l2.8-12.7l-2.5-2.4l-2.6,14.2l-0.3,0.3l0.1,0.9l-1,5.6c0,0-1,0.2-2.5,0.6
		c-2.1-2.9-4.2-6.1-4.2-6.1l-2.5,2.8c0,0,0.7,0.5,3.9,3.5c0.1,0.1,0.2,0.2,0.3,0.3c-5.7,1.5-14.4,4.1-15.8,5.9
		c-2.2,2.7-8.9,12.4-10.2,11.7s-2-6.9-2-6.9s15.8-18.6,19.3-23.3c3.6-4.7,10-18.3,10-18.3l-0.9-1.5l-9,15.5l-1.3-16.1l-1.6,19.4
		c0,0-15.2,20.2-17.2,18.9s-6.3-17.3-6.3-17.3l13.2-16.5l-3.7-0.4l-10.3,13.3l-6.6-7l0.8-12.5l-2.9-0.2l-0.8,12.5l7.4,9.9l0.3,5.6
		l-10-10.7c0,0-1.7-8.5-2.4-13.7s-0.7-5.2-0.7-5.2l-1.9,0.7c0,0,3.1,17.1,2.7,16.4c-0.1-0.2-2.7-1.7-6-3.5l3.1-1.5l-2.1-0.3
		c0,0-0.9,0.4-2.4,1.1c-6.1-3.3-13.7-7.4-13.7-7.4l-2.7,0.2l2.6,1.5c-0.1,0.6-0.3,1.6-0.6,3.2c-0.8,4.1-2.6,10.9-2.6,10.9l-8.6,8.1
		l0.5-4.5l6.4-7.6v-10.1h-2.3v10.1l-5.6,5.3l-7.6-11.2l-3,0.2l9.7,13.9c0,0-4.3,12.5-5.9,13.5c-1.7,1-12.9-16-12.9-16l-0.3-15.7
		l-1.8,12.9l-6.4-12.9l-0.8,1.1c0,0,4.4,11.2,7.1,15.2s14.3,19.6,14.3,19.6s-0.8,5-1.9,5.4s-6-7.6-7.6-9.9s-16.3-6.8-16.3-6.8l-2-17
		l-2.1,1.8l2.1,13.7c0,0-0.7-1.6-2.1-3s-7.1-9.7-7.1-9.7l-2.3,2.6c0,0,0.7,0.5,3.6,3.3c3,2.8,4.9,7.3,4.9,7.3s0,0,1.2,0.5
		s13.7,6.8,16.7,8.6s3.1,4.8,4.6,7.4c1.5,2.6,3.1,4.3,3.8,5s-2.3,13.1-2,20.8s-8.1,27.5-8.4,28.4c-2.4,5.3,25.3-2,27-3
		s-3.9-27.2-4.8-29.9c-1-2.6,1.3-3.3,2.8-7.9c1.5-4.6,8.2-14.3,8.2-14.3l-1.8-1.1c0,0-6.6,10.3-7.9,12.5c-1.3,2.1-2.5,4-3.3,2.6
		s-2.6-7.8-0.5-14.2c2.1-6.4,1.8-11.5,1.8-11.5s9.1-7.9,10.9-9.1c1.8-1.1,1.8-4.1,1.8-4.1l14.4-7l7.9,4.5c0,0-0.2,3.7,1.9,5.3
		c2.2,1.6,12.8,12.1,12.8,12.1s-0.8,6.3,1.4,14.5s-0.6,16-1.7,17.6s-2.4-0.8-3.9-3.5c-1.5-2.8-8.9-16.1-8.9-16.1l-2.3,1.2
		c0,0,7.7,12.6,9.1,18.5s4.3,6.9,2.9,10c-1.4,3.2-3.7,19.5-1.7,20.8c2,1.4,24.8,4.7,22.2-2c-0.4-1-1.4-6.3-2.9-15.9
		c-1.5-9.3-2.6-21.6-1.7-22.3s3.1-2.7,5.1-5.9c2.1-3.2,2.5-6.8,6.3-8.9c2.1-1.1,8.1-3.8,13.2-6c2.1,2.7,3.4,5.6,3.4,5.6s0,0,1.2,0.5
		s14.7,7.2,17.8,9.2c3.2,1.9,3.4,5.1,4.9,8s3.4,4.6,4.1,5.3s-2.5,14-2.2,22.3s-3.8,10.3-4.2,11.1c-2.6,5.7,20.3,2.1,22.1,1.1
		s-2.1-14.2-3.1-17s1.4-3.5,3-8.5s8.8-15.4,8.8-15.4l-1.9-1.1c0,0-7.1,11-8.5,13.3s-2.7,4.2-3.5,2.8s-2.8-8.3-0.5-15.2
		c2.3-6.9,1.9-12.4,1.9-12.4s9.7-8.5,11.7-9.7c1.9-1.2,1.9-4.4,1.9-4.4l21-10.2l-2.3-0.4C1430.1,268.6,1411.7,276.9,1411.4,277.4z
		 M1280.4,265c-0.3,0.4,1.9-8.8,2.7-12l10.2,5.8C1288.3,261.2,1280.7,264.7,1280.4,265z M1358.8,285.5c-0.5-0.4-1.3-1.5-2.3-2.8
		c1.3-0.5,2.4-1,3.4-1.4l1.2,7.4C1361.1,288.7,1360.3,286.9,1358.8,285.5z M1388.8,308.1c-1.2,0.5-6.4-8.1-8.2-10.6
		s-17.5-7.2-17.5-7.2l-1.2-9.8c0.3-0.1,0.5-0.2,0.6-0.2c1.5-0.5,1.5-0.5,1.5-0.5s2.7-5.1,6.4-8.4c1.6,3.6,3.5,7.8,5,10
		c2.8,4.2,15.4,21,15.4,21S1390,307.6,1388.8,308.1z"/>
	
		<linearGradient id="SVGID_10_" gradientUnits="userSpaceOnUse" x1="1863.6099" y1="779.7537" x2="1920" y2="779.7537" gradientTransform="matrix(1 0 0 -1 0 1082)">
		<stop  offset="3.724194e-03" style="stop-color:#655154"/>
		<stop  offset="0.9963" style="stop-color:#736063"/>
	</linearGradient>
	<path class="st16" d="M1920,278.8c-3.8,5-12.9,16.4-14.3,15.4c-1.8-1.3-5.9-16.1-5.9-16.1l12.3-15.4l-3.4-0.4l-9.6,12.5l-6.1-6.5
		l0.7-11.7l-2.7-0.2l-0.7,11.7l6.9,9.3l0.3,5.2l-9.4-10c0,0-1.6-8-2.3-12.8s-0.7-4.8-0.7-4.8l-1.8,0.7c0,0,2.8,15.9,2.5,15.3
		c-0.3-0.6-19.7-10.8-19.7-10.8l-2.5,0.2l22.1,12.5c0,0-0.2,3.4,1.8,4.9s12,11.3,12,11.3s-0.8,5.9,1.3,13.5c2,7.6-0.5,14.9-1.6,16.4
		c-1.1,1.5-2.3-0.7-3.6-3.3c-1.4-2.6-8.3-15-8.3-15l-2.2,1.1c0,0,7.1,11.8,8.5,17.2s4,6.4,2.7,9.4s-3.5,18.2-1.6,19.4
		c1.8,1.3,23.2,4.4,20.7-1.9c-0.4-1-1.3-5.9-2.8-14.8c-1.4-8.7-2.4-20.1-1.6-20.9s2.8-2.5,4.8-5.5c1.6-2.4,2.1-5.2,4.2-7.1v-4.4
		c-1.1,0.5-1.9,1-2.3,1.4c-2.1,2.6-8.3,11.6-9.5,10.9s-1.9-6.5-1.9-6.5s8.1-9.6,13.7-16.3L1920,278.8L1920,278.8z"/>
	
		<linearGradient id="SVGID_11_" gradientUnits="userSpaceOnUse" x1="1634.9003" y1="785.1258" x2="1845.4003" y2="785.1258" gradientTransform="matrix(1 0 0 -1 0 1082)">
		<stop  offset="3.724194e-03" style="stop-color:#655154"/>
		<stop  offset="0.9963" style="stop-color:#736063"/>
	</linearGradient>
	<path class="st17" d="M1824.4,277.4c-0.3,0.5,3.2-14,3.2-14l-1.6-0.7c0,0,0,0-0.9,4.4s-2.8,11.7-2.8,11.7l-9.2,8.7l0.5-4.8l6.9-8.1
		v-10.8h-2.5v10.8l-6,5.6l-8.1-12l-3.2,0.2l10.4,14.8c0,0-4.6,13.4-6.4,14.5s-13.8-17.1-13.8-17.1l-0.3-16.8l-1.9,13.8l-3.7-7.5
		c2.9-2.4,3.6-2.9,3.6-2.9l-2.7-3.5c0,0-1.1,1.4-2.5,3.2l-1.6-3.2l-0.9,1.2c0,0,0.6,1.4,1.4,3.4c-2.3,2.9-4.9,6.1-6,6.9
		c-0.7,0.5-1.3,1.2-1.7,1.7l-0.3-2.3l2.8-12.7l-2.5-2.4l-2.6,14.2l-0.3,0.3l0.1,0.9l-1,5.6c0,0-1,0.2-2.5,0.6
		c-2.1-2.9-4.2-6.1-4.2-6.1l-2.5,2.8c0,0,0.7,0.5,3.9,3.5c0.1,0.1,0.2,0.2,0.3,0.3c-5.7,1.5-14.4,4.1-15.8,5.9
		c-2.2,2.7-8.9,12.4-10.2,11.7s-2-6.9-2-6.9s15.8-18.6,19.3-23.3c3.6-4.7,10-18.3,10-18.3l-0.9-1.5l-9,15.5l-1.3-16.1l-1.6,19.4
		c0,0-15.2,20.2-17.2,18.9s-6.3-17.3-6.3-17.3l13.2-16.5l-3.7-0.4l-10.3,13.3l-6.6-7l0.8-12.5l-2.9-0.2l-0.8,12.5l7.4,9.9l0.3,5.6
		l-10-10.7c0,0-1.7-8.5-2.4-13.7s-0.7-5.2-0.7-5.2l-1.9,0.7c0,0,3.1,17.1,2.7,16.4c-0.1-0.2-2.7-1.7-6-3.5l3.1-1.5l-2.1-0.3
		c0,0-0.9,0.4-2.4,1.1c-6.1-3.3-13.7-7.4-13.7-7.4l-2.7,0.2l2.6,1.5c-0.1,0.6-0.3,1.6-0.6,3.2c-0.8,4.1-2.6,10.9-2.6,10.9l-8.6,8.1
		l0.5-4.5l6.4-7.6v-10.1h-2.3v10.1l-5.6,5.3l-7.6-11.2l-3,0.2l9.7,13.9c0,0-4.3,12.5-5.9,13.5c-1.7,1-12.9-16-12.9-16l-0.3-15.7
		l-1.8,12.9l-6.4-12.9l-0.8,1.1c0,0,4.4,11.2,7.1,15.2s14.3,19.6,14.3,19.6s-0.8,5-1.9,5.4s-6-7.6-7.6-9.9s-16.3-6.8-16.3-6.8l-2-17
		l-2.1,1.8l2.1,13.7c0,0-0.7-1.6-2.1-3s-7.1-9.7-7.1-9.7l-2.3,2.6c0,0,0.7,0.5,3.6,3.3c3,2.8,4.9,7.3,4.9,7.3s0,0,1.2,0.5
		s13.7,6.8,16.7,8.6s3.1,4.8,4.6,7.4c1.5,2.6,3.1,4.3,3.8,5s-2.3,13.1-2,20.8s-5.1,26.5-5.4,27.4c-2.4,5.3,20.3,2,22,1
		s-1.9-30.2-2.8-32.9c-1-2.6,1.3-3.3,2.8-7.9c1.5-4.6,8.2-14.3,8.2-14.3l-1.8-1.1c0,0-6.6,10.3-7.9,12.5c-1.3,2.1-2.5,4-3.3,2.6
		s-2.6-7.8-0.5-14.2c2.1-6.4,1.8-11.5,1.8-11.5s9.1-7.9,10.9-9.1c1.8-1.1,1.8-4.1,1.8-4.1l14.4-7l7.9,4.5c0,0-0.2,3.7,1.9,5.3
		c2.2,1.6,12.8,12.1,12.8,12.1s-0.8,6.3,1.4,14.5s-0.6,16-1.7,17.6s-2.4-0.8-3.9-3.5c-1.5-2.8-8.9-16.1-8.9-16.1l-2.3,1.2
		c0,0,7.7,12.6,9.1,18.5s4.3,6.9,2.9,10s-3.7,19.5-1.7,20.8c2,1.4,24.8,4.7,22.2-2c-0.4-1-1.4-6.3-2.9-15.9
		c-1.5-9.3-2.6-21.6-1.7-22.3s3.1-2.7,5.1-5.9c2.1-3.2,2.5-6.8,6.3-8.9c2.1-1.1,8.1-3.8,13.2-6c2.1,2.7,3.4,5.6,3.4,5.6s0,0,1.2,0.5
		s14.7,7.2,17.8,9.2c3.2,1.9,3.4,5.1,4.9,8s3.4,4.6,4.1,5.3s-2.5,14-2.2,22.3s-3.8,10.3-4.2,11.1c-2.6,5.7,20.3,2.1,22.1,1.1
		s-2.1-14.2-3.1-17s1.4-3.5,3-8.5s8.8-15.4,8.8-15.4l-1.9-1.1c0,0-7.1,11-8.5,13.3s-2.7,4.2-3.5,2.8s-2.8-8.3-0.5-15.2
		c2.3-6.9,1.9-12.4,1.9-12.4s9.7-8.5,11.7-9.7c1.9-1.2,1.9-4.4,1.9-4.4l21-10.2l-2.3-0.4C1843.1,268.6,1824.7,276.9,1824.4,277.4z
		 M1693.4,265c-0.3,0.4,1.9-8.8,2.7-12l10.2,5.8C1701.3,261.2,1693.7,264.7,1693.4,265z M1771.8,285.5c-0.5-0.4-1.3-1.5-2.3-2.8
		c1.3-0.5,2.4-1,3.4-1.4l1.2,7.4C1774.1,288.7,1773.3,286.9,1771.8,285.5z M1801.8,308.1c-1.2,0.5-6.4-8.1-8.2-10.6
		s-17.5-7.2-17.5-7.2l-1.2-9.8c0.3-0.1,0.5-0.2,0.6-0.2c1.5-0.5,1.5-0.5,1.5-0.5s2.7-5.1,6.4-8.4c1.6,3.6,3.5,7.8,5,10
		c2.8,4.2,15.4,21,15.4,21S1803,307.6,1801.8,308.1z"/>
</g>
<path class="st6" d="M1431.8,306.9c0,0-12.9-21.3-20.8-26.5s-13.9-2.6-7.8-16.5c6.1-13.9,22.6-43.4,22.6-43.4l15.3-9.6l9.9,11.4
	l4.3,26.1l17.4,14.8l2.9,13.1C1475.7,276.2,1437.8,311.6,1431.8,306.9z"/>
<path class="st6" d="M1672.8,308.9c0,0-12.9-21.3-20.8-26.5s-13.9-2.6-7.8-16.5c6.1-13.9,22.6-43.4,22.6-43.4l15.3-9.6l9.9,11.4
	l4.3,26.1l17.4,14.8l2.9,13.1C1716.7,278.2,1678.8,313.6,1672.8,308.9z"/>
<path class="st6" d="M1178.2,305.9c0,0,12.9-21.3,20.8-26.5c7.8-5.2,13.9-2.6,7.8-16.5c-6.1-13.9-22.6-43.4-22.6-43.4l-15.3-9.6
	l-9.9,11.4l-4.3,26.1l-17.4,14.8l-2.9,13.1C1134.3,275.2,1172.2,310.6,1178.2,305.9z"/>
<g>
	<path class="st18" d="M578.9,245.8c0,0-4.3,1.7-6.6,7.8c-2.3,6.1-9,6.1-10.7,0c-1.7-6.1-8.7-56.5-8.7-56.5
		c-2.6,0,3.5,60.8,5.2,70.1s-1.7,9-6.1,6.4c-4.3-2.6-14.8-16.5-14.8-16.5s0.9,7,4.3,10.4s14.8,21.7,15.6,38.2s-5.2,43.5-6.1,49.5
		s12.2,4.3,14.8,2c2.6-2.3,3.5-3.8,0-14.4s-0.9-61.5,0-71.3C566.7,261.9,578.9,245.8,578.9,245.8z"/>
	<path class="st18" d="M774.1,264.6c-4.3,2.6-7.8,3-6.1-6.4s7.8-70.1,5.2-70.1c0,0-7,50.4-8.7,56.5s-8.4,6.1-10.7,0
		s-6.6-7.8-6.6-7.8s12.2,16.1,13,25.8c0.9,9.8,3.5,60.8,0,71.3c-3.5,10.6-2.6,12,0,14.4c2.6,2.3,15.6,4,14.8-2s-7-33-6.1-49.5
		s12.2-34.8,15.6-38.2c3.5-3.5,4.3-10.4,4.3-10.4S778.4,262,774.1,264.6z"/>
	<path class="st18" d="M1444.1,272.6c-4.3,2.6-7.8,3-6.1-6.4s7.8-70.1,5.2-70.1c0,0-6.9,50.4-8.7,56.5s-8.4,6.1-10.7,0
		c-2.3-6.1-6.6-7.8-6.6-7.8s12.2,16.1,13,25.8s3.5,60.8,0,71.3c-3.5,10.6-2.6,12,0,14.4c2.6,2.3,15.6,4,14.8-2s-6.9-33-6.1-49.5
		s12.2-34.8,15.6-38.2c3.5-3.5,4.3-10.4,4.3-10.4S1448.4,270,1444.1,272.6z"/>
	<path class="st18" d="M1695.5,268.5c3.5-3.5,4.3-10.4,4.3-10.4s-10.4,13.9-14.8,16.5c-4.3,2.6-7.8,3-6.1-6.4s7.8-70.1,5.2-70.1
		c0,0-6.9,50.4-8.7,56.5s-8.4,6.1-10.7,0c-2.3-6.1-6.6-7.8-6.6-7.8s12.2,16.1,13,25.8s3.5,60.8,0,71.3c-3.5,10.6-2.6,12,0,14.4
		c2.6,2.3,15.6,4,14.8-2s-6.9-33-6.1-49.5C1680.8,290.3,1692,272,1695.5,268.5z"/>
	<path class="st18" d="M1192.9,243.8c0,0-4.3,1.7-6.6,7.8c-2.3,6.1-9,6.1-10.7,0c-1.7-6.1-8.7-56.5-8.7-56.5
		c-2.6,0,3.5,60.8,5.2,70.1s-1.7,9-6.1,6.4c-4.3-2.6-14.8-16.5-14.8-16.5s0.9,6.9,4.3,10.4s14.8,21.7,15.6,38.2s-5.2,43.5-6.1,49.5
		s12.2,4.3,14.8,2s3.5-3.8,0-14.4c-3.5-10.6-0.9-61.5,0-71.3C1180.7,259.9,1192.9,243.8,1192.9,243.8z"/>
</g>
<g>
	<path class="st19" d="M556.5,336.1h-2.2l-0.2,3.1h2.4c0.9,0,1.6-0.7,1.6-1.6S557.4,336.1,556.5,336.1z"/>
	<path class="st19" d="M541,264h-1.5l0.7,2.2h0.8c0.6,0,1.1-0.5,1.1-1.1S541.6,264,541,264z"/>
	<path class="st19" d="M554.5,280.1c0-0.7-0.6-1.3-1.3-1.3h-3.9l0.9,2.6h3C554,281.5,554.5,280.9,554.5,280.1z"/>
	<path class="st19" d="M557.5,291.9c0.7,0,1.3-0.6,1.3-1.3s-0.6-1.3-1.3-1.3h-3.9l0.9,2.6L557.5,291.9L557.5,291.9z"/>
	<path class="st19" d="M557.7,292.8h-3.3l0.7,2.2h2.5c0.6,0,1.1-0.5,1.1-1.1S558.3,292.8,557.7,292.8z"/>
	<path class="st19" d="M560.1,300.6h3.9V298h-3.9c-0.7,0-1.3,0.6-1.3,1.3C558.8,300,559.4,300.6,560.1,300.6z"/>
	<path class="st19" d="M559.7,312.1c0,0.6,0.5,1.1,1.1,1.1h3.3V311h-3.3C560.2,311,559.7,311.5,559.7,312.1z"/>
	<path class="st19" d="M559.5,285.6c0,0.8,0.7,1.5,1.5,1.5h4.4v-2.9h-4.4C560.1,284.2,559.5,284.8,559.5,285.6z"/>
	<path class="st19" d="M563.7,266.1c0,0.8,0.7,1.5,1.5,1.5h1.8l0.9-2.9h-2.6C564.3,264.7,563.7,265.3,563.7,266.1z"/>
	<path class="st19" d="M558.8,273.6h3c0.7,0,1.3-0.6,1.3-1.3s-0.6-1.3-1.3-1.3h-3V273.6z"/>
	<path class="st19" d="M558.4,255.4c0.7,0,1.3-0.6,1.3-1.3s-0.6-1.3-1.3-1.3h-2.2l0.9,2.6L558.4,255.4L558.4,255.4z"/>
	<path class="st19" d="M558.5,303.5h-1.5l0.7,2.2h0.8c0.6,0,1.1-0.5,1.1-1.1S559.1,303.5,558.5,303.5z"/>
	<path class="st19" d="M558.3,318.4h-1.5l-0.1,2.2h1.7c0.6,0,1.1-0.5,1.1-1.1S559,318.4,558.3,318.4z"/>
	<path class="st19" d="M562.2,327c-0.6,0-1.1,0.5-1.1,1.1s0.5,1.1,1.1,1.1h1.7l-0.1-2.2L562.2,327L562.2,327z"/>
	<path class="st19" d="M769.5,327.1c-0.9,0-1.6,0.7-1.6,1.6s0.7,1.6,1.6,1.6h2.4l-0.2-3.1H769.5z"/>
	<path class="st19" d="M783.9,256.1c0,0.6,0.5,1.1,1.1,1.1h0.8l0.7-2.2H785C784.4,255,783.9,255.5,783.9,256.1z"/>
	<path class="st19" d="M771.5,271.1c0,0.7,0.6,1.3,1.3,1.3h3l0.9-2.6h-3.9C772.1,269.8,771.5,270.4,771.5,271.1z"/>
	<path class="st19" d="M767.2,281.6c0,0.7,0.6,1.3,1.3,1.3h3l0.9-2.6h-3.9C767.8,280.3,767.2,280.9,767.2,281.6z"/>
	<path class="st19" d="M770.8,285.9l0.7-2.2h-3.3c-0.6,0-1.1,0.5-1.1,1.1s0.5,1.1,1.1,1.1L770.8,285.9L770.8,285.9z"/>
	<path class="st19" d="M762,289v2.6h3.9c0.7,0,1.3-0.6,1.3-1.3s-0.6-1.3-1.3-1.3L762,289L762,289z"/>
	<path class="st19" d="M765.2,302h-3.3v2.2h3.3c0.6,0,1.1-0.5,1.1-1.1S765.8,302,765.2,302z"/>
	<path class="st19" d="M766.6,276.6c0-0.8-0.7-1.5-1.5-1.5h-4.4v2.9h4.4C765.9,278.1,766.6,277.4,766.6,276.6z"/>
	<path class="st19" d="M762.3,257.1c0-0.8-0.7-1.5-1.5-1.5h-2.6l0.9,2.9h1.8C761.7,258.6,762.3,258,762.3,257.1z"/>
	<path class="st19" d="M764.2,264.6h3V262h-3c-0.7,0-1.3,0.6-1.3,1.3C762.8,264,763.4,264.6,764.2,264.6z"/>
	<path class="st19" d="M767.6,246.4h1.3l0.9-2.6h-2.2c-0.7,0-1.3,0.6-1.3,1.3S766.8,246.4,767.6,246.4z"/>
	<path class="st19" d="M767.5,296.7h0.8l0.7-2.2h-1.5c-0.6,0-1.1,0.5-1.1,1.1S767,296.7,767.5,296.7z"/>
	<path class="st19" d="M769.2,309.4h-1.5c-0.6,0-1.1,0.5-1.1,1.1s0.5,1.1,1.1,1.1h1.7L769.2,309.4z"/>
	<path class="st19" d="M763.9,318h-1.5l-0.1,2.2h1.7c0.6,0,1.1-0.5,1.1-1.1S764.5,318,763.9,318z"/>
	<path class="st19" d="M1439.5,335.1c-0.9,0-1.6,0.7-1.6,1.6s0.7,1.6,1.6,1.6h2.4l-0.2-3.1H1439.5z"/>
	<path class="st19" d="M1453.9,264.1c0,0.6,0.5,1.1,1.1,1.1h0.8l0.7-2.2h-1.5C1454.4,263,1453.9,263.5,1453.9,264.1z"/>
	<path class="st19" d="M1441.5,279.1c0,0.7,0.6,1.3,1.3,1.3h3l0.9-2.6h-3.9C1442.1,277.8,1441.5,278.4,1441.5,279.1z"/>
	<path class="st19" d="M1437.2,289.6c0,0.7,0.6,1.3,1.3,1.3h3l0.9-2.6h-3.9C1437.8,288.3,1437.2,288.9,1437.2,289.6z"/>
	<path class="st19" d="M1440.8,293.9l0.7-2.2h-3.3c-0.6,0-1.1,0.5-1.1,1.1s0.5,1.1,1.1,1.1L1440.8,293.9L1440.8,293.9z"/>
	<path class="st19" d="M1432,297v2.6h3.9c0.7,0,1.3-0.6,1.3-1.3s-0.6-1.3-1.3-1.3L1432,297L1432,297z"/>
	<path class="st19" d="M1435.2,310h-3.3v2.2h3.3c0.6,0,1.1-0.5,1.1-1.1S1435.8,310,1435.2,310z"/>
	<path class="st19" d="M1436.6,284.6c0-0.8-0.7-1.5-1.5-1.5h-4.4v2.9h4.4C1435.9,286.1,1436.6,285.4,1436.6,284.6z"/>
	<path class="st19" d="M1432.3,265.1c0-0.8-0.7-1.5-1.5-1.5h-2.6l0.9,2.9h1.8C1431.7,266.6,1432.3,266,1432.3,265.1z"/>
	<path class="st19" d="M1434.2,272.6h3V270h-3c-0.7,0-1.3,0.6-1.3,1.3C1432.8,272,1433.4,272.6,1434.2,272.6z"/>
	<path class="st19" d="M1437.6,254.4h1.3l0.9-2.6h-2.2c-0.7,0-1.3,0.6-1.3,1.3S1436.8,254.4,1437.6,254.4z"/>
	<path class="st19" d="M1437.6,304.7h0.8l0.7-2.2h-1.5c-0.6,0-1.1,0.5-1.1,1.1S1436.9,304.7,1437.6,304.7z"/>
	<path class="st19" d="M1439.2,317.4h-1.5c-0.6,0-1.1,0.5-1.1,1.1s0.5,1.1,1.1,1.1h1.7L1439.2,317.4z"/>
	<path class="st19" d="M1433.9,326h-1.5l-0.1,2.2h1.7c0.6,0,1.1-0.5,1.1-1.1S1434.5,326,1433.9,326z"/>
	<path class="st19" d="M1680.5,337.1c-0.9,0-1.6,0.7-1.6,1.6s0.7,1.6,1.6,1.6h2.4l-0.2-3.1H1680.5z"/>
	<path class="st19" d="M1696,265c-0.6,0-1.1,0.5-1.1,1.1s0.5,1.1,1.1,1.1h0.8l0.7-2.2L1696,265L1696,265z"/>
	<path class="st19" d="M1682.5,281.1c0,0.7,0.6,1.3,1.3,1.3h3l0.9-2.6h-3.9C1683.1,279.8,1682.5,280.4,1682.5,281.1z"/>
	<path class="st19" d="M1678.2,291.6c0,0.7,0.6,1.3,1.3,1.3h3l0.9-2.6h-3.9C1678.8,290.3,1678.2,290.9,1678.2,291.6z"/>
	<path class="st19" d="M1681.8,295.9l0.7-2.2h-3.3c-0.6,0-1.1,0.5-1.1,1.1s0.5,1.1,1.1,1.1L1681.8,295.9L1681.8,295.9z"/>
	<path class="st19" d="M1673,299v2.6h3.9c0.7,0,1.3-0.6,1.3-1.3s-0.6-1.3-1.3-1.3L1673,299L1673,299z"/>
	<path class="st19" d="M1676.2,312h-3.3v2.2h3.3c0.6,0,1.1-0.5,1.1-1.1S1676.8,312,1676.2,312z"/>
	<path class="st19" d="M1677.6,286.6c0-0.8-0.7-1.5-1.5-1.5h-4.4v2.9h4.4C1676.9,288.1,1677.6,287.4,1677.6,286.6z"/>
	<path class="st19" d="M1673.3,267.1c0-0.8-0.7-1.5-1.5-1.5h-2.6l0.9,2.9h1.8C1672.7,268.6,1673.3,268,1673.3,267.1z"/>
	<path class="st19" d="M1675.2,274.6h3V272h-3c-0.7,0-1.3,0.6-1.3,1.3C1673.8,274,1674.4,274.6,1675.2,274.6z"/>
	<path class="st19" d="M1678.6,256.4h1.3l0.9-2.6h-2.2c-0.7,0-1.3,0.6-1.3,1.3S1677.8,256.4,1678.6,256.4z"/>
	<path class="st19" d="M1678.6,306.7h0.8l0.7-2.2h-1.5c-0.6,0-1.1,0.5-1.1,1.1S1677.9,306.7,1678.6,306.7z"/>
	<path class="st19" d="M1680.2,319.4h-1.5c-0.6,0-1.1,0.5-1.1,1.1s0.5,1.1,1.1,1.1h1.7L1680.2,319.4z"/>
	<path class="st19" d="M1674.9,328h-1.5l-0.1,2.2h1.7c0.6,0,1.1-0.5,1.1-1.1S1675.5,328,1674.9,328z"/>
	<path class="st19" d="M1170.5,334.1h-2.2l-0.2,3.1h2.4c0.9,0,1.6-0.7,1.6-1.6S1171.4,334.1,1170.5,334.1z"/>
	<path class="st19" d="M1155,262h-1.5l0.7,2.2h0.8c0.6,0,1.1-0.5,1.1-1.1S1155.6,262,1155,262z"/>
	<path class="st19" d="M1168.5,278.1c0-0.7-0.6-1.3-1.3-1.3h-3.9l0.9,2.6h3C1167.9,279.5,1168.5,278.9,1168.5,278.1z"/>
	<path class="st19" d="M1171.5,289.9c0.7,0,1.3-0.6,1.3-1.3s-0.6-1.3-1.3-1.3h-3.9l0.9,2.6L1171.5,289.9L1171.5,289.9z"/>
	<path class="st19" d="M1171.7,290.8h-3.3l0.7,2.2h2.5c0.6,0,1.1-0.5,1.1-1.1S1172.3,290.8,1171.7,290.8z"/>
	<path class="st19" d="M1174.1,298.6h3.9V296h-3.9c-0.7,0-1.3,0.6-1.3,1.3C1172.8,298,1173.4,298.6,1174.1,298.6z"/>
	<path class="st19" d="M1173.7,310.1c0,0.6,0.5,1.1,1.1,1.1h3.3V309h-3.3C1174.2,309,1173.7,309.5,1173.7,310.1z"/>
	<path class="st19" d="M1173.4,283.6c0,0.8,0.7,1.5,1.5,1.5h4.4v-2.9h-4.4C1174.1,282.2,1173.4,282.8,1173.4,283.6z"/>
	<path class="st19" d="M1177.7,264.1c0,0.8,0.7,1.5,1.5,1.5h1.8l0.9-2.9h-2.6C1178.3,262.7,1177.7,263.3,1177.7,264.1z"/>
	<path class="st19" d="M1172.8,271.6h3c0.7,0,1.3-0.6,1.3-1.3s-0.6-1.3-1.3-1.3h-3V271.6z"/>
	<path class="st19" d="M1172.4,253.4c0.7,0,1.3-0.6,1.3-1.3s-0.6-1.3-1.3-1.3h-2.2l0.9,2.6L1172.4,253.4L1172.4,253.4z"/>
	<path class="st19" d="M1172.5,301.5h-1.5l0.7,2.2h0.8c0.6,0,1.1-0.5,1.1-1.1S1173.1,301.5,1172.5,301.5z"/>
	<path class="st19" d="M1172.3,316.4h-1.5l-0.1,2.2h1.7c0.6,0,1.1-0.5,1.1-1.1S1172.9,316.4,1172.3,316.4z"/>
	<path class="st19" d="M1176.2,325c-0.6,0-1.1,0.5-1.1,1.1s0.5,1.1,1.1,1.1h1.7l-0.1-2.2L1176.2,325L1176.2,325z"/>
</g>
<g>
	<path class="st5" d="M806.2,202.1c0.9-11.3-1.7-21.7-15.6-24.3s-10.4-7.8-9.6-16.5s5.2-34.2-13-34.1c-8,0.1-16.5,9.4-20.8,29.1
		c-4.3,19.7-1.7,58.8-6.1,63.2s-19.1,5.2-20.8,16.5c-0.2,1.4-0.3,2.8-0.2,4.2c-1.9,0.2-3.6,0-5.2-0.9c-18.3-10.6-31.1-5.4-37-1.1
		c-7.7-14.3-22.8-27.9-46.2-25.4c-5.1,0.6-6.1,1.6-6.2,2.3c-0.3-0.4-1-1-2.2-2c-5.5-4.3-20.6-12.1-37.8-6.2
		c-1.4-9.3-2.5-21.8-5.1-33.3c-4.3-19.7-16-31.9-24-32c-18.3-0.2-20.9,20.3-20,29s6.9,8.4-7,11s-10.3,18.1-9.5,29.4
		c0.3,4.4,3,9.2,5.6,14.1c-0.9-0.1-1.7-0.4-2.5-0.9c-20.6-11.9-34.6-5.2-40.6-0.5c-1.3,1-2.6,2.2-4,3.4c-4.4-1-9.1-1.3-14.4-0.7
		c-4.7,0.5-5.7,1.5-5.7,2.2c-0.3-0.4-0.9-1-2-1.8c-6.2-4.9-25.7-14.7-46.1-0.1c-7,5-4.6,13.2-10.5,16.1s-12.9-4.2-26.2,5.6
		c-13.3,9.8-6.8,21-8.9,22.4c-26.7,17.4-8.5,38.7,2.5,36.2s7.8-8,20.5-22.6s18.1-15.9,27.3-13.5c7.1,1.8,12.5,3.5,24.2,2
		c0,0.1,0,0.3,0,0.4c-0.6,11.9,9.5,18.5,16.1,17.1c4.4-1,7.2-6.6,14.3-9c1.3,1.8,3.1,3.7,5.7,5.6c-8.1,1.7-11.2,5.8-12.6,10.8
		c-0.3,0-0.6-0.1-0.9-0.1c0,0-10-7-14.2,2s-11.5,11.9-3,14.8c8.2,2.9,7.4,2.6,14.1,7.2c0.5,8.4,10.9,13.6,21.1,7.7
		c12.2-7.1,20.2-10.3,11-20.2c-9.4-10,15.3,1.3,8.3-11.3c-1.2-2.1-2.5-3.8-3.9-5.2c4.5-0.7,9.1-3.3,13-9.1c0.8-0.1,1.6-0.3,2.4-0.5
		c0.6,7.9,6.5,14.1,12.4,15.8c0.9,6.5,1.8,10.1,9,8.5c8.5-1.9-4.7,7.5,4.7,7.7c9.5,0.1,12-6.8,12-6.8c3.7-10.4-4.2-12.9-10.2-16.8
		c1.5-2.5,3.1-5.6,6-9.6c1.8,1.3,3.6,2.9,5.4,5c12,13.8,9,19,19.4,21.4s19.2-7,14.8-31.4c-0.3-1.8-5-9.7-12.9-17.4
		c0.8-0.1,1.6-0.1,2.4,0c7.6,6.3,17.1,16.3,21.3,13.5c2.5-1.6,5.5-5.4,7.8-10.1c4.2-0.4,9.2-1.2,15.4-2.6c18.8-4.3,13,5,21.8,14.1
		c-1.8,3.8-2.9,7.5-3.1,10.8c-0.1,2.7,0.3,5.1,1.2,7.1c-1.2-1.5-3.7-2.6-8.6-3.2c0,0-10.7-7.5-15.3,2.1c-4.6,9.6-12.4,12.7-3.3,15.9
		s7.8,2.7,15.8,8.2s16.1-1.4,13.2-9.8c-1.6-4.6-0.2-8.5-1-11.4c3,5.3,8.7,8,13,7c6.2-1.4,8.9-12.6,27.3-8.5s22.2,2.1,30.3,0
		c8.1-2.1,19.3-7.8,30.6,5.1s8.4,17.8,18.1,20s18-6.5,13.8-29.3c-0.4-2.1-7.7-14-19.5-22.6c-10.8-8,4.4-9.4-5.9-19.7
		c2.4-3.7,4.8-6.8,7.1-8.1c7.8-4.3,7.8-32.1,14.8-26s0,21.7,6.1,23.4s-1.7,12.2,5.2,16.5s13.9-1.7,17.4,5.2s9.7,17.2,10.9,7.3
		c1.3-9.9,0.4-16.8-9.2-26.4C788.9,228.1,805.4,213.4,806.2,202.1z M556,230.8c-0.4-0.4-0.9-0.8-1.4-1.2c0.2-3.5,0.9-6.8,3.3-8.9
		c2.9-2.6,3.8,2.5,4.5,9.6C560.5,231.2,558.4,231.1,556,230.8z"/>
	<path class="st5" d="M726.2,299.5c-5.2-5.3-13.2-1.7-12.1,6.1s1,12.7,8.8,11c7.9-1.7-4.4,7,4.4,7.2c8.8,0.1,11.2-6.4,11.2-6.4
		C742.6,306,731.4,304.8,726.2,299.5z"/>
	<path class="st5" d="M322.1,265.5c-11.8-8.6,7.3-9.6-9.2-22.6c-12.2-9.6-21.4,0.3-28.1-3.6c-18.3-10.6-31.1-5.4-37-1.1
		c-7.7-14.3-22.8-27.9-46.2-25.4c-5.1,0.6-6.1,1.6-6.2,2.3c-0.3-0.4-1-1-2.2-2c-6.7-5.2-27.6-15.8-49.3-0.1
		c-7.6,5.4-4.9,14.1-11.2,17.2c-1.7,0.8-3.5,0.9-5.4,0.8c-0.9-0.9-1.9-1.8-3.2-2.8c-13-10.3-22.9,0.3-30.1-3.9
		c-20.6-11.9-34.7-5.2-40.6-0.5c-1.4,1.1-2.8,2.3-4.2,3.6c-4.6-1.1-9.6-1.5-15.1-0.9c-4.7,0.5-5.7,1.5-5.7,2.2c-0.3-0.4-0.9-1-2-1.8
		c-4.1-3.2-14-8.6-26.1-7.7l0,54.2c2.8,0,6.1-0.2,10-0.7c0,0.2,0,0.4,0,0.5c-0.6,11.9,9.4,18.5,16.1,17.1c4.3-1,7-6.2,13.5-8.7
		c1.3,1.8,3.1,3.7,5.8,5.5c-7.6,1.8-10.6,5.9-11.9,10.8c-0.6-0.1-1.2-0.2-1.9-0.3c0,0-9.9-7-14.2,2s-11.5,11.9-3,14.8
		c8.5,3,7.3,2.6,14.7,7.6c0.1,0.1,0.3,0.2,0.4,0.3c1,8,11.1,12.8,21,7c12.2-7.1,20.2-10.3,11-20.2c-9.4-10,15.3,1.3,8.3-11.3
		c-1.2-2.2-2.6-4-4.1-5.4c4.2-0.9,8.4-3.4,12-8.8c0.9-0.1,1.7-0.2,2.5-0.4c0.7,7.8,6.6,13.9,12.4,15.6c0.9,6.5,1.8,10.1,9,8.5
		c8.5-1.9-4.7,7.5,4.7,7.7c9.4,0.1,12-6.8,12-6.8c3.7-10.4-4.2-12.9-10.2-16.8c1.5-2.6,3.3-5.8,6.3-10.1c2,1.3,4.1,3.1,6.1,5.4
		c12,13.8,9,19,19.4,21.4s19.2-7,14.8-31.4c-0.3-1.8-5.1-9.7-13-17.5c2.2-0.1,4.5,0.3,7.1,1c9.8,2.5,16.7,4.8,38.9-0.2
		c18.8-4.3,13,5,21.8,14.1c-1.8,3.8-2.9,7.5-3.1,10.8c-0.1,2.7,0.3,5.1,1.2,7.1c-1.2-1.5-3.7-2.6-8.6-3.2c0,0-10.7-7.5-15.3,2.1
		c-4.6,9.6-12.4,12.7-3.3,15.9s7.9,2.7,15.8,8.2s16.1-1.4,13.2-9.8c-1.6-4.6-0.2-8.5-1-11.4c3,5.3,8.7,8,13,7
		c6.2-1.4,8.9-12.6,27.3-8.5s22.2,2.1,30.3,0c8.1-2.1,19.3-7.8,30.6,5.1c11.2,12.9,8.4,17.8,18.1,20s18-6.5,13.8-29.3
		C341.2,286,333.8,274.2,322.1,265.5z"/>
	<path class="st5" d="M296.2,299.5c-5.2-5.3-13.2-1.7-12.1,6.1c1.1,7.9,1,12.7,8.8,11c7.9-1.7-4.4,7,4.4,7.2
		c8.8,0.1,11.2-6.4,11.2-6.4C312.6,306,301.4,304.8,296.2,299.5z"/>
	<path class="st5" d="M1550.9,244.9c-13-9.6,8.1-10.6-10.2-25.1c-13.5-10.6-23.7,0.3-31.1-4c-14.3-8.3-25.7-7.8-33.4-5.2
		c0-0.2,0.1-0.4,0.1-0.5c0.9-11.3,4.4-26.8-9.5-29.4s-7.9-2.3-7-11s-1.8-29.2-20-29c-8.1,0.1-19.7,12.3-24,32s-4.7,42.7-9,47
		c-0.4,0.4-0.8,0.8-1.2,1.2c-6-1.9-13.8-2.8-22.2,0.3c1.3-3.4,1.5-7.5-7.8-14.8c-14.4-11.4-25.3,0.3-33.3-4.3
		c-22.8-13.2-38.4-5.7-45-0.6c-4.8,3.8-10.1,9.2-16.3,13.4c-7.3-4-21-7.9-35.2,2.3c-5.9,4.3-3.9,11.1-8.8,13.6
		c-4.7,2.3-10.3-2.9-20.3,3.4c-3.9-7-10.2-12.4-13.4-15.5c-4.3-4.3-4.7-27.3-9-47s-15.9-31.9-24-32c-18.3-0.2-20.9,20.3-20,29
		s6.9,8.4-7,11s-10.3,18.1-9.5,29.4s17.4,26.1,7.8,35.6s-10.4,16.5-9.2,26.4c1.3,9.9,7.4-0.3,10.9-7.3c3.5-7,10.4-0.9,17.4-5.2
		s-0.9-14.8,5.2-16.5c6.1-1.7-0.9-17.4,6.1-23.4s2.4,30.7,10.2,35c4,2.2,9.5,7.6,14.5,11.8c-4.9,11.2,5.6,21,12.6,19.4
		c9.3-2.1,6.6-6.8,17.3-19.1c10.6-12.2,15.2-13.4,22.8-11.5c-0.1,0.6-0.2,1.2-0.2,1.8c-0.6,13.1,10.5,20.5,17.9,18.9
		c7.1-1.6,10.3-13.8,29.7-10.6c1.3,1.6,3.2,3.2,5.8,4.7c4.3,2.4,15.6,7.9,24-2c2.2-0.4,4.3-1,6.6-1.6c-0.1,0.1-0.2,0.3-0.3,0.3
		c-24.2,15.7-7.7,35,2.3,32.7c5.1-1.2,6.8-3.1,8.9-6.4c1.3,1.9,3.6,2.5,7.8,1.6c9.4-2-5.2,8.4,5.2,8.5s13.3-7.6,13.3-7.6
		c4.6-12.8-6.9-14.8-13.4-20.2c4-4.2,7.1-6.8,10-8.1c1.6,1.2,3.2,2.7,4.7,4.6c13.3,15.3,10,21.1,21.5,23.7
		c10.2,2.4,19.1-5.6,17.5-26.3c1.3-1,2.7-2.1,4.1-3.3c4.3-0.6,6.5,0,7.9,1.3c-0.4,12.1,9.8,19,16.7,17.4c0,0,0,0,0,0
		c3,1.2,6.7,2.2,10.6,1.8c-5.6,6.6-3,17.3-6.2,25.1c-4.6,11.5,8.3,20.7,20.9,13.3s20.9-10.7,11.3-20.9c-9.7-10.4,15.8,1.3,8.6-11.7
		c-7.3-13-20.5-11.8-20.5-11.8c-1.3,0.1-2.6,0.3-3.8,0.5c1.6-1.7,3-3.9,4.4-6.6c1.5,0.2,3.1,0.4,4.9,0.8c1.4,0.3,2.8,0.6,4,0.9
		c1,0.8,1.8,1.1,2.6,0.5c14.8,2.7,19.1,0.7,27-1.4c9-2.3,21.4-8.6,33.9,5.6c12.4,14.3,9.3,19.7,20.1,22.2s19.9-7.2,15.3-32.4
		C1572,267.5,1563.9,254.4,1550.9,244.9z M1433.9,226.1c0.6-5.3,1.7-8.6,4.1-6.5c2.3,2,3.1,5.2,3.3,8.5
		C1439,227.3,1436.5,226.6,1433.9,226.1z"/>
	<path class="st5" d="M1522.2,282.5c-5.8-5.8-14.7-1.9-13.4,6.8s1.1,14,9.7,12.1c8.8-1.9-4.9,7.8,4.9,7.9s12.4-7.1,12.4-7.1
		C1540.4,289.6,1528,288.4,1522.2,282.5z"/>
	<path class="st5" d="M1293.6,270.6c-6.5,0.6-10.8,2.4-13.6,4.9c-1,0.6-2,1.6-2.7,3.1c-3.5,7.4-9.4,9.9-3.1,12.3
		c-0.4,4.5-0.7,9-2.3,13c-5,12.3,8.9,22.1,22.4,14.3c13.5-7.9,22.4-11.4,12.2-22.4c-10.4-11.1,17,1.4,9.2-12.5
		C1307.7,269.3,1293.6,270.6,1293.6,270.6z"/>
	<path class="st5" d="M1420.8,290.2c0,0-9-6.4-12.9,1.8c-3.9,8.1-10.4,10.7-2.8,13.4c7.7,2.7,6.6,2.3,13.3,6.9s13.6-1.2,11.1-8.3
		C1427.2,296.8,1433.2,291.6,1420.8,290.2z"/>
	<path class="st5" d="M1880.6,214.2c-6.1,4.8-13,12.4-21.8,16.1c-6.2-3.5-13.8-5.4-22.8-4.4c-4.3,0.5-5.2,1.4-5.2,2
		c-0.3-0.3-0.8-0.9-1.8-1.7c-4.7-3.7-17.7-10.4-32.5-5c1.3-3.4,1.5-7.5-7.8-14.8c-14.4-11.4-25.3,0.3-33.3-4.3
		c-18-10.4-31.5-8-39.6-3.9c-2.1-5.1-6.3-8.9-14-10.4c-13.9-2.6-10.4-7.8-9.6-16.5s5.2-34.2-13-34.1c-8.1,0.1-16.5,9.4-20.8,29.1
		c-3.8,17.1-2.3,48.7-4.7,59.7c-0.7,2-1.6,3.8-3.6,4.8c-4.9,2.5-10.9-3.5-22.1,4.7s-5.8,17.8-7.5,18.9c-22.6,14.7-7.1,32.7,2.1,30.6
		c8.6-2,6.9-6.1,15.2-16.5c1.7,2.4,3.5,4.3,5,5.4c4,2.6,10-11.4,16.1-20.1c1.2,0.1,2.5,0.3,3.8,0.7c-0.1,0.6-0.2,1.2-0.2,1.8
		c-0.6,13.1,10.5,20.5,17.9,18.9c6.5-1.4,9.8-11.8,25.1-11.1c1,0.5,1.8,1.4,2.5,2.8c0.6,1.2,1.3,2.6,2.1,3.9
		c-1.9-0.2-3.2-0.1-3.2-0.1c-6.5,0.6-10.8,2.4-13.6,4.9c-1,0.6-2,1.6-2.7,3.1c-3.5,7.4-9.4,9.9-3.1,12.3c-0.4,4.5-0.7,9-2.3,13
		c-5,12.3,8.9,22.1,22.4,14.3c13.5-7.9,22.4-11.4,12.2-22.4c-10.4-11.1,17,1.4,9.2-12.5c-2.8-5-6.4-8-9.8-9.8
		c0.1-0.9,0.2-1.8,0.3-2.6c5.4,2.3,14,4.3,20.7-3.6c2.2-0.4,4.3-1,6.6-1.6c-0.1,0.1-0.2,0.3-0.3,0.3c-24.2,15.7-7.7,35,2.3,32.7
		c5.1-1.2,6.8-3.1,8.9-6.4c1.3,1.9,3.6,2.5,7.8,1.6c9.4-2-5.2,8.4,5.2,8.5c10.5,0.1,13.3-7.6,13.3-7.6c4.6-12.8-6.9-14.8-13.4-20.2
		c4-4.2,7.1-6.8,10-8.1c1.6,1.2,3.2,2.7,4.7,4.6c13.3,15.3,10,21.1,21.5,23.7c10.6,2.5,19.8-6.2,17.3-28.8c0.3-0.1,0.5-0.1,0.8-0.2
		c6.6-1.5,9.6-1,11.4,0.6c0.1,10.5,8.4,16.8,14.9,16.6c3,1.4,7.2,2.9,11.6,2.7c-4.5,6.7-2.4,16.6-5.4,24
		c-4.6,11.5,8.3,20.7,20.9,13.3s20.9-10.7,11.3-20.9c-9.7-10.4,15.8,1.3,8.6-11.7c-7.3-13-20.5-11.8-20.5-11.8
		c-1,0.1-1.9,0.2-2.7,0.4c1.4-1.7,2.6-3.8,3.8-6.4c1.4,0.2,2.9,0.4,4.5,0.8c20.3,4.6,24.6,2.3,33.6,0c1.2-0.3,2.5-0.7,3.8-1.1
		l0.2-59C1900.2,203,1886.5,209.6,1880.6,214.2z"/>
	<path class="st5" d="M1833.8,290.2c0,0-9-6.4-12.9,1.8c-3.9,8.1-10.4,10.7-2.8,13.4s6.6,2.3,13.3,6.9s13.6-1.2,11.1-8.3
		C1840.2,296.8,1846.2,291.6,1833.8,290.2z"/>
</g>
<g>
	<path class="st20" d="M1373.8,1078.4l99.1-123.3c38.8-53.6,31.8-127.7-16.5-173l-386.8-363.1l850.4,0v-77H0v77l865.3,0L482.2,777.4
		c-1.1,1-2.2,2-3.3,3c-50.2,45.5-115.4,71-183.2,73.1L0,840v241L1373.8,1078.4z"/>
	<g>
		<path class="st21" d="M0,342.4v21.1c0,0,231.5,5.5,257.5,0s46.4,2.4,53.7,2.5c7.3,0,13.6,3.6,83.9-2.2c70.4-5.8,18.3,1.4,90.8,3.3
			c72.5,1.9,305.3,2.1,338.5,0c33.1-2.1,81.5,0.1,107.3-2c25.8-2.1,73.4-13.9,154.1-3.5s77.2-8.7,133.4,1.4
			c56.3,10,155-3.8,217.6,5.6c62.6,9.4,141.3-6.7,169-5.6c27.7,1,54.3,11.1,106.5,8.6c52.2-2.5,119.9-8.8,142.5-12.1
			c22.7-3.4,65.3,12.7,65.3,12.7v-30L0,342.4z"/>
		<path class="st21" d="M254.7,911.6c66.3,2.7,69.7,2.3,97.7-1.5s169.2-59.6,200-58.2c54.4,2.5,30.2-72.6,118-154
			c69-64,210-301,210-301s-342,330-431,408S0,842,0,842v44c0,0,88.4,14.9,133.6,23.8C178.9,918.9,188.4,908.9,254.7,911.6z"/>
		<path class="st21" d="M1482.3,737c6.1-54.1-81.9-21.1-157.3-114.2c-59.2-73.1-286.3-229.7-286.3-229.7s35.6,100.3,140.6,154.8
			c48.6,25.2,103.1,163.2,128.7,233.4c15,41.1,65.2,88.1,11.5,125.2c-15.6,10.7-29.2,23.9-40.2,39.1c-6.7,9.2-18.3,25.5-29.7,38.8
			c-9.4,10.9-22.2,18.4-36.3,21.4l-66.1,13.9c-9.4-0.2-18.1-0.4-25.5-0.4c-82.1,0-84.3-26.1-169.3-15.9s-67.5,16.5-200.4,18
			s-271.1-19.8-318.9-7.3c-47.8,12.5-128.8,12.4-180.6,19.9s-42.7-5.7-146.8,0c-104,5.6-105.7,9.1-105.7,9.1v38h1368l0.9-0.8
			c69.3,0.4,134.3,0.8,139.1,0.8c0.5-8,1.3-18.8,2.4-29.2c7.1-66,7-69.4,5-97.6C1513.5,926.1,1478.9,767.6,1482.3,737z"/>
	</g>
</g>
<g>
	<g>
		<path class="st22" d="M880,398.1c-14.4,4.2-79.6-0.2-101.1-4s-164.5,3.8-198.1,4c-33.6,0.2-70.4-7.2-101.1-2.8
			c-30.7,4.4-67.3,2.6-81.9,2.8c-14.6,0.2-5.4-18.2-10.4-18.2s4,18-4,18.2s-4-24.2-10-21.2s3,11,3.3,21.2s-71.3-0.2-126.6,0
			c-55.3,0.2-74.7-8.2-121.1-16.4C82.7,373.5,0,398,0,398s0,427.9,0,449c7,2.4,16.6,5.9,31.4,5.9c27,0,105-3,138,2s105,11,147,5
			s105,3,140-37s55-61,106-97s83-88,114-119s57-62,103-95s83-88,89.1-93.8C874.6,412.4,894.4,393.9,880,398.1z"/>
		<path class="st22" d="M1832.5,400c-17.9-3-54.1-3-73.5-1.3c-19.5,1.7-82.6,4.3-110.8,0.3s-77.8-5-91.9-0.8
			c-14.2,4.2-14.8-0.2-19.3,0c-4.4,0.2,0.4-10.2-3.2-10.5s0.7,10.4-2.8,12.3s-0.6-16.9-4.1-15.3s1.5,13.4,0,13.6s-20.5,3.8-65.6,0
			s-71.9-3.2-100.9,0s-113-2.2-126-2.2s-31,2-36.5,2.2s-2.5-9.2-7.5-9.2s9,9-2,9.2s-1-13.2-6.7-13.6c-5.7-0.4,1.7,13.4,0,13.6
			s-9.3-0.2-11,0s0.7-12.2-4.6-11.7s13.3,11.5-6.1,11.7c-19.4,0.2-51.6-7.2-81.2-10.9s-40,6.9-40,6.9c-2.1,8.7,25.1,23.3,43,40.4
			c17.9,17.1,17.1,23.9,32.3,40.7s41.8,29.3,76.8,61.7c35,32.4,50,54.6,70,78.6s97,86.9,111,103.7c14,16.7,73,57.3,95.4,91.1
			c22.3,33.8,29.7,56.2,28.3,90s-46.6,86.2-62.9,105.6c-16.3,19.4-37.2,32.1-50.2,46.1s-18.4,29.1-18.4,29.1h556v-684
			C1920,397,1850.4,402.9,1832.5,400z"/>
	</g>
	<g>
		<g>
			
				<linearGradient id="SVGID_12_" gradientUnits="userSpaceOnUse" x1="-1.525879e-05" y1="636.5687" x2="806.3301" y2="636.5687" gradientTransform="matrix(1 0 0 -1 0 1082)">
				<stop  offset="0" style="stop-color:#B3C150"/>
				<stop  offset="0.3479" style="stop-color:#B6C453"/>
				<stop  offset="0.6307" style="stop-color:#C0CD5D"/>
				<stop  offset="0.8899" style="stop-color:#D1DC6E"/>
				<stop  offset="1" style="stop-color:#DAE578"/>
			</linearGradient>
			<path class="st23" d="M692.8,420.4c-21.3,1.9-61.1,3.6-98.1,5.8c-1.6,0.1,1.7-16.3-4.3-15.3c-1,0.2,1,15.9,0,16
				c-17.3,1.1-37,2-50.1,3.3c-1.6,0.2-1.9-20.3-5.9-19.3c-1.1,0.3,2,18.9,1,19c-2.8,0.3-10.7,1.6-13,2c-1.8,0.3,1-19-5-18
				c-1.5,0.3,2.6,18.7,1,19c-33.3,6.7-103.4,23-301.8-9c-18.5-3-57.6-3-93.2-3c-6,0,7-17-4-17c-2,0-1.4,17.3-3.4,17.4
				c-43.5,1.1-88.7,3.1-116,4.8v53c5.3-0.3,10.9-0.1,17.2-0.4c38-1.2,53.3-13.8,104.2,0c26.8,7.3,71.5,6.9,120.2,5.9
				c1.2,0-1.2-18.7,2.8-19.7c0.9-0.2,2.7,19.6,3.6,19.6c1.1,0,2.3-17.6,3.4-17.6c5,0,1.7,17.5,2.6,17.5c40.1-0.9,82.2-1.8,118.7,1
				c34.7,2.6,62.2,1.7,87.7-0.4c1.7-0.1-3-23,4-22c1.7,0.2,2.2,21.7,3.9,21.5c2.1-0.2,4-13,6.1-13.5c8-2-1.1,12.5,0.7,12.3
				c30.9-3.5,70.6-8.9,124.6-14.1c36.9-3.5,69.2-3.1,96-1c0.8,0.1-3.3-16.2,1.7-15.2c1.4,0.3,3.3,15.6,4.7,15.8
				c1.4,0.1,0.3-19.8,5.3-19.8c4,0,1,20.4,2,20.5c46.9,5.1,67.1,14.9,67.1,14.9l16-29l13.8-15.4C806.3,439.9,732,416.9,692.8,420.4z
				"/>
			
				<linearGradient id="SVGID_13_" gradientUnits="userSpaceOnUse" x1="-4.577637e-05" y1="400.9627" x2="547.6814" y2="400.9627" gradientTransform="matrix(1 0 0 -1 0 1082)">
				<stop  offset="0" style="stop-color:#B3C150"/>
				<stop  offset="0.3479" style="stop-color:#B6C453"/>
				<stop  offset="0.6307" style="stop-color:#C0CD5D"/>
				<stop  offset="0.8899" style="stop-color:#D1DC6E"/>
				<stop  offset="1" style="stop-color:#DAE578"/>
			</linearGradient>
			<path class="st24" d="M545.6,686.4c-3,0-6.2-8.4-18.4-5.4c-12.3,3.1-21.7-5.1-44.7-6.1c-12-0.5-19.9,0.9-28.3,1.9
				c-0.7,0.1,4.3-15.9-0.7-15.9c-2,0-1.5,16-2,16c-0.4,0,0.1-21.8-3-21c-4,1,1.2,21.2,0.9,21.2c-5.8,0.5-12.9,0.9-21,0
				c-0.6-0.1,0.1-13.2-1.9-13.2c-4,0-0.2,13.1-1,13c-23.7-2.7-41.4-2.9-54,1c-13,4-40,1-47,0s-29,1-33.9,3s1.9-21-5.1-21
				s8,23-3.2,20.8s-7.8-30.8-12-27.4s0,25.5,0,25.5s-45.9,6.1-80.6-3.5s-57.2,0.6-102.7,0c-32.4-0.4-68.6-6.1-86.9-9.3v41
				c9.2-1.4,21.9-3.1,36.4-5.1c28-4,49-2,77,4c5.7,1.2,15.3,1.5,20,2c1.6,0.2-0.5-15,1-15c3,0,0.8,14.9,3,15c5.8,0.2,16.1,0.2,21,0
				c1.1,0-0.8-17.8,2-15c1,1,1,15.9,1.9,15.9c0.8,0,0.3-17.9,1.1-17.9c3,0,0.1,17.8,0.6,17.8c1.8,0,5.6,0,7.5,0.2
				c16.1,1,98.9-8,110.3-4.7c10.5,3,28.1,4.5,44.6,4.7c0.4,0-2-10,0-10c1,0,0.5,10,0.9,10c0.7,0,1.4,0,2.1,0c3.4,0,6.7-0.4,10-1.1
				c0.5-0.1-2-11.9,0-11.9c1,0,2,11.4,2.3,11.3c0.4-0.1-0.2-16,0.7-16.3c3-1,1.4,15.8,1.9,15.7c12.3-3.5,24.7-9.7,41.1-9.7
				c23,0,23-3,98,4S548.6,686.4,545.6,686.4z"/>
			
				<linearGradient id="SVGID_14_" gradientUnits="userSpaceOnUse" x1="9.986877e-03" y1="529.2977" x2="480.0365" y2="529.2977" gradientTransform="matrix(1 0 0 -1 0 1082)">
				<stop  offset="0" style="stop-color:#B3C150"/>
				<stop  offset="0.3479" style="stop-color:#B6C453"/>
				<stop  offset="0.6307" style="stop-color:#C0CD5D"/>
				<stop  offset="0.8899" style="stop-color:#D1DC6E"/>
				<stop  offset="1" style="stop-color:#DAE578"/>
			</linearGradient>
			<path class="st25" d="M14.2,564.6c3,0,0.8,14.9,3,15c5.8,0.2,16.1,0.2,21,0c1.1,0-0.8-17.8,2-15c1,1,1,15.9,1.9,15.9
				c0.8,0,0.3-17.9,1.1-17.9c3,0,0.1,17.8,0.6,17.8c1.8,0,5.7,0,7.5,0.2c16.1,1,98.9-8,110.3-4.7c10.5,3,28.1,4.5,44.6,4.7
				c0.4,0-2-10,0-10c1,0,0.5,10,0.9,10c0.7,0,1.4,0,2.1,0c3.4,0,6.7-0.4,10-1.1c0.5-0.1-2-11.9,0-11.9c1,0,2,11.4,2.3,11.3
				c0.4-0.1-0.2-16,0.7-16.3c3-1,1.4,15.8,1.9,15.7c12.3-3.5,24.7-9.7,41.2-9.7c23,0,23-3,98,4s165.2-18.7,86.2-16.7
				c-3,0.1-30.2-6.3-42.5-3.3c-12.3,3.1-21.7-5.1-44.7-6.1c-12-0.5-19.9,0.9-28.3,1.9c-0.7,0.1,4.3-15.9-0.7-15.9c-2,0-1.5,16-2,16
				c-0.4,0,0.1-21.8-3-21c-4,1,1.2,21.2,0.9,21.2c-5.8,0.5-12.9,0.9-21,0c-0.6-0.1,0.1-13.2-1.9-13.2c-4,0-0.2,13.1-1,13
				c-23.7-2.7-41.4-2.9-54,1c-13,4-40,1-47,0s-29,1-33.9,3s1.9-21-5.1-21s8,23-3.2,20.8s-7.8-30.8-12-27.4s0,25.5,0,25.5
				s-45.8,6.1-80.7-3.5c-25.2-7-43.7-3.1-69.4-0.9v32c4.9,0.5,10.1,1.2,13.2,1.5C14.9,579.8,12.7,564.6,14.2,564.6z"/>
			
				<linearGradient id="SVGID_15_" gradientUnits="userSpaceOnUse" x1="3.814697e-05" y1="292.5457" x2="477.4093" y2="292.5457" gradientTransform="matrix(1 0 0 -1 0 1082)">
				<stop  offset="0" style="stop-color:#B3C150"/>
				<stop  offset="0.3479" style="stop-color:#B6C453"/>
				<stop  offset="0.6307" style="stop-color:#C0CD5D"/>
				<stop  offset="0.8899" style="stop-color:#D1DC6E"/>
				<stop  offset="1" style="stop-color:#DAE578"/>
			</linearGradient>
			<path class="st26" d="M477.1,797.4c-3,0-30.4-7.4-48.1-7.6c-1,0,3.4-16.8-0.6-16.8c-2,0-3.6,16.9-4.2,17c-0.5,0,2.9-21.6,0.2-23
				c-2-1-2.1,23.3-2.5,23.2c-2.5-0.2,0.5-15.2-1.5-15.2s-0.6,15.7-1,15.8c-14.7,4.2-26-6.9-53.4-8.2c-14.4-0.7-23.8,1.2-33.8,2.5
				c-0.9,0.1,5.2-21.5-0.8-21.5c-2.4,0-1.8,21.6-2.4,21.6c-0.4,0,0.1-29.4-3.6-28.4c-4.8,1.3,1.5,28.6,1.1,28.7
				c-7,0.7-15.4,1.2-25.1,0c-0.7-0.1,0.1-17.9-2.3-17.9c-4.8,0-0.3,17.7-1.2,17.6c-28.4-3.7-49.5-3.9-64.5,1.3
				c-15.5,5.4-47.8,1.3-56.2,0c-8.4-1.3-34.6,1.3-40.5,4s2.3-28.3-6.1-28.3s9.6,31.1-3.8,28.1c-13.3-3,5.6-36.8-7.4-40.4
				c-6.5-1.8-6.9,37.8-6.9,37.8S57.7,796,16.1,783c-5.8-1.8-10.8-3.1-16.1-4v50c27.4-0.3,113.6-11.1,126.3-7
				c12.5,4.1,30.4,5.5,50.1,5.8c0.5,0-1.4-15,1-15c3,0,2.7,15.5,3.2,15.5c0.9,0,1.7,0,2.6,0c4.1,0,5.4,0.4,9.3-0.5
				c0.6-0.1-3.8-17,1-17c2,0,4.1,15.4,4.4,15.3c0.5-0.1-1.4-23.3,2.6-23.3c3.8,0,2.5,20.2,3,20c14.7-4.7,27-10.7,46.6-10.7
				c27.5,0,27.5-4.1,117.1,5.4c1,0.1,2,0.2,3,0.3c0.4,0-1.7-11,1.3-11c2,0,0.8,11.2,1.2,11.3c0.4,0-0.2-16.3,1.8-16.3
				c3,0,0.5,16.5,1.1,16.5c0.6,0,1.1-9.4,2.9-8.5c2,1-0.3,8.7,0.1,8.7C458.8,824.6,480.5,797.4,477.1,797.4z"/>
		</g>
		<g>
			
				<linearGradient id="SVGID_16_" gradientUnits="userSpaceOnUse" x1="1111.6899" y1="637.3637" x2="1920.01" y2="637.3637" gradientTransform="matrix(1 0 0 -1 0 1082)">
				<stop  offset="0" style="stop-color:#DAE578"/>
				<stop  offset="0.1101" style="stop-color:#D1DC6E"/>
				<stop  offset="0.3693" style="stop-color:#C0CD5D"/>
				<stop  offset="0.6521" style="stop-color:#B6C453"/>
				<stop  offset="1" style="stop-color:#B3C150"/>
			</linearGradient>
			<path class="st27" d="M1823.8,420.5c-2,0-1.5-17.4-3.4-17.4c-11,0,2,17-4,17c-35.6,0-74.7,0-93.2,3c-198.4,32-268.5,15.7-301.8,9
				c-1.6-0.3,2.5-18.8,1-19c-6-1-3.2,18.3-5,18c-2.3-0.4-10.2-1.7-13-2c-1-0.1,2.1-18.7,1-19c-4-1-4.3,19.5-5.9,19.3
				c-13.1-1.3-32.9-2.2-50.1-3.3c-1-0.1,0.9-15.8,0-16c-6-1-2.7,15.4-4.3,15.3c-37-2.2-76.8-4-98.1-5.8
				c-39.2-3.4-113.5,19.6-113.5,19.6l-21.8,11.1l45.2,33.4c0,0,26.6-9.9,73.5-15c1.1-0.1-2-20.5,2-20.5c5,0,3.9,19.9,5.3,19.8
				c1.4-0.1,3.3-15.5,4.7-15.8c5-1,0.9,15.3,1.7,15.2c26.8-2.1,59.1-2.5,96,1c54,5.1,93.8,10.5,124.7,14.1
				c1.8,0.2-7.3-14.3,0.7-12.3c2.1,0.5,4,13.3,6.1,13.5c1.7,0.2,2.2-21.3,3.9-21.5c7-1,2.3,21.9,4,22c25.5,2.1,53,3,87.7,0.4
				c36.5-2.8,78.5-1.8,118.7-1c0.9,0-2.4-17.5,2.6-17.5c1.1,0,2.3,17.5,3.3,17.6c0.9,0,2.8-19.8,3.7-19.6c4,1,1.6,19.7,2.8,19.7
				c48.7,1,93.4,1.3,120.2-5.9c49.5-13.4,101.6,0.2,101.6,0.2s0-35.1,0-54C1893.3,422.6,1857.8,421.3,1823.8,420.5z"/>
			
				<linearGradient id="SVGID_17_" gradientUnits="userSpaceOnUse" x1="1375.0795" y1="401.7676" x2="1920.0198" y2="401.7676" gradientTransform="matrix(1 0 0 -1 0 1082)">
				<stop  offset="0" style="stop-color:#DAE578"/>
				<stop  offset="0.1101" style="stop-color:#D1DC6E"/>
				<stop  offset="0.3693" style="stop-color:#C0CD5D"/>
				<stop  offset="0.6521" style="stop-color:#B6C453"/>
				<stop  offset="1" style="stop-color:#B3C150"/>
			</linearGradient>
			<path class="st28" d="M1750.2,674.5c-34.8,9.6-80.7,3.5-80.7,3.5s4.2-22,0-25.5c-4.2-3.4-0.8,25.2-12,27.4
				c-11.2,2.2,3.8-20.8-3.2-20.8s-0.2,22.9-5.1,21c-4.9-2-26.9-4-33.9-3s-34,4-47,0c-12.6-3.9-30.3-3.7-54-1c-0.8,0.1,3-13-1-13
				c-2,0-1.3,13.2-1.9,13.2c-8.1,0.8-15.2,0.5-21,0c-0.3,0,4.9-20.2,0.9-21.2c-3.1-0.8-2.7,21-3,21c-0.5,0,0-16-2-16
				c-5,0,0,16-0.7,15.9c-8.4-1-16.3-2.4-28.3-1.9c-23,1-32.4,9.2-44.7,6.1c-12.3-3.1-34.1,5.2-37.1,5.2s5.8,21.8,80.8,14.8
				s75-4,98-4c16.5,0,28.8,6.2,41.2,9.7c0.4,0.1-1.2-16.7,1.8-15.7c0.9,0.3,0.3,16.2,0.7,16.3c0.3,0.1,1.3-11.3,2.3-11.3
				c2,0-0.4,11.8,0,11.9c3.3,0.7,6.6,1.1,10,1.1c0.7,0,1.4,0,2.2,0c0.4,0-0.2-10,0.8-10c2,0-0.4,10,0,10c16.5-0.2,34.1-1.7,44.6-4.7
				c11.4-3.3,94.3,5.7,110.3,4.7c1.8-0.1,5.7-0.2,7.5-0.2c0.5,0-2.4-17.8,0.6-17.8c0.8,0,0.3,17.8,1.1,17.9c0.9,0,0.9-14.9,1.9-15.9
				c2.8-2.8,0.9,15,2,15c4.9,0.2,15.2,0.2,21,0c2.2-0.1,0-15,3-15c1.5,0-0.6,15.2,1,15c4.7-0.5,14.3-0.8,20-2c28-6,49-8,77-4
				c5.7,0.8,11.5,1.2,16.6,1.9v-34c-19.1,2.8-44.3,5.2-67.1,5.5C1807.4,675.1,1785,664.9,1750.2,674.5z"/>
			
				<linearGradient id="SVGID_18_" gradientUnits="userSpaceOnUse" x1="1436.7836" y1="530.0984" x2="1920.01" y2="530.0984" gradientTransform="matrix(1 0 0 -1 0 1082)">
				<stop  offset="0" style="stop-color:#DAE578"/>
				<stop  offset="0.1101" style="stop-color:#D1DC6E"/>
				<stop  offset="0.3693" style="stop-color:#C0CD5D"/>
				<stop  offset="0.6521" style="stop-color:#B6C453"/>
				<stop  offset="1" style="stop-color:#B3C150"/>
			</linearGradient>
			<path class="st29" d="M1847.4,546.2c-34.8,9.6-80.7,3.5-80.7,3.5s4.2-22,0-25.5s-0.8,25.2-12,27.4s3.8-20.8-3.2-20.8
				s-0.2,22.9-5.1,21c-4.9-2-26.9-4-33.9-3s-34,4-47,0c-12.6-3.9-30.3-3.7-54-1c-0.8,0.1,3-13-1-13c-2,0-1.3,13.2-1.9,13.2
				c-8.1,0.8-15.2,0.5-21,0c-0.3,0,4.9-20.2,0.9-21.2c-3.1-0.8-2.7,21-3,21c-0.5,0,0-16-2-16c-5,0,0,16-0.7,15.9
				c-8.4-1-16.3-2.4-28.3-1.9c-23,1-32.4,9.2-44.7,6.1c-12.3-3.1-39.5,3.3-42.5,3.3c-79-2,11.2,23.7,86.2,16.7s75-4,98-4
				c16.5,0,28.8,6.2,41.2,9.7c0.4,0.1-1.2-16.7,1.8-15.7c0.9,0.3,0.3,16.2,0.7,16.3c0.3,0.1,1.3-11.3,2.3-11.3c2,0-0.4,11.8,0,11.9
				c3.3,0.7,6.6,1.1,10,1.1c0.7,0,1.4,0,2.2,0c0.4,0-0.2-10,0.8-10c2,0-0.4,10,0,10c16.5-0.2,34.1-1.7,44.6-4.7
				c11.4-3.3,94.3,5.7,110.3,4.7c1.8-0.1,5.7-0.2,7.5-0.2c0.5,0-2.4-17.8,0.6-17.8c0.8,0,0.3,17.8,1.1,17.9c0.9,0,0.9-14.9,1.9-15.9
				c2.8-2.8,0.9,15,2,15c4.9,0.2,15.2,0.2,21,0c2.2-0.1,0-15,3-15c1.5,0-0.6,15.2,1,15c3.7-0.4,10.9-1,16.4-1.7
				c0-11.1-0.2-17.7,0-32C1892.9,542.9,1873.5,539,1847.4,546.2z"/>
			
				<linearGradient id="SVGID_19_" gradientUnits="userSpaceOnUse" x1="1476.3988" y1="273.6009" x2="1920" y2="273.6009" gradientTransform="matrix(1 0 0 -1 0 1082)">
				<stop  offset="0" style="stop-color:#DAE578"/>
				<stop  offset="0.1101" style="stop-color:#D1DC6E"/>
				<stop  offset="0.3693" style="stop-color:#C0CD5D"/>
				<stop  offset="0.6521" style="stop-color:#B6C453"/>
				<stop  offset="1" style="stop-color:#B3C150"/>
			</linearGradient>
			<path class="st30" d="M1841.3,807c0,0-0.4-39.7-6.9-37.8c-12.9,3.6,5.9,37.5-7.4,40.4c-13.3,3,4.6-28.1-3.8-28.1
				s-0.2,31-6.1,28.3c-5.9-2.7-32.2-5.3-40.5-4c-8.4,1.3-40.6,5.4-56.2,0c-15.1-5.2-36.2-5-64.5-1.3c-0.9,0.1,3.6-17.6-1.2-17.6
				c-2.4,0-1.5,17.8-2.3,17.9c-9.7,1.2-18.1,0.7-25.1,0c-0.4,0,5.8-27.3,1.1-28.7c-3.7-1-3.2,28.4-3.6,28.4
				c-0.6-0.1,0-21.6-2.4-21.6c-6,0,0,21.6-0.8,21.5c-10-1.4-19.5-3.3-33.8-2.5c-27.5,1.3-38.8,12.4-53.4,8.2c-0.4-0.1,1-15.8-1-15.8
				s1,15-1.6,15.2c-0.3,0-0.4-24.2-2.4-23.2c-2.7,1.3,0.7,23,0.2,23c-0.6,0-2.2-17-4.2-17c-4,0,0.4,16.8-0.6,16.8
				c-17.7,0.2-45.1,7.6-48.1,7.6c-3.4,0,18.3,27.2,98.5,21.3c0.4,0-1.9-7.7,0.1-8.7c1.8-0.9,2.4,8.5,2.9,8.5
				c0.5,0-1.9-16.5,1.1-16.5c2,0,1.4,16.3,1.8,16.3c0.4,0-0.8-11.3,1.2-11.3c3,0,0.9,11.1,1.3,11c1-0.1,2-0.2,3-0.3
				c89.6-9.5,89.6-5.4,117.1-5.4c19.7,0,31.9,6,46.7,10.7c0.5,0.2-0.8-20,3-20c4,0,2.1,23.1,2.6,23.3c0.4,0.1,2.4-15.3,4.4-15.3
				c4.8,0,0.4,16.9,1,17c3.9,0.9,5.2,0.5,9.3,0.5c0.8,0,1.7,0,2.6,0c0.5,0,0.2-15.5,3.2-15.5c2.4,0,0.5,15,1,15
				c19.7-0.3,37.6-1.8,50.1-5.8c9.1-3,56.4,1.9,92.5,4.8v-40C1882.2,812.6,1841.3,807,1841.3,807z"/>
			
				<linearGradient id="SVGID_20_" gradientUnits="userSpaceOnUse" x1="1422.6499" y1="117.1803" x2="1919.9899" y2="117.1803" gradientTransform="matrix(1 0 0 -1 0 1082)">
				<stop  offset="0" style="stop-color:#DAE578"/>
				<stop  offset="0.1101" style="stop-color:#D1DC6E"/>
				<stop  offset="0.3693" style="stop-color:#C0CD5D"/>
				<stop  offset="0.6521" style="stop-color:#B6C453"/>
				<stop  offset="1" style="stop-color:#B3C150"/>
			</linearGradient>
			<path class="st31" d="M1818.1,916.9c-8.3-1.4-4.4,25.2-6.9,24.8c-3.2-0.5-14-2.3-17.9-2.8c-1.4-0.2,2.9-25.8,1.4-26.2
				c-5.5-1.4-5.9,26.8-8.1,26.6c-18.1-1.8-45.3-3.1-69-4.5c-1.3-0.1,1.3-21.8,0-22c-8.3-1.4-3.7,21.2-5.9,21c-51-3-41.7,6.7-71,4.1
				c-27.5-2.4-55-4.4-75.4-5.8c-21.2-1.5-42.4,2.9-61.3,12.6l-37.3,19.2l-44,53c0,0,66.3-16.6,131-23.6c1.5-0.2-2.7-28.3,2.8-28.3
				c6.9,0,5.4,27.4,7.3,27.2c1.9-0.2,4.6-21.3,6.5-21.7c6.9-1.4,1.3,21,2.3,21c36.9-3,67.1,9.3,132.2,1.3
				c74.2-9.1,129.2,14.5,171.7,19.4c2.5,0.3-10.1-19.6,0.9-16.9c2.9,0.7,5.5,18.3,8.4,18.6c2.3,0.2,3-29.3,5.4-29.7
				c9.6-1.4,3.2,30.1,5.5,30.3c7.6,0.6,15.4,1.2,23.4,1.7v-59.7c-56.8-0.1-78.8-8.6-103.3-13.5
				C1814.5,942.6,1820.2,917.2,1818.1,916.9z"/>
		</g>
	</g>
</g>
<g>
	<path class="st5" d="M50.5,1022.2c-13.8,0.6-2.4,42.6-14.6,59.6h11C34.7,1047.7,64.3,1021.6,50.5,1022.2z"/>
	<path class="st5" d="M180.4,993.5c-14.7-3.7-11.9,91.3-22.3,87.3s-5.9-69.9-15.2-71.9c-9.2-2.1,6.2,61.9-7,72.9h37.9
		C160.7,1054.7,195.2,997.2,180.4,993.5z"/>
	<path class="st5" d="M600,993.5c-10.3,2.3-9.8,81.3-17,87.3s1.3-63.1-6-59.6s2.9,51.6-7.2,60.6H594
		C583.7,1062.7,610.3,991.2,600,993.5z"/>
	<path class="st5" d="M732.4,1012.2c-18.7,0.5-10.1,55.5-20.4,69.5h14.4C713.7,1065.7,751.2,1011.7,732.4,1012.2z"/>
	<path class="st5" d="M1006.2,1025.5c-8.5-2.8,5.2,42.2-8.6,56.2l21.8,0C1003.4,1067.4,1013.1,1027.7,1006.2,1025.5z"/>
	<path class="st5" d="M1092.5,978.4c-11.8,0.3-4,102.4-11.9,102.3c-32.4-0.1-10.8-89.5-29.4-88.1c-16.3,1.3,13.8,70.2-4.1,88.7
		l49.1,0.4C1080.7,1067.7,1104.3,978,1092.5,978.4z"/>
	<path class="st5" d="M1488.6,1007.6c-13.8,3.1-5.3,73.1-22.1,73.1s2.8-63.4-10.2-61.1c-13,2.3-1.7,57.1-16.6,61.1
		s-2.8-49.8-16.4-43.1s13.5,20.1-10.2,44.2h74C1475.1,1056.7,1502.3,1004.5,1488.6,1007.6z"/>
	<path class="st5" d="M1673.4,1043.8c-7.7-4,4.2,17.2-8.4,38.1h16C1676.4,1069.5,1681.2,1047.8,1673.4,1043.8z"/>
	<path class="st5" d="M1779.3,1021.2c-3.5-0.4-1.2,39.3-4.8,39.4s-1.3-67.3-9.5-60.6c-8.2,6.7,6.4,56.4-4.8,81.8h27
		C1778.4,1072.5,1782.8,1021.6,1779.3,1021.2z"/>
	<path class="st5" d="M1908.2,1039.7c-8.5,0.3,0.2,36.7-10.7,35.4c-10.8-1.3,2.5-54-11.3-51.4c-13.9,2.6,7.9,49.1-21.3,58.1
		l54.6,0.2C1902.7,1068.7,1916.7,1039.4,1908.2,1039.7z"/>
</g>
<g>
	<g>
		<g>
			<rect x="782.6" y="230.1" class="st32" width="348.3" height="107.3"/>
			<path class="st33" d="M1131.1,337.7H782.3V229.9h348.8V337.7z M782.8,337.2h347.8V230.4H782.8V337.2z"/>
		</g>
		<g>
			<rect x="788" y="236.3" class="st34" width="337.4" height="100.8"/>
			<path class="st33" d="M1125.6,337.3H787.8V236.1h337.9V337.3z M788.3,336.8h336.9V236.6H788.3V336.8z"/>
		</g>
		<g>
			<polygon class="st35" points="834,329.8 788,329.8 788,235.6 1125.4,235.6 1125.4,266.9 834,266.3 			"/>
			<path class="st33" d="M834.3,330.1h-46.5v-94.7h337.9v31.8l-291.4-0.5L834.3,330.1L834.3,330.1z M788.3,329.6h45.5v-63.5
				l291.4,0.5v-30.8H788.3V329.6z"/>
		</g>
		<g>
			<rect x="1114.3" y="246.6" class="st19" width="6.6" height="76.7"/>
			<path class="st33" d="M1121.1,323.5h-7.1v-77.2h7.1V323.5z M1114.6,323h6.1v-76.2h-6.1V323z"/>
		</g>
		<g>
			<rect x="805.6" y="246.6" class="st19" width="297.9" height="21.9"/>
			<path class="st33" d="M1103.7,268.7H805.3v-22.4h298.4V268.7z M805.8,268.2h297.4v-21.4H805.8V268.2z"/>
		</g>
		<g>
			<rect x="974.2" y="257.5" class="st19" width="59.2" height="70.1"/>
			<path class="st33" d="M1033.6,327.9H974v-70.6h59.7V327.9z M974.5,327.4h58.7v-69.6h-58.7V327.4z"/>
		</g>
		<g>
			<rect x="969.9" y="266.3" class="st35" width="2.2" height="46"/>
			<path class="st33" d="M972.3,312.5h-2.7V266h2.7V312.5z M970.1,312h1.7v-45.5h-1.7V312z"/>
		</g>
		<g>
			<rect x="897.6" y="268.5" class="st35" width="15.3" height="54.8"/>
			<path class="st33" d="M913.2,323.5h-15.8v-55.3h15.8V323.5z M897.8,323h14.8v-54.3h-14.8V323z"/>
		</g>
		<g>
			<rect x="888.8" y="264.1" class="st19" width="24.1" height="17.5"/>
			<path class="st33" d="M913.2,281.9h-24.6v-18h24.6V281.9z M889,281.4h23.6v-17H889V281.4z"/>
		</g>
		<g>
			<rect x="897.6" y="323.3" class="st19" width="225.6" height="2.2"/>
			<path class="st33" d="M1123.4,325.7H897.3V323h226.1L1123.4,325.7L1123.4,325.7z M897.8,325.2H1123v-1.7H897.8V325.2z"/>
		</g>
		<g>
			<rect x="1120.9" y="242.2" class="st35" width="4.4" height="81.1"/>
			<path class="st33" d="M1125.5,323.5h-4.9v-81.6h4.9V323.5z M1121.1,323h3.9v-80.6h-3.9V323z"/>
		</g>
		<g>
			<polygon class="st32" points="785.8,246.6 801.2,259.7 801.2,329.8 785.8,329.8 			"/>
			<path class="st33" d="M801.4,330.1h-15.8v-84l15.8,13.6V330.1z M786.1,329.6h14.8v-69.7l-14.8-12.7V329.6z"/>
		</g>
		<g>
			<rect x="774.9" y="226.9" class="st35" width="361.5" height="4.4"/>
			<path class="st33" d="M1136.6,231.5h-362v-4.9h362V231.5z M775.1,231h361v-3.9h-361V231z"/>
		</g>
		<g>
			<rect x="763.9" y="222.5" class="st36" width="385.5" height="4.4"/>
			<path class="st33" d="M1149.7,227.1h-386v-4.9h386V227.1z M764.2,226.6h385v-3.9h-385V226.6z"/>
		</g>
		<g>
			<rect x="763.9" y="218.1" class="st32" width="385.5" height="4.4"/>
			<path class="st33" d="M1149.7,222.7h-386v-4.9h386V222.7z M764.2,222.2h385v-3.9h-385V222.2z"/>
		</g>
		<g>
			<rect x="849.4" y="264.1" class="st37" width="52.6" height="70.1"/>
			<path class="st33" d="M902.2,334.5h-53.1v-70.6h53.1V334.5z M849.6,334h52.1v-69.6h-52.1V334z"/>
		</g>
		<g>
			<rect x="845" y="261.9" class="st34" width="63.5" height="4.4"/>
			<path class="st33" d="M908.8,266.5h-64v-4.9h64V266.5z M845.2,266h63v-3.9h-63V266z"/>
		</g>
		<g>
			<rect x="854" y="268.5" class="st38" width="2.2" height="65.7"/>
			<path class="st33" d="M856.5,334.5h-2.7v-66.2h2.7V334.5z M854.3,334h1.7v-65.2h-1.7V334z"/>
		</g>
		<g>
			<rect x="855.9" y="268.5" class="st36" width="39.4" height="65.7"/>
			<path class="st33" d="M895.6,334.5h-39.9v-66.2h39.9V334.5z M856.2,334h38.9v-65.2h-38.9V334z"/>
		</g>
		<g>
			<rect x="760.1" y="337.5" class="st35" width="388.3" height="4.4"/>
			<path class="st33" d="M1148.7,342.1H759.9v-4.9h388.8V342.1z M760.4,341.6h387.8v-3.9H760.4V341.6z"/>
		</g>
		<g>
			<rect x="855.9" y="268.5" class="st39" width="11" height="65.7"/>
			<path class="st33" d="M867.2,334.5h-11.5v-66.2h11.5V334.5z M856.2,334h10.5v-65.2h-10.5V334z"/>
		</g>
		<g>
			<rect x="866.9" y="268.5" class="st39" width="28.5" height="4.4"/>
			<path class="st33" d="M895.6,273.1h-29v-4.9h29V273.1z M867.2,272.6h28v-3.9h-28V272.6z"/>
		</g>
		<g>
			<rect x="840.6" y="336.4" class="st39" width="67.9" height="4.4"/>
			<path class="st33" d="M908.8,341h-68.4v-4.9h68.4V341z M840.9,340.5h67.4v-3.9h-67.4V340.5z"/>
		</g>
		<g>
			<rect x="836.2" y="340.8" class="st35" width="76.7" height="4.4"/>
			<path class="st33" d="M913.2,345.4H836v-4.9h77.2V345.4z M836.5,344.9h76.2V341h-76.2V344.9z"/>
		</g>
		<g>
			<rect x="967.7" y="312.3" class="st40" width="59.1" height="6.6"/>
			<path class="st33" d="M1027.1,319.1h-59.7V312h59.7V319.1z M967.9,318.6h58.6v-6.1h-58.7L967.9,318.6L967.9,318.6z"/>
		</g>
		<g>
			<rect x="967.7" y="251" class="st32" width="59.1" height="6.6"/>
			<path class="st33" d="M1027.1,257.8h-59.7v-7.1h59.7V257.8z M967.9,257.3h58.6v-6.1h-58.7L967.9,257.3L967.9,257.3z"/>
		</g>
		<g>
			<rect x="966.6" y="246.6" class="st39" width="61.3" height="4.4"/>
			<path class="st33" d="M1028.2,251.2h-61.8v-4.9h61.8V251.2z M966.8,250.7h60.8v-3.9h-60.8V250.7z"/>
		</g>
		<g>
			<rect x="972" y="257.5" class="st32" width="50.4" height="54.8"/>
			<path class="st33" d="M1022.7,312.5h-50.9v-55.3h50.9V312.5z M972.3,312h49.9v-54.3h-49.9V312z"/>
		</g>
		<g>
			<g>
				<rect x="977.5" y="288.2" class="st41" width="17.5" height="21.9"/>
				<path class="st33" d="M995.3,310.4h-18v-22.4h18V310.4z M977.8,309.9h17v-21.4h-17V309.9z"/>
			</g>
			<g>
				<rect x="999.4" y="288.2" class="st41" width="17.5" height="21.9"/>
				<path class="st33" d="M1017.2,310.4h-18v-22.4h18V310.4z M999.7,309.9h17v-21.4h-17V309.9z"/>
			</g>
			<g>
				<rect x="977.5" y="260.8" class="st41" width="17.5" height="25.2"/>
				<path class="st33" d="M995.3,286.3h-18v-25.7h18V286.3z M977.8,285.8h17v-24.7h-17V285.8z"/>
			</g>
			<g>
				<rect x="999.4" y="260.8" class="st41" width="17.5" height="25.2"/>
				<path class="st33" d="M1017.2,286.3h-18v-25.7h18V286.3z M999.7,285.8h17v-24.7h-17V285.8z"/>
			</g>
		</g>
		<g>
			<rect x="886.6" y="299.2" class="st42" width="4.4" height="4.4"/>
			<path class="st33" d="M891.3,303.8h-4.9v-4.9h4.9V303.8z M886.9,303.3h3.9v-3.9h-3.9V303.3z"/>
		</g>
		<g>
			<rect x="802.5" y="259.7" class="st40" width="15.3" height="6.6"/>
			<path class="st33" d="M818.1,266.5h-15.8v-7.1h15.8V266.5z M802.8,266h14.8V260h-14.8V266z"/>
		</g>
		<g>
			<rect x="836.5" y="253.2" class="st40" width="15.3" height="6.6"/>
			<path class="st33" d="M852.1,260h-15.8v-7.1h15.8V260z M836.8,259.5h14.8v-6.1h-14.8V259.5z"/>
		</g>
		<g>
			<rect x="810.8" y="266.3" class="st40" width="15.3" height="6.6"/>
			<path class="st33" d="M826.3,273.1h-15.8V266h15.8V273.1z M811,272.6h14.8v-6.1H811V272.6z"/>
		</g>
		<g>
			<rect x="794.6" y="266.3" class="st40" width="15.3" height="6.6"/>
			<path class="st33" d="M810.2,273.1h-15.8V266h15.8V273.1z M794.9,272.6h14.8v-6.1h-14.8V272.6z"/>
		</g>
		<g>
			<rect x="803.4" y="305.7" class="st40" width="15.3" height="6.6"/>
			<path class="st33" d="M819,312.5h-15.8v-7.1H819V312.5z M803.6,312h14.8V306h-14.8V312z"/>
		</g>
		<g>
			<rect x="794.6" y="314.5" class="st40" width="15.3" height="6.6"/>
			<path class="st33" d="M810.2,321.3h-15.8v-7.1h15.8V321.3z M794.9,320.8h14.8v-6.1h-14.8V320.8z"/>
		</g>
		<g>
			<rect x="785.8" y="321.1" class="st43" width="15.3" height="6.6"/>
			<path class="st33" d="M801.4,327.9h-15.8v-7.1h15.8V327.9z M786.1,327.4h14.8v-6.1h-14.8V327.4z"/>
		</g>
		<g>
			<rect x="926" y="305.7" class="st40" width="15.3" height="6.6"/>
			<path class="st33" d="M941.6,312.5h-15.8v-7.1h15.8V312.5z M926.3,312h14.8V306h-14.8V312z"/>
		</g>
		<g>
			<rect x="948" y="283.8" class="st40" width="15.3" height="6.6"/>
			<path class="st33" d="M963.5,290.6h-15.8v-7.1h15.8L963.5,290.6L963.5,290.6z M948.2,290.1H963v-6.1h-14.8V290.1z"/>
		</g>
		<g>
			<rect x="917.3" y="312.3" class="st40" width="15.3" height="6.6"/>
			<path class="st33" d="M932.9,319.1H917V312h15.8V319.1z M917.5,318.6h14.8v-6.1h-14.8V318.6z"/>
		</g>
		<g>
			<rect x="930.4" y="246.6" class="st40" width="15.3" height="6.6"/>
			<path class="st33" d="M946,253.4h-15.8v-7.1H946V253.4z M930.7,252.9h14.8v-6.1h-14.8V252.9z"/>
		</g>
		<g>
			<rect x="908.5" y="235.6" class="st40" width="15.3" height="6.6"/>
			<path class="st33" d="M924.1,242.4h-15.8v-7.1h15.8V242.4z M908.8,241.9h14.8v-6.1h-14.8V241.9z"/>
		</g>
		<g>
			<rect x="1051.4" y="245.9" class="st40" width="15.3" height="6.6"/>
			<path class="st33" d="M1067,252.7h-15.8v-7.1h15.8V252.7z M1051.7,252.2h14.8v-6.1h-14.8V252.2z"/>
		</g>
		<g>
			<rect x="1082.1" y="261.2" class="st40" width="15.3" height="6.6"/>
			<path class="st33" d="M1097.7,268h-15.8V261h15.8V268z M1082.3,267.5h14.8v-6.1h-14.8V267.5z"/>
		</g>
		<g>
			<rect x="1042.2" y="286" class="st40" width="15.3" height="6.6"/>
			<path class="st33" d="M1057.7,292.8h-15.8v-7.1h15.8V292.8z M1042.4,292.3h14.8v-6.1h-14.8V292.3z"/>
		</g>
		<g>
			<rect x="1053.1" y="292.6" class="st40" width="15.3" height="6.6"/>
			<path class="st33" d="M1068.7,299.4h-15.8v-7.1h15.8V299.4z M1053.3,298.9h14.8v-6.1h-14.8V298.9z"/>
		</g>
		<g>
			<rect x="1040" y="325.4" class="st40" width="15.3" height="6.6"/>
			<path class="st33" d="M1055.5,332.3h-15.8v-7.1h15.8V332.3z M1040.2,331.8h14.8v-6.1h-14.8V331.8z"/>
		</g>
		<g>
			<rect x="1069.3" y="270.7" class="st40" width="15.3" height="6.6"/>
			<path class="st33" d="M1084.8,277.5H1069v-7.1h15.8V277.5z M1069.5,277h14.8v-6.1h-14.8V277z"/>
		</g>
		<g>
			<rect x="1086" y="270.7" class="st40" width="15.3" height="6.6"/>
			<path class="st33" d="M1101.6,277.5h-15.8v-7.1h15.8V277.5z M1086.2,277h14.8v-6.1h-14.8V277z"/>
		</g>
		<g>
			<rect x="1101.3" y="299.2" class="st40" width="15.3" height="6.6"/>
			<path class="st33" d="M1116.9,306h-15.8v-7.1h15.8V306z M1101.6,305.5h14.8v-6.1h-14.8V305.5z"/>
		</g>
		<g>
			<rect x="1107.9" y="307.9" class="st40" width="15.3" height="6.6"/>
			<path class="st33" d="M1123.4,314.7h-15.8v-7.1h15.8V314.7z M1108.1,314.2h14.8v-6.1h-14.8V314.2z"/>
		</g>
		<g>
			<rect x="1057.5" y="316.7" class="st40" width="15.3" height="6.6"/>
			<path class="st33" d="M1073.1,323.5h-15.8v-7.1h15.8V323.5z M1057.7,323h14.8v-6.1h-14.8V323z"/>
		</g>
		<g>
			<rect x="758.5" y="213.3" class="st33" width="403.1" height="4.4"/>
			<path class="st33" d="M1161.8,217.9H758.2v-4.9h403.6V217.9z M758.7,217.4h402.6v-3.9H758.7V217.4z"/>
		</g>
		<g>
			<polygon class="st44" points="869.1,139.9 761.8,212.9 1155.8,214 1075,164 			"/>
			<path class="st33" d="M1156.7,214.3l-395.8-1.1L869,139.7l0.1,0l206,24.1l0.1,0L1156.7,214.3z M762.6,212.6l392.4,1.1l-80-49.5
				l-205.8-24.1L762.6,212.6z"/>
		</g>
		<g>
			<polygon class="st19" points="1009.3,156.4 1009.3,137.7 1031.2,137.7 1031.2,158.9 			"/>
			<path class="st33" d="M1031.4,159.2l-22.4-2.6v-19.1h22.4V159.2z M1009.5,156.1l21.4,2.5V138h-21.4V156.1z"/>
		</g>
		<g>
			<rect x="1004.9" y="131.2" class="st19" width="30.7" height="6.6"/>
			<path class="st33" d="M1035.8,138h-31.2v-7.1h31.2V138z M1005.2,137.5h30.2v-6.1h-30.2V137.5z"/>
		</g>
		<g>
			<polygon class="st33" points="1145.1,207.1 770.8,207.1 766.2,209.9 1149.5,209.9 			"/>
			<path class="st33" d="M1150.4,210.1H765.3l5.4-3.3h374.5l0.1,0L1150.4,210.1z M767.1,209.6h381.5l-3.6-2.3H770.8L767.1,209.6z"/>
		</g>
		<g>
			<polygon class="st45" points="807.8,194.7 921.7,153.1 1075,168.4 1116.6,194.7 			"/>
			<path class="st33" d="M1117.5,194.9H806.3l115.3-42.1l0.1,0l153.4,15.3l0.1,0L1117.5,194.9z M809.2,194.4h306.6l-40.8-25.8
				l-153.2-15.3L809.2,194.4z"/>
		</g>
		<g>
			<polygon class="st35" points="873.6,141.2 771.4,208.1 779.1,209.5 879.5,142.1 			"/>
			<path class="st33" d="M779.1,209.8l-8.4-1.5l0.5-0.3l102.3-67l6.7,1L779.1,209.8z M772,208l7,1.3l99.8-67l-5.2-0.8L772,208z"/>
		</g>
		<g>
			<path class="st35" d="M1009.3,137.7v5.1l13.1,3.7v-4.4h4.4v9.1h4.4v-13.4C1031.2,137.7,1007.8,137.7,1009.3,137.7z"/>
			<path class="st33" d="M1031.4,151.4h-4.9v-9.1h-3.9v4.4L1009,143v-5.3h0.2v-0.3h22.2L1031.4,151.4L1031.4,151.4z M1027.1,150.9
				h3.9V138h-21.4v4.6l12.6,3.5v-4.3h4.9L1027.1,150.9L1027.1,150.9z"/>
		</g>
	</g>
	<g>
		<path class="st46" d="M891,171.3c-1,0.4-2,1.1-2.8,1.9c-0.8,0.8-1.4,1.7-1.9,2.8c-0.5,1.1-0.7,2.2-0.7,3.4c0,1.2,0.2,2.3,0.7,3.4
			c0.5,1.1,1.1,2,1.9,2.8c0.8,0.8,1.7,1.4,2.8,1.8c1,0.4,2.2,0.7,3.3,0.7h5.9c0.5,0,1,0.1,1.5,0.3c0.5,0.2,0.8,0.5,1.2,0.8
			c0.3,0.4,0.6,0.8,0.8,1.2c0.2,0.5,0.3,0.9,0.3,1.4s-0.1,1-0.3,1.4c-0.2,0.5-0.5,0.9-0.8,1.2c-0.3,0.3-0.7,0.6-1.2,0.8
			c-0.5,0.2-0.9,0.3-1.5,0.3h-12c-1.3,0-2.5,1.1-2.5,2.4l0,0c0,1.4,1.1,2.4,2.5,2.4h12c1.2,0,2.3-0.2,3.3-0.7c1-0.4,2-1.1,2.8-1.9
			c0.8-0.8,1.4-1.7,1.9-2.8c0.5-1.1,0.7-2.2,0.7-3.3c0-1.2-0.2-2.3-0.7-3.4c-0.4-1-1.1-2-1.9-2.8s-1.7-1.4-2.8-1.9
			c-1-0.4-2.2-0.7-3.3-0.7h-5.9c-0.5,0-1-0.1-1.5-0.3c-0.5-0.2-0.9-0.5-1.2-0.8s-0.6-0.7-0.8-1.2c-0.2-0.5-0.3-0.9-0.3-1.4
			c0-0.5,0.1-1,0.3-1.4c0.2-0.5,0.5-0.9,0.8-1.2c0.3-0.4,0.7-0.6,1.2-0.8s0.9-0.3,1.5-0.3h12c1.3,0,2.5-1.1,2.5-2.4l0,0
			c0-1.4-1.1-2.4-2.5-2.4h-12C893.2,170.6,892,170.8,891,171.3z"/>
		<path class="st46" d="M1020.6,200.3h1.6c1.8,0,3.3-1.5,3.3-3.3v-10.3c0,0,0,0,0-0.1c0-0.4,0.1-0.8,0.1-1.2c0-2.1-0.4-4-1.2-5.8
			c-0.8-1.8-1.8-3.4-3.2-4.7c-1.3-1.4-2.9-2.4-4.7-3.2c-1.8-0.8-3.8-1.2-5.8-1.2c-2,0-4,0.4-5.8,1.2c-1.8,0.8-3.4,1.8-4.7,3.2
			c-1.3,1.4-2.4,2.9-3.2,4.7c-0.8,1.8-1.2,3.8-1.2,5.8s0.4,4,1.2,5.8c0.8,1.8,1.8,3.4,3.2,4.7c1.3,1.4,2.9,2.4,4.7,3.2
			c1.8,0.8,3.7,1.2,5.8,1.2L1020.6,200.3L1020.6,200.3z M1010.7,195.4c-1.3,0-2.6-0.3-3.8-0.8c-1.2-0.5-2.3-1.2-3.2-2.1
			c-0.9-0.9-1.6-1.9-2.1-3.2c-0.5-1.2-0.8-2.5-0.8-3.8c0-1.4,0.3-2.6,0.8-3.9c0.5-1.2,1.2-2.3,2.1-3.2c0.9-0.9,2-1.6,3.2-2.1
			c1.2-0.5,2.5-0.8,3.8-0.8c1.3,0,2.7,0.3,3.9,0.8c1.2,0.5,2.3,1.2,3.2,2.1c0.9,0.9,1.6,2,2.1,3.2c0.5,1.2,0.8,2.5,0.8,3.9
			c0,1.4-0.3,2.6-0.8,3.8c-0.5,1.2-1.2,2.3-2.1,3.2c-0.9,0.9-2,1.6-3.2,2.1C1013.3,195.1,1012,195.4,1010.7,195.4z"/>
		<path class="st46" d="M926.6,170.5c-8.1,0-14.7,6.7-15,15h0v12.4c0,1.4,1.1,2.4,2.5,2.4h0.3c1.3,0,2.5-1.1,2.5-2.4v-11.7
			c0-5.7,4.4-10.4,9.8-10.4c1.7,0,3.9,0.7,5.6,1.7c1.1,0.7,2.6,0.3,3.3-0.8l0.1-0.2c0.7-1.1,0.4-2.6-0.7-3.3
			C932.5,171.5,929.6,170.5,926.6,170.5z"/>
		<path class="st46" d="M956.5,181.9c-0.3,0.3-0.7,0.6-1.2,0.8c-0.5,0.2-0.9,0.3-1.5,0.3h-8.2c-1.3,0-2.5,1.1-2.5,2.4l0,0
			c0,1.4,1.1,2.4,2.5,2.4h8.2c1.2,0,2.3-0.2,3.3-0.7c1-0.4,2-1.1,2.8-1.9c0.8-0.8,1.4-1.7,1.9-2.8c0.5-1.1,0.7-2.2,0.7-3.3
			c0-1.2-0.2-2.3-0.7-3.4c-0.4-1-1.1-2-1.9-2.8s-1.7-1.4-2.8-1.9c-2.5-1.2-8.4-1.7-13.2,0.5c-1.7,0.8-3.3,1.9-4.6,3.2
			c-1.3,1.4-2.4,2.9-3.1,4.7c-0.8,1.8-1.1,3.8-1.1,5.8s0.4,4,1.1,5.8c0.8,1.8,1.8,3.4,3.1,4.7c1.3,1.4,2.9,2.4,4.6,3.2
			c1.8,0.8,3.7,1.2,5.6,1.2h8.9c1.3,0,2.5-1.1,2.5-2.4v-0.1c0-1.4-1.1-2.4-2.5-2.4h-8.9c-1.3,0-2.6-0.3-3.7-0.8
			c-1.2-0.5-2.2-1.2-3.1-2.1c-0.9-0.9-1.6-2-2.1-3.2c-0.5-1.2-0.8-2.5-0.8-3.9s0.3-2.7,0.8-3.9c0.5-1.2,1.2-2.3,2.1-3.2
			c0.9-0.9,1.9-1.6,3-2.1l0,0c3.3-1.4,7.9-1.2,9.4-0.5c0.5,0.2,0.8,0.5,1.2,0.8c0.3,0.4,0.6,0.8,0.8,1.2c0.2,0.5,0.3,0.9,0.3,1.4
			s-0.1,1-0.3,1.4C957.1,181.2,956.8,181.6,956.5,181.9z"/>
		<path class="st46" d="M991.2,159.2L991.2,159.2c-1.3,0-2.5,1.1-2.5,2.4v8.8c0,0-7.4,0-9.9,0c-2,0-4,0.4-5.8,1.2
			c-1.8,0.8-3.4,1.8-4.7,3.2s-2.4,2.9-3.2,4.7c-0.8,1.8-1.2,3.8-1.2,5.8s0.4,4,1.2,5.8c0.8,1.8,1.8,3.4,3.2,4.7
			c1.3,1.4,2.9,2.4,4.7,3.2c1.8,0.8,3.8,1.2,5.8,1.2c1.9,0,3.8-0.4,5.5-1.1c1.7-0.7,3.3-1.7,4.6-2.9c1.3-1.2,2.4-2.7,3.2-4.3
			c0.8-1.7,1.3-3.5,1.5-5.4v-24.9C993.6,160.3,992.5,159.2,991.2,159.2z M987.8,189.4c-0.4,1-1.1,1.9-1.9,2.8
			c-2,2.1-4.7,3.1-7.4,3.1c-0.1,0-0.1,0-0.2,0c-5.2,0-9.5-4.2-9.5-9.5c0-0.1,0-0.1,0-0.1c-0.1-2.5,0.8-5.1,2.7-7.1
			c0.8-0.8,1.7-1.5,2.7-2c3-1.5,6.6-0.1,8.1,2.8c0.2,0.4,0.5,0.9,0.9,1.2c0.4,0.4,0.8,0.6,1.3,0.9
			C987.6,182.8,989.2,186.3,987.8,189.4z M988.4,178.8c-1.7,1.4-4.6,0.7-4.6,0.7s-0.1-3,1.6-4.4c1.7-1.4,4.6-0.7,4.6-0.7
			S990.1,177.4,988.4,178.8z"/>
	</g>
</g>
<g>
	<g>
		<path class="st47" d="M1806.3,832.5l5.5-3.1c10.7-6,23.6-6,34.4-0.2l17.4,9.4c0.7,0.4,1.3,0.8,1.8,1.4l27.2,29.2
			c3.4,3.7,1.9,9.7-2.8,11.4l-61.8,21.2c-1.1,0.4-2.2,0.5-3.3,0.3l-94-13.9c-5.4-0.8-7.8-7.2-4.4-11.4l9.2-11.1
			c1-1.3,2.5-2.1,4.1-2.4l21.8-4.2c2-0.4,3.8-1.7,4.8-3.5l8.8-15.9c1.1-2,3.1-3.3,5.3-3.5l23.6-2.8
			C1804.6,833.3,1805.5,833,1806.3,832.5z"/>
		<path class="st44" d="M1804.1,837.7l-25.8,3.2c-1.1,0.1-2.1,0.8-2.6,1.8l-8.5,17.4c-0.4,0.9-1.2,1.5-2.1,1.8l-28.7,7.5
			c-0.8,0.2-1.5,0.7-1.9,1.4l-3,4.5c-1.4,2-0.1,4.8,2.3,5.1l31.9,4.5c3.2,0.5,5.1-3.5,2.7-5.7l0,0c-1.9-1.8-1.1-5,1.5-5.6l15.6-3.9
			c1.3-0.3,2.3-1.5,2.5-2.8l1.3-11.4c0.1-1,0.7-2,1.6-2.5l15.4-9.1C1809.3,842.1,1807.6,837.3,1804.1,837.7z"/>
		<path class="st48" d="M1854.4,852.1l0.4,5.9c0.1,1.9-1.4,3.5-3.4,3.5l-21.9-0.3c-0.5,0-1,0.1-1.4,0.3l-31.2,14
			c-0.4,0.2-0.9,0.3-1.4,0.3h-8.3c-2.4,0-4.1,2.5-3,4.7l4.8,10.2c0.5,1,1.5,1.7,2.6,1.9l36.8,4.3c0.6,0.1,1.2,0,1.7-0.2l47.1-20
			c1.8-0.8,2.6-2.9,1.6-4.7l-5.6-10.1c-0.2-0.3-0.4-0.6-0.7-0.8l-12.7-11.7C1857.8,847.4,1854.2,849.1,1854.4,852.1z"/>
	</g>
	<g>
		<path class="st47" d="M1665.5,847.5l6.4-3.6c13.8-7.7,30.5-7.8,44.3-0.3l21.4,11.6c0.8,0.5,1.6,1,2.3,1.8l34.2,36.7
			c4.3,4.7,2.4,12.3-3.6,14.3l-77.8,26.7c-1.3,0.5-2.8,0.6-4.2,0.4l-118.3-17.5c-6.8-1-9.9-9-5.5-14.3l11.5-14
			c1.3-1.6,3.1-2.7,5.1-3l27.4-5.3c2.6-0.5,4.8-2.1,6-4.4l5.3-9.5c5-9,14.1-15.1,24.3-16.3l17.8-2.1
			C1663.4,848.4,1664.5,848.1,1665.5,847.5z"/>
		<path class="st44" d="M1662.7,854.1l-32.5,4c-1.4,0.2-2.6,1-3.2,2.3l-10.7,21.9c-0.5,1.1-1.5,1.9-2.7,2.2l-36.1,9.5
			c-1,0.3-1.8,0.9-2.4,1.7l-3.8,5.7c-1.7,2.6-0.2,6,2.9,6.5l40.1,5.6c4,0.6,6.4-4.4,3.4-7.2l0,0c-2.4-2.3-1.3-6.3,1.8-7.1l19.6-5
			c1.7-0.4,2.9-1.8,3.1-3.6l1.7-14.3c0.2-1.3,0.9-2.5,2-3.1l19.3-11.4C1669.2,859.5,1667.2,853.5,1662.7,854.1z"/>
		<path class="st48" d="M1726,872.1l0.5,7.4c0.2,2.4-1.8,4.5-4.2,4.4l-27.6-0.4c-0.6,0-1.2,0.1-1.8,0.4l-39.3,17.6
			c-0.5,0.2-1.1,0.4-1.7,0.4h-10.5c-3.1,0-5.1,3.2-3.8,6l6.1,12.9c0.6,1.3,1.9,2.2,3.3,2.4l46.3,5.5c0.7,0.1,1.4,0,2.1-0.3
			l59.3-25.1c2.3-1,3.2-3.7,2-5.9l-7-12.8c-0.2-0.4-0.5-0.8-0.8-1.1l-16-14.7C1730.3,866.2,1725.8,868.3,1726,872.1z"/>
	</g>
	<g>
		
			<linearGradient id="SVGID_21_" gradientUnits="userSpaceOnUse" x1="2285.8796" y1="186.8803" x2="2379.4792" y2="186.8803" gradientTransform="matrix(0.8747 0.4846 0.4846 -0.8747 -502.6033 -35.0461)">
			<stop  offset="6.700000e-02" style="stop-color:#FA8105"/>
			<stop  offset="0.3877" style="stop-color:#FA8406"/>
			<stop  offset="0.6109" style="stop-color:#FA8D0A"/>
			<stop  offset="0.8045" style="stop-color:#FA9C10"/>
			<stop  offset="0.9803" style="stop-color:#FAB218"/>
			<stop  offset="1" style="stop-color:#FAB519"/>
		</linearGradient>
		<path class="st49" d="M1637.8,907.7c0,0-9.3-14.8-31.3-15.5c-22.1-0.8-28.9,50.5-16.3,59.7c12.6,9.2,24.6,6.9,29.4,9.8
			s16.2,10.1,27.4,9.9c11.3-0.2,44.1-35.9,25.6-55.4C1660.9,903.8,1637.8,907.7,1637.8,907.7z"/>
		
			<linearGradient id="SVGID_22_" gradientUnits="userSpaceOnUse" x1="2327.7444" y1="220.2137" x2="2334.8022" y2="220.2137" gradientTransform="matrix(0.8747 0.4846 0.4846 -0.8747 -502.6033 -35.0461)">
			<stop  offset="6.700000e-02" style="stop-color:#FA8105"/>
			<stop  offset="0.3877" style="stop-color:#FA8406"/>
			<stop  offset="0.6109" style="stop-color:#FA8D0A"/>
			<stop  offset="0.8045" style="stop-color:#FA9C10"/>
			<stop  offset="0.9803" style="stop-color:#FAB218"/>
			<stop  offset="1" style="stop-color:#FAB519"/>
		</linearGradient>
		<path class="st50" d="M1648.9,894.3c0,0-12.4,10.9-12.7,13.8c-0.3,2.8,3.6,3,5.4,1.9c1.7-1.2,6.8-10.4,7.9-11.7
			C1650.7,896.9,1650.2,893.1,1648.9,894.3z"/>
		
			<linearGradient id="SVGID_23_" gradientUnits="userSpaceOnUse" x1="2310.6438" y1="182.6582" x2="2359.5686" y2="182.6582" gradientTransform="matrix(0.8747 0.4846 0.4846 -0.8747 -502.6033 -35.0461)">
			<stop  offset="0" style="stop-color:#F99D19"/>
			<stop  offset="1" style="stop-color:#FAB519"/>
		</linearGradient>
		<path class="st51" d="M1622.9,967.3l-9.2-3.3c-9.1-3.2-13.8-13.3-10.6-22.3l8.8-24.8c3.2-9.1,13.3-13.8,22.3-10.6l9.2,3.3
			c9.1,3.2,13.8,13.3,10.6,22.3l-8.8,24.8C1642,965.7,1632,970.5,1622.9,967.3z"/>
	</g>
	<g>
		
			<linearGradient id="SVGID_24_" gradientUnits="userSpaceOnUse" x1="304.083" y1="1016.4449" x2="420.764" y2="1016.4449" gradientTransform="matrix(0.9863 0.1648 0.1648 -0.9863 1193.6705 1878.4685)">
			<stop  offset="6.700000e-02" style="stop-color:#FA8105"/>
			<stop  offset="0.3877" style="stop-color:#FA8406"/>
			<stop  offset="0.6109" style="stop-color:#FA8D0A"/>
			<stop  offset="0.8045" style="stop-color:#FA9C10"/>
			<stop  offset="0.9803" style="stop-color:#FAB218"/>
			<stop  offset="1" style="stop-color:#FAB519"/>
		</linearGradient>
		<path class="st52" d="M1719.7,903.3c0,0-17-13.5-43.3-5.2c-26.3,8.3-13,71.4,5.7,76.9c18.7,5.5,31.8-2.1,38.7-0.7
			c6.9,1.4,23.2,5.1,36.3,0.2s36.8-60.5,7.1-75.7C1745.2,889.1,1719.7,903.3,1719.7,903.3z"/>
		
			<linearGradient id="SVGID_25_" gradientUnits="userSpaceOnUse" x1="356.3778" y1="1058.0016" x2="365.1808" y2="1058.0016" gradientTransform="matrix(0.9863 0.1648 0.1648 -0.9863 1193.6705 1878.4685)">
			<stop  offset="6.700000e-02" style="stop-color:#FA8105"/>
			<stop  offset="0.3877" style="stop-color:#FA8406"/>
			<stop  offset="0.6109" style="stop-color:#FA8D0A"/>
			<stop  offset="0.8045" style="stop-color:#FA9C10"/>
			<stop  offset="0.9803" style="stop-color:#FAB218"/>
			<stop  offset="1" style="stop-color:#FAB519"/>
		</linearGradient>
		<path class="st53" d="M1727.1,882.9c0,0-10,18-9.2,21.4c0.9,3.5,5.5,2.1,7.1,0c1.6-2.1,3.6-15,4.4-17.1
			C1730.3,885.2,1728.2,881,1727.1,882.9z"/>
		
			<linearGradient id="SVGID_26_" gradientUnits="userSpaceOnUse" x1="335.0653" y1="1011.1867" x2="396.0629" y2="1011.1867" gradientTransform="matrix(0.9863 0.1648 0.1648 -0.9863 1193.6705 1878.4685)">
			<stop  offset="0" style="stop-color:#F99D19"/>
			<stop  offset="1" style="stop-color:#FAB519"/>
		</linearGradient>
		<path class="st54" d="M1727,979.6h-12.2c-12,0-21.8-9.8-21.8-21.8V925c0-12,9.8-21.8,21.8-21.8h12.2c12,0,21.8,9.8,21.8,21.8v32.8
			C1748.8,969.8,1738.9,979.6,1727,979.6z"/>
	</g>
</g>
</svg>
