<?xml version="1.0" encoding="utf-8"?>
<!-- Generator: Adobe Illustrator 25.0.0, SVG Export Plug-In . SVG Version: 6.00 Build 0)  -->
<svg version="1.1" id="Слой_1" xmlns="http://www.w3.org/2000/svg" xmlns:xlink="http://www.w3.org/1999/xlink" x="0px" y="0px"
	 viewBox="0 0 1654.16 249.66" style="enable-background:new 0 0 1654.16 249.66;" xml:space="preserve">
<style type="text/css">
	.st0{fill:#FFFFFF;stroke:#574246;stroke-width:0.25;stroke-miterlimit:10;}
	.st1{fill:#FFFFFF;stroke:#574246;stroke-width:0.25;stroke-miterlimit:9.9998;}
	.st2{fill:#FFD13D;stroke:#574246;stroke-width:0.25;stroke-miterlimit:10;}
	.st3{fill:#FFFFFF;stroke:#574246;stroke-width:0.25;stroke-miterlimit:9.9995;}
	.st4{fill:#FFFFFF;stroke:#574246;stroke-width:0.25;stroke-miterlimit:9.9999;}
	.st5{fill:#FFFFFF;stroke:#574246;stroke-width:0.25;stroke-miterlimit:10.0001;}
	.st6{fill:#FFFFFF;stroke:#574246;stroke-width:0.25;stroke-miterlimit:10.0002;}
	.st7{fill:#FFFFFF;stroke:#574246;stroke-width:0.25;stroke-miterlimit:9.9996;}
	.st8{fill:#FFFFFF;stroke:#574246;stroke-width:0.25;stroke-miterlimit:9.9997;}
	.st9{fill:#FFFFFF;stroke:#574246;stroke-width:0.25;stroke-miterlimit:9.9994;}
	.st10{fill:#FFFFFF;stroke:#574246;stroke-width:0.25;stroke-miterlimit:10.0005;}
</style>
<g id="Слой_1_1_">
</g>
<g id="Слой_2_1_">
</g>
<g id="Слой_3">
</g>
<g id="фон">
</g>
<g id="_x31__1_">
</g>
<g id="Слой_1_2_">
</g>
<g id="Слой_2_2_">
</g>
<g id="Слой_3_1_">
</g>
<g>
	<ellipse class="st0" cx="96.53" cy="62.38" rx="3.5" ry="4"/>
	<ellipse class="st0" cx="96.53" cy="70.38" rx="3.5" ry="4"/>
	<ellipse class="st0" cx="92.53" cy="65.38" rx="4.5" ry="4"/>
	<ellipse transform="matrix(0.866 -0.5 0.5 0.866 -18.2719 59.5728)" class="st1" cx="102.03" cy="63.88" rx="3" ry="2.5"/>
	<ellipse transform="matrix(0.61 -0.7924 0.7924 0.61 -14.5893 107.1172)" class="st0" cx="101.53" cy="68.38" rx="3" ry="3.5"/>
	<circle class="st2" cx="97.53" cy="65.88" r="2.5"/>
</g>
<g>
	<ellipse class="st0" cx="66.47" cy="92.39" rx="1.33" ry="2"/>
	
		<ellipse transform="matrix(0.3133 -0.9496 0.9496 0.3133 -40.1211 125.6415)" class="st3" cx="66.82" cy="90.56" rx="1.31" ry="2.07"/>
	<ellipse transform="matrix(0.8146 -0.58 0.58 0.8146 -41.4913 53.6255)" class="st4" cx="63.14" cy="91.72" rx="2.66" ry="2"/>
	<ellipse transform="matrix(0.1749 -0.9846 0.9846 0.1749 -35.585 135.6516)" class="st5" cx="63.14" cy="89.06" rx="1.33" ry="2"/>
	
		<ellipse transform="matrix(0.9602 -0.2794 0.2794 0.9602 -22.0825 21.8706)" class="st6" cx="65.68" cy="88.4" rx="1.69" ry="2.06"/>
	<circle class="st2" cx="65.14" cy="90.39" r="1.33"/>
</g>
<g>
	<ellipse class="st0" cx="136.5" cy="125.94" rx="3.5" ry="4"/>
	<ellipse class="st0" cx="136.5" cy="133.94" rx="3.5" ry="4"/>
	<ellipse class="st0" cx="132.5" cy="128.94" rx="4.5" ry="4"/>
	<ellipse transform="matrix(0.866 -0.5 0.5 0.866 -44.6965 88.075)" class="st1" cx="142" cy="127.44" rx="3" ry="2.5"/>
	<ellipse transform="matrix(0.61 -0.7924 0.7924 0.61 -49.3617 163.5815)" class="st0" cx="141.5" cy="131.94" rx="3" ry="3.5"/>
	<circle class="st2" cx="137.5" cy="129.44" r="2.5"/>
</g>
<g>
	<ellipse class="st0" cx="128" cy="92.44" rx="1" ry="1.5"/>
	
		<ellipse transform="matrix(0.3133 -0.9496 0.9496 0.3133 1.5908 184.3306)" class="st3" cx="128.26" cy="91.07" rx="0.99" ry="1.55"/>
	<ellipse transform="matrix(0.8146 -0.58 0.58 0.8146 -30.0567 89.8346)" class="st4" cx="125.5" cy="91.93" rx="2" ry="1.5"/>
	<ellipse transform="matrix(0.1749 -0.9846 0.9846 0.1749 15.0008 197.7732)" class="st5" cx="125.5" cy="89.94" rx="1" ry="1.5"/>
	
		<ellipse transform="matrix(0.9602 -0.2794 0.2794 0.9602 -19.9156 39.1592)" class="st6" cx="127.41" cy="89.44" rx="1.27" ry="1.55"/>
	<circle class="st2" cx="127" cy="90.94" r="1"/>
</g>
<g>
	<ellipse transform="matrix(0.866 -0.5 0.5 0.866 -26.4682 136.302)" class="st1" cx="241.1" cy="117.54" rx="4.86" ry="4.26"/>
	<ellipse transform="matrix(0.866 -0.5 0.5 0.866 -22.9105 139.8631)" class="st1" cx="249.52" cy="112.68" rx="4.86" ry="4.26"/>
	<ellipse transform="matrix(0.866 -0.5 0.5 0.866 -26.9142 139.4178)" class="st1" cx="246.69" cy="119.93" rx="4.86" ry="5.47"/>
	<ellipse transform="matrix(0.5 -0.866 0.866 0.5 23.6767 262.6996)" class="st1" cx="239.35" cy="110.84" rx="3.04" ry="3.65"/>
	
		<ellipse transform="matrix(0.1321 -0.9912 0.9912 0.1321 104.4123 336.5284)" class="st7" cx="244.38" cy="108.64" rx="4.26" ry="3.65"/>
	<circle class="st2" cx="244.19" cy="114.36" r="3.04"/>
</g>
<g>
	<ellipse class="st0" cx="170.23" cy="70.46" rx="1" ry="1.5"/>
	
		<ellipse transform="matrix(0.3133 -0.9496 0.9496 0.3133 51.4485 209.3456)" class="st3" cx="170.48" cy="69.1" rx="0.99" ry="1.55"/>
	<ellipse transform="matrix(0.8146 -0.58 0.58 0.8146 -9.4783 110.2486)" class="st4" cx="167.72" cy="69.95" rx="2" ry="1.5"/>
	<ellipse transform="matrix(0.1749 -0.9846 0.9846 0.1749 71.4774 221.2013)" class="st5" cx="167.72" cy="67.95" rx="1" ry="1.5"/>
	
		<ellipse transform="matrix(0.9602 -0.2794 0.2794 0.9602 -12.0964 50.0815)" class="st6" cx="169.63" cy="67.47" rx="1.27" ry="1.55"/>
	<circle class="st2" cx="169.23" cy="68.96" r="1"/>
</g>
<g>
	<ellipse transform="matrix(0.7263 -0.6874 0.6874 0.7263 22.5584 119.122)" class="st6" cx="160.86" cy="31.23" rx="3.5" ry="4"/>
	<ellipse transform="matrix(0.7263 -0.6874 0.6874 0.7263 25.0462 113.7516)" class="st6" cx="155.36" cy="25.43" rx="3.5" ry="4"/>
	<ellipse transform="matrix(0.7263 -0.6874 0.6874 0.7263 26.1751 118.3504)" class="st6" cx="161.7" cy="26.31" rx="4.5" ry="4"/>
	<ellipse transform="matrix(0.2853 -0.9584 0.9584 0.2853 78.8385 173.6061)" class="st7" cx="155.83" cy="33.94" rx="3" ry="2.5"/>
	<ellipse transform="matrix(0.9948 -0.1016 0.1016 0.9948 -2.2882 15.7119)" class="st8" cx="153.1" cy="30.32" rx="3.5" ry="3"/>
	<circle class="st2" cx="157.73" cy="29.38" r="2.5"/>
</g>
<g>
	<ellipse class="st0" cx="212.23" cy="34.92" rx="1.58" ry="2.37"/>
	
		<ellipse transform="matrix(0.3133 -0.9496 0.9496 0.3133 114.9013 224.4274)" class="st3" cx="212.64" cy="32.76" rx="1.56" ry="2.45"/>
	<ellipse transform="matrix(0.8146 -0.58 0.58 0.8146 18.8184 127.1246)" class="st4" cx="208.27" cy="34.12" rx="3.16" ry="2.37"/>
	
		<ellipse transform="matrix(0.1749 -0.9846 0.9846 0.1749 141.3491 230.6127)" class="st5" cx="208.27" cy="30.97" rx="1.58" ry="2.37"/>
	
		<ellipse transform="matrix(0.9602 -0.2794 0.2794 0.9602 -0.0216 60.2375)" class="st6" cx="211.3" cy="30.19" rx="2.01" ry="2.45"/>
	<circle class="st2" cx="210.65" cy="32.55" r="1.58"/>
</g>
<g>
	
		<ellipse transform="matrix(0.0784 -0.9969 0.9969 0.0784 65.6984 293.9248)" class="st1" cx="191.82" cy="111.43" rx="2.98" ry="2.61"/>
	
		<ellipse transform="matrix(0.0784 -0.9969 0.9969 0.0784 72.0375 288.9219)" class="st1" cx="192.29" cy="105.5" rx="2.98" ry="2.61"/>
	
		<ellipse transform="matrix(0.0784 -0.9969 0.9969 0.0784 70.5723 295.2177)" class="st1" cx="194.96" cy="109.44" rx="2.98" ry="3.35"/>
	
		<ellipse transform="matrix(0.9026 -0.4305 0.4305 0.9026 -29.0609 91.5755)" class="st5" cx="187.83" cy="110.01" rx="2.23" ry="1.86"/>
	
		<ellipse transform="matrix(0.6703 -0.7421 0.7421 0.6703 -17.0288 175.0353)" class="st5" cx="188.47" cy="106.68" rx="2.23" ry="2.61"/>
	<circle class="st2" cx="191.29" cy="108.77" r="1.86"/>
</g>
<g>
	<ellipse class="st0" cx="236.52" cy="78.68" rx="1.42" ry="2.12"/>
	
		<ellipse transform="matrix(0.3133 -0.9496 0.9496 0.3133 89.7757 277.6626)" class="st3" cx="236.88" cy="76.75" rx="1.4" ry="2.2"/>
	<ellipse transform="matrix(0.8146 -0.58 0.58 0.8146 -2.0279 149.5775)" class="st4" cx="232.97" cy="77.96" rx="2.83" ry="2.12"/>
	
		<ellipse transform="matrix(0.1749 -0.9846 0.9846 0.1749 118.2467 291.3722)" class="st5" cx="232.97" cy="75.13" rx="1.42" ry="2.12"/>
	
		<ellipse transform="matrix(0.9602 -0.2794 0.2794 0.9602 -11.4141 68.8138)" class="st6" cx="235.69" cy="74.45" rx="1.8" ry="2.2"/>
	<circle class="st2" cx="235.1" cy="76.56" r="1.42"/>
</g>
<g>
	<ellipse class="st0" cx="290.21" cy="131.29" rx="3.5" ry="4"/>
	<ellipse class="st0" cx="290.21" cy="139.29" rx="3.5" ry="4"/>
	<ellipse class="st0" cx="286.21" cy="134.29" rx="4.5" ry="4"/>
	<ellipse transform="matrix(0.866 -0.5 0.5 0.866 -26.7781 165.6446)" class="st1" cx="295.7" cy="132.79" rx="3" ry="2.5"/>
	<ellipse transform="matrix(0.61 -0.7924 0.7924 0.61 6.344 287.4584)" class="st0" cx="295.2" cy="137.28" rx="3" ry="3.5"/>
	<circle class="st2" cx="291.21" cy="134.79" r="2.5"/>
</g>
<g>
	<ellipse class="st0" cx="254.65" cy="221.43" rx="1.91" ry="2.86"/>
	
		<ellipse transform="matrix(0.3133 -0.9496 0.9496 0.3133 -32.5988 392.5571)" class="st3" cx="255.14" cy="218.82" rx="1.88" ry="2.96"/>
	
		<ellipse transform="matrix(0.8146 -0.58 0.58 0.8146 -81.5429 185.8064)" class="st4" cx="249.89" cy="220.46" rx="3.81" ry="2.86"/>
	
		<ellipse transform="matrix(0.1749 -0.9846 0.9846 0.1749 -7.1319 424.7892)" class="st5" cx="249.88" cy="216.65" rx="1.91" ry="2.86"/>
	
		<ellipse transform="matrix(0.9602 -0.2794 0.2794 0.9602 -50.1783 79.4231)" class="st6" cx="253.52" cy="215.73" rx="2.42" ry="2.96"/>
	<circle class="st2" cx="252.75" cy="218.57" r="1.91"/>
</g>
<g>
	<ellipse transform="matrix(0.866 -0.5 0.5 0.866 -0.3922 154.1426)" class="st1" cx="287.43" cy="77.8" rx="2.86" ry="1.91"/>
	
		<ellipse transform="matrix(0.9791 -0.2035 0.2035 0.9791 -10.0484 59.6277)" class="st6" cx="284.93" cy="78.68" rx="1.88" ry="2.96"/>
	
		<ellipse transform="matrix(0.4155 -0.9096 0.9096 0.4155 93.9611 311.0374)" class="st5" cx="289" cy="82.41" rx="2.86" ry="3.81"/>
	
		<ellipse transform="matrix(0.9401 -0.3408 0.3408 0.9401 -11.6312 102.4142)" class="st8" cx="285.69" cy="84.31" rx="1.91" ry="2.86"/>
	
		<ellipse transform="matrix(0.6918 -0.7221 0.7221 0.6918 28.2772 229.5545)" class="st5" cx="283.05" cy="81.65" rx="2.96" ry="2.42"/>
	<circle class="st2" cx="285.92" cy="80.89" r="1.91"/>
</g>
<g>
	<ellipse class="st0" cx="224.21" cy="186.75" rx="4.66" ry="3.11"/>
	
		<ellipse transform="matrix(0.3133 -0.9496 0.9496 0.3133 -25.56 336.5422)" class="st3" cx="219.93" cy="185.95" rx="4.83" ry="3.07"/>
	
		<ellipse transform="matrix(0.8146 -0.58 0.58 0.8146 -71.5406 165.1967)" class="st4" cx="222.65" cy="194.51" rx="4.66" ry="6.21"/>
	
		<ellipse transform="matrix(0.1749 -0.9846 0.9846 0.1749 -12.9355 373.5883)" class="st5" cx="216.43" cy="194.51" rx="4.66" ry="3.11"/>
	
		<ellipse transform="matrix(0.9602 -0.2794 0.2794 0.9602 -44.1446 67.548)" class="st6" cx="214.88" cy="188.63" rx="4.82" ry="3.94"/>
	<circle class="st2" cx="219.55" cy="189.86" r="3.11"/>
</g>
<g>
	<ellipse class="st0" cx="223.62" cy="243.63" rx="1.91" ry="2.86"/>
	
		<ellipse transform="matrix(0.3133 -0.9496 0.9496 0.3133 -74.9876 378.3337)" class="st3" cx="224.11" cy="241.02" rx="1.88" ry="2.96"/>
	
		<ellipse transform="matrix(0.8146 -0.58 0.58 0.8146 -100.1718 171.9264)" class="st4" cx="218.86" cy="242.66" rx="3.81" ry="2.86"/>
	
		<ellipse transform="matrix(0.1749 -0.9846 0.9846 0.1749 -54.591 412.5585)" class="st5" cx="218.86" cy="238.85" rx="1.91" ry="2.86"/>
	
		<ellipse transform="matrix(0.9602 -0.2794 0.2794 0.9602 -57.6166 71.6369)" class="st6" cx="222.49" cy="237.93" rx="2.42" ry="2.96"/>
	<circle class="st2" cx="221.72" cy="240.77" r="1.91"/>
</g>
<g>
	
		<ellipse transform="matrix(0.0784 -0.9969 0.9969 0.0784 -118.1336 261.2561)" class="st1" cx="82.24" cy="194.52" rx="1.91" ry="2.86"/>
	
		<ellipse transform="matrix(0.3868 -0.9222 0.9222 0.3868 -129.8813 192.2969)" class="st9" cx="79.66" cy="193.81" rx="2.96" ry="1.88"/>
	
		<ellipse transform="matrix(0.8576 -0.5143 0.5143 0.8576 -90.9254 69.9827)" class="st4" cx="80.92" cy="199.2" rx="2.86" ry="3.81"/>
	
		<ellipse transform="matrix(0.2516 -0.9678 0.9678 0.2516 -134.7873 223.4843)" class="st8" cx="77.11" cy="198.9" rx="2.86" ry="1.91"/>
	
		<ellipse transform="matrix(0.9791 -0.2033 0.2033 0.9791 -38.0882 19.6171)" class="st1" cx="76.44" cy="195.2" rx="2.96" ry="2.42"/>
	<circle class="st2" cx="79.24" cy="196.2" r="1.91"/>
</g>
<g>
	<ellipse class="st0" cx="70.67" cy="133.82" rx="2.45" ry="3.67"/>
	
		<ellipse transform="matrix(0.3133 -0.9496 0.9496 0.3133 -74.9376 157.2997)" class="st3" cx="71.3" cy="130.47" rx="2.42" ry="3.8"/>
	<ellipse transform="matrix(0.8146 -0.58 0.58 0.8146 -64.9388 62.0219)" class="st4" cx="64.55" cy="132.59" rx="4.89" ry="3.67"/>
	
		<ellipse transform="matrix(0.1749 -0.9846 0.9846 0.1749 -72.4721 168.926)" class="st5" cx="64.55" cy="127.7" rx="2.45" ry="3.67"/>
	
		<ellipse transform="matrix(0.9602 -0.2794 0.2794 0.9602 -32.5847 24.3735)" class="st6" cx="69.21" cy="126.49" rx="3.11" ry="3.79"/>
	<circle class="st2" cx="68.22" cy="130.15" r="2.45"/>
</g>
<g>
	<ellipse transform="matrix(0.5 -0.866 0.866 0.5 -76.3192 78.2351)" class="st1" cx="29.59" cy="105.21" rx="2.12" ry="3.19"/>
	
		<ellipse transform="matrix(0.7462 -0.6658 0.6658 0.7462 -61.8124 44.4289)" class="st10" cx="27.36" cy="103.27" rx="3.3" ry="2.1"/>
	
		<ellipse transform="matrix(0.9955 -0.0949 0.0949 0.9955 -10.2537 2.9621)" class="st5" cx="26.02" cy="109.29" rx="3.19" ry="4.25"/>
	
		<ellipse transform="matrix(0.6438 -0.7652 0.7652 0.6438 -74.0347 55.2736)" class="st0" cx="22.35" cy="107.16" rx="3.19" ry="2.12"/>
	
		<ellipse transform="matrix(0.2381 -0.9712 0.9712 0.2381 -82.3024 101.3362)" class="st7" cx="23.44" cy="103.13" rx="2.7" ry="3.29"/>
	<circle class="st2" cx="25.78" cy="105.46" r="2.12"/>
</g>
<g>
	<ellipse transform="matrix(0.8146 -0.58 0.58 0.8146 -99.4491 39.6665)" class="st4" cx="12.33" cy="175.4" rx="2.4" ry="3.6"/>
	
		<ellipse transform="matrix(0.9553 -0.2955 0.2955 0.9553 -50.4426 10.9232)" class="st7" cx="10.92" cy="172.35" rx="3.73" ry="2.37"/>
	
		<ellipse transform="matrix(0.3273 -0.9449 0.9449 0.3273 -163.5936 126.0325)" class="st1" cx="6.72" cy="177.91" rx="4.8" ry="3.6"/>
	<ellipse transform="matrix(0.9035 -0.4285 0.4285 0.9035 -74.1799 18.4728)" class="st7" cx="3.94" cy="174" rx="3.6" ry="2.4"/>
	
		<ellipse transform="matrix(0.6201 -0.7845 0.7845 0.6201 -131.0013 70.1814)" class="st1" cx="6.97" cy="170.36" rx="3.05" ry="3.72"/>
	<circle class="st2" cx="8.27" cy="173.87" r="2.4"/>
</g>
<g>
	<g>
		<ellipse class="st0" cx="1392.61" cy="35.73" rx="3.5" ry="4"/>
		<ellipse class="st0" cx="1392.61" cy="43.73" rx="3.5" ry="4"/>
		<ellipse class="st0" cx="1388.61" cy="38.73" rx="4.5" ry="4"/>
		<ellipse transform="matrix(0.866 -0.5 0.5 0.866 168.699 704.0386)" class="st1" cx="1398.07" cy="37.23" rx="3" ry="2.5"/>
		<ellipse transform="matrix(0.61 -0.7924 0.7924 0.61 512.0065 1123.6963)" class="st0" cx="1397.57" cy="41.7" rx="3" ry="3.5"/>
		<circle class="st2" cx="1393.61" cy="39.23" r="2.5"/>
	</g>
	<g>
		<ellipse class="st0" cx="1353.55" cy="55.73" rx="1.33" ry="2"/>
		
			<ellipse transform="matrix(0.3133 -0.9496 0.9496 0.3133 878.4151 1322.75)" class="st3" cx="1353.86" cy="53.97" rx="1.31" ry="2.07"/>
		<ellipse transform="matrix(0.8146 -0.58 0.58 0.8146 218.3952 793.3025)" class="st4" cx="1350.16" cy="55.02" rx="2.66" ry="2"/>
		
			<ellipse transform="matrix(0.1749 -0.9846 0.9846 0.1749 1062.4521 1372.5646)" class="st5" cx="1350.16" cy="52.38" rx="1.33" ry="2"/>
		
			<ellipse transform="matrix(0.9602 -0.2794 0.2794 0.9602 39.3964 380.0313)" class="st6" cx="1352.82" cy="51.82" rx="1.69" ry="2.06"/>
		<circle class="st2" cx="1352.22" cy="53.74" r="1.33"/>
	</g>
	<g>
		<ellipse class="st0" cx="1614.58" cy="145.29" rx="3.5" ry="4"/>
		<ellipse class="st0" cx="1614.58" cy="153.29" rx="3.5" ry="4"/>
		<ellipse class="st0" cx="1610.58" cy="148.29" rx="4.5" ry="4"/>
		<ellipse transform="matrix(0.866 -0.5 0.5 0.866 143.6584 829.7036)" class="st1" cx="1620.04" cy="146.79" rx="3" ry="2.5"/>
		
			<ellipse transform="matrix(0.61 -0.7924 0.7924 0.61 511.7659 1342.3124)" class="st0" cx="1619.54" cy="151.25" rx="3" ry="3.5"/>
		<circle class="st2" cx="1615.58" cy="148.79" r="2.5"/>
	</g>
	<g>
		<ellipse class="st0" cx="1428.08" cy="50.79" rx="1" ry="1.5"/>
		
			<ellipse transform="matrix(0.3133 -0.9496 0.9496 0.3133 933.7902 1390.355)" class="st3" cx="1428.29" cy="49.49" rx="0.99" ry="1.55"/>
		<ellipse transform="matrix(0.8146 -0.58 0.58 0.8146 235.14 836.1243)" class="st4" cx="1425.52" cy="50.23" rx="2" ry="1.5"/>
		
			<ellipse transform="matrix(0.1749 -0.9846 0.9846 0.1749 1128.687 1443.3595)" class="st5" cx="1425.52" cy="48.25" rx="1" ry="1.5"/>
		
			<ellipse transform="matrix(0.9602 -0.2794 0.2794 0.9602 43.4767 400.7506)" class="st6" cx="1427.54" cy="47.86" rx="1.27" ry="1.55"/>
		<circle class="st2" cx="1427.08" cy="49.29" r="1"/>
	</g>
	<g>
		<ellipse transform="matrix(0.866 -0.5 0.5 0.866 165.4019 751.0525)" class="st1" cx="1484.15" cy="66.89" rx="4.86" ry="4.26"/>
		<ellipse transform="matrix(0.866 -0.5 0.5 0.866 168.9594 754.6127)" class="st1" cx="1492.57" cy="62.03" rx="4.86" ry="4.26"/>
		<ellipse transform="matrix(0.866 -0.5 0.5 0.866 164.9559 754.1682)" class="st1" cx="1489.74" cy="69.28" rx="4.86" ry="5.47"/>
		<ellipse transform="matrix(0.5 -0.866 0.866 0.5 689.0299 1313.923)" class="st1" cx="1482.42" cy="60.24" rx="3.04" ry="3.65"/>
		
			<ellipse transform="matrix(0.1321 -0.9912 0.9912 0.1321 1233.4274 1524.7826)" class="st7" cx="1487.45" cy="58.03" rx="4.26" ry="3.65"/>
		<circle class="st2" cx="1487.27" cy="63.71" r="3.04"/>
	</g>
	<g>
		<ellipse class="st0" cx="1432.3" cy="59.81" rx="1" ry="1.5"/>
		
			<ellipse transform="matrix(0.3133 -0.9496 0.9496 0.3133 928.1283 1400.5649)" class="st3" cx="1432.52" cy="58.51" rx="0.99" ry="1.55"/>
		<ellipse transform="matrix(0.8146 -0.58 0.58 0.8146 230.6889 840.243)" class="st4" cx="1429.74" cy="59.26" rx="2" ry="1.5"/>
		
			<ellipse transform="matrix(0.1749 -0.9846 0.9846 0.1749 1123.2787 1454.9597)" class="st5" cx="1429.73" cy="57.28" rx="1" ry="1.5"/>
		
			<ellipse transform="matrix(0.9602 -0.2794 0.2794 0.9602 41.1227 402.2922)" class="st6" cx="1431.77" cy="56.89" rx="1.27" ry="1.55"/>
		<circle class="st2" cx="1431.3" cy="58.31" r="1"/>
	</g>
	<g>
		
			<ellipse transform="matrix(0.7263 -0.6874 0.6874 0.7263 388.2275 1012.0401)" class="st6" cx="1464.92" cy="18.53" rx="3.5" ry="4"/>
		
			<ellipse transform="matrix(0.7263 -0.6874 0.6874 0.7263 390.7153 1006.6698)" class="st6" cx="1459.42" cy="12.72" rx="3.5" ry="4"/>
		
			<ellipse transform="matrix(0.7263 -0.6874 0.6874 0.7263 391.8442 1011.2685)" class="st6" cx="1465.76" cy="13.6" rx="4.5" ry="4"/>
		
			<ellipse transform="matrix(0.2853 -0.9584 0.9584 0.2853 1022.9094 1414.4337)" class="st7" cx="1459.87" cy="21.33" rx="3" ry="2.5"/>
		
			<ellipse transform="matrix(0.9948 -0.1016 0.1016 0.9948 5.7483 148.1402)" class="st8" cx="1457.14" cy="17.64" rx="3.5" ry="3"/>
		<circle class="st2" cx="1461.8" cy="16.73" r="2.5"/>
	</g>
	<g>
		<ellipse class="st0" cx="1507.31" cy="21.27" rx="1.58" ry="2.37"/>
		
			<ellipse transform="matrix(0.3133 -0.9496 0.9496 0.3133 1017.0886 1444.9255)" class="st3" cx="1507.67" cy="19.17" rx="1.56" ry="2.45"/>
		
			<ellipse transform="matrix(0.8146 -0.58 0.58 0.8146 266.8486 875.7057)" class="st4" cx="1503.29" cy="20.42" rx="3.16" ry="2.37"/>
		
			<ellipse transform="matrix(0.1749 -0.9846 0.9846 0.1749 1223.3429 1494.3789)" class="st5" cx="1503.29" cy="17.29" rx="1.58" ry="2.37"/>
		
			<ellipse transform="matrix(0.9602 -0.2794 0.2794 0.9602 55.3495 421.5491)" class="st6" cx="1506.43" cy="16.61" rx="2.01" ry="2.45"/>
		<circle class="st2" cx="1505.73" cy="18.9" r="1.58"/>
	</g>
	<g>
		
			<ellipse transform="matrix(0.0784 -0.9969 0.9969 0.0784 1326.5157 1598.563)" class="st1" cx="1527.87" cy="81.81" rx="2.98" ry="2.61"/>
		
			<ellipse transform="matrix(0.0784 -0.9969 0.9969 0.0784 1332.8656 1593.5516)" class="st1" cx="1528.33" cy="75.87" rx="2.98" ry="2.61"/>
		
			<ellipse transform="matrix(0.0784 -0.9969 0.9969 0.0784 1331.4004 1599.8474)" class="st1" cx="1531" cy="79.81" rx="2.98" ry="3.35"/>
		
			<ellipse transform="matrix(0.9026 -0.4305 0.4305 0.9026 113.8267 663.8898)" class="st5" cx="1523.95" cy="80.41" rx="2.23" ry="1.86"/>
		
			<ellipse transform="matrix(0.6703 -0.7421 0.7421 0.6703 445.4865 1156.7633)" class="st5" cx="1524.56" cy="77.03" rx="2.23" ry="2.61"/>
		<circle class="st2" cx="1527.37" cy="79.12" r="1.86"/>
	</g>
	<g>
		<ellipse class="st0" cx="1532.6" cy="46.03" rx="1.42" ry="2.12"/>
		
			<ellipse transform="matrix(0.3133 -0.9496 0.9496 0.3133 1010.6928 1486.0645)" class="st3" cx="1532.92" cy="44.16" rx="1.4" ry="2.2"/>
		
			<ellipse transform="matrix(0.8146 -0.58 0.58 0.8146 257.2073 895.2158)" class="st4" cx="1528.99" cy="45.26" rx="2.83" ry="2.12"/>
		
			<ellipse transform="matrix(0.1749 -0.9846 0.9846 0.1749 1219.7717 1540.4462)" class="st5" cx="1528.99" cy="42.45" rx="1.42" ry="2.12"/>
		
			<ellipse transform="matrix(0.9602 -0.2794 0.2794 0.9602 49.3043 429.6458)" class="st6" cx="1531.81" cy="41.87" rx="1.8" ry="2.2"/>
		<circle class="st2" cx="1531.18" cy="43.91" r="1.42"/>
	</g>
	<g>
		<ellipse class="st0" cx="1601.29" cy="105.64" rx="3.5" ry="4"/>
		<ellipse class="st0" cx="1601.29" cy="113.64" rx="3.5" ry="4"/>
		<ellipse class="st0" cx="1597.29" cy="108.64" rx="4.5" ry="4"/>
		<ellipse transform="matrix(0.866 -0.5 0.5 0.866 161.7026 817.7444)" class="st1" cx="1606.74" cy="107.14" rx="3" ry="2.5"/>
		<ellipse transform="matrix(0.61 -0.7924 0.7924 0.61 537.9976 1316.3131)" class="st0" cx="1606.24" cy="111.6" rx="3" ry="3.5"/>
		<circle class="st2" cx="1602.29" cy="109.14" r="2.5"/>
	</g>
	<g>
		<ellipse class="st0" cx="1649.73" cy="163.78" rx="1.91" ry="2.86"/>
		
			<ellipse transform="matrix(0.3133 -0.9496 0.9496 0.3133 980.0205 1677.8011)" class="st3" cx="1650.17" cy="161.24" rx="1.88" ry="2.96"/>
		
			<ellipse transform="matrix(0.8146 -0.58 0.58 0.8146 210.5417 984.2244)" class="st4" cx="1644.89" cy="162.76" rx="3.81" ry="2.86"/>
		
			<ellipse transform="matrix(0.1749 -0.9846 0.9846 0.1749 1200.6792 1750.7109)" class="st5" cx="1644.89" cy="158.98" rx="1.91" ry="2.86"/>
		
			<ellipse transform="matrix(0.9602 -0.2794 0.2794 0.9602 21.4665 466.9211)" class="st6" cx="1648.65" cy="158.16" rx="2.42" ry="2.96"/>
		<circle class="st2" cx="1647.82" cy="160.92" r="1.91"/>
	</g>
	<g>
		<ellipse transform="matrix(0.866 -0.5 0.5 0.866 180.6505 804.4841)" class="st1" cx="1591.47" cy="65.15" rx="2.86" ry="1.91"/>
		
			<ellipse transform="matrix(0.9791 -0.2035 0.2035 0.9791 19.8219 324.7412)" class="st6" cx="1589.03" cy="65.98" rx="1.88" ry="2.96"/>
		
			<ellipse transform="matrix(0.4155 -0.9096 0.9096 0.4155 867.7119 1489.7867)" class="st5" cx="1593.05" cy="69.73" rx="2.86" ry="3.81"/>
		
			<ellipse transform="matrix(0.9401 -0.3408 0.3408 0.9401 70.7578 546.0806)" class="st8" cx="1589.71" cy="71.64" rx="1.91" ry="2.86"/>
		
			<ellipse transform="matrix(0.6918 -0.7221 0.7221 0.6918 439.3481 1167.3214)" class="st5" cx="1587.13" cy="68.99" rx="2.96" ry="2.42"/>
		<circle class="st2" cx="1590" cy="68.24" r="1.91"/>
	</g>
	<g>
		<ellipse class="st0" cx="1460.29" cy="78.1" rx="4.66" ry="3.11"/>
		
			<ellipse transform="matrix(0.3133 -0.9496 0.9496 0.3133 926.3298 1435.7708)" class="st3" cx="1455.96" cy="77.35" rx="4.83" ry="3.07"/>
		
			<ellipse transform="matrix(0.8146 -0.58 0.58 0.8146 220.6486 861.9459)" class="st4" cx="1458.67" cy="85.81" rx="4.66" ry="6.21"/>
		
			<ellipse transform="matrix(0.1749 -0.9846 0.9846 0.1749 1113.9081 1500.8843)" class="st5" cx="1452.45" cy="85.83" rx="4.66" ry="3.11"/>
		
			<ellipse transform="matrix(0.9602 -0.2794 0.2794 0.9602 35.4226 408.5889)" class="st6" cx="1451.01" cy="80.03" rx="4.82" ry="3.94"/>
		<circle class="st2" cx="1455.63" cy="81.21" r="3.11"/>
	</g>
	<g>
		<ellipse class="st0" cx="1420.7" cy="196.98" rx="1.91" ry="2.86"/>
		
			<ellipse transform="matrix(0.3133 -0.9496 0.9496 0.3133 791.2347 1483.0999)" class="st3" cx="1421.14" cy="194.43" rx="1.88" ry="2.96"/>
		
			<ellipse transform="matrix(0.8146 -0.58 0.58 0.8146 148.8233 857.5479)" class="st4" cx="1415.87" cy="195.97" rx="3.81" ry="2.86"/>
		
			<ellipse transform="matrix(0.1749 -0.9846 0.9846 0.1749 979.0225 1552.6198)" class="st5" cx="1415.87" cy="192.18" rx="1.91" ry="2.86"/>
		
			<ellipse transform="matrix(0.9602 -0.2794 0.2794 0.9602 3.0734 404.2529)" class="st6" cx="1419.62" cy="191.35" rx="2.42" ry="2.96"/>
		<circle class="st2" cx="1418.79" cy="194.12" r="1.91"/>
	</g>
	<g>
		
			<ellipse transform="matrix(0.0784 -0.9969 0.9969 0.0784 1357.8409 1640.6265)" class="st1" cx="1566.28" cy="85.9" rx="1.91" ry="2.86"/>
		
			<ellipse transform="matrix(0.3868 -0.9222 0.9222 0.3868 880.2077 1494.2155)" class="st9" cx="1563.68" cy="85.24" rx="2.96" ry="1.88"/>
		
			<ellipse transform="matrix(0.8576 -0.5143 0.5143 0.8576 176.2805 817.7638)" class="st4" cx="1564.97" cy="90.53" rx="2.86" ry="3.81"/>
		
			<ellipse transform="matrix(0.2516 -0.9678 0.9678 0.2516 1080.9681 1578.5128)" class="st8" cx="1561.16" cy="90.3" rx="2.86" ry="1.91"/>
		
			<ellipse transform="matrix(0.9791 -0.2033 0.2033 0.9791 14.9973 319.0597)" class="st1" cx="1560.49" cy="86.53" rx="2.96" ry="2.42"/>
		<circle class="st2" cx="1563.32" cy="87.55" r="1.91"/>
	</g>
	<g>
		<ellipse class="st0" cx="1390.74" cy="89.17" rx="2.45" ry="3.67"/>
		
			<ellipse transform="matrix(0.3133 -0.9496 0.9496 0.3133 873.8542 1380.2537)" class="st3" cx="1391.34" cy="85.88" rx="2.42" ry="3.8"/>
		
			<ellipse transform="matrix(0.8146 -0.58 0.58 0.8146 205.7059 819.355)" class="st4" cx="1384.57" cy="87.89" rx="4.89" ry="3.67"/>
		
			<ellipse transform="matrix(0.1749 -0.9846 0.9846 0.1749 1060.6692 1431.7277)" class="st5" cx="1384.57" cy="83.02" rx="2.45" ry="3.67"/>
		
			<ellipse transform="matrix(0.9602 -0.2794 0.2794 0.9602 32.4458 391.435)" class="st6" cx="1389.34" cy="81.9" rx="3.11" ry="3.79"/>
		<circle class="st2" cx="1388.3" cy="85.5" r="2.45"/>
	</g>
	<g>
		<ellipse transform="matrix(0.5 -0.866 0.866 0.5 585.2311 1192.8569)" class="st1" cx="1325.68" cy="89.6" rx="2.12" ry="3.19"/>
		
			<ellipse transform="matrix(0.7462 -0.6658 0.6658 0.7462 277.6591 903.347)" class="st10" cx="1323.47" cy="87.55" rx="3.3" ry="2.1"/>
		
			<ellipse transform="matrix(0.9955 -0.0949 0.0949 0.9955 -2.9246 125.8905)" class="st5" cx="1322.12" cy="93.69" rx="3.19" ry="4.25"/>
		
			<ellipse transform="matrix(0.6438 -0.7652 0.7652 0.6438 399.609 1041.4478)" class="st0" cx="1318.42" cy="91.5" rx="3.19" ry="2.12"/>
		
			<ellipse transform="matrix(0.2381 -0.9712 0.9712 0.2381 920.3391 1348.3055)" class="st7" cx="1319.56" cy="87.54" rx="2.7" ry="3.29"/>
		<circle class="st2" cx="1321.85" cy="89.81" r="2.12"/>
	</g>
	<g>
		
			<ellipse transform="matrix(0.8146 -0.58 0.58 0.8146 184.5015 810.6396)" class="st4" cx="1360.33" cy="116.7" rx="2.4" ry="3.6"/>
		
			<ellipse transform="matrix(0.9553 -0.2955 0.2955 0.9553 27.0901 406.6608)" class="st7" cx="1358.94" cy="113.71" rx="3.73" ry="2.37"/>
		
			<ellipse transform="matrix(0.3273 -0.9449 0.9449 0.3273 798.6431 1360.4514)" class="st1" cx="1354.82" cy="119.31" rx="4.8" ry="3.6"/>
		
			<ellipse transform="matrix(0.9035 -0.4285 0.4285 0.9035 80.9885 590.4643)" class="st7" cx="1351.96" cy="115.35" rx="3.6" ry="2.4"/>
		
			<ellipse transform="matrix(0.6201 -0.7845 0.7845 0.6201 427.1039 1105.4723)" class="st1" cx="1355.02" cy="111.73" rx="3.05" ry="3.72"/>
		<circle class="st2" cx="1356.35" cy="115.22" r="2.4"/>
	</g>
</g>
<g id="_x31__2_">
</g>
<g id="все_1_">
</g>
<g id="Слой_7">
</g>
</svg>
