<?xml version="1.0" encoding="utf-8"?>
<!-- Generator: Adobe Illustrator 25.0.0, SVG Export Plug-In . SVG Version: 6.00 Build 0)  -->
<svg version="1.1" xmlns="http://www.w3.org/2000/svg" xmlns:xlink="http://www.w3.org/1999/xlink" x="0px" y="0px"
	 viewBox="0 0 305.79 117.74" style="enable-background:new 0 0 305.79 117.74;" xml:space="preserve">
<style type="text/css">
	.st0{fill:url(#SVGID_1_);}
	.st1{fill:#ECF0D9;}
	.st2{fill:#DEE3B4;}
	.st3{fill:#E3E7BF;}
	.st4{fill:#CCD58F;}
	.st5{fill:#B3C150;}
	.st6{fill:#A3AF4E;}
	.st7{fill:#979E41;}
	.st8{fill:url(#SVGID_2_);}
	.st9{fill:url(#SVGID_3_);}
	.st10{fill:url(#SVGID_4_);}
	.st11{fill:url(#SVGID_5_);}
	.st12{fill:url(#SVGID_6_);}
	.st13{fill:url(#SVGID_7_);}
	.st14{fill:url(#SVGID_8_);}
	.st15{fill:url(#SVGID_9_);}
	.st16{fill:url(#SVGID_10_);}
	.st17{fill:url(#SVGID_11_);}
	.st18{fill:#FFF2DB;}
	.st19{fill:#A79B9C;}
	.st20{fill:#FFD13D;}
	.st21{fill:#2C3A64;}
	.st22{fill:#F67047;}
	.st23{fill:#DAE578;}
	.st24{fill:#FFF3DB;}
	.st25{fill:#FCE8C5;}
	.st26{fill:url(#SVGID_12_);}
	.st27{fill:url(#SVGID_13_);}
	.st28{fill:url(#SVGID_14_);}
	.st29{fill:url(#SVGID_15_);}
	.st30{fill:url(#SVGID_16_);}
	.st31{fill:url(#SVGID_17_);}
	.st32{fill:url(#SVGID_18_);}
	.st33{fill:url(#SVGID_19_);}
	.st34{fill:url(#SVGID_20_);}
	.st35{fill:#574246;}
	.st36{fill:#645053;}
	.st37{fill:#4A373A;}
	.st38{fill:#FEE6B9;stroke:#574246;stroke-width:0.5;stroke-miterlimit:10;}
	.st39{fill:#C4BBBC;stroke:#574246;stroke-width:0.5;stroke-miterlimit:10;}
	.st40{fill:#8C7E7F;stroke:#574246;stroke-width:0.5;stroke-miterlimit:10;}
	.st41{fill:#A79B9C;stroke:#574246;stroke-width:0.5;stroke-miterlimit:10;}
	.st42{fill:#FECE74;stroke:#574246;stroke-width:0.5;stroke-miterlimit:10;}
	.st43{fill:#9E8E86;stroke:#574246;stroke-width:0.5;stroke-miterlimit:10;}
	.st44{fill:#E6CCBD;stroke:#574246;stroke-width:0.5;stroke-miterlimit:10;}
	.st45{fill:#FEC251;stroke:#574246;stroke-width:0.5;stroke-miterlimit:10;}
	.st46{fill:#FEF2DB;stroke:#574246;stroke-width:0.5;stroke-miterlimit:10;}
	.st47{fill:#286489;stroke:#574246;stroke-width:0.5;stroke-miterlimit:10;}
	.st48{fill:#F3ECD6;stroke:#574246;stroke-width:0.5;stroke-miterlimit:10;}
	.st49{fill:#FEF2DC;stroke:#574246;stroke-width:0.5;stroke-miterlimit:10;}
	.st50{fill:#574246;stroke:#574246;stroke-width:0.5;stroke-miterlimit:10;}
	.st51{fill:#725F62;stroke:#574246;stroke-width:0.5;stroke-miterlimit:10;}
	.st52{fill:#645053;stroke:#574246;stroke-width:0.5;stroke-miterlimit:10;}
	.st53{fill:#FFFFFF;}
	.st54{fill:#010001;}
	.st55{fill:#272727;}
	.st56{fill:#C5C5C5;}
	.st57{fill:#DCDCDC;stroke:#574246;stroke-width:0.5;stroke-miterlimit:10;}
	.st58{fill:#C5C5C5;stroke:#574246;stroke-width:0.5;stroke-miterlimit:10;}
	.st59{fill:#FBFBFB;stroke:#574246;stroke-width:0.5;stroke-miterlimit:10;}
	.st60{fill:#3B2E2F;}
	.st61{fill:#FDB723;stroke:#574246;stroke-width:0.5;stroke-miterlimit:10;}
	.st62{fill:#F59F24;stroke:#574246;stroke-width:0.5;stroke-miterlimit:10;}
	.st63{fill:#286489;}
	.st64{opacity:0.22;fill:#A3A1AD;}
	.st65{fill:#C92103;stroke:#574246;stroke-width:0.5;stroke-miterlimit:10;}
	.st66{fill:#584446;}
	.st67{fill:#FFB81C;}
	.st68{fill:#FDB723;}
	.st69{fill:#725F62;}
	.st70{fill:#A3AF4E;stroke:#574246;stroke-width:0.15;stroke-miterlimit:10;}
	.st71{fill:#E23333;}
	.st72{fill:#F56F47;}
	.st73{fill:url(#SVGID_21_);stroke:#574246;stroke-width:0.5;stroke-miterlimit:10;}
	.st74{fill:url(#SVGID_22_);stroke:#574246;stroke-width:0.5;stroke-miterlimit:10;}
	.st75{fill:url(#SVGID_23_);stroke:#574246;stroke-width:0.5;stroke-miterlimit:10;}
	.st76{fill:#AC345A;}
	.st77{fill:#CE4762;}
	.st78{fill:url(#SVGID_24_);stroke:#574246;stroke-width:0.5;stroke-miterlimit:10;}
	.st79{fill:url(#SVGID_25_);stroke:#574246;stroke-width:0.5;stroke-miterlimit:10;}
	.st80{fill:url(#SVGID_26_);stroke:#574246;stroke-width:0.5;stroke-miterlimit:10;}
	.st81{fill:url(#SVGID_27_);stroke:#574246;stroke-width:0.5;stroke-miterlimit:10;}
	.st82{fill:url(#SVGID_28_);stroke:#574246;stroke-width:0.5;stroke-miterlimit:10;}
	.st83{fill:url(#SVGID_29_);stroke:#574246;stroke-width:0.5;stroke-miterlimit:10;}
	.st84{fill:url(#SVGID_30_);stroke:#574246;stroke-width:0.5;stroke-miterlimit:10;}
	.st85{fill:url(#SVGID_31_);stroke:#574246;stroke-width:0.5;stroke-miterlimit:10;}
	.st86{fill:url(#SVGID_32_);stroke:#574246;stroke-width:0.5;stroke-miterlimit:10;}
	.st87{fill:url(#SVGID_33_);stroke:#574246;stroke-width:0.5;stroke-miterlimit:10;}
	.st88{fill:url(#SVGID_34_);stroke:#574246;stroke-width:0.5;stroke-miterlimit:10;}
	.st89{fill:url(#SVGID_35_);stroke:#574246;stroke-width:0.5;stroke-miterlimit:10;}
	.st90{fill:url(#SVGID_36_);stroke:#574246;stroke-width:0.5;stroke-miterlimit:10;}
	.st91{fill:url(#SVGID_37_);stroke:#574246;stroke-width:0.5;stroke-miterlimit:10;}
	.st92{fill:url(#SVGID_38_);stroke:#574246;stroke-width:0.5;stroke-miterlimit:10;}
	.st93{fill:url(#SVGID_39_);stroke:#574246;stroke-width:0.5;stroke-miterlimit:10;}
	.st94{fill:url(#SVGID_40_);stroke:#574246;stroke-width:0.5;stroke-miterlimit:10;}
	.st95{fill:url(#SVGID_41_);stroke:#574246;stroke-width:0.5;stroke-miterlimit:10;}
	.st96{fill:url(#SVGID_42_);stroke:#574246;stroke-width:0.5;stroke-miterlimit:10;}
	.st97{fill:url(#SVGID_43_);stroke:#574246;stroke-width:0.5;stroke-miterlimit:10;}
	.st98{fill:url(#SVGID_44_);stroke:#574246;stroke-width:0.5;stroke-miterlimit:10;}
	.st99{fill:url(#SVGID_45_);stroke:#574246;stroke-width:0.5;stroke-miterlimit:10;}
	.st100{fill:url(#SVGID_46_);stroke:#574246;stroke-width:0.5;stroke-miterlimit:10;}
	.st101{fill:url(#SVGID_47_);stroke:#574246;stroke-width:0.5;stroke-miterlimit:10;}
	.st102{fill:url(#SVGID_48_);stroke:#574246;stroke-width:0.5;stroke-miterlimit:10;}
	.st103{fill:url(#SVGID_49_);stroke:#574246;stroke-width:0.5;stroke-miterlimit:10;}
	.st104{fill:url(#SVGID_50_);stroke:#574246;stroke-width:0.5;stroke-miterlimit:10;}
	.st105{fill:url(#SVGID_51_);stroke:#574246;stroke-width:0.5;stroke-miterlimit:10;}
	.st106{fill:url(#SVGID_52_);stroke:#574246;stroke-width:0.5;stroke-miterlimit:10;}
	.st107{fill:url(#SVGID_53_);stroke:#574246;stroke-width:0.5;stroke-miterlimit:10;}
	.st108{fill:url(#SVGID_54_);stroke:#574246;stroke-width:0.5;stroke-miterlimit:10;}
	.st109{fill:url(#SVGID_55_);stroke:#574246;stroke-width:0.5;stroke-miterlimit:10;}
	.st110{fill:url(#SVGID_56_);stroke:#574246;stroke-width:0.5;stroke-miterlimit:10;}
	.st111{fill:url(#SVGID_57_);stroke:#574246;stroke-width:0.5;stroke-miterlimit:10;}
	.st112{fill:url(#SVGID_58_);stroke:#574246;stroke-width:0.5;stroke-miterlimit:10;}
	.st113{fill:url(#SVGID_59_);stroke:#574246;stroke-width:0.5;stroke-miterlimit:10;}
	.st114{fill:url(#SVGID_60_);stroke:#574246;stroke-width:0.5;stroke-miterlimit:10;}
	.st115{fill:url(#SVGID_61_);stroke:#574246;stroke-width:0.5;stroke-miterlimit:10;}
	.st116{fill:url(#SVGID_62_);stroke:#574246;stroke-width:0.5;stroke-miterlimit:10;}
	.st117{fill:#EE7E21;stroke:#574246;stroke-width:0.5;stroke-miterlimit:10;}
	.st118{fill:#B3C150;stroke:#574246;stroke-width:0.5;stroke-miterlimit:10;}
	.st119{fill:#E2E891;stroke:#574246;stroke-width:0.5;stroke-miterlimit:10;}
	.st120{fill:#B2C052;stroke:#574246;stroke-width:0.5;stroke-miterlimit:10;}
	.st121{fill:#979E41;stroke:#574246;stroke-width:0.5;stroke-miterlimit:10;}
	.st122{fill:#FFF2DB;stroke:#574246;stroke-width:0.5;stroke-miterlimit:10;}
	.st123{fill:url(#SVGID_63_);stroke:#574246;stroke-width:0.5;stroke-miterlimit:10;}
	.st124{fill:url(#SVGID_64_);stroke:#574246;stroke-width:0.5;stroke-miterlimit:10;}
	.st125{fill:url(#SVGID_65_);stroke:#574246;stroke-width:0.5;stroke-miterlimit:10;}
	.st126{fill:url(#SVGID_66_);stroke:#574246;stroke-width:0.5;stroke-miterlimit:10;}
	.st127{fill:url(#SVGID_67_);stroke:#574246;stroke-width:0.5;stroke-miterlimit:10;}
	.st128{fill:url(#SVGID_68_);stroke:#574246;stroke-width:0.5;stroke-miterlimit:10;}
	.st129{fill:#C18E4C;stroke:#574246;stroke-width:0.5;stroke-miterlimit:10;}
	.st130{fill:url(#SVGID_69_);stroke:#574246;stroke-width:0.5;stroke-miterlimit:10;}
	.st131{fill:url(#SVGID_70_);stroke:#574246;stroke-width:0.5;stroke-miterlimit:10;}
	.st132{fill:url(#SVGID_71_);stroke:#574246;stroke-width:0.5;stroke-miterlimit:10;}
	.st133{fill:#AC345A;stroke:#574246;stroke-width:0.5;stroke-miterlimit:10;}
	.st134{fill:#FECE74;}
	.st135{fill:#A3AF4E;stroke:#574246;stroke-width:0.5;stroke-miterlimit:10;}
	.st136{fill:url(#SVGID_72_);stroke:#574246;stroke-width:0.5;stroke-miterlimit:10;}
	.st137{fill:url(#SVGID_73_);stroke:#574246;stroke-width:0.5;stroke-miterlimit:10;}
	.st138{fill:url(#SVGID_74_);stroke:#574246;stroke-width:0.5;stroke-miterlimit:10;}
	.st139{fill:url(#SVGID_75_);stroke:#574246;stroke-width:0.5;stroke-miterlimit:10;}
	.st140{fill:url(#SVGID_76_);stroke:#574246;stroke-width:0.5;stroke-miterlimit:10;}
	.st141{fill:url(#SVGID_77_);stroke:#574246;stroke-width:0.5;stroke-miterlimit:10;}
	.st142{fill:url(#SVGID_78_);stroke:#574246;stroke-width:0.5;stroke-miterlimit:10;}
	.st143{fill:url(#SVGID_79_);stroke:#574246;stroke-width:0.5;stroke-miterlimit:10;}
	.st144{fill:url(#SVGID_80_);stroke:#574246;stroke-width:0.5;stroke-miterlimit:10;}
	.st145{fill:url(#SVGID_81_);stroke:#574246;stroke-width:0.5;stroke-miterlimit:10;}
	.st146{fill:url(#SVGID_82_);stroke:#574246;stroke-width:0.5;stroke-miterlimit:10;}
	.st147{fill:#FC1D1D;}
	.st148{fill:#FFD13D;stroke:#574246;stroke-width:0.5;stroke-miterlimit:10;}
	.st149{fill:url(#SVGID_83_);stroke:#574246;stroke-width:0.5;stroke-miterlimit:10;}
	.st150{fill:url(#SVGID_84_);stroke:#574246;stroke-width:0.5;stroke-miterlimit:10;}
	.st151{fill:#554145;}
	.st152{opacity:0.19;}
	.st153{fill:#644F52;}
	.st154{fill:#644F52;stroke:#574246;stroke-width:0;stroke-miterlimit:10;}
	.st155{fill:#F67047;stroke:#574246;stroke-width:0.5;stroke-miterlimit:10;}
	.st156{fill:#FF8C6B;stroke:#574246;stroke-width:0.5;stroke-miterlimit:10;}
	.st157{fill:#FCB384;stroke:#574246;stroke-width:0.5;stroke-miterlimit:10;}
	.st158{fill:#935B31;stroke:#574246;stroke-width:0.5;stroke-miterlimit:10;}
	.st159{fill:#7C4721;}
	.st160{fill:#5F3714;}
	.st161{fill:#482C10;}
	.st162{fill:#FF8C6B;}
	.st163{fill:#8F1805;}
	.st164{fill:#F99D0B;stroke:#574246;stroke-width:0.5;stroke-miterlimit:10;}
	.st165{fill:#8F1701;}
	.st166{fill:#1E597B;}
	.st167{fill:#F99D0B;}
	.st168{fill:#4A373A;stroke:#574246;stroke-width:0.5;stroke-miterlimit:10;}
	.st169{fill:none;stroke:#574246;stroke-width:0.5;stroke-miterlimit:10;}
	.st170{fill:#8D9799;stroke:#574246;stroke-width:0.5;stroke-miterlimit:10;}
	.st171{fill:#838B8D;}
	.st172{fill:#848C8D;stroke:#574246;stroke-width:0.5;stroke-miterlimit:10;}
	.st173{fill:#8C9798;}
	.st174{fill:#EE7E21;}
	.st175{fill:url(#SVGID_85_);}
	.st176{fill:url(#SVGID_86_);}
	.st177{fill:url(#SVGID_87_);}
	.st178{fill:#FDB186;stroke:#574246;stroke-width:0.5;stroke-miterlimit:10;}
	.st179{fill:#896139;stroke:#574246;stroke-width:0.5;stroke-miterlimit:10;}
	.st180{fill:#AF744B;}
	.st181{fill:#838B8D;stroke:#574246;stroke-width:0.5;stroke-miterlimit:10;}
	.st182{fill:url(#SVGID_88_);}
	.st183{fill:url(#SVGID_89_);}
	.st184{fill:url(#SVGID_90_);}
	.st185{fill:url(#SVGID_91_);}
	.st186{fill:url(#SVGID_92_);}
	.st187{fill:url(#SVGID_93_);}
	.st188{fill:url(#SVGID_94_);}
	.st189{fill:url(#SVGID_95_);}
	.st190{fill:url(#SVGID_96_);}
	.st191{fill:url(#SVGID_97_);}
	.st192{fill:url(#SVGID_98_);}
	.st193{fill:url(#SVGID_99_);}
	.st194{fill:url(#SVGID_100_);}
	.st195{fill:url(#SVGID_101_);}
	.st196{fill:url(#SVGID_102_);}
	.st197{fill:url(#SVGID_103_);}
	.st198{fill:url(#SVGID_104_);}
	.st199{fill:url(#SVGID_105_);}
	.st200{fill:url(#SVGID_106_);}
	.st201{fill:url(#SVGID_107_);}
	.st202{fill:url(#SVGID_108_);stroke:#574246;stroke-width:0.5;stroke-miterlimit:10;}
	.st203{fill:url(#SVGID_109_);stroke:#574246;stroke-width:0.5;stroke-miterlimit:10;}
	.st204{fill:url(#SVGID_110_);stroke:#574246;stroke-width:0.5;stroke-miterlimit:10;}
	.st205{fill:url(#SVGID_111_);stroke:#574246;stroke-width:0.5;stroke-miterlimit:10;}
	.st206{fill:url(#SVGID_112_);stroke:#574246;stroke-width:0.5;stroke-miterlimit:10;}
	.st207{fill:url(#SVGID_113_);stroke:#574246;stroke-width:0.5;stroke-miterlimit:10;}
	.st208{fill:url(#SVGID_114_);stroke:#574246;stroke-width:0.5;stroke-miterlimit:10;}
	.st209{fill:url(#SVGID_115_);stroke:#574246;stroke-width:0.5;stroke-miterlimit:10;}
	.st210{fill:url(#SVGID_116_);stroke:#574246;stroke-width:0.5;stroke-miterlimit:10;}
	.st211{fill:url(#SVGID_117_);stroke:#574246;stroke-width:0.5;stroke-miterlimit:10;}
	.st212{fill:url(#SVGID_118_);stroke:#574246;stroke-width:0.5;stroke-miterlimit:10;}
	.st213{fill:url(#SVGID_119_);stroke:#574246;stroke-width:0.5;stroke-miterlimit:10;}
	.st214{fill:url(#SVGID_120_);stroke:#574246;stroke-width:0.5;stroke-miterlimit:10;}
	.st215{fill:url(#SVGID_121_);stroke:#574246;stroke-width:0.5;stroke-miterlimit:10;}
	.st216{fill:url(#SVGID_122_);stroke:#574246;stroke-width:0.5;stroke-miterlimit:10;}
	.st217{fill:url(#SVGID_123_);stroke:#574246;stroke-width:0.5;stroke-miterlimit:10;}
	.st218{fill:url(#SVGID_124_);stroke:#574246;stroke-width:0.5;stroke-miterlimit:10;}
	.st219{fill:url(#SVGID_125_);stroke:#574246;stroke-width:0.5;stroke-miterlimit:10;}
	.st220{fill:url(#SVGID_126_);stroke:#574246;stroke-width:0.5;stroke-miterlimit:10;}
	.st221{fill:url(#SVGID_127_);stroke:#574246;stroke-width:0.5;stroke-miterlimit:10;}
	.st222{fill:url(#SVGID_128_);stroke:#574246;stroke-width:0.5;stroke-miterlimit:10;}
	.st223{fill:url(#SVGID_129_);stroke:#574246;stroke-width:0.5;stroke-miterlimit:10;}
	.st224{fill:url(#SVGID_130_);stroke:#574246;stroke-width:0.5;stroke-miterlimit:10;}
	.st225{fill:url(#SVGID_131_);stroke:#574246;stroke-width:0.5;stroke-miterlimit:10;}
	.st226{fill:url(#SVGID_132_);stroke:#574246;stroke-width:0.5;stroke-miterlimit:10;}
	.st227{fill:url(#SVGID_133_);stroke:#574246;stroke-width:0.5;stroke-miterlimit:10;}
	.st228{fill:url(#SVGID_134_);stroke:#574246;stroke-width:0.5;stroke-miterlimit:10;}
	.st229{fill:url(#SVGID_135_);stroke:#574246;stroke-width:0.5;stroke-miterlimit:10;}
	.st230{fill:url(#SVGID_136_);stroke:#574246;stroke-width:0.5;stroke-miterlimit:10;}
	.st231{fill:url(#SVGID_137_);stroke:#574246;stroke-width:0.5;stroke-miterlimit:10;}
	.st232{fill:url(#SVGID_138_);stroke:#574246;stroke-width:0.5;stroke-miterlimit:10;}
	.st233{fill:url(#SVGID_139_);stroke:#574246;stroke-width:0.5;stroke-miterlimit:10;}
	.st234{fill:url(#SVGID_140_);stroke:#574246;stroke-width:0.5;stroke-miterlimit:10;}
	.st235{fill:url(#SVGID_141_);stroke:#574246;stroke-width:0.5;stroke-miterlimit:10;}
	.st236{fill:url(#SVGID_142_);stroke:#574246;stroke-width:0.5;stroke-miterlimit:10;}
	.st237{fill:url(#SVGID_143_);stroke:#574246;stroke-width:0.5;stroke-miterlimit:10;}
	.st238{fill:url(#SVGID_144_);stroke:#574246;stroke-width:0.5;stroke-miterlimit:10;}
	.st239{fill:url(#SVGID_145_);stroke:#574246;stroke-width:0.5;stroke-miterlimit:10;}
	.st240{fill:url(#SVGID_146_);stroke:#574246;stroke-width:0.5;stroke-miterlimit:10;}
	.st241{fill:url(#SVGID_147_);stroke:#574246;stroke-width:0.5;stroke-miterlimit:10;}
	.st242{fill:url(#SVGID_148_);stroke:#574246;stroke-width:0.5;stroke-miterlimit:10;}
	.st243{fill:url(#SVGID_149_);stroke:#574246;stroke-width:0.5;stroke-miterlimit:10;}
	.st244{fill:url(#SVGID_150_);stroke:#574246;stroke-width:0.5;stroke-miterlimit:10;}
	.st245{fill:url(#SVGID_151_);stroke:#574246;stroke-width:0.5;stroke-miterlimit:10;}
	.st246{fill:url(#SVGID_152_);stroke:#574246;stroke-width:0.5;stroke-miterlimit:10;}
	.st247{fill:url(#SVGID_153_);stroke:#574246;stroke-width:0.5;stroke-miterlimit:10;}
	.st248{fill:url(#SVGID_154_);stroke:#574246;stroke-width:0.5;stroke-miterlimit:10;}
	.st249{fill:url(#SVGID_155_);stroke:#574246;stroke-width:0.5;stroke-miterlimit:10;}
	.st250{fill:url(#SVGID_156_);stroke:#574246;stroke-width:0.5;stroke-miterlimit:10;}
	.st251{fill:url(#SVGID_157_);stroke:#574246;stroke-width:0.5;stroke-miterlimit:10;}
	.st252{fill:url(#SVGID_158_);stroke:#574246;stroke-width:0.5;stroke-miterlimit:10;}
	.st253{fill:url(#SVGID_159_);stroke:#574246;stroke-width:0.5;stroke-miterlimit:10;}
	.st254{fill:url(#SVGID_160_);stroke:#574246;stroke-width:0.5;stroke-miterlimit:10;}
	.st255{fill:url(#SVGID_161_);stroke:#574246;stroke-width:0.5;stroke-miterlimit:10;}
	.st256{fill:url(#SVGID_162_);stroke:#574246;stroke-width:0.5;stroke-miterlimit:10;}
	.st257{fill:url(#SVGID_163_);stroke:#574246;stroke-width:0.5;stroke-miterlimit:10;}
	.st258{fill:url(#SVGID_164_);stroke:#574246;stroke-width:0.5;stroke-miterlimit:10;}
	.st259{fill:url(#SVGID_165_);stroke:#574246;stroke-width:0.5;stroke-miterlimit:10;}
	.st260{fill:url(#SVGID_166_);stroke:#574246;stroke-width:0.5;stroke-miterlimit:10;}
	.st261{fill:url(#SVGID_167_);stroke:#574246;stroke-width:0.5;stroke-miterlimit:10;}
	.st262{fill:url(#SVGID_168_);stroke:#574246;stroke-width:0.5;stroke-miterlimit:10;}
	.st263{fill:url(#SVGID_169_);stroke:#574246;stroke-width:0.5;stroke-miterlimit:10;}
	.st264{fill:url(#SVGID_170_);stroke:#574246;stroke-width:0.5;stroke-miterlimit:10;}
	.st265{fill:url(#SVGID_171_);stroke:#574246;stroke-width:0.5;stroke-miterlimit:10;}
	.st266{fill:url(#SVGID_172_);}
	.st267{fill:url(#SVGID_173_);}
	.st268{fill:url(#SVGID_174_);}
</style>
<g id="Слой_1">
</g>
<g id="Слой_2">
</g>
<g id="Слой_3">
</g>
<g id="фон">
</g>
<g id="_x31__1_">
</g>
<g id="все">
	<g>
		<g>
			<polygon class="st54" points="247.73,97.15 203.91,97.15 237.89,60.23 277.66,78.69 273.59,97.15 			"/>
			<path class="st54" d="M88.07,97.15H30.84l-3.39-28.31l56.61-7.38c0,0,11.16,16,11.12,17.23C95.13,79.92,88.07,97.15,88.07,97.15z
				"/>
			<path class="st42" d="M6.52,88.53c0,0,3.69-4.92,3.69-9.85s0-68.92,9.85-75.07s174.83-2.46,186.48,0
				c11.65,2.46,38.73,30.77,48.57,34.46c9.85,3.69,33.23,13.54,38.15,18.46s1.23,13.54,4.92,14.77s4.92,6.15,4.92,9.85
				c0,3.69-2.82,4.92-3.26,7.38c-0.44,2.46,0.8,7.38,0.8,7.38l-27.07,4.92c0,0,2.46-30.77-25.84-30.77
				c-29.54,0-25.84,33.23-25.84,33.23H87.75c0,0,4.92-32-23.38-33.23c-25.85-1.12-28.31,23.38-28.31,23.38L6.52,88.53z"/>
			<circle class="st55" cx="246.66" cy="96.38" r="20.92"/>
			<g>
				<circle class="st56" cx="246.66" cy="96.38" r="14.15"/>
				<path class="st54" d="M246.66,82.23c7.82,0,14.15,6.34,14.15,14.15s-6.34,14.15-14.15,14.15c-7.82,0-14.15-6.34-14.15-14.15
					S238.84,82.23,246.66,82.23 M246.66,81c-8.48,0-15.38,6.9-15.38,15.38s6.9,15.38,15.38,15.38c8.48,0,15.38-6.9,15.38-15.38
					S255.14,81,246.66,81L246.66,81z"/>
			</g>
			<circle class="st57" cx="246.66" cy="96.38" r="8.61"/>
			<circle class="st54" cx="246.66" cy="96.38" r="2.46"/>
			<circle class="st55" cx="61.95" cy="96.82" r="20.92"/>
			<g>
				<circle class="st58" cx="61.95" cy="96.82" r="14.15"/>
				<path class="st54" d="M61.95,82.67c7.82,0,14.15,6.34,14.15,14.15c0,7.82-6.34,14.15-14.15,14.15
					c-7.82,0-14.15-6.34-14.15-14.15C47.79,89.01,54.13,82.67,61.95,82.67 M61.95,81.44c-8.48,0-15.38,6.9-15.38,15.38
					s6.9,15.38,15.38,15.38s15.38-6.9,15.38-15.38S70.43,81.44,61.95,81.44L61.95,81.44z"/>
			</g>
			<circle class="st59" cx="61.95" cy="96.82" r="8.61"/>
			<circle class="st54" cx="61.95" cy="96.82" r="2.46"/>
			<path class="st57" d="M284.5,96.32c-1.72,0.29-5.31,0.79-7.05,0.93c-2.84,0.23-7.57,1.01-7.57,3.59c0,3.69,0.78,5.68,7.77,5.3
				c7-0.38,29-1.92,27.84-7.3C304.4,93.72,302.5,93.32,284.5,96.32z"/>
			<path class="st60" d="M270.1,44.19l-5.21-0.58c-0.46-0.05-11.31-1.3-19.78-6.36c-4.73-2.82-17.42-12.21-26.08-19.63
				c-8.73-7.48-8.83-11.38-8.83-11.54V5.02l0.92,0.53c0.09,0.05,8.78,5.05,18.56,13.61c7.05,6.17,17.34,13.92,20.82,15.93
				c9.33,5.4,14.61,7.32,14.67,7.34L270.1,44.19z M211.85,7.42c0.73,1.63,2.69,4.73,7.97,9.26c8.62,7.38,21.22,16.71,25.91,19.51
				c4.68,2.79,10.23,4.41,14.18,5.28c-2.46-1.17-5.83-2.9-10.03-5.33C246,33.9,235.4,25.79,228.87,20.08
				C221.44,13.58,214.65,9.15,211.85,7.42z"/>
			<path class="st61" d="M200.09,90.99h-90.55c-5.18,0-10.05-2.5-13.06-6.72l0,0c-0.57-0.79,0-1.89,0.97-1.89h114.72
				c0.97,0,1.54,1.1,0.97,1.89l0,0C210.14,88.49,205.28,90.99,200.09,90.99z"/>
			<path class="st38" d="M289.58,54.07c-0.08,0.24-277.98,0-277.98,0l-0.15-7.38c0,0,261.05-0.38,263.59,0
				C280.5,48.32,289.65,53.83,289.58,54.07z"/>
			<path class="st62" d="M241.81,60.23h-5.38c-0.55,0-1-0.45-1-1v-0.46c0-0.55,0.45-1,1-1h5.38c0.55,0,1,0.45,1,1v0.46
				C242.81,59.78,242.36,60.23,241.81,60.23z"/>
			<path class="st45" d="M228.68,39.38l-1.23,0.06c0.01,0.2,0.73,15.82,0.48,25.31c-0.07,2.66-0.76,5.25-2.02,7.59
				c-2.24,4.13-5.49,10.04-7.71,13.75c-3.69,6.15-11.08,10.31-16.83,10.31c-2.43,0-13.72,0-28.13,0V11.58l-1.23,3v81.79
				c-19.48,0-43.38,0-51.06,0c-13.56,0-20.89-0.46-25.77-6.74C90.3,83.35,82.6,78.69,82.6,78.69c8.39,11.08,5.15,24.61,5.15,24.61
				h83.26v0.62h42.75l0.17-0.34c0.02-0.05,0.08-0.15,0.14-0.28h7.82c0,0,0-2.46-0.22-6.48s2.44-11.18,2.44-11.18l2.39-7.32
				c1.48-3.42,1.85-5.78,2.17-7.29C229.88,65.27,228.73,40.43,228.68,39.38z"/>
			<g>
				<path class="st63" d="M226.28,42.67h-51.04c-1.7,0-3.07-1.38-3.07-3.07V12.52c0-1.7,1.38-3.07,3.07-3.07h6.68
					c11.88,0,23.26,4.72,31.66,13.11l14.87,14.87C230.39,39.36,229.01,42.67,226.28,42.67z"/>
				<path class="st37" d="M173.89,9.16c2.73-0.26,5.45-0.42,8.18-0.61c2.76,0.02,5.53,0.29,8.24,0.81
					c5.43,1.04,10.66,3.08,15.36,5.98c2.35,1.45,4.57,3.12,6.62,4.97c2.04,1.89,3.89,3.84,5.84,5.77l5.78,5.78
					c1.78,2.07,3.6,4.11,5.35,6.22c-2.1-1.75-4.14-3.57-6.22-5.35l-5.78-5.78c-1.93-1.91-3.84-3.91-5.8-5.72
					c-2-1.8-4.15-3.42-6.44-4.84c-4.57-2.83-9.67-4.81-14.95-5.82c-2.64-0.51-5.33-0.78-8.02-0.78
					C179.35,9.57,176.62,9.42,173.89,9.16z"/>
				<path class="st60" d="M181.92,9.45c11.88,0,23.26,4.72,31.66,13.11l14.87,14.87c1.94,1.94,0.56,5.25-2.17,5.25h-51.04
					c-1.7,0-3.07-1.38-3.07-3.07V12.52c0-1.7,1.38-3.07,3.07-3.07H181.92 M181.92,8.21h-6.68c-2.37,0-4.3,1.93-4.3,4.3V39.6
					c0,2.37,1.93,4.3,4.3,4.3h51.04c1.77,0,3.3-1.02,3.98-2.66c0.68-1.64,0.32-3.44-0.93-4.69l-14.87-14.87
					C205.76,13,194.21,8.21,181.92,8.21L181.92,8.21z"/>
				<path class="st64" d="M201.58,14.08l-29.54,24V16.62l8.87-7.46C180.91,9.16,195.43,9.16,201.58,14.08z"/>
				<polygon class="st64" points="197.88,40.94 217.75,25.94 227.52,35.71 218.81,42.38 195.15,42.78 				"/>
			</g>
			<path class="st42" d="M221.89,35.61c0,0-6.15,0-6.15,2.46s4.92,2.46,4.92,3.69c0,1.23,0,1.23,0,2.46c0,1.23,6.15,1.23,6.15,0
				c0-1.23,0-3.69,0-3.69S230.5,35.61,221.89,35.61z"/>
			<path class="st45" d="M10.22,78.69l0.03-5.37c0,0,4.89-2.01,11.05,4.14s22.4-0.12,22.4-0.12s-4.44,4.71-6.04,9.8
				c-0.74,2.35-1.16,4.18-1.16,6.18c-32,0-28.5-7.15-28.5-7.15S10.22,83.61,10.22,78.69z"/>
			<path class="st45" d="M265.58,76.84c0,0,5.15,1.33,8.84,8.05s11.3,3.14,12.02,0c1.05-4.58,4.21-5.59,8.77-5.59
				s6.84,1.23,6.84,1.23s1.89,1.75-0.56,4.78c-2.45,3.03-1,9-1,9s-7.02,0.77-15,2c-7.98,1.23-13.08,1.45-13.08,1.45
				S273.56,87.92,265.58,76.84z"/>
			<path class="st57" d="M294.5,84.84c-3.46,3.91-3.17,9.21-3.17,9.21l9.03-0.69l0.14-6.05C300.5,87.32,298.5,80.32,294.5,84.84z"/>
			<path class="st57" d="M280.96,52.84c0,0-8.61-1.23-6.15,3.69c2.46,4.92,8.58,12.87,12.91,13.2c4.32,0.33,9.11-1.07,8.56-2.83
				C295.73,65.15,296.96,56.54,280.96,52.84z"/>
			<path class="st65" d="M10.41,64.09h7.54c0,0,0.88-10.02-1.58-13.71c-2.46-3.69-5.31-2.64-5.31-2.64L10.41,64.09z"/>
			<path class="st61" d="M87.5,92.32c0,0,2.09,6.68,14.4,6.68s119.37,0,119.37,0l1.23,4.92H87.13
				C87.13,103.92,87.5,100.93,87.5,92.32z"/>
			<path class="st63" d="M210.52,5.57c0,0,0,3.69,8.61,11.08c8.61,7.38,21.34,16.79,26,19.57c8.46,5.04,19.54,6.27,19.54,6.27
				s-5.27-1.89-14.77-7.38c-3.68-2.13-14.14-10.06-20.92-16C219.13,10.49,210.52,5.57,210.52,5.57z"/>
			<polygon class="st64" points="223.94,20.91 228.22,17.67 239.07,26.68 235.21,29.64 			"/>
			<path class="st57" d="M7.75,86.12c0,0-8.61,1.18-7.38,7.33s2.86,7.96,12.51,7.06s14.72,4.02,19.57,4.02s14.69-9.85,1.16-12.31
				C20.06,89.76,6.5,88.32,7.75,86.12z"/>
			<path class="st62" d="M282.39,53.72c0,0-8.61-1.23-6.15,3.69C277.88,57.15,281.58,55.92,282.39,53.72z"/>
		</g>
		<g>
			<path class="st66" d="M60.46,14.21c-0.51,0.21-0.97,0.51-1.36,0.89c-0.39,0.38-0.7,0.82-0.91,1.32c-0.22,0.5-0.33,1.04-0.33,1.61
				c0,0.57,0.11,1.11,0.33,1.61c0.22,0.5,0.53,0.94,0.92,1.31c0.39,0.37,0.84,0.66,1.35,0.87c0.52,0.21,1.07,0.32,1.64,0.32h2.88
				c0.25,0,0.49,0.05,0.71,0.14c0.23,0.09,0.42,0.22,0.58,0.38c0.17,0.17,0.3,0.37,0.4,0.59c0.1,0.22,0.14,0.45,0.14,0.69
				c0,0.25-0.05,0.47-0.14,0.69c-0.1,0.22-0.22,0.41-0.39,0.57c-0.17,0.16-0.36,0.29-0.59,0.38c-0.23,0.09-0.46,0.14-0.71,0.14
				h-5.91c-0.66,0-1.2,0.52-1.2,1.17v0c0,0.64,0.54,1.17,1.2,1.17h5.91c0.57,0,1.12-0.11,1.64-0.32c0.51-0.21,0.97-0.51,1.36-0.89
				c0.39-0.38,0.7-0.82,0.91-1.32c0.22-0.5,0.33-1.04,0.33-1.59c0-0.57-0.11-1.11-0.33-1.61c-0.22-0.5-0.52-0.94-0.91-1.32
				c-0.39-0.38-0.85-0.68-1.36-0.89c-0.52-0.21-1.07-0.32-1.64-0.32H62.1c-0.25,0-0.49-0.05-0.71-0.14
				c-0.23-0.09-0.42-0.22-0.59-0.38c-0.17-0.16-0.29-0.35-0.39-0.57c-0.1-0.22-0.14-0.45-0.14-0.69c0-0.25,0.05-0.47,0.14-0.69
				c0.1-0.23,0.23-0.42,0.4-0.59c0.16-0.17,0.35-0.29,0.58-0.38c0.23-0.09,0.46-0.14,0.71-0.14h5.91c0.66,0,1.2-0.52,1.2-1.17v0
				c0-0.64-0.54-1.17-1.2-1.17H62.1C61.53,13.88,60.98,13.99,60.46,14.21z"/>
			<path class="st66" d="M124.1,28.06h0.78c0.9,0,1.62-0.71,1.62-1.57v-4.89c0-0.01,0-0.02,0-0.03c0.02-0.19,0.02-0.38,0.02-0.58
				c0-0.98-0.19-1.91-0.57-2.77c-0.38-0.85-0.91-1.61-1.57-2.26c-0.66-0.64-1.44-1.15-2.32-1.52c-0.89-0.37-1.84-0.56-2.85-0.56
				c-1.01,0-1.96,0.19-2.84,0.56c-0.87,0.37-1.65,0.88-2.31,1.52c-0.66,0.64-1.19,1.4-1.57,2.26c-0.38,0.86-0.57,1.79-0.57,2.77
				c0,0.98,0.19,1.9,0.57,2.76c0.38,0.85,0.9,1.6,1.57,2.24c0.66,0.64,1.44,1.15,2.31,1.52c0.88,0.37,1.83,0.56,2.84,0.56H124.1z
				 M119.22,25.7c-0.66,0-1.3-0.12-1.88-0.37c-0.59-0.25-1.11-0.59-1.55-1.02c-0.44-0.43-0.79-0.93-1.05-1.51
				c-0.25-0.57-0.38-1.18-0.38-1.82c0-0.65,0.13-1.26,0.38-1.84c0.26-0.58,0.61-1.09,1.05-1.51c0.44-0.43,0.96-0.77,1.55-1.02
				c0.58-0.25,1.21-0.37,1.88-0.37c0.66,0,1.3,0.12,1.89,0.37c0.6,0.25,1.12,0.59,1.56,1.02c0.44,0.43,0.79,0.94,1.05,1.52
				c0.25,0.57,0.38,1.19,0.38,1.84c0,0.64-0.13,1.26-0.38,1.83c-0.26,0.57-0.61,1.08-1.05,1.51c-0.44,0.43-0.96,0.77-1.56,1.02
				C120.52,25.58,119.88,25.7,119.22,25.7z"/>
			<path class="st66" d="M77.96,13.86c-3.98,0-7.23,3.18-7.39,7.14h-0.01v5.89c0,0.64,0.54,1.17,1.2,1.17h0.17
				c0.66,0,1.2-0.52,1.2-1.17V21.3c0-2.73,2.16-4.95,4.82-4.95c0.85,0,1.9,0.34,2.76,0.83c0.56,0.32,1.28,0.14,1.62-0.39l0.06-0.1
				c0.34-0.53,0.19-1.23-0.34-1.58C80.85,14.3,79.43,13.86,77.96,13.86z"/>
			<path class="st66" d="M92.63,19.29c-0.17,0.16-0.36,0.29-0.59,0.38c-0.23,0.09-0.46,0.14-0.71,0.14H87.3
				c-0.66,0-1.2,0.52-1.2,1.17v0c0,0.64,0.54,1.17,1.2,1.17h4.03c0.57,0,1.12-0.11,1.64-0.32c0.51-0.21,0.97-0.51,1.36-0.89
				c0.39-0.38,0.7-0.82,0.91-1.32c0.22-0.5,0.33-1.04,0.33-1.59c0-0.57-0.11-1.11-0.33-1.61c-0.22-0.5-0.52-0.94-0.91-1.32
				c-0.39-0.38-0.85-0.66-1.36-0.89c-1.24-0.55-4.12-0.82-6.5,0.23c-0.85,0.37-1.62,0.88-2.26,1.52c-0.64,0.64-1.16,1.4-1.53,2.25
				c-0.37,0.86-0.56,1.79-0.56,2.76c0,0.97,0.19,1.9,0.56,2.76c0.37,0.85,0.88,1.61,1.53,2.25c0.65,0.64,1.41,1.16,2.26,1.52
				c0.86,0.37,1.79,0.56,2.77,0.56h4.39c0.66,0,1.2-0.52,1.2-1.17v-0.02c0-0.64-0.54-1.17-1.2-1.17h-4.39
				c-0.65,0-1.26-0.12-1.82-0.37c-0.57-0.25-1.08-0.59-1.5-1.01c-0.42-0.43-0.77-0.94-1.01-1.52c-0.25-0.58-0.37-1.2-0.37-1.85
				c0-0.65,0.13-1.27,0.37-1.85c0.25-0.58,0.59-1.09,1.01-1.52c0.42-0.42,0.93-0.76,1.5-1.01h0c1.65-0.68,3.88-0.59,4.63-0.24
				c0.22,0.1,0.42,0.22,0.58,0.38c0.17,0.17,0.3,0.37,0.4,0.59c0.1,0.22,0.14,0.45,0.14,0.69c0,0.25-0.05,0.47-0.14,0.69
				C92.93,18.94,92.8,19.13,92.63,19.29z"/>
			<path class="st66" d="M109.66,8.46L109.66,8.46c-0.66,0-1.2,0.52-1.2,1.17v4.18c0,0-3.61-0.01-4.88-0.01
				c-1,0-1.96,0.19-2.85,0.56c-0.88,0.37-1.66,0.88-2.32,1.52c-0.66,0.64-1.19,1.4-1.57,2.26c-0.38,0.86-0.57,1.79-0.57,2.77
				c0,0.98,0.19,1.91,0.57,2.77c0.38,0.85,0.9,1.61,1.57,2.26c0.66,0.64,1.44,1.15,2.32,1.52c0.88,0.37,1.84,0.56,2.85,0.56
				c0.95,0,1.87-0.17,2.71-0.51c0.84-0.33,1.6-0.8,2.24-1.38c0.64-0.58,1.18-1.27,1.59-2.06c0.42-0.79,0.66-1.66,0.74-2.57l0-11.86
				C110.86,8.98,110.32,8.46,109.66,8.46z M107.99,22.83c-0.22,0.48-0.52,0.93-0.92,1.33c-0.98,1.01-2.31,1.5-3.63,1.47
				c-0.03,0-0.07,0-0.1,0c-2.57,0-4.65-2.02-4.65-4.52c0-0.02,0-0.05,0-0.07c-0.03-1.21,0.41-2.43,1.33-3.37
				c0.39-0.4,0.84-0.72,1.32-0.96c1.47-0.72,3.22-0.07,3.97,1.35c0.11,0.21,0.26,0.41,0.45,0.58s0.4,0.31,0.62,0.4
				C107.89,19.7,108.66,21.37,107.99,22.83z M108.29,17.8c-0.84,0.67-2.26,0.34-2.26,0.34s-0.04-1.41,0.8-2.08
				c0.84-0.67,2.26-0.34,2.26-0.34S109.14,17.13,108.29,17.8z"/>
			<g>
				<path class="st67" d="M107.99,22.83c-0.22,0.48-0.52,0.93-0.92,1.33c-0.98,1.01-2.31,1.5-3.63,1.47c-0.03,0-0.07,0-0.1,0
					c-2.57,0-4.65-2.02-4.65-4.52c0-0.02,0-0.05,0-0.07c-0.03-1.21,0.41-2.43,1.33-3.37c0.39-0.4,0.84-0.72,1.32-0.96
					c1.47-0.72,3.22-0.07,3.97,1.35c0.11,0.21,0.26,0.41,0.45,0.58s0.4,0.31,0.62,0.4C107.89,19.7,108.66,21.37,107.99,22.83z
					 M108.29,17.8c-0.84,0.67-2.26,0.34-2.26,0.34s-0.04-1.41,0.8-2.08c0.84-0.67,2.26-0.34,2.26-0.34S109.14,17.13,108.29,17.8z"/>
			</g>
		</g>
		<g>
			<path class="st66" d="M57.74,33.89h3.43v0.51h-1.43v3.78h-0.57v-3.78h-1.43V33.89z"/>
			<path class="st66" d="M62.12,33.89h1.59c0.52,0,0.9,0.11,1.14,0.32c0.24,0.21,0.36,0.5,0.36,0.86c0,0.18-0.05,0.35-0.14,0.51
				c-0.09,0.15-0.23,0.28-0.41,0.39c0.24,0.1,0.42,0.23,0.54,0.41c0.12,0.17,0.18,0.37,0.18,0.59c0,0.38-0.12,0.68-0.36,0.9
				s-0.62,0.33-1.14,0.33h-1.76V33.89z M62.68,34.41v1.33h1.02c0.34,0,0.57-0.06,0.71-0.18s0.21-0.28,0.21-0.49
				c0-0.21-0.07-0.37-0.21-0.48s-0.37-0.18-0.71-0.18H62.68z M62.68,36.25v1.42h1.19c0.34,0,0.57-0.06,0.71-0.18
				c0.14-0.12,0.21-0.3,0.21-0.53c0-0.23-0.07-0.4-0.21-0.52c-0.14-0.12-0.38-0.18-0.71-0.18H62.68z"/>
			<path class="st66" d="M68.21,38.24c-0.29,0-0.54-0.05-0.78-0.14c-0.23-0.09-0.43-0.22-0.6-0.39c-0.17-0.17-0.29-0.38-0.38-0.63
				c-0.09-0.25-0.13-0.53-0.13-0.85v-0.38c0-0.31,0.05-0.6,0.14-0.84c0.09-0.25,0.22-0.46,0.38-0.63s0.36-0.31,0.59-0.4
				c0.23-0.09,0.49-0.14,0.78-0.14c0.29,0,0.54,0.05,0.78,0.14c0.23,0.09,0.43,0.22,0.6,0.39c0.17,0.17,0.29,0.38,0.38,0.64
				c0.09,0.25,0.13,0.53,0.13,0.85v0.38c0,0.31-0.05,0.6-0.14,0.84c-0.09,0.25-0.22,0.46-0.38,0.63c-0.16,0.17-0.36,0.31-0.6,0.4
				C68.75,38.2,68.49,38.24,68.21,38.24z M68.21,37.71c0.39,0,0.7-0.13,0.94-0.38c0.24-0.25,0.36-0.62,0.36-1.1v-0.38
				c0-0.47-0.12-0.84-0.36-1.1c-0.24-0.26-0.56-0.39-0.94-0.39c-0.39,0-0.7,0.13-0.94,0.38c-0.24,0.25-0.36,0.62-0.36,1.1v0.38
				c0,0.47,0.12,0.84,0.36,1.1C67.51,37.58,67.83,37.71,68.21,37.71z"/>
			<path class="st66" d="M71.04,35.24c0-0.42,0.14-0.75,0.41-0.99c0.27-0.24,0.72-0.36,1.35-0.36h1.42v4.29h-0.57v-1.6H72.8
				c-0.07,0-0.15,0-0.21,0c-0.07,0-0.13-0.01-0.2-0.02l-0.87,1.61h-0.65l0.96-1.73c-0.28-0.1-0.48-0.26-0.6-0.46
				S71.04,35.53,71.04,35.24z M71.62,35.24c0,0.27,0.09,0.47,0.26,0.62c0.17,0.14,0.48,0.21,0.92,0.21h0.85v-1.67H72.8
				c-0.44,0-0.75,0.07-0.92,0.21C71.71,34.77,71.62,34.97,71.62,35.24z"/>
			<path class="st66" d="M79.45,38.24c-0.29,0-0.54-0.05-0.78-0.14c-0.23-0.09-0.43-0.22-0.6-0.39c-0.17-0.17-0.29-0.38-0.38-0.63
				c-0.09-0.25-0.13-0.53-0.13-0.85v-0.38c0-0.31,0.05-0.6,0.14-0.84c0.09-0.25,0.22-0.46,0.38-0.63s0.36-0.31,0.59-0.4
				c0.23-0.09,0.49-0.14,0.78-0.14c0.29,0,0.54,0.05,0.78,0.14c0.23,0.09,0.43,0.22,0.6,0.39c0.17,0.17,0.29,0.38,0.38,0.64
				c0.09,0.25,0.13,0.53,0.13,0.85v0.38c0,0.31-0.05,0.6-0.14,0.84c-0.09,0.25-0.22,0.46-0.38,0.63c-0.16,0.17-0.36,0.31-0.6,0.4
				C79.98,38.2,79.73,38.24,79.45,38.24z M79.45,37.71c0.39,0,0.7-0.13,0.94-0.38c0.24-0.25,0.36-0.62,0.36-1.1v-0.38
				c0-0.47-0.12-0.84-0.36-1.1c-0.24-0.26-0.56-0.39-0.94-0.39c-0.39,0-0.7,0.13-0.94,0.38c-0.24,0.25-0.36,0.62-0.36,1.1v0.38
				c0,0.47,0.12,0.84,0.36,1.1C78.75,37.58,79.06,37.71,79.45,37.71z"/>
			<path class="st66" d="M85.49,36.25H83.1v1.93h-0.57v-4.29h0.57v1.84h2.38v-1.84h0.57v4.29h-0.57V36.25z"/>
			<path class="st66" d="M86.95,37.71h0.13c0.1,0,0.2-0.02,0.29-0.07c0.09-0.05,0.17-0.14,0.23-0.27c0.07-0.13,0.12-0.31,0.15-0.54
				c0.04-0.23,0.06-0.52,0.06-0.88v-2.06h2.92v4.29h-0.57v-3.78h-1.78v1.54c0,0.45-0.03,0.82-0.09,1.11
				c-0.06,0.29-0.15,0.53-0.26,0.7c-0.11,0.17-0.25,0.3-0.41,0.37c-0.16,0.07-0.34,0.11-0.53,0.11h-0.13V37.71z"/>
			<path class="st66" d="M93.22,38.24c-0.43,0-0.76-0.11-0.99-0.33C92,37.69,91.89,37.39,91.89,37c0-0.21,0.03-0.39,0.1-0.56
				c0.07-0.17,0.17-0.31,0.32-0.42c0.15-0.11,0.33-0.2,0.56-0.27c0.23-0.06,0.5-0.09,0.82-0.09h0.98v-0.39
				c0-0.31-0.08-0.54-0.23-0.68c-0.15-0.15-0.4-0.22-0.75-0.22c-0.31,0-0.55,0.06-0.71,0.18c-0.16,0.12-0.25,0.29-0.27,0.5H92.1
				c0.01-0.18,0.05-0.34,0.12-0.49c0.07-0.15,0.17-0.28,0.3-0.39c0.13-0.11,0.29-0.19,0.49-0.25c0.19-0.06,0.42-0.09,0.68-0.09
				c0.51,0,0.89,0.13,1.15,0.38c0.26,0.25,0.39,0.6,0.39,1.06v2.92h-0.44l-0.09-0.81c-0.15,0.27-0.35,0.49-0.61,0.64
				C93.84,38.17,93.54,38.24,93.22,38.24z M93.26,37.71c0.19,0,0.38-0.04,0.55-0.11s0.32-0.17,0.45-0.29
				c0.13-0.12,0.23-0.27,0.3-0.43c0.07-0.16,0.11-0.34,0.11-0.52v-0.2h-0.98c-0.44,0-0.75,0.08-0.94,0.23
				c-0.19,0.15-0.28,0.35-0.28,0.6c0,0.22,0.07,0.39,0.2,0.52S93,37.71,93.26,37.71z"/>
			<path class="st66" d="M99.6,34.55l-0.53,0.89l-1.72,2.75h-0.7v-4.29h0.57v3.65l0.53-0.9l1.72-2.75h0.7v4.29H99.6V34.55z
				 M98.41,33.35c-0.36,0-0.64-0.1-0.85-0.31c-0.21-0.21-0.31-0.5-0.31-0.87h0.55c0,0.26,0.05,0.44,0.16,0.56
				c0.11,0.12,0.26,0.17,0.45,0.17c0.2,0,0.35-0.06,0.46-0.17c0.11-0.11,0.16-0.3,0.16-0.56h0.53c0,0.37-0.1,0.66-0.31,0.87
				C99.05,33.25,98.77,33.35,98.41,33.35z"/>
			<path class="st66" d="M104.57,36.25h-2.38v1.93h-0.57v-4.29h0.57v1.84h2.38v-1.84h0.57v4.29h-0.57V36.25z"/>
			<path class="st66" d="M111.99,38.18h-3.29v1.12h-0.57v-1.63h0.45c0.1-0.15,0.19-0.3,0.25-0.45s0.11-0.31,0.15-0.49
				c0.03-0.19,0.06-0.4,0.07-0.65c0.01-0.25,0.02-0.55,0.02-0.9v-1.29h2.87v3.78h0.6v1.63h-0.57V38.18z M109.65,35.18
				c0,0.35-0.01,0.66-0.02,0.91c-0.01,0.25-0.04,0.48-0.07,0.66c-0.03,0.19-0.07,0.35-0.12,0.49c-0.05,0.14-0.11,0.28-0.18,0.42
				h2.14v-3.26h-1.74V35.18z"/>
			<path class="st66" d="M114.58,38.24c-0.43,0-0.76-0.11-0.99-0.33c-0.23-0.22-0.34-0.52-0.34-0.91c0-0.21,0.03-0.39,0.1-0.56
				c0.07-0.17,0.17-0.31,0.32-0.42c0.15-0.11,0.33-0.2,0.56-0.27c0.23-0.06,0.5-0.09,0.82-0.09h0.98v-0.39
				c0-0.31-0.08-0.54-0.23-0.68c-0.15-0.15-0.4-0.22-0.75-0.22c-0.31,0-0.55,0.06-0.71,0.18c-0.16,0.12-0.25,0.29-0.27,0.5h-0.61
				c0.01-0.18,0.05-0.34,0.12-0.49c0.07-0.15,0.17-0.28,0.3-0.39c0.13-0.11,0.29-0.19,0.49-0.25c0.19-0.06,0.42-0.09,0.68-0.09
				c0.51,0,0.89,0.13,1.15,0.38c0.26,0.25,0.39,0.6,0.39,1.06v2.92h-0.44l-0.09-0.81c-0.15,0.27-0.35,0.49-0.61,0.64
				C115.2,38.17,114.9,38.24,114.58,38.24z M114.62,37.71c0.19,0,0.38-0.04,0.55-0.11s0.32-0.17,0.45-0.29
				c0.13-0.12,0.23-0.27,0.3-0.43c0.07-0.16,0.11-0.34,0.11-0.52v-0.2h-0.98c-0.44,0-0.75,0.08-0.94,0.23
				c-0.19,0.15-0.28,0.35-0.28,0.6c0,0.22,0.07,0.39,0.2,0.52S114.36,37.71,114.62,37.71z"/>
			<path class="st66" d="M120.45,36.6c-0.13,0.03-0.28,0.06-0.46,0.08c-0.18,0.03-0.38,0.04-0.6,0.04c-0.57,0-0.99-0.12-1.24-0.37
				s-0.39-0.64-0.39-1.17v-1.29h0.57v1.29c0,0.38,0.08,0.64,0.24,0.8s0.43,0.23,0.83,0.23c0.22,0,0.42-0.01,0.6-0.04
				c0.18-0.03,0.34-0.06,0.46-0.09v-2.19h0.57v4.29h-0.57V36.6z"/>
			<path class="st66" d="M123.5,38.24c-0.43,0-0.76-0.11-0.99-0.33c-0.23-0.22-0.34-0.52-0.34-0.91c0-0.21,0.03-0.39,0.1-0.56
				c0.07-0.17,0.17-0.31,0.32-0.42c0.15-0.11,0.33-0.2,0.56-0.27c0.23-0.06,0.5-0.09,0.82-0.09h0.98v-0.39
				c0-0.31-0.08-0.54-0.23-0.68c-0.15-0.15-0.4-0.22-0.75-0.22c-0.31,0-0.55,0.06-0.71,0.18s-0.25,0.29-0.27,0.5h-0.61
				c0.01-0.18,0.05-0.34,0.12-0.49c0.07-0.15,0.17-0.28,0.3-0.39c0.13-0.11,0.29-0.19,0.49-0.25c0.19-0.06,0.42-0.09,0.68-0.09
				c0.51,0,0.89,0.13,1.15,0.38c0.26,0.25,0.39,0.6,0.39,1.06v2.92h-0.44l-0.09-0.81c-0.15,0.27-0.35,0.49-0.61,0.64
				C124.12,38.17,123.83,38.24,123.5,38.24z M123.54,37.71c0.19,0,0.38-0.04,0.55-0.11s0.32-0.17,0.45-0.29s0.23-0.27,0.3-0.43
				c0.07-0.16,0.11-0.34,0.11-0.52v-0.2h-0.98c-0.44,0-0.75,0.08-0.94,0.23c-0.19,0.15-0.28,0.35-0.28,0.6
				c0,0.22,0.07,0.39,0.2,0.52S123.28,37.71,123.54,37.71z"/>
		</g>
	</g>
</g>
</svg>
