<?xml version="1.0" encoding="utf-8"?>
<!-- Generator: Adobe Illustrator 25.0.0, SVG Export Plug-In . SVG Version: 6.00 Build 0)  -->
<svg version="1.1" xmlns="http://www.w3.org/2000/svg" xmlns:xlink="http://www.w3.org/1999/xlink" x="0px" y="0px"
	 viewBox="0 0 1654.16 249.66" style="enable-background:new 0 0 1654.16 249.66;" xml:space="preserve">
<style type="text/css">
	.st0{fill:url(#SVGID_1_);}
	.st1{fill:#ECF0D9;}
	.st2{fill:#DEE3B4;}
	.st3{fill:#E3E7BF;}
	.st4{fill:#CCD58F;}
	.st5{fill:#B3C150;}
	.st6{fill:#A3AF4E;}
	.st7{fill:#979E41;}
	.st8{fill:url(#SVGID_2_);}
	.st9{fill:url(#SVGID_3_);}
	.st10{fill:url(#SVGID_4_);}
	.st11{fill:url(#SVGID_5_);}
	.st12{fill:url(#SVGID_6_);}
	.st13{fill:url(#SVGID_7_);}
	.st14{fill:url(#SVGID_8_);}
	.st15{fill:url(#SVGID_9_);}
	.st16{fill:url(#SVGID_10_);}
	.st17{fill:url(#SVGID_11_);}
	.st18{fill:#FFF2DB;}
	.st19{fill:#A79B9C;}
	.st20{fill:#FFD13D;}
	.st21{fill:#2C3A64;}
	.st22{fill:#F67047;}
	.st23{fill:#DAE578;}
	.st24{fill:#FFF3DB;}
	.st25{fill:#FCE8C5;}
	.st26{fill:url(#SVGID_12_);}
	.st27{fill:url(#SVGID_13_);}
	.st28{fill:url(#SVGID_14_);}
	.st29{fill:url(#SVGID_15_);}
	.st30{fill:url(#SVGID_16_);}
	.st31{fill:url(#SVGID_17_);}
	.st32{fill:url(#SVGID_18_);}
	.st33{fill:url(#SVGID_19_);}
	.st34{fill:url(#SVGID_20_);}
	.st35{fill:#574246;}
	.st36{fill:#645053;}
	.st37{fill:#4A373A;}
	.st38{fill:#FEE6B9;stroke:#574246;stroke-width:0.5;stroke-miterlimit:10;}
	.st39{fill:#C4BBBC;stroke:#574246;stroke-width:0.5;stroke-miterlimit:10;}
	.st40{fill:#8C7E7F;stroke:#574246;stroke-width:0.5;stroke-miterlimit:10;}
	.st41{fill:#A79B9C;stroke:#574246;stroke-width:0.5;stroke-miterlimit:10;}
	.st42{fill:#FECE74;stroke:#574246;stroke-width:0.5;stroke-miterlimit:10;}
	.st43{fill:#9E8E86;stroke:#574246;stroke-width:0.5;stroke-miterlimit:10;}
	.st44{fill:#E6CCBD;stroke:#574246;stroke-width:0.5;stroke-miterlimit:10;}
	.st45{fill:#FEC251;stroke:#574246;stroke-width:0.5;stroke-miterlimit:10;}
	.st46{fill:#FEF2DB;stroke:#574246;stroke-width:0.5;stroke-miterlimit:10;}
	.st47{fill:#286489;stroke:#574246;stroke-width:0.5;stroke-miterlimit:10;}
	.st48{fill:#F3ECD6;stroke:#574246;stroke-width:0.5;stroke-miterlimit:10;}
	.st49{fill:#FEF2DC;stroke:#574246;stroke-width:0.5;stroke-miterlimit:10;}
	.st50{fill:#574246;stroke:#574246;stroke-width:0.5;stroke-miterlimit:10;}
	.st51{fill:#725F62;stroke:#574246;stroke-width:0.5;stroke-miterlimit:10;}
	.st52{fill:#645053;stroke:#574246;stroke-width:0.5;stroke-miterlimit:10;}
	.st53{fill:#FFFFFF;}
	.st54{fill:#010001;}
	.st55{fill:#272727;}
	.st56{fill:#C5C5C5;}
	.st57{fill:#DCDCDC;stroke:#574246;stroke-width:0.5;stroke-miterlimit:10;}
	.st58{fill:#C5C5C5;stroke:#574246;stroke-width:0.5;stroke-miterlimit:10;}
	.st59{fill:#FBFBFB;stroke:#574246;stroke-width:0.5;stroke-miterlimit:10;}
	.st60{fill:#3B2E2F;}
	.st61{fill:#FDB723;stroke:#574246;stroke-width:0.5;stroke-miterlimit:10;}
	.st62{fill:#F59F24;stroke:#574246;stroke-width:0.5;stroke-miterlimit:10;}
	.st63{fill:#286489;}
	.st64{opacity:0.22;fill:#A3A1AD;}
	.st65{fill:#C92103;stroke:#574246;stroke-width:0.5;stroke-miterlimit:10;}
	.st66{fill:#584446;}
	.st67{fill:#FFB81C;}
	.st68{fill:#FDB723;}
	.st69{fill:#725F62;}
	.st70{fill:#A3AF4E;stroke:#574246;stroke-width:0.15;stroke-miterlimit:10;}
	.st71{fill:#E23333;}
	.st72{fill:#F56F47;}
	.st73{fill:url(#SVGID_21_);stroke:#574246;stroke-width:0.5;stroke-miterlimit:10;}
	.st74{fill:url(#SVGID_22_);stroke:#574246;stroke-width:0.5;stroke-miterlimit:10;}
	.st75{fill:url(#SVGID_23_);stroke:#574246;stroke-width:0.5;stroke-miterlimit:10;}
	.st76{fill:#AC345A;}
	.st77{fill:#CE4762;}
	.st78{fill:url(#SVGID_24_);stroke:#574246;stroke-width:0.5;stroke-miterlimit:10;}
	.st79{fill:url(#SVGID_25_);stroke:#574246;stroke-width:0.5;stroke-miterlimit:10;}
	.st80{fill:url(#SVGID_26_);stroke:#574246;stroke-width:0.5;stroke-miterlimit:10;}
	.st81{fill:url(#SVGID_27_);stroke:#574246;stroke-width:0.5;stroke-miterlimit:10;}
	.st82{fill:url(#SVGID_28_);stroke:#574246;stroke-width:0.5;stroke-miterlimit:10;}
	.st83{fill:url(#SVGID_29_);stroke:#574246;stroke-width:0.5;stroke-miterlimit:10;}
	.st84{fill:url(#SVGID_30_);stroke:#574246;stroke-width:0.5;stroke-miterlimit:10;}
	.st85{fill:url(#SVGID_31_);stroke:#574246;stroke-width:0.5;stroke-miterlimit:10;}
	.st86{fill:url(#SVGID_32_);stroke:#574246;stroke-width:0.5;stroke-miterlimit:10;}
	.st87{fill:url(#SVGID_33_);stroke:#574246;stroke-width:0.5;stroke-miterlimit:10;}
	.st88{fill:url(#SVGID_34_);stroke:#574246;stroke-width:0.5;stroke-miterlimit:10;}
	.st89{fill:url(#SVGID_35_);stroke:#574246;stroke-width:0.5;stroke-miterlimit:10;}
	.st90{fill:url(#SVGID_36_);stroke:#574246;stroke-width:0.5;stroke-miterlimit:10;}
	.st91{fill:url(#SVGID_37_);stroke:#574246;stroke-width:0.5;stroke-miterlimit:10;}
	.st92{fill:url(#SVGID_38_);stroke:#574246;stroke-width:0.5;stroke-miterlimit:10;}
	.st93{fill:url(#SVGID_39_);stroke:#574246;stroke-width:0.5;stroke-miterlimit:10;}
	.st94{fill:url(#SVGID_40_);stroke:#574246;stroke-width:0.5;stroke-miterlimit:10;}
	.st95{fill:url(#SVGID_41_);stroke:#574246;stroke-width:0.5;stroke-miterlimit:10;}
	.st96{fill:url(#SVGID_42_);stroke:#574246;stroke-width:0.5;stroke-miterlimit:10;}
	.st97{fill:url(#SVGID_43_);stroke:#574246;stroke-width:0.5;stroke-miterlimit:10;}
	.st98{fill:url(#SVGID_44_);stroke:#574246;stroke-width:0.5;stroke-miterlimit:10;}
	.st99{fill:url(#SVGID_45_);stroke:#574246;stroke-width:0.5;stroke-miterlimit:10;}
	.st100{fill:url(#SVGID_46_);stroke:#574246;stroke-width:0.5;stroke-miterlimit:10;}
	.st101{fill:url(#SVGID_47_);stroke:#574246;stroke-width:0.5;stroke-miterlimit:10;}
	.st102{fill:url(#SVGID_48_);stroke:#574246;stroke-width:0.5;stroke-miterlimit:10;}
	.st103{fill:url(#SVGID_49_);stroke:#574246;stroke-width:0.5;stroke-miterlimit:10;}
	.st104{fill:url(#SVGID_50_);stroke:#574246;stroke-width:0.5;stroke-miterlimit:10;}
	.st105{fill:url(#SVGID_51_);stroke:#574246;stroke-width:0.5;stroke-miterlimit:10;}
	.st106{fill:url(#SVGID_52_);stroke:#574246;stroke-width:0.5;stroke-miterlimit:10;}
	.st107{fill:url(#SVGID_53_);stroke:#574246;stroke-width:0.5;stroke-miterlimit:10;}
	.st108{fill:url(#SVGID_54_);stroke:#574246;stroke-width:0.5;stroke-miterlimit:10;}
	.st109{fill:url(#SVGID_55_);stroke:#574246;stroke-width:0.5;stroke-miterlimit:10;}
	.st110{fill:url(#SVGID_56_);stroke:#574246;stroke-width:0.5;stroke-miterlimit:10;}
	.st111{fill:url(#SVGID_57_);stroke:#574246;stroke-width:0.5;stroke-miterlimit:10;}
	.st112{fill:url(#SVGID_58_);stroke:#574246;stroke-width:0.5;stroke-miterlimit:10;}
	.st113{fill:url(#SVGID_59_);stroke:#574246;stroke-width:0.5;stroke-miterlimit:10;}
	.st114{fill:url(#SVGID_60_);stroke:#574246;stroke-width:0.5;stroke-miterlimit:10;}
	.st115{fill:url(#SVGID_61_);stroke:#574246;stroke-width:0.5;stroke-miterlimit:10;}
	.st116{fill:url(#SVGID_62_);stroke:#574246;stroke-width:0.5;stroke-miterlimit:10;}
	.st117{fill:#EE7E21;stroke:#574246;stroke-width:0.5;stroke-miterlimit:10;}
	.st118{fill:#B3C150;stroke:#574246;stroke-width:0.5;stroke-miterlimit:10;}
	.st119{fill:#E2E891;stroke:#574246;stroke-width:0.5;stroke-miterlimit:10;}
	.st120{fill:#B2C052;stroke:#574246;stroke-width:0.5;stroke-miterlimit:10;}
	.st121{fill:#979E41;stroke:#574246;stroke-width:0.5;stroke-miterlimit:10;}
	.st122{fill:#FFF2DB;stroke:#574246;stroke-width:0.5;stroke-miterlimit:10;}
	.st123{fill:url(#SVGID_63_);stroke:#574246;stroke-width:0.5;stroke-miterlimit:10;}
	.st124{fill:url(#SVGID_64_);stroke:#574246;stroke-width:0.5;stroke-miterlimit:10;}
	.st125{fill:url(#SVGID_65_);stroke:#574246;stroke-width:0.5;stroke-miterlimit:10;}
	.st126{fill:url(#SVGID_66_);stroke:#574246;stroke-width:0.5;stroke-miterlimit:10;}
	.st127{fill:url(#SVGID_67_);stroke:#574246;stroke-width:0.5;stroke-miterlimit:10;}
	.st128{fill:url(#SVGID_68_);stroke:#574246;stroke-width:0.5;stroke-miterlimit:10;}
	.st129{fill:#C18E4C;stroke:#574246;stroke-width:0.5;stroke-miterlimit:10;}
	.st130{fill:url(#SVGID_69_);stroke:#574246;stroke-width:0.5;stroke-miterlimit:10;}
	.st131{fill:url(#SVGID_70_);stroke:#574246;stroke-width:0.5;stroke-miterlimit:10;}
	.st132{fill:url(#SVGID_71_);stroke:#574246;stroke-width:0.5;stroke-miterlimit:10;}
	.st133{fill:#AC345A;stroke:#574246;stroke-width:0.5;stroke-miterlimit:10;}
	.st134{fill:#FECE74;}
	.st135{fill:#A3AF4E;stroke:#574246;stroke-width:0.5;stroke-miterlimit:10;}
	.st136{fill:url(#SVGID_72_);stroke:#574246;stroke-width:0.5;stroke-miterlimit:10;}
	.st137{fill:url(#SVGID_73_);stroke:#574246;stroke-width:0.5;stroke-miterlimit:10;}
	.st138{fill:url(#SVGID_74_);stroke:#574246;stroke-width:0.5;stroke-miterlimit:10;}
	.st139{fill:url(#SVGID_75_);stroke:#574246;stroke-width:0.5;stroke-miterlimit:10;}
	.st140{fill:url(#SVGID_76_);stroke:#574246;stroke-width:0.5;stroke-miterlimit:10;}
	.st141{fill:url(#SVGID_77_);stroke:#574246;stroke-width:0.5;stroke-miterlimit:10;}
	.st142{fill:url(#SVGID_78_);stroke:#574246;stroke-width:0.5;stroke-miterlimit:10;}
	.st143{fill:url(#SVGID_79_);stroke:#574246;stroke-width:0.5;stroke-miterlimit:10;}
	.st144{fill:url(#SVGID_80_);stroke:#574246;stroke-width:0.5;stroke-miterlimit:10;}
	.st145{fill:url(#SVGID_81_);stroke:#574246;stroke-width:0.5;stroke-miterlimit:10;}
	.st146{fill:url(#SVGID_82_);stroke:#574246;stroke-width:0.5;stroke-miterlimit:10;}
	.st147{fill:#FC1D1D;}
	.st148{fill:#FFD13D;stroke:#574246;stroke-width:0.5;stroke-miterlimit:10;}
	.st149{fill:url(#SVGID_83_);stroke:#574246;stroke-width:0.5;stroke-miterlimit:10;}
	.st150{fill:url(#SVGID_84_);stroke:#574246;stroke-width:0.5;stroke-miterlimit:10;}
	.st151{fill:#554145;}
	.st152{opacity:0.19;}
	.st153{fill:#644F52;}
	.st154{fill:#644F52;stroke:#574246;stroke-width:0;stroke-miterlimit:10;}
	.st155{fill:#F67047;stroke:#574246;stroke-width:0.5;stroke-miterlimit:10;}
	.st156{fill:#FF8C6B;stroke:#574246;stroke-width:0.5;stroke-miterlimit:10;}
	.st157{fill:#FCB384;stroke:#574246;stroke-width:0.5;stroke-miterlimit:10;}
	.st158{fill:#935B31;stroke:#574246;stroke-width:0.5;stroke-miterlimit:10;}
	.st159{fill:#7C4721;}
	.st160{fill:#5F3714;}
	.st161{fill:#482C10;}
	.st162{fill:#FF8C6B;}
	.st163{fill:#8F1805;}
	.st164{fill:#F99D0B;stroke:#574246;stroke-width:0.5;stroke-miterlimit:10;}
	.st165{fill:#8F1701;}
	.st166{fill:#1E597B;}
	.st167{fill:#F99D0B;}
	.st168{fill:#4A373A;stroke:#574246;stroke-width:0.5;stroke-miterlimit:10;}
	.st169{fill:none;stroke:#574246;stroke-width:0.5;stroke-miterlimit:10;}
	.st170{fill:#8D9799;stroke:#574246;stroke-width:0.5;stroke-miterlimit:10;}
	.st171{fill:#838B8D;}
	.st172{fill:#848C8D;stroke:#574246;stroke-width:0.5;stroke-miterlimit:10;}
	.st173{fill:#8C9798;}
	.st174{fill:#EE7E21;}
	.st175{fill:url(#SVGID_85_);}
	.st176{fill:url(#SVGID_86_);}
	.st177{fill:url(#SVGID_87_);}
	.st178{fill:#FDB186;stroke:#574246;stroke-width:0.5;stroke-miterlimit:10;}
	.st179{fill:#896139;stroke:#574246;stroke-width:0.5;stroke-miterlimit:10;}
	.st180{fill:#AF744B;}
	.st181{fill:#838B8D;stroke:#574246;stroke-width:0.5;stroke-miterlimit:10;}
	.st182{fill:url(#SVGID_88_);}
	.st183{fill:url(#SVGID_89_);}
	.st184{fill:url(#SVGID_90_);}
	.st185{fill:url(#SVGID_91_);}
	.st186{fill:url(#SVGID_92_);}
	.st187{fill:url(#SVGID_93_);}
	.st188{fill:url(#SVGID_94_);}
	.st189{fill:url(#SVGID_95_);}
	.st190{fill:url(#SVGID_96_);}
	.st191{fill:url(#SVGID_97_);}
	.st192{fill:url(#SVGID_98_);}
	.st193{fill:url(#SVGID_99_);}
	.st194{fill:url(#SVGID_100_);}
	.st195{fill:url(#SVGID_101_);}
	.st196{fill:url(#SVGID_102_);}
	.st197{fill:url(#SVGID_103_);}
	.st198{fill:url(#SVGID_104_);}
	.st199{fill:url(#SVGID_105_);}
	.st200{fill:url(#SVGID_106_);}
	.st201{fill:url(#SVGID_107_);}
	.st202{fill:url(#SVGID_108_);stroke:#574246;stroke-width:0.5;stroke-miterlimit:10;}
	.st203{fill:url(#SVGID_109_);stroke:#574246;stroke-width:0.5;stroke-miterlimit:10;}
	.st204{fill:url(#SVGID_110_);stroke:#574246;stroke-width:0.5;stroke-miterlimit:10;}
	.st205{fill:url(#SVGID_111_);stroke:#574246;stroke-width:0.5;stroke-miterlimit:10;}
	.st206{fill:url(#SVGID_112_);stroke:#574246;stroke-width:0.5;stroke-miterlimit:10;}
	.st207{fill:url(#SVGID_113_);stroke:#574246;stroke-width:0.5;stroke-miterlimit:10;}
	.st208{fill:url(#SVGID_114_);stroke:#574246;stroke-width:0.5;stroke-miterlimit:10;}
	.st209{fill:url(#SVGID_115_);stroke:#574246;stroke-width:0.5;stroke-miterlimit:10;}
	.st210{fill:url(#SVGID_116_);stroke:#574246;stroke-width:0.5;stroke-miterlimit:10;}
	.st211{fill:url(#SVGID_117_);stroke:#574246;stroke-width:0.5;stroke-miterlimit:10;}
	.st212{fill:url(#SVGID_118_);stroke:#574246;stroke-width:0.5;stroke-miterlimit:10;}
	.st213{fill:url(#SVGID_119_);stroke:#574246;stroke-width:0.5;stroke-miterlimit:10;}
	.st214{fill:url(#SVGID_120_);stroke:#574246;stroke-width:0.5;stroke-miterlimit:10;}
	.st215{fill:url(#SVGID_121_);stroke:#574246;stroke-width:0.5;stroke-miterlimit:10;}
	.st216{fill:url(#SVGID_122_);stroke:#574246;stroke-width:0.5;stroke-miterlimit:10;}
	.st217{fill:url(#SVGID_123_);stroke:#574246;stroke-width:0.5;stroke-miterlimit:10;}
	.st218{fill:url(#SVGID_124_);stroke:#574246;stroke-width:0.5;stroke-miterlimit:10;}
	.st219{fill:url(#SVGID_125_);stroke:#574246;stroke-width:0.5;stroke-miterlimit:10;}
	.st220{fill:url(#SVGID_126_);stroke:#574246;stroke-width:0.5;stroke-miterlimit:10;}
	.st221{fill:url(#SVGID_127_);stroke:#574246;stroke-width:0.5;stroke-miterlimit:10;}
	.st222{fill:url(#SVGID_128_);stroke:#574246;stroke-width:0.5;stroke-miterlimit:10;}
	.st223{fill:url(#SVGID_129_);stroke:#574246;stroke-width:0.5;stroke-miterlimit:10;}
	.st224{fill:url(#SVGID_130_);stroke:#574246;stroke-width:0.5;stroke-miterlimit:10;}
	.st225{fill:url(#SVGID_131_);stroke:#574246;stroke-width:0.5;stroke-miterlimit:10;}
	.st226{fill:url(#SVGID_132_);stroke:#574246;stroke-width:0.5;stroke-miterlimit:10;}
	.st227{fill:url(#SVGID_133_);stroke:#574246;stroke-width:0.5;stroke-miterlimit:10;}
	.st228{fill:url(#SVGID_134_);stroke:#574246;stroke-width:0.5;stroke-miterlimit:10;}
	.st229{fill:url(#SVGID_135_);stroke:#574246;stroke-width:0.5;stroke-miterlimit:10;}
	.st230{fill:url(#SVGID_136_);stroke:#574246;stroke-width:0.5;stroke-miterlimit:10;}
	.st231{fill:url(#SVGID_137_);stroke:#574246;stroke-width:0.5;stroke-miterlimit:10;}
	.st232{fill:url(#SVGID_138_);stroke:#574246;stroke-width:0.5;stroke-miterlimit:10;}
	.st233{fill:url(#SVGID_139_);stroke:#574246;stroke-width:0.5;stroke-miterlimit:10;}
	.st234{fill:url(#SVGID_140_);stroke:#574246;stroke-width:0.5;stroke-miterlimit:10;}
	.st235{fill:url(#SVGID_141_);stroke:#574246;stroke-width:0.5;stroke-miterlimit:10;}
	.st236{fill:url(#SVGID_142_);stroke:#574246;stroke-width:0.5;stroke-miterlimit:10;}
	.st237{fill:url(#SVGID_143_);stroke:#574246;stroke-width:0.5;stroke-miterlimit:10;}
	.st238{fill:url(#SVGID_144_);stroke:#574246;stroke-width:0.5;stroke-miterlimit:10;}
	.st239{fill:url(#SVGID_145_);stroke:#574246;stroke-width:0.5;stroke-miterlimit:10;}
	.st240{fill:url(#SVGID_146_);stroke:#574246;stroke-width:0.5;stroke-miterlimit:10;}
	.st241{fill:url(#SVGID_147_);stroke:#574246;stroke-width:0.5;stroke-miterlimit:10;}
	.st242{fill:url(#SVGID_148_);stroke:#574246;stroke-width:0.5;stroke-miterlimit:10;}
	.st243{fill:url(#SVGID_149_);stroke:#574246;stroke-width:0.5;stroke-miterlimit:10;}
	.st244{fill:url(#SVGID_150_);stroke:#574246;stroke-width:0.5;stroke-miterlimit:10;}
	.st245{fill:url(#SVGID_151_);stroke:#574246;stroke-width:0.5;stroke-miterlimit:10;}
	.st246{fill:url(#SVGID_152_);stroke:#574246;stroke-width:0.5;stroke-miterlimit:10;}
	.st247{fill:url(#SVGID_153_);stroke:#574246;stroke-width:0.5;stroke-miterlimit:10;}
	.st248{fill:url(#SVGID_154_);stroke:#574246;stroke-width:0.5;stroke-miterlimit:10;}
	.st249{fill:url(#SVGID_155_);stroke:#574246;stroke-width:0.5;stroke-miterlimit:10;}
	.st250{fill:url(#SVGID_156_);stroke:#574246;stroke-width:0.5;stroke-miterlimit:10;}
	.st251{fill:url(#SVGID_157_);stroke:#574246;stroke-width:0.5;stroke-miterlimit:10;}
	.st252{fill:url(#SVGID_158_);stroke:#574246;stroke-width:0.5;stroke-miterlimit:10;}
	.st253{fill:url(#SVGID_159_);stroke:#574246;stroke-width:0.5;stroke-miterlimit:10;}
	.st254{fill:url(#SVGID_160_);stroke:#574246;stroke-width:0.5;stroke-miterlimit:10;}
	.st255{fill:url(#SVGID_161_);stroke:#574246;stroke-width:0.5;stroke-miterlimit:10;}
	.st256{fill:url(#SVGID_162_);stroke:#574246;stroke-width:0.5;stroke-miterlimit:10;}
	.st257{fill:url(#SVGID_163_);stroke:#574246;stroke-width:0.5;stroke-miterlimit:10;}
	.st258{fill:url(#SVGID_164_);stroke:#574246;stroke-width:0.5;stroke-miterlimit:10;}
	.st259{fill:url(#SVGID_165_);stroke:#574246;stroke-width:0.5;stroke-miterlimit:10;}
	.st260{fill:url(#SVGID_166_);stroke:#574246;stroke-width:0.5;stroke-miterlimit:10;}
	.st261{fill:url(#SVGID_167_);stroke:#574246;stroke-width:0.5;stroke-miterlimit:10;}
	.st262{fill:url(#SVGID_168_);stroke:#574246;stroke-width:0.5;stroke-miterlimit:10;}
	.st263{fill:url(#SVGID_169_);stroke:#574246;stroke-width:0.5;stroke-miterlimit:10;}
	.st264{fill:url(#SVGID_170_);stroke:#574246;stroke-width:0.5;stroke-miterlimit:10;}
	.st265{fill:url(#SVGID_171_);stroke:#574246;stroke-width:0.5;stroke-miterlimit:10;}
	.st266{fill:url(#SVGID_172_);}
	.st267{fill:url(#SVGID_173_);}
	.st268{fill:url(#SVGID_174_);}
</style>
<g id="Слой_1">
</g>
<g id="Слой_2">
</g>
<g id="Слой_3">
</g>
<g id="фон">
</g>
<g id="_x31__1_">
</g>
<g id="все">
	<g>
		<g>
			<path class="st148" d="M1523.34,71.61l-0.08-1.93c-0.07-1.78,1.17-3.33,2.92-3.66v0c1.75-0.32,3.47,0.69,4.03,2.37l0.56,1.67
				c0.34,1.01,0.96,1.9,1.79,2.58c1.49,1.22,2.46,3.08,2.43,5.27c-0.04,2.62-1.7,5.04-4.15,6c-4.03,1.58-8.27-0.92-9.02-4.95
				c-0.31-1.68,0.05-3.33,0.88-4.68C1523.2,73.49,1523.38,72.54,1523.34,71.61z"/>
			<path class="st148" d="M1484.72,55.3l0.75-2.44c0.69-2.24,2.92-3.64,5.24-3.27l0,0c2.32,0.36,4.02,2.38,3.98,4.73l-0.03,2.33
				c-0.02,1.41,0.36,2.79,1.09,4c1.32,2.17,1.71,4.92,0.71,7.64c-1.2,3.25-4.34,5.53-7.8,5.65c-5.71,0.2-9.9-4.78-9.06-10.13
				c0.35-2.23,1.52-4.13,3.14-5.44C1483.71,57.58,1484.36,56.48,1484.72,55.3z"/>
			<path class="st148" d="M1492.69,45.68c0,0-2.03,2.54-1.8,4.16c0,0,0.41-2.17,1.69-3.33C1492.57,46.5,1492.93,45.95,1492.69,45.68
				z"/>
			<path class="st148" d="M1528.63,61.12c0,0-2.03,2.54-1.8,4.16c0,0,0.41-2.17,1.69-3.33
				C1528.52,61.94,1528.88,61.39,1528.63,61.12z"/>
			<path class="st148" d="M1642.91,154.52l0.11-1.93c0.1-1.77,1.5-3.2,3.27-3.35l0,0c1.77-0.15,3.38,1.03,3.78,2.76l0.39,1.72
				c0.24,1.04,0.77,1.99,1.52,2.74c1.36,1.36,2.14,3.31,1.89,5.49c-0.3,2.61-2.19,4.85-4.72,5.56c-4.16,1.18-8.14-1.73-8.48-5.82
				c-0.14-1.7,0.37-3.31,1.34-4.57C1642.57,156.38,1642.85,155.45,1642.91,154.52z"/>
			<path class="st148" d="M1614.12,145.05l-0.2-2.55c-0.18-2.34,1.39-4.46,3.68-4.97h0c2.29-0.51,4.61,0.74,5.44,2.94l0.82,2.18
				c0.5,1.32,1.36,2.47,2.48,3.32c2.02,1.54,3.39,3.95,3.45,6.85c0.08,3.47-2.01,6.73-5.19,8.12c-5.24,2.28-10.96-0.82-12.14-6.11
				c-0.49-2.2-0.1-4.39,0.94-6.21C1614.01,147.55,1614.21,146.29,1614.12,145.05z"/>
			<path class="st148" d="M1618.01,133.18c0,0-0.96,3.1-0.15,4.53c0,0-0.41-2.17,0.35-3.72
				C1618.2,133.99,1618.33,133.35,1618.01,133.18z"/>
			<path class="st148" d="M1649.21,144.6c0,0-2.27,2.32-2.2,3.96c0,0,0.63-2.12,2.01-3.15
				C1649.01,145.41,1649.43,144.9,1649.21,144.6z"/>
			<path class="st148" d="M1601.78,97.67l0.67-2.24c0.62-2.06,2.65-3.35,4.78-3.03v0c2.13,0.32,3.69,2.15,3.68,4.3l-0.01,2.13
				c-0.01,1.29,0.35,2.56,1.03,3.66c1.22,1.98,1.6,4.49,0.7,6.99c-1.07,2.99-3.93,5.09-7.11,5.23c-5.23,0.23-9.1-4.31-8.37-9.21
				c0.31-2.04,1.36-3.79,2.84-5C1600.87,99.77,1601.46,98.76,1601.78,97.67z"/>
			<path class="st148" d="M1609.01,88.81c0,0-1.84,2.34-1.62,3.82c0,0,0.36-1.99,1.52-3.06
				C1608.91,89.56,1609.24,89.06,1609.01,88.81z"/>
			<path class="st148" d="M1582.5,56.03l0.19-1.85c0.17-1.7,1.56-3.01,3.27-3.08l0,0c1.7-0.07,3.2,1.12,3.51,2.8l0.31,1.66
				c0.19,1.01,0.66,1.94,1.35,2.69c1.25,1.36,1.92,3.26,1.59,5.34c-0.39,2.49-2.3,4.56-4.75,5.14c-4.04,0.96-7.74-1.99-7.9-5.92
				c-0.07-1.64,0.49-3.16,1.46-4.32C1582.11,57.8,1582.41,56.92,1582.5,56.03z"/>
			<path class="st148" d="M1586.8,48.03c0,0-1.09,2.1-0.69,3.22c0,0-0.02-1.6,0.73-2.62C1586.84,48.64,1587.02,48.19,1586.8,48.03z"
				/>
			<path class="st148" d="M1565.86,83.69l0.84-1.17c0.77-1.08,2.21-1.43,3.39-0.82v0c1.18,0.61,1.72,1.99,1.29,3.24l-0.43,1.24
				c-0.26,0.75-0.31,1.56-0.13,2.34c0.32,1.4,0.04,2.94-0.99,4.21c-1.22,1.53-3.31,2.19-5.19,1.63c-3.09-0.91-4.45-4.32-3.04-7.04
				c0.59-1.13,1.55-1.94,2.65-2.35C1564.91,84.73,1565.45,84.26,1565.86,83.69z"/>
			<path class="st148" d="M1571.84,79.96c0,0-1.54,1-1.71,1.9c0,0,0.61-1.09,1.5-1.48C1571.63,80.38,1571.92,80.15,1571.84,79.96z"
				/>
			<path class="st148" d="M1502.53,16.36l-0.41-1.51c-0.38-1.39,0.32-2.84,1.64-3.41v0c1.32-0.57,2.85-0.08,3.6,1.14l0.74,1.22
				c0.45,0.74,1.1,1.33,1.87,1.71c1.39,0.69,2.49,1.99,2.86,3.72c0.44,2.08-0.44,4.28-2.19,5.47c-2.89,1.97-6.68,0.76-8-2.28
				c-0.55-1.27-0.56-2.63-0.15-3.84C1502.76,17.88,1502.73,17.1,1502.53,16.36z"/>
			<path class="st148" d="M1503.51,8.78c0,0-0.22,1.98,0.43,2.74c0,0-0.5-1.26-0.22-2.28C1503.72,9.25,1503.73,8.85,1503.51,8.78z"
				/>
			<path class="st148" d="M1533.36,37.31l0.18-1.55c0.16-1.43,1.35-2.52,2.79-2.56l0,0c1.44-0.04,2.68,0.98,2.92,2.4l0.24,1.4
				c0.15,0.85,0.53,1.64,1.1,2.28c1.04,1.16,1.58,2.77,1.28,4.52c-0.36,2.09-1.99,3.81-4.06,4.27c-3.41,0.76-6.49-1.76-6.58-5.08
				c-0.04-1.38,0.45-2.65,1.28-3.62C1533,38.8,1533.27,38.06,1533.36,37.31z"/>
			<path class="st148" d="M1537.07,30.63c0,0-0.94,1.75-0.62,2.7c0,0,0.01-1.35,0.64-2.19
				C1537.09,31.14,1537.25,30.77,1537.07,30.63z"/>
			<path class="st148" d="M1450.49,75.5l0.27-2.32c0.24-2.13,2.02-3.76,4.16-3.82h0c2.14-0.06,4.01,1.47,4.37,3.58l0.36,2.1
				c0.22,1.27,0.79,2.45,1.65,3.41c1.55,1.73,2.36,4.13,1.91,6.74c-0.53,3.12-2.97,5.69-6.06,6.38c-5.1,1.14-9.69-2.63-9.83-7.58
				c-0.06-2.06,0.67-3.96,1.92-5.41C1449.96,77.73,1450.36,76.63,1450.49,75.5z"/>
			<path class="st148" d="M1456.04,65.53c0,0-1.4,2.62-0.92,4.04c0,0,0.01-2.02,0.96-3.28C1456.07,66.29,1456.3,65.73,1456.04,65.53
				z"/>
			<path class="st148" d="M1456.88,10.35l0.27-2.32c0.24-2.13,2.02-3.76,4.16-3.82h0c2.14-0.06,4.01,1.47,4.37,3.58l0.36,2.1
				c0.22,1.27,0.79,2.45,1.65,3.41c1.55,1.73,2.36,4.13,1.91,6.74c-0.53,3.12-2.97,5.69-6.06,6.38c-5.1,1.14-9.69-2.63-9.83-7.58
				c-0.06-2.06,0.67-3.96,1.92-5.41C1456.36,12.58,1456.75,11.48,1456.88,10.35z"/>
			<path class="st148" d="M1462.43,0.38c0,0-1.4,2.62-0.92,4.04c0,0,0.01-2.02,0.96-3.28C1462.46,1.14,1462.7,0.58,1462.43,0.38z"/>
			<path class="st148" d="M1424.81,45.44l0.23-2.33c0.22-2.14,1.97-3.79,4.12-3.88l0,0c2.15-0.09,4.03,1.41,4.43,3.53l0.39,2.1
				c0.24,1.27,0.83,2.44,1.7,3.4c1.57,1.71,2.42,4.11,2.01,6.73c-0.49,3.14-2.9,5.75-5.99,6.48c-5.09,1.21-9.75-2.51-9.96-7.46
				c-0.09-2.07,0.62-3.98,1.85-5.45C1424.31,47.68,1424.7,46.57,1424.81,45.44z"/>
			<path class="st148" d="M1430.23,35.37c0,0-1.37,2.64-0.87,4.06c0,0-0.02-2.02,0.92-3.3C1430.28,36.13,1430.5,35.57,1430.23,35.37
				z"/>
			<path class="st148" d="M1387.21,77.86l0.61-2.26c0.56-2.07,2.57-3.42,4.7-3.15l0,0c2.13,0.26,3.75,2.06,3.79,4.21l0.04,2.13
				c0.02,1.29,0.41,2.55,1.12,3.63c1.27,1.95,1.71,4.45,0.88,6.97c-1,3.02-3.8,5.19-6.97,5.41c-5.22,0.36-9.21-4.07-8.6-9
				c0.25-2.05,1.27-3.82,2.72-5.08C1386.36,79.99,1386.92,78.96,1387.21,77.86z"/>
			<path class="st148" d="M1394.22,68.81c0,0-1.78,2.38-1.52,3.86c0,0,0.31-2,1.44-3.1C1394.14,69.57,1394.45,69.06,1394.22,68.81z"
				/>
			<path class="st148" d="M1388.5,33.62l-0.17-2.11c-0.16-1.94,1.13-3.69,3.02-4.13v0c1.89-0.43,3.82,0.59,4.51,2.41l0.69,1.8
				c0.42,1.09,1.14,2.04,2.07,2.74c1.68,1.26,2.82,3.25,2.89,5.65c0.08,2.87-1.63,5.58-4.25,6.74c-4.33,1.91-9.07-0.62-10.07-4.99
				c-0.42-1.82-0.1-3.64,0.74-5.15C1388.42,35.69,1388.58,34.64,1388.5,33.62z"/>
			<path class="st148" d="M1391.66,23.78c0,0-0.78,2.57-0.11,3.75c0,0-0.35-1.79,0.27-3.08
				C1391.83,24.45,1391.93,23.92,1391.66,23.78z"/>
			<path class="st148" d="M1349.92,107.73l-0.48-2.4c-0.44-2.21,0.81-4.4,2.93-5.14v0c2.12-0.75,4.47,0.18,5.51,2.18l1.03,1.98
				c0.62,1.2,1.57,2.19,2.74,2.88c2.1,1.23,3.67,3.37,4.07,6.12c0.47,3.29-1.14,6.63-4.01,8.31c-4.73,2.77-10.52,0.47-12.24-4.43
				c-0.72-2.04-0.59-4.17,0.18-6.02C1350.11,110.12,1350.15,108.89,1349.92,107.73z"/>
			<path class="st148" d="M1352.27,96c0,0-0.56,3.06,0.37,4.33c0,0-0.64-2.02-0.09-3.58C1352.55,96.74,1352.6,96.11,1352.27,96z"/>
			<path class="st148" d="M1321.56,84.13l0.8-1.94c0.73-1.78,2.66-2.76,4.53-2.28l0,0c1.87,0.47,3.1,2.25,2.9,4.16l-0.2,1.9
				c-0.12,1.15,0.09,2.31,0.59,3.35c0.91,1.87,1.03,4.15,0.01,6.3c-1.22,2.57-3.96,4.2-6.8,4.04c-4.69-0.26-7.74-4.65-6.65-8.96
				c0.45-1.8,1.55-3.26,2.98-4.21C1320.56,85.92,1321.17,85.07,1321.56,84.13z"/>
			<path class="st148" d="M1328.79,76.86c0,0-1.85,1.92-1.78,3.26c0,0,0.5-1.74,1.63-2.6C1328.63,77.53,1328.97,77.1,1328.79,76.86z
				"/>
			<path class="st148" d="M1350.03,47.69l0.8-1.94c0.73-1.78,2.66-2.76,4.53-2.28l0,0c1.87,0.47,3.1,2.25,2.9,4.16l-0.2,1.9
				c-0.12,1.15,0.09,2.31,0.59,3.35c0.91,1.87,1.03,4.15,0.01,6.3c-1.22,2.57-3.96,4.2-6.8,4.04c-4.69-0.26-7.74-4.65-6.65-8.96
				c0.45-1.8,1.55-3.26,2.98-4.21C1349.04,49.48,1349.65,48.63,1350.03,47.69z"/>
			<path class="st148" d="M1357.27,40.42c0,0-1.85,1.92-1.78,3.26c0,0,0.5-1.74,1.63-2.6C1357.11,41.08,1357.45,40.66,1357.27,40.42
				z"/>
			<path class="st148" d="M1420.17,184.17l0.8-1.94c0.73-1.78,2.66-2.76,4.53-2.28l0,0c1.87,0.47,3.1,2.25,2.9,4.16l-0.2,1.9
				c-0.12,1.15,0.09,2.31,0.59,3.35c0.91,1.87,1.03,4.15,0.01,6.3c-1.22,2.57-3.96,4.2-6.8,4.04c-4.69-0.26-7.74-4.65-6.65-8.96
				c0.45-1.8,1.55-3.26,2.98-4.21C1419.17,185.96,1419.78,185.11,1420.17,184.17z"/>
			<path class="st148" d="M1427.4,176.9c0,0-1.85,1.92-1.78,3.26c0,0,0.5-1.74,1.63-2.6C1427.25,177.57,1427.58,177.14,1427.4,176.9
				z"/>
		</g>
	</g>
	<g>
		<g>
			<path class="st155" d="M290.04,78.51c0,0-4.33-1.77-6.77,3.27c-2.44,5.03,6.64,12.05,13.61,6.35
				C304.96,81.52,297.03,69.46,290.04,78.51z"/>
			<path class="st155" d="M291.06,72.85c0,0-1.86,4.09-0.99,6.18c0,0-0.19-3.05,1.12-5.04C291.19,74,291.49,73.13,291.06,72.85z"/>
		</g>
		<g>
			<path class="st155" d="M101.95,62.52c0,0-3.48-2.57-6.82,1.38c-3.34,3.96,3.2,12.34,10.76,8.81
				C114.66,68.63,110.3,55.99,101.95,62.52z"/>
			<path class="st155" d="M104.16,57.68c0,0-2.6,3.25-2.31,5.32c0,0,0.53-2.78,2.16-4.27C104.02,58.73,104.48,58.03,104.16,57.68z"
				/>
		</g>
		<g>
			<path class="st155" d="M249.73,110.29c0,0-4.78-3.54-9.37,1.9c-4.58,5.44,4.4,16.94,14.78,12.11
				C267.18,118.69,261.19,101.33,249.73,110.29z"/>
			<path class="st155" d="M252.77,103.64c0,0-3.57,4.46-3.17,7.31c0,0,0.73-3.81,2.97-5.86
				C252.57,105.09,253.2,104.12,252.77,103.64z"/>
		</g>
		<g>
			<path class="st155" d="M237.21,72.76c0,0-2.81-2.08-5.5,1.12c-2.69,3.19,2.58,9.95,8.68,7.11
				C247.46,77.69,243.94,67.5,237.21,72.76z"/>
			<path class="st155" d="M238.99,68.86c0,0-2.1,2.62-1.86,4.29c0,0,0.43-2.24,1.74-3.44C238.88,69.71,239.25,69.14,238.99,68.86z"
				/>
		</g>
		<g>
			<path class="st155" d="M216.47,28.94c0,0-3.48-2.57-6.82,1.38c-3.34,3.96,3.2,12.34,10.76,8.81
				C229.18,35.06,224.82,22.42,216.47,28.94z"/>
			<path class="st155" d="M218.68,24.1c0,0-2.6,3.25-2.31,5.32c0,0,0.53-2.78,2.16-4.27C218.54,25.16,219,24.45,218.68,24.1z"/>
		</g>
		<g>
			<path class="st155" d="M173.14,64.66c0,0-3.34-1.6-5.51,2.26c-2.17,3.86,4.66,9.84,10.45,5.68
				C184.78,67.76,179.1,57.84,173.14,64.66z"/>
			<path class="st155" d="M174.22,60.24c0,0-1.66,3.14-1.08,4.84c0,0,0-2.42,1.13-3.93C174.26,61.15,174.54,60.48,174.22,60.24z"/>
		</g>
		<g>
			<path class="st155" d="M162.71,22.45c0,0-3.34-1.6-5.51,2.26c-2.17,3.86,4.66,9.84,10.45,5.68
				C174.36,25.55,168.68,15.64,162.71,22.45z"/>
			<path class="st155" d="M163.79,18.03c0,0-1.66,3.14-1.08,4.84c0,0,0-2.42,1.13-3.93C163.84,18.94,164.12,18.27,163.79,18.03z"/>
		</g>
		<g>
			<path class="st155" d="M197.98,106.08c0,0,4.33-1.77,6.77,3.27c2.44,5.03-6.64,12.05-13.61,6.35
				C183.06,109.09,190.99,97.03,197.98,106.08z"/>
			<path class="st155" d="M196.96,100.42c0,0,1.86,4.09,0.99,6.18c0,0,0.19-3.05-1.12-5.04
				C196.83,101.57,196.54,100.7,196.96,100.42z"/>
		</g>
		<g>
			<path class="st155" d="M144.57,127.24c0,0,3.48-2.57,6.82,1.38c3.34,3.96-3.2,12.34-10.76,8.81
				C131.86,133.36,136.22,120.72,144.57,127.24z"/>
			<path class="st155" d="M142.36,122.4c0,0,2.6,3.25,2.31,5.32c0,0-0.53-2.78-2.16-4.27C142.5,123.46,142.04,122.75,142.36,122.4z"
				/>
		</g>
		<g>
			<path class="st155" d="M12.27,168.82c0,0,4.78-3.54,9.37,1.9c4.58,5.44-4.4,16.94-14.78,12.11
				C-5.18,177.22,0.81,159.86,12.27,168.82z"/>
			<path class="st155" d="M9.23,162.17c0,0,3.57,4.46,3.17,7.31c0,0-0.73-3.81-2.97-5.86C9.43,163.62,8.8,162.65,9.23,162.17z"/>
		</g>
		<g>
			<path class="st155" d="M133.15,87.95c0,0,2.81-2.08,5.5,1.12c2.69,3.19-2.58,9.95-8.68,7.11
				C122.91,92.88,126.43,82.69,133.15,87.95z"/>
			<path class="st155" d="M131.37,84.04c0,0,2.1,2.62,1.86,4.29c0,0-0.43-2.24-1.74-3.44C131.49,84.89,131.12,84.32,131.37,84.04z"
				/>
		</g>
		<g>
			<path class="st155" d="M30.05,102.96c0,0,3.48-2.57,6.82,1.38c3.34,3.96-3.2,12.34-10.76,8.81
				C17.34,109.07,21.7,96.43,30.05,102.96z"/>
			<path class="st155" d="M27.84,98.12c0,0,2.6,3.25,2.31,5.32c0,0-0.53-2.78-2.16-4.27C27.98,99.17,27.52,98.46,27.84,98.12z"/>
		</g>
		<g>
			<path class="st155" d="M73.38,129.38c0,0,3.34-1.6,5.51,2.26c2.17,3.86-4.66,9.84-10.45,5.68
				C61.74,132.48,67.42,122.57,73.38,129.38z"/>
			<path class="st155" d="M72.3,124.96c0,0,1.66,3.14,1.08,4.84c0,0,0-2.42-1.13-3.93C72.26,125.87,71.98,125.2,72.3,124.96z"/>
		</g>
		<g>
			<path class="st155" d="M71.42,87.18c0,0,3.34-1.6,5.51,2.26c2.17,3.86-4.66,9.84-10.45,5.68C59.77,90.28,65.46,80.36,71.42,87.18
				z"/>
			<path class="st155" d="M70.34,82.76c0,0,1.66,3.14,1.08,4.84c0,0,0-2.42-1.13-3.93C70.29,83.67,70.02,83,70.34,82.76z"/>
		</g>
		<g>
			<path class="st155" d="M296.01,129.09c0,0-4.78-3.54-9.37,1.9c-4.58,5.44,4.4,16.94,14.78,12.11
				C313.46,137.49,307.47,120.13,296.01,129.09z"/>
			<path class="st155" d="M299.04,122.44c0,0-3.57,4.46-3.17,7.31c0,0,0.73-3.81,2.97-5.86
				C298.84,123.89,299.47,122.92,299.04,122.44z"/>
		</g>
		<g>
			<path class="st155" d="M224.51,186.62c0,0-4.78-3.54-9.37,1.9c-4.58,5.44,4.4,16.94,14.78,12.11
				C241.96,195.02,235.97,177.66,224.51,186.62z"/>
			<path class="st155" d="M227.55,179.97c0,0-3.57,4.46-3.17,7.31c0,0,0.73-3.81,2.97-5.86
				C227.35,181.42,227.98,180.45,227.55,179.97z"/>
		</g>
		<g>
			<path class="st155" d="M258.19,214.95c0,0,3.48-2.57,6.82,1.38c3.34,3.96-3.2,12.34-10.76,8.81
				C245.49,221.07,249.85,208.43,258.19,214.95z"/>
			<path class="st155" d="M255.98,210.11c0,0,2.6,3.25,2.31,5.32c0,0-0.53-2.78-2.16-4.27
				C256.13,211.17,255.67,210.46,255.98,210.11z"/>
		</g>
		<g>
			<path class="st155" d="M227.05,240.07c0,0,3.34-1.6,5.51,2.26c2.17,3.86-4.66,9.84-10.45,5.68
				C215.4,243.17,221.09,233.25,227.05,240.07z"/>
			<path class="st155" d="M225.97,235.65c0,0,1.66,3.14,1.08,4.84c0,0,0-2.42-1.13-3.93C225.92,236.56,225.65,235.89,225.97,235.65z
				"/>
		</g>
		<g>
			<path class="st155" d="M85.18,195.66c0,0,3.34-1.6,5.51,2.26c2.17,3.86-4.66,9.84-10.45,5.68
				C73.53,198.76,79.22,188.84,85.18,195.66z"/>
			<path class="st155" d="M84.1,191.24c0,0,1.66,3.14,1.08,4.84c0,0,0-2.42-1.13-3.93C84.06,192.15,83.78,191.48,84.1,191.24z"/>
		</g>
	</g>
</g>
</svg>
