<?xml version="1.0" encoding="utf-8"?>
<!-- Generator: Adobe Illustrator 25.0.0, SVG Export Plug-In . SVG Version: 6.00 Build 0)  -->
<svg version="1.1" xmlns="http://www.w3.org/2000/svg" xmlns:xlink="http://www.w3.org/1999/xlink" x="0px" y="0px"
	 viewBox="0 0 223.09 365.65" style="enable-background:new 0 0 223.09 365.65;" xml:space="preserve">
<style type="text/css">
	.st0{fill:url(#SVGID_1_);}
	.st1{fill:#ECF0D9;}
	.st2{fill:#DEE3B4;}
	.st3{fill:#E3E7BF;}
	.st4{fill:#CCD58F;}
	.st5{fill:#B3C150;}
	.st6{fill:#A3AF4E;}
	.st7{fill:#979E41;}
	.st8{fill:url(#SVGID_2_);}
	.st9{fill:url(#SVGID_3_);}
	.st10{fill:url(#SVGID_4_);}
	.st11{fill:url(#SVGID_5_);}
	.st12{fill:url(#SVGID_6_);}
	.st13{fill:url(#SVGID_7_);}
	.st14{fill:url(#SVGID_8_);}
	.st15{fill:url(#SVGID_9_);}
	.st16{fill:url(#SVGID_10_);}
	.st17{fill:url(#SVGID_11_);}
	.st18{fill:#FFF2DB;}
	.st19{fill:#A79B9C;}
	.st20{fill:#FFD13D;}
	.st21{fill:#2C3A64;}
	.st22{fill:#F67047;}
	.st23{fill:#DAE578;}
	.st24{fill:#FFF3DB;}
	.st25{fill:#FCE8C5;}
	.st26{fill:url(#SVGID_12_);}
	.st27{fill:url(#SVGID_13_);}
	.st28{fill:url(#SVGID_14_);}
	.st29{fill:url(#SVGID_15_);}
	.st30{fill:url(#SVGID_16_);}
	.st31{fill:url(#SVGID_17_);}
	.st32{fill:url(#SVGID_18_);}
	.st33{fill:url(#SVGID_19_);}
	.st34{fill:url(#SVGID_20_);}
	.st35{fill:#574246;}
	.st36{fill:#645053;}
	.st37{fill:#4A373A;}
	.st38{fill:#FEE6B9;stroke:#574246;stroke-width:0.5;stroke-miterlimit:10;}
	.st39{fill:#C4BBBC;stroke:#574246;stroke-width:0.5;stroke-miterlimit:10;}
	.st40{fill:#8C7E7F;stroke:#574246;stroke-width:0.5;stroke-miterlimit:10;}
	.st41{fill:#A79B9C;stroke:#574246;stroke-width:0.5;stroke-miterlimit:10;}
	.st42{fill:#FECE74;stroke:#574246;stroke-width:0.5;stroke-miterlimit:10;}
	.st43{fill:#9E8E86;stroke:#574246;stroke-width:0.5;stroke-miterlimit:10;}
	.st44{fill:#E6CCBD;stroke:#574246;stroke-width:0.5;stroke-miterlimit:10;}
	.st45{fill:#FEC251;stroke:#574246;stroke-width:0.5;stroke-miterlimit:10;}
	.st46{fill:#FEF2DB;stroke:#574246;stroke-width:0.5;stroke-miterlimit:10;}
	.st47{fill:#286489;stroke:#574246;stroke-width:0.5;stroke-miterlimit:10;}
	.st48{fill:#F3ECD6;stroke:#574246;stroke-width:0.5;stroke-miterlimit:10;}
	.st49{fill:#FEF2DC;stroke:#574246;stroke-width:0.5;stroke-miterlimit:10;}
	.st50{fill:#574246;stroke:#574246;stroke-width:0.5;stroke-miterlimit:10;}
	.st51{fill:#725F62;stroke:#574246;stroke-width:0.5;stroke-miterlimit:10;}
	.st52{fill:#645053;stroke:#574246;stroke-width:0.5;stroke-miterlimit:10;}
	.st53{fill:#FFFFFF;}
	.st54{fill:#010001;}
	.st55{fill:#272727;}
	.st56{fill:#C5C5C5;}
	.st57{fill:#DCDCDC;stroke:#574246;stroke-width:0.5;stroke-miterlimit:10;}
	.st58{fill:#C5C5C5;stroke:#574246;stroke-width:0.5;stroke-miterlimit:10;}
	.st59{fill:#FBFBFB;stroke:#574246;stroke-width:0.5;stroke-miterlimit:10;}
	.st60{fill:#3B2E2F;}
	.st61{fill:#FDB723;stroke:#574246;stroke-width:0.5;stroke-miterlimit:10;}
	.st62{fill:#F59F24;stroke:#574246;stroke-width:0.5;stroke-miterlimit:10;}
	.st63{fill:#286489;}
	.st64{opacity:0.22;fill:#A3A1AD;}
	.st65{fill:#C92103;stroke:#574246;stroke-width:0.5;stroke-miterlimit:10;}
	.st66{fill:#584446;}
	.st67{fill:#FFB81C;}
	.st68{fill:#FDB723;}
	.st69{fill:#725F62;}
	.st70{fill:#A3AF4E;stroke:#574246;stroke-width:0.15;stroke-miterlimit:10;}
	.st71{fill:#E23333;}
	.st72{fill:#F56F47;}
	.st73{fill:url(#SVGID_21_);stroke:#574246;stroke-width:0.5;stroke-miterlimit:10;}
	.st74{fill:url(#SVGID_22_);stroke:#574246;stroke-width:0.5;stroke-miterlimit:10;}
	.st75{fill:url(#SVGID_23_);stroke:#574246;stroke-width:0.5;stroke-miterlimit:10;}
	.st76{fill:#AC345A;}
	.st77{fill:#CE4762;}
	.st78{fill:url(#SVGID_24_);stroke:#574246;stroke-width:0.5;stroke-miterlimit:10;}
	.st79{fill:url(#SVGID_25_);stroke:#574246;stroke-width:0.5;stroke-miterlimit:10;}
	.st80{fill:url(#SVGID_26_);stroke:#574246;stroke-width:0.5;stroke-miterlimit:10;}
	.st81{fill:url(#SVGID_27_);stroke:#574246;stroke-width:0.5;stroke-miterlimit:10;}
	.st82{fill:url(#SVGID_28_);stroke:#574246;stroke-width:0.5;stroke-miterlimit:10;}
	.st83{fill:url(#SVGID_29_);stroke:#574246;stroke-width:0.5;stroke-miterlimit:10;}
	.st84{fill:url(#SVGID_30_);stroke:#574246;stroke-width:0.5;stroke-miterlimit:10;}
	.st85{fill:url(#SVGID_31_);stroke:#574246;stroke-width:0.5;stroke-miterlimit:10;}
	.st86{fill:url(#SVGID_32_);stroke:#574246;stroke-width:0.5;stroke-miterlimit:10;}
	.st87{fill:url(#SVGID_33_);stroke:#574246;stroke-width:0.5;stroke-miterlimit:10;}
	.st88{fill:url(#SVGID_34_);stroke:#574246;stroke-width:0.5;stroke-miterlimit:10;}
	.st89{fill:url(#SVGID_35_);stroke:#574246;stroke-width:0.5;stroke-miterlimit:10;}
	.st90{fill:url(#SVGID_36_);stroke:#574246;stroke-width:0.5;stroke-miterlimit:10;}
	.st91{fill:url(#SVGID_37_);stroke:#574246;stroke-width:0.5;stroke-miterlimit:10;}
	.st92{fill:url(#SVGID_38_);stroke:#574246;stroke-width:0.5;stroke-miterlimit:10;}
	.st93{fill:url(#SVGID_39_);stroke:#574246;stroke-width:0.5;stroke-miterlimit:10;}
	.st94{fill:url(#SVGID_40_);stroke:#574246;stroke-width:0.5;stroke-miterlimit:10;}
	.st95{fill:url(#SVGID_41_);stroke:#574246;stroke-width:0.5;stroke-miterlimit:10;}
	.st96{fill:url(#SVGID_42_);stroke:#574246;stroke-width:0.5;stroke-miterlimit:10;}
	.st97{fill:url(#SVGID_43_);stroke:#574246;stroke-width:0.5;stroke-miterlimit:10;}
	.st98{fill:url(#SVGID_44_);stroke:#574246;stroke-width:0.5;stroke-miterlimit:10;}
	.st99{fill:url(#SVGID_45_);stroke:#574246;stroke-width:0.5;stroke-miterlimit:10;}
	.st100{fill:url(#SVGID_46_);stroke:#574246;stroke-width:0.5;stroke-miterlimit:10;}
	.st101{fill:url(#SVGID_47_);stroke:#574246;stroke-width:0.5;stroke-miterlimit:10;}
	.st102{fill:url(#SVGID_48_);stroke:#574246;stroke-width:0.5;stroke-miterlimit:10;}
	.st103{fill:url(#SVGID_49_);stroke:#574246;stroke-width:0.5;stroke-miterlimit:10;}
	.st104{fill:url(#SVGID_50_);stroke:#574246;stroke-width:0.5;stroke-miterlimit:10;}
	.st105{fill:url(#SVGID_51_);stroke:#574246;stroke-width:0.5;stroke-miterlimit:10;}
	.st106{fill:url(#SVGID_52_);stroke:#574246;stroke-width:0.5;stroke-miterlimit:10;}
	.st107{fill:url(#SVGID_53_);stroke:#574246;stroke-width:0.5;stroke-miterlimit:10;}
	.st108{fill:url(#SVGID_54_);stroke:#574246;stroke-width:0.5;stroke-miterlimit:10;}
	.st109{fill:url(#SVGID_55_);stroke:#574246;stroke-width:0.5;stroke-miterlimit:10;}
	.st110{fill:url(#SVGID_56_);stroke:#574246;stroke-width:0.5;stroke-miterlimit:10;}
	.st111{fill:url(#SVGID_57_);stroke:#574246;stroke-width:0.5;stroke-miterlimit:10;}
	.st112{fill:url(#SVGID_58_);stroke:#574246;stroke-width:0.5;stroke-miterlimit:10;}
	.st113{fill:url(#SVGID_59_);stroke:#574246;stroke-width:0.5;stroke-miterlimit:10;}
	.st114{fill:url(#SVGID_60_);stroke:#574246;stroke-width:0.5;stroke-miterlimit:10;}
	.st115{fill:url(#SVGID_61_);stroke:#574246;stroke-width:0.5;stroke-miterlimit:10;}
	.st116{fill:url(#SVGID_62_);stroke:#574246;stroke-width:0.5;stroke-miterlimit:10;}
	.st117{fill:#EE7E21;stroke:#574246;stroke-width:0.5;stroke-miterlimit:10;}
	.st118{fill:#B3C150;stroke:#574246;stroke-width:0.5;stroke-miterlimit:10;}
	.st119{fill:#E2E891;stroke:#574246;stroke-width:0.5;stroke-miterlimit:10;}
	.st120{fill:#B2C052;stroke:#574246;stroke-width:0.5;stroke-miterlimit:10;}
	.st121{fill:#979E41;stroke:#574246;stroke-width:0.5;stroke-miterlimit:10;}
	.st122{fill:#FFF2DB;stroke:#574246;stroke-width:0.5;stroke-miterlimit:10;}
	.st123{fill:url(#SVGID_63_);stroke:#574246;stroke-width:0.5;stroke-miterlimit:10;}
	.st124{fill:url(#SVGID_64_);stroke:#574246;stroke-width:0.5;stroke-miterlimit:10;}
	.st125{fill:url(#SVGID_65_);stroke:#574246;stroke-width:0.5;stroke-miterlimit:10;}
	.st126{fill:url(#SVGID_66_);stroke:#574246;stroke-width:0.5;stroke-miterlimit:10;}
	.st127{fill:url(#SVGID_67_);stroke:#574246;stroke-width:0.5;stroke-miterlimit:10;}
	.st128{fill:url(#SVGID_68_);stroke:#574246;stroke-width:0.5;stroke-miterlimit:10;}
	.st129{fill:#C18E4C;stroke:#574246;stroke-width:0.5;stroke-miterlimit:10;}
	.st130{fill:url(#SVGID_69_);stroke:#574246;stroke-width:0.5;stroke-miterlimit:10;}
	.st131{fill:url(#SVGID_70_);stroke:#574246;stroke-width:0.5;stroke-miterlimit:10;}
	.st132{fill:url(#SVGID_71_);stroke:#574246;stroke-width:0.5;stroke-miterlimit:10;}
	.st133{fill:#AC345A;stroke:#574246;stroke-width:0.5;stroke-miterlimit:10;}
	.st134{fill:#FECE74;}
	.st135{fill:#A3AF4E;stroke:#574246;stroke-width:0.5;stroke-miterlimit:10;}
	.st136{fill:url(#SVGID_72_);stroke:#574246;stroke-width:0.5;stroke-miterlimit:10;}
	.st137{fill:url(#SVGID_73_);stroke:#574246;stroke-width:0.5;stroke-miterlimit:10;}
	.st138{fill:url(#SVGID_74_);stroke:#574246;stroke-width:0.5;stroke-miterlimit:10;}
	.st139{fill:url(#SVGID_75_);stroke:#574246;stroke-width:0.5;stroke-miterlimit:10;}
	.st140{fill:url(#SVGID_76_);stroke:#574246;stroke-width:0.5;stroke-miterlimit:10;}
	.st141{fill:url(#SVGID_77_);stroke:#574246;stroke-width:0.5;stroke-miterlimit:10;}
	.st142{fill:url(#SVGID_78_);stroke:#574246;stroke-width:0.5;stroke-miterlimit:10;}
	.st143{fill:url(#SVGID_79_);stroke:#574246;stroke-width:0.5;stroke-miterlimit:10;}
	.st144{fill:url(#SVGID_80_);stroke:#574246;stroke-width:0.5;stroke-miterlimit:10;}
	.st145{fill:url(#SVGID_81_);stroke:#574246;stroke-width:0.5;stroke-miterlimit:10;}
	.st146{fill:url(#SVGID_82_);stroke:#574246;stroke-width:0.5;stroke-miterlimit:10;}
	.st147{fill:#FC1D1D;}
	.st148{fill:#FFD13D;stroke:#574246;stroke-width:0.5;stroke-miterlimit:10;}
	.st149{fill:url(#SVGID_83_);stroke:#574246;stroke-width:0.5;stroke-miterlimit:10;}
	.st150{fill:url(#SVGID_84_);stroke:#574246;stroke-width:0.5;stroke-miterlimit:10;}
	.st151{fill:#554145;}
	.st152{opacity:0.19;}
	.st153{fill:#644F52;}
	.st154{fill:#644F52;stroke:#574246;stroke-width:0;stroke-miterlimit:10;}
	.st155{fill:#F67047;stroke:#574246;stroke-width:0.5;stroke-miterlimit:10;}
	.st156{fill:#FF8C6B;stroke:#574246;stroke-width:0.5;stroke-miterlimit:10;}
	.st157{fill:#FCB384;stroke:#574246;stroke-width:0.5;stroke-miterlimit:10;}
	.st158{fill:#935B31;stroke:#574246;stroke-width:0.5;stroke-miterlimit:10;}
	.st159{fill:#7C4721;}
	.st160{fill:#5F3714;}
	.st161{fill:#482C10;}
	.st162{fill:#FF8C6B;}
	.st163{fill:#8F1805;}
	.st164{fill:#F99D0B;stroke:#574246;stroke-width:0.5;stroke-miterlimit:10;}
	.st165{fill:#8F1701;}
	.st166{fill:#1E597B;}
	.st167{fill:#F99D0B;}
	.st168{fill:#4A373A;stroke:#574246;stroke-width:0.5;stroke-miterlimit:10;}
	.st169{fill:none;stroke:#574246;stroke-width:0.5;stroke-miterlimit:10;}
	.st170{fill:#8D9799;stroke:#574246;stroke-width:0.5;stroke-miterlimit:10;}
	.st171{fill:#838B8D;}
	.st172{fill:#848C8D;stroke:#574246;stroke-width:0.5;stroke-miterlimit:10;}
	.st173{fill:#8C9798;}
	.st174{fill:#EE7E21;}
	.st175{fill:url(#SVGID_85_);}
	.st176{fill:url(#SVGID_86_);}
	.st177{fill:url(#SVGID_87_);}
	.st178{fill:#FDB186;stroke:#574246;stroke-width:0.5;stroke-miterlimit:10;}
	.st179{fill:#896139;stroke:#574246;stroke-width:0.5;stroke-miterlimit:10;}
	.st180{fill:#AF744B;}
	.st181{fill:#838B8D;stroke:#574246;stroke-width:0.5;stroke-miterlimit:10;}
	.st182{fill:url(#SVGID_88_);}
	.st183{fill:url(#SVGID_89_);}
	.st184{fill:url(#SVGID_90_);}
	.st185{fill:url(#SVGID_91_);}
	.st186{fill:url(#SVGID_92_);}
	.st187{fill:url(#SVGID_93_);}
	.st188{fill:url(#SVGID_94_);}
	.st189{fill:url(#SVGID_95_);}
	.st190{fill:url(#SVGID_96_);}
	.st191{fill:url(#SVGID_97_);}
	.st192{fill:url(#SVGID_98_);}
	.st193{fill:url(#SVGID_99_);}
	.st194{fill:url(#SVGID_100_);}
	.st195{fill:url(#SVGID_101_);}
	.st196{fill:url(#SVGID_102_);}
	.st197{fill:url(#SVGID_103_);}
	.st198{fill:url(#SVGID_104_);}
	.st199{fill:url(#SVGID_105_);}
	.st200{fill:url(#SVGID_106_);}
	.st201{fill:url(#SVGID_107_);}
	.st202{fill:url(#SVGID_108_);stroke:#574246;stroke-width:0.5;stroke-miterlimit:10;}
	.st203{fill:url(#SVGID_109_);stroke:#574246;stroke-width:0.5;stroke-miterlimit:10;}
	.st204{fill:url(#SVGID_110_);stroke:#574246;stroke-width:0.5;stroke-miterlimit:10;}
	.st205{fill:url(#SVGID_111_);stroke:#574246;stroke-width:0.5;stroke-miterlimit:10;}
	.st206{fill:url(#SVGID_112_);stroke:#574246;stroke-width:0.5;stroke-miterlimit:10;}
	.st207{fill:url(#SVGID_113_);stroke:#574246;stroke-width:0.5;stroke-miterlimit:10;}
	.st208{fill:url(#SVGID_114_);stroke:#574246;stroke-width:0.5;stroke-miterlimit:10;}
	.st209{fill:url(#SVGID_115_);stroke:#574246;stroke-width:0.5;stroke-miterlimit:10;}
	.st210{fill:url(#SVGID_116_);stroke:#574246;stroke-width:0.5;stroke-miterlimit:10;}
	.st211{fill:url(#SVGID_117_);stroke:#574246;stroke-width:0.5;stroke-miterlimit:10;}
	.st212{fill:url(#SVGID_118_);stroke:#574246;stroke-width:0.5;stroke-miterlimit:10;}
	.st213{fill:url(#SVGID_119_);stroke:#574246;stroke-width:0.5;stroke-miterlimit:10;}
	.st214{fill:url(#SVGID_120_);stroke:#574246;stroke-width:0.5;stroke-miterlimit:10;}
	.st215{fill:url(#SVGID_121_);stroke:#574246;stroke-width:0.5;stroke-miterlimit:10;}
	.st216{fill:url(#SVGID_122_);stroke:#574246;stroke-width:0.5;stroke-miterlimit:10;}
	.st217{fill:url(#SVGID_123_);stroke:#574246;stroke-width:0.5;stroke-miterlimit:10;}
	.st218{fill:url(#SVGID_124_);stroke:#574246;stroke-width:0.5;stroke-miterlimit:10;}
	.st219{fill:url(#SVGID_125_);stroke:#574246;stroke-width:0.5;stroke-miterlimit:10;}
	.st220{fill:url(#SVGID_126_);stroke:#574246;stroke-width:0.5;stroke-miterlimit:10;}
	.st221{fill:url(#SVGID_127_);stroke:#574246;stroke-width:0.5;stroke-miterlimit:10;}
	.st222{fill:url(#SVGID_128_);stroke:#574246;stroke-width:0.5;stroke-miterlimit:10;}
	.st223{fill:url(#SVGID_129_);stroke:#574246;stroke-width:0.5;stroke-miterlimit:10;}
	.st224{fill:url(#SVGID_130_);stroke:#574246;stroke-width:0.5;stroke-miterlimit:10;}
	.st225{fill:url(#SVGID_131_);stroke:#574246;stroke-width:0.5;stroke-miterlimit:10;}
	.st226{fill:url(#SVGID_132_);stroke:#574246;stroke-width:0.5;stroke-miterlimit:10;}
	.st227{fill:url(#SVGID_133_);stroke:#574246;stroke-width:0.5;stroke-miterlimit:10;}
	.st228{fill:url(#SVGID_134_);stroke:#574246;stroke-width:0.5;stroke-miterlimit:10;}
	.st229{fill:url(#SVGID_135_);stroke:#574246;stroke-width:0.5;stroke-miterlimit:10;}
	.st230{fill:url(#SVGID_136_);stroke:#574246;stroke-width:0.5;stroke-miterlimit:10;}
	.st231{fill:url(#SVGID_137_);stroke:#574246;stroke-width:0.5;stroke-miterlimit:10;}
	.st232{fill:url(#SVGID_138_);stroke:#574246;stroke-width:0.5;stroke-miterlimit:10;}
	.st233{fill:url(#SVGID_139_);stroke:#574246;stroke-width:0.5;stroke-miterlimit:10;}
	.st234{fill:url(#SVGID_140_);stroke:#574246;stroke-width:0.5;stroke-miterlimit:10;}
	.st235{fill:url(#SVGID_141_);stroke:#574246;stroke-width:0.5;stroke-miterlimit:10;}
	.st236{fill:url(#SVGID_142_);stroke:#574246;stroke-width:0.5;stroke-miterlimit:10;}
	.st237{fill:url(#SVGID_143_);stroke:#574246;stroke-width:0.5;stroke-miterlimit:10;}
	.st238{fill:url(#SVGID_144_);stroke:#574246;stroke-width:0.5;stroke-miterlimit:10;}
	.st239{fill:url(#SVGID_145_);stroke:#574246;stroke-width:0.5;stroke-miterlimit:10;}
	.st240{fill:url(#SVGID_146_);stroke:#574246;stroke-width:0.5;stroke-miterlimit:10;}
	.st241{fill:url(#SVGID_147_);stroke:#574246;stroke-width:0.5;stroke-miterlimit:10;}
	.st242{fill:url(#SVGID_148_);stroke:#574246;stroke-width:0.5;stroke-miterlimit:10;}
	.st243{fill:url(#SVGID_149_);stroke:#574246;stroke-width:0.5;stroke-miterlimit:10;}
	.st244{fill:url(#SVGID_150_);stroke:#574246;stroke-width:0.5;stroke-miterlimit:10;}
	.st245{fill:url(#SVGID_151_);stroke:#574246;stroke-width:0.5;stroke-miterlimit:10;}
	.st246{fill:url(#SVGID_152_);stroke:#574246;stroke-width:0.5;stroke-miterlimit:10;}
	.st247{fill:url(#SVGID_153_);stroke:#574246;stroke-width:0.5;stroke-miterlimit:10;}
	.st248{fill:url(#SVGID_154_);stroke:#574246;stroke-width:0.5;stroke-miterlimit:10;}
	.st249{fill:url(#SVGID_155_);stroke:#574246;stroke-width:0.5;stroke-miterlimit:10;}
	.st250{fill:url(#SVGID_156_);stroke:#574246;stroke-width:0.5;stroke-miterlimit:10;}
	.st251{fill:url(#SVGID_157_);stroke:#574246;stroke-width:0.5;stroke-miterlimit:10;}
	.st252{fill:url(#SVGID_158_);stroke:#574246;stroke-width:0.5;stroke-miterlimit:10;}
	.st253{fill:url(#SVGID_159_);stroke:#574246;stroke-width:0.5;stroke-miterlimit:10;}
	.st254{fill:url(#SVGID_160_);stroke:#574246;stroke-width:0.5;stroke-miterlimit:10;}
	.st255{fill:url(#SVGID_161_);stroke:#574246;stroke-width:0.5;stroke-miterlimit:10;}
	.st256{fill:url(#SVGID_162_);stroke:#574246;stroke-width:0.5;stroke-miterlimit:10;}
	.st257{fill:url(#SVGID_163_);stroke:#574246;stroke-width:0.5;stroke-miterlimit:10;}
	.st258{fill:url(#SVGID_164_);stroke:#574246;stroke-width:0.5;stroke-miterlimit:10;}
	.st259{fill:url(#SVGID_165_);stroke:#574246;stroke-width:0.5;stroke-miterlimit:10;}
	.st260{fill:url(#SVGID_166_);stroke:#574246;stroke-width:0.5;stroke-miterlimit:10;}
	.st261{fill:url(#SVGID_167_);stroke:#574246;stroke-width:0.5;stroke-miterlimit:10;}
	.st262{fill:url(#SVGID_168_);stroke:#574246;stroke-width:0.5;stroke-miterlimit:10;}
	.st263{fill:url(#SVGID_169_);stroke:#574246;stroke-width:0.5;stroke-miterlimit:10;}
	.st264{fill:url(#SVGID_170_);stroke:#574246;stroke-width:0.5;stroke-miterlimit:10;}
	.st265{fill:url(#SVGID_171_);stroke:#574246;stroke-width:0.5;stroke-miterlimit:10;}
	.st266{fill:url(#SVGID_172_);}
	.st267{fill:url(#SVGID_173_);}
	.st268{fill:url(#SVGID_174_);}
</style>
<g id="Слой_1">
</g>
<g id="Слой_2">
</g>
<g id="Слой_3">
</g>
<g id="фон">
</g>
<g id="_x31__1_">
</g>
<g id="все">
	<g>
		<g>
			<path class="st68" d="M81.01,126.66c-0.16-0.41-0.39-0.8-0.67-1.16c-0.07,0.27-0.21,0.57-0.45,0.78
				c-0.57,0.46-1.51,0.24-1.51,0.24s-0.03-0.97,0.54-1.43c0.22-0.18,0.51-0.26,0.77-0.28c-0.41-0.36-0.87-0.64-1.36-0.83
				c-0.59-0.23-1.21-0.35-1.83-0.35c-0.63,0-1.25,0.12-1.84,0.36c-0.6,0.24-1.14,0.6-1.62,1.08c-0.48,0.48-0.84,1.02-1.07,1.62
				c-0.23,0.59-0.35,1.21-0.35,1.83c0,0.63,0.12,1.24,0.35,1.83c0.23,0.6,0.59,1.14,1.07,1.62l2.31,2.31l0.37,0.37
				c0.42,0.42,1.11,0.42,1.54,0l2.39-2.38c0.01-0.01,0.01-0.01,0.02-0.01c0.1-0.09,0.2-0.18,0.29-0.27
				c0.48-0.48,0.84-1.02,1.08-1.62c0.24-0.6,0.36-1.22,0.36-1.84C81.36,127.87,81.24,127.25,81.01,126.66z M79.68,129.74
				c-0.15,0.33-0.35,0.64-0.61,0.92c-0.66,0.69-1.55,1.03-2.43,1.01c-0.02,0-0.05,0-0.07,0c-1.72,0-3.11-1.39-3.11-3.11
				c0-0.02,0-0.03,0-0.05c-0.02-0.83,0.27-1.67,0.89-2.33c0.26-0.28,0.56-0.5,0.89-0.66c0.98-0.5,2.16-0.05,2.66,0.93
				c0.07,0.15,0.17,0.28,0.3,0.4c0.13,0.12,0.27,0.21,0.42,0.28C79.62,127.59,80.13,128.73,79.68,129.74z"/>
			<path class="st68" d="M69.46,136.67c-0.12,0.05-0.22,0.11-0.3,0.2c-0.09,0.08-0.16,0.18-0.2,0.3c-0.05,0.11-0.08,0.24-0.08,0.37
				c0,0.13,0.03,0.25,0.08,0.37s0.12,0.21,0.21,0.3c0.09,0.08,0.19,0.15,0.3,0.2c0.12,0.05,0.24,0.07,0.36,0.07h0.64
				c0.06,0,0.11,0.01,0.16,0.03c0.05,0.02,0.09,0.05,0.13,0.08c0.04,0.04,0.07,0.08,0.09,0.13c0.02,0.05,0.03,0.1,0.03,0.16
				c0,0.05-0.01,0.1-0.03,0.16c-0.02,0.05-0.05,0.09-0.09,0.13s-0.08,0.06-0.13,0.08c-0.05,0.02-0.1,0.03-0.16,0.03h-1.32
				c-0.15,0-0.27,0.12-0.27,0.26c0,0.14,0.12,0.26,0.27,0.26h1.31c0.13,0,0.25-0.02,0.36-0.07c0.12-0.05,0.22-0.11,0.3-0.2
				c0.09-0.08,0.16-0.18,0.2-0.3c0.05-0.11,0.08-0.23,0.08-0.36c0-0.13-0.03-0.25-0.08-0.37c-0.05-0.11-0.12-0.21-0.21-0.3
				c-0.09-0.08-0.19-0.15-0.3-0.2c-0.12-0.05-0.24-0.07-0.36-0.07h-0.63c-0.06,0-0.11-0.01-0.16-0.03c-0.05-0.02-0.1-0.05-0.13-0.08
				c-0.04-0.03-0.07-0.08-0.09-0.13c-0.02-0.05-0.03-0.1-0.03-0.16c0-0.05,0.01-0.11,0.03-0.16c0.02-0.05,0.05-0.09,0.09-0.13
				c0.04-0.04,0.08-0.06,0.13-0.08c0.05-0.02,0.1-0.03,0.16-0.03h1.31c0.15,0,0.27-0.12,0.27-0.26c0-0.14-0.12-0.26-0.27-0.26h-1.31
				C69.69,136.6,69.57,136.62,69.46,136.67z"/>
			<path class="st68" d="M73.34,136.59c-0.88,0-1.61,0.72-1.64,1.62v1.34c0,0.14,0.12,0.26,0.27,0.26H72c0.15,0,0.27-0.12,0.27-0.26
				v-1.27c0.01-0.62,0.48-1.13,1.07-1.13c0.19,0,0.42,0.08,0.61,0.19c0.13,0.07,0.29,0.03,0.36-0.09l0.02-0.02
				c0.08-0.12,0.04-0.28-0.08-0.36C73.99,136.69,73.67,136.59,73.34,136.59z"/>
			<path class="st68" d="M76.6,137.83c-0.04,0.03-0.08,0.06-0.13,0.08c-0.05,0.02-0.1,0.03-0.16,0.03h-0.9
				c-0.15,0-0.27,0.12-0.27,0.26c0,0.14,0.12,0.26,0.27,0.26h0.9c0.13,0,0.25-0.02,0.36-0.07c0.12-0.05,0.22-0.11,0.3-0.2
				c0.09-0.08,0.16-0.18,0.2-0.3c0.05-0.11,0.08-0.23,0.08-0.36c0-0.13-0.03-0.25-0.08-0.37c-0.05-0.11-0.12-0.21-0.21-0.3
				c-0.09-0.08-0.19-0.15-0.3-0.2c-0.28-0.12-0.92-0.18-1.44,0.05c-0.19,0.08-0.36,0.2-0.5,0.35c-0.14,0.14-0.26,0.32-0.34,0.51
				c-0.08,0.19-0.13,0.41-0.13,0.63c0,0.22,0.04,0.43,0.13,0.63c0.08,0.19,0.2,0.37,0.34,0.51c0.15,0.14,0.31,0.26,0.5,0.35
				c0.19,0.08,0.4,0.13,0.62,0.13h0.97c0.15,0,0.27-0.12,0.27-0.26v-0.01c0-0.14-0.12-0.26-0.27-0.26h-0.96
				c-0.15,0-0.28-0.03-0.41-0.08c-0.13-0.05-0.24-0.13-0.33-0.23c-0.1-0.09-0.17-0.21-0.23-0.34c-0.06-0.13-0.09-0.27-0.09-0.42
				s0.03-0.29,0.09-0.42s0.13-0.25,0.23-0.34c0.1-0.09,0.21-0.17,0.33-0.23c0.37-0.15,0.86-0.13,1.03-0.05
				c0.05,0.02,0.09,0.05,0.13,0.08c0.04,0.04,0.07,0.08,0.09,0.13c0.02,0.05,0.03,0.1,0.03,0.16c0,0.05-0.01,0.1-0.03,0.16
				C76.67,137.75,76.64,137.79,76.6,137.83z"/>
			<path class="st68" d="M80.39,135.36c-0.15,0-0.27,0.12-0.27,0.26v0.95c0,0-0.8-0.01-1.08-0.01c-0.22,0-0.44,0.04-0.63,0.12
				c-0.2,0.08-0.37,0.2-0.52,0.34c-0.15,0.14-0.27,0.32-0.35,0.51c-0.09,0.19-0.13,0.41-0.13,0.63c0,0.22,0.05,0.43,0.13,0.63
				c0.09,0.19,0.2,0.37,0.35,0.51c0.15,0.14,0.32,0.26,0.52,0.34c0.2,0.08,0.41,0.12,0.63,0.12c0.21,0,0.42-0.04,0.6-0.11
				c0.19-0.07,0.36-0.18,0.5-0.31c0.14-0.13,0.26-0.29,0.35-0.47c0.09-0.18,0.15-0.38,0.17-0.58v-2.7
				C80.66,135.48,80.54,135.36,80.39,135.36z M80.03,138.61c-0.06,0.13-0.14,0.24-0.23,0.34c-0.1,0.09-0.22,0.17-0.35,0.23
				c-0.13,0.05-0.27,0.08-0.42,0.08c-0.15,0-0.29-0.03-0.42-0.08c-0.13-0.05-0.25-0.13-0.35-0.23c-0.1-0.09-0.18-0.21-0.23-0.34
				c-0.06-0.13-0.09-0.27-0.09-0.41c0-0.14,0.03-0.29,0.09-0.42c0.06-0.13,0.14-0.25,0.23-0.34c0.1-0.09,0.22-0.17,0.35-0.23
				c0.13-0.05,0.27-0.08,0.42-0.08c0.15,0,0.29,0.03,0.42,0.08c0.13,0.05,0.25,0.13,0.35,0.23c0.1,0.09,0.18,0.21,0.23,0.34
				c0.06,0.13,0.09,0.27,0.09,0.42C80.12,138.34,80.09,138.48,80.03,138.61z"/>
			<path class="st68" d="M84.01,137.58c-0.09-0.19-0.2-0.37-0.35-0.51c-0.15-0.14-0.32-0.26-0.52-0.34
				c-0.2-0.08-0.41-0.12-0.63-0.12c-0.23,0-0.44,0.04-0.63,0.12c-0.2,0.08-0.37,0.2-0.51,0.34c-0.15,0.14-0.27,0.32-0.35,0.51
				c-0.09,0.19-0.13,0.41-0.13,0.63c0,0.22,0.05,0.43,0.13,0.63c0.09,0.19,0.2,0.36,0.35,0.51c0.15,0.14,0.32,0.26,0.51,0.34
				c0.2,0.08,0.41,0.12,0.63,0.12h1.08h0.18c0.2,0,0.36-0.16,0.36-0.36v-1.11v0c0.01-0.04,0.01-0.08,0.01-0.13
				C84.14,137.99,84.09,137.78,84.01,137.58z M83.55,138.64c-0.06,0.13-0.14,0.24-0.23,0.34c-0.1,0.09-0.22,0.17-0.35,0.23
				c-0.13,0.05-0.27,0.08-0.42,0.08c-0.15,0-0.29-0.03-0.42-0.08c-0.13-0.05-0.25-0.13-0.35-0.23c-0.1-0.09-0.18-0.21-0.23-0.34
				c-0.06-0.13-0.09-0.27-0.09-0.41c0-0.14,0.03-0.29,0.09-0.42c0.06-0.13,0.14-0.25,0.23-0.34c0.1-0.09,0.22-0.17,0.35-0.23
				c0.13-0.05,0.27-0.08,0.42-0.08c0.15,0,0.29,0.03,0.42,0.08c0.13,0.05,0.25,0.13,0.35,0.23c0.1,0.09,0.18,0.21,0.23,0.34
				c0.06,0.13,0.09,0.27,0.09,0.42C83.64,138.37,83.61,138.51,83.55,138.64z"/>
		</g>
		<polygon class="st156" points="72.81,64.5 72.81,85.11 93.48,113.06 98.64,78.96 98.64,66.63 		"/>
		<path class="st157" d="M113.75,36.6c0-3.19-1.78-5.82-4.06-6.16v-8.7c0-10.05-8.01-18.2-17.89-18.2h-6.88
			c-9.88,0-17.89,8.15-17.89,18.2v9.18c-0.62-0.33-1.31-0.52-2.03-0.52c-2.81,0-5.08,2.78-5.08,6.2c0,3.42,2.27,6.2,5.08,6.2
			c0.72,0,1.41-0.19,2.03-0.52V52.5c0,10.05,8.01,18.2,17.89,18.2h6.88c9.88,0,17.89-8.15,17.89-18.2v-9.74
			C111.98,42.42,113.75,39.79,113.75,36.6z"/>
		<path class="st158" d="M77.98,13.87c0,0,7.23,7.23,15.5,7.23s11.37-2.07,11.37-2.07s1.14-0.81,3.1,5.17
			c1.11,3.4,2.07,6.58,2.07,6.58s0.47-8.56-0.28-12.22s-0.75-3.66-0.75-3.66s2.07-1.03,3.1-5.17s0-8.73,0-8.73s-1.03,3.56-7.23,3.56
			c-6.2,0-14.47-6.2-22.73-2.07s-12.4,4.13-15.5,9.3c-3.1,5.17,0,19.12,0,19.12S79.01,21.1,77.98,13.87z"/>
		<path class="st159" d="M73.16,30.86c0,0,1.63-3.81,5.44-5.44c2.24-0.96,6.58-1.46,7.07,0.54c0.16,0.64,0.16,1.09,0.09,1.42
			c-0.1,0.47-0.57,0.77-1.04,0.67c-1.15-0.24-3.84-0.71-6.66,0.09C74.25,29.23,73.16,30.86,73.16,30.86z"/>
		<path class="st159" d="M108.26,31.06c0,0-1.63-3.81-5.44-5.44c-2.24-0.96-6.58-1.46-7.07,0.54c-0.16,0.64-0.16,1.09-0.09,1.42
			c0.1,0.47,0.57,0.77,1.04,0.67c1.15-0.24,3.84-0.71,6.66,0.09C107.17,29.43,108.26,31.06,108.26,31.06z"/>
		<path class="st53" d="M86,35.23c0.43,0.54,0.21,1.35-0.43,1.6c-1.2,0.48-2.04,0.56-4.76,0.56c-2.35,0-3.5-0.25-4.53-0.74
			c-0.8-0.38-1-1.44-0.41-2.1c1.15-1.29,2.89-3.15,4.94-3.15C84.07,31.41,84.86,33.79,86,35.23z"/>
		<path class="st53" d="M95.86,35.23c-0.43,0.54-0.21,1.35,0.43,1.6c1.2,0.48,2.04,0.56,4.76,0.56c2.35,0,3.5-0.25,4.53-0.74
			c0.8-0.38,1-1.44,0.41-2.1c-1.15-1.29-2.89-3.15-4.94-3.15C97.79,31.41,97,33.79,95.86,35.23z"/>
		<circle class="st63" cx="101.17" cy="34.4" r="2.99"/>
		<path class="st160" d="M75.84,34.53c0.58-0.91,1.24-1.8,2.13-2.5c0.44-0.36,0.94-0.65,1.49-0.87c0.54-0.21,1.2-0.29,1.76-0.24
			c0.57,0.05,1.17,0.15,1.71,0.41c0.54,0.26,1.03,0.61,1.41,1.05c0.38,0.43,0.68,0.9,0.95,1.38l0.72,1.45l-0.04,0.03
			c-0.66-0.85-1.15-1.82-1.93-2.56c-0.75-0.75-1.8-1.18-2.86-1.22c-1.07-0.13-2.11,0.3-2.97,0.91c-0.88,0.61-1.62,1.39-2.34,2.18
			L75.84,34.53z"/>
		<circle class="st63" cx="80.69" cy="34.4" r="2.99"/>
		<circle class="st161" cx="101.25" cy="34.38" r="1.92"/>
		<circle class="st161" cx="80.71" cy="34.38" r="1.92"/>
		<circle class="st53" cx="78.6" cy="33.58" r="1.09"/>
		<circle class="st53" cx="98.73" cy="33.58" r="1.09"/>
		<path class="st160" d="M106.01,34.53c-0.58-0.91-1.24-1.8-2.13-2.5c-0.44-0.36-0.94-0.65-1.49-0.87c-0.54-0.21-1.2-0.29-1.76-0.24
			c-0.57,0.05-1.17,0.15-1.71,0.41c-0.54,0.26-1.03,0.61-1.41,1.05c-0.38,0.43-0.68,0.9-0.95,1.38l-0.72,1.45l0.04,0.03
			c0.66-0.85,1.15-1.82,1.93-2.56c0.75-0.75,1.8-1.18,2.86-1.22c1.07-0.13,2.11,0.3,2.97,0.91c0.88,0.61,1.62,1.39,2.34,2.18
			L106.01,34.53z"/>
		<path class="st162" d="M91.66,45.55c-2.4,0-4.39-0.96-4.81-2.22c-0.05,0.19-0.08,0.39-0.08,0.59c0,1.8,2.19,3.26,4.89,3.26
			c2.7,0,4.89-1.46,4.89-3.26c0-0.2-0.03-0.4-0.08-0.59C96.05,44.59,94.05,45.55,91.66,45.55z"/>
		<path class="st162" d="M110.69,32.49c-0.19,0-0.37,0.04-0.54,0.11v2.17c0.94,0.3,1.63,1.36,1.63,2.62c0,0.26-0.04,0.51-0.1,0.76
			c0.7-0.5,1.18-1.5,1.18-2.66C112.86,33.83,111.89,32.49,110.69,32.49z"/>
		<path class="st162" d="M66.1,33.9c-0.54-0.85-1.43-1.4-2.45-1.4c-1.65,0-2.99,1.46-2.99,3.26c0,0.71,0.21,1.36,0.56,1.89
			c-0.01-0.09-0.01-0.17-0.01-0.26c0-1.8,1.58-3.26,3.53-3.26c0.48,0,0.94,0.09,1.36,0.25V33.9z"/>
		<path class="st158" d="M109.6,29.23c0,0-0.54,15.77-4.35,17.95c-3.3,1.88-4.56-0.31-10.48-0.93c-0.85,0.48-1.95,0.77-3.16,0.77
			c-1.2,0-2.3-0.29-3.15-0.77c-6.15,0.63-8.42,2.81-13.12,0.93C69.9,45,67.29,30.17,67.29,30.17l-0.58,0.51v22.06
			c0,10.05,8.15,18.2,18.2,18.2h7c10.05,0,18.2-8.15,18.2-18.2V30.68L109.6,29.23z"/>
		<path class="st163" d="M80.69,51.38l21.3,0.15c0,0-2.18,8.16-9.25,8.16C85.67,59.68,80.69,51.38,80.69,51.38z"/>
		<path class="st53" d="M94.3,55.53h-3.08c-3.91,0-7.67-1.48-10.53-4.15v0l21.3,0.15l0,0c-1.34,2.47-3.92,4-6.73,4H94.3z"/>
		<path class="st61" d="M69.36,74.91c0,0-18.49,7.07-23.93,9.25s-13.05,12.51-16.31,19.58s-7.07,21.75-7.07,21.75l-3.26,10.33
			l21.48,6.87l5.71-9.04l4.35-12.51l-1.09,83.75l73.96-10.33l-1.97-54.65l23.72-9.52c0,0-9.25-29.37-16.86-38.07
			c-7.61-8.7-17.51-10.77-22.08-12.72c-4.57-1.96-6.2,1.75-6.2,1.75l-6.53,22.4L83.3,88.89L69.36,74.91z"/>
		<path class="st164" d="M78.6,101.04c0,0-6.53-9.81-9.25-17.43s0-10.26,0-10.26s2.6-2.1,4.02,0c1.42,2.1,2.51,6.28,8.49,11.8
			c5.98,5.52,7.61,8.79,8.16,10.42s1.31,4.3,1.31,4.3s3.58-11.37,4.67-13.54c1.09-2.18,2.18-6.53,2.18-9.79s0.54-4.12,0.54-4.12
			s3.26,1.4,4.89,5.75s1.63,19.03,1.63,19.03s-3.26-6.53-5.98-4.35s-6.53,11.42-6.53,11.42v18.49h-2.69v-21.75
			c0,0-4.93-11.42-8.73-8.7S78.6,101.04,78.6,101.04z"/>
		<ellipse class="st165" cx="91.38" cy="119.78" rx="0.82" ry="1.36"/>
		<ellipse class="st165" cx="91.38" cy="104.01" rx="0.82" ry="1.36"/>
		<path class="st47" d="M51.13,81.92c0,0,18.36,35.25,15.57,54.36C63.92,155.4,48.8,168.2,48.8,168.2s-0.98,43.54,0,70.84
			s2.62,52.32,3.7,64.82s15.23,9.79,15.23,9.79s8.7-5.98,8.7-7.07c0-1.09,4.89-48.4,4.89-54.93s0.54-33.07,0.54-33.07l13.6,0.44
			c0,0,2.18,19.58,3.26,26.65c1.09,7.07,3.81,19.03,3.81,19.03s-1.09,25.02-1.09,34.81c0,9.79,25.02,3.81,25.02,3.81l1.63-10.33
			c0,0,1.63-21.75,1.63-29.91c0-8.16-7.49-95.35-7.49-95.35s-8.82-20.48-8.82-34.08s4.16-49.41,4.16-49.41l-8.53-3.51l-4.88,43.13
			H75.88c0,0-6.93-25.02-11.35-35.08c-4.42-10.06-5.16-10.04-5.16-10.04L51.13,81.92z"/>
		<rect x="74.25" y="131.47" class="st166" width="32.09" height="25.56"/>
		<polygon class="st166" points="48.46,189.49 66.1,170.63 74.25,170.63 74.25,203.8 48.36,203.8 		"/>
		<polygon class="st166" points="108.51,168.45 108.51,203.13 125.22,203.13 123.54,183.15 114.08,168.45 		"/>
		<path class="st166" d="M63.3,307.13c0-1.63-8.7-42.96-9.25-53.3c-0.54-10.33,0.31-90.26,0.31-90.26l-4.56,4.62
			c0,0-1.1,56.48,0.21,76.49s3.8,61.17,3.8,61.17L63.3,307.13z"/>
		<path class="st166" d="M102.45,298.5c0,0,0.98-21.14,0.76-26.88c-0.22-5.75,0.32-7.92,0.32-7.92s-3.82-20.11-4.9-27.19
			c-1.08-7.07-2.17-18.49-2.17-18.49l-13.6-0.44v-2l16.31-1.37c0,0,5.44,41.87,6.53,46.77s0,14.19,3.81,24.77
			c3.81,10.58,5.98,14.93,5.98,14.93L102.45,298.5z"/>
		<polygon class="st167" points="50.82,165.17 55.37,160.55 52.29,119.74 		"/>
		<polygon class="st50" points="50.32,296.25 79.5,296.25 74.25,352.27 82.95,361.51 82.95,365.4 49.4,365.4 49.4,361.08 
			53.59,351.18 		"/>
		<path class="st50" d="M99.12,296.25h30.61l-4.89,53.84l28.28,11.42v3.89l-29.91-0.08l-4.89-3.26h-2.72v3.35l-14.14-0.08v-12.51
			c0,0,0.54-2.18,0.54-10.33S99.12,296.25,99.12,296.25z"/>
		<rect x="49.24" y="363.14" class="st168" width="33.72" height="2.18"/>
		<polygon class="st168" points="153.11,365.32 123.2,365.32 119.93,363.14 153.11,363.14 		"/>
		<rect x="101.44" y="363.14" class="st168" width="14.14" height="2.18"/>
		<path class="st168" d="M51.32,356.54c0,0,8.79-10.8,7.16-24.94c-1.63-14.14-6.25-35.35-6.25-35.35h-1.9l3.26,54.93L51.32,356.54z"
			/>
		<path class="st168" d="M100.7,296.25c0,0,7.27,29.91,6.73,39.7c-0.54,9.79-5.98,19.48-5.98,19.48s0-2.07,0-2.62
			c0-0.54,0.54-5.44,0.54-10.33s-2.87-46.23-2.87-46.23H100.7z"/>
		<path class="st169" d="M1.38,246.49c0-14.57,11.32-26.38,25.29-26.38s25.29,11.81,25.29,26.38"/>
		<path class="st170" d="M0.29,244.59l8.16,52.75c0,1.8,8.28,3.26,18.49,3.26s18.49-1.46,18.49-3.26l7.07-52.75H0.29z"/>
		<path class="st171" d="M13.4,249.17c0,0-3.39,16.16,3.13,29.76c6.53,13.6,17.42,20.49,17.42,20.49s-7.84,0.25-12.91-0.06
			c-5.06-0.31-10.2-1.26-10.89-2.14s-0.29-1.52-1.04-3.11c-0.74-1.59-7.52-48.63-7.52-48.63L13.4,249.17z"/>
		<ellipse class="st172" cx="26.4" cy="245.13" rx="26.1" ry="5.98"/>
		<ellipse class="st173" cx="26.4" cy="245.12" rx="25.02" ry="4.91"/>
		<g>
			<g>
				<path class="st174" d="M13.72,249.35c-0.45-0.48-0.86-0.99-1.22-1.52c-2.04-3.06-1.88-5.02-0.59-6.15
					c0.77-0.68,1.94-1.06,3.29-1.22c0.27-0.04,0.54-0.05,0.82-0.07c2.42-0.11,4.98,5.19,6.77,9.62
					C18.04,249.86,16.95,249.86,13.72,249.35z"/>
				<path class="st5" d="M15.7,234.74c-1.49-0.68-2.14,3.91-1.73,5.96c-0.02,0.01-0.04,0.01-0.07,0.02
					c-0.97-1.91-7.58-14.58-12.41-14.74c-5.16-0.17,6.19,9.6,12.29,14.77c0,0-0.01,0-0.01,0c-1.39-1.07-7.99-5.74-12.38-1.64
					c0,0-0.52,1.7,2.47,1.27c2.87-0.42,6.17-1,9.74,0.42c-0.66,0.21-1.24,0.49-1.67,0.87c0,0,2.63,0.14,3.29-1.22
					c-0.34,0.04-0.68,0.09-0.99,0.16C14.88,239.44,17.02,235.35,15.7,234.74z"/>
			</g>
			<g>
				<g>
					<linearGradient id="SVGID_1_" gradientUnits="userSpaceOnUse" x1="21.2618" y1="215.2529" x2="21.2618" y2="237.8501">
						<stop  offset="1.118836e-07" style="stop-color:#B2C052"/>
						<stop  offset="1" style="stop-color:#979E41"/>
					</linearGradient>
					<path class="st0" d="M26.34,237.85c0,0-3.65-0.62-6.28-5.01c-2.63-4.39-1.58-4.46-1.15-6.59c0.48-2.39-0.36-1.59-1.81-2.74
						c-1.75-1.38-1.47-2.54-1.75-3.9c-0.18-0.85-0.13-2.57-0.08-3.74c0.03-0.52,0.62-0.8,1.03-0.48c1.27,0.98,3.96,1.97,5.08,2.91
						c1.63,1.36,2.2,3.13,3.37,5.64c1.16,2.51-0.16,4.77-0.16,6.34c0,1.57,0.8,2.25,1.76,3.78c0.96,1.53,0.96,0.17,0.96,1.53
						C27.31,236.96,26.34,237.85,26.34,237.85z"/>
					<linearGradient id="SVGID_2_" gradientUnits="userSpaceOnUse" x1="34.207" y1="213.3169" x2="34.207" y2="240.2065">
						<stop  offset="1.118836e-07" style="stop-color:#B2C052"/>
						<stop  offset="1" style="stop-color:#979E41"/>
					</linearGradient>
					<path class="st8" d="M30.52,238.05c0,0,5.07-2.02,5.92-3.09s0.37-2.95,1.05-4.1c1.91-3.22,1.4-2.15,3.78-4.61
						c0,0,0.88-1.86,1.38-4.04c0.81-3.48-0.04-4.35-1.74-6.96c-1.7-2.61-2.55-1.82-2.55-1.82s-0.23,1.73-2.26,4.73
						s-5.12,3.72-5.02,7.27c0.09,3.55-0.44,4.82-0.66,7.41c-0.22,2.58,0.46,1.39-0.22,2.58s-4.29-0.9-4.29-0.9
						S23.33,244.46,30.52,238.05z"/>
					<linearGradient id="SVGID_3_" gradientUnits="userSpaceOnUse" x1="28.6312" y1="213.6712" x2="28.6312" y2="237.5665">
						<stop  offset="1.118836e-07" style="stop-color:#B2C052"/>
						<stop  offset="1" style="stop-color:#979E41"/>
					</linearGradient>
					<path class="st9" d="M27.06,217.3c0,0-3.21,2.13-2.08,5.56c1.13,3.43-0.2,6.23,0.01,7.7s0.92,1.11,1.36,3.87
						s1.11,3.15,1.11,3.15s4.36-2.53,2.95-4.37c-1.41-1.84,0.37-8.02,1.55-11.07c1.07-2.78,0.41-5.51-0.95-8.07
						c-0.29-0.54-1.09-0.51-1.31,0.07C28.6,216.99,27.06,217.3,27.06,217.3z"/>
					<path class="st76" d="M15.77,215.27c0.08,1.09-0.17,1.55,0.1,2.6c0.14,0.52,0.3,1.04,0.51,1.54c0.21,0.5,0.45,0.99,0.77,1.42
						c0.16,0.22,0.33,0.43,0.52,0.61c0.19,0.19,0.41,0.34,0.63,0.5c0.44,0.32,0.89,0.63,1.32,0.98c0.21,0.18,0.42,0.37,0.58,0.61
						c0.16,0.23,0.28,0.5,0.34,0.78c0.14,0.55,0.15,1.1,0.17,1.65c0.03,1.09,0,2.18,0.12,3.25c0.06,0.53,0.15,1.06,0.33,1.55
						c0.18,0.5,0.43,0.96,0.76,1.37c0.32,0.42,0.7,0.8,1.1,1.15c0.2,0.18,0.41,0.34,0.62,0.52c0.21,0.17,0.43,0.34,0.64,0.52
						c0.42,0.35,0.83,0.72,1.23,1.11c0.2,0.19,0.39,0.39,0.58,0.61c0.09,0.11,0.18,0.22,0.27,0.33c0.04,0.06,0.09,0.12,0.13,0.18
						c0.02,0.03,0.04,0.07,0.06,0.1c0.02,0.04,0.04,0.06,0.06,0.14l0.47,4.33c0.01,0.02-0.57,0.02-0.58,0
						c-0.01-0.02-0.45-4.27-0.46-4.3c-0.03-0.05-0.07-0.1-0.1-0.15c-0.07-0.1-0.15-0.21-0.24-0.31c-0.17-0.2-0.35-0.4-0.54-0.59
						c-0.37-0.38-0.77-0.75-1.18-1.1c-0.2-0.18-0.41-0.35-0.62-0.53c-0.21-0.18-0.42-0.36-0.62-0.54c-0.41-0.38-0.79-0.78-1.13-1.23
						c-0.34-0.45-0.61-0.96-0.78-1.49c-0.18-0.53-0.27-1.09-0.32-1.64c-0.1-1.1-0.04-2.2-0.05-3.28c-0.01-0.54-0.02-1.09-0.13-1.6
						c-0.1-0.52-0.42-0.95-0.83-1.29c-0.41-0.35-0.86-0.66-1.29-1c-0.21-0.17-0.44-0.33-0.63-0.53c-0.2-0.2-0.37-0.41-0.53-0.64
						c-0.31-0.45-0.55-0.95-0.75-1.46c-0.2-0.51-0.35-1.04-0.48-1.57C15.55,216.82,15.83,216.36,15.77,215.27z"/>
					<path class="st76" d="M40.91,215.25c-0.08,1.21-0.3,2.41-0.66,3.57c-0.37,1.15-0.89,2.29-1.72,3.19
						c-0.21,0.23-0.44,0.43-0.69,0.61c-0.25,0.18-0.51,0.33-0.77,0.49c-0.51,0.32-1.04,0.62-1.53,0.96
						c-0.49,0.33-0.92,0.76-1.06,1.33c-0.16,0.56-0.17,1.17-0.18,1.77c-0.01,1.2,0.05,2.42-0.12,3.65
						c-0.09,0.61-0.26,1.22-0.55,1.78c-0.29,0.56-0.69,1.05-1.13,1.49c-0.88,0.89-1.95,1.51-2.91,2.21
						c-0.49,0.35-0.97,0.71-1.43,1.09c-0.23,0.19-0.45,0.39-0.66,0.59c-0.1,0.1-0.21,0.21-0.3,0.31c-0.05,0.05-0.09,0.11-0.13,0.16
						c-0.02,0.03-0.04,0.05-0.06,0.08c-0.01,0.01-0.01,0.02-0.02,0.04c0,0.01-0.01,0.01-0.01,0.01c0,0-0.21,0.46-0.21,0.45
						l-0.29-0.63c0.01-0.03,0.02-0.04,0.03-0.06c0.01-0.01,0.01-0.03,0.02-0.04c0.01-0.02,0.03-0.04,0.04-0.06
						c0.03-0.04,0.05-0.07,0.08-0.11c0.05-0.07,0.11-0.13,0.16-0.19c0.11-0.12,0.22-0.23,0.33-0.34c0.23-0.21,0.46-0.41,0.7-0.61
						c0.48-0.39,0.97-0.74,1.47-1.09c1-0.7,2.06-1.29,2.9-2.12c0.43-0.41,0.81-0.86,1.08-1.37c0.28-0.51,0.45-1.08,0.54-1.67
						c0.19-1.18,0.14-2.39,0.18-3.6c0.02-0.61,0.04-1.22,0.23-1.83c0.04-0.15,0.11-0.3,0.18-0.44c0.08-0.13,0.17-0.27,0.28-0.39
						c0.1-0.12,0.22-0.22,0.34-0.33c0.12-0.09,0.24-0.19,0.37-0.27c0.51-0.34,1.04-0.63,1.56-0.94c0.26-0.16,0.52-0.31,0.77-0.47
						c0.24-0.18,0.47-0.36,0.68-0.58c0.84-0.86,1.37-1.98,1.76-3.12C40.57,217.65,40.81,216.45,40.91,215.25z"/>
					<path class="st76" d="M30.57,214.22c0.09,1,0.07,1.22,0.06,2.23c-0.02,1.01-0.08,2.02-0.3,3.01c-0.11,0.49-0.27,0.99-0.55,1.42
						c-0.26,0.43-0.52,0.86-0.75,1.3c-0.23,0.44-0.41,0.9-0.5,1.39c-0.09,0.48-0.12,0.98-0.11,1.48c0.02,0.99,0.18,1.99,0.29,2.99
						c0.11,1,0.21,2.01,0.16,3.04c-0.04,1.02-0.21,2.02-0.38,3.02c-0.09,0.5-0.18,0.99-0.29,1.49c-0.06,0.25-0.12,0.5-0.19,0.75
						c-0.04,0.13-0.08,0.25-0.13,0.38c-0.03,0.07-0.05,0.13-0.09,0.2c-0.02,0.04-0.03,0.25-0.07,0.29c-0.02,0.03,0.1-0.02,0.04,0.02
						c0.15,0.25-0.11,0.17-0.13,0.18c-0.02,0.01-0.13,0.18-0.16,0.19c-0.03,0-0.58,0.86-0.62,0.84c-0.02-0.01-0.49-0.55-0.51-0.56
						c-0.33,1.49-0.03,3.05-0.07,3.01l0.53-0.26c-0.04-0.04-0.13-2.43-0.15-2.45c-0.02-0.01-0.08,5.72-0.09,5.71
						c-0.03-0.01,0.23-4.48,0.2-4.48c-0.03,0,0.11-0.98,0.1-0.98c-0.02,0.01-0.27,0.31-0.28,0.31c-0.03,0.02,0.22-0.28,0.22-0.28
						c0,0-0.15,0.49-0.14,0.47c0.02-0.04,0.73-2.36,0.75-2.41c0.04-0.1,0.08-0.22,0.12-0.33c0.07-0.23,0.14-0.47,0.2-0.71
						c0.12-0.48,0.22-0.97,0.32-1.46c0.19-0.98,0.38-1.97,0.44-2.95c0.07-0.99,0-1.99-0.09-2.98c-0.08-1-0.23-2-0.23-3.02
						c0-0.51,0.03-1.02,0.14-1.52c0.11-0.5,0.3-0.98,0.54-1.43c0.24-0.45,0.51-0.87,0.78-1.3c0.28-0.41,0.44-0.88,0.56-1.36
						c0.24-0.97,0.32-1.98,0.36-2.98C30.59,215.44,30.64,215.22,30.57,214.22z"/>
					<polygon class="st76" points="23.86,234.36 23.95,230.86 24.05,234.36 					"/>
					<path class="st76" d="M25.27,235.68c-0.03-0.02-0.06-0.04-0.09-0.06l-0.11-0.05c-0.07-0.04-0.16-0.07-0.24-0.1
						c-0.16-0.06-0.33-0.12-0.5-0.17c-0.33-0.1-0.67-0.2-1.01-0.28c-0.68-0.18-1.37-0.34-2.06-0.49c0.69,0.12,1.39,0.25,2.08,0.4
						c0.34,0.07,0.69,0.15,1.03,0.24c0.17,0.04,0.34,0.09,0.51,0.15c0.08,0.03,0.17,0.05,0.25,0.09l0.13,0.06l0.13,0.09
						L25.27,235.68z"/>
					<polygon class="st76" points="21.13,231.38 22.2,225.91 21.32,231.41 					"/>
					<path class="st76" d="M20.56,229.12c-0.01-0.02-0.01-0.03-0.02-0.05l-0.04-0.08l-0.09-0.15c-0.06-0.1-0.13-0.2-0.2-0.3
						c-0.14-0.2-0.28-0.4-0.42-0.6c-0.29-0.4-0.58-0.79-0.88-1.18c0.32,0.37,0.64,0.74,0.95,1.12c0.16,0.19,0.31,0.38,0.46,0.57
						c0.08,0.1,0.15,0.2,0.22,0.3l0.11,0.16l0.05,0.09c0.02,0.02,0.03,0.08,0.04,0.12L20.56,229.12z"/>
					<polygon class="st76" points="20.57,225.4 21.26,222.13 20.75,225.43 					"/>
					<polygon class="st76" points="18.35,222.21 16.08,221.03 18.43,222.04 					"/>
					<polygon class="st76" points="28.58,229.3 30.59,226.44 28.73,229.4 					"/>
					<path class="st76" d="M28.46,232.29c-0.01-0.03-0.03-0.07-0.04-0.1l-0.06-0.11c-0.04-0.07-0.1-0.14-0.14-0.21
						c-0.1-0.14-0.21-0.28-0.32-0.41c-0.22-0.27-0.45-0.54-0.69-0.8c-0.47-0.53-0.95-1.04-1.44-1.55c0.51,0.49,1.01,0.98,1.51,1.48
						c0.25,0.25,0.49,0.51,0.72,0.77c0.12,0.13,0.23,0.27,0.34,0.41c0.05,0.07,0.11,0.14,0.16,0.22l0.07,0.12l0.06,0.14
						L28.46,232.29z"/>
					<polygon class="st76" points="28.15,225.3 32.07,221.35 28.28,225.43 					"/>
					<path class="st76" d="M28.18,223.85c0-0.02,0.01-0.02,0.01-0.06l0.01-0.08l0.01-0.18c0-0.12,0-0.24,0-0.36
						c0-0.24-0.01-0.49-0.02-0.73c-0.02-0.49-0.04-0.98-0.08-1.47c0.06,0.49,0.12,0.97,0.17,1.46c0.03,0.24,0.05,0.49,0.06,0.73
						c0.01,0.12,0.02,0.25,0.02,0.37l0,0.19l-0.01,0.1c0,0.03-0.02,0.08-0.03,0.12L28.18,223.85z"/>
					<polygon class="st76" points="29.88,220.38 32.27,218.05 30.01,220.51 					"/>
					<polygon class="st76" points="30.36,218.91 29.12,216.67 30.52,218.82 					"/>
					<polygon class="st76" points="33.07,232.9 35.78,230.69 33.19,233.04 					"/>
					<path class="st76" d="M29.9,235.55c0.02-0.03,0.04-0.06,0.07-0.08l0.06-0.11c0.04-0.07,0.07-0.16,0.11-0.23
						c0.07-0.16,0.13-0.32,0.19-0.49c0.12-0.33,0.23-0.66,0.33-1c0.21-0.67,0.4-1.35,0.58-2.03c-0.15,0.69-0.32,1.37-0.5,2.06
						c-0.09,0.34-0.18,0.68-0.29,1.02c-0.05,0.17-0.11,0.34-0.17,0.5c-0.04,0.08-0.06,0.17-0.11,0.25l-0.06,0.12l-0.09,0.13
						L29.9,235.55z"/>
					<polygon class="st76" points="30.03,235.49 35.46,234.25 30.07,235.67 					"/>
					<path class="st76" d="M33.88,230.1c0-0.06-0.02-0.18-0.05-0.28c-0.03-0.1-0.06-0.2-0.09-0.3c-0.07-0.2-0.14-0.4-0.21-0.6
						c-0.15-0.4-0.31-0.8-0.47-1.19c-0.32-0.79-0.65-1.58-1-2.36c0.37,0.77,0.73,1.55,1.08,2.33c0.17,0.39,0.35,0.78,0.51,1.18
						c0.08,0.2,0.16,0.4,0.24,0.6c0.04,0.1,0.07,0.2,0.11,0.31c0.02,0.05,0.03,0.11,0.04,0.16c0.01,0.06,0.03,0.11,0.02,0.19
						L33.88,230.1z"/>
					<polygon class="st76" points="34.3,227.52 39.06,225.43 34.37,227.68 					"/>
					<polygon class="st76" points="33.12,233.11 33.18,230.55 33.31,233.11 					"/>
					<path class="st76" d="M34.08,226.01c0.01-0.03,0.02-0.07,0.03-0.1l0.01-0.12c0.01-0.08,0.01-0.17,0.01-0.26
						c0-0.17-0.01-0.35-0.02-0.52c-0.02-0.35-0.05-0.7-0.09-1.05c-0.07-0.7-0.16-1.4-0.26-2.1c0.13,0.69,0.25,1.39,0.36,2.08
						c0.05,0.35,0.1,0.7,0.14,1.05c0.02,0.18,0.03,0.35,0.04,0.53c0,0.09,0.01,0.18,0,0.27l-0.01,0.14l-0.04,0.15L34.08,226.01z"/>
					<polygon class="st76" points="36.43,223.3 40.28,222.24 36.49,223.47 					"/>
					<path class="st76" d="M36.33,223.32c0.01-0.01,0.03-0.06,0.04-0.1c0.02-0.04,0.03-0.09,0.04-0.14c0.02-0.1,0.04-0.2,0.06-0.3
						c0.04-0.2,0.07-0.4,0.1-0.6c0.06-0.4,0.11-0.81,0.16-1.22c0.09-0.81,0.18-1.63,0.25-2.45c-0.04,0.82-0.09,1.64-0.16,2.46
						c-0.03,0.41-0.07,0.82-0.11,1.23c-0.02,0.2-0.05,0.41-0.08,0.61c-0.02,0.1-0.03,0.2-0.05,0.31c-0.01,0.05-0.02,0.1-0.04,0.16
						c-0.01,0.03-0.02,0.05-0.03,0.08c-0.01,0.03-0.03,0.06-0.05,0.09L36.33,223.32z"/>
					<polygon class="st76" points="39.68,219.92 39.06,216.67 39.86,219.88 					"/>
					<polygon class="st76" points="40.1,218.93 41.27,217.3 40.26,219.03 					"/>
				</g>
				<g>
					<path class="st76" d="M18.32,249.86c-0.12-0.49-0.2-1.03-0.24-1.63c-0.58-8.88,3.87-7.76,11.64-7.59
						c4.09,0.09,6.92,3.46,6.2,7.49c-0.09,0.52-0.19,0.99-0.29,1.42l-4.67,0.48c-2.44,0.25-4.91,0.3-7.36,0.15L18.32,249.86z"/>
				</g>
			</g>
			<g>
				<path class="st174" d="M44.02,248.6c1.3-2.89,0.86-4.86-0.57-6.1c-1.07-0.94-2.71-1.48-4.58-1.69
					c-0.37-0.05-0.75-0.07-1.15-0.09c-2.66-0.12-5.44,4.45-7.72,9.41C37.07,249.86,41.42,249.32,44.02,248.6z"/>
				<path class="st5" d="M38.2,232.83c2.07-0.95,2.98,5.44,2.41,8.3c0.03,0.01,0.06,0.02,0.09,0.03
					c1.35-2.66,10.55-20.3,17.28-20.52c7.19-0.24-8.63,13.37-17.11,20.57c0.01,0,0.01,0,0.02,0c1.93-1.48,11.13-7.99,17.24-2.29
					c0,0,0.73,2.37-3.44,1.77c-4-0.58-8.59-1.39-13.56,0.59c0.91,0.29,1.72,0.68,2.33,1.22c0,0-3.66,0.2-4.58-1.69
					c0.48,0.05,0.94,0.13,1.38,0.23C39.33,239.37,36.35,233.68,38.2,232.83z"/>
			</g>
		</g>
		<path class="st178" d="M36.64,225.23c0,0-11.14,3.13-16.27,0s-1.4-11.02-1.4-11.02s3.26-5.01,1.4-15.42s-2.31-31.83-1.82-40.15
			c0.5-8.33,1.81-14.16,1.81-14.16s6.2,4.25,11.42,5.32c5.22,1.06,5.22,1.06,5.22,1.06s-4.16,14.6-3.71,31.23s1.39,27.51,3.91,32.13
			s2.8,8.86,2.8,8.86l-5.7-2.74C34.3,220.33,38.46,222.38,36.64,225.23z"/>
		<path class="st179" d="M168.2,364.72l0.07,0.01c1.92,0.19,3.64-1.22,3.82-3.15l24.84-256.07l-7.04-0.68l-24.84,256.07
			C164.86,362.82,166.27,364.53,168.2,364.72z"/>
		<path class="st178" d="M125.22,140.27c0,0,4.09,19.32,14.22,22.29s47.39-22.29,47.39-22.29l1.75-15.75c0,0,5.38-3.58,5.49-5.76
			s-10.91,0-12.47,2.99c-1.56,2.99-3.74,8.7-3.74,8.7s-20.2,12.24-26.69,12.78c-6.48,0.54-8.75-7.85-8.75-7.85
			S129.14,141.66,125.22,140.27z"/>
		<path class="st178" d="M196.55,120.13c0.88-0.27,3.75-0.82,4.49,1.63c0.74,2.45-0.35,2.45-0.35,2.45s0.67,0.29,0.61,2.32
			s-0.61,2.57-0.61,2.57s0.67,0.6,0.61,2.48c-0.07,1.87-0.61,1.87-0.61,1.87s0.54,0.54,0,2.18c-0.54,1.63-3.26,2.72-4.89,3.81
			c-1.63,1.09-3.26,0-3.26-1.09s0.54-1.63,0.54-1.63s-0.54-1.35-0.54-2.58c0-1.23,0.54-2.31,0.54-2.31s-1.09-1.5-0.54-2.92
			c0.54-1.43,1.09-2.51,1.09-2.51s-0.54-0.54,0-2.72C194.17,121.49,195.67,120.4,196.55,120.13z"/>
		<path class="st164" d="M18.24,132.01c-0.71,2.68-3.81,9.78,0.54,12.5s21.75,13.06,25.02,2.72c3.26-10.33,4.89-14.68-6.53-17.95
			S20.96,121.68,18.24,132.01z"/>
		<path class="st164" d="M121.23,139.9v-17.75c0,0,18.82-11.35,22.09-2.1s5.98,13.6,0.54,15.77S123.62,143.98,121.23,139.9z"/>
		<path class="st159" d="M101.92,67.2c-4.33,1.13-8.82,1.6-13.28,1.17c-4.88-0.46-10.57-2.43-14.58-6.13
			c-7.07-6.53-6.56-32.21-6.56-32.21l-0.58,0.51V52.6c0,10.05,8.15,18.2,18.2,18.2h7c4.38,0,8.41-1.52,11.53-4.12
			C104.29,66.14,103.24,66.86,101.92,67.2z"/>
		<path class="st159" d="M66.44,30.16c0,0,3.5-2.77,3.65-5.46s-3.52-5.09-3.31-7.43s2.61-9.06,7.39-11.14
			c4.78-2.08-2.53,0.78-5.95,3.7s-2.96,7.94-2.92,9.51S66.44,30.16,66.44,30.16z"/>
		<path class="st180" d="M112.57,7.01c0,0-2.62,4.33-8.33,5.85c-5.71,1.52-16.35,0-16.35,0s12.27-2.83,17.44-5.85
			c2-1.17,3.01-2.78,3.01-2.78s1.3-0.34,2.54-1.35s1.27-1.77,1.27-1.77S113.01,5.07,112.57,7.01z"/>
		<path class="st68" d="M94.99,140.32c-0.16-0.41-0.39-0.8-0.67-1.16c-0.07,0.27-0.21,0.57-0.45,0.78
			c-0.57,0.46-1.51,0.24-1.51,0.24s-0.03-0.97,0.54-1.43c0.22-0.18,0.51-0.26,0.77-0.28c-0.41-0.36-0.87-0.64-1.36-0.83
			c-0.59-0.23-1.21-0.35-1.83-0.35c-0.63,0-1.25,0.12-1.84,0.36c-0.6,0.24-1.14,0.6-1.62,1.08c-0.48,0.48-0.84,1.02-1.07,1.62
			c-0.23,0.59-0.35,1.21-0.35,1.83c0,0.63,0.12,1.24,0.35,1.83c0.23,0.6,0.59,1.14,1.07,1.62l2.31,2.31l0.37,0.37
			c0.42,0.42,1.11,0.42,1.54,0l2.39-2.38c0.01-0.01,0.01-0.01,0.02-0.01c0.1-0.09,0.2-0.18,0.29-0.27c0.48-0.48,0.84-1.02,1.08-1.62
			c0.24-0.6,0.36-1.22,0.36-1.84C95.35,141.53,95.23,140.91,94.99,140.32z M93.67,143.4c-0.15,0.33-0.35,0.64-0.61,0.92
			c-0.66,0.69-1.55,1.03-2.43,1.01c-0.02,0-0.05,0-0.07,0c-1.72,0-3.11-1.39-3.11-3.11c0-0.02,0-0.03,0-0.05
			c-0.02-0.83,0.27-1.67,0.89-2.33c0.26-0.28,0.56-0.5,0.89-0.66c0.98-0.5,2.16-0.05,2.66,0.93c0.07,0.15,0.17,0.28,0.3,0.4
			c0.13,0.12,0.27,0.21,0.42,0.28C93.6,141.25,94.11,142.39,93.67,143.4z"/>
		<path class="st68" d="M83.44,150.33c-0.12,0.05-0.22,0.11-0.3,0.2c-0.09,0.08-0.16,0.18-0.2,0.3c-0.05,0.11-0.08,0.24-0.08,0.37
			c0,0.13,0.03,0.25,0.08,0.37c0.05,0.11,0.12,0.21,0.21,0.3c0.09,0.08,0.19,0.15,0.3,0.2c0.12,0.05,0.24,0.07,0.36,0.07h0.64
			c0.06,0,0.11,0.01,0.16,0.03c0.05,0.02,0.09,0.05,0.13,0.08c0.04,0.04,0.07,0.08,0.09,0.13c0.02,0.05,0.03,0.1,0.03,0.16
			c0,0.05-0.01,0.1-0.03,0.16c-0.02,0.05-0.05,0.09-0.09,0.13s-0.08,0.06-0.13,0.08c-0.05,0.02-0.1,0.03-0.16,0.03h-1.32
			c-0.15,0-0.27,0.12-0.27,0.26c0,0.14,0.12,0.26,0.27,0.26h1.31c0.13,0,0.25-0.02,0.36-0.07c0.12-0.05,0.22-0.11,0.3-0.2
			c0.09-0.08,0.16-0.18,0.2-0.3c0.05-0.11,0.08-0.23,0.08-0.36c0-0.13-0.03-0.25-0.08-0.37c-0.05-0.11-0.12-0.21-0.21-0.3
			c-0.09-0.08-0.19-0.15-0.3-0.2c-0.12-0.05-0.24-0.07-0.36-0.07h-0.63c-0.06,0-0.11-0.01-0.16-0.03c-0.05-0.02-0.1-0.05-0.13-0.08
			c-0.04-0.03-0.07-0.08-0.09-0.13c-0.02-0.05-0.03-0.1-0.03-0.16c0-0.05,0.01-0.11,0.03-0.16c0.02-0.05,0.05-0.09,0.09-0.13
			c0.04-0.04,0.08-0.06,0.13-0.08c0.05-0.02,0.1-0.03,0.16-0.03h1.31c0.15,0,0.27-0.12,0.27-0.26c0-0.14-0.12-0.26-0.27-0.26h-1.31
			C83.68,150.26,83.56,150.28,83.44,150.33z"/>
		<path class="st68" d="M87.33,150.25c-0.88,0-1.61,0.72-1.64,1.62v1.34c0,0.14,0.12,0.26,0.27,0.26h0.04
			c0.15,0,0.27-0.12,0.27-0.26v-1.27c0.01-0.62,0.48-1.13,1.07-1.13c0.19,0,0.42,0.08,0.61,0.19c0.13,0.07,0.29,0.03,0.36-0.09
			l0.02-0.02c0.08-0.12,0.04-0.28-0.08-0.36C87.97,150.35,87.66,150.25,87.33,150.25z"/>
		<path class="st68" d="M90.59,151.49c-0.04,0.03-0.08,0.06-0.13,0.08c-0.05,0.02-0.1,0.03-0.16,0.03h-0.9
			c-0.15,0-0.27,0.12-0.27,0.26c0,0.14,0.12,0.26,0.27,0.26h0.9c0.13,0,0.25-0.02,0.36-0.07c0.12-0.05,0.22-0.11,0.3-0.2
			c0.09-0.08,0.16-0.18,0.2-0.3c0.05-0.11,0.08-0.23,0.08-0.36c0-0.13-0.03-0.25-0.08-0.37c-0.05-0.11-0.12-0.21-0.21-0.3
			c-0.09-0.08-0.19-0.15-0.3-0.2c-0.28-0.12-0.92-0.18-1.44,0.05c-0.19,0.08-0.36,0.2-0.5,0.35c-0.14,0.14-0.26,0.32-0.34,0.51
			c-0.08,0.19-0.13,0.41-0.13,0.63s0.04,0.43,0.13,0.63c0.08,0.19,0.2,0.37,0.34,0.51c0.15,0.14,0.31,0.26,0.5,0.35
			c0.19,0.08,0.4,0.13,0.62,0.13h0.97c0.15,0,0.27-0.12,0.27-0.26v-0.01c0-0.14-0.12-0.26-0.27-0.26h-0.96
			c-0.15,0-0.28-0.03-0.41-0.08c-0.13-0.05-0.24-0.13-0.33-0.23c-0.1-0.09-0.17-0.21-0.23-0.34c-0.06-0.13-0.09-0.27-0.09-0.42
			s0.03-0.29,0.09-0.42c0.06-0.13,0.13-0.25,0.23-0.34c0.1-0.09,0.21-0.17,0.33-0.23c0.37-0.15,0.86-0.13,1.03-0.05
			c0.05,0.02,0.09,0.05,0.13,0.08c0.04,0.04,0.07,0.08,0.09,0.13c0.02,0.05,0.03,0.1,0.03,0.16c0,0.05-0.01,0.1-0.03,0.16
			C90.66,151.41,90.63,151.45,90.59,151.49z"/>
		<path class="st68" d="M94.37,149.02c-0.15,0-0.27,0.12-0.27,0.26v0.95c0,0-0.8-0.01-1.08-0.01c-0.22,0-0.44,0.04-0.63,0.12
			c-0.2,0.08-0.37,0.2-0.52,0.34c-0.15,0.14-0.27,0.32-0.35,0.51c-0.09,0.19-0.13,0.41-0.13,0.63c0,0.22,0.05,0.43,0.13,0.63
			c0.09,0.19,0.2,0.37,0.35,0.51c0.15,0.14,0.32,0.26,0.52,0.34c0.2,0.08,0.41,0.12,0.63,0.12c0.21,0,0.42-0.04,0.6-0.11
			c0.19-0.07,0.36-0.18,0.5-0.31c0.14-0.13,0.26-0.29,0.35-0.47c0.09-0.18,0.15-0.38,0.17-0.58v-2.7
			C94.64,149.14,94.52,149.02,94.37,149.02z M94.02,152.27c-0.06,0.13-0.14,0.24-0.23,0.34c-0.1,0.09-0.22,0.17-0.35,0.23
			c-0.13,0.05-0.27,0.08-0.42,0.08c-0.15,0-0.29-0.03-0.42-0.08c-0.13-0.05-0.25-0.13-0.35-0.23c-0.1-0.09-0.18-0.21-0.23-0.34
			c-0.06-0.13-0.09-0.27-0.09-0.41c0-0.14,0.03-0.29,0.09-0.42s0.14-0.25,0.23-0.34c0.1-0.09,0.22-0.17,0.35-0.23
			c0.13-0.05,0.27-0.08,0.42-0.08c0.15,0,0.29,0.03,0.42,0.08c0.13,0.05,0.25,0.13,0.35,0.23c0.1,0.09,0.18,0.21,0.23,0.34
			c0.06,0.13,0.09,0.27,0.09,0.42C94.1,152,94.07,152.14,94.02,152.27z"/>
		<path class="st68" d="M97.99,151.24c-0.09-0.19-0.2-0.37-0.35-0.51s-0.32-0.26-0.52-0.34c-0.2-0.08-0.41-0.12-0.63-0.12
			c-0.23,0-0.44,0.04-0.63,0.12c-0.2,0.08-0.37,0.2-0.51,0.34s-0.27,0.32-0.35,0.51c-0.09,0.19-0.13,0.41-0.13,0.63
			c0,0.22,0.05,0.43,0.13,0.63c0.09,0.19,0.2,0.36,0.35,0.51c0.15,0.14,0.32,0.26,0.51,0.34c0.2,0.08,0.41,0.12,0.63,0.12h1.08h0.18
			c0.2,0,0.36-0.16,0.36-0.36v-1.11v0c0.01-0.04,0.01-0.08,0.01-0.13C98.12,151.65,98.08,151.44,97.99,151.24z M97.54,152.3
			c-0.06,0.13-0.14,0.24-0.23,0.34c-0.1,0.09-0.22,0.17-0.35,0.23c-0.13,0.05-0.27,0.08-0.42,0.08c-0.15,0-0.29-0.03-0.42-0.08
			c-0.13-0.05-0.25-0.13-0.35-0.23c-0.1-0.09-0.18-0.21-0.23-0.34c-0.06-0.13-0.09-0.27-0.09-0.41c0-0.14,0.03-0.29,0.09-0.42
			c0.06-0.13,0.14-0.25,0.23-0.34c0.1-0.09,0.22-0.17,0.35-0.23c0.13-0.05,0.27-0.08,0.42-0.08c0.15,0,0.29,0.03,0.42,0.08
			c0.13,0.05,0.25,0.13,0.35,0.23c0.1,0.09,0.18,0.21,0.23,0.34c0.06,0.13,0.09,0.27,0.09,0.42
			C97.62,152.03,97.59,152.17,97.54,152.3z"/>
		<g>
			<path class="st181" d="M201.74,24.09c-12.07,0.05-23.18,12.48-24.54,24.76l-3.63,23.75l0,0c-0.44,4.5,2.86,8.5,7.35,8.93
				l10.85,1.05l-2.13,21.96l8.14,0.79l2.13-21.96l11.41,1.11c4.5,0.44,8.5-2.86,8.93-7.35l0,0l2.54-24.36
				C223.56,40.3,213.81,24.04,201.74,24.09z"/>
			<path class="st170" d="M191.77,82.58c0,0,3.54-26.41,6.85-27.92s1.29,28.71,1.29,28.71l-2.13,21.96l-8.14-0.79L191.77,82.58z"/>
		</g>
	</g>
</g>
</svg>
