<?xml version="1.0" encoding="utf-8"?>
<!-- Generator: Adobe Illustrator 25.0.0, SVG Export Plug-In . SVG Version: 6.00 Build 0)  -->
<svg version="1.1" id="Слой_1" xmlns="http://www.w3.org/2000/svg" xmlns:xlink="http://www.w3.org/1999/xlink" x="0px" y="0px"
	 viewBox="0 0 3080.1 700" style="enable-background:new 0 0 3080.1 700;" xml:space="preserve">
<style type="text/css">
	.st0{fill:url(#SVGID_1_);}
	.st1{fill:#ECF0D9;}
	.st2{fill:#DEE3B4;}
	.st3{fill:#E3E7BF;}
	.st4{fill:#CCD58F;}
	.st5{fill:#B3C150;}
	.st6{fill:#A3AF4E;}
	.st7{fill:#979E41;}
	.st8{fill:url(#SVGID_2_);}
	.st9{fill:url(#SVGID_3_);}
	.st10{fill:url(#SVGID_4_);}
	.st11{fill:url(#SVGID_5_);}
	.st12{fill:url(#SVGID_6_);}
	.st13{fill:url(#SVGID_7_);}
	.st14{fill:url(#SVGID_8_);}
	.st15{fill:url(#SVGID_9_);}
	.st16{fill:url(#SVGID_10_);}
	.st17{fill:url(#SVGID_11_);}
	.st18{fill:#FFF2DB;}
	.st19{fill:#A79B9C;}
	.st20{fill:#DAE578;}
	.st21{fill:#FFF3DB;}
	.st22{fill:#FCE8C5;}
	.st23{fill:#FEE6B9;stroke:#574246;stroke-width:0.5;stroke-miterlimit:10;}
	.st24{fill:#C4BBBC;stroke:#574246;stroke-width:0.5;stroke-miterlimit:10;}
	.st25{fill:#8C7E7F;stroke:#574246;stroke-width:0.5;stroke-miterlimit:10;}
	.st26{fill:#A79B9C;stroke:#574246;stroke-width:0.5;stroke-miterlimit:10;}
	.st27{fill:#FECE74;stroke:#574246;stroke-width:0.5;stroke-miterlimit:10;}
	.st28{fill:#9E8E86;stroke:#574246;stroke-width:0.5;stroke-miterlimit:10;}
	.st29{fill:#E6CCBD;stroke:#574246;stroke-width:0.5;stroke-miterlimit:10;}
	.st30{fill:#FEC251;stroke:#574246;stroke-width:0.5;stroke-miterlimit:10;}
	.st31{fill:#FEF2DB;stroke:#574246;stroke-width:0.5;stroke-miterlimit:10;}
	.st32{fill:#286489;stroke:#574246;stroke-width:0.5;stroke-miterlimit:10;}
	.st33{fill:#F3ECD6;stroke:#574246;stroke-width:0.5;stroke-miterlimit:10;}
	.st34{fill:#FEF2DC;stroke:#574246;stroke-width:0.5;stroke-miterlimit:10;}
	.st35{fill:#574246;stroke:#574246;stroke-width:0.5;stroke-miterlimit:10;}
	.st36{fill:#725F62;stroke:#574246;stroke-width:0.5;stroke-miterlimit:10;}
	.st37{fill:#645053;stroke:#574246;stroke-width:0.5;stroke-miterlimit:10;}
	.st38{fill:#FFFFFF;}
	.st39{fill:#010001;}
	.st40{fill:#FECE74;stroke:#574246;stroke-miterlimit:10;}
	.st41{fill:#272727;}
	.st42{fill:#C5C5C5;}
	.st43{fill:#DCDCDC;stroke:#574246;stroke-miterlimit:10;}
	.st44{fill:#C5C5C5;stroke:#574246;stroke-miterlimit:10;}
	.st45{fill:#FBFBFB;stroke:#574246;stroke-miterlimit:10;}
	.st46{fill:#3B2E2F;}
	.st47{fill:#FDB723;stroke:#574246;stroke-miterlimit:10;}
	.st48{fill:#FEE6B9;stroke:#574246;stroke-miterlimit:10;}
	.st49{fill:#F59F24;stroke:#574246;stroke-miterlimit:10;}
	.st50{fill:#FEC251;stroke:#574246;stroke-miterlimit:10;}
	.st51{fill:#286489;}
	.st52{fill:#4A373A;}
	.st53{opacity:0.22;fill:#A3A1AD;enable-background:new    ;}
	.st54{fill:#C92103;stroke:#574246;stroke-miterlimit:10;}
	.st55{fill:#584446;}
	.st56{fill:#FFB81C;}
</style>
<g id="Слой_1_1_">
</g>
<g>
	
		<linearGradient id="SVGID_1_" gradientUnits="userSpaceOnUse" x1="1540.2" y1="1515.21" x2="1540.2" y2="1224.9099" gradientTransform="matrix(1 0 0 1 0 -1224.9099)">
		<stop  offset="0" style="stop-color:#C5F1FF"/>
		<stop  offset="0.4377" style="stop-color:#E8FAFF"/>
		<stop  offset="0.7728" style="stop-color:#FFFFFF"/>
	</linearGradient>
	<path class="st0" d="M3080,279.9V0H0.4c0,0,0,267.4,0,290.3L3080,279.9z"/>
	<g>
		<path class="st1" d="M0.4,104.5c37.9-11.2,106.4-29.6,157.1-30c73.8-0.6,180.4,93.6,234.1,112.1c34.1,11.8,284.9-51.1,320.7-45.8
			c329.2,49.2,114,187.8,551.6,36.3c383.2-132.7,543.4,0.2,651.8,26.6c37.3,9.1,76.2,9.4,113.6,1l301.4-68.1
			c95.4-21.6,195.7-6.3,280,42.8L2930,365.1c-1393.8,393.4-2029.6-126-2390.8-4.8c0,0-210.4-57.4-241.9-36.3
			C201.2,363.4,59.9,253,0.4,200.5V104.5z"/>
		<path class="st2" d="M0.4,126.6c16.9-5.6,115.5-37.4,182.8-37.9c73.8-0.6,180.4,93.6,234.1,112.1c34.1,11.8,284.9-51.1,320.7-45.8
			c329.2,49.2,114,187.8,551.6,36.3c383.2-132.7,543.4,0.2,651.8,26.6c37.3,9.1,76.2,9.4,113.6,1l301.4-68.1
			c95.4-21.6,195.7-6.3,280,42.8l319.3,185.7c-1393.9,393.4-2029.6-126-2390.9-4.8c0,0-210.4-57.4-241.9-36.3
			C206.6,386,23.8,214.1,0.4,191.3V126.6L0.4,126.6z"/>
		<path class="st3" d="M2749.6,151.1c-125.1,61.6-325.5,131.1-325.5,131.1C1026.5,675.6,892.7,81.6,600.9,201.6
			c0,0-194,65-297.9,116.1c-67,33-239.4-85.6-302.4-131.8c-0.2,0.7-0.2,255.4-0.2,255.4l305.9-1.8l2465.4,1.6l284.5,0.4l4.4-132.4
			C3060.7,309,2889.1,82.4,2749.6,151.1z"/>
		<path class="st4" d="M0.5,452.4l325.1-1.9l2465.4,1.6l289-0.2V321.1c0,0-171.6-227.7-311.1-159
			c-125.1,61.6-325.5,131.1-325.5,131.1C1045.7,686.7,912,92.6,620.1,212.7c0,0-194,65-297.9,116.1
			c-95.7,47-291.7-118.5-322.1-145.2L0.5,452.4z"/>
		<g>
			<path class="st5" d="M1326.6,378.9c-84.1,7.6-102.9,53-172.5,53c-76.8,0-177.3-32.9-271.1-23.8c-66.7,6.5-55.1,13-140.6,19.5
				c-121.2,9.2-155.1-44.4-208.7-39c-74.2,7.5-69.6,21.6-101.5,29.2C382.4,429.7,327.8,406,235,380
				c-72.6-20.3-113.1,28.1-166.7,15.2c-34.3-8.3-55.8,6.7-68,21.2c0,5.5,1.4,22.3,1.4,22.3l1320.5,18.2
				C1425.4,463.8,1405.2,371.8,1326.6,378.9z"/>
			<path class="st5" d="M3009.2,388.5c-53.3,17.1-93.6-46.7-165.8-19.9c-92.3,34.2-146.6,65.4-196.1,49.9
				c-31.7-10-27.2-28.6-100.9-38.5c-53.3-7.1-87.1,63.4-207.6,51.3c-85.1-8.5-73.5-17.1-139.8-25.7c-93.3-12-193.2,31.3-269.6,31.3
				c-69.3,0-87.9-59.8-171.6-69.8c-78.1-9.3-98.3,111.7,4.3,102.6l1316.6-29C3078.8,440.8,3069.5,369.2,3009.2,388.5z"/>
		</g>
	</g>
</g>
<path class="st6" d="M905.1,382.2c0,0,20.8-33.6,33.3-41.8s22.3-4.1,12.5-26.1s-36.2-68.6-36.2-68.6l-24.5-15.2l-15.9,17.9l-7,41.2
	L839.4,313l-4.6,20.7C834.8,333.6,895.4,389.7,905.1,382.2z"/>
<g>
	<path class="st7" d="M1158.4,334.1c-15.5-6.1-48.8,1.2-81.2,0.1c-4.7-0.2-8.8-0.1-12.3,0.2c6.4-7.2,9.4-14.4,3.8-19.6
		c-13.4-12.5-15.8-24.4-55-23.1s-79.4-7.5-98.2-0.1c-18.4,7.2-34.8,18.4-46.8,31.6c-5.4-3.2-11.2-6.1-17.2-8.4
		c-14.3-5.6-42.8-0.6-72.6,0.1c-6.7-3.8-16.3-6.1-34-5.5c-36.6,1.2-74.1-7-91.7-0.1c-17.5,6.9-33.2,17.7-44.4,30.3
		c-11.3,12.6-16.6,30.8-16.6,30.8s4.4,13.9,33.5,23.4c29.1,9.6,26.9,22.2,70.1-11.1c11.6-9,20,22.8,32.5,22.8
		c10.5,0,15.3-20.4,25.3-30.1c11.3,7.7,15.8,30.7,26.6,30.7c11.9,0,19.9-30.2,30.9-21.7c41,31.6,38.9,19.6,66.5,10.5
		c8.3-2.7,14.4-5.8,19-8.8c20.7,8.9,24.2,15,64.4-16c12.4-9.6,21.5,24.4,34.9,24.4c13.3,0,18-30.4,33.4-36.4
		c-0.5,11,23.4,26.8,34.6,30.8c13,4.6,16.9,30.3,28,30.3s18.5-28.1,28.8-20.2c38.3,29.5,36.3,18.3,62.1,9.8s29.7-20.8,29.7-20.8
		s-4.7-16.1-14.7-27.3C1187.8,349.7,1173.9,340.2,1158.4,334.1z"/>
	<path class="st7" d="M468.7,334.1c-15.5-6.1-48.8,1.2-81.2,0.1c-4.7-0.2-8.8-0.1-12.3,0.2c6.4-7.2,9.4-14.4,3.8-19.6
		c-13.4-12.5-15.8-24.4-55-23.1s-79.4-7.5-98.2-0.1c-18.4,7.2-34.8,18.4-46.8,31.6c-5.4-3.2-11.2-6.1-17.2-8.4
		c-14.3-5.6-42.8-0.6-72.6,0.1c-6.7-3.8-16.3-6.1-34-5.5c-19.1,0.6-38.4-1.3-55-2.3L0,387.3c1.9-1.4,4-3,6.1-4.6
		c11.6-9,20,22.8,32.5,22.8c10.5,0,15.3-20.4,25.3-30.1c11.3,7.7,15.8,30.7,26.6,30.7c11.9,0,19.9-30.2,30.9-21.7
		c41,31.6,38.9,19.6,66.5,10.5c8.3-2.7,14.4-5.8,19-8.8c20.7,8.9,24.2,15,64.4-16c12.4-9.6,21.5,24.4,34.9,24.4
		c13.3,0,18-30.4,33.4-36.4c-0.5,11,23.4,26.8,34.6,30.8c13,4.6,16.9,30.3,28,30.3s18.5-28.1,28.8-20.2
		c38.3,29.5,36.3,18.3,62.1,9.8c25.8-8.5,29.7-20.8,29.7-20.8s-4.7-16.1-14.7-27.3C498.1,349.7,484.3,340.2,468.7,334.1z"/>
	<path class="st7" d="M2434.6,301.8c-17.2-6.7-54.1,1.3-90,0.1c-17-0.6-26.5,1.6-33,5.2c-6-2.8-14.5-4.5-28.8-4
		c-33.1,1.1-67.1-6.3-83-0.1c-0.7,0.3-1.3,0.5-2,0.8c-9.2-7-19.7-13-31-17.4c-15.4-6.1-45.7-1-77.8,0.1c-4.6-0.8-10.2-1.1-17.6-0.9
		c-30.9,1-62.6-5.9-77.4-0.1s-28,14.9-37.5,25.6s-14,26-14,26s3.7,11.7,28.3,19.8c24.6,8.1,22.7,18.7,59.2-9.4
		c9.8-7.6,16.9,19.3,27.5,19.3c3.2,0,5.8-2.3,8.2-5.5c7.7,10.9,12.8,26.4,22.2,26.4c13.2,0,22-33.4,34.2-24
		c36.1,27.8,42.1,25.1,58.4,17.8c20.7,8.1,21.8,15.8,57.9-12c10.5-8.1,18.1,20.6,29.5,20.6c11.3,0,15.3-26.2,28.6-31
		c3.7-1.3,8.8-3.9,14-7.3c7,4.9,14.4,9,19.5,10.8c14.4,5.1,18.7,33.6,31,33.6s20.5-31.2,32-22.4c42.4,32.7,40.2,20.3,68.8,10.9
		s32.9-23,32.9-23s-5.2-17.9-16.3-30.3C2467.1,319.2,2451.8,308.6,2434.6,301.8z"/>
	<path class="st7" d="M3079.9,297.6c-19.3-0.5-46.3,3.7-72.8,2.8c-16.9-0.6-26.3,1.5-32.8,5.1c-5.9-2.8-14.4-4.3-28.6-3.9
		c-33.1,1.1-67.1-6.3-83-0.1c-0.7,0.3-1.3,0.5-2,0.8c-9.2-7-19.7-13-31-17.4c-15.4-6.1-45.7-1-77.8,0.1c-4.6-0.8-10.2-1.1-17.6-0.9
		c-30.9,1-62.6-5.9-77.4-0.1c-14.8,5.8-28,14.9-37.5,25.6s-14,26-14,26s3.7,11.7,28.3,19.8c24.6,8.1,22.7,18.7,59.2-9.4
		c9.8-7.6,16.9,19.3,27.5,19.3c3.2,0,5.8-2.3,8.2-5.5c7.7,10.9,12.8,26.4,22.2,26.4c13.2,0,22-33.4,34.2-24
		c36.1,27.8,42.1,25.1,58.4,17.8c20.7,8.1,21.8,15.8,57.9-12c10.5-8.1,18.1,20.6,29.5,20.6c11.3,0,15.3-26.2,28.6-31
		c3.7-1.3,8.7-3.9,13.8-7.1c6.9,4.9,14.2,8.8,19.3,10.6c14.4,5.1,18.7,33.6,31,33.6s20.5-31.2,32-22.4c10.6,8.2,18.4,13.5,24.6,16.8
		L3079.9,297.6z"/>
</g>
<g>
	
		<linearGradient id="SVGID_2_" gradientUnits="userSpaceOnUse" x1="612.7" y1="1617.6963" x2="760.9999" y2="1617.6963" gradientTransform="matrix(1 0 0 1 0 -1224.9099)">
		<stop  offset="3.724194e-03" style="stop-color:#655154"/>
		<stop  offset="0.9963" style="stop-color:#736063"/>
	</linearGradient>
	<path class="st8" d="M723.8,343.3c-0.6,0.9,5.6-24.3,5.6-24.3l-2.8-1.2c0,0,0,0-1.6,7.7s-5,20.3-5,20.3l-16.3,15.1l0.9-8.3
		l12.2-14.2v-18.8h-4.4v18.8l-10.6,9.9l-14.4-21l-5.6,0.3l18.5,25.9c0,0-8.1,23.4-11.3,25.3c-3.1,1.9-24.4-29.9-24.4-29.9l-0.6-29.3
		l-3.4,24l-12.2-24l-1.6,2.2c0,0,8.4,21,13.5,28.3c5,7.4,27.2,36.7,27.2,36.7s-1.6,9.2-3.7,10.2c-2.1,0.9-11.3-14.2-14.4-18.5
		c-3.1-4.3-31-12.6-31-12.6l-3.7-31.7l-4.1,3.4l4.1,25.6c0,0-1.2-3.1-4.1-5.5c-2.8-2.5-13.5-18.2-13.5-18.2l-4.4,4.9
		c0,0,1.2,0.9,6.9,6.2S629,364,629,364s0,0,2.2,0.9s26,12.6,31.6,16s5.9,8.9,8.8,13.9c2.8,4.9,5.9,8,7.2,9.2
		c1.2,1.2-4.4,24.4-3.8,38.9c0.6,14.5-6.8,17.9-7.5,19.4c-4.6,9.9,35.9,3.7,39.1,1.9c3.1-1.9-3.7-24.8-5.5-29.7
		c-1.9-4.9,2.5-6.2,5.3-14.8c2.8-8.6,15.6-26.8,15.6-26.8l-3.4-2c0,0-12.5,19.3-15,23.3s-4.7,7.4-6.3,4.9s-5-14.5-0.9-26.5
		s3.4-21.6,3.4-21.6s17.2-14.8,20.6-16.9c3.4-2.2,3.4-7.7,3.4-7.7l37.2-17.9l-4-0.5C756.9,327.9,724.4,342.4,723.8,343.3z"/>
	
		<linearGradient id="SVGID_3_" gradientUnits="userSpaceOnUse" x1="1061.2476" y1="1623.4735" x2="1191.5475" y2="1623.4735" gradientTransform="matrix(1 0 0 1 0 -1224.9099)">
		<stop  offset="3.724194e-03" style="stop-color:#655154"/>
		<stop  offset="0.9963" style="stop-color:#736063"/>
	</linearGradient>
	<path class="st9" d="M1175,371.3c-2.6,2-3.9,4.7-3.9,4.7l5-22.4l-3.4-3.2l-5.1,27.9c0,0-25.1,5.9-28.1,9.5s-12,16.5-13.8,15.6
		s-2.7-9.2-2.7-9.2s21.3-24.7,26.1-31c4.8-6.3,13.5-24.4,13.5-24.4l-1.3-2l-12.1,20.6l-1.7-21.4l-2.2,25.9c0,0-20.6,26.9-23.2,25.1
		c-2.7-1.8-8.6-23-8.6-23l17.8-21.9l-5-0.6l-13.9,17.8l-8.9-9.3l1-16.6l-3.9-0.2l-1,16.6l10,13.2l0.4,7.4l-13.5-14.2
		c0,0-2.3-11.4-3.3-18.3s-1-6.9-1-6.9l-2.6,0.9c0,0,4.1,22.7,3.6,21.8c-0.5-0.8-28.5-15.4-28.5-15.4l-3.6,0.3l30.2,16.8
		c-0.9,3.4-5.6,29.8-5.9,29.5c-10.3-15.1-20.4-29.8-20.4-29.8l-1.1,2.2c0,0,38.5,57.2,40.5,65s5.8,9.1,3.9,13.4s-5,25.9-2.3,27.7
		c2.7,1.8,33.5,6.3,30-2.7c-0.5-1.4-1.9-8.4-4-21.1c-2-12.4-3.5-28.7-2.3-29.7s4.1-3.6,6.9-7.8c2.8-4.2,3.3-9.1,8.5-11.8
		c5.2-2.7,26.9-11.8,28.8-12.5c2-0.7,2-0.7,2-0.7s3.8-7.2,9.1-11.5c5.3-4.3,6.4-5.1,6.4-5.1l-3.6-4.6
		C1188,355.9,1177.7,369.3,1175,371.3z M1112.7,422.2c-1.5,2.1-3.3-1-5.3-4.7c-0.9-1.7-9.6-14.5-18.8-28.2
		c-0.4-0.6,4.5-32.5,4.1-33.2l0,0l0.6,0.3c0,0-0.3,4.9,2.6,7s17.3,16.1,17.3,16.1s-1.1,8.4,1.8,19.3
		C1117.9,409.7,1114.2,420.1,1112.7,422.2z"/>
	
		<linearGradient id="SVGID_4_" gradientUnits="userSpaceOnUse" x1="747.4487" y1="1606.0945" x2="1031.0488" y2="1606.0945" gradientTransform="matrix(1 0 0 1 0 -1224.9099)">
		<stop  offset="3.724194e-03" style="stop-color:#655154"/>
		<stop  offset="0.9963" style="stop-color:#736063"/>
	</linearGradient>
	<path class="st10" d="M991,328.1c-0.7,1,6-26.1,6-26.1l-3-1.3c0,0,0,0-1.7,8.3s-5.4,21.8-5.4,21.8L969.6,347l1-8.9l13.1-15.2v-20.1
		H979v20.1l-11.4,10.6L952.2,311l-6,0.3L966,339c0,0-8.7,25.1-12.1,27.1c-3.3,2-26.1-32-26.1-32l-0.7-31.4l-3.7,25.7l-13.1-25.7
		l-1.7,2.3c0,0,9,22.5,14.4,30.4s29.2,39.3,29.2,39.3s-1.7,9.9-4,10.9s-12.1-15.2-15.5-19.8c-3.3-4.6-33.2-13.5-33.2-13.5l-4-34
		l-4.4,3.6l4.4,27.4c0,0-1.3-3.3-4.4-5.9c-3-2.6-14.4-19.5-14.4-19.5l-4.7,5.3c0,0,1.3,1,7.4,6.6c1.1,1,2.1,2.2,3.1,3.3
		c-2.4,3.2-10.7,13.7-13.1,15.5c-2.8,2.2-4.2,5-4.2,5l5.4-24l-3.6-3.4l-5.4,29.9c0,0-26.9,6.3-30.1,10.2
		c-3.2,3.9-12.8,17.7-14.8,16.7s-2.9-9.8-2.9-9.8s22.8-26.5,28-33.2s14.4-26.1,14.4-26.1l-1.3-2.1l-13,22.1l-1.8-23l-2.3,27.7
		c0,0-22.1,28.9-24.9,26.9c-2.9-1.9-9.2-24.6-9.2-24.6l19-23.5l-5.3-0.6l-14.9,19l-9.5-10l1.1-17.8l-4.1-0.3l-1.1,17.8l10.7,14.1
		l0.4,7.9l-14.5-15.3c0,0-2.5-12.2-3.5-19.6s-1-7.4-1-7.4l-2.7,1c0,0,4.4,24.3,3.9,23.4s-30.5-16.5-30.5-16.5l-3.9,0.3l34.2,19.1
		c0,0-0.3,5.3,2.8,7.5s18.6,17.3,18.6,17.3s-1.2,9,2,20.6c3.1,11.6-0.8,22.8-2.5,25.1c-1.6,2.2-3.5-1.1-5.6-5s-12.8-22.9-12.8-22.9
		l-3.4,1.7c0,0,11.1,18,13.2,26.3c2.1,8.3,6.2,9.8,4.2,14.3c-2.1,4.6-5.4,27.8-2.5,29.7c2.9,1.9,35.9,6.7,32.1-2.9
		c-0.6-1.5-2.1-9-4.3-22.6c-2.1-13.3-3.7-30.7-2.5-31.8c1.3-1.1,4.4-3.8,7.4-8.3s3.6-9.7,9.1-12.6s28.8-12.6,30.9-13.4
		c2.1-0.7,2.1-0.7,2.1-0.7s4.1-7.7,9.7-12.3c3-2.5,4.8-3.9,5.8-4.6c2.2,3.5,3.5,6.4,3.5,6.4s0,0,2.3,1s27.8,13.5,33.9,17.2
		c6,3.6,6.4,9.6,9.4,14.9s6.4,8.6,7.7,9.9s-4.7,26.2-4.1,41.7c0.7,15.5-7.3,19.2-8,20.8c-4.9,10.6,38.5,4,41.9,2
		c3.3-2-3.9-26.5-5.9-31.8s2.7-6.6,5.7-15.8c3-9.2,16.8-28.7,16.8-28.7l-3.7-2.1c0,0-13.4,20.6-16.1,24.9c-2.7,4.3-5,7.9-6.7,5.3
		s-5.4-15.5-1-28.4s3.7-23.1,3.7-23.1s18.4-15.8,22.1-18.2c3.7-2.3,3.7-8.3,3.7-8.3l39.9-19.2l-4.4-0.7
		C1026.6,311.6,991.7,327.2,991,328.1z"/>
	
		<linearGradient id="SVGID_5_" gradientUnits="userSpaceOnUse" x1="0" y1="1616.9099" x2="71.1" y2="1616.9099" gradientTransform="matrix(1 0 0 1 0 -1224.9099)">
		<stop  offset="3.724194e-03" style="stop-color:#655154"/>
		<stop  offset="0.9963" style="stop-color:#736063"/>
	</linearGradient>
	<path class="st11" d="M33.9,342.8c-0.6,0.9,5.6-24.3,5.6-24.3l-2.8-1.2c0,0,0,0-1.6,7.7s-5,20.3-5,20.3l-16.3,15.1l0.9-8.3
		L27,337.8V319h-4.4v18.8L12,347.7L0,330.3v8.1L10.4,353c0,0-6.8,19.7-10.4,24.4v89.3c8-0.8,15.4-2.3,16.6-3
		c3.1-1.9-3.7-24.8-5.5-29.7c-1.9-4.9,2.5-6.2,5.3-14.8c2.8-8.6,15.6-26.8,15.6-26.8l-3.4-2c0,0-12.5,19.3-15,23.3s-4.7,7.4-6.3,4.9
		s-5-14.5-0.9-26.5s3.4-21.6,3.4-21.6s17.2-14.8,20.6-16.9c3.4-2.2,3.4-7.7,3.4-7.7L71.1,328l-4.1-0.6
		C67.1,327.4,34.6,341.8,33.9,342.8z"/>
	
		<linearGradient id="SVGID_6_" gradientUnits="userSpaceOnUse" x1="371.7" y1="1623.3735" x2="502" y2="1623.3735" gradientTransform="matrix(1 0 0 1 0 -1224.9099)">
		<stop  offset="3.724194e-03" style="stop-color:#655154"/>
		<stop  offset="0.9963" style="stop-color:#736063"/>
	</linearGradient>
	<path class="st12" d="M485.5,371.3c-2.6,2-3.9,4.7-3.9,4.7l5-22.4l-3.4-3.2l-5.1,27.9c0,0-25.1,5.9-28.1,9.5s-12,16.5-13.8,15.6
		s-2.7-9.2-2.7-9.2s21.3-24.7,26.1-31c4.8-6.3,13.5-24.4,13.5-24.4l-1.3-2l-12.1,20.6L458,336l-2.2,25.9c0,0-20.6,26.9-23.2,25.1
		c-2.7-1.8-8.6-23-8.6-23l17.8-21.9l-5-0.6l-13.9,17.8L414,350l1-16.6l-3.9-0.2l-1,16.6l10,13.2l0.4,7.4L407,356.1
		c0,0-2.3-11.4-3.3-18.3s-0.9-6.9-0.9-6.9l-2.6,0.9c0,0,4.1,22.7,3.6,21.8s-28.5-15.4-28.5-15.4l-3.6,0.3l30.2,16.8
		c-0.9,3.4-5.6,29.8-5.9,29.5c-10.3-15.1-20.4-29.8-20.4-29.8l-1.1,2.2c0,0,38.5,57.2,40.5,65s5.8,9.1,3.9,13.4s-5,25.9-2.3,27.7
		c2.7,1.8,33.5,6.3,30-2.7c-0.5-1.4-1.9-8.4-4-21.1c-2-12.4-3.5-28.7-2.3-29.7s4.1-3.6,6.9-7.8c2.8-4.2,3.3-9.1,8.5-11.8
		c5.2-2.7,26.9-11.8,28.8-12.5c2-0.7,2-0.7,2-0.7s3.8-7.2,9.1-11.5s6.4-5.1,6.4-5.1l-3.6-4.6C498.4,355.9,488.2,369.3,485.5,371.3z
		 M423.1,422.2c-1.5,2.1-3.3-1-5.3-4.7c-0.9-1.7-9.6-14.5-18.8-28.2c-0.4-0.6,4.5-32.5,4.1-33.2l0,0l0.6,0.3c0,0-0.3,4.9,2.6,7
		s17.3,16.1,17.3,16.1s-1.1,8.4,1.8,19.3C428.4,409.7,424.7,420.1,423.1,422.2z"/>
	
		<linearGradient id="SVGID_7_" gradientUnits="userSpaceOnUse" x1="58.2" y1="1606.1444" x2="341.8" y2="1606.1444" gradientTransform="matrix(1 0 0 1 0 -1224.9099)">
		<stop  offset="3.724194e-03" style="stop-color:#655154"/>
		<stop  offset="0.9963" style="stop-color:#736063"/>
	</linearGradient>
	<path class="st13" d="M301.5,328.1c-0.7,1,6-26.1,6-26.1l-3-1.3c0,0,0,0-1.7,8.3s-5.4,21.8-5.4,21.8L280.1,347l1-8.9l13.1-15.2
		v-20.1h-4.7v20.1l-11.4,10.6L262.6,311l-6,0.3l19.8,27.7c0,0-8.7,25.1-12.1,27.1c-3.3,2-26.1-32-26.1-32l-0.7-31.4l-3.7,25.7
		l-13.1-25.7L219,305c0,0,9,22.5,14.4,30.4s29.2,39.3,29.2,39.3s-1.7,9.9-4,10.9s-12.1-15.2-15.5-19.8c-3.3-4.6-33.2-13.5-33.2-13.5
		l-4-34l-4.4,3.6l4.4,27.4c0,0-1.3-3.3-4.4-5.9s-14.4-19.5-14.4-19.5l-4.7,5.3c0,0,1.3,1,7.4,6.6c1.1,1,2.1,2.2,3.1,3.3
		c-2.4,3.2-10.7,13.7-13.1,15.5c-2.8,2.2-4.2,5-4.2,5l5.4-24l-3.6-3.4l-5.4,29.9c0,0-26.9,6.3-30.1,10.2
		c-3.2,3.9-12.8,17.7-14.8,16.7s-2.9-9.8-2.9-9.8s22.8-26.5,28-33.2c5.2-6.7,14.4-26.1,14.4-26.1l-1.3-2.1l-13,22.1l-1.8-23
		l-2.3,27.7c0,0-22.1,28.9-24.9,26.9c-2.9-1.9-9.2-24.6-9.2-24.6l19-23.5l-5.3-0.6l-14.9,19l-9.5-10l1.1-17.8l-4.1-0.3l-1.1,17.8
		l10.7,14.1l0.4,7.9l-14.5-15.2c0,0-2.5-12.2-3.5-19.6s-1-7.4-1-7.4l-2.7,1c0,0,4.4,24.3,3.9,23.4s-30.5-16.5-30.5-16.5l-3.9,0.3
		l34.2,19.1c0,0-0.3,5.3,2.8,7.5c3.1,2.2,18.6,17.3,18.6,17.3s-1.2,9,2,20.6c3.1,11.6-0.8,22.8-2.5,25.1c-1.6,2.2-3.5-1.1-5.6-5
		s-12.8-22.9-12.8-22.9l-3.4,1.7c0,0,11.1,18,13.2,26.3s6.2,9.8,4.2,14.3c-2.1,4.6-5.4,27.8-2.5,29.7c2.9,1.9,35.9,6.7,32.1-2.9
		c-0.6-1.5-2.1-9-4.3-22.6c-2.1-13.3-3.7-30.7-2.5-31.8c1.3-1.1,4.4-3.8,7.4-8.3s3.6-9.7,9.1-12.6s28.8-12.6,30.9-13.4
		c2.1-0.7,2.1-0.7,2.1-0.7s4.1-7.7,9.7-12.3c3-2.5,4.8-3.9,5.8-4.6c2.2,3.5,3.5,6.4,3.5,6.4s0,0,2.3,1s27.8,13.5,33.9,17.2
		c6,3.6,6.4,9.6,9.4,14.9s6.4,8.6,7.7,9.9s-4.7,26.2-4.1,41.7c0.7,15.5-7.3,19.2-8,20.8c-4.9,10.6,38.5,4,41.9,2
		c3.3-2-3.9-26.5-5.9-31.8s2.7-6.6,5.7-15.8c3-9.2,16.8-28.7,16.8-28.7l-3.7-2.1c0,0-13.4,20.6-16.1,24.9s-5,7.9-6.7,5.3
		s-5.4-15.5-1-28.4s3.7-23.1,3.7-23.1s18.4-15.8,22.1-18.2c3.7-2.3,3.7-8.3,3.7-8.3l39.9-19.2l-4.4-0.7
		C337,311.6,302.2,327.2,301.5,328.1z"/>
	
		<linearGradient id="SVGID_8_" gradientUnits="userSpaceOnUse" x1="2326.5996" y1="1599.725" x2="2470.8992" y2="1599.725" gradientTransform="matrix(1 0 0 1 0 -1224.9099)">
		<stop  offset="3.724194e-03" style="stop-color:#655154"/>
		<stop  offset="0.9963" style="stop-color:#736063"/>
	</linearGradient>
	<path class="st14" d="M2452.6,344.7c-2.9,2.2-4.3,5.2-4.3,5.2l5.6-24.8l-3.8-3.6l-5.6,30.9c0,0-27.8,6.5-31.1,10.5
		s-13.3,18.3-15.3,17.3s-3-10.2-3-10.2s23.6-27.4,28.9-34.3c5.4-7,14.9-27,14.9-27l-1.4-2.2l-13.4,22.8l-1.9-23.8l-2.4,28.7
		c0,0-22.8,29.8-25.8,27.8c-2.9-2-9.5-25.4-9.5-25.4l19.7-24.3l-5.5-0.6l-15.4,19.7l-9.8-10.3l1.2-18.4l-4.3-0.3l-1.2,18.4
		l11.1,14.6l0.4,8.2l-15-15.8c0,0-2.6-12.6-3.6-20.2c-1.1-7.6-1.1-7.6-1.1-7.6l-2.8,1c0,0,4.6,25.1,4,24.2s-31.6-17.1-31.6-17.1
		l-4,0.4l35.4,19.7c0,0-0.3,5.4,2.9,7.8s19.2,17.8,19.2,17.8s-1.2,9.3,2,21.3s-0.9,23.6-2.5,25.9c-1.7,2.3-3.6-1.1-5.8-5.2
		s-13.3-23.7-13.3-23.7l-3.5,1.8c0,0,11.4,18.6,13.7,27.2c2.2,8.6,6.4,10.1,4.3,14.8c-2.1,4.7-5.5,28.7-2.6,30.7s37.1,7,33.2-3
		c-0.6-1.5-2.1-9.3-4.4-23.4c-2.2-13.7-3.9-31.8-2.6-32.9c1.3-1.1,4.6-4,7.6-8.6c3.1-4.7,3.7-10.1,9.4-13.1s29.8-13,32-13.8
		s2.2-0.8,2.2-0.8s4.2-7.9,10-12.7c5.8-4.8,7.1-5.6,7.1-5.6l-4-5.1C2466.9,327.7,2455.5,342.4,2452.6,344.7z"/>
	
		<linearGradient id="SVGID_9_" gradientUnits="userSpaceOnUse" x1="1959.7997" y1="1589.9155" x2="2297.5" y2="1589.9155" gradientTransform="matrix(1 0 0 1 0 -1224.9099)">
		<stop  offset="3.724194e-03" style="stop-color:#655154"/>
		<stop  offset="0.9963" style="stop-color:#736063"/>
	</linearGradient>
	<path class="st15" d="M2263.6,334c-0.6,0.8,5.1-22,5.1-22l-2.5-1.1c0,0,0,0-1.4,7s-4.5,18.4-4.5,18.4l-14.7,13.7l0.9-7.5l11-12.8
		v-17h-4v17l-9.6,8.9l-13-19l-5.1,0.3l16.7,23.4c0,0-7.4,21.2-10.2,22.9c-2.8,1.7-22.1-27.1-22.1-27.1l-0.6-26.5l-3.1,21.8l-6-11.8
		c4.7-3.8,5.8-4.5,5.8-4.5l-4.3-5.5c0,0-1.7,2.2-4,5.1l-2.6-5.1l-1.4,1.9c0,0,0.9,2.2,2.2,5.3c-3.6,4.5-7.9,9.7-9.6,10.9
		c-1.1,0.9-2,1.8-2.7,2.7l-0.4-3.7l4.5-20.1l-4-3.8l-4.1,22.4l-0.6,0.5l0.2,1.4l-1.6,8.9c0,0-1.6,0.4-4.1,1
		c-3.3-4.5-6.7-9.6-6.7-9.6l-4,4.5c0,0,1.1,0.8,6.2,5.6c0.2,0.2,0.4,0.4,0.5,0.5c-9.1,2.4-23,6.4-25.4,9.3
		c-3.6,4.3-14.2,19.6-16.4,18.5s-3.2-10.9-3.2-10.9s25.3-29.3,31-36.8c5.7-7.4,16-28.9,16-28.9l-1.5-2.4l-14.4,24.5l-2-25.5
		l-2.6,30.7c0,0-24.4,32-27.6,29.8c-3.2-2.1-10.2-27.3-10.2-27.3l21.1-26l-5.9-0.7l-16.5,21.1l-10.5-11l1.2-19.7l-4.6-0.3l-1.2,19.7
		l11.9,15.7l0.4,8.8l-16.1-16.9c0,0-2.8-13.5-3.9-21.7c-1.1-8.2-1.1-8.2-1.1-8.2l-3,1.1c0,0,4.9,26.9,4.3,25.9
		c-0.2-0.3-4.3-2.6-9.6-5.5l5-2.4l-3.4-0.5c0,0-1.5,0.7-3.9,1.7c-9.7-5.2-22-11.6-22-11.6l-4.3,0.4l4.2,2.4c-0.2,0.9-0.5,2.5-1,5.1
		c-1.3,6.5-4.2,17.2-4.2,17.2l-13.7,12.8l0.8-7l10.3-12v-15.9h-3.7v15.9l-9,8.3l-12.2-17.7l-4.8,0.3l15.6,21.9
		c0,0-6.9,19.8-9.5,21.3c-2.6,1.6-20.6-25.3-20.6-25.3l-0.5-24.7l-2.9,20.3l-10.3-20.3l-1.3,1.8c0,0,7.1,17.7,11.4,23.9
		c4.2,6.3,23,31,23,31s-1.3,7.8-3.1,8.6c-1.8,0.8-9.6-12-12.2-15.6s-26.2-10.7-26.2-10.7l-3.2-26.8l-3.4,2.9l3.4,21.6
		c0,0-1.1-2.6-3.4-4.7c-2.4-2.1-11.4-15.4-11.4-15.4l-3.7,4.2c0,0,1.1,0.8,5.8,5.2c4.8,4.4,7.9,11.5,7.9,11.5s0,0,1.8,0.8
		s21.9,10.7,26.7,13.5c4.8,2.9,5,7.6,7.4,11.7c2.4,4.2,5,6.8,6.1,7.8s-3.7,20.7-3.2,32.9c0.5,12.2-12.9,43.5-13.5,44.8
		c-3.9,8.3,40.7-3.2,43.3-4.7c2.6-1.6-6.2-43-7.8-47.2c-1.6-4.2,2.1-5.2,4.5-12.5s13.2-22.6,13.2-22.6l-2.9-1.7
		c0,0-10.6,16.3-12.7,19.7c-2.1,3.4-4,6.3-5.3,4.2c-1.3-2.1-4.2-12.2-0.8-22.4c3.4-10.2,2.9-18.2,2.9-18.2s14.5-12.5,17.4-14.3
		c2.9-1.8,2.9-6.5,2.9-6.5l23-11.1l12.7,7.1c0,0-0.4,5.8,3.1,8.3s20.6,19.1,20.6,19.1s-1.3,10,2.2,22.9s-0.9,25.3-2.7,27.8
		s-3.9-1.2-6.2-5.6c-2.4-4.4-14.2-25.4-14.2-25.4l-3.7,1.9c0,0,12.3,19.9,14.7,29.2c2.4,9.2,6.9,10.8,4.6,15.9
		c-2.3,5.1-5.9,30.8-2.8,32.9c3.2,2.1,39.8,7.5,35.6-3.2c-0.6-1.6-2.3-10-4.7-25c-2.4-14.7-4.1-34.1-2.7-35.3
		c1.4-1.2,4.9-4.3,8.2-9.2c3.3-5,4-10.8,10.1-14c3.4-1.8,13-6,21.2-9.4c3.3,4.3,5.4,8.9,5.4,8.9s0,0,2,0.8s23.5,11.4,28.6,14.5
		s5.4,8.1,7.9,12.6s5.4,7.3,6.5,8.4s-4,22.1-3.4,35.3c0.6,13.1-6.2,16.2-6.8,17.6c-4.2,8.9,32.5,3.3,35.4,1.7
		c2.8-1.7-3.3-22.4-5-26.9s2.3-5.6,4.8-13.4s14.2-24.3,14.2-24.3l-3.1-1.8c0,0-11.3,17.4-13.6,21.1c-2.3,3.6-4.2,6.7-5.7,4.5
		c-1.4-2.2-4.5-13.1-0.8-24s3.1-19.5,3.1-19.5s15.6-13.4,18.7-15.3c3.1-1.9,3.1-7,3.1-7l33.7-16.2l-3.7-0.6
		C2293.6,320,2264.2,333.2,2263.6,334z M2053.6,314.5c-0.4,0.6,3.1-13.9,4.3-18.9l16.4,9.1C2066.1,308.4,2053.9,313.9,2053.6,314.5z
		 M2179.2,346.8c-0.7-0.6-2.1-2.3-3.6-4.4c2-0.9,3.9-1.6,5.4-2.3l1.8,11.6C2182.9,351.8,2181.7,349.1,2179.2,346.8z M2227.4,382.5
		c-1.9,0.8-10.2-12.8-13.1-16.7c-2.8-3.9-28-11.4-28-11.4l-1.8-15.5c0.4-0.2,0.8-0.3,1-0.4c2.4-0.8,2.4-0.8,2.4-0.8
		s4.3-8.1,10.3-13.3c2.5,5.7,5.7,12.4,8,15.8c4.5,6.7,24.6,33.2,24.6,33.2S2229.3,381.7,2227.4,382.5z"/>
	
		<linearGradient id="SVGID_10_" gradientUnits="userSpaceOnUse" x1="2988.7996" y1="1598.225" x2="3079.9993" y2="1598.225" gradientTransform="matrix(1 0 0 1 0 -1224.9099)">
		<stop  offset="3.724194e-03" style="stop-color:#655154"/>
		<stop  offset="0.9963" style="stop-color:#736063"/>
	</linearGradient>
	<path class="st16" d="M3079.2,336.2c-6.2,7.9-20.7,25.8-23,24.3c-2.9-2-9.5-25.4-9.5-25.4l19.7-24.3l-5.5-0.6l-15.4,19.7l-9.8-10.3
		l1.2-18.4l-4.3-0.3l-1.2,18.4l11.1,14.6l0.4,8.2l-15-15.8c0,0-2.6-12.6-3.6-20.2c-1.1-7.6-1.1-7.6-1.1-7.6l-2.8,1
		c0,0,4.6,25.1,4,24.2s-31.6-17.1-31.6-17.1l-4,0.4l35.4,19.7c0,0-0.3,5.4,2.9,7.8c3.2,2.3,19.2,17.8,19.2,17.8s-1.2,9.3,2,21.3
		s-0.9,23.6-2.5,25.9c-1.7,2.3-3.6-1.1-5.8-5.2s-13.3-23.7-13.3-23.7l-3.5,1.8c0,0,11.4,18.6,13.7,27.2c2.2,8.6,6.4,10.1,4.3,14.8
		c-2.1,4.7-5.5,28.7-2.6,30.7s37.1,7,33.2-3c-0.6-1.5-2.1-9.3-4.4-23.4c-2.2-13.7-3.9-31.8-2.6-32.9c1.3-1.1,4.6-4,7.6-8.6
		c2.5-3.8,4.2-8.1,7.6-11.2v-8.3c-1.8,0.8-3.9,2.9-4.4,3.6c-3.3,4-13.3,18.3-15.3,17.3s-3-10.2-3-10.2s13.9-15.4,22.7-26v-6.6
		L3079.2,336.2z"/>
	
		<linearGradient id="SVGID_11_" gradientUnits="userSpaceOnUse" x1="2622.1001" y1="1589.9155" x2="2959.7002" y2="1589.9155" gradientTransform="matrix(1 0 0 1 0 -1224.9099)">
		<stop  offset="3.724194e-03" style="stop-color:#655154"/>
		<stop  offset="0.9963" style="stop-color:#736063"/>
	</linearGradient>
	<path class="st17" d="M2925.8,334c-0.6,0.8,5.1-22,5.1-22l-2.5-1.1c0,0,0,0-1.4,7s-4.5,18.4-4.5,18.4l-14.7,13.7l0.8-7.5l11-12.8
		v-17h-4v17l-9.6,8.9l-13-19l-5.1,0.3l16.7,23.4c0,0-7.4,21.2-10.2,22.9c-2.8,1.7-22.1-27.1-22.1-27.1l-0.6-26.5l-3.1,21.8l-6-11.8
		c4.7-3.8,5.8-4.5,5.8-4.5l-4.3-5.5c0,0-1.7,2.2-4,5.1l-2.6-5.1l-1.4,1.9c0,0,0.9,2.2,2.2,5.3c-3.6,4.5-7.9,9.7-9.6,10.9
		c-1.1,0.9-2,1.8-2.7,2.7l-0.4-3.7l4.5-20.1l-4-3.8l-4.1,22.4l-0.5,0.5l0.2,1.4l-1.6,8.9c0,0-1.6,0.4-4.1,1
		c-3.3-4.5-6.7-9.6-6.7-9.6l-4,4.5c0,0,1.1,0.8,6.2,5.6c0.2,0.2,0.4,0.4,0.6,0.5c-9.1,2.4-23,6.4-25.4,9.3
		c-3.6,4.3-14.2,19.6-16.4,18.5s-3.2-10.9-3.2-10.9s25.3-29.3,31-36.8c5.7-7.4,16-28.9,16-28.9l-1.5-2.4l-14.4,24.5l-2-25.5
		l-2.6,30.7c0,0-24.4,32-27.6,29.8c-3.2-2.1-10.2-27.3-10.2-27.3l21.1-26l-5.9-0.7l-16.5,21.1l-10.5-11l1.2-19.7l-4.6-0.3l-1.2,19.7
		l11.9,15.7l0.4,8.8l-16.1-16.9c0,0-2.8-13.5-3.9-21.7c-1.1-8.2-1.1-8.2-1.1-8.2l-3,1.1c0,0,4.9,26.9,4.3,25.9
		c-0.2-0.3-4.3-2.6-9.6-5.5l5-2.4l-3.4-0.5c0,0-1.5,0.7-3.9,1.7c-9.7-5.2-22-11.6-22-11.6l-4.3,0.4l4.2,2.4c-0.2,0.9-0.5,2.5-1,5.1
		c-1.3,6.5-4.2,17.2-4.2,17.2l-13.7,12.8l0.8-7l10.3-12v-15.9h-3.7v15.9l-9,8.3l-12.2-17.7l-4.8,0.3l15.6,21.9
		c0,0-6.9,19.8-9.5,21.3c-2.6,1.6-20.6-25.3-20.6-25.3l-0.5-24.7l-2.9,20.3l-10.3-20.3l-1.3,1.8c0,0,7.1,17.7,11.4,23.9
		c4.2,6.3,23,31,23,31s-1.3,7.8-3.1,8.6c-1.8,0.8-9.6-12-12.2-15.6c-2.6-3.6-26.2-10.7-26.2-10.7l-3.2-26.8l-3.4,2.9l3.4,21.6
		c0,0-1.1-2.6-3.4-4.7c-2.4-2.1-11.4-15.4-11.4-15.4l-3.7,4.2c0,0,1.1,0.8,5.8,5.2c4.8,4.4,7.9,11.5,7.9,11.5s0,0,1.8,0.8
		s21.9,10.7,26.7,13.5c4.8,2.9,5,7.6,7.4,11.7c2.4,4.2,5,6.8,6.1,7.8s-3.7,20.7-3.2,32.9c0.5,12.2-8.1,41.9-8.7,43.2
		c-3.9,8.3,32.6,3.1,35.3,1.6c2.6-1.6-3-47.7-4.6-51.9c-1.6-4.2,2.1-5.2,4.5-12.5s13.2-22.6,13.2-22.6l-2.9-1.7
		c0,0-10.6,16.3-12.7,19.7c-2.1,3.4-4,6.3-5.3,4.2s-4.2-12.2-0.8-22.4c3.4-10.2,2.9-18.2,2.9-18.2s14.5-12.5,17.4-14.3
		s2.9-6.5,2.9-6.5l23-11.1l12.7,7.1c0,0-0.4,5.8,3.1,8.3s20.6,19.1,20.6,19.1s-1.3,10,2.2,22.9s-0.9,25.3-2.7,27.8s-3.9-1.2-6.2-5.6
		c-2.4-4.4-14.2-25.4-14.2-25.4l-3.7,1.9c0,0,12.3,19.9,14.7,29.2c2.4,9.2,6.9,10.8,4.6,15.9c-2.3,5.1-5.9,30.8-2.8,32.9
		c3.2,2.1,39.8,7.5,35.6-3.2c-0.6-1.6-2.3-10-4.7-25c-2.4-14.7-4.1-34.1-2.7-35.3c1.4-1.2,4.9-4.3,8.2-9.2c3.3-5,4-10.8,10.1-14
		c3.4-1.8,13-6,21.2-9.4c3.3,4.3,5.4,8.9,5.4,8.9s0,0,2,0.8s23.5,11.4,28.6,14.5s5.4,8.1,7.9,12.6s5.4,7.3,6.5,8.4s-4,22.1-3.4,35.3
		c0.6,13.1-6.2,16.2-6.8,17.6c-4.2,8.9,32.5,3.3,35.4,1.7c2.8-1.7-3.3-22.4-5-26.9s2.3-5.6,4.8-13.4s14.2-24.3,14.2-24.3l-3.1-1.8
		c0,0-11.3,17.4-13.6,21.1c-2.3,3.6-4.2,6.7-5.7,4.5c-1.4-2.2-4.5-13.1-0.9-24c3.7-10.9,3.1-19.5,3.1-19.5s15.6-13.4,18.7-15.3
		c3.1-1.9,3.1-7,3.1-7l33.7-16.2l-3.7-0.6C2955.9,320,2926.4,333.2,2925.8,334z M2715.8,314.5c-0.4,0.6,3.1-13.9,4.3-18.9l16.4,9.1
		C2728.4,308.4,2716.2,313.9,2715.8,314.5z M2841.4,346.8c-0.7-0.6-2.1-2.3-3.6-4.4c2-0.9,3.9-1.6,5.4-2.3l1.8,11.6
		C2845.1,351.8,2844,349.1,2841.4,346.8z M2889.6,382.5c-1.9,0.8-10.2-12.8-13.1-16.7c-2.8-3.9-28-11.4-28-11.4l-1.8-15.5
		c0.4-0.2,0.8-0.3,1-0.4c2.4-0.8,2.4-0.8,2.4-0.8s4.3-8.1,10.3-13.3c2.5,5.7,5.7,12.4,8,15.8c4.5,6.7,24.6,33.2,24.6,33.2
		S2891.6,381.7,2889.6,382.5z"/>
</g>
<path class="st6" d="M2296.4,380.6c0,0-20.8-33.6-33.3-41.8c-12.5-8.2-22.3-4.1-12.5-26.1s36.2-68.6,36.2-68.6l24.5-15.2l15.9,17.9
	l7,41.2l27.9,23.3l4.6,20.7C2366.6,332,2306,388.1,2296.4,380.6z"/>
<path class="st6" d="M2682.8,383.8c0,0-20.8-33.6-33.3-41.8c-12.5-8.2-22.3-4.1-12.5-26.1s36.2-68.6,36.2-68.6l24.5-15.2l15.9,17.9
	l7,41.2l27.9,23.3l4.6,20.7C2753.1,335.2,2692.4,391.3,2682.8,383.8z"/>
<path class="st6" d="M1889.6,379c0,0,20.8-33.6,33.3-41.8c12.5-8.2,22.3-4.1,12.5-26.1s-36.2-68.6-36.2-68.6l-24.5-15.2l-15.9,17.9
	l-7,41.2l-27.9,23.3l-4.6,20.7C1819.3,330.5,1880,386.5,1889.6,379z"/>
<g>
	<path class="st18" d="M928.6,284.2c0,0-7,2.7-10.7,12.3c-3.7,9.6-14.4,9.6-17.2,0s-13.9-89.2-13.9-89.2c-4.2,0,5.6,96.1,8.4,110.7
		c2.8,14.7-2.8,14.1-9.8,10s-23.7-26-23.7-26s1.4,11,7,16.5s23.7,34.3,25.1,60.4c1.4,26.1-8.4,68.6-9.8,78.2
		c-1.4,9.6,19.5,6.9,23.7,3.2c4.2-3.7,5.6-6,0-22.7s-1.4-97.2,0-112.6C909.1,309.5,928.6,284.2,928.6,284.2z"/>
	<path class="st18" d="M1241.6,313.8c-7,4.1-12.5,4.7-9.8-10c2.8-14.7,12.5-110.7,8.4-110.7c0,0-11.1,79.6-13.9,89.2
		s-13.5,9.6-17.2,0s-10.7-12.3-10.7-12.3s19.5,25.4,20.9,40.8s5.6,95.9,0,112.6s-4.2,19,0,22.7s25.1,6.4,23.7-3.2
		s-11.1-52.1-9.8-78.2c1.4-26.1,19.5-54.9,25.1-60.4s7-16.5,7-16.5S1248.6,309.7,1241.6,313.8z"/>
	<path class="st18" d="M2316,326.5c-7,4.1-12.5,4.7-9.8-10c2.8-14.7,12.5-110.7,8.4-110.7c0,0-11.1,79.6-13.9,89.2
		c-2.8,9.6-13.5,9.6-17.2,0s-10.7-12.3-10.7-12.3s19.5,25.4,20.9,40.8s5.6,95.9,0,112.6s-4.2,19,0,22.7s25.1,6.4,23.7-3.2
		s-11.1-52.1-9.8-78.2c1.4-26.1,19.5-54.9,25.1-60.4s7-16.5,7-16.5S2323,322.4,2316,326.5z"/>
	<path class="st18" d="M2719.2,320c5.6-5.5,7-16.5,7-16.5s-16.7,22-23.7,26.1s-12.5,4.7-9.8-10c2.8-14.7,12.5-110.7,8.4-110.7
		c0,0-11.1,79.6-13.9,89.2c-2.8,9.6-13.5,9.6-17.2,0s-10.7-12.3-10.7-12.3s19.5,25.4,20.9,40.8s5.6,95.9,0,112.6s-4.2,19,0,22.7
		s25.1,6.4,23.7-3.2s-11.1-52.1-9.8-78.2C2695.5,354.3,2713.6,325.5,2719.2,320z"/>
	<path class="st18" d="M1913.2,281c0,0-7,2.7-10.7,12.3c-3.7,9.6-14.4,9.6-17.2,0c-2.8-9.6-13.9-89.2-13.9-89.2
		c-4.2,0,5.6,96.1,8.4,110.7c2.8,14.7-2.8,14.1-9.7,10c-7-4.1-23.7-26.1-23.7-26.1s1.4,11,7,16.5s23.7,34.3,25.1,60.4
		s-8.4,68.6-9.8,78.2s19.5,6.9,23.7,3.2c4.2-3.7,5.6-6,0-22.7s-1.4-97.2,0-112.6C1893.7,306.4,1913.2,281,1913.2,281z"/>
</g>
<g>
	<path class="st19" d="M892.8,426.7h-3.5l-0.3,5h3.9c1.4,0,2.5-1.1,2.5-2.5C895.3,427.8,894.2,426.7,892.8,426.7z"/>
	<path class="st19" d="M867.9,312.9h-2.4l1.2,3.4h1.3c1,0,1.7-0.8,1.7-1.7S868.9,312.9,867.9,312.9z"/>
	<path class="st19" d="M889.6,338.3c0-1.1-0.9-2.1-2.1-2.1h-6.3l1.4,4.1h4.9C888.6,340.4,889.6,339.5,889.6,338.3z"/>
	<path class="st19" d="M894.4,356.9c1.1,0,2.1-0.9,2.1-2.1c0-1.1-0.9-2.1-2.1-2.1h-6.3l1.4,4.1h4.9V356.9z"/>
	<path class="st19" d="M894.7,358.2h-5.2l1.2,3.4h4.1c1,0,1.7-0.8,1.7-1.7C896.4,359,895.7,358.2,894.7,358.2z"/>
	<path class="st19" d="M898.5,370.6h6.3v-4.1h-6.3c-1.1,0-2.1,0.9-2.1,2.1C896.4,369.7,897.4,370.6,898.5,370.6z"/>
	<path class="st19" d="M897.9,388.8c0,0.9,0.8,1.7,1.7,1.7h5.2v-3.4h-5.2C898.7,387.1,897.9,387.8,897.9,388.8z"/>
	<path class="st19" d="M897.5,347c0,1.3,1,2.3,2.3,2.3h7v-4.6h-7C898.5,344.7,897.5,345.8,897.5,347z"/>
	<path class="st19" d="M904.2,316.2c0,1.3,1,2.3,2.3,2.3h2.8l1.4-4.6h-4.2C905.3,313.9,904.2,315,904.2,316.2z"/>
	<path class="st19" d="M896.4,328.1h4.9c1.1,0,2.1-0.9,2.1-2.1c0-1.1-0.9-2.1-2.1-2.1h-4.9V328.1z"/>
	<path class="st19" d="M895.8,299.2c1.1,0,2.1-0.9,2.1-2.1c0-1.1-0.9-2.1-2.1-2.1h-3.5l1.4,4.1h2.1V299.2z"/>
	<path class="st19" d="M895.9,375.3h-2.4l1.2,3.4h1.3c1,0,1.7-0.8,1.7-1.7C897.6,376,896.9,375.3,895.9,375.3z"/>
	<path class="st19" d="M895.7,398.7h-2.4l-0.2,3.4h2.7c1,0,1.7-0.8,1.7-1.7C897.4,399.5,896.7,398.7,895.7,398.7z"/>
	<path class="st19" d="M901.8,412.3c-1,0-1.7,0.8-1.7,1.7c0,0.9,0.8,1.7,1.7,1.7h2.7l-0.2-3.4L901.8,412.3L901.8,412.3z"/>
	<path class="st19" d="M1234.3,412.5c-1.4,0-2.5,1.1-2.5,2.5s1.1,2.5,2.5,2.5h3.9l-0.3-5H1234.3L1234.3,412.5z"/>
	<path class="st19" d="M1257.4,300.4c0,0.9,0.8,1.7,1.7,1.7h1.3l1.2-3.4h-2.4C1258.2,298.7,1257.4,299.5,1257.4,300.4z"/>
	<path class="st19" d="M1237.5,324.1c0,1.1,0.9,2.1,2.1,2.1h4.9l1.4-4.1h-6.3C1238.4,322.1,1237.5,323,1237.5,324.1z"/>
	<path class="st19" d="M1230.6,340.6c0,1.1,0.9,2.1,2.1,2.1h4.9l1.4-4.1h-6.3C1231.5,338.5,1230.6,339.5,1230.6,340.6z"/>
	<path class="st19" d="M1236.4,347.5l1.2-3.4h-5.2c-1,0-1.7,0.8-1.7,1.7s0.8,1.7,1.7,1.7L1236.4,347.5L1236.4,347.5z"/>
	<path class="st19" d="M1222.2,352.3v4.1h6.3c1.1,0,2.1-0.9,2.1-2.1s-0.9-2.1-2.1-2.1h-6.3V352.3z"/>
	<path class="st19" d="M1227.4,372.8h-5.2v3.4h5.2c1,0,1.7-0.8,1.7-1.7S1228.3,372.8,1227.4,372.8z"/>
	<path class="st19" d="M1229.6,332.8c0-1.3-1-2.3-2.3-2.3h-7v4.6h7C1228.5,335.1,1229.6,334.1,1229.6,332.8z"/>
	<path class="st19" d="M1222.8,302c0-1.3-1-2.3-2.3-2.3h-4.2l1.4,4.6h2.8C1221.8,304.3,1222.8,303.3,1222.8,302z"/>
	<path class="st19" d="M1225.7,313.8h4.9v-4.1h-4.9c-1.1,0-2.1,0.9-2.1,2.1S1224.6,313.8,1225.7,313.8z"/>
	<path class="st19" d="M1231.2,285h2.1l1.4-4.1h-3.5c-1.1,0-2.1,0.9-2.1,2.1S1230.1,285,1231.2,285z"/>
	<path class="st19" d="M1231.2,364.5h1.3l1.2-3.4h-2.4c-1,0-1.7,0.8-1.7,1.7C1229.4,363.7,1230.2,364.5,1231.2,364.5z"/>
	<path class="st19" d="M1233.8,384.5h-2.4c-1,0-1.7,0.8-1.7,1.7s0.8,1.7,1.7,1.7h2.7L1233.8,384.5z"/>
	<path class="st19" d="M1225.3,398.1h-2.4l-0.2,3.4h2.7c1,0,1.7-0.8,1.7-1.7C1227,398.8,1226.2,398.1,1225.3,398.1z"/>
	<path class="st19" d="M2308.6,425.1c-1.4,0-2.5,1.1-2.5,2.5s1.1,2.5,2.5,2.5h3.9l-0.3-5H2308.6L2308.6,425.1z"/>
	<path class="st19" d="M2331.8,313c0,0.9,0.8,1.7,1.7,1.7h1.3l1.2-3.4h-2.4C2332.6,311.3,2331.8,312.1,2331.8,313z"/>
	<path class="st19" d="M2311.8,336.8c0,1.1,0.9,2.1,2.1,2.1h4.9l1.4-4.1h-6.3C2312.8,334.7,2311.8,335.6,2311.8,336.8z"/>
	<path class="st19" d="M2305,353.2c0,1.1,0.9,2.1,2.1,2.1h4.9l1.4-4.1h-6.3C2305.9,351.2,2305,352.1,2305,353.2z"/>
	<path class="st19" d="M2310.8,360.1l1.2-3.4h-5.2c-1,0-1.7,0.8-1.7,1.7s0.8,1.7,1.7,1.7L2310.8,360.1L2310.8,360.1z"/>
	<path class="st19" d="M2296.6,364.9v4.1h6.3c1.1,0,2.1-0.9,2.1-2.1s-0.9-2.1-2.1-2.1h-6.3V364.9z"/>
	<path class="st19" d="M2301.7,385.5h-5.2v3.4h5.2c1,0,1.7-0.8,1.7-1.7S2302.7,385.5,2301.7,385.5z"/>
	<path class="st19" d="M2303.9,345.4c0-1.3-1-2.3-2.3-2.3h-7v4.6h7C2302.9,347.8,2303.9,346.7,2303.9,345.4z"/>
	<path class="st19" d="M2297.2,314.7c0-1.3-1.1-2.3-2.3-2.3h-4.2l1.4,4.6h2.8C2296.1,317,2297.2,315.9,2297.2,314.7z"/>
	<path class="st19" d="M2300.1,326.5h4.9v-4.1h-4.9c-1.1,0-2.1,0.9-2.1,2.1C2298,325.6,2298.9,326.5,2300.1,326.5z"/>
	<path class="st19" d="M2305.6,297.7h2.1l1.4-4.1h-3.5c-1.1,0-2.1,0.9-2.1,2.1C2303.5,296.7,2304.4,297.7,2305.6,297.7z"/>
	<path class="st19" d="M2305.5,377.1h1.3l1.2-3.4h-2.4c-1,0-1.7,0.8-1.7,1.7C2303.8,376.4,2304.6,377.1,2305.5,377.1z"/>
	<path class="st19" d="M2308.1,397.1h-2.4c-1,0-1.7,0.8-1.7,1.7s0.8,1.7,1.7,1.7h2.7L2308.1,397.1z"/>
	<path class="st19" d="M2299.6,410.7h-2.4l-0.2,3.4h2.7c1,0,1.7-0.8,1.7-1.7C2301.4,411.5,2300.6,410.7,2299.6,410.7z"/>
	<path class="st19" d="M2695.1,428.3c-1.4,0-2.5,1.1-2.5,2.5s1.1,2.5,2.5,2.5h3.9l-0.3-5H2695.1L2695.1,428.3z"/>
	<path class="st19" d="M2720,314.5c-1,0-1.7,0.8-1.7,1.7s0.8,1.7,1.7,1.7h1.3l1.2-3.4L2720,314.5L2720,314.5z"/>
	<path class="st19" d="M2698.3,339.9c0,1.1,0.9,2.1,2.1,2.1h4.9l1.4-4.1h-6.3C2699.2,337.9,2698.3,338.8,2698.3,339.9z"/>
	<path class="st19" d="M2691.4,356.4c0,1.1,0.9,2.1,2.1,2.1h4.9l1.4-4.1h-6.3C2692.4,354.3,2691.4,355.3,2691.4,356.4z"/>
	<path class="st19" d="M2697.2,363.3l1.2-3.4h-5.2c-1,0-1.7,0.8-1.7,1.7s0.8,1.7,1.7,1.7L2697.2,363.3L2697.2,363.3z"/>
	<path class="st19" d="M2683.1,368.1v4.1h6.3c1.1,0,2.1-0.9,2.1-2.1c0-1.1-0.9-2.1-2.1-2.1h-6.3V368.1z"/>
	<path class="st19" d="M2688.2,388.6h-5.2v3.4h5.2c1,0,1.7-0.8,1.7-1.7C2689.9,389.4,2689.2,388.6,2688.2,388.6z"/>
	<path class="st19" d="M2690.4,348.6c0-1.3-1-2.3-2.3-2.3h-7v4.6h7C2689.3,350.9,2690.4,349.9,2690.4,348.6z"/>
	<path class="st19" d="M2683.6,317.8c0-1.3-1.1-2.3-2.3-2.3h-4.2l1.4,4.6h2.8C2682.6,320.1,2683.6,319.1,2683.6,317.8z"/>
	<path class="st19" d="M2686.5,329.6h4.9v-4.1h-4.9c-1.1,0-2.1,0.9-2.1,2.1C2684.5,328.7,2685.4,329.6,2686.5,329.6z"/>
	<path class="st19" d="M2692,300.8h2.1l1.4-4.1h-3.5c-1.1,0-2.1,0.9-2.1,2.1S2690.9,300.8,2692,300.8z"/>
	<path class="st19" d="M2692,380.3h1.3l1.2-3.4h-2.4c-1,0-1.7,0.8-1.7,1.7S2691,380.3,2692,380.3z"/>
	<path class="st19" d="M2694.6,400.3h-2.4c-1,0-1.7,0.8-1.7,1.7c0,0.9,0.8,1.7,1.7,1.7h2.7L2694.6,400.3z"/>
	<path class="st19" d="M2686.1,413.9h-2.4l-0.2,3.4h2.7c1,0,1.7-0.8,1.7-1.7C2687.8,414.6,2687,413.9,2686.1,413.9z"/>
	<path class="st19" d="M1877.3,423.5h-3.5l-0.3,5h3.9c1.4,0,2.5-1.1,2.5-2.5S1878.7,423.5,1877.3,423.5z"/>
	<path class="st19" d="M1852.5,309.7h-2.4l1.2,3.4h1.3c1,0,1.7-0.8,1.7-1.7S1853.4,309.7,1852.5,309.7z"/>
	<path class="st19" d="M1874.1,335.2c0-1.1-0.9-2.1-2.1-2.1h-6.3l1.4,4.1h4.9C1873.2,337.2,1874.1,336.3,1874.1,335.2z"/>
	<path class="st19" d="M1878.9,353.7c1.1,0,2.1-0.9,2.1-2.1c0-1.1-0.9-2.1-2.1-2.1h-6.3l1.4,4.1h4.9V353.7z"/>
	<path class="st19" d="M1879.3,355.1h-5.2l1.2,3.4h4.1c1,0,1.7-0.8,1.7-1.7C1881,355.9,1880.2,355.1,1879.3,355.1z"/>
	<path class="st19" d="M1883.1,367.4h6.3v-4.1h-6.3c-1.1,0-2.1,0.9-2.1,2.1C1881,366.5,1882,367.4,1883.1,367.4z"/>
	<path class="st19" d="M1882.5,385.6c0,0.9,0.8,1.7,1.7,1.7h5.2v-3.4h-5.2C1883.3,383.9,1882.5,384.7,1882.5,385.6z"/>
	<path class="st19" d="M1882,343.9c0,1.3,1,2.3,2.3,2.3h7v-4.6h-7C1883.1,341.6,1882,342.6,1882,343.9z"/>
	<path class="st19" d="M1888.8,313.1c0,1.3,1,2.3,2.3,2.3h2.8l1.4-4.6h-4.2C1889.9,310.8,1888.8,311.8,1888.8,313.1z"/>
	<path class="st19" d="M1881,324.9h4.9c1.1,0,2.1-0.9,2.1-2.1c0-1.1-0.9-2.1-2.1-2.1h-4.9V324.9z"/>
	<path class="st19" d="M1880.4,296.1c1.1,0,2.1-0.9,2.1-2.1s-0.9-2.1-2.1-2.1h-3.5l1.4,4.1h2.1V296.1z"/>
	<path class="st19" d="M1880.5,372.1h-2.4l1.2,3.4h1.3c1,0,1.7-0.8,1.7-1.7S1881.4,372.1,1880.5,372.1z"/>
	<path class="st19" d="M1880.3,395.6h-2.4l-0.2,3.4h2.7c1,0,1.7-0.8,1.7-1.7C1882,396.3,1881.2,395.6,1880.3,395.6z"/>
	<path class="st19" d="M1886.4,409.1c-1,0-1.7,0.8-1.7,1.7s0.8,1.7,1.7,1.7h2.7l-0.2-3.4L1886.4,409.1L1886.4,409.1z"/>
</g>
<g>
	<path class="st5" d="M1293.2,215c1.4-17.8-2.8-34.3-25.1-38.4c-22.3-4.1-16.7-12.3-15.3-26.1s8.4-54-20.9-53.8
		c-12.9,0.1-26.5,14.8-33.4,45.9s-2.8,92.9-9.8,99.8c-7,6.9-30.7,8.2-33.4,26.1c-0.3,2.2-0.4,4.4-0.4,6.7c-3,0.3-5.8,0.1-8.4-1.4
		c-29.3-16.7-49.8-8.5-59.4-1.8c-12.3-22.6-36.6-44.1-74.1-40.1c-8.1,0.9-9.8,2.6-9.9,3.7c-0.5-0.6-1.6-1.6-3.5-3.1
		c-8.8-6.8-33-19.2-60.7-9.7c-2.2-14.8-4.1-34.5-8.1-52.5c-7-31.2-25.6-50.4-38.5-50.5c-29.3-0.2-33.5,32.1-32.1,45.8
		s11.1,13.3-11.2,17.4c-22.3,4.1-16.6,28.6-15.2,46.4c0.5,6.9,4.8,14.6,9,22.3c-1.4-0.2-2.7-0.7-4-1.4c-33-18.8-55.6-8.2-65.1-0.9
		c-2.1,1.6-4.2,3.4-6.4,5.3c-7-1.5-14.6-2-23-1.1c-7.6,0.8-9.1,2.4-9.2,3.4c-0.5-0.6-1.5-1.5-3.3-2.9c-10-7.7-41.2-23.2-73.9-0.2
		c-11.3,8-7.4,20.8-16.8,25.4c-9.4,4.6-20.7-6.6-42,8.8s-11,33.2-14.3,35.3c-42.9,27.4-13.5,61.1,4,57.1c17.6-4,12.5-12.6,32.8-35.6
		s29.1-25.1,43.8-21.4c11.4,2.9,20.1,5.5,38.8,3.2c0,0.2,0,0.4,0,0.6c-0.9,18.7,15.1,29.3,25.8,26.9c7.1-1.6,11.5-10.4,22.9-14.2
		c2.1,2.9,4.9,5.9,9.2,8.8c-13,2.7-18,9.2-20.2,17.1c-0.5-0.1-0.9-0.1-1.5-0.2c0,0-16-11.1-22.8,3.1c-6.9,14.2-18.5,18.7-4.9,23.4
		c13.2,4.5,11.9,4.1,22.6,11.4c0.8,13.2,17.5,21.5,33.8,12.1c19.5-11.2,32.4-16.3,17.6-31.9c-15.1-15.9,24.6,2,13.2-17.8
		c-1.9-3.3-4-6-6.3-8.3c7.2-1.1,14.6-5.1,20.8-14.3c1.3-0.2,2.6-0.4,3.8-0.7c0.9,12.5,10.4,22.3,19.9,25c1.4,10.3,2.8,16,14.4,13.5
		c13.6-2.9-7.6,11.9,7.6,12.1c15.1,0.2,19.2-10.8,19.2-10.8c6-16.4-6.8-20.3-16.3-26.5c2.4-3.9,5-8.8,9.5-15.2
		c2.9,2,5.8,4.5,8.7,7.8c19.3,21.8,14.5,30,31.2,33.8s30.8-11,23.7-49.5c-0.5-2.8-8.1-15.3-20.7-27.5c1.3-0.1,2.6-0.1,3.9,0
		c12.2,9.9,27.4,25.8,34.1,21.3c3.9-2.6,8.8-8.6,12.6-16c6.7-0.7,14.7-2,24.6-4.2c30.1-6.7,20.9,7.9,35,22.3c-2.8,6-4.7,11.9-4.9,17
		c-0.2,4.2,0.5,8,1.9,11.3c-1.9-2.4-5.9-4.1-13.8-5c0,0-17.1-11.9-24.5,3.3c-7.4,15.2-19.8,20.1-5.2,25c14.6,5,12.6,4.3,25.3,12.9
		s25.8-2.2,21.1-15.5c-2.5-7.2-0.4-13.4-1.6-17.9c4.8,8.4,14,12.6,20.9,11.1c10-2.2,14.3-19.9,43.7-13.4c29.4,6.6,35.6,3.3,48.6,0
		s31-12.3,49,8.1s13.5,28,29.1,31.6s28.8-10.3,22.1-46.2c-0.6-3.4-12.4-22.1-31.2-35.7c-17.3-12.6,7.1-14.9-9.5-31.2
		c3.8-5.8,7.6-10.8,11.4-12.8c12.5-6.9,12.5-50.7,23.7-41.1c11.1,9.6,0,34.2,9.8,37c9.8,2.7-2.8,19.2,8.4,26.1
		c11.1,6.9,22.3-2.7,27.9,8.2c5.6,11,15.5,27.1,17.5,11.5s0.6-26.6-14.7-41.7C1265.3,256.2,1291.8,232.9,1293.2,215z M892,260.5
		c-0.7-0.6-1.4-1.3-2.2-2c0.3-5.5,1.4-10.8,5.4-14.1c4.7-4,6.1,4,7.1,15.1C899.2,261,895.8,260.9,892,260.5z"/>
	<path class="st5" d="M1164.9,369c-8.3-8.3-21.2-2.7-19.4,9.7c1.8,12.4,1.6,20,14.1,17.3c12.7-2.7-7.1,11.1,7.1,11.3
		c14.1,0.2,18-10.1,18-10.1C1191.2,379.1,1173.2,377.3,1164.9,369z"/>
	<path class="st5" d="M516.6,314.9c-18.9-13.7,11.7-15.2-14.8-35.7c-19.5-15.1-34.2,0.4-45-5.7c-29.3-16.7-49.8-8.5-59.4-1.8
		c-12.3-22.6-36.6-44.1-74.1-40.1c-8.1,0.9-9.8,2.6-9.9,3.7c-0.5-0.6-1.6-1.6-3.5-3.1c-10.7-8.3-44.2-24.9-79.1-0.2
		c-12.1,8.5-7.9,22.3-18,27.2c-2.7,1.3-5.6,1.4-8.7,1.2c-1.4-1.4-3.1-2.8-5.1-4.3c-20.9-16.2-36.7,0.5-48.3-6.1
		c-33-18.8-55.6-8.2-65.1-0.9c-2.2,1.7-4.4,3.6-6.8,5.6c-7.3-1.7-15.4-2.3-24.3-1.4c-7.6,0.8-9.1,2.4-9.2,3.4
		c-0.5-0.6-1.5-1.5-3.3-2.9c-6.6-5.1-22.5-13.6-41.9-12.1v85.6c4.5,0.1,9.7-0.2,16-1.1c0,0.3,0,0.6-0.1,0.8
		c-0.9,18.7,15.1,29.3,25.8,26.9c6.8-1.5,11.2-9.8,21.7-13.7c2.1,2.9,5,5.8,9.3,8.6c-12.2,2.8-17,9.3-19.1,17
		c-0.9-0.2-1.9-0.3-3-0.4c0,0-16-11.1-22.8,3.1C21,382.7,9.4,387.2,23,391.9c13.6,4.7,11.8,4,23.6,12.1c0.2,0.2,0.5,0.3,0.7,0.4
		c1.6,12.5,17.9,20.1,33.7,11c19.5-11.2,32.4-16.3,17.6-31.9c-15.1-15.9,24.6,2,13.2-17.8c-2-3.5-4.2-6.2-6.6-8.5
		c6.7-1.4,13.5-5.4,19.3-13.8c1.4-0.2,2.7-0.4,4-0.6c1,12.3,10.5,22,19.9,24.6c1.4,10.3,2.8,16,14.4,13.5
		c13.6-2.9-7.6,11.9,7.6,12.1s19.2-10.8,19.2-10.8c6-16.4-6.8-20.3-16.3-26.5c2.5-4,5.2-9.2,10.1-15.9c3.2,2.1,6.5,4.9,9.8,8.6
		c19.3,21.8,14.5,30,31.2,33.8s30.8-11,23.7-49.5c-0.5-2.8-8.1-15.3-20.8-27.6c3.6-0.1,7.2,0.5,11.3,1.5c15.8,4,26.8,7.6,62.3-0.3
		c30.1-6.7,20.9,7.9,35,22.3c-2.8,6-4.7,11.9-4.9,17c-0.2,4.2,0.5,8,1.9,11.3c-1.9-2.4-5.9-4.1-13.8-5c0,0-17.1-11.9-24.5,3.3
		c-7.4,15.2-19.8,20.1-5.2,25c14.6,5,12.6,4.3,25.3,12.9s25.8-2.2,21.1-15.5c-2.5-7.2-0.4-13.4-1.6-17.9c4.8,8.4,14,12.6,20.9,11.1
		c10-2.2,14.3-19.9,43.7-13.4c29.4,6.6,35.6,3.3,48.6,0s31-12.3,49,8.1s13.5,28,29.1,31.6s28.8-10.3,22.1-46.2
		C547.2,347.3,535.4,328.6,516.6,314.9z"/>
	<path class="st5" d="M475.4,369c-8.3-8.3-21.2-2.7-19.4,9.7c1.8,12.4,1.6,20,14.1,17.3c12.7-2.7-7.1,11.1,7.1,11.3
		c14.1,0.2,18-10.1,18-10.1C501.7,379.1,483.7,377.3,475.4,369z"/>
	<path class="st5" d="M2487.3,282.6c-20.9-15.1,12.9-16.8-16.4-39.6c-21.6-16.8-37.9,0.5-49.9-6.4c-23-13.1-41.1-12.4-53.5-8.2
		c0-0.3,0.1-0.5,0.1-0.8c1.4-17.8,7.1-42.3-15.2-46.4c-22.3-4.1-12.6-3.7-11.2-17.4c1.4-13.7-2.8-46-32.1-45.8
		c-12.9,0.1-31.5,19.4-38.5,50.5c-7,31.2-7.5,67.4-14.4,74.2c-0.6,0.6-1.3,1.2-2,1.9c-9.7-3.1-22.1-4.3-35.5,0.5
		c2.1-5.4,2.4-11.8-12.5-23.4c-23.2-18-40.6,0.5-53.5-6.8c-36.5-20.8-61.6-9.1-72.1-1c-7.8,6-16.2,14.6-26.2,21.1
		c-11.7-6.3-33.7-12.4-56.4,3.6c-9.5,6.7-6.3,17.6-14.2,21.5c-7.5,3.7-16.4-4.5-32.5,5.4c-6.3-11-16.4-19.5-21.4-24.4
		c-7-6.9-7.5-43.1-14.4-74.2c-7-31.2-25.6-50.4-38.5-50.5c-29.3-0.2-33.5,32.1-32.1,45.8c1.4,13.7,11.1,13.3-11.2,17.4
		c-22.3,4.1-16.6,28.6-15.2,46.4s27.9,41.2,12.5,56.3c-15.3,15.1-16.7,26.1-14.7,41.7s11.9-0.5,17.5-11.5s16.7-1.4,27.9-8.2
		c11.1-6.9-1.4-23.3,8.4-26.1s-1.4-27.4,9.7-37s3.9,48.4,16.4,55.3c6.4,3.5,15.2,12,23.3,18.7c-7.8,17.7,9,33.2,20.1,30.6
		c14.8-3.4,10.5-10.7,27.7-30.1c17-19.2,24.4-21.1,36.6-18.2c-0.1,1-0.2,1.9-0.3,2.9c-1,20.7,16.8,32.5,28.6,29.9
		c11.3-2.5,16.6-21.8,47.6-16.7c2.1,2.5,5.1,5,9.4,7.4c6.9,3.8,25.1,12.4,38.5-3.1c3.5-0.7,6.9-1.6,10.5-2.5
		c-0.1,0.2-0.2,0.4-0.4,0.5c-38.8,24.8-12.3,55.3,3.6,51.7c8.2-1.9,10.9-4.9,14.2-10.2c2.2,3,5.8,4,12.5,2.6
		c15.1-3.2-8.4,13.2,8.4,13.4c16.8,0.2,21.3-11.9,21.3-11.9c7.4-20.2-11.1-23.4-21.5-31.9c6.4-6.6,11.4-10.7,16.1-12.8
		c2.5,2,5.1,4.3,7.6,7.2c21.4,24.2,16,33.3,34.5,37.5c16.4,3.7,30.6-8.8,28-41.6c2.1-1.6,4.3-3.4,6.5-5.3c6.8-0.9,10.4,0,12.7,2.1
		c-0.7,19.2,15.7,29.9,26.7,27.5l0,0c4.8,1.9,10.8,3.5,17,2.9c-8.9,10.5-4.8,27.2-9.9,39.6c-7.4,18.1,13.3,32.6,33.5,21
		s33.5-16.9,18.2-33c-15.6-16.4,25.4,2.1,13.7-18.5s-32.8-18.6-32.8-18.6c-2.2,0.2-4.2,0.5-6,0.9c2.5-2.7,4.9-6.1,7-10.4
		c2.4,0.3,5,0.7,7.8,1.3c2.3,0.5,4.4,1,6.4,1.4c1.5,1.3,3,1.7,4.1,0.8c23.7,4.3,30.6,1.1,43.3-2.1c14.4-3.6,34.3-13.7,54.3,8.9
		s15,31.1,32.2,35s31.9-11.4,24.5-51.2C2521.2,318.4,2508.2,297.8,2487.3,282.6z M2299.6,253.1c1-8.4,2.7-13.6,6.6-10.2
		c3.8,3.2,5,8.2,5.3,13.4C2307.9,254.8,2303.9,253.7,2299.6,253.1z"/>
	<path class="st5" d="M2441.3,342.1c-9.2-9.2-23.5-3-21.5,10.8s1.8,22.1,15.6,19.2c14.1-3-7.8,12.3,7.8,12.5
		c15.7,0.2,19.9-11.1,19.9-11.1C2470.5,353.4,2450.5,351.3,2441.3,342.1z"/>
	<path class="st5" d="M2074.6,323.3c-10.5,1-17.3,3.8-21.8,7.7c-1.7,0.9-3.2,2.5-4.4,4.9c-5.6,11.6-15.1,15.6-5,19.4
		c-0.7,7.1-1.1,14.3-3.6,20.5c-8,19.4,14.2,35,35.9,22.5c21.6-12.5,35.9-18.1,19.5-35.3c-16.7-17.6,27.2,2.3,14.7-19.8
		C2097.3,321.2,2074.6,323.3,2074.6,323.3z"/>
	<path class="st5" d="M2278.8,354.2c0,0-14.4-10-20.7,2.8c-6.2,12.8-16.7,16.9-4.4,21.2c12.3,4.2,10.6,3.7,21.4,10.9
		c10.8,7.3,21.8-1.8,17.8-13.1C2288.9,364.7,2298.6,356.4,2278.8,354.2z"/>
	<path class="st5" d="M3015.9,234.2c-9.8,7.6-20.9,19.6-35,25.4c-9.9-5.5-22.1-8.4-36.6-6.9c-6.9,0.7-8.3,2.2-8.3,3.1
		c-0.5-0.5-1.3-1.4-3-2.6c-7.5-5.8-28.4-16.5-52.2-7.9c2.1-5.4,2.4-11.8-12.5-23.4c-23.2-18-40.6,0.5-53.5-6.8
		c-28.8-16.4-50.5-12.6-63.5-6.2c-3.4-8-10.1-14.1-22.5-16.4c-22.3-4.1-16.7-12.3-15.3-26.1s8.4-54-20.9-53.8
		c-12.9,0.1-26.5,14.8-33.4,45.9c-6,27-3.7,76.9-7.5,94.2c-1.1,3.2-2.5,6-5.8,7.6c-7.9,3.9-17.5-5.6-35.5,7.4s-9.3,28.1-12.1,29.8
		c-36.2,23.2-11.4,51.6,3.4,48.2c13.8-3.1,11.1-9.6,24.3-26.1c2.7,3.9,5.6,6.9,8.1,8.5c6.4,4.2,16-18,25.8-31.7c1.9,0.1,4,0.5,6.1,1
		c-0.1,1-0.2,1.9-0.3,2.9c-1,20.7,16.8,32.5,28.6,29.9c10.4-2.3,15.7-18.6,40.2-17.5c1.6,0.8,2.9,2.2,4.1,4.5c1,2,2.1,4.1,3.3,6.2
		c-3.1-0.3-5.1-0.1-5.1-0.1c-10.5,1-17.3,3.8-21.8,7.7c-1.7,0.9-3.2,2.5-4.4,4.9c-5.6,11.6-15.1,15.6-5,19.4
		c-0.7,7.1-1.1,14.3-3.6,20.5c-8,19.4,14.2,35,35.9,22.5c21.6-12.5,35.9-18.1,19.5-35.3c-16.7-17.6,27.2,2.3,14.7-19.8
		c-4.5-7.9-10.2-12.6-15.8-15.5c0.2-1.4,0.3-2.8,0.4-4.1c8.6,3.7,22.4,6.8,33.2-5.7c3.5-0.7,6.9-1.6,10.5-2.5
		c-0.1,0.2-0.2,0.4-0.4,0.5c-38.8,24.8-12.3,55.3,3.6,51.7c8.2-1.9,10.9-4.9,14.2-10.2c2.2,3,5.8,4,12.5,2.6
		c15.1-3.2-8.4,13.2,8.4,13.4c16.8,0.2,21.3-11.9,21.3-11.9c7.4-20.2-11.1-23.3-21.5-31.9c6.4-6.6,11.4-10.7,16.1-12.8
		c2.5,2,5.1,4.3,7.6,7.2c21.4,24.2,16,33.3,34.5,37.5c17.1,3.9,31.7-9.8,27.7-45.5c0.4-0.1,0.8-0.2,1.3-0.3
		c10.6-2.4,15.4-1.6,18.3,1c0.2,16.6,13.4,26.5,23.9,26.3c4.8,2.2,11.5,4.6,18.6,4.2c-7.2,10.5-3.8,26.2-8.7,38
		c-7.4,18.1,13.3,32.6,33.5,21s33.5-16.9,18.2-33c-15.6-16.4,25.4,2.1,13.7-18.5s-32.8-18.6-32.8-18.6c-1.6,0.1-3,0.4-4.4,0.6
		c2.2-2.7,4.2-6,6.1-10.1c2.2,0.3,4.6,0.6,7.1,1.2c32.6,7.3,39.4,3.6,53.9,0c1.9-0.5,4.8-1.1,6.9-1.7v-92.7
		C3048,217,3025.4,226.9,3015.9,234.2z"/>
	<path class="st5" d="M2941,354.2c0,0-14.4-10-20.7,2.8c-6.2,12.8-16.7,16.9-4.4,21.2c12.3,4.2,10.6,3.7,21.4,10.9
		c10.8,7.3,21.8-1.8,17.8-13.1C2951.2,364.7,2960.8,356.4,2941,354.2z"/>
</g>
<g>
	<path class="st20" d="M1174.4,435.8c-3.8-3-2-19.8-4-19.8c-1.9,0.1,0.7,18.7-1.7,18.4c-2.5-0.3-2.1-20.5-5.3-19.9
		c-3.2,0.6,4.5,19.1-2.2,21.2c-6.7,2-15.8,0.8-17.8-1.3c-2-2.1-1.1-12.1-1.9-12.2s-0.3,8.9-1.1,8.9c-0.8,0-0.3-15.2-2.2-13.7
		c-1.9,1.5,1.5,10.1-1.1,15.9s-17.4,3.9-18.5,1.1s0.4-6.2-1.4-7.1s1.5,2.1-1.4,6.8c-2.9,4.7-17.3,1.6-17.3,1.6s-19.2,4.1-21.9-1.6
		c-2.7-5.7,1.3-15.7-1.9-15c-3.2,0.7-1.2,16.5-5.1,16.5s-0.8-17-3.8-16.5s1.1,15.6-2.3,16.5s-1.7-21.6-4.8-20.1
		c-3.1,1.5,4.8,14-4.9,20.1c-5.7,3.6-65.6,3.2-69.2,0c-3.5-3.2,1.9-23.2-0.8-23.1s-0.9,23.1-2.7,23.1c-7.4,0-2.5-20.2-6.7-19.9
		s5.4,20.6-3.4,21.1c-8.8,0.4-4.9-13.2-6.9-13.9c-1.9-0.6,1.2,9.5-2,12.7s-59.3,3.6-62.2,0s5.7-15.8,1.4-15.7
		c-4.3,0.1-2.3,12.5-4.7,15.7s-24.7,4.3-27.1,0c-2.3-4.3,3.7-20.2,1.4-19.7c-2.4,0.5-2.2,18.4-3.9,19.7c-1.7,1.4,0.3-14.3-1.4-13.5
		s0.7,11.4-1.6,13.5s-87.9,6.1-90.9,0s4.9-18.9,1.5-19.7c-3.4-0.8-2.7,20.6-5.1,19.7c-2.4-0.9-1.4-15.8-3.5-16.3s1.4,13.8-1.6,16.3
		s-17.7,7.7-20.4,0c-2.8-7.7,4-13.6,0.8-13.5s-0.5,9.6-3.3,13.5c-2.8,3.8-8.5,0.5-8.5,0.5l-0.5,4.1l436-1.3
		C1168.5,439,1178.2,438.8,1174.4,435.8z"/>
	<path class="st20" d="M2463,435.8c-3.8-3-2-19.8-4-19.8c-1.9,0.1,0.7,18.7-1.7,18.4c-2.5-0.3-2.1-20.5-5.3-19.9s4.5,19.1-2.2,21.2
		c-6.7,2-15.8,0.8-17.8-1.3c-2-2.1-1.1-12.1-1.9-12.2c-0.8-0.1-0.3,8.9-1.1,8.9s-0.3-15.2-2.2-13.7s1.5,10.1-1.1,15.9
		s-17.4,3.9-18.5,1.1s0.4-6.2-1.4-7.1c-1.8-0.9,1.5,2.1-1.4,6.8c-2.9,4.7-17.3,1.6-17.3,1.6s-19.2,4.1-21.9-1.6s1.3-15.7-1.9-15
		s-1.2,16.5-5.1,16.5s-0.8-17-3.8-16.5s1.1,15.6-2.3,16.5c-3.4,0.9-1.7-21.6-4.8-20.1s4.8,14-4.9,20.1c-5.7,3.6-65.6,3.2-69.2,0
		c-3.5-3.2,1.9-23.2-0.8-23.1s-0.9,23.1-2.7,23.1c-7.4,0-2.5-20.2-6.7-19.9c-4.3,0.3,5.4,20.6-3.4,21.1c-8.8,0.4-4.9-13.2-6.9-13.9
		c-1.9-0.6,1.2,9.5-2,12.7s-59.3,3.6-62.2,0s5.7-15.8,1.4-15.7s-2.3,12.5-4.7,15.7s-24.7,4.3-27.1,0c-2.3-4.3,3.7-20.2,1.4-19.7
		c-2.4,0.5-2.2,18.4-3.9,19.7s0.3-14.3-1.4-13.5s0.7,11.4-1.6,13.5c-2.3,2-87.9,6.1-90.9,0s4.9-18.9,1.5-19.7
		c-3.4-0.8-2.7,20.6-5.1,19.7c-2.4-0.9-1.4-15.8-3.5-16.3s1.4,13.8-1.6,16.3s-17.7,7.7-20.4,0c-2.8-7.7,4-13.6,0.8-13.5
		s-0.5,9.6-3.3,13.5c-2.8,3.8-8.5,0.5-8.5,0.5l-0.5,4.1l436-1.3C2457.1,439,2466.8,438.8,2463,435.8z"/>
</g>
<g>
	<rect x="0.1" y="436.1" class="st21" width="3079.8" height="263.9"/>
	<g>
		<path class="st22" d="M0.4,436.6v33.3c0,0,371.4,8.7,413,0s74.4,3.8,86.1,3.9c11.7,0,21.8,5.6,134.6-3.5s29.3,2.2,145.6,5.2
			c116.4,3,489.8,3.3,542.9,0s130.8,0.1,172.1-3.2c41.4-3.3,117.7-22,247.2-5.5c129.4,16.5,123.8-13.7,214.1,2.2
			c90.2,15.9,248.6-6,349.1,8.9c100.4,14.9,226.7-10.5,271-8.9c44.3,1.7,87,17.6,170.8,13.6c83.7-4,192.3-13.8,228.6-19.2
			c36.3-5.4,104.7,20.1,104.7,20.1v-47.4L0.4,436.6z"/>
	</g>
</g>
<g>
	<g>
		<rect x="1262.4" y="259.4" class="st23" width="558.5" height="169.5"/>
		<rect x="1271.2" y="269.1" class="st24" width="541" height="159.1"/>
		<polygon class="st25" points="1345,416.8 1271.2,416.8 1271.2,268 1812.1,268 1812.1,317.4 1345,316.6 		"/>
		<rect x="1794.4" y="285.3" class="st26" width="10.5" height="121.1"/>
		<rect x="1299.3" y="285.3" class="st26" width="477.7" height="34.6"/>
		<rect x="1569.8" y="302.6" class="st26" width="94.8" height="110.7"/>
		<rect x="1562.7" y="316.5" class="st25" width="3.5" height="72.6"/>
		<rect x="1446.8" y="319.9" class="st25" width="24.6" height="86.5"/>
		<rect x="1432.8" y="313" class="st26" width="38.6" height="27.7"/>
		<rect x="1446.8" y="406.4" class="st26" width="361.8" height="3.5"/>
		<rect x="1804.9" y="278.4" class="st25" width="7" height="128"/>
		<polygon class="st23" points="1267.7,285.3 1292.3,306.1 1292.3,416.8 1267.7,416.8 		"/>
		<rect x="1250.1" y="254.2" class="st25" width="579.6" height="6.9"/>
		<rect x="1232.5" y="247.3" class="st27" width="618.2" height="6.9"/>
		<rect x="1232.5" y="240.4" class="st23" width="618.2" height="6.9"/>
		<rect x="1369.5" y="313" class="st28" width="84.3" height="110.7"/>
		<rect x="1362.5" y="309.6" class="st24" width="101.9" height="6.9"/>
		<rect x="1377" y="319.9" class="st29" width="3.5" height="103.8"/>
		<rect x="1380.1" y="319.9" class="st27" width="63.2" height="103.8"/>
		<rect x="1209.7" y="428.9" class="st25" width="639.3" height="6.9"/>
		<rect x="1380.1" y="319.9" class="st30" width="17.6" height="103.8"/>
		<rect x="1397.6" y="319.9" class="st30" width="45.7" height="6.9"/>
		<rect x="1355.5" y="427.2" class="st30" width="108.9" height="6.9"/>
		<rect x="1348.5" y="434.1" class="st25" width="123" height="6.9"/>
		<rect x="1559.2" y="389.1" class="st31" width="94.8" height="10.4"/>
		<rect x="1559.2" y="292.3" class="st23" width="94.8" height="10.4"/>
		<rect x="1557.5" y="285.3" class="st30" width="98.4" height="6.9"/>
		<rect x="1566.3" y="302.6" class="st23" width="80.8" height="86.5"/>
		<g>
			<rect x="1575" y="351.1" class="st32" width="28.1" height="34.6"/>
			<rect x="1610.2" y="351.1" class="st32" width="28.1" height="34.6"/>
			<rect x="1575" y="307.8" class="st32" width="28.1" height="39.8"/>
			<rect x="1610.2" y="307.8" class="st32" width="28.1" height="39.8"/>
		</g>
		<rect x="1429.3" y="368.4" class="st33" width="7" height="6.9"/>
		<rect x="1294.5" y="306.1" class="st31" width="24.6" height="10.4"/>
		<rect x="1349" y="295.8" class="st31" width="24.6" height="10.4"/>
		<rect x="1307.6" y="316.5" class="st31" width="24.6" height="10.4"/>
		<rect x="1281.7" y="316.5" class="st31" width="24.6" height="10.4"/>
		<rect x="1295.8" y="378.7" class="st31" width="24.6" height="10.4"/>
		<rect x="1281.7" y="392.6" class="st31" width="24.6" height="10.4"/>
		<rect x="1267.7" y="403" class="st34" width="24.6" height="10.4"/>
		<rect x="1492.5" y="378.7" class="st31" width="24.6" height="10.4"/>
		<rect x="1527.6" y="344.1" class="st31" width="24.6" height="10.4"/>
		<rect x="1478.4" y="389.1" class="st31" width="24.6" height="10.4"/>
		<rect x="1499.5" y="285.3" class="st31" width="24.6" height="10.4"/>
		<rect x="1464.4" y="268" class="st31" width="24.6" height="10.4"/>
		<rect x="1693.5" y="284.2" class="st31" width="24.6" height="10.4"/>
		<rect x="1742.7" y="308.5" class="st31" width="24.6" height="10.4"/>
		<rect x="1678.7" y="347.6" class="st31" width="24.6" height="10.4"/>
		<rect x="1696.2" y="358" class="st31" width="24.6" height="10.4"/>
		<rect x="1675.1" y="409.9" class="st31" width="24.6" height="10.4"/>
		<rect x="1722.1" y="323.4" class="st31" width="24.6" height="10.4"/>
		<rect x="1748.9" y="323.4" class="st31" width="24.6" height="10.4"/>
		<rect x="1773.5" y="368.4" class="st31" width="24.6" height="10.4"/>
		<rect x="1784" y="382.2" class="st31" width="24.6" height="10.4"/>
		<rect x="1703.3" y="396" class="st31" width="24.6" height="10.4"/>
		<rect x="1223.8" y="232.8" class="st35" width="646.3" height="6.9"/>
		<polygon class="st36" points="1401.2,116.9 1229,232.2 1860.9,233.9 1731.3,155 		"/>
		<polygon class="st26" points="1626,142.9 1626,113.5 1661.1,113.5 1661.1,146.9 		"/>
		<rect x="1618.9" y="103.1" class="st26" width="49.2" height="10.4"/>
		<polygon class="st35" points="1843.8,223.1 1240.3,223.1 1236.2,227.4 1850.8,227.4 		"/>
		<polygon class="st37" points="1302.8,203.4 1485.5,137.7 1731.3,161.9 1798.1,203.4 		"/>
		<polygon class="st25" points="1409.9,115.8 1244.5,223.1 1256.8,225.2 1417.8,118.8 		"/>
		<path class="st25" d="M1626,113.5v8l21.1,5.8v-6.9h7v14.3h7v-21.2C1661.1,113.5,1623.5,113.5,1626,113.5z"/>
	</g>
	<g>
		<path class="st38" d="M1436.2,166.4c-1.7,0.7-3.2,1.7-4.4,2.9c-1.3,1.3-2.3,2.7-3,4.4s-1.1,3.5-1.1,5.3s0.4,3.7,1.1,5.3
			c0.7,1.7,1.7,3.1,3,4.3s2.7,2.2,4.4,2.9c1.7,0.7,3.5,1.1,5.3,1.1h9.4c0.8,0,1.6,0.1,2.3,0.5c0.7,0.3,1.4,0.7,1.9,1.3
			c0.6,0.6,1,1.2,1.3,2c0.3,0.7,0.5,1.5,0.5,2.3s-0.2,1.6-0.5,2.3s-0.7,1.4-1.3,1.9c-0.5,0.5-1.2,0.9-1.9,1.3
			c-0.7,0.3-1.5,0.5-2.3,0.5h-19.3c-2.2,0-3.9,1.7-3.9,3.9l0,0c0,2.1,1.8,3.9,3.9,3.9h19.3c1.9,0,3.7-0.4,5.3-1.1
			c1.7-0.7,3.2-1.7,4.4-2.9s2.3-2.7,3-4.4s1.1-3.4,1.1-5.3c0-1.9-0.4-3.7-1.1-5.3s-1.7-3.1-3-4.4c-1.3-1.3-2.8-2.2-4.4-2.9
			c-1.7-0.7-3.5-1.1-5.3-1.1h-9.4c-0.8,0-1.6-0.1-2.3-0.5c-0.7-0.3-1.4-0.7-1.9-1.3c-0.5-0.5-1-1.2-1.3-1.9s-0.5-1.5-0.5-2.3
			s0.1-1.6,0.5-2.3c0.3-0.7,0.7-1.4,1.3-2c0.5-0.6,1.2-1,1.9-1.3s1.5-0.5,2.3-0.5h19.3c2.2,0,3.9-1.7,3.9-3.9l0,0
			c0-2.1-1.8-3.9-3.9-3.9h-19.3C1439.7,165.4,1437.9,165.7,1436.2,166.4z"/>
		<path class="st38" d="M1644.1,212.3h2.6c2.9,0,5.3-2.3,5.3-5.2v-16.2v-0.1c0.1-0.6,0.1-1.3,0.1-1.9c0-3.2-0.6-6.3-1.9-9.2
			c-1.2-2.8-3-5.3-5.1-7.5c-2.2-2.1-4.7-3.8-7.6-5s-6-1.8-9.3-1.8s-6.4,0.6-9.3,1.9c-2.8,1.2-5.4,2.9-7.5,5
			c-2.2,2.1-3.9,4.6-5.1,7.5c-1.2,2.8-1.9,5.9-1.9,9.2c0,3.2,0.6,6.3,1.9,9.1c1.2,2.8,3,5.3,5.1,7.4c2.2,2.1,4.7,3.8,7.5,5
			c2.9,1.2,6,1.9,9.3,1.9L1644.1,212.3L1644.1,212.3z M1628.2,204.5c-2.2,0-4.2-0.4-6.1-1.2s-3.6-2-5.1-3.4c-1.4-1.4-2.6-3.1-3.4-5
			s-1.2-3.9-1.2-6s0.4-4.2,1.2-6.1c0.8-1.9,2-3.6,3.4-5s3.1-2.5,5.1-3.4c1.9-0.8,4-1.2,6.1-1.2s4.2,0.4,6.2,1.2
			c1.9,0.8,3.7,2,5.1,3.4s2.6,3.1,3.4,5s1.2,3.9,1.2,6.1c0,2.1-0.4,4.2-1.2,6c-0.8,1.9-2,3.6-3.4,5s-3.1,2.5-5.1,3.4
			C1632.4,204.1,1630.4,204.5,1628.2,204.5z"/>
		<path class="st38" d="M1493.4,165.3c-13,0-23.6,10.5-24.1,23.7l0,0v19.5c0,2.1,1.8,3.9,3.9,3.9h0.6c2.2,0,3.9-1.7,3.9-3.9V190
			c0-9,7.1-16.4,15.8-16.4c2.8,0,6.2,1.1,9,2.7c1.8,1.1,4.2,0.5,5.3-1.3l0.2-0.3c1.1-1.8,0.6-4.1-1.1-5.2
			C1502.9,166.7,1498.2,165.3,1493.4,165.3z"/>
		<path class="st38" d="M1541.3,183.2c-0.5,0.5-1.2,0.9-1.9,1.3c-0.7,0.3-1.5,0.5-2.3,0.5h-13.2c-2.2,0-3.9,1.7-3.9,3.9l0,0
			c0,2.1,1.8,3.9,3.9,3.9h13.2c1.9,0,3.7-0.4,5.3-1.1c1.7-0.7,3.2-1.7,4.4-2.9c1.3-1.3,2.3-2.7,3-4.4s1.1-3.4,1.1-5.3
			c0-1.9-0.4-3.7-1.1-5.3s-1.7-3.1-3-4.4c-1.3-1.3-2.8-2.2-4.4-2.9c-4.1-1.8-13.5-2.7-21.2,0.7c-2.8,1.2-5.3,2.9-7.4,5.1
			c-2.1,2.1-3.8,4.6-5,7.5c-1.2,2.8-1.8,5.9-1.8,9.1s0.6,6.3,1.8,9.1c1.2,2.8,2.9,5.3,5,7.5c2.1,2.1,4.6,3.8,7.4,5.1
			c2.8,1.2,5.9,1.9,9,1.9h14.3c2.2,0,3.9-1.7,3.9-3.9v-0.1c0-2.1-1.8-3.9-3.9-3.9h-14.3c-2.1,0-4.1-0.4-6-1.2s-3.5-1.9-4.9-3.3
			c-1.4-1.4-2.5-3.1-3.3-5s-1.2-4-1.2-6.1s0.4-4.2,1.2-6.1c0.8-1.9,1.9-3.6,3.3-5s3-2.5,4.9-3.3l0,0c5.4-2.2,12.7-1.9,15.1-0.8
			c0.7,0.3,1.4,0.7,1.9,1.3c0.6,0.6,1,1.2,1.3,2c0.3,0.7,0.5,1.5,0.5,2.3s-0.1,1.6-0.5,2.3C1542.3,182.1,1541.9,182.7,1541.3,183.2z
			"/>
		<path class="st38" d="M1597,147.4L1597,147.4c-2.2,0-3.9,1.7-3.9,3.9v13.9c0,0-11.8,0-15.9,0c-3.3,0-6.4,0.6-9.3,1.8
			s-5.4,2.9-7.6,5s-3.9,4.6-5.1,7.5c-1.2,2.8-1.9,5.9-1.9,9.2s0.6,6.3,1.9,9.2c1.2,2.8,3,5.3,5.1,7.5c2.2,2.1,4.7,3.8,7.6,5
			s6,1.8,9.3,1.8c3.1,0,6.1-0.6,8.9-1.7c2.8-1.1,5.2-2.6,7.3-4.6c2.1-1.9,3.8-4.2,5.2-6.8c1.4-2.6,2.2-5.5,2.4-8.5v-39.3
			C1600.9,149.1,1599.1,147.4,1597,147.4z M1591.5,195c-0.7,1.6-1.7,3.1-3,4.4c-3.2,3.3-7.5,5-11.9,4.9c-0.1,0-0.2,0-0.3,0
			c-8.4,0-15.2-6.7-15.2-15c0-0.1,0-0.2,0-0.2c-0.1-4,1.3-8,4.3-11.2c1.3-1.3,2.7-2.4,4.3-3.2c4.8-2.4,10.5-0.2,13,4.5
			c0.4,0.7,0.8,1.4,1.5,1.9c0.6,0.6,1.3,1,2,1.3C1591.2,184.6,1593.7,190.1,1591.5,195z M1592.5,178.3c-2.8,2.2-7.4,1.1-7.4,1.1
			s-0.2-4.7,2.6-6.9s7.4-1.1,7.4-1.1S1595.3,176.1,1592.5,178.3z"/>
	</g>
</g>
<path class="st22" d="M3014.8,646.9c-21.9-8.9-87.2-25.2-137.6-31.9c-50.4-6.7-76.1,19.8-102.8,22.6
	c-26.7,2.7-102.7-39.5-163.2-14.8s-155.8-11.6-210.2,14.8c-54.3,26.4-50.9-23.8-128.9,3.6c-77.9,27.4-123.9-3.8-148.8-9.2
	c-24.9-5.4-71.7,0.2-103.6-5.3c-28.8-4.9-213.8-5.1-301.6-1.4c-21.7-4.8-45-9.2-65.7-12c-36.1-4.8-59.5,7.4-79.7,15.8
	c-37.8-5.7-42.9,0.4-48.5,0.4c-1.1,0-2.5,0.5-4.2,1.3c-35.5-9.7-88.8-28.1-133.5-9.8c-60.5,24.7-155.8-11.6-210.2,14.8
	c-54.3,26.4-50.9-23.8-128.9,3.6c-77.9,27.4-123.9-3.8-148.8-9.2c-24.9-5.4-71.7,0.2-103.6-5.3c-32-5.5-256.8-5.1-326.8,0
	s-19.7,23.8-87.7,8.7s-74-5.8-81-5.8c-7,0.1-26.8,20.9-51.8,6.4S0.4,634.3,0.4,634.3V700H3080v-87.1
	C3080,612.9,3036.7,655.8,3014.8,646.9z"/>
<g>
	<g>
		<polygon class="st39" points="1638.4,521.1 1529.2,521.1 1613.9,429.1 1713,475.1 1702.9,521.1 		"/>
		<path class="st39" d="M1240.4,521.1h-142.7l-8.4-70.6l141.1-18.4c0,0,27.8,39.9,27.7,43C1258,478.2,1240.4,521.1,1240.4,521.1z"/>
		<path class="st40" d="M1037.1,499.6c0,0,9.2-12.3,9.2-24.5s0-171.8,24.5-187.1s435.8-6.1,464.9,0c29.1,6.1,96.5,76.7,121.1,85.9
			c24.5,9.2,82.8,33.8,95.1,46s3.1,33.8,12.3,36.8c9.2,3.1,12.3,15.3,12.3,24.5s-7,12.3-8.1,18.4s2,18.4,2,18.4l-67.5,12.3
			c0,0,6.1-76.7-64.4-76.7c-73.6,0-64.4,82.8-64.4,82.8h-334.4c0,0,12.3-79.8-58.3-82.8c-64.4-2.8-70.6,58.3-70.6,58.3L1037.1,499.6
			z"/>
		<circle class="st41" cx="1635.8" cy="519.2" r="52.2"/>
		<g>
			<circle class="st42" cx="1635.8" cy="519.2" r="35.3"/>
			<path class="st39" d="M1635.8,483.9c19.5,0,35.3,15.8,35.3,35.3c0,19.5-15.8,35.3-35.3,35.3s-35.3-15.8-35.3-35.3
				S1616.3,483.9,1635.8,483.9 M1635.8,480.9c-21.2,0-38.3,17.2-38.3,38.4c0,21.2,17.2,38.3,38.3,38.3s38.3-17.2,38.3-38.3
				C1674.1,498.1,1656.9,480.9,1635.8,480.9L1635.8,480.9z"/>
		</g>
		<circle class="st43" cx="1635.8" cy="519.2" r="21.5"/>
		<circle class="st39" cx="1635.8" cy="519.2" r="6.1"/>
		<circle class="st41" cx="1175.3" cy="520.3" r="52.2"/>
		<g>
			<circle class="st44" cx="1175.3" cy="520.3" r="35.3"/>
			<path class="st39" d="M1175.3,485c19.5,0,35.3,15.8,35.3,35.3s-15.8,35.3-35.3,35.3s-35.3-15.8-35.3-35.3S1155.8,485,1175.3,485
				 M1175.3,482c-21.2,0-38.3,17.2-38.3,38.4s17.2,38.3,38.3,38.3s38.3-17.2,38.3-38.3C1213.7,499.2,1196.4,482,1175.3,482
				L1175.3,482z"/>
		</g>
		<circle class="st45" cx="1175.3" cy="520.3" r="21.5"/>
		<circle class="st39" cx="1175.3" cy="520.3" r="6.1"/>
		<path class="st43" d="M1730.1,519c-4.3,0.7-13.2,2-17.6,2.3c-7.1,0.6-18.9,2.5-18.9,9c0,9.2,1.9,14.2,19.4,13.2
			s72.3-4.8,69.4-18.2C1779.7,512.6,1775,511.6,1730.1,519z"/>
		<path class="st46" d="M1694.2,389.1l-13-1.4c-1.1-0.1-28.2-3.3-49.3-15.9c-11.8-7-43.4-30.4-65-48.9c-21.8-18.6-22-28.4-22-28.8
			v-2.6l2.3,1.3c0.2,0.1,21.9,12.6,46.3,33.9c17.6,15.4,43.2,34.7,51.9,39.7c23.3,13.5,36.4,18.2,36.6,18.3L1694.2,389.1z
			 M1549,297.5c1.8,4.1,6.7,11.8,19.9,23.1c21.5,18.4,52.9,41.7,64.6,48.6c11.7,7,25.5,11,35.3,13.2c-6.1-2.9-14.5-7.2-25-13.3
			c-9.7-5.6-36.1-25.8-52.4-40C1572.9,312.8,1556,301.8,1549,297.5z"/>
		<path class="st47" d="M1519.7,505.8H1294c-12.9,0-25.1-6.2-32.6-16.8l0,0c-1.4-2,0-4.7,2.4-4.7h286c2.4,0,3.8,2.7,2.4,4.7l0,0
			C1544.7,499.5,1532.6,505.8,1519.7,505.8z"/>
		<path class="st48" d="M1742.8,413.7c-0.2,0.6-693,0-693,0l-0.4-18.4c0,0,650.8-0.9,657.1,0
			C1720.1,399.4,1742.9,413.1,1742.8,413.7z"/>
		<path class="st49" d="M1625.2,429.1h-16.4c-0.6,0-1-0.5-1-1V424c0-0.5,0.4-1,1-1h16.4c0.6,0,1,0.5,1,1v4.1
			C1626.2,428.6,1625.7,429.1,1625.2,429.1z"/>
		<path class="st50" d="M1590.9,377.1l-3.1,0.1c0,0.5,1.8,39.5,1.2,63.1c-0.2,6.6-1.9,13.1-5.1,18.9c-5.6,10.3-13.7,25-19.2,34.3
			c-9.2,15.3-27.6,25.7-41.9,25.7c-6.1,0-34.2,0-70.1,0V307.8l-3.1,7.5v203.9c-48.6,0-108.2,0-127.3,0c-33.8,0-52.1-1.2-64.3-16.8
			s-31.3-27.3-31.3-27.3c20.9,27.6,12.8,61.4,12.8,61.4h207.6v1.5h106.6l0.4-0.8c0.1-0.1,0.2-0.4,0.3-0.7h19.5c0,0,0-6.1-0.6-16.2
			c-0.6-10,6.1-27.9,6.1-27.9l6-18.3c3.7-8.5,4.6-14.4,5.4-18.2C1593.9,441.6,1591.1,379.7,1590.9,377.1z"/>
		<g>
			<path class="st51" d="M1585,385.3h-127.2c-4.2,0-7.7-3.4-7.7-7.7v-67.5c0-4.2,3.4-7.7,7.7-7.7h16.7c29.6,0,58,11.8,78.9,32.7
				l37.1,37.1C1595.2,377.1,1591.8,385.3,1585,385.3z"/>
			<path class="st52" d="M1454.4,301.8c6.8-0.6,13.6-1,20.4-1.5c6.9,0,13.8,0.7,20.5,2c13.5,2.6,26.6,7.7,38.3,14.9
				c5.9,3.6,11.4,7.8,16.5,12.4c5.1,4.7,9.7,9.6,14.6,14.4l14.4,14.4c4.4,5.2,9,10.3,13.3,15.5c-5.3-4.4-10.3-8.9-15.5-13.3
				l-14.4-14.4c-4.8-4.8-9.6-9.7-14.5-14.3c-5-4.5-10.4-8.5-16.1-12.1c-11.4-7-24.1-12-37.3-14.5c-6.6-1.3-13.3-2-20-1.9
				C1468,302.8,1461.2,302.4,1454.4,301.8z"/>
			<path class="st46" d="M1474.4,302.5c29.6,0,58,11.8,78.9,32.7l37.1,37.1c4.8,4.8,1.4,13.1-5.4,13.1h-127.2
				c-4.2,0-7.7-3.4-7.7-7.7v-67.5c0-4.2,3.4-7.7,7.7-7.7H1474.4 M1474.4,299.4h-16.7c-5.9,0-10.7,4.8-10.7,10.7v67.5
				c0,5.9,4.8,10.7,10.7,10.7H1585c4.4,0,8.2-2.5,9.9-6.6c1.7-4.1,0.8-8.6-2.3-11.7l-37.1-37.1
				C1533.8,311.4,1505,299.4,1474.4,299.4L1474.4,299.4z"/>
			<path class="st53" d="M1523.4,314l-73.6,59.8v-53.5l22.1-18.6C1471.9,301.8,1508.1,301.8,1523.4,314z"/>
			<polygon class="st53" points="1514.2,381 1563.7,343.6 1588.1,368 1566.4,384.6 1507.4,385.6 			"/>
		</g>
		<path class="st40" d="M1574,367.7c0,0-15.3,0-15.3,6.1s12.3,6.1,12.3,9.2s0,3.1,0,6.1s15.3,3.1,15.3,0s0-9.2,0-9.2
			S1595.5,367.7,1574,367.7z"/>
		<path class="st50" d="M1046.3,475.1l0.1-13.4c0,0,12.2-5,27.5,10.3s55.8-0.3,55.8-0.3s-11.1,11.7-15.1,24.4
			c-1.8,5.8-2.9,10.4-2.9,15.4c-79.8,0-71.1-17.8-71.1-17.8S1046.3,487.4,1046.3,475.1z"/>
		<path class="st50" d="M1682.9,470.5c0,0,12.8,3.3,22.1,20.1c9.2,16.8,28.2,7.8,30,0c2.6-11.4,10.5-13.9,21.9-13.9
			s17.1,3.1,17.1,3.1s4.7,4.4-1.4,11.9s-2.5,22.4-2.5,22.4s-17.5,1.9-37.4,5s-32.6,3.6-32.6,3.6S1702.8,498.1,1682.9,470.5z"/>
		<path class="st43" d="M1755,490.4c-8.6,9.8-7.9,23-7.9,23l22.5-1.7l0.3-15.1C1770,496.6,1765,479.2,1755,490.4z"/>
		<path class="st43" d="M1721.3,410.7c0,0-21.5-3.1-15.3,9.2c6.1,12.3,21.4,32.1,32.2,32.9c10.8,0.8,22.7-2.7,21.3-7
			S1761.2,419.9,1721.3,410.7z"/>
		<path class="st54" d="M1046.8,438.7h18.8c0,0,2.2-25-3.9-34.2s-13.2-6.6-13.2-6.6L1046.8,438.7z"/>
		<path class="st47" d="M1239,509.1c0,0,5.2,16.7,35.9,16.7s297.6,0,297.6,0l3.1,12.3h-337.5C1238.1,538,1239,530.6,1239,509.1z"/>
		<path class="st51" d="M1545.7,292.8c0,0,0,9.2,21.5,27.6s53.2,41.9,64.8,48.8c21.1,12.6,48.7,15.6,48.7,15.6s-13.1-4.7-36.8-18.4
			c-9.2-5.3-35.3-25.1-52.2-39.9C1567.1,305.1,1545.7,292.8,1545.7,292.8z"/>
		<polygon class="st53" points="1579.1,331.1 1589.8,323 1616.9,345.5 1607.2,352.8 		"/>
		<path class="st43" d="M1040.2,493.6c0,0-21.5,2.9-18.4,18.3c3.1,15.3,7.1,19.9,31.2,17.6s36.7,10,48.8,10s36.6-24.5,2.9-30.7
			C1070.9,502.7,1037.1,499.1,1040.2,493.6z"/>
		<path class="st49" d="M1724.8,412.9c0,0-21.5-3.1-15.3,9.2C1713.6,421.4,1722.8,418.3,1724.8,412.9z"/>
	</g>
	<g>
		<path class="st55" d="M1171.6,314.4c-1.3,0.5-2.4,1.3-3.4,2.2s-1.7,2-2.3,3.3c-0.6,1.3-0.8,2.6-0.8,4s0.3,2.8,0.8,4
			c0.6,1.2,1.3,2.4,2.3,3.3s2.1,1.6,3.4,2.2c1.3,0.5,2.7,0.8,4.1,0.8h7.2c0.6,0,1.2,0.1,1.8,0.3s1,0.5,1.4,1c0.4,0.4,0.8,0.9,1,1.5
			c0.2,0.5,0.3,1.1,0.3,1.7s-0.1,1.2-0.3,1.7c-0.2,0.6-0.6,1-1,1.4s-0.9,0.7-1.5,1c-0.6,0.2-1.1,0.3-1.8,0.3h-14.7
			c-1.7,0-3,1.3-3,2.9l0,0c0,1.6,1.3,2.9,3,2.9h14.7c1.4,0,2.8-0.3,4.1-0.8c1.3-0.5,2.4-1.3,3.4-2.2s1.7-2,2.3-3.3
			c0.6-1.3,0.8-2.6,0.8-4s-0.3-2.8-0.8-4s-1.3-2.3-2.3-3.3c-1-0.9-2.1-1.7-3.4-2.2s-2.7-0.8-4.1-0.8h-7.2c-0.6,0-1.2-0.1-1.8-0.3
			c-0.6-0.2-1.1-0.5-1.5-1c-0.4-0.4-0.7-0.9-1-1.4c-0.2-0.5-0.3-1.1-0.3-1.7s0.1-1.2,0.3-1.7c0.2-0.6,0.6-1,1-1.5
			c0.4-0.4,0.9-0.7,1.4-1c0.6-0.2,1.2-0.3,1.8-0.3h14.7c1.7,0,3-1.3,3-2.9l0,0c0-1.6-1.3-2.9-3-2.9h-14.7
			C1174.3,313.6,1172.9,313.8,1171.6,314.4z"/>
		<path class="st55" d="M1330.2,348.9h1.9c2.2,0,4-1.8,4-3.9v-12.2c0,0,0,0,0-0.1c0-0.5,0.1-1,0.1-1.4c0-2.4-0.5-4.8-1.4-6.9
			s-2.3-4-3.9-5.6c-1.7-1.6-3.6-2.9-5.8-3.8c-2.2-0.9-4.6-1.4-7.1-1.4s-4.9,0.5-7.1,1.4s-4.1,2.2-5.8,3.8c-1.7,1.6-3,3.5-3.9,5.6
			s-1.4,4.5-1.4,6.9s0.5,4.8,1.4,6.9s2.3,4,3.9,5.6c1.7,1.6,3.6,2.9,5.8,3.8c2.2,0.9,4.6,1.4,7.1,1.4L1330.2,348.9L1330.2,348.9z
			 M1318.1,343c-1.7,0-3.2-0.3-4.7-0.9s-2.8-1.5-3.9-2.5c-1.1-1.1-2-2.3-2.6-3.8c-0.6-1.4-0.9-2.9-0.9-4.5s0.3-3.1,0.9-4.6
			s1.5-2.7,2.6-3.8c1.1-1.1,2.4-1.9,3.9-2.5c1.4-0.6,3-0.9,4.7-0.9s3.3,0.3,4.7,0.9c1.5,0.6,2.8,1.5,3.9,2.5s2,2.3,2.6,3.8
			c0.6,1.4,0.9,3,0.9,4.6s-0.3,3.1-0.9,4.5s-1.5,2.7-2.6,3.8s-2.4,1.9-3.9,2.5C1321.3,342.7,1319.7,343,1318.1,343z"/>
		<path class="st55" d="M1215.2,313.5c-9.9,0-18,7.9-18.4,17.8l0,0V346c0,1.6,1.3,2.9,3,2.9h0.4c1.7,0,3-1.3,3-2.9v-13.9
			c0-6.8,5.4-12.3,12-12.3c2.1,0,4.7,0.9,6.9,2.1c1.4,0.8,3.2,0.4,4-1l0.2-0.3c0.8-1.3,0.5-3.1-0.9-4
			C1222.4,314.6,1218.9,313.5,1215.2,313.5z"/>
		<path class="st55" d="M1251.8,327c-0.4,0.4-0.9,0.7-1.5,1c-0.6,0.2-1.1,0.3-1.8,0.3h-10.1c-1.7,0-3,1.3-3,2.9l0,0
			c0,1.6,1.3,2.9,3,2.9h10.1c1.4,0,2.8-0.3,4.1-0.8c1.3-0.5,2.4-1.3,3.4-2.2s1.7-2,2.3-3.3c0.6-1.3,0.8-2.6,0.8-4s-0.3-2.8-0.8-4
			s-1.3-2.3-2.3-3.3c-1-0.9-2.1-1.6-3.4-2.2c-3.1-1.4-10.3-2-16.2,0.6c-2.1,0.9-4,2.2-5.6,3.8c-1.6,1.6-2.9,3.5-3.8,5.6
			s-1.4,4.5-1.4,6.9s0.5,4.8,1.4,6.9s2.2,4,3.8,5.6c1.6,1.6,3.5,2.9,5.6,3.8c2.2,0.9,4.5,1.4,6.9,1.4h10.9c1.7,0,3-1.3,3-2.9v0
			c0-1.6-1.3-2.9-3-2.9h-10.9c-1.6,0-3.1-0.3-4.6-0.9c-1.4-0.6-2.7-1.5-3.7-2.5c-1.1-1.1-1.9-2.3-2.5-3.8c-0.6-1.4-0.9-3-0.9-4.6
			s0.3-3.2,0.9-4.6c0.6-1.5,1.5-2.7,2.5-3.8c1.1-1.1,2.3-1.9,3.7-2.5l0,0c4.1-1.7,9.7-1.5,11.5-0.6c0.6,0.3,1,0.5,1.4,1
			c0.4,0.4,0.8,0.9,1,1.5c0.2,0.5,0.3,1.1,0.3,1.7s-0.1,1.2-0.3,1.7C1252.5,326.2,1252.2,326.6,1251.8,327z"/>
		<path class="st55" d="M1294.2,300L1294.2,300c-1.7,0-3,1.3-3,2.9v10.4c0,0-9,0-12.2,0c-2.5,0-4.9,0.5-7.1,1.4s-4.1,2.2-5.8,3.8
			s-3,3.5-3.9,5.6s-1.4,4.5-1.4,6.9s0.5,4.8,1.4,6.9s2.3,4,3.9,5.6c1.7,1.6,3.6,2.9,5.8,3.8c2.2,0.9,4.6,1.4,7.1,1.4
			c2.4,0,4.7-0.4,6.8-1.3c2.1-0.8,4-2,5.6-3.4s2.9-3.2,4-5.1c1-2,1.7-4.1,1.8-6.4v-29.6C1297.2,301.3,1295.9,300,1294.2,300z
			 M1290.1,335.9c-0.5,1.2-1.3,2.3-2.3,3.3c-2.4,2.5-5.8,3.7-9.1,3.7c-0.1,0-0.2,0-0.3,0c-6.4,0-11.6-5-11.6-11.3c0-0.1,0-0.1,0-0.2
			c-0.1-3,1-6,3.3-8.4c1-1,2.1-1.8,3.3-2.4c3.7-1.8,8-0.2,9.9,3.4c0.3,0.5,0.7,1,1.1,1.5c0.5,0.4,1,0.8,1.6,1
			C1289.8,328.1,1291.7,332.2,1290.1,335.9z M1290.8,323.3c-2.1,1.7-5.6,0.9-5.6,0.9s-0.1-3.5,2-5.2s5.6-0.9,5.6-0.9
			S1292.9,321.7,1290.8,323.3z"/>
		<g>
			<path class="st56" d="M1290.1,335.9c-0.5,1.2-1.3,2.3-2.3,3.3c-2.4,2.5-5.8,3.7-9.1,3.7c-0.1,0-0.2,0-0.3,0
				c-6.4,0-11.6-5-11.6-11.3c0-0.1,0-0.1,0-0.2c-0.1-3,1-6,3.3-8.4c1-1,2.1-1.8,3.3-2.4c3.7-1.8,8-0.2,9.9,3.4
				c0.3,0.5,0.7,1,1.1,1.5c0.5,0.4,1,0.8,1.6,1C1289.8,328.1,1291.7,332.2,1290.1,335.9z M1290.8,323.3c-2.1,1.7-5.6,0.9-5.6,0.9
				s-0.1-3.5,2-5.2s5.6-0.9,5.6-0.9S1292.9,321.7,1290.8,323.3z"/>
		</g>
	</g>
	<g>
		<path class="st55" d="M1164.8,363.4h8.6v1.3h-3.6v9.4h-1.4v-9.4h-3.6V363.4L1164.8,363.4z"/>
		<path class="st55" d="M1175.7,363.4h4c1.3,0,2.3,0.3,2.8,0.8c0.6,0.5,0.9,1.2,0.9,2.1c0,0.5-0.1,0.9-0.3,1.3s-0.6,0.7-1,1
			c0.6,0.2,1.1,0.6,1.3,1c0.3,0.4,0.4,0.9,0.4,1.5c0,1-0.3,1.7-0.9,2.2s-1.6,0.8-2.8,0.8h-4.4V363.4L1175.7,363.4z M1177.1,364.7
			v3.3h2.6c0.8,0,1.4-0.1,1.8-0.4s0.5-0.7,0.5-1.2s-0.2-0.9-0.5-1.2c-0.3-0.3-0.9-0.4-1.8-0.4L1177.1,364.7L1177.1,364.7z
			 M1177.1,369.3v3.5h3c0.8,0,1.4-0.1,1.8-0.5c0.3-0.3,0.5-0.7,0.5-1.3c0-0.6-0.2-1-0.5-1.3s-0.9-0.5-1.8-0.5L1177.1,369.3
			L1177.1,369.3z"/>
		<path class="st55" d="M1190.9,374.3c-0.7,0-1.4-0.1-1.9-0.3s-1.1-0.6-1.5-1s-0.7-1-0.9-1.6s-0.3-1.3-0.3-2.1v-0.9
			c0-0.8,0.1-1.5,0.3-2.1s0.6-1.1,0.9-1.6c0.4-0.4,0.9-0.8,1.5-1s1.2-0.3,1.9-0.3c0.7,0,1.4,0.1,1.9,0.3s1.1,0.6,1.5,1
			s0.7,1,0.9,1.6c0.2,0.6,0.3,1.3,0.3,2.1v0.9c0,0.8-0.1,1.5-0.3,2.1s-0.6,1.1-0.9,1.6c-0.4,0.4-0.9,0.8-1.5,1
			C1192.3,374.2,1191.6,374.3,1190.9,374.3z M1190.9,373c1,0,1.8-0.3,2.3-1c0.6-0.6,0.9-1.5,0.9-2.8v-0.9c0-1.2-0.3-2.1-0.9-2.7
			s-1.4-1-2.3-1c-1,0-1.8,0.3-2.3,1c-0.6,0.6-0.9,1.5-0.9,2.8v0.9c0,1.2,0.3,2.1,0.9,2.7S1190,373,1190.9,373z"/>
		<path class="st55" d="M1198,366.8c0-1.1,0.3-1.9,1-2.5s1.8-0.9,3.4-0.9h3.5v10.7h-1.4v-4h-2.1c-0.2,0-0.4,0-0.5,0s-0.3,0-0.5,0
			l-2.2,4h-1.6l2.4-4.3c-0.7-0.3-1.2-0.6-1.5-1.1C1198.1,368.1,1198,367.5,1198,366.8z M1199.4,366.8c0,0.7,0.2,1.2,0.6,1.5
			c0.4,0.4,1.2,0.5,2.3,0.5h2.1v-4.1h-2.1c-1.1,0-1.9,0.2-2.3,0.5C1199.6,365.6,1199.4,366.1,1199.4,366.8z"/>
		<path class="st55" d="M1218.9,374.3c-0.7,0-1.4-0.1-1.9-0.3s-1.1-0.6-1.5-1s-0.7-1-0.9-1.6s-0.3-1.3-0.3-2.1v-0.9
			c0-0.8,0.1-1.5,0.3-2.1s0.6-1.1,0.9-1.6c0.4-0.4,0.9-0.8,1.5-1s1.2-0.3,1.9-0.3c0.7,0,1.4,0.1,1.9,0.3s1.1,0.6,1.5,1
			s0.7,1,0.9,1.6c0.2,0.6,0.3,1.3,0.3,2.1v0.9c0,0.8-0.1,1.5-0.3,2.1s-0.6,1.1-0.9,1.6c-0.4,0.4-0.9,0.8-1.5,1
			C1220.3,374.2,1219.6,374.3,1218.9,374.3z M1218.9,373c1,0,1.8-0.3,2.3-1c0.6-0.6,0.9-1.5,0.9-2.8v-0.9c0-1.2-0.3-2.1-0.9-2.7
			s-1.4-1-2.3-1c-1,0-1.8,0.3-2.3,1c-0.6,0.6-0.9,1.5-0.9,2.8v0.9c0,1.2,0.3,2.1,0.9,2.7S1218,373,1218.9,373z"/>
		<path class="st55" d="M1234,369.3h-5.9v4.8h-1.4v-10.7h1.4v4.6h5.9v-4.6h1.4v10.7h-1.4V369.3z"/>
		<path class="st55" d="M1237.6,373h0.3c0.3,0,0.5-0.1,0.7-0.2s0.4-0.4,0.6-0.7c0.2-0.3,0.3-0.8,0.4-1.3c0.1-0.6,0.1-1.3,0.1-2.2
			v-5.1h7.3v10.7h-1.4v-9.4h-4.4v3.9c0,1.1-0.1,2-0.2,2.8c-0.2,0.7-0.4,1.3-0.7,1.8c-0.3,0.4-0.6,0.7-1,0.9
			c-0.4,0.2-0.8,0.3-1.3,0.3h-0.3L1237.6,373L1237.6,373z"/>
		<path class="st55" d="M1253.3,374.3c-1.1,0-1.9-0.3-2.5-0.8s-0.9-1.3-0.9-2.3c0-0.5,0.1-1,0.3-1.4c0.2-0.4,0.4-0.8,0.8-1.1
			c0.4-0.3,0.8-0.5,1.4-0.7s1.3-0.2,2.1-0.2h2.4v-1c0-0.8-0.2-1.3-0.6-1.7c-0.4-0.4-1-0.5-1.9-0.5c-0.8,0-1.4,0.1-1.8,0.5
			s-0.6,0.7-0.7,1.3h-1.5c0-0.4,0.1-0.9,0.3-1.2s0.4-0.7,0.8-1s0.7-0.5,1.2-0.6s1.1-0.2,1.7-0.2c1.3,0,2.2,0.3,2.9,0.9s1,1.5,1,2.6
			v7.3h-1.1l-0.2-2c-0.4,0.7-0.9,1.2-1.5,1.6C1254.8,374.1,1254.1,374.3,1253.3,374.3z M1253.4,373c0.5,0,0.9-0.1,1.4-0.3
			s0.8-0.4,1.1-0.7s0.6-0.7,0.8-1.1s0.3-0.8,0.3-1.3v-0.5h-2.4c-1.1,0-1.9,0.2-2.3,0.6c-0.5,0.4-0.7,0.9-0.7,1.5
			c0,0.5,0.2,1,0.5,1.3S1252.7,373,1253.4,373z"/>
		<path class="st55" d="M1269.2,365.1l-1.3,2.2l-4.3,6.8h-1.8v-10.7h1.4v9.1l1.3-2.3l4.3-6.8h1.8v10.7h-1.4V365.1z M1266.2,362.1
			c-0.9,0-1.6-0.3-2.1-0.8s-0.8-1.2-0.8-2.2h1.4c0,0.6,0.1,1.1,0.4,1.4s0.6,0.4,1.1,0.4s0.9-0.1,1.2-0.4c0.3-0.3,0.4-0.8,0.4-1.4
			h1.3c0,0.9-0.3,1.6-0.8,2.2C1267.8,361.8,1267.1,362.1,1266.2,362.1z"/>
		<path class="st55" d="M1281.6,369.3h-5.9v4.8h-1.4v-10.7h1.4v4.6h5.9v-4.6h1.4v10.7h-1.4V369.3z"/>
		<path class="st55" d="M1300.1,374.1h-8.2v2.8h-1.4v-4.1h1.1c0.3-0.4,0.5-0.8,0.6-1.1c0.2-0.4,0.3-0.8,0.4-1.2
			c0.1-0.5,0.2-1,0.2-1.6s0.1-1.4,0.1-2.2v-3.2h7.2v9.4h1.5v4.1h-1.4L1300.1,374.1L1300.1,374.1z M1294.2,366.6c0,0.9,0,1.6-0.1,2.3
			c0,0.6-0.1,1.2-0.2,1.7s-0.2,0.9-0.3,1.2s-0.3,0.7-0.4,1h5.3v-8.1h-4.3V366.6L1294.2,366.6z"/>
		<path class="st55" d="M1306.5,374.3c-1.1,0-1.9-0.3-2.5-0.8s-0.9-1.3-0.9-2.3c0-0.5,0.1-1,0.3-1.4c0.2-0.4,0.4-0.8,0.8-1.1
			c0.4-0.3,0.8-0.5,1.4-0.7s1.3-0.2,2.1-0.2h2.4v-1c0-0.8-0.2-1.3-0.6-1.7c-0.4-0.4-1-0.5-1.9-0.5c-0.8,0-1.4,0.1-1.8,0.5
			s-0.6,0.7-0.7,1.3h-1.5c0-0.4,0.1-0.9,0.3-1.2s0.4-0.7,0.8-1s0.7-0.5,1.2-0.6s1.1-0.2,1.7-0.2c1.3,0,2.2,0.3,2.9,0.9s1,1.5,1,2.6
			v7.3h-1.1l-0.2-2c-0.4,0.7-0.9,1.2-1.5,1.6C1308,374.1,1307.3,374.3,1306.5,374.3z M1306.6,373c0.5,0,0.9-0.1,1.4-0.3
			s0.8-0.4,1.1-0.7s0.6-0.7,0.8-1.1s0.3-0.8,0.3-1.3v-0.5h-2.4c-1.1,0-1.9,0.2-2.3,0.6c-0.5,0.4-0.7,0.9-0.7,1.5
			c0,0.5,0.2,1,0.5,1.3C1305.5,372.8,1306,373,1306.6,373z"/>
		<path class="st55" d="M1321.1,370.2c-0.3,0.1-0.7,0.1-1.2,0.2s-0.9,0.1-1.5,0.1c-1.4,0-2.5-0.3-3.1-0.9s-1-1.6-1-2.9v-3.2h1.4v3.2
			c0,0.9,0.2,1.6,0.6,2s1.1,0.6,2.1,0.6c0.5,0,1,0,1.5-0.1s0.8-0.1,1.2-0.2v-5.5h1.4v10.7h-1.4V370.2L1321.1,370.2z"/>
		<path class="st55" d="M1328.7,374.3c-1.1,0-1.9-0.3-2.5-0.8s-0.9-1.3-0.9-2.3c0-0.5,0.1-1,0.3-1.4c0.2-0.4,0.4-0.8,0.8-1.1
			c0.4-0.3,0.8-0.5,1.4-0.7s1.3-0.2,2.1-0.2h2.4v-1c0-0.8-0.2-1.3-0.6-1.7c-0.4-0.4-1-0.5-1.9-0.5c-0.8,0-1.4,0.1-1.8,0.5
			s-0.6,0.7-0.7,1.3h-1.5c0-0.4,0.1-0.9,0.3-1.2s0.4-0.7,0.8-1s0.7-0.5,1.2-0.6s1.1-0.2,1.7-0.2c1.3,0,2.2,0.3,2.9,0.9s1,1.5,1,2.6
			v7.3h-1.1l-0.2-2c-0.4,0.7-0.9,1.2-1.5,1.6C1330.3,374.1,1329.6,374.3,1328.7,374.3z M1328.9,373c0.5,0,0.9-0.1,1.4-0.3
			s0.8-0.4,1.1-0.7s0.6-0.7,0.8-1.1s0.3-0.8,0.3-1.3v-0.5h-2.4c-1.1,0-1.9,0.2-2.3,0.6c-0.5,0.4-0.7,0.9-0.7,1.5
			c0,0.5,0.2,1,0.5,1.3S1328.2,373,1328.9,373z"/>
	</g>
</g>
</svg>
