<svg width="32" height="32" viewBox="0 0 32 32" fill="none" xmlns="http://www.w3.org/2000/svg">
<path fill-rule="evenodd" clip-rule="evenodd" d="M5 14.5H4.5C3.94772 14.5 3.5 14.9477 3.5 15.5C3.5 16.0523 3.94772 16.5 4.5 16.5H27.5C28.0523 16.5 28.5 16.0523 28.5 15.5C28.5 14.9477 28.0523 14.5 27.5 14.5H27H24.5H24H8H7.5H5ZM27.4893 13.5H27.5C28.6046 13.5 29.5 14.3954 29.5 15.5C29.5 16.5199 28.7366 17.3615 27.75 17.4845V20C27.75 24.8325 23.8325 28.75 19 28.75H13C8.16751 28.75 4.25 24.8325 4.25 20V17.4845C3.26342 17.3615 2.5 16.5199 2.5 15.5C2.5 14.3954 3.39543 13.5 4.5 13.5H4.51067C4.77245 7.38069 9.81625 2.5 16 2.5C22.1837 2.5 27.2275 7.38069 27.4893 13.5ZM5.5117 13.5H7.5V13C7.5 8.30558 11.3056 4.5 16 4.5C20.6944 4.5 24.5 8.30558 24.5 13V13.5H26.4883C26.2273 7.93318 21.6314 3.5 16 3.5C10.3686 3.5 5.77267 7.93318 5.5117 13.5ZM23.5 13.5V13C23.5 8.85786 20.1421 5.5 16 5.5C11.8579 5.5 8.5 8.85786 8.5 13V13.5H23.5ZM5.75 17.5V19H17V20L5.75 20C5.75 20.6937 5.84744 21.3647 6.02938 22H12V23H6.39786C7.53888 25.507 10.0659 27.25 13 27.25H19C22.3103 27.25 25.1025 25.0314 25.9706 22H19V21H26.1816C26.2267 20.6731 26.25 20.3393 26.25 20V17.5H5.75ZM23 24H14V25H23V24Z" fill="#453536"/>
</svg>
