<svg width="32" height="32" viewBox="0 0 32 32" fill="none" xmlns="http://www.w3.org/2000/svg">
<path fill-rule="evenodd" clip-rule="evenodd" d="M25.0093 23.1479C26.5686 21.1852 27.5 18.7014 27.5 16C27.5 9.64873 22.3513 4.5 16 4.5C9.64873 4.5 4.5 9.64873 4.5 16C4.5 18.7014 5.43143 21.1852 6.99066 23.1479C7.33164 22.9159 7.67709 22.6463 8.04379 22.3602C9.71881 21.0531 11.8374 19.4 16 19.4C20.1626 19.4 22.2812 21.0531 23.9562 22.3602L23.9562 22.3602C24.3229 22.6463 24.6684 22.9159 25.0093 23.1479ZM24.3477 23.9098C23.963 23.6461 23.5933 23.3589 23.2165 23.0661C21.5694 21.7863 19.7853 20.4 16 20.4C12.2147 20.4 10.4305 21.7863 8.78348 23.0661C8.40667 23.3589 8.03703 23.6461 7.65225 23.9098C9.74806 26.1209 12.713 27.5 16 27.5C19.287 27.5 22.2519 26.1209 24.3477 23.9098ZM16 29C23.1797 29 29 23.1797 29 16C29 8.8203 23.1797 3 16 3C8.8203 3 3 8.8203 3 16C3 23.1797 8.8203 29 16 29ZM21 13C21 15.7614 18.7614 18 16 18C13.2386 18 11 15.7614 11 13C11 10.2386 13.2386 8 16 8C18.7614 8 21 10.2386 21 13ZM16 17C18.2091 17 20 15.2091 20 13C20 10.7909 18.2091 9 16 9C13.7909 9 12 10.7909 12 13C12 15.2091 13.7909 17 16 17Z" fill="#453536"/>
</svg>
