<svg width="56" height="88" viewBox="0 0 56 88" fill="none" xmlns="http://www.w3.org/2000/svg">
<path d="M47.8841 0H8.11594C3.63363 0 0 3.64805 0 8.14815V79.8519C0 84.352 3.63363 88 8.11594 88H47.8841C52.359 87.9821 55.9822 84.3445 56 79.8519V8.14815C55.9822 3.65547 52.359 0.0178637 47.8841 0ZM52.7536 79.8519C52.7536 82.5519 50.5734 84.7407 47.8841 84.7407H8.11594C5.42656 84.7407 3.24638 82.5519 3.24638 79.8519V74.963H47.462C48.3585 74.963 49.0852 74.2334 49.0852 73.3333C49.0852 72.4333 48.3585 71.7037 47.462 71.7037H3.24638V8.14815C3.24638 5.44809 5.42656 3.25926 8.11594 3.25926H47.8841C50.5734 3.25926 52.7536 5.44809 52.7536 8.14815V79.8519Z" fill="#D04764"/>
<path d="M29 78C27.8954 78 27 78.8954 27 80C27 81.1046 27.8954 82 29 82C30.1046 82 31 81.1046 31 80C30.9885 78.9002 30.0998 78.0115 29 78Z" fill="#D04764"/>
<rect x="39.3138" y="26.8579" width="4" height="36" rx="2" transform="rotate(45 39.3138 26.8579)" fill="#D04764"/>
<rect x="24.4645" y="26.1509" width="4" height="16" rx="2" transform="rotate(45 24.4645 26.1509)" fill="#D04764"/>
<rect x="31" y="7" width="4" height="11" rx="2" transform="rotate(90 31 7)" fill="#D04764"/>
<rect x="38" y="7" width="4" height="4" rx="2" transform="rotate(90 38 7)" fill="#D04764"/>
<rect x="40.021" y="41.707" width="4" height="16" rx="2" transform="rotate(45 40.021 41.707)" fill="#D04764"/>
</svg>
