<svg width="40" height="70" viewBox="0 0 40 70" fill="none" xmlns="http://www.w3.org/2000/svg">
<rect x="16" y="18" width="8" height="18" rx="4" stroke="#453536" stroke-width="2"/>
<path d="M16 14L20 11L24 14" stroke="#453536" stroke-linecap="round" stroke-linejoin="round"/>
<path d="M16 9L20 6L24 9" stroke="#453536" stroke-linecap="round" stroke-linejoin="round"/>
<path d="M16 4L20 1L24 4" stroke="#453536" stroke-linecap="round" stroke-linejoin="round"/>
<path d="M16 40L20 43L24 40" stroke="#453536" stroke-linecap="round" stroke-linejoin="round"/>
<path d="M16 45L20 48L24 45" stroke="#453536" stroke-linecap="round" stroke-linejoin="round"/>
<path d="M16 50L20 53L24 50" stroke="#453536" stroke-linecap="round" stroke-linejoin="round"/>
<path fill-rule="evenodd" clip-rule="evenodd" d="M12 10.7471C5.05133 12.8822 0 19.3511 0 26.9999V52.9999C0 62.3887 7.61116 69.9999 17 69.9999H23C32.3888 69.9999 40 62.3887 40 52.9999V26.9999C40 19.3511 34.9487 12.8822 28 10.7471V12.8534C33.826 14.9126 38 20.4688 38 26.9999V52.9999C38 61.2841 31.2843 67.9999 23 67.9999H17C8.71573 67.9999 2 61.2841 2 52.9999V26.9999C2 20.4688 6.17404 14.9126 12 12.8534V10.7471Z" fill="#453536"/>
<path d="M1.5 30.5H16" stroke="#453536"/>
<path d="M24.5 30.5H39" stroke="#453536"/>
</svg>
