<svg width="32" height="32" viewBox="0 0 32 32" fill="none" xmlns="http://www.w3.org/2000/svg">
<path fill-rule="evenodd" clip-rule="evenodd" d="M6.5 23V10H9V19.9706L9 23H6.5ZM9 24H6.5V26C6.5 26.2761 6.72386 26.5 7 26.5H25C25.2761 26.5 25.5 26.2761 25.5 26V24H23H12.0416H10H9ZM14.0416 22H22V19H17.0416L14.0416 22ZM18.0416 18H22V15H21.0416L18.0416 18ZM23 13.0416V23H25.5V10H23V11V13.0416ZM22 12.6274V11H19.3848L10 20.3848L10 23H11.6274L22 12.6274ZM10.9706 18L13.9706 15H10V18H10.9706ZM14.9706 14L17.9706 11H10V14H14.9706ZM25.5 9H23H9H6.5V7C6.5 6.72386 6.72386 6.5 7 6.5H25C25.2761 6.5 25.5 6.72386 25.5 7V9ZM5 10V9V7V6C5 5.44772 5.44772 5 6 5H7H25H26C26.5523 5 27 5.44772 27 6V7V9V10V23V24V26V27C27 27.5523 26.5523 28 26 28H25H7H6C5.44772 28 5 27.5523 5 27V26V24V23V10ZM25 7.5C25 7.77614 24.7761 8 24.5 8C24.2239 8 24 7.77614 24 7.5C24 7.22386 24.2239 7 24.5 7C24.7761 7 25 7.22386 25 7.5ZM7.5 8C7.77614 8 8 7.77614 8 7.5C8 7.22386 7.77614 7 7.5 7C7.22386 7 7 7.22386 7 7.5C7 7.77614 7.22386 8 7.5 8ZM25 25.5C25 25.7761 24.7761 26 24.5 26C24.2239 26 24 25.7761 24 25.5C24 25.2239 24.2239 25 24.5 25C24.7761 25 25 25.2239 25 25.5ZM7.5 26C7.77614 26 8 25.7761 8 25.5C8 25.2239 7.77614 25 7.5 25C7.22386 25 7 25.2239 7 25.5C7 25.7761 7.22386 26 7.5 26Z" fill="#453536"/>
</svg>
