<svg width="32" height="32" viewBox="0 0 32 32" fill="none" xmlns="http://www.w3.org/2000/svg">
<path fill-rule="evenodd" clip-rule="evenodd" d="M24 3.5H8C6.067 3.5 4.5 5.067 4.5 7V25C4.5 26.933 6.067 28.5 8 28.5H24C25.933 28.5 27.5 26.933 27.5 25V7C27.5 5.067 25.933 3.5 24 3.5ZM6 7C6 5.89543 6.89543 5 8 5H24C25.1046 5 26 5.89543 26 7V25C26 26.1046 25.1046 27 24 27H8C6.89543 27 6 26.1046 6 25V7ZM22.5 22C22.5 22.8284 21.8284 23.5 21 23.5C20.1716 23.5 19.5 22.8284 19.5 22C19.5 21.1716 20.1716 20.5 21 20.5C21.8284 20.5 22.5 21.1716 22.5 22ZM24 22C24 23.6569 22.6569 25 21 25C19.3431 25 18 23.6569 18 22C18 20.3431 19.3431 19 21 19C22.6569 19 24 20.3431 24 22ZM9 8H23V9H9V8ZM23 11H9V12H23V11ZM9 14H20V15H9V14ZM18 17H9V18H18V17Z" fill="#453536"/>
</svg>
