<svg width="32" height="32" viewBox="0 0 32 32" fill="none" xmlns="http://www.w3.org/2000/svg">
<path fill-rule="evenodd" clip-rule="evenodd" d="M22.4691 6.52041C22.2756 6.49611 22.0393 6.44729 21.7748 6.36854C21.0088 6.1405 20.1929 5.71883 19.6675 5.19344C19.0977 4.62368 18.9256 4.17391 18.899 3.88919C18.8747 3.6296 18.9588 3.39563 19.1774 3.17702C19.396 2.95842 19.63 2.87436 19.8896 2.89862C20.1743 2.92522 20.624 3.09735 21.1938 3.66712C21.7192 4.1925 22.1409 5.00839 22.3689 5.77445C22.4252 5.9634 22.4661 6.13792 22.4938 6.29274C22.4829 6.37139 22.4747 6.44743 22.4691 6.52041ZM24.5984 7.30013C26.576 8.08943 28 10.4337 28 14.333C28 20.4081 24 28.9996 23 28.9996C22.6289 28.9996 21.8446 27.8164 21.0049 26.0176C20.2785 27.6192 19.2117 28.7127 18 28.9508V28.9996H17.5H16.5H15.0905C14.3186 29.6378 13.4366 29.9996 12.5 29.9996C11.5634 29.9996 10.6814 29.6378 9.90947 28.9996H8.5H7.5H7V28.9508C4.75002 28.5086 3 25.1175 3 20.9996C3 16.5814 5.01472 12.9996 7.5 12.9996C8.33403 12.9996 9.11506 13.403 9.78474 14.106C10.3446 13.6139 10.9658 13.2692 11.6263 13.1063C11.9394 12.3299 11.9437 11.511 11.5552 10.7544C11.4348 10.5198 11.2637 10.4979 10.7633 10.4633L10.7518 10.4625C10.5571 10.4491 10.2308 10.4266 9.96444 10.2537C9.6299 10.0365 9.5 9.67624 9.5 9.2628V9.04774L9.65613 8.89983L10.9895 7.63667L11.0103 7.61689L11.0333 7.59964C11.3936 7.32944 11.8162 7.37607 12.1421 7.50279C12.4693 7.62998 12.7901 7.86654 13.0766 8.14338C13.6521 8.6995 14.1982 9.52486 14.4752 10.3703C14.8922 11.6433 14.7365 12.8532 14.5007 13.5795C14.7481 13.7289 14.9868 13.9052 15.2153 14.106C15.8849 13.403 16.666 12.9996 17.5 12.9996C17.6877 12.9996 17.8726 13.0201 18.0543 13.0597C18.332 9.91929 19.6495 7.99943 21.4016 7.30013C20.552 7.0343 19.6144 6.55458 18.9604 5.90055C17.607 4.5472 17.6583 3.28193 18.4703 2.46992C19.2823 1.65791 20.5476 1.60666 21.9009 2.96001C22.3562 3.41528 22.727 4.00795 23 4.61271C23.273 4.00795 23.6438 3.41528 24.0991 2.96001C25.4524 1.60666 26.7177 1.65791 27.5297 2.46992C28.3417 3.28193 28.393 4.5472 27.0396 5.90055C26.3856 6.55458 25.448 7.0343 24.5984 7.30013ZM13.5821 13.1641C13.7466 12.5886 13.8438 11.6552 13.5248 10.6816C13.3018 10.0007 12.8479 9.31295 12.3817 8.86249C12.1474 8.63604 11.937 8.49595 11.7798 8.43482C11.699 8.40341 11.6555 8.40014 11.6359 8.4018L10.5505 9.43005C10.5609 9.43287 10.5733 9.43581 10.588 9.43874C10.6491 9.45085 10.7251 9.45824 10.8323 9.46566C10.8568 9.46736 10.8833 9.4689 10.9117 9.47054H10.9117C11.3064 9.49344 12.0541 9.53681 12.4448 10.2976C12.901 11.1859 12.9539 12.1269 12.7137 13.0059C13.0098 13.0234 13.2999 13.0771 13.5821 13.1641ZM17.5 27.4996H16.3958C17.3872 25.9623 18 23.8416 18 21.4996C18 19.0183 17.312 16.7854 16.2148 15.2314L16.3013 15.1406C16.7719 14.6466 17.1841 14.4996 17.5 14.4996C17.96 14.4996 18.6821 14.847 19.3746 16.0782C20.0407 17.2624 20.5 18.9993 20.5 20.9996C20.5 22.8605 20.1022 24.499 19.5058 25.6754C18.8867 26.8966 18.1894 27.3849 17.7107 27.479L17.6056 27.4996H17.5ZM7 21.4996C7 23.8416 7.61284 25.9623 8.60419 27.4996H7.5H7.39444L7.28925 27.479C6.81059 27.3849 6.11325 26.8966 5.49416 25.6754C4.89779 24.499 4.5 22.8605 4.5 20.9996C4.5 18.9993 4.95927 17.2624 5.62538 16.0782C6.31794 14.847 7.03995 14.4996 7.5 14.4996C7.81591 14.4996 8.22808 14.6466 8.69866 15.1406L8.78517 15.2314C7.68796 16.7854 7 19.0183 7 21.4996ZM19.5087 13.8389C20.9857 15.1509 22 17.8647 22 20.9996C22 22.0072 21.8952 22.9712 21.704 23.8592C22.1521 24.971 22.6051 25.9284 23 26.6418C23.4479 25.8326 23.9706 24.7096 24.4761 23.4032C25.1231 21.7312 25.7111 19.839 26.0846 17.9996H25V16.9996H26.2666C26.4152 16.0715 26.5 15.1704 26.5 14.333C26.5 14.22 26.4987 14.1089 26.4961 13.9996H24V12.9996H26.4331C26.2736 11.4897 25.8459 10.4224 25.33 9.72549C24.7007 8.87545 23.8931 8.49965 23 8.49965C22.1069 8.49965 21.2993 8.87545 20.6701 9.72549C20.0632 10.5452 19.5785 11.877 19.5087 13.8389ZM23.5309 6.52041C23.7244 6.49611 23.9607 6.44729 24.2252 6.36854C24.9913 6.1405 25.8071 5.71883 26.3325 5.19344C26.9023 4.62368 27.0744 4.17391 27.101 3.88919C27.1253 3.6296 27.0412 3.39563 26.8226 3.17702C26.604 2.95842 26.37 2.87436 26.1105 2.89862C25.8257 2.92522 25.376 3.09735 24.8062 3.66712C24.2808 4.1925 23.8591 5.00839 23.6311 5.77445C23.5749 5.9634 23.5339 6.13792 23.5062 6.29274C23.5171 6.37139 23.5253 6.44743 23.5309 6.52041ZM15.5495 26.9668C16.4255 25.613 17 23.6829 17 21.4996C17 19.3164 16.4255 17.3863 15.5495 16.0325C14.6671 14.6687 13.5663 13.9996 12.5 13.9996C11.4337 13.9996 10.3329 14.6687 9.45048 16.0325C8.5745 17.3863 8 19.3164 8 21.4996C8 23.6829 8.5745 25.613 9.45048 26.9668C10.3329 28.3306 11.4337 28.9996 12.5 28.9996C13.5663 28.9996 14.6671 28.3306 15.5495 26.9668ZM11.6226 8.40506C11.6224 8.40475 11.6242 8.40369 11.6286 8.40279C11.625 8.40493 11.6228 8.40538 11.6226 8.40506Z" fill="#453536"/>
</svg>
