<svg width="32" height="32" viewBox="0 0 32 32" fill="none" xmlns="http://www.w3.org/2000/svg">
<path fill-rule="evenodd" clip-rule="evenodd" d="M11 4.5V3H10V4.5V6H11V4.5ZM6.96447 7.25736L4.84315 5.13604L4.13604 5.84315L6.25736 7.96447L6.96447 7.25736ZM3.5 11H2V12H3.5H5V11H3.5ZM12.1996 7.87798C11.6837 7.63552 11.1077 7.5 10.5 7.5C8.29086 7.5 6.5 9.29086 6.5 11.5C6.5 11.934 6.56913 12.3519 6.69698 12.7433L4.67522 14.5309C4.24586 14.9105 4 15.4561 4 16.0292V27C4 28.1046 4.89543 29 6 29H11H12H20H21H26C27.1046 29 28 28.1046 28 27V16.0837C28 15.4792 27.7266 14.9072 27.2563 14.5275L24 11.8987V6C24 5.44772 23.5523 5 23 5H21C20.4477 5 20 5.44772 20 6V8.66952L16.7695 6.06158C16.0103 5.44863 14.9195 5.47308 14.1885 6.11945L12.1996 7.87798ZM21 27.5H26C26.2761 27.5 26.5 27.2761 26.5 27V16.0837C26.5 15.9326 26.4317 15.7896 26.3141 15.6946L15.8273 7.22872C15.6375 7.07548 15.3648 7.0816 15.182 7.24319L5.6688 15.6546C5.56147 15.7495 5.5 15.8859 5.5 16.0292V27C5.5 27.2761 5.72386 27.5 6 27.5H11V20C11 18.8954 11.8954 18 13 18H19C20.1046 18 21 18.8954 21 20V27.5ZM20 27.5H16.5V19H19C19.5523 19 20 19.4477 20 20V27.5ZM15.5 19V27.5H12V20C12 19.4477 12.4477 19 13 19H15.5ZM11.356 8.62388L7.54098 11.997C7.51403 11.8354 7.5 11.6693 7.5 11.5C7.5 9.84315 8.84315 8.5 10.5 8.5C10.7974 8.5 11.0847 8.54328 11.356 8.62388ZM23 6V11.0914L21 9.47682V6H23ZM19 12H13V13H19V12ZM15 23.5C15 23.7761 14.7761 24 14.5 24C14.2239 24 14 23.7761 14 23.5C14 23.2239 14.2239 23 14.5 23C14.7761 23 15 23.2239 15 23.5ZM17.5 24C17.7761 24 18 23.7761 18 23.5C18 23.2239 17.7761 23 17.5 23C17.2239 23 17 23.2239 17 23.5C17 23.7761 17.2239 24 17.5 24Z" fill="#453536"/>
</svg>
