<svg width="32" height="32" viewBox="0 0 32 32" fill="none" xmlns="http://www.w3.org/2000/svg">
<path fill-rule="evenodd" clip-rule="evenodd" d="M15.5 3.5C15.1122 3.5 14.7759 3.72077 14.61 4.04349C15.0653 4.01479 15.5292 4 16 4C16.4708 4 16.9347 4.01479 17.39 4.04349C17.2241 3.72077 16.8878 3.5 16.5 3.5H15.5ZM15.5 2.5C14.5187 2.5 13.7025 3.2067 13.5325 4.13892C8.64545 4.69894 5 6.88661 5 9.5C5 11.8181 7.86808 13.8012 11.9267 14.6106C12.309 15.3429 12.8229 15.9398 13.4927 16.3538C13.4536 17.2419 13.2572 17.7568 12.8616 18.005C7.94019 18.1659 4 22.2062 4 27.1667C4 28.1792 4.82081 29 5.83333 29H21.5H22.5H27.3095C28.322 29 29.1429 28.1792 29.1429 27.1667C29.1429 22.1041 25.0388 18 19.9762 18H19.1306C18.7402 17.7499 18.5461 17.236 18.5073 16.3538C18.5119 16.351 18.5164 16.3482 18.5209 16.3454C19.184 15.9317 19.6936 15.338 20.0733 14.6106C24.1319 13.8012 27 11.8181 27 9.5C27 6.88661 23.3545 4.69894 18.4675 4.13892C18.2975 3.2067 17.4813 2.5 16.5 2.5H15.5ZM20.5295 13.4867C22.168 13.0926 23.5198 12.5008 24.4721 11.8111C25.5592 11.0238 26 10.2124 26 9.5C26 8.56404 25.2153 7.44749 23.331 6.50534C21.5065 5.59309 18.916 5 16 5C13.084 5 10.4935 5.59309 8.66904 6.50534C6.78474 7.44749 6 8.56404 6 9.5C6 10.2124 6.44084 11.0238 7.52793 11.8111C8.48022 12.5008 9.83196 13.0926 11.4705 13.4867C11.141 12.4231 11 11.1822 11 9.85712C11 9.35023 11.037 8.85566 11.1072 8.37863C11.2366 8.31739 11.3724 8.24991 11.5156 8.1787L11.5157 8.17867C12.5178 7.68051 13.8868 7 16 7C18.1132 7 19.4822 7.68051 20.4843 8.17867L20.4844 8.17868C20.6276 8.2499 20.7634 8.31739 20.8928 8.37863C20.963 8.85566 21 9.35023 21 9.85712C21 11.1822 20.859 12.4231 20.5295 13.4867ZM17.5363 16.7884C17.0787 16.9266 16.568 17 16 17C15.4333 17 14.9237 16.927 14.4669 16.7894C14.4658 16.789 14.4647 16.7887 14.4637 16.7884C14.4192 17.2182 14.3267 17.6355 14.1488 18H17.8512C17.6733 17.6355 17.5808 17.2182 17.5363 16.7884ZM12.514 9.35895C12.5047 9.52294 12.5 9.68909 12.5 9.85712C12.5 11.7168 12.8026 13.1807 13.3775 14.132C13.8841 14.9703 14.6445 15.5 16 15.5C17.3555 15.5 18.1159 14.9703 18.6225 14.132C19.1974 13.1807 19.5 11.7168 19.5 9.85712C19.5 9.68909 19.4953 9.52294 19.486 9.35895C18.5996 8.92915 17.5524 8.5 16 8.5C14.4476 8.5 13.4004 8.92915 12.514 9.35895ZM27.3095 27.5H22.5V19.9251C25.4943 20.9686 27.6429 23.8167 27.6429 27.1667C27.6429 27.3508 27.4936 27.5 27.3095 27.5ZM20.5 19.5176C20.8399 19.5405 21.1737 19.5856 21.5 19.6514V27.5H20.5V19.5176ZM19.5 19.5H13.1667C12.9421 19.5 12.7197 19.5097 12.5 19.5286V27.5H19.5V19.5ZM11.5 27.5V19.6817C11.1575 19.7576 10.8236 19.8564 10.5 19.9765V27.5H11.5ZM5.5 27.1667C5.5 24.2607 7.11683 21.7323 9.5 20.432V27.5H5.83333C5.64924 27.5 5.5 27.3508 5.5 27.1667Z" fill="#453536"/>
</svg>
